<?xml version="1.0" encoding="utf-8"?>
<!-- Generator: Adobe Illustrator 16.0.4, SVG Export Plug-In . SVG Version: 6.00 Build 0)  -->
<!DOCTYPE svg PUBLIC "-//W3C//DTD SVG 1.1//EN" "http://www.w3.org/Graphics/SVG/1.1/DTD/svg11.dtd">
<svg version="1.1" id="Ebene_1" xmlns="http://www.w3.org/2000/svg" xmlns:xlink="http://www.w3.org/1999/xlink" x="0px" y="0px"
	 width="64px" height="64px" viewBox="0 0 64 64" enable-background="new 0 0 64 64" xml:space="preserve">
<g>
	<polygon fill="#7A7A79" points="41.328,36.631 41.328,61.104 5.31,61.104 5.31,45.812 2.384,43.056 2.384,64 44.227,64 
		44.227,33.419 	"/>
	<polygon fill="#7A7A79" points="5.31,24.103 39.357,24.103 42.847,21.184 2.384,21.184 2.384,33.064 5.31,31.192 	"/>
	<g>
		<linearGradient id="SVGID_1_" gradientUnits="userSpaceOnUse" x1="0.7988" y1="31.1875" x2="63.6328" y2="31.1875">
			<stop  offset="0" style="stop-color:#03A7E5"/>
			<stop  offset="1" style="stop-color:#014A79"/>
		</linearGradient>
		<polygon fill="url(#SVGID_1_)" points="10.811,30.602 0.799,37.022 20.099,55.337 63.633,7.037 20.797,42.968 		"/>
		<path fill="#014A79" d="M20.127,56.046L0,36.947l10.917-7.002l9.949,12.319L63.314,6.658L64,7.369L20.127,56.046z M1.599,37.098
			l18.472,17.53l38.44-42.647l-37.782,31.69L10.704,31.259L1.599,37.098z"/>
	</g>
</g>
</svg>
