<?xml version="1.0" encoding="utf-8"?>
<!-- Generator: Adobe Illustrator 16.0.4, SVG Export Plug-In . SVG Version: 6.00 Build 0)  -->
<!DOCTYPE svg PUBLIC "-//W3C//DTD SVG 1.1//EN" "http://www.w3.org/Graphics/SVG/1.1/DTD/svg11.dtd">
<svg version="1.1" id="Ebene_1" xmlns="http://www.w3.org/2000/svg" xmlns:xlink="http://www.w3.org/1999/xlink" x="0px" y="0px"
	 width="64px" height="64px" viewBox="0 0 64 64" enable-background="new 0 0 64 64" xml:space="preserve">
<g>
	<g>
		<linearGradient id="SVGID_1_" gradientUnits="userSpaceOnUse" x1="0.3105" y1="38.4697" x2="38.9326" y2="38.4697">
			<stop  offset="0.3103" style="stop-color:#E30613"/>
			<stop  offset="1" style="stop-color:#BE1622"/>
		</linearGradient>
		<path fill="url(#SVGID_1_)" d="M38.933,42.82H14.729c-5.09,0-16.589-4.664-12.624-14.776c-1.143,2.027-1.795,4.365-1.795,6.857
			c0,7.729,6.689,13.995,14.419,13.995h24.2L38.933,42.82z"/>
		<path fill="#801D18" d="M38.93,49.207h-24.2C6.745,49.207,0,42.655,0,34.901c0-2.454,0.634-4.879,1.834-7.01
			c0.082-0.145,0.259-0.196,0.404-0.129c0.147,0.07,0.215,0.242,0.156,0.394c-1.249,3.186-1.029,6.05,0.651,8.516
			c2.718,3.983,8.578,5.838,11.684,5.838h24.203c0.082,0,0.161,0.032,0.22,0.092c0.059,0.058,0.091,0.137,0.091,0.219l-0.003,6.076
			C39.24,49.067,39.102,49.207,38.93,49.207z M0.977,31.806c-0.235,1.012-0.355,2.051-0.355,3.096
			c0,7.418,6.461,13.685,14.108,13.685h23.89l0.003-5.455H14.729c-3.334,0-9.322-1.896-12.196-6.109
			C1.446,35.428,0.926,33.683,0.977,31.806z"/>
	</g>
	<g>
		<path fill="#E30613" d="M46.243,43.101h-3.532c-6.835,0-18.576-6.245-15.526-14.028c-0.879,1.563-1.381,3.362-1.381,5.28
			c0,5.943,4.934,13.154,16.907,13.422h3.529L46.243,43.101z"/>
		<path fill="#801D18" d="M46.24,48.085h-3.529c-11.832-0.265-17.218-7.304-17.218-13.732c0-1.901,0.491-3.779,1.421-5.433
			c0.08-0.143,0.259-0.197,0.404-0.128c0.146,0.07,0.215,0.241,0.156,0.394c-0.856,2.185-0.56,4.362,0.881,6.476
			c2.909,4.265,9.771,7.129,14.355,7.129h3.532c0.082,0,0.161,0.032,0.22,0.091s0.091,0.137,0.091,0.22l-0.003,4.674
			C46.551,47.946,46.412,48.085,46.24,48.085z M26.393,31.955c-0.184,0.783-0.278,1.588-0.278,2.397
			c0,6.136,5.195,12.856,16.604,13.111h3.211l0.003-4.053h-3.222c-4.742,0-11.85-2.974-14.868-7.399
			C26.949,34.702,26.464,33.332,26.393,31.955z"/>
	</g>
	<g>
		<linearGradient id="SVGID_2_" gradientUnits="userSpaceOnUse" x1="3.8965" y1="48.5713" x2="38.7344" y2="48.5713">
			<stop  offset="0" style="stop-color:#E3342D"/>
			<stop  offset="1" style="stop-color:#BC0A26"/>
		</linearGradient>
		<path fill="url(#SVGID_2_)" d="M38.734,46.113H12.04c-2.876,0-9.37,2.637-7.131,8.348c-0.645-1.144-1.013-2.466-1.013-3.873
			c0-4.366,3.776-7.906,8.144-7.906h26.691L38.734,46.113z"/>
		<path fill="#801D18" d="M4.909,54.771c-0.108,0-0.214-0.058-0.271-0.158C3.949,53.392,3.586,52,3.586,50.588
			c0-4.454,3.871-8.217,8.454-8.217h26.691c0.172,0,0.311,0.139,0.311,0.311l0.003,3.432c0,0.083-0.032,0.161-0.091,0.22
			c-0.058,0.059-0.138,0.091-0.22,0.091H12.04c-1.727,0-4.981,1.029-6.487,3.24c-0.924,1.353-1.043,2.929-0.355,4.684
			c0.06,0.152-0.008,0.323-0.155,0.394C4.999,54.762,4.954,54.771,4.909,54.771z M12.04,42.992c-4.246,0-7.833,3.478-7.833,7.596
			c0,0.204,0.008,0.407,0.024,0.61c0.133-0.662,0.402-1.291,0.808-1.885c1.651-2.421,5.088-3.511,7.001-3.511h26.384l-0.003-2.811
			H12.04z"/>
	</g>
	<g>
		
			<linearGradient id="SVGID_3_" gradientUnits="userSpaceOnUse" x1="63.6904" y1="-754.2354" x2="24.7217" y2="-754.2354" gradientTransform="matrix(1 0 0 -1 0 -704.6016)">
			<stop  offset="0.3103" style="stop-color:#E30613"/>
			<stop  offset="1" style="stop-color:#BE1622"/>
		</linearGradient>
		<path fill="url(#SVGID_3_)" d="M53.388,56.178h-8.74l7.269-7.267H39.138c-5.087,0-16.587,4.664-12.623,14.778
			c-1.142-2.028-1.794-4.367-1.794-6.86c0-7.725,6.69-13.995,14.417-13.995h12.773l-7.264-7.258h8.74l10.302,10.297L53.388,56.178z"
			/>
		<path fill="#801D18" d="M26.515,64c-0.107,0-0.213-0.058-0.271-0.158c-1.2-2.131-1.834-4.557-1.834-7.013
			c0-7.754,6.744-14.306,14.728-14.306H51.16l-6.731-6.728c-0.09-0.089-0.116-0.222-0.068-0.338
			c0.049-0.116,0.162-0.192,0.287-0.192h8.74c0.082,0,0.161,0.032,0.219,0.091l10.302,10.297c0.06,0.059,0.092,0.138,0.092,0.22
			c0,0.083-0.032,0.161-0.091,0.22L53.607,56.396c-0.058,0.06-0.138,0.092-0.22,0.092h-8.74c-0.125,0-0.238-0.076-0.287-0.191
			c-0.048-0.117-0.021-0.25,0.067-0.339l6.738-6.736H39.138c-3.104,0-8.964,1.854-11.681,5.838
			c-1.682,2.465-1.901,5.331-0.652,8.517c0.059,0.152-0.009,0.323-0.156,0.394C26.605,63.99,26.561,64,26.515,64z M39.138,43.145
			c-7.646,0-14.106,6.267-14.106,13.685c0,1.046,0.12,2.086,0.354,3.098c-0.05-1.877,0.471-3.622,1.559-5.217
			c2.843-4.168,8.956-6.109,12.193-6.109h12.778c0.125,0,0.238,0.075,0.287,0.191c0.048,0.116,0.021,0.25-0.068,0.339l-6.737,6.736
			h7.861l9.991-9.994l-9.991-9.986h-7.861l6.732,6.728c0.089,0.089,0.116,0.223,0.068,0.339c-0.049,0.116-0.162,0.191-0.287,0.191
			H39.138z"/>
	</g>
</g>
</svg>
