<?xml version="1.0" encoding="utf-8"?>
<!-- Generator: Adobe Illustrator 16.0.4, SVG Export Plug-In . SVG Version: 6.00 Build 0)  -->
<!DOCTYPE svg PUBLIC "-//W3C//DTD SVG 1.1//EN" "http://www.w3.org/Graphics/SVG/1.1/DTD/svg11.dtd">
<svg version="1.1" id="Ebene_1" xmlns="http://www.w3.org/2000/svg" xmlns:xlink="http://www.w3.org/1999/xlink" x="0px" y="0px"
	 width="64px" height="64px" viewBox="0 0 64 64" enable-background="new 0 0 64 64" xml:space="preserve">
<g>
	<g>
		<path fill="#66160E" d="M50.679,30.757v-6.43h-7.107l-3.414-3.09l-16.844,0.22L0.947,42.626h3.892v21.172h8.814V47.204h8.967
			v16.594h19.323H60.54V42.626h3.258L50.679,30.757z M36.456,56.37h-9.165v-9.166h9.165V56.37z"/>
		<path fill="#66160E" d="M60.54,64H22.62c-0.111,0-0.202-0.091-0.202-0.202V47.406h-8.562v16.392c0,0.111-0.091,0.202-0.202,0.202
			H4.839c-0.111,0-0.202-0.091-0.202-0.202v-20.97H0.947c-0.083,0-0.157-0.05-0.188-0.127c-0.031-0.077-0.012-0.165,0.049-0.222
			l22.366-21.17c0.037-0.034,0.085-0.054,0.137-0.055l16.843-0.22c0.049,0.01,0.101,0.019,0.139,0.052l3.356,3.038h7.029
			c0.111,0,0.202,0.091,0.202,0.202v6.34l13.053,11.81c0.062,0.056,0.083,0.145,0.053,0.223s-0.104,0.129-0.188,0.129h-3.056v20.97
			C60.742,63.909,60.651,64,60.54,64z M22.822,63.596h37.516v-20.97c0-0.111,0.091-0.202,0.202-0.202h2.732L50.543,30.906
			c-0.042-0.038-0.066-0.093-0.066-0.149v-6.229h-6.905c-0.05,0-0.099-0.019-0.136-0.052L40.08,21.44l-16.686,0.218L1.455,42.424
			h3.384c0.111,0,0.202,0.091,0.202,0.202v20.97h8.41V47.204c0-0.111,0.091-0.202,0.202-0.202h8.967
			c0.111,0,0.202,0.091,0.202,0.202V63.596z M36.456,56.572h-9.165c-0.111,0-0.202-0.091-0.202-0.202v-9.166
			c0-0.111,0.091-0.202,0.202-0.202h9.165c0.111,0,0.202,0.091,0.202,0.202v9.166C36.658,56.481,36.567,56.572,36.456,56.572z
			 M27.493,56.168h8.761v-8.762h-8.761V56.168z"/>
	</g>
	<g>
		<polygon fill="#A42423" points="22.505,20.648 39.349,20.429 62.989,41.818 44.872,41.818 		"/>
		<path fill="#66160E" d="M62.989,42.021H44.872l-0.139-0.056l-22.367-21.17l0.137-0.349l16.843-0.22l0.139,0.053l23.641,21.389
			L62.989,42.021z M44.953,41.616h17.512L39.271,20.632l-16.266,0.212L44.953,41.616z"/>
	</g>
	<g>
		<path fill="#66160E" d="M22.511,20.478l0.229,0.218c0.146-0.062,0.283-0.134,0.406-0.219L22.511,20.478z"/>
		<path fill="#66160E" d="M61.515,40.386c0.037,0.083,0.066,0.169,0.075,0.263c0.047,0.466-0.305,0.903-0.838,1.124l0.733-0.003
			c0.295-0.264,0.47-0.603,0.493-0.967L61.515,40.386z"/>
		<path fill="#66160E" d="M60.235,39.234c-0.072,0.016-0.146,0.032-0.223,0.039c-0.747,0.074-1.404-0.269-1.576-0.784
			c0.252-0.05,0.481-0.141,0.686-0.257L58.81,37.95c-0.19,0.09-0.404,0.155-0.638,0.178c-0.747,0.075-1.405-0.268-1.576-0.784
			c0.396-0.077,0.735-0.256,0.999-0.487l-0.29-0.26c-0.248,0.204-0.586,0.348-0.973,0.386c-0.745,0.074-1.4-0.265-1.575-0.778
			c0.556-0.09,1.013-0.366,1.299-0.732l-0.291-0.262c-0.239,0.323-0.674,0.567-1.193,0.619c-0.75,0.075-1.409-0.271-1.578-0.79
			c0.641-0.145,1.148-0.536,1.36-1.025c0.162,0.233,0.403,0.42,0.691,0.549l-1.007-0.907c-0.092,0.52-0.654,0.964-1.381,1.035
			c-0.747,0.076-1.405-0.269-1.576-0.783c0.674-0.133,1.212-0.533,1.432-1.038c0.292,0.42,0.836,0.691,1.46,0.728l-0.603-0.542
			c-0.266-0.12-0.471-0.301-0.583-0.525l-0.516-0.465c-0.695,0.026-1.29-0.302-1.452-0.787c0.152-0.03,0.294-0.077,0.43-0.133
			l-0.336-0.302c-0.114,0.033-0.233,0.06-0.357,0.073c-0.747,0.073-1.405-0.27-1.576-0.784c0.296-0.059,0.56-0.174,0.786-0.322
			l-0.301-0.271c-0.214,0.121-0.471,0.203-0.75,0.231c-0.747,0.074-1.405-0.268-1.577-0.783c0.441-0.086,0.813-0.295,1.086-0.564
			l-0.29-0.263c-0.253,0.245-0.626,0.422-1.06,0.466c-0.739,0.073-1.393-0.262-1.572-0.767c0.001,0,0.001,0,0.003,0
			c0.62-0.062,1.139-0.358,1.452-0.757l-0.301-0.272c-0.24,0.326-0.668,0.574-1.19,0.626c-0.752,0.075-1.411-0.271-1.578-0.789
			c0.529-0.123,0.969-0.412,1.224-0.787c0.258,0.254,0.624,0.425,1.038,0.494l-1.796-1.616c-0.396-0.126-0.699-0.381-0.806-0.708
			c0.005,0,0.01-0.003,0.016-0.004l-0.394-0.353c-0.699,0.029-1.301-0.3-1.463-0.788c0.156-0.03,0.301-0.077,0.44-0.134
			l-0.337-0.304c-0.116,0.035-0.238,0.063-0.366,0.076c-0.747,0.073-1.405-0.27-1.577-0.785c0.299-0.058,0.565-0.174,0.795-0.325
			l-0.302-0.271c-0.217,0.123-0.474,0.207-0.757,0.235c-0.746,0.074-1.404-0.269-1.576-0.783c0.188-0.037,0.359-0.1,0.522-0.176
			l-1.937,0.006c0.282,0.136,0.608,0.216,0.962,0.215c-0.067,0.538-0.645,1.004-1.392,1.078c-0.746,0.075-1.404-0.269-1.576-0.783
			c0.409-0.08,0.754-0.267,1.021-0.508l-0.72,0.003c-0.172,0.07-0.361,0.123-0.565,0.143c-0.342,0.034-0.662-0.022-0.929-0.14
			l-0.682,0.002c0.338,0.334,0.845,0.547,1.422,0.544c-0.066,0.538-0.644,1.004-1.391,1.079c-0.747,0.074-1.404-0.269-1.576-0.783
			c0.58-0.114,1.043-0.433,1.305-0.84l-0.497,0.001c-0.254,0.251-0.632,0.433-1.072,0.477c-0.581,0.058-1.104-0.139-1.391-0.47
			l-0.722,0.001c-0.193,0.417-0.689,0.747-1.307,0.809c-0.748,0.074-1.406-0.269-1.576-0.785c0.02-0.003,0.035-0.012,0.054-0.016
			l-1.023,0.003c0.165,0.037,0.337,0.059,0.517,0.059c-0.065,0.539-0.645,1.004-1.392,1.078c-0.061,0.007-0.118,0.005-0.177,0.007
			l0.496,0.472c-0.02-0.039-0.041-0.076-0.055-0.116c0.648-0.128,1.166-0.504,1.4-0.982c0.325,0.423,0.906,0.69,1.567,0.687
			c-0.067,0.539-0.645,1.005-1.392,1.08c-0.37,0.036-0.719-0.03-0.996-0.169l0.58,0.553c0.076,0.008,0.149,0.022,0.228,0.022
			c-0.006,0.053-0.021,0.105-0.038,0.157l0.641,0.609c0.328,0.238,0.761,0.381,1.238,0.378c-0.024,0.199-0.119,0.387-0.265,0.549
			l0.285,0.271c0.102-0.112,0.191-0.232,0.254-0.361c0.324,0.423,0.905,0.689,1.566,0.687c-0.04,0.327-0.27,0.625-0.609,0.826
			l0.294,0.279c0.26-0.173,0.466-0.395,0.59-0.646c0.324,0.423,0.906,0.688,1.566,0.688c-0.057,0.453-0.476,0.851-1.052,1.012
			l0.322,0.307c0.456-0.181,0.819-0.486,1.003-0.86c0.337,0.44,0.953,0.712,1.647,0.686c-0.071,0.536-0.647,0.998-1.393,1.072
			c-0.105,0.01-0.208,0.012-0.309,0.005l1.586,1.51c0.122,0.021,0.246,0.037,0.375,0.037c-0.01,0.086-0.038,0.169-0.073,0.25
			l0.298,0.283c0.014-0.026,0.037-0.048,0.05-0.075c0.325,0.423,0.905,0.69,1.567,0.688c-0.028,0.226-0.148,0.436-0.331,0.612
			l0.282,0.268c0.131-0.128,0.247-0.267,0.323-0.421c0.323,0.423,0.905,0.688,1.564,0.687c-0.043,0.352-0.308,0.671-0.693,0.871
			l0.294,0.281c0.298-0.18,0.537-0.416,0.674-0.693c0.325,0.422,0.906,0.688,1.568,0.687c-0.061,0.48-0.526,0.899-1.156,1.038
			l0.325,0.312c0.506-0.172,0.908-0.491,1.104-0.893c0.325,0.424,0.906,0.689,1.566,0.688c-0.066,0.539-0.644,1.004-1.391,1.078
			c-0.123,0.013-0.242,0.009-0.358,0l1.585,1.509c0.113,0.021,0.227,0.041,0.347,0.045c-0.009,0.078-0.032,0.154-0.062,0.227
			l0.302,0.287c0.01-0.017,0.024-0.031,0.033-0.049c0.324,0.423,0.906,0.689,1.566,0.687c-0.026,0.217-0.14,0.42-0.309,0.593
			l0.284,0.268c0.12-0.123,0.226-0.254,0.298-0.4c0.325,0.423,0.907,0.689,1.566,0.686c-0.041,0.345-0.293,0.657-0.663,0.858
			l0.293,0.279c0.283-0.179,0.513-0.409,0.646-0.678c0.293,0.383,0.795,0.642,1.377,0.686c0.024,0.098,0.06,0.191,0.105,0.282
			c-0.094,0.194-0.259,0.368-0.468,0.506l0.598-0.002c0.043-0.05,0.093-0.095,0.127-0.146c0.056,0.054,0.122,0.099,0.187,0.145
			l2.534-0.006c0.25-0.171,0.447-0.39,0.567-0.637c0.237,0.309,0.609,0.534,1.05,0.634l0.985-0.004
			c0.665-0.136,1.198-0.525,1.415-1.026c0.292,0.419,0.831,0.702,1.455,0.741c-0.011,0.096-0.043,0.188-0.084,0.278l0.798-0.002
			c-0.082-0.094-0.148-0.197-0.187-0.312c0.685-0.11,1.235-0.497,1.48-0.996c0.311,0.406,0.858,0.671,1.485,0.688
			c-0.026,0.226-0.146,0.437-0.325,0.612h0.501c0.031-0.05,0.072-0.095,0.098-0.146c0.042,0.054,0.098,0.097,0.146,0.146
			l0.688-0.001c-0.318-0.139-0.56-0.362-0.655-0.642c0.886-0.144,1.551-0.75,1.61-1.457c0.238,0.006,0.461,0.059,0.656,0.141
			L60.235,39.234z M54.535,36.652c0.314,0.453,0.92,0.739,1.607,0.737c-0.065,0.538-0.644,1.004-1.391,1.078
			c-0.749,0.074-1.409-0.271-1.578-0.79C53.815,37.532,54.322,37.141,54.535,36.652z M52.774,35.499
			c0.293,0.42,0.831,0.702,1.456,0.74c-0.06,0.543-0.64,1.015-1.393,1.091c-0.743,0.074-1.4-0.267-1.574-0.778
			C51.975,36.437,52.545,36.024,52.774,35.499z M45.773,33.763c0.349,0.342,0.889,0.543,1.484,0.528
			c0.023,0.09,0.057,0.177,0.1,0.259c-0.197,0.412-0.696,0.737-1.31,0.798c-0.747,0.074-1.404-0.269-1.576-0.784
			C45.036,34.452,45.509,34.155,45.773,33.763z M44.208,34.202c-0.747,0.074-1.405-0.269-1.576-0.784
			c0.647-0.126,1.165-0.502,1.401-0.981c0.294,0.383,0.796,0.643,1.379,0.687c0.023,0.098,0.059,0.192,0.104,0.282
			C45.319,33.816,44.82,34.142,44.208,34.202z M46.089,35.75c0.665-0.066,1.224-0.398,1.526-0.843
			c0.337,0.333,0.857,0.531,1.434,0.53c-0.066,0.539-0.644,1.004-1.392,1.078c-0.739,0.074-1.392-0.261-1.572-0.766
			C46.087,35.75,46.087,35.75,46.089,35.75z M47.661,34.247c0.647-0.128,1.166-0.504,1.4-0.982c0.325,0.424,0.906,0.69,1.566,0.688
			c-0.066,0.539-0.645,1.004-1.391,1.078C48.49,35.105,47.832,34.762,47.661,34.247z M47.396,33.886
			c-0.739,0.072-1.392-0.261-1.572-0.767c0.002,0,0.002,0.001,0.003,0.001c0.666-0.066,1.226-0.398,1.526-0.844
			c0.338,0.333,0.858,0.532,1.435,0.531C48.721,33.346,48.144,33.812,47.396,33.886z M45.788,32.717
			c-0.749,0.074-1.406-0.268-1.577-0.784c0.565-0.11,1.035-0.407,1.302-0.802c0.348,0.344,0.888,0.544,1.484,0.529
			c0.022,0.091,0.056,0.177,0.1,0.26C46.899,32.332,46.4,32.655,45.788,32.717z M43.945,31.571
			c-0.746,0.074-1.404-0.269-1.575-0.784c0.648-0.126,1.167-0.501,1.401-0.98c0.294,0.383,0.796,0.642,1.38,0.686
			c0.023,0.099,0.059,0.193,0.104,0.281C45.058,31.186,44.559,31.511,43.945,31.571z M42.108,30.427
			c-0.749,0.073-1.406-0.271-1.577-0.785c0.646-0.127,1.165-0.502,1.4-0.979c0.325,0.423,0.907,0.688,1.567,0.686
			C43.433,29.887,42.854,30.353,42.108,30.427z M40.091,27.515c0.325,0.424,0.906,0.69,1.567,0.688
			c-0.066,0.538-0.645,1.004-1.392,1.078c-0.746,0.074-1.405-0.269-1.575-0.783C39.339,28.369,39.856,27.994,40.091,27.515z
			 M38.427,28.135c-0.752,0.074-1.411-0.271-1.577-0.79c0.611-0.142,1.096-0.508,1.321-0.968c0.338,0.44,0.953,0.712,1.646,0.686
			C39.747,27.6,39.17,28.062,38.427,28.135z M40.269,27.006c0.611-0.143,1.096-0.508,1.322-0.967
			c0.337,0.439,0.954,0.711,1.646,0.684c-0.07,0.536-0.647,0.999-1.392,1.072C41.096,27.87,40.437,27.523,40.269,27.006z
			 M39.926,26.657c-0.747,0.075-1.404-0.268-1.576-0.783c0.648-0.127,1.166-0.504,1.401-0.982c0.323,0.423,0.906,0.69,1.566,0.688
			C41.251,26.118,40.673,26.583,39.926,26.657z M38.086,25.513c-0.747,0.074-1.406-0.269-1.577-0.783
			c0.648-0.128,1.166-0.504,1.401-0.982c0.324,0.423,0.906,0.689,1.566,0.687C39.41,24.973,38.832,25.438,38.086,25.513z
			 M37.897,25.92c-0.067,0.538-0.645,1.003-1.392,1.078c-0.747,0.074-1.404-0.269-1.576-0.785c0.648-0.127,1.166-0.503,1.4-0.98
			C36.655,25.654,37.236,25.921,37.897,25.92z M34.665,25.852c-0.747,0.074-1.404-0.269-1.576-0.783
			c0.647-0.128,1.166-0.503,1.401-0.981c0.324,0.423,0.905,0.689,1.566,0.687C35.991,25.312,35.412,25.777,34.665,25.852z
			 M36.398,27.402c-0.071,0.536-0.647,0.999-1.392,1.072c-0.751,0.074-1.411-0.272-1.577-0.79c0.609-0.143,1.096-0.509,1.322-0.968
			C35.089,27.157,35.705,27.429,36.398,27.402z M36.671,27.854c0.324,0.424,0.906,0.689,1.567,0.688
			c-0.067,0.538-0.644,1.004-1.392,1.078c-0.746,0.074-1.404-0.269-1.576-0.784C35.918,28.709,36.436,28.333,36.671,27.854z
			 M38.513,28.999c0.324,0.424,0.905,0.69,1.565,0.688c-0.066,0.54-0.645,1.005-1.39,1.079c-0.748,0.074-1.405-0.269-1.578-0.783
			C37.759,29.854,38.277,29.479,38.513,28.999z M40.353,30.146c0.323,0.423,0.906,0.689,1.566,0.688
			c-0.066,0.538-0.644,1.003-1.392,1.077c-0.746,0.074-1.404-0.268-1.575-0.783C39.6,31,40.117,30.624,40.353,30.146z
			 M42.192,31.292c0.324,0.423,0.907,0.688,1.566,0.686c-0.065,0.539-0.644,1.005-1.39,1.079c-0.747,0.074-1.405-0.269-1.578-0.784
			C41.438,32.146,41.957,31.77,42.192,31.292z M44.021,34.608c-0.066,0.539-0.645,1.004-1.39,1.078
			c-0.749,0.074-1.405-0.269-1.578-0.783c0.648-0.128,1.166-0.503,1.401-0.98C42.779,34.346,43.361,34.611,44.021,34.608z
			 M44.294,35.067c0.294,0.383,0.796,0.643,1.38,0.686c0.023,0.1,0.058,0.192,0.104,0.282c-0.197,0.412-0.697,0.736-1.311,0.798
			c-0.745,0.074-1.404-0.269-1.575-0.785C43.541,35.922,44.06,35.546,44.294,35.067z M46.034,36.393
			c0.333,0.326,0.84,0.525,1.403,0.53c0.023,0.093,0.059,0.182,0.101,0.267c-0.197,0.411-0.695,0.735-1.309,0.797
			c-0.745,0.073-1.4-0.267-1.575-0.778C45.255,37.11,45.756,36.804,46.034,36.393z M46.27,38.388
			c0.666-0.066,1.225-0.396,1.526-0.842c0.339,0.333,0.858,0.532,1.435,0.53c-0.067,0.539-0.644,1.003-1.392,1.079
			c-0.739,0.072-1.392-0.262-1.572-0.768C46.268,38.388,46.269,38.388,46.27,38.388z M47.843,36.892
			c0.685-0.111,1.236-0.498,1.481-0.997c0.31,0.408,0.858,0.672,1.486,0.689c-0.064,0.542-0.643,1.011-1.392,1.085
			C48.674,37.743,48.019,37.403,47.843,36.892z M51.083,37.049c0.325,0.423,0.906,0.69,1.567,0.687
			c-0.067,0.539-0.645,1.004-1.391,1.079c-0.747,0.075-1.405-0.269-1.576-0.783C50.331,37.903,50.849,37.527,51.083,37.049z
			 M52.469,35.098c-0.066,0.538-0.644,1.004-1.391,1.078s-1.405-0.269-1.576-0.783c0.646-0.128,1.165-0.503,1.399-0.981
			C51.227,34.834,51.808,35.101,52.469,35.098z M52.208,32.467c-0.067,0.539-0.644,1.005-1.393,1.079
			c-0.745,0.074-1.404-0.269-1.575-0.784c0.647-0.127,1.166-0.503,1.4-0.981C50.966,32.202,51.547,32.47,52.208,32.467z
			 M50.367,31.321c-0.066,0.539-0.645,1.004-1.391,1.078c-0.748,0.074-1.406-0.268-1.577-0.782c0.649-0.128,1.167-0.504,1.402-0.982
			C49.125,31.058,49.708,31.324,50.367,31.321z M47.093,29.646c0.338,0.333,0.857,0.532,1.434,0.53
			c-0.065,0.539-0.644,1.004-1.392,1.078c-0.738,0.073-1.392-0.261-1.571-0.767c0.002,0,0.002,0,0.003,0
			C46.232,30.422,46.791,30.091,47.093,29.646z M46.735,29.03c0.023,0.091,0.057,0.176,0.099,0.26
			c-0.196,0.412-0.695,0.735-1.309,0.797c-0.747,0.073-1.404-0.269-1.576-0.784c0.565-0.11,1.037-0.409,1.302-0.802
			C45.6,28.843,46.14,29.045,46.735,29.03z M44.89,27.861c0.023,0.1,0.059,0.192,0.105,0.282c-0.198,0.412-0.697,0.736-1.31,0.798
			c-0.747,0.073-1.404-0.269-1.576-0.783c0.647-0.128,1.165-0.503,1.402-0.982C43.805,27.559,44.307,27.817,44.89,27.861z
			 M44.549,25.239c0.023,0.1,0.059,0.192,0.105,0.282c-0.199,0.412-0.697,0.736-1.311,0.798c-0.746,0.073-1.404-0.269-1.575-0.785
			c0.647-0.126,1.167-0.502,1.401-0.98C43.463,24.937,43.966,25.195,44.549,25.239z M42.896,24.095
			c-0.066,0.538-0.644,1.004-1.392,1.078c-0.747,0.074-1.405-0.269-1.576-0.784c0.648-0.127,1.166-0.502,1.401-0.979
			C41.654,23.831,42.236,24.098,42.896,24.095z M41.056,22.948c-0.067,0.539-0.645,1.005-1.392,1.078
			c-0.746,0.074-1.404-0.268-1.575-0.782c0.647-0.128,1.166-0.504,1.4-0.982C39.814,22.685,40.396,22.952,41.056,22.948z
			 M37.649,21.116c0.324,0.424,0.905,0.689,1.565,0.687c-0.066,0.54-0.643,1.005-1.392,1.079c-0.746,0.074-1.404-0.269-1.575-0.784
			C36.896,21.971,37.414,21.594,37.649,21.116z M37.636,23.289c-0.066,0.538-0.645,1.004-1.391,1.078
			c-0.747,0.075-1.405-0.27-1.576-0.784c0.647-0.128,1.165-0.504,1.4-0.981C36.395,23.024,36.976,23.291,37.636,23.289z
			 M34.229,21.456c0.325,0.423,0.906,0.688,1.567,0.687c-0.067,0.539-0.645,1.005-1.392,1.079s-1.405-0.269-1.576-0.784
			C33.476,22.311,33.994,21.935,34.229,21.456z M34.217,23.628c-0.068,0.538-0.645,1.005-1.392,1.078
			c-0.748,0.075-1.404-0.269-1.577-0.783c0.648-0.128,1.166-0.504,1.4-0.982C32.974,23.363,33.556,23.631,34.217,23.628z
			 M32.376,22.482c-0.066,0.539-0.645,1.005-1.392,1.079c-0.747,0.073-1.406-0.269-1.576-0.784c0.647-0.127,1.166-0.503,1.401-0.982
			C31.133,22.219,31.714,22.485,32.376,22.482z M28.968,20.65c0.325,0.423,0.907,0.689,1.567,0.687
			c-0.067,0.539-0.645,1.005-1.391,1.08c-0.748,0.073-1.405-0.271-1.577-0.785C28.216,21.504,28.733,21.128,28.968,20.65z
			 M25.988,23.116c0.647-0.127,1.165-0.502,1.4-0.981c0.325,0.424,0.906,0.689,1.566,0.688c-0.065,0.538-0.644,1.004-1.392,1.078
			C26.817,23.975,26.159,23.632,25.988,23.116z M27.829,24.262c0.647-0.128,1.165-0.503,1.4-0.981
			c0.324,0.423,0.906,0.689,1.566,0.688c-0.066,0.539-0.645,1.005-1.392,1.079C28.658,25.121,28,24.777,27.829,24.262z
			 M29.669,25.408c0.648-0.128,1.166-0.504,1.401-0.982c0.324,0.424,0.906,0.69,1.565,0.688c-0.065,0.539-0.644,1.004-1.391,1.078
			C30.499,26.266,29.841,25.923,29.669,25.408z M31.511,26.554c0.647-0.127,1.165-0.503,1.4-0.982
			c0.324,0.423,0.906,0.689,1.566,0.688c-0.067,0.538-0.645,1.004-1.392,1.078S31.681,27.068,31.511,26.554z M31.852,29.176
			c0.647-0.127,1.165-0.503,1.399-0.981c0.324,0.423,0.907,0.689,1.566,0.687c-0.065,0.538-0.643,1.004-1.391,1.078
			C32.681,30.033,32.022,29.691,31.852,29.176z M33.691,30.321c0.648-0.128,1.166-0.503,1.401-0.982
			c0.324,0.423,0.906,0.689,1.565,0.688c-0.066,0.539-0.644,1.005-1.391,1.079S33.862,30.837,33.691,30.321z M35.533,31.466
			c0.647-0.127,1.164-0.503,1.398-0.98c0.325,0.423,0.907,0.689,1.568,0.688c-0.067,0.538-0.645,1.003-1.393,1.078
			C36.361,32.324,35.703,31.981,35.533,31.466z M37.372,32.612c0.648-0.127,1.167-0.504,1.401-0.982
			c0.325,0.423,0.906,0.689,1.566,0.688c-0.066,0.539-0.644,1.005-1.391,1.079C38.201,33.47,37.544,33.128,37.372,32.612z
			 M39.214,33.758c0.646-0.127,1.165-0.504,1.399-0.982c0.325,0.423,0.906,0.69,1.567,0.687c-0.066,0.539-0.645,1.005-1.392,1.08
			C40.043,34.615,39.385,34.272,39.214,33.758z M39.475,36.388c0.647-0.126,1.165-0.503,1.4-0.981
			c0.324,0.423,0.906,0.689,1.567,0.688c-0.066,0.538-0.646,1.004-1.392,1.078C40.304,37.246,39.646,36.903,39.475,36.388z
			 M41.236,37.548c0.684-0.11,1.234-0.497,1.478-0.994c0.312,0.405,0.86,0.669,1.489,0.687c-0.063,0.541-0.643,1.01-1.392,1.085
			C42.067,38.399,41.411,38.06,41.236,37.548z M44.649,39.471c-0.746,0.074-1.403-0.269-1.575-0.784
			c0.647-0.126,1.167-0.501,1.401-0.98c0.293,0.383,0.796,0.643,1.379,0.686c0.023,0.099,0.058,0.192,0.105,0.282
			C45.763,39.085,45.263,39.41,44.649,39.471z M44.915,39.832c0.565-0.11,1.035-0.408,1.302-0.802
			c0.348,0.344,0.888,0.545,1.484,0.528c0.022,0.092,0.057,0.178,0.099,0.261c-0.197,0.412-0.696,0.735-1.31,0.798
			C45.743,40.691,45.085,40.349,44.915,39.832z M48.101,41.785c-0.739,0.072-1.393-0.261-1.572-0.768
			c0.001,0,0.001,0.001,0.002,0.001c0.666-0.066,1.226-0.397,1.527-0.842c0.338,0.333,0.859,0.531,1.435,0.53
			C49.425,41.245,48.848,41.711,48.101,41.785z M48.104,39.516c0.647-0.127,1.166-0.503,1.401-0.981
			c0.324,0.424,0.905,0.689,1.565,0.688c-0.065,0.539-0.644,1.004-1.392,1.078C48.933,40.374,48.274,40.031,48.104,39.516z
			 M51.52,41.445c-0.746,0.074-1.404-0.269-1.575-0.784c0.648-0.128,1.166-0.503,1.4-0.982c0.325,0.424,0.906,0.69,1.566,0.688
			C52.845,40.905,52.268,41.371,51.52,41.445z M53.101,39.96c-0.748,0.074-1.406-0.269-1.577-0.784
			c0.675-0.132,1.212-0.532,1.432-1.038c0.305,0.437,0.879,0.721,1.536,0.737C54.428,39.417,53.85,39.886,53.101,39.96z
			 M55.014,41.099c-0.75,0.074-1.409-0.271-1.578-0.79c0.641-0.146,1.148-0.538,1.36-1.025c0.315,0.453,0.922,0.74,1.608,0.736
			C56.339,40.559,55.76,41.024,55.014,41.099z M55.017,38.83c0.648-0.128,1.166-0.504,1.4-0.982c0.325,0.423,0.906,0.69,1.566,0.687
			c-0.066,0.539-0.644,1.004-1.391,1.078S55.188,39.345,55.017,38.83z M58.433,40.759c-0.746,0.074-1.405-0.269-1.575-0.784
			c0.647-0.128,1.165-0.503,1.4-0.981c0.325,0.423,0.906,0.689,1.566,0.688C59.759,40.219,59.18,40.685,58.433,40.759z"/>
	</g>
	<g>
		<polygon fill="#A42423" points="49.87,35.038 44.982,35.038 42.521,30.996 41.712,23.519 49.87,23.519 		"/>
		<path fill="#66160E" d="M49.87,35.24h-4.888c-0.07,0-0.136-0.037-0.173-0.098l-2.463-4.041c-0.015-0.025-0.024-0.054-0.028-0.083
			l-0.808-7.479c-0.006-0.058,0.013-0.114,0.051-0.156c0.038-0.043,0.093-0.067,0.15-0.067h8.158c0.111,0,0.202,0.091,0.202,0.202
			v11.52C50.072,35.149,49.981,35.24,49.87,35.24z M45.097,34.836h4.571V23.721h-7.731l0.779,7.209L45.097,34.836z"/>
	</g>
	<g>
		<linearGradient id="SVGID_1_" gradientUnits="userSpaceOnUse" x1="38.4404" y1="29.2783" x2="44.9824" y2="29.2783">
			<stop  offset="0" style="stop-color:#E30613"/>
			<stop  offset="1" style="stop-color:#BE1622"/>
		</linearGradient>
		<polygon fill="url(#SVGID_1_)" points="44.982,35.038 44.982,23.519 38.44,23.519 38.44,28.846 		"/>
		<path fill="#66160E" d="M44.844,35.185l-6.543-6.192l-0.062-0.146v-5.327l0.202-0.202h6.542l0.202,0.202v11.52L44.844,35.185z
			 M38.642,28.759l6.139,5.81V23.721h-6.139V28.759z"/>
	</g>
	<g>
		<rect x="41.136" y="41.818" fill="#A42423" width="18.597" height="21.171"/>
		<path fill="#66160E" d="M59.732,63.191H41.136c-0.111,0-0.202-0.091-0.202-0.202V41.818c0-0.111,0.091-0.202,0.202-0.202h18.597
			c0.111,0,0.201,0.091,0.201,0.202v21.171C59.934,63.101,59.844,63.191,59.732,63.191z M41.338,62.787H59.53V42.021H41.338V62.787z
			"/>
	</g>
	<g>
		<linearGradient id="SVGID_2_" gradientUnits="userSpaceOnUse" x1="0.1387" y1="41.8184" x2="44.8721" y2="41.8184">
			<stop  offset="0" style="stop-color:#E30613"/>
			<stop  offset="1" style="stop-color:#BE1622"/>
		</linearGradient>
		<path fill="url(#SVGID_2_)" d="M22.505,20.648L0.139,41.818H4.03v21.171h8.814V46.396h8.968v16.593h19.323V41.818h3.736
			L22.505,20.648z M35.647,55.562h-9.165v-9.165h9.165V55.562z"/>
		<path fill="#66160E" d="M41.136,63.191H21.812l-0.202-0.202V46.599h-8.563v16.391l-0.202,0.202H4.03l-0.202-0.202V42.021H0.139
			L0,41.671l22.366-21.169h0.278l22.366,21.169l-0.139,0.35h-3.534v20.969L41.136,63.191z M22.015,62.787h18.919V41.818l0.202-0.202
			h3.229L22.505,20.927L0.646,41.616H4.03l0.202,0.202v20.969h8.41V46.396l0.202-0.202h8.968l0.202,0.202V62.787z M35.647,55.764
			h-9.165l-0.202-0.202v-9.165l0.202-0.202h9.165l0.202,0.202v9.165L35.647,55.764z M26.685,55.359h8.761v-8.761h-8.761V55.359z"/>
	</g>
</g>
</svg>
