<?xml version="1.0" encoding="utf-8"?>
<!-- Generator: Adobe Illustrator 16.0.4, SVG Export Plug-In . SVG Version: 6.00 Build 0)  -->
<!DOCTYPE svg PUBLIC "-//W3C//DTD SVG 1.1//EN" "http://www.w3.org/Graphics/SVG/1.1/DTD/svg11.dtd">
<svg version="1.1" id="Ebene_1" xmlns="http://www.w3.org/2000/svg" xmlns:xlink="http://www.w3.org/1999/xlink" x="0px" y="0px"
	 width="64px" height="64px" viewBox="0 0 64 64" enable-background="new 0 0 64 64" xml:space="preserve">
<g>
	<g>
		<linearGradient id="SVGID_1_" gradientUnits="userSpaceOnUse" x1="0.3936" y1="39.3291" x2="38.9473" y2="39.3291">
			<stop  offset="0.3103" style="stop-color:#E30613"/>
			<stop  offset="1" style="stop-color:#BE1622"/>
		</linearGradient>
		<path fill="url(#SVGID_1_)" d="M3.66,47.627c2.716-2.993,3.577-3.126,3.993-3.336c0.41-0.203,0.965-0.444,1.66-0.734
			c0.1-0.027,0.173-0.062,0.238-0.094c2.372-0.947,3.188-1.915,4.078-2.897c0.886-0.981,1.329-2.328,1.329-4.038
			c0-0.603-0.294-1.266-0.877-1.993c-0.59-0.73-0.99-1.772-1.214-3.137c-0.063-0.319-0.183-0.553-0.355-0.714
			c-0.174-0.157-0.354-0.271-0.545-0.334c-0.189-0.062-0.365-0.3-0.523-0.707c-0.154-0.417-0.271-1.031-0.335-1.855
			c0-0.412,0.056-0.766,0.17-1.068c0.109-0.304,0.226-0.498,0.354-0.598l0.189-0.091c-0.021-0.114-0.033-0.22-0.055-0.328
			c-0.225-1.29-0.38-2.432-0.47-3.424c-0.063-0.607,0.008-1.27,0.216-1.997s0.554-1.503,1.044-2.328
			c0.491-0.824,1.293-1.513,2.4-2.066c0.809-0.407,1.729-0.659,2.757-0.769c0.385-0.038,0.774-0.066,1.188-0.066
			c1.516,0,2.823,0.281,3.917,0.835c1.092,0.554,1.883,1.242,2.376,2.066c0.489,0.825,0.841,1.601,1.043,2.328
			c0.208,0.728,0.279,1.39,0.216,1.997l-0.478,3.752c0.443,0.217,0.667,0.808,0.667,1.757c-0.063,0.824-0.18,1.438-0.357,1.855
			c-0.174,0.407-0.348,0.646-0.519,0.707c-0.179,0.062-0.353,0.177-0.527,0.334c-0.173,0.161-0.29,0.395-0.354,0.714
			c-0.226,1.364-0.619,2.406-1.188,3.137c-0.569,0.728-0.853,1.391-0.853,1.993c0,1.71,0.44,3.057,1.326,4.038
			c0.888,0.982,2.501,1.95,4.848,2.897c2.237,0.903,3.848,1.994,4.753,2.533c0.901,0.541,2.931,2.362,3.113,2.637
			c1.633,2.451,2.06,14.974,2.06,14.974h-9.398H0.394C0.394,63.606,1.422,50.086,3.66,47.627z"/>
		<path fill="#801D18" d="M38.947,64H0.394c-0.108,0-0.216-0.046-0.289-0.126c-0.073-0.081-0.112-0.188-0.104-0.294
			c0.041-0.559,1.067-13.688,3.365-16.219c2.464-2.706,3.44-3.13,3.968-3.354l0.144-0.063c0.419-0.211,0.982-0.459,1.688-0.747
			c0.102-0.036,0.159-0.056,0.205-0.083c2.244-0.896,3.041-1.777,3.877-2.708l0.093-0.104c0.815-0.9,1.225-2.173,1.225-3.774
			c0-0.509-0.267-1.098-0.787-1.75c-0.627-0.776-1.062-1.892-1.297-3.315c-0.043-0.22-0.122-0.387-0.233-0.487
			c-0.134-0.125-0.268-0.205-0.4-0.25c-0.314-0.103-0.557-0.402-0.767-0.938c-0.175-0.46-0.29-1.104-0.357-1.973
			c-0.001-0.489,0.061-0.883,0.19-1.231c0.135-0.379,0.29-0.621,0.477-0.768l-0.008-0.043c-0.225-1.311-0.385-2.477-0.469-3.461
			c-0.069-0.648,0.003-1.368,0.226-2.141c0.214-0.757,0.579-1.569,1.088-2.418c0.521-0.884,1.381-1.629,2.559-2.214
			c0.835-0.423,1.809-0.689,2.888-0.812c0.396-0.039,0.803-0.063,1.231-0.063c1.571,0,2.946,0.293,4.096,0.875
			c1.152,0.584,2.004,1.328,2.537,2.214c0.502,0.852,0.87,1.664,1.08,2.418c0.221,0.773,0.296,1.494,0.229,2.148l-0.446,3.519
			c0.423,0.353,0.639,1.006,0.639,1.949c-0.068,0.903-0.195,1.553-0.387,2.006c-0.229,0.53-0.463,0.822-0.749,0.932
			c-0.125,0.04-0.254,0.125-0.396,0.25c-0.109,0.101-0.188,0.268-0.233,0.499c-0.231,1.406-0.656,2.521-1.265,3.301
			c-0.513,0.653-0.773,1.244-0.773,1.753c0,1.602,0.415,2.873,1.231,3.774c0.841,0.934,2.424,1.875,4.699,2.796
			c1.915,0.774,3.37,1.674,4.328,2.268l0.479,0.294c0.885,0.532,2.994,2.388,3.239,2.752c1.677,2.517,2.109,14.669,2.127,15.183
			c0.004,0.107-0.039,0.21-0.114,0.287C39.156,63.957,39.051,64,38.947,64z M0.816,63.219h37.722
			c-0.144-3.733-0.737-12.506-1.979-14.373c-0.158-0.216-2.096-1.98-2.985-2.512l-0.49-0.3c-0.938-0.582-2.359-1.461-4.209-2.209
			c-2.422-0.978-4.055-1.96-4.99-2.997c-0.949-1.051-1.431-2.498-1.431-4.301c0-0.686,0.316-1.439,0.938-2.239
			c0.524-0.672,0.898-1.667,1.109-2.953c0.082-0.415,0.241-0.727,0.476-0.939c0.224-0.199,0.437-0.336,0.662-0.414h-0.001
			c-0.004,0,0.113-0.076,0.291-0.495c0.156-0.368,0.267-0.949,0.325-1.731c-0.002-0.732-0.158-1.231-0.448-1.374
			c-0.146-0.076-0.235-0.235-0.213-0.402l0.474-3.753c0.058-0.543-0.012-1.164-0.202-1.84c-0.196-0.688-0.532-1.438-1.006-2.23
			c-0.445-0.755-1.195-1.401-2.214-1.921c-1.036-0.521-2.294-0.791-3.74-0.791c-0.399,0-0.781,0.031-1.148,0.065
			c-0.984,0.105-1.868,0.35-2.623,0.727c-1.033,0.521-1.785,1.168-2.235,1.92c-0.474,0.789-0.81,1.539-1.005,2.23
			c-0.191,0.674-0.261,1.297-0.202,1.849c0.088,0.974,0.24,2.115,0.465,3.401l0.055,0.319c0.031,0.173-0.053,0.347-0.214,0.427
			l-0.182,0.091c0.027-0.018-0.057,0.069-0.17,0.379c-0.096,0.258-0.144,0.57-0.144,0.936c0.06,0.75,0.164,1.336,0.309,1.713
			c0.166,0.416,0.282,0.479,0.283,0.479c0.236,0.078,0.468,0.219,0.686,0.416c0.235,0.214,0.394,0.525,0.475,0.926
			c0.214,1.301,0.596,2.294,1.134,2.965c0.64,0.798,0.965,1.55,0.965,2.241c0,1.803-0.484,3.251-1.433,4.301l-0.088,0.101
			c-0.863,0.958-1.757,1.946-4.133,2.897c-0.045,0.022-0.148,0.069-0.269,0.104c-0.648,0.272-1.199,0.512-1.604,0.715
			c-0.051,0.023-0.112,0.053-0.183,0.078c-0.438,0.188-1.351,0.583-3.696,3.168C2.251,49.756,1.148,59.205,0.816,63.219z"/>
	</g>
	<g>
		<g>
			<linearGradient id="SVGID_2_" gradientUnits="userSpaceOnUse" x1="34.1787" y1="14.0254" x2="63.4756" y2="14.0254">
				<stop  offset="0" style="stop-color:#FFFFFF"/>
				<stop  offset="1" style="stop-color:#F5F5F6"/>
			</linearGradient>
			<path fill="url(#SVGID_2_)" d="M41.86,21.147h-7.682V0.526h29.297v20.621H51.4l-9.54,6.376V21.147z"/>
			<path fill="#9D9D9C" d="M41.34,28.497v-6.832h-7.679V-0.001H64v21.666H51.555L41.34,28.497z M34.703,20.622h7.682v5.918
				l8.854-5.918h11.719V1.044H34.703V20.622z"/>
		</g>
	</g>
</g>
</svg>
