<?xml version="1.0" encoding="utf-8"?>
<!-- Generator: Adobe Illustrator 16.0.4, SVG Export Plug-In . SVG Version: 6.00 Build 0)  -->
<!DOCTYPE svg PUBLIC "-//W3C//DTD SVG 1.1//EN" "http://www.w3.org/Graphics/SVG/1.1/DTD/svg11.dtd">
<svg version="1.1" id="Ebene_1" xmlns="http://www.w3.org/2000/svg" xmlns:xlink="http://www.w3.org/1999/xlink" x="0px" y="0px"
	 width="64px" height="64px" viewBox="0 0 64 64" enable-background="new 0 0 64 64" xml:space="preserve">
<g>
	<g>
		<g>
			<linearGradient id="SVGID_1_" gradientUnits="userSpaceOnUse" x1="12.0645" y1="53.2617" x2="31.9912" y2="53.2617">
				<stop  offset="0.3103" style="stop-color:#E30613"/>
				<stop  offset="1" style="stop-color:#BE1622"/>
			</linearGradient>
			<path fill="url(#SVGID_1_)" d="M31.217,56.994l-0.182-0.176c-0.962-0.955-2.559-0.994-3.985-0.238
				c0.467-1.265,0.374-2.57-0.456-3.416l-0.178-0.186c-0.86-0.851-2.221-0.932-3.518-0.394c0.844-1.482,0.872-3.151-0.126-4.148
				l-0.18-0.187c-0.844-0.841-2.165-0.92-3.433-0.458c0.773-1.432,0.757-3.033-0.219-4.001l-0.185-0.182
				c-1.255-1.267-3.601-0.957-5.235,0.679c-1.637,1.627-1.94,3.981-0.677,5.231l0.182,0.18c0.837,0.846,2.155,0.934,3.429,0.447
				c-0.776,1.45-0.747,3.061,0.22,4.014l0.181,0.186c0.855,0.861,2.215,0.936,3.514,0.425c-0.844,1.468-0.872,3.137,0.126,4.137
				l0.183,0.188c0.961,0.944,2.557,1,3.981,0.249c-0.466,1.251-0.373,2.558,0.458,3.395l0.183,0.181
				c1.256,1.255,3.605,0.955,5.235-0.675C32.17,60.601,32.473,58.258,31.217,56.994z"/>
			<path fill="#801D18" d="M27.302,64L27.302,64c-0.885,0-1.649-0.296-2.213-0.86l-0.183-0.18c-0.741-0.747-0.995-1.865-0.728-3.072
				c-1.39,0.513-2.834,0.289-3.713-0.581l-0.185-0.188c-0.929-0.925-1.102-2.389-0.496-3.845c-1.231,0.286-2.403,0.031-3.146-0.715
				l-0.179-0.184c-0.904-0.897-1.102-2.312-0.56-3.742c-1.213,0.278-2.357,0.024-3.092-0.724l-0.182-0.182
				c-0.565-0.561-0.866-1.319-0.868-2.199c-0.002-1.217,0.562-2.477,1.548-3.453c0.98-0.983,2.237-1.551,3.446-1.551
				c0.891,0,1.658,0.303,2.222,0.878l0.182,0.177c0.906,0.894,1.105,2.314,0.561,3.733c1.215-0.274,2.354-0.017,3.089,0.722
				l0.183,0.188c0.911,0.911,1.081,2.392,0.494,3.847c1.224-0.299,2.394-0.05,3.148,0.701l0.181,0.191
				c0.734,0.737,0.986,1.854,0.72,3.069c1.39-0.511,2.834-0.308,3.717,0.565l0.179,0.185c1.375,1.376,1.069,3.93-0.677,5.683
				C29.772,63.439,28.515,64,27.302,64z M24.659,59.032c0.07,0,0.142,0.028,0.198,0.075c0.097,0.087,0.129,0.223,0.086,0.339
				c-0.455,1.217-0.307,2.375,0.394,3.086l0.18,0.179c0.449,0.446,1.068,0.685,1.785,0.685c1.051,0,2.152-0.496,3.02-1.363
				c1.512-1.515,1.815-3.685,0.678-4.817l-0.177-0.183c-0.827-0.812-2.306-0.881-3.629-0.188c-0.111,0.062-0.248,0.047-0.343-0.04
				c-0.097-0.084-0.128-0.211-0.085-0.335c0.455-1.23,0.309-2.38-0.391-3.085l-0.18-0.191c-0.708-0.708-1.955-0.837-3.185-0.334
				c-0.117,0.05-0.26,0.02-0.345-0.076c-0.082-0.102-0.099-0.244-0.034-0.355c0.808-1.401,0.778-2.921-0.078-3.771l-0.184-0.19
				c-0.691-0.693-1.88-0.837-3.105-0.382c-0.118,0.038-0.253,0.01-0.336-0.092c-0.082-0.09-0.097-0.229-0.036-0.338
				c0.745-1.378,0.68-2.809-0.164-3.643l-0.184-0.18c-0.45-0.462-1.069-0.701-1.792-0.701c-1.046,0-2.147,0.501-3.018,1.374
				c-0.872,0.867-1.369,1.968-1.367,3.023c0.001,0.71,0.239,1.325,0.688,1.77l0.183,0.182c0.7,0.713,1.886,0.85,3.106,0.375
				c0.119-0.045,0.254-0.008,0.336,0.087c0.085,0.094,0.101,0.228,0.043,0.343c-0.743,1.388-0.678,2.826,0.165,3.663l0.182,0.187
				c0.706,0.71,1.95,0.836,3.188,0.347c0.118-0.044,0.259-0.01,0.342,0.089c0.083,0.094,0.097,0.235,0.033,0.344
				c-0.807,1.411-0.776,2.931,0.079,3.778l0.184,0.187c0.818,0.812,2.302,0.893,3.621,0.193
				C24.56,59.044,24.609,59.032,24.659,59.032z"/>
		</g>
		<g>
			<linearGradient id="SVGID_2_" gradientUnits="userSpaceOnUse" x1="12.0645" y1="53.2637" x2="31.9912" y2="53.2637">
				<stop  offset="0.3103" style="stop-color:#E30613"/>
				<stop  offset="1" style="stop-color:#BE1622"/>
			</linearGradient>
			<path fill="url(#SVGID_2_)" d="M16.76,42.833c0.765,0,1.473,0.253,1.997,0.776l0.185,0.182c0.976,0.968,0.992,2.569,0.219,4.001
				c0.51-0.19,1.016-0.272,1.504-0.272c0.742,0,1.425,0.21,1.929,0.73l0.18,0.187c0.998,0.997,0.97,2.666,0.126,4.148
				c0.527-0.229,1.073-0.343,1.582-0.343c0.742,0,1.426,0.237,1.936,0.736l0.178,0.186c0.83,0.846,0.923,2.151,0.456,3.416
				c0.658-0.352,1.351-0.531,1.997-0.531c0.755,0,1.47,0.251,1.988,0.77l0.182,0.176c1.256,1.264,0.953,3.606-0.682,5.25
				c-0.951,0.951-2.148,1.45-3.234,1.45c-0.762,0-1.481-0.258-2.001-0.775l-0.183-0.181c-0.831-0.837-0.924-2.144-0.458-3.395
				c-0.653,0.324-1.34,0.51-1.988,0.51c-0.765,0-1.471-0.251-1.993-0.759l-0.183-0.188c-0.998-1-0.97-2.669-0.126-4.137
				c-0.525,0.202-1.065,0.321-1.58,0.321c-0.742,0-1.429-0.246-1.934-0.746l-0.181-0.186c-0.967-0.953-0.996-2.563-0.22-4.014
				c-0.513,0.203-1.019,0.3-1.506,0.3c-0.736,0-1.42-0.243-1.923-0.747l-0.182-0.18c-1.264-1.25-0.96-3.604,0.677-5.231
				C14.475,43.329,15.677,42.833,16.76,42.833"/>
			<path fill="#801D18" d="M27.301,63.996c-0.871,0-1.654-0.303-2.212-0.855l-0.183-0.181c-0.742-0.749-0.995-1.866-0.726-3.079
				c-1.432,0.524-2.834,0.292-3.715-0.574l-0.185-0.188c-0.929-0.925-1.102-2.388-0.497-3.843c-1.227,0.286-2.388,0.032-3.144-0.715
				l-0.181-0.186c-0.902-0.896-1.101-2.307-0.562-3.732c-0.312,0.073-0.63,0.105-0.949,0.105c-0.852,0-1.594-0.285-2.14-0.837
				l-0.183-0.184c-0.565-0.561-0.866-1.319-0.868-2.199c-0.002-1.217,0.562-2.477,1.548-3.453c0.976-0.981,2.233-1.546,3.453-1.546
				c0.885,0,1.649,0.301,2.215,0.872l0.182,0.178c0.907,0.894,1.105,2.316,0.56,3.735c0.316-0.07,0.634-0.099,0.948-0.099
				c0.876,0,1.618,0.28,2.144,0.819l0.181,0.188c0.911,0.911,1.081,2.39,0.494,3.844c1.232-0.301,2.38-0.044,3.146,0.701
				l0.183,0.194c0.734,0.737,0.986,1.854,0.72,3.069c1.383-0.508,2.838-0.303,3.717,0.565l0.179,0.185
				c1.375,1.376,1.069,3.93-0.677,5.683C29.771,63.437,28.513,63.996,27.301,63.996z M24.659,59.032c0.071,0,0.142,0.029,0.2,0.077
				c0.095,0.087,0.127,0.222,0.084,0.337c-0.455,1.217-0.307,2.375,0.394,3.086l0.18,0.179c0.443,0.439,1.077,0.681,1.784,0.681
				c1.051,0,2.153-0.494,3.021-1.359c1.512-1.515,1.815-3.685,0.678-4.817l-0.177-0.183c-0.824-0.812-2.308-0.878-3.63-0.188
				c-0.111,0.062-0.248,0.047-0.342-0.04c-0.097-0.084-0.128-0.211-0.085-0.335c0.455-1.23,0.309-2.38-0.391-3.085l-0.18-0.191
				c-0.722-0.706-1.963-0.842-3.183-0.335c-0.115,0.05-0.26,0.021-0.346-0.075c-0.083-0.101-0.1-0.244-0.035-0.355
				c0.808-1.401,0.778-2.921-0.078-3.771l-0.184-0.19c-0.41-0.43-0.988-0.644-1.706-0.644c-0.465,0-0.936,0.087-1.398,0.262
				c-0.119,0.038-0.252,0.009-0.337-0.091c-0.082-0.091-0.097-0.229-0.036-0.339c0.745-1.378,0.68-2.809-0.164-3.643l-0.184-0.18
				c-0.45-0.459-1.067-0.696-1.785-0.696c-1.059,0-2.16,0.499-3.023,1.368c-0.873,0.868-1.37,1.969-1.368,3.024
				c0.001,0.71,0.239,1.325,0.688,1.77l0.183,0.182c0.728,0.731,1.988,0.839,3.101,0.378c0.118-0.047,0.255-0.013,0.34,0.08
				c0.086,0.096,0.104,0.23,0.045,0.347c-0.743,1.388-0.678,2.826,0.165,3.663l0.182,0.187c0.719,0.711,1.94,0.839,3.187,0.347
				c0.121-0.044,0.26-0.01,0.343,0.089c0.083,0.094,0.097,0.235,0.033,0.344c-0.807,1.411-0.776,2.931,0.079,3.778l0.184,0.187
				c0.815,0.802,2.251,0.897,3.625,0.191C24.562,59.043,24.61,59.032,24.659,59.032z"/>
		</g>
	</g>
	<g>
		<g>
			<linearGradient id="SVGID_3_" gradientUnits="userSpaceOnUse" x1="33.4648" y1="63.1797" x2="33.6641" y2="63.1797">
				<stop  offset="0.3103" style="stop-color:#E30613"/>
				<stop  offset="1" style="stop-color:#BE1622"/>
			</linearGradient>
			<path fill="url(#SVGID_3_)" d="M33.664,63.236c-0.064-0.032-0.128-0.069-0.199-0.113C33.536,63.167,33.598,63.204,33.664,63.236z
				"/>
			<path fill="#801D18" d="M33.664,63.539c-0.052,0-0.102-0.007-0.147-0.035l0.147-0.268l-0.152,0.265l-0.053-0.032
				c-0.052-0.023-0.105-0.057-0.162-0.087c-0.086-0.057-0.138-0.163-0.138-0.26c0-0.053,0.012-0.108,0.049-0.156
				c0.087-0.146,0.275-0.184,0.417-0.101c0.037,0.029,0.075,0.042,0.106,0.062l0.067,0.043c0.008,0,0.015,0,0.016,0l0.005,0.001
				c0.146,0.09,0.193,0.274,0.108,0.423C33.871,63.485,33.773,63.539,33.664,63.539z"/>
		</g>
		<g>
			<linearGradient id="SVGID_4_" gradientUnits="userSpaceOnUse" x1="41.2314" y1="59.376" x2="42.1094" y2="59.376">
				<stop  offset="0.3103" style="stop-color:#E30613"/>
				<stop  offset="1" style="stop-color:#BE1622"/>
			</linearGradient>
			<path fill="url(#SVGID_4_)" d="M42.109,59.095c-0.259,0.249-0.551,0.436-0.878,0.562C41.559,59.53,41.851,59.344,42.109,59.095z"
				/>
			<path fill="#801D18" d="M41.231,59.962c-0.121,0-0.235-0.075-0.278-0.193c-0.019-0.046-0.026-0.078-0.026-0.111
				c0-0.125,0.075-0.244,0.194-0.288c0.294-0.114,0.548-0.274,0.782-0.498c0.123-0.116,0.315-0.108,0.43,0.011
				c0.057,0.059,0.081,0.138,0.081,0.213c0,0.073-0.029,0.157-0.091,0.216c-0.287,0.276-0.61,0.479-0.978,0.625
				C41.307,59.954,41.273,59.962,41.231,59.962z"/>
		</g>
		<g>
			<linearGradient id="SVGID_5_" gradientUnits="userSpaceOnUse" x1="36.0547" y1="63.5576" x2="36.4521" y2="63.5576">
				<stop  offset="0.3103" style="stop-color:#E30613"/>
				<stop  offset="1" style="stop-color:#BE1622"/>
			</linearGradient>
			<path fill="url(#SVGID_5_)" d="M36.452,63.521c-0.122,0.039-0.267,0.049-0.397,0.072C36.197,63.57,36.327,63.561,36.452,63.521z"
				/>
			<path fill="#801D18" d="M36.055,63.906c-0.138,0-0.264-0.099-0.293-0.243c-0.038-0.158,0.063-0.319,0.223-0.362
				c0.059-0.017,0.12-0.019,0.18-0.027l0.188-0.049c0.156-0.047,0.329,0.038,0.384,0.19c0.056,0.165-0.023,0.335-0.188,0.389
				c-0.038,0.017-0.08,0.031-0.128,0.04l0,0c-0.053,0.004-0.106,0.016-0.16,0.026c-0.044,0.01-0.093,0.019-0.14,0.031
				C36.1,63.906,36.08,63.906,36.055,63.906z"/>
		</g>
		<g>
			<linearGradient id="SVGID_6_" gradientUnits="userSpaceOnUse" x1="34.9043" y1="63.6406" x2="35.1318" y2="63.6406">
				<stop  offset="0.3103" style="stop-color:#E30613"/>
				<stop  offset="1" style="stop-color:#BE1622"/>
			</linearGradient>
			<path fill="url(#SVGID_6_)" d="M34.904,63.626c0.071,0.01,0.151,0.015,0.228,0.03C35.056,63.641,34.975,63.636,34.904,63.626z"/>
			<path fill="#801D18" d="M35.132,63.969c-0.032,0-0.062-0.003-0.095-0.016c-0.026-0.011-0.072-0.016-0.123-0.021l0,0
				c0-0.001,0-0.001,0-0.001l-0.01-0.306l0.027-0.3c0.11,0.012,0.202,0.018,0.293,0.046c0.128,0.037,0.209,0.16,0.209,0.284
				c0,0.038-0.006,0.062-0.015,0.101C35.38,63.887,35.262,63.969,35.132,63.969z"/>
		</g>
		<g>
			<linearGradient id="SVGID_7_" gradientUnits="userSpaceOnUse" x1="39.1719" y1="59.752" x2="39.5156" y2="59.752">
				<stop  offset="0.3103" style="stop-color:#E30613"/>
				<stop  offset="1" style="stop-color:#BE1622"/>
			</linearGradient>
			<path fill="url(#SVGID_7_)" d="M39.172,59.722c0.118,0.047,0.228,0.047,0.344,0.061C39.399,59.769,39.29,59.769,39.172,59.722z"
				/>
			<path fill="#801D18" d="M39.516,60.089c-0.015,0-0.029-0.001-0.042-0.003l-0.08-0.011c-0.096-0.011-0.197-0.023-0.314-0.057
				c-0.128-0.049-0.213-0.17-0.213-0.297c0-0.026,0.006-0.062,0.019-0.089c0.051-0.163,0.222-0.246,0.386-0.196
				c0.053,0.022,0.107,0.029,0.182,0.033l0.098,0.004c0.158,0.023,0.269,0.156,0.269,0.309c0,0.007-0.001,0.021-0.003,0.038
				C39.794,59.97,39.664,60.089,39.516,60.089z"/>
		</g>
		<g>
			<linearGradient id="SVGID_8_" gradientUnits="userSpaceOnUse" x1="40.2021" y1="59.7822" x2="40.8799" y2="59.7822">
				<stop  offset="0.3103" style="stop-color:#E30613"/>
				<stop  offset="1" style="stop-color:#BE1622"/>
			</linearGradient>
			<path fill="url(#SVGID_8_)" d="M40.202,59.845c0.238,0,0.456-0.062,0.678-0.125C40.66,59.782,40.44,59.845,40.202,59.845z"/>
			<path fill="#801D18" d="M40.202,60.151c-0.169,0-0.303-0.14-0.303-0.307c0-0.175,0.134-0.311,0.303-0.311
				c0.001,0,0.002,0,0.002,0c0.183,0,0.358-0.045,0.549-0.092c0.004-0.002,0.006-0.004,0.012-0.003l0,0
				c0.158-0.033,0.34,0.054,0.388,0.218c0.038,0.159-0.035,0.314-0.193,0.364c-0.133,0.027-0.264,0.069-0.396,0.086
				C40.446,60.135,40.329,60.151,40.202,60.151z"/>
		</g>
		<g>
			<linearGradient id="SVGID_9_" gradientUnits="userSpaceOnUse" x1="47.9873" y1="50.3574" x2="48.6543" y2="50.3574">
				<stop  offset="0.3103" style="stop-color:#E30613"/>
				<stop  offset="1" style="stop-color:#BE1622"/>
			</linearGradient>
			<path fill="url(#SVGID_9_)" d="M47.987,50.417c0.23-0.005,0.445-0.057,0.667-0.119C48.435,50.36,48.218,50.412,47.987,50.417z"/>
			<path fill="#801D18" d="M47.987,50.724c-0.158,0-0.295-0.128-0.302-0.295c0-0.004,0-0.008,0-0.012
				c0-0.158,0.131-0.295,0.292-0.302c0.001,0,0.002,0,0.002,0c0.211-0.009,0.417-0.059,0.586-0.105
				c0.159-0.044,0.332,0.043,0.377,0.209c0.044,0.158-0.043,0.322-0.212,0.376l0,0l0,0c-0.001,0-0.001,0-0.001,0
				c-0.079,0.022-0.185,0.055-0.287,0.07c-0.141,0.034-0.285,0.056-0.443,0.059C47.995,50.724,47.991,50.724,47.987,50.724z"/>
		</g>
		<g>
			<linearGradient id="SVGID_10_" gradientUnits="userSpaceOnUse" x1="48.9541" y1="49.9629" x2="49.7656" y2="49.9629">
				<stop  offset="0.3103" style="stop-color:#E30613"/>
				<stop  offset="1" style="stop-color:#BE1622"/>
			</linearGradient>
			<path fill="url(#SVGID_10_)" d="M49.766,49.699c-0.237,0.238-0.521,0.402-0.812,0.526C49.244,50.102,49.528,49.938,49.766,49.699
				z"/>
			<path fill="#801D18" d="M48.954,50.533c-0.118,0-0.233-0.066-0.286-0.188c-0.011-0.04-0.017-0.074-0.017-0.12
				c0-0.12,0.066-0.229,0.186-0.276c0.288-0.122,0.518-0.278,0.707-0.47c0.119-0.118,0.31-0.119,0.431,0
				c0.06,0.06,0.093,0.139,0.093,0.22s-0.032,0.151-0.092,0.212c-0.246,0.248-0.541,0.44-0.905,0.599
				C49.032,50.528,48.989,50.533,48.954,50.533z"/>
		</g>
		<g>
			<linearGradient id="SVGID_11_" gradientUnits="userSpaceOnUse" x1="46.3408" y1="50.2803" x2="47.6631" y2="50.2803">
				<stop  offset="0.3103" style="stop-color:#E30613"/>
				<stop  offset="1" style="stop-color:#BE1622"/>
			</linearGradient>
			<path fill="url(#SVGID_11_)" d="M46.341,50.146c0.444,0.171,0.884,0.242,1.322,0.268C47.225,50.389,46.785,50.317,46.341,50.146z
				"/>
			<path fill="#801D18" d="M47.663,50.722c-0.005,0-0.009,0-0.017-0.001c-0.551-0.041-0.996-0.128-1.421-0.298
				c-0.122-0.043-0.192-0.155-0.192-0.276c0-0.044,0.004-0.077,0.018-0.113c0.061-0.158,0.237-0.239,0.396-0.179
				c0.365,0.146,0.75,0.228,1.239,0.257c0.159,0.014,0.283,0.149,0.283,0.303c0,0.007,0,0.016,0,0.024
				C47.961,50.597,47.826,50.722,47.663,50.722z"/>
		</g>
		<g>
			<linearGradient id="SVGID_12_" gradientUnits="userSpaceOnUse" x1="45.1104" y1="54.6123" x2="45.9307" y2="54.6123">
				<stop  offset="0.3103" style="stop-color:#E30613"/>
				<stop  offset="1" style="stop-color:#BE1622"/>
			</linearGradient>
			<path fill="url(#SVGID_12_)" d="M45.931,54.346c-0.24,0.239-0.515,0.405-0.82,0.533C45.416,54.751,45.69,54.585,45.931,54.346z"
				/>
			<path fill="#801D18" d="M45.11,55.181c-0.118,0-0.228-0.072-0.275-0.188c-0.019-0.033-0.027-0.08-0.027-0.114
				c0-0.119,0.073-0.229,0.188-0.283c0.285-0.12,0.522-0.267,0.726-0.469c0.122-0.114,0.312-0.111,0.433,0.009
				c0.058,0.058,0.079,0.138,0.079,0.21c0,0.076-0.024,0.159-0.087,0.219c-0.262,0.254-0.56,0.451-0.919,0.594
				C45.192,55.172,45.155,55.181,45.11,55.181z"/>
		</g>
		<g>
			<linearGradient id="SVGID_13_" gradientUnits="userSpaceOnUse" x1="42.416" y1="54.915" x2="43.833" y2="54.915">
				<stop  offset="0.3103" style="stop-color:#E30613"/>
				<stop  offset="1" style="stop-color:#BE1622"/>
			</linearGradient>
			<path fill="url(#SVGID_13_)" d="M42.416,54.771c0.479,0.189,0.949,0.263,1.417,0.289C43.365,55.033,42.894,54.96,42.416,54.771z"
				/>
			<path fill="#801D18" d="M43.833,55.362c-0.006,0-0.013,0-0.02-0.001c0,0-0.001,0-0.002,0h-0.001
				c-0.565-0.025-1.057-0.136-1.507-0.314l0,0c0,0-0.001,0-0.001-0.001c-0.15-0.062-0.227-0.237-0.165-0.389
				c0.062-0.16,0.238-0.236,0.395-0.177c0.049,0.023,0.095,0.046,0.14,0.055c0.355,0.123,0.736,0.192,1.174,0.222
				c0.003,0.001,0.007,0.001,0.012,0.002c0.16,0.02,0.277,0.148,0.277,0.3c0,0.008,0,0.015,0,0.022
				C44.123,55.237,43.988,55.362,43.833,55.362z"/>
		</g>
		<g>
			<linearGradient id="SVGID_14_" gradientUnits="userSpaceOnUse" x1="44.1289" y1="55.0117" x2="44.8086" y2="55.0117">
				<stop  offset="0.3103" style="stop-color:#E30613"/>
				<stop  offset="1" style="stop-color:#BE1622"/>
			</linearGradient>
			<path fill="url(#SVGID_14_)" d="M44.129,55.069c0.24-0.005,0.465-0.057,0.68-0.114C44.594,55.013,44.369,55.064,44.129,55.069z"
				/>
			<path fill="#801D18" d="M44.129,55.372c-0.163,0-0.3-0.135-0.303-0.297c0-0.002,0-0.004,0-0.006c0-0.162,0.134-0.3,0.297-0.303
				c0.211-0.004,0.408-0.05,0.606-0.108c0.172-0.046,0.33,0.059,0.372,0.216c0.006,0.031,0.01,0.049,0.01,0.081
				c0,0.136-0.082,0.26-0.22,0.29c-0.233,0.061-0.482,0.121-0.757,0.127C44.133,55.372,44.131,55.372,44.129,55.372z"/>
		</g>
	</g>
	<g>
		<linearGradient id="SVGID_15_" gradientUnits="userSpaceOnUse" x1="21.627" y1="26.8477" x2="63.6934" y2="26.8477">
			<stop  offset="0.3103" style="stop-color:#E30613"/>
			<stop  offset="1" style="stop-color:#BE1622"/>
		</linearGradient>
		<path fill="url(#SVGID_15_)" d="M50.358,12.046L40.082,22.343c-0.534,0.039-1.063,0.102-1.523,0.214l-10.584,2.678
			c-0.896,0.212-1.249,0.421-1.322,0.46l-4.813,5.722c-0.168,0.187-0.232,0.444-0.207,0.765c0.062,0.727,0.58,1.588,1.34,2.229
			c0.705,0.598,1.328,0.722,1.732,0.722c0.483,0,0.897-0.181,1.175-0.505c3.396-2.896,3.494-2.928,3.715-2.969l6.627-1.696
			l3.385,2.254l0.134,0.086l0.117,0.121l9.103,9.227l1.762-2.902l12.973-13.375L50.358,12.046z"/>
		<path fill="#801D18" d="M48.959,41.953c-0.085,0-0.166-0.036-0.223-0.096l-9.3-9.389l-3.274-2.181l-6.495,1.665
			c-0.173,0.032-0.558,0.318-3.59,2.905c-0.305,0.362-0.803,0.575-1.373,0.575c-0.453,0-1.153-0.138-1.928-0.792
			c-0.823-0.692-1.376-1.625-1.445-2.43c-0.035-0.416,0.059-0.746,0.276-0.994l4.811-5.721c0.022-0.025,0.052-0.05,0.082-0.068
			c0.396-0.222,0.98-0.39,1.406-0.492l10.577-2.674c0.386-0.096,0.856-0.162,1.461-0.216L50.15,11.832
			c0.112-0.114,0.315-0.115,0.43-0.001l13.326,13.328c0.125,0.12,0.125,0.309,0,0.429L50.941,38.963l-1.724,2.84
			c-0.054,0.083-0.131,0.135-0.229,0.147C48.976,41.952,48.969,41.953,48.959,41.953z M36.221,29.657c0.06,0,0.119,0.016,0.168,0.05
			l3.522,2.343l0.167,0.163l8.824,8.944l1.564-2.564l12.802-13.217l-12.91-12.899L40.293,22.555c-0.051,0.053-0.12,0.085-0.19,0.092
			c-0.629,0.048-1.095,0.113-1.469,0.207l-10.585,2.678c-0.518,0.124-0.941,0.263-1.201,0.401l-4.779,5.679
			c-0.106,0.124-0.152,0.307-0.133,0.548c0.055,0.639,0.538,1.435,1.23,2.016c0.637,0.542,1.187,0.653,1.538,0.653
			c0.395,0,0.72-0.14,0.947-0.4c3.505-2.998,3.575-3.011,3.884-3.07l6.61-1.692C36.167,29.66,36.194,29.657,36.221,29.657z"/>
	</g>
	<g>
		<g>
			<linearGradient id="SVGID_16_" gradientUnits="userSpaceOnUse" x1="25.2812" y1="52.4219" x2="25.5967" y2="52.4219">
				<stop  offset="0.3103" style="stop-color:#E30613"/>
				<stop  offset="1" style="stop-color:#BE1622"/>
			</linearGradient>
			<path fill="url(#SVGID_16_)" d="M25.597,52.47c-0.102-0.047-0.214-0.056-0.315-0.095C25.383,52.414,25.497,52.423,25.597,52.47z"
				/>
			<path fill="#801D18" d="M25.597,52.776c-0.043,0-0.082-0.009-0.122-0.029c-0.035-0.019-0.069-0.023-0.11-0.027
				c-0.067-0.016-0.135-0.037-0.199-0.062c-0.119-0.053-0.189-0.164-0.189-0.283c0-0.033,0.006-0.08,0.021-0.112
				c0.063-0.16,0.24-0.23,0.4-0.167c0.001,0,0.002,0,0.002,0c0.031,0.01,0.069,0.018,0.104,0.028
				c0.076,0.021,0.149,0.035,0.215,0.066c0.152,0.068,0.222,0.246,0.154,0.403C25.824,52.708,25.715,52.776,25.597,52.776z"/>
		</g>
		<g>
			<linearGradient id="SVGID_17_" gradientUnits="userSpaceOnUse" x1="29.7939" y1="56.2188" x2="30.165" y2="56.2188">
				<stop  offset="0.3103" style="stop-color:#E30613"/>
				<stop  offset="1" style="stop-color:#BE1622"/>
			</linearGradient>
			<path fill="url(#SVGID_17_)" d="M30.165,56.261c-0.118-0.046-0.248-0.052-0.371-0.085C29.917,56.209,30.047,56.215,30.165,56.261
				z"/>
			<path fill="#801D18" d="M30.165,56.563c-0.039,0-0.076-0.01-0.119-0.027c-0.043-0.011-0.104-0.022-0.177-0.035
				c-0.045-0.009-0.091-0.019-0.141-0.029c-0.139-0.026-0.239-0.152-0.239-0.296c0-0.019,0.002-0.038,0.007-0.065
				c0.039-0.158,0.195-0.266,0.363-0.228l0.108,0.02c0.092,0.008,0.202,0.027,0.317,0.072c0.118,0.058,0.187,0.169,0.187,0.286
				c0,0.035-0.007,0.083-0.024,0.119C30.4,56.493,30.285,56.563,30.165,56.563z"/>
		</g>
		<g>
			<linearGradient id="SVGID_18_" gradientUnits="userSpaceOnUse" x1="24.3096" y1="52.2627" x2="24.6221" y2="52.2627">
				<stop  offset="0.3103" style="stop-color:#E30613"/>
				<stop  offset="1" style="stop-color:#BE1622"/>
			</linearGradient>
			<path fill="url(#SVGID_18_)" d="M24.31,52.283c0.105-0.001,0.209-0.009,0.312-0.004c-0.048,0-0.088-0.037-0.142-0.037
				C24.422,52.242,24.36,52.283,24.31,52.283z"/>
			<path fill="#801D18" d="M24.337,52.591l-0.001-0.005c-0.148-0.021-0.283-0.134-0.293-0.286c-0.01-0.154,0.078-0.296,0.235-0.322
				c0.062-0.013,0.127-0.037,0.202-0.037c0.035,0,0.138,0.024,0.172,0.031c0.162,0.009,0.28,0.156,0.271,0.317
				c-0.001,0.035-0.008,0.06-0.017,0.09c-0.038,0.099-0.125,0.18-0.237,0.2l0,0h-0.001c-0.016,0.003-0.035,0.002-0.058,0.004
				c-0.003-0.001-0.005-0.001-0.008-0.001l0,0c-0.1-0.001-0.158,0.002-0.212,0.006c-0.012,0-0.021,0-0.029,0
				c-0.005,0.001-0.009,0.001-0.013,0.002l-0.001-0.002c-0.004-0.001-0.008-0.001-0.012-0.002L24.337,52.591z"/>
		</g>
		<g>
			<linearGradient id="SVGID_19_" gradientUnits="userSpaceOnUse" x1="27.0498" y1="56.3779" x2="28.0977" y2="56.3779">
				<stop  offset="0.3103" style="stop-color:#E30613"/>
				<stop  offset="1" style="stop-color:#BE1622"/>
			</linearGradient>
			<path fill="url(#SVGID_19_)" d="M28.098,56.176c-0.35,0.09-0.703,0.218-1.048,0.404C27.395,56.394,27.748,56.266,28.098,56.176z"
				/>
			<path fill="#801D18" d="M27.05,56.882c-0.107,0-0.209-0.055-0.266-0.162c-0.026-0.046-0.038-0.094-0.038-0.139
				c0-0.111,0.056-0.218,0.16-0.271c0.335-0.184,0.712-0.331,1.121-0.425c0.16-0.04,0.324,0.058,0.367,0.216
				c0.008,0.03,0.009,0.057,0.009,0.076c0,0.139-0.096,0.263-0.233,0.294c-0.354,0.089-0.684,0.214-0.974,0.374
				C27.151,56.868,27.1,56.882,27.05,56.882z"/>
		</g>
		<g>
			<linearGradient id="SVGID_20_" gradientUnits="userSpaceOnUse" x1="28.416" y1="56.0938" x2="29.124" y2="56.0938">
				<stop  offset="0.3103" style="stop-color:#E30613"/>
				<stop  offset="1" style="stop-color:#BE1622"/>
			</linearGradient>
			<path fill="url(#SVGID_20_)" d="M28.416,56.138c0.244-0.048,0.486-0.079,0.708-0.07c-0.029-0.009-0.047-0.019-0.077-0.019
				C28.843,56.049,28.627,56.094,28.416,56.138z"/>
			<path fill="#801D18" d="M28.416,56.44c-0.138,0-0.264-0.096-0.299-0.238c-0.03-0.169,0.071-0.327,0.234-0.358
				c0.22-0.057,0.453-0.098,0.695-0.098c0.029,0,0.114,0.018,0.141,0.027c0.151,0.037,0.25,0.191,0.227,0.336
				c-0.021,0.152-0.138,0.262-0.29,0.262c-0.014-0.001-0.021-0.001-0.028,0c-0.234,0-0.42,0.024-0.617,0.062
				C28.461,56.438,28.437,56.44,28.416,56.44z"/>
		</g>
		<g>
			<linearGradient id="SVGID_21_" gradientUnits="userSpaceOnUse" x1="20.4912" y1="47.5293" x2="20.8164" y2="47.5293">
				<stop  offset="0.3103" style="stop-color:#E30613"/>
				<stop  offset="1" style="stop-color:#BE1622"/>
			</linearGradient>
			<path fill="url(#SVGID_21_)" d="M20.491,47.538c0.111-0.003,0.216-0.007,0.325-0.005c-0.056,0-0.096-0.014-0.152-0.014
				C20.609,47.52,20.549,47.535,20.491,47.538z"/>
			<path fill="#801D18" d="M20.519,47.845v-0.002c-0.151-0.02-0.29-0.133-0.299-0.287c-0.01-0.161,0.082-0.308,0.249-0.323
				l0.047-0.006c0.1-0.012,0.192-0.012,0.271-0.004c0.005,0,0.012,0.001,0.018,0.002c0.169,0.004,0.309,0.142,0.307,0.311
				c-0.003,0.156-0.111,0.283-0.262,0.303c-0.012,0.001-0.025,0.002-0.045,0.002l0,0c-0.005,0-0.011-0.001-0.015-0.001
				c-0.099,0.003-0.161,0.004-0.223,0.006c-0.011,0-0.02,0-0.028,0C20.532,47.845,20.527,47.845,20.519,47.845z"/>
		</g>
		<g>
			<linearGradient id="SVGID_22_" gradientUnits="userSpaceOnUse" x1="16.4043" y1="42.8838" x2="17.3379" y2="42.8838">
				<stop  offset="0.3103" style="stop-color:#E30613"/>
				<stop  offset="1" style="stop-color:#BE1622"/>
			</linearGradient>
			<path fill="url(#SVGID_22_)" d="M16.404,42.867c0.326-0.029,0.635,0.009,0.934,0.067c-0.194-0.04-0.377-0.102-0.578-0.102
				C16.645,42.833,16.523,42.862,16.404,42.867z"/>
			<path fill="#801D18" d="M17.338,43.236c-0.023,0-0.042-0.002-0.062-0.005c-0.2-0.037-0.474-0.081-0.755-0.068
				c-0.037,0.003-0.073,0.007-0.108,0.008c-0.195-0.009-0.303-0.119-0.313-0.277c-0.01-0.168,0.11-0.306,0.271-0.326l0.088-0.009
				c0.147-0.022,0.226-0.028,0.302-0.028c0.19,0,0.362,0.041,0.517,0.075l0.128,0.034c0.16,0.032,0.263,0.199,0.228,0.357
				C17.603,43.144,17.477,43.236,17.338,43.236z"/>
		</g>
		<g>
			<linearGradient id="SVGID_23_" gradientUnits="userSpaceOnUse" x1="17.7246" y1="43.3047" x2="18.7568" y2="43.3047">
				<stop  offset="0.3103" style="stop-color:#E30613"/>
				<stop  offset="1" style="stop-color:#BE1622"/>
			</linearGradient>
			<path fill="url(#SVGID_23_)" d="M18.757,43.609c-0.286-0.296-0.652-0.485-1.032-0.609C18.104,43.124,18.471,43.313,18.757,43.609
				z"/>
			<path fill="#801D18" d="M18.757,43.916c-0.078,0-0.157-0.028-0.218-0.092c-0.225-0.23-0.521-0.409-0.911-0.536
				c-0.157-0.053-0.247-0.221-0.194-0.379c0.051-0.163,0.226-0.249,0.382-0.193l0,0l0,0c0.001,0,0.002,0,0.002,0
				c0.478,0.147,0.867,0.383,1.16,0.689c0.058,0.058,0.084,0.131,0.084,0.204c0,0.084-0.029,0.166-0.092,0.225
				C18.911,43.891,18.836,43.916,18.757,43.916z"/>
		</g>
		<g>
			<linearGradient id="SVGID_24_" gradientUnits="userSpaceOnUse" x1="0.3037" y1="39.0234" x2="50.6963" y2="39.0234">
				<stop  offset="0.3103" style="stop-color:#E30613"/>
				<stop  offset="1" style="stop-color:#BE1622"/>
			</linearGradient>
			<path fill="url(#SVGID_24_)" d="M49.553,44.682l0.089-0.078L39.252,34.09l-3.518-2.354l-5.618,1.426
				c-0.382,0.301-1.825,1.496-3.103,2.588c-0.487,0.587-1.361,0.986-2.31,0.986c0,0,0,0-0.003,0c-0.959,0-1.915-0.392-2.766-1.105
				c-1.088-0.928-1.8-2.162-1.895-3.321c-0.062-0.752,0.13-1.416,0.568-1.929l4.697-5.565l-3.523-2.342l-8.132-8.122L0.304,27.662
				L10.386,38.05l2.698,4.528c1.098-0.856,2.394-1.354,3.676-1.354c1.215,0,2.33,0.437,3.135,1.245l0.184,0.187
				c0.864,0.861,1.278,2.035,1.234,3.304c0.937,0.124,1.768,0.514,2.416,1.15l0.173,0.179c0.881,0.875,1.286,2.102,1.216,3.395
				c0.938,0.125,1.793,0.541,2.429,1.174l0.181,0.182c0.649,0.645,1.047,1.489,1.173,2.416c0.039,0,0.093-0.004,0.147-0.004
				c1.211,0,2.32,0.443,3.112,1.236l0.187,0.186c0.952,0.945,1.387,2.347,1.199,3.806c-0.122,0.97-0.504,1.9-1.084,2.729
				c0.908,0.84,2.012,1.287,3.014,1.287c0.772,0,1.49-0.258,2.02-0.775l0.173-0.181c0.835-0.837,0.927-2.144,0.461-3.395
				c0.653,0.324,1.347,0.51,1.984,0.51c0.77,0,1.479-0.251,1.997-0.759l0.176-0.188c1.003-1,0.982-2.669,0.131-4.137
				c0.533,0.202,1.064,0.321,1.583,0.321c0.743,0,1.425-0.246,1.932-0.746l0.181-0.186c0.973-0.953,0.994-2.563,0.229-4.014
				c0.504,0.203,1.008,0.3,1.501,0.3c0.739,0,1.42-0.243,1.924-0.747l0.179-0.18C51.103,48.351,50.885,46.285,49.553,44.682z"/>
			<path fill="#801D18" d="M35.475,63.996c-1.107,0-2.28-0.499-3.225-1.369c-0.109-0.099-0.131-0.278-0.038-0.403
				c0.564-0.796,0.92-1.691,1.03-2.576c0.179-1.386-0.225-2.679-1.111-3.554l-0.187-0.188c-0.732-0.747-1.765-1.152-2.897-1.152
				c-0.004,0-0.145,0.004-0.147,0.004c-0.156,0-0.285-0.109-0.304-0.266c-0.119-0.883-0.494-1.648-1.084-2.23l-0.181-0.186
				c-0.589-0.592-1.391-0.977-2.251-1.093c-0.159-0.015-0.275-0.154-0.267-0.318c0.068-1.248-0.333-2.371-1.13-3.156l-0.177-0.184
				c-0.589-0.583-1.361-0.951-2.231-1.064c-0.157-0.025-0.271-0.159-0.266-0.312c0.041-1.211-0.363-2.299-1.146-3.082l-0.186-0.188
				c-0.743-0.741-1.777-1.147-2.918-1.147c-1.183,0-2.422,0.451-3.489,1.284c-0.071,0.051-0.159,0.079-0.244,0.058
				c-0.087-0.018-0.162-0.069-0.206-0.144l-2.696-4.518L0.086,27.87c-0.116-0.118-0.115-0.309,0.003-0.425l13.346-13.31
				c0.119-0.118,0.31-0.118,0.429,0l8.133,8.12l3.481,2.306c0.071,0.05,0.121,0.125,0.131,0.216c0.013,0.082-0.01,0.169-0.068,0.236
				l-4.696,5.564c-0.381,0.447-0.555,1.034-0.498,1.708c0.085,1.068,0.755,2.235,1.787,3.117c0.808,0.674,1.696,1.027,2.568,1.027
				c0.83,0,1.625-0.333,2.08-0.879c1.302-1.117,2.75-2.319,3.148-2.63c0.036-0.023,0.072-0.045,0.112-0.057l5.619-1.422
				c0.081-0.022,0.175-0.008,0.245,0.042l3.513,2.351l10.433,10.56c0.059,0.057,0.094,0.137,0.092,0.213
				c-0.001,0.025-0.004,0.048-0.009,0.062c1.339,1.742,1.439,3.846,0.224,5.059l-0.183,0.183c-0.547,0.553-1.284,0.838-2.134,0.838
				c-0.318,0-0.634-0.032-0.945-0.104c0.528,1.427,0.328,2.838-0.565,3.735l-0.179,0.179c-0.757,0.751-1.921,1.008-3.147,0.717
				c0.601,1.458,0.426,2.922-0.506,3.846l-0.163,0.177c-0.902,0.882-2.301,1.107-3.731,0.582c0.272,1.214,0.018,2.331-0.72,3.078
				l-0.166,0.174C37.124,63.703,36.353,63.996,35.475,63.996z M32.858,62.348c1.439,1.203,3.388,1.36,4.427,0.358l0.163-0.174
				c0.705-0.711,0.847-1.869,0.396-3.085c-0.047-0.116-0.009-0.251,0.079-0.338c0.1-0.077,0.232-0.095,0.345-0.04
				c1.368,0.703,2.812,0.607,3.633-0.195l0.162-0.175c0.879-0.87,0.909-2.354,0.093-3.786c-0.062-0.108-0.054-0.251,0.031-0.344
				c0.089-0.099,0.222-0.133,0.344-0.089c1.249,0.492,2.464,0.366,3.188-0.35l0.182-0.181c0.836-0.84,0.902-2.277,0.168-3.666
				c-0.06-0.117-0.04-0.251,0.039-0.347c0.091-0.093,0.228-0.124,0.348-0.08c1.096,0.461,2.368,0.354,3.088-0.378l0.181-0.18
				c1.017-1.016,0.844-2.916-0.402-4.422c-0.053-0.068-0.08-0.15-0.068-0.226L39.036,34.299l-3.359-2.233l-5.422,1.376
				c-0.452,0.355-1.852,1.523-3.041,2.539c-0.535,0.64-1.507,1.061-2.51,1.061c-1.021,0-2.043-0.406-2.964-1.18
				c-1.152-0.98-1.9-2.301-2.003-3.523c-0.069-0.841,0.153-1.585,0.641-2.157l4.478-5.3l-3.241-2.155l-7.963-7.943L0.73,27.664
				l9.875,10.181l2.564,4.287c1.112-0.784,2.373-1.214,3.59-1.214c1.301,0,2.489,0.477,3.349,1.334l0.185,0.188
				c0.843,0.842,1.309,1.985,1.327,3.261c0.895,0.165,1.69,0.581,2.321,1.198l0.177,0.186c0.857,0.845,1.318,2.025,1.312,3.341
				c0.891,0.173,1.712,0.604,2.331,1.224l0.182,0.185c0.622,0.611,1.038,1.405,1.214,2.317c1.254,0.018,2.392,0.493,3.217,1.321
				l0.185,0.186c1.024,1.005,1.492,2.496,1.29,4.062C33.732,60.627,33.395,61.532,32.858,62.348z"/>
		</g>
		<g>
			<linearGradient id="SVGID_25_" gradientUnits="userSpaceOnUse" x1="14.9375" y1="43.0938" x2="16.1748" y2="43.0938">
				<stop  offset="0.3103" style="stop-color:#E30613"/>
				<stop  offset="1" style="stop-color:#BE1622"/>
			</linearGradient>
			<path fill="url(#SVGID_25_)" d="M16.175,42.895c-0.419,0.068-0.83,0.191-1.237,0.397C15.345,43.09,15.758,42.963,16.175,42.895z"
				/>
			<path fill="#801D18" d="M14.938,43.599c-0.108,0-0.214-0.061-0.27-0.164c-0.075-0.148-0.018-0.333,0.13-0.405
				c0.406-0.218,0.839-0.361,1.321-0.435c0.003,0,0.005,0,0.008,0l0,0c0.172-0.028,0.322,0.08,0.349,0.25
				c0.027,0.165-0.086,0.318-0.251,0.348c-0.415,0.067-0.789,0.188-1.146,0.373C15.034,43.592,14.985,43.599,14.938,43.599z"/>
		</g>
		<g>
			<linearGradient id="SVGID_26_" gradientUnits="userSpaceOnUse" x1="21.4766" y1="47.6895" x2="21.7803" y2="47.6895">
				<stop  offset="0.3103" style="stop-color:#E30613"/>
				<stop  offset="1" style="stop-color:#BE1622"/>
			</linearGradient>
			<path fill="url(#SVGID_26_)" d="M21.78,47.723c-0.098-0.022-0.205-0.055-0.304-0.067C21.575,47.664,21.683,47.7,21.78,47.723z"/>
			<path fill="#801D18" d="M21.78,48.032c-0.026,0-0.05-0.002-0.071-0.009l0,0c-0.001,0-0.001,0-0.002,0l0,0
				c-0.001,0-0.001,0-0.001,0c-0.001-0.001-0.001-0.001-0.001-0.001h-0.001c0,0,0,0-0.001,0l0,0c-0.001,0-0.001,0-0.002,0l0,0
				c-0.001,0-0.001,0-0.001,0c-0.001,0-0.001,0-0.001,0s-0.001,0-0.001-0.001l0,0c-0.001,0-0.001,0-0.001,0
				c-0.001,0-0.001,0-0.001,0c-0.001,0-0.001,0-0.002-0.001c0,0-0.001,0-0.002,0c-0.085-0.03-0.184-0.051-0.274-0.067
				c-0.163-0.036-0.268-0.188-0.241-0.354c0.028-0.162,0.175-0.27,0.347-0.249c0.106,0.016,0.228,0.055,0.333,0.079
				c0.001,0,0.003,0.001,0.005,0.002c0.164,0.046,0.255,0.219,0.209,0.376C22.034,47.942,21.911,48.032,21.78,48.032z"/>
		</g>
		<g>
			<linearGradient id="SVGID_27_" gradientUnits="userSpaceOnUse" x1="13.9121" y1="43.6914" x2="14.7295" y2="43.6914">
				<stop  offset="0.3103" style="stop-color:#E30613"/>
				<stop  offset="1" style="stop-color:#BE1622"/>
			</linearGradient>
			<path fill="url(#SVGID_27_)" d="M13.924,43.988c0.267-0.223,0.524-0.432,0.806-0.594c-0.283,0.162-0.558,0.348-0.817,0.56
				L13.924,43.988z"/>
			<path fill="#801D18" d="M13.924,44.293c-0.026,0-0.057-0.003-0.084-0.009c-0.1-0.028-0.177-0.108-0.207-0.202l-0.012-0.042
				c-0.034-0.12,0.004-0.249,0.102-0.322c0.258-0.209,0.546-0.408,0.85-0.588c0.001,0,0.001,0,0.001,0l0.001-0.001
				c0.146-0.085,0.333-0.034,0.417,0.104c0.085,0.148,0.039,0.335-0.107,0.423c-0.276,0.161-0.529,0.371-0.763,0.566
				C14.065,44.273,13.994,44.293,13.924,44.293z"/>
		</g>
	</g>
</g>
</svg>
