<?xml version="1.0" encoding="utf-8"?>
<!-- Generator: Adobe Illustrator 16.0.4, SVG Export Plug-In . SVG Version: 6.00 Build 0)  -->
<!DOCTYPE svg PUBLIC "-//W3C//DTD SVG 1.1//EN" "http://www.w3.org/Graphics/SVG/1.1/DTD/svg11.dtd">
<svg version="1.1" id="Ebene_1" xmlns="http://www.w3.org/2000/svg" xmlns:xlink="http://www.w3.org/1999/xlink" x="0px" y="0px"
	 width="64px" height="64px" viewBox="0 0 64 64" enable-background="new 0 0 64 64" xml:space="preserve">
<g>
	<g id="Datei_13_">
		<g>
			<g>
				<polygon fill="#C6C6C6" points="56.933,1.197 28.136,1.197 14.536,14.799 14.536,51.771 56.933,51.771 				"/>
				<path fill="#9D9D9C" d="M57.191,52.028H14.278V14.691L28.029,0.939h29.162V52.028z M14.795,51.512h41.88V1.455H28.243
					l-13.448,13.45V51.512z"/>
			</g>
		</g>
	</g>
	<g>
		<polygon fill="#C6C6C6" points="27.602,0.84 14.216,14.187 27.602,14.187 		"/>
		<path fill="#9D9D9C" d="M27.859,14.444H13.592L27.859,0.218V14.444z M14.84,13.929h12.503V1.463L14.84,13.929z"/>
	</g>
</g>
<g>
	<g id="Datei_12_">
		<g>
			<g>
				<linearGradient id="SVGID_1_" gradientUnits="userSpaceOnUse" x1="34.7139" y1="0.2588" x2="34.7139" y2="50.832">
					<stop  offset="0" style="stop-color:#FFFFFF"/>
					<stop  offset="1" style="stop-color:#EFEFEF"/>
				</linearGradient>
				<polygon fill="url(#SVGID_1_)" points="55.912,0.259 27.115,0.259 13.516,13.86 13.516,50.832 55.912,50.832 				"/>
				<path fill="#9D9D9C" d="M56.17,51.091H13.258V13.754L27.009,0.001H56.17V51.091z M13.774,50.574h41.88V0.518H27.223
					l-13.448,13.45V50.574z"/>
			</g>
		</g>
	</g>
	<g>
		<linearGradient id="SVGID_2_" gradientUnits="userSpaceOnUse" x1="18.8467" y1="3.1914" x2="23.1363" y2="14.977">
			<stop  offset="0" style="stop-color:#FFFFFF"/>
			<stop  offset="1" style="stop-color:#EDEDED"/>
		</linearGradient>
		<polygon fill="url(#SVGID_2_)" points="26.901,0.259 13.516,13.605 26.901,13.605 		"/>
		<path fill="#9D9D9C" d="M26.901,13.863H13.516c-0.104,0-0.198-0.062-0.239-0.159c-0.039-0.097-0.017-0.208,0.057-0.281
			L26.719,0.076C26.792,0.002,26.902-0.021,27,0.021c0.097,0.039,0.159,0.134,0.159,0.237v13.347
			C27.159,13.748,27.044,13.863,26.901,13.863z M14.14,13.348h12.504V0.882L14.14,13.348z"/>
	</g>
</g>
<g>
	<linearGradient id="SVGID_3_" gradientUnits="userSpaceOnUse" x1="37.5938" y1="14.3125" x2="51.3418" y2="14.3125">
		<stop  offset="0.3103" style="stop-color:#E30613"/>
		<stop  offset="1" style="stop-color:#BE1622"/>
	</linearGradient>
	<path fill="url(#SVGID_3_)" d="M50.889,16.369c-0.091,0.194-0.379,0.634-0.484,0.348c-0.062-0.174,0.227-1.935,0.21-2.319
		c0,0,0.059-1.893-1.022-2.867c0,0-0.394-0.354-0.289,0.217c0.105,0.559-0.104,1.653-0.347,1.973
		c-0.242,0.312-0.409,0.11-0.396-0.159c0.017-0.257-0.089-4.713-2.062-5.523c-0.311-0.121-0.438,0.033-0.142,0.525
		c0.093,0.156,0.321,0.876,0.121,1.578c0,0-0.121,0.476-0.345-0.055c-0.186-0.456-0.234-0.896-0.521-1.435
		c-0.755-1.437-1.429-2.311-1.872-3.489c-0.132-0.224-0.515-1.269-0.793-0.164c-0.159,0.634,0,1.904-0.017,1.751
		c0,0,0.18,1.558-0.062,2.007c-0.21,0.364-0.472,0-0.472,0C42.131,8.448,41.83,8.2,41.612,8.09c-0.21-0.102-0.405-0.289-0.5-0.391
		c0,0-0.295-0.314-0.222,0.139c0.086,0.452,1.28,2.367,0.21,4.347c0,0-0.19,0.521-0.454,0.054c-0.271-0.449-0.66-1.062-1.58-1.484
		c0,0-0.609-0.339-0.299,0.373c0.384,0.894,0.806,0.841,0.759,3.141c-0.006,0.424-0.282,1.516-0.538,1.247
		c-0.289-0.309-0.821-0.931-1.139-0.991c-0.314-0.057-0.3,0.19-0.163,0.345c0.151,0.153,0.783,1.266,0.7,3.339
		c-0.081,2.087,0.316,4.199,3,5.029v0.15h-1.463v0.739h9.093v-0.739h-1.374v-0.15c0,0,4.88-2.488,3.43-6.967
		C51.072,16.27,51.008,16.096,50.889,16.369z"/>
	<path fill="#A42423" d="M43.271,4.833c0.064,0.097,0.138,0.244,0.171,0.312c0.029,0.059,0.055,0.108,0.058,0.108V5.253
		c0.283,0.751,0.649,1.37,1.073,2.086c0.26,0.438,0.528,0.893,0.812,1.434c0.164,0.307,0.245,0.586,0.325,0.856
		c0.056,0.187,0.109,0.369,0.186,0.558c0.048,0.111,0.173,0.409,0.438,0.409c0.186,0,0.333-0.146,0.394-0.385
		c0.227-0.793-0.029-1.582-0.148-1.781c-0.021-0.035-0.039-0.067-0.053-0.096c1.604,0.845,1.81,4.703,1.777,5.213
		c-0.01,0.188,0.043,0.359,0.145,0.466c0.075,0.08,0.175,0.123,0.281,0.123c0.154,0,0.299-0.086,0.434-0.26
		c0.267-0.353,0.468-1.353,0.418-1.989c0.812,0.919,0.777,2.487,0.776,2.521c0.007,0.157-0.054,0.653-0.107,1.09
		c-0.113,0.923-0.135,1.173-0.087,1.307c0.089,0.245,0.284,0.264,0.341,0.264c0.179,0,0.332-0.143,0.444-0.292
		c0.943,3.944-3.237,6.136-3.422,6.23l-0.141,0.071v0.158v0.15v0.259h0.258h1.115v0.223h-8.575v-0.223h1.204h0.258v-0.259v-0.15
		v-0.19l-0.182-0.057c-2.614-0.809-2.892-2.865-2.818-4.771c0.07-1.76-0.352-2.848-0.612-3.301c0.221,0.18,0.501,0.485,0.645,0.642
		l0.124,0.135c0.097,0.101,0.2,0.122,0.27,0.122c0.598,0,0.715-1.529,0.715-1.543c0.036-1.813-0.22-2.245-0.516-2.745
		c-0.087-0.147-0.178-0.3-0.265-0.503c-0.003-0.006-0.005-0.013-0.008-0.019c0.849,0.401,1.196,0.98,1.424,1.36
		c0.122,0.216,0.272,0.324,0.445,0.324c0.309,0,0.451-0.348,0.461-0.383c0.904-1.672,0.302-3.282-0.028-4.104
		c0.062,0.042,0.128,0.082,0.197,0.117c0.197,0.099,0.475,0.335,0.691,0.586c0.032,0.044,0.207,0.268,0.466,0.268
		c0.103,0,0.294-0.037,0.443-0.297c0.267-0.494,0.124-1.885,0.092-2.158l0,0c-0.023-0.175-0.114-1.166,0.01-1.658
		C43.226,4.955,43.251,4.882,43.271,4.833 M43.249,4.5c-0.104,0-0.208,0.129-0.301,0.498c-0.15,0.599-0.018,1.765-0.016,1.765
		c0,0,0-0.004-0.001-0.014c0,0,0.18,1.558-0.062,2.007c-0.069,0.121-0.145,0.161-0.216,0.161c-0.139,0-0.256-0.161-0.256-0.161
		C42.131,8.448,41.83,8.2,41.612,8.09c-0.21-0.102-0.405-0.289-0.5-0.391c0,0-0.1-0.106-0.169-0.106
		c-0.05,0-0.083,0.056-0.053,0.245c0.086,0.452,1.28,2.367,0.21,4.347c0,0-0.091,0.248-0.234,0.248c-0.063,0-0.139-0.05-0.22-0.194
		c-0.271-0.449-0.66-1.062-1.58-1.484c0,0-0.146-0.081-0.257-0.081c-0.118,0-0.201,0.089-0.042,0.454
		c0.384,0.894,0.806,0.841,0.759,3.141c-0.005,0.379-0.226,1.29-0.456,1.29c-0.027,0-0.056-0.015-0.082-0.043
		c-0.289-0.309-0.821-0.931-1.139-0.991c-0.031-0.006-0.06-0.008-0.084-0.008c-0.227,0-0.202,0.214-0.079,0.353
		c0.151,0.153,0.783,1.266,0.7,3.339c-0.081,2.087,0.316,4.199,3,5.029v0.15h-1.463v0.739h9.093v-0.739h-1.374v-0.15
		c0,0,4.88-2.488,3.43-6.967c0,0-0.021-0.055-0.059-0.055c-0.03,0-0.072,0.034-0.125,0.154c-0.069,0.148-0.255,0.441-0.386,0.441
		c-0.039,0-0.074-0.027-0.099-0.094c-0.062-0.174,0.227-1.935,0.21-2.319c0,0,0.059-1.893-1.022-2.867c0,0-0.121-0.108-0.211-0.108
		c-0.072,0-0.124,0.07-0.078,0.325c0.105,0.559-0.104,1.653-0.347,1.973c-0.087,0.112-0.164,0.158-0.228,0.158
		c-0.111,0-0.177-0.145-0.168-0.317c0.017-0.257-0.089-4.713-2.062-5.523c-0.066-0.026-0.125-0.039-0.173-0.039
		c-0.174,0-0.201,0.179,0.031,0.564c0.093,0.156,0.321,0.876,0.121,1.578c0,0-0.051,0.196-0.146,0.196
		c-0.052,0-0.12-0.062-0.199-0.251c-0.186-0.456-0.234-0.896-0.521-1.435c-0.755-1.437-1.429-2.311-1.872-3.489
		C43.653,5.014,43.454,4.5,43.249,4.5L43.249,4.5z"/>
</g>
<g>
	<g>
		<rect x="38.945" y="42.073" fill="#C6C6C6" width="24.797" height="16.074"/>
		<path fill="#9D9D9C" d="M64,58.405H38.688v-16.59H64V58.405z M39.204,57.89h24.279V42.332H39.204V57.89z"/>
	</g>
	<g>
		<linearGradient id="SVGID_4_" gradientUnits="userSpaceOnUse" x1="50.3252" y1="41.1729" x2="50.3252" y2="57.2471">
			<stop  offset="0" style="stop-color:#FFFFFF"/>
			<stop  offset="1" style="stop-color:#EFEFEF"/>
		</linearGradient>
		<rect x="37.927" y="41.173" fill="url(#SVGID_4_)" width="24.796" height="16.074"/>
		<path fill="#9D9D9C" d="M62.723,57.505H37.927l-0.259-0.258V41.173l0.259-0.259h24.796l0.259,0.259v16.074L62.723,57.505z
			 M38.185,56.988h24.28V41.431h-24.28V56.988z"/>
	</g>
	<g>
		<linearGradient id="SVGID_5_" gradientUnits="userSpaceOnUse" x1="53.5703" y1="49.4004" x2="59.4258" y2="49.4004">
			<stop  offset="0.3103" style="stop-color:#E30613"/>
			<stop  offset="1" style="stop-color:#BE1622"/>
		</linearGradient>
		<path fill="url(#SVGID_5_)" d="M59.232,50.274c-0.038,0.082-0.161,0.271-0.205,0.148c-0.026-0.075,0.097-0.824,0.089-0.987
			c0,0,0.023-0.807-0.437-1.221c0,0-0.167-0.152-0.123,0.091c0.045,0.237-0.044,0.705-0.148,0.84
			c-0.102,0.132-0.172,0.046-0.168-0.068c0.007-0.109-0.038-2.006-0.878-2.352c-0.131-0.054-0.186,0.015-0.06,0.224
			c0.04,0.067,0.137,0.373,0.052,0.672c0,0-0.052,0.203-0.146-0.022c-0.079-0.192-0.101-0.383-0.223-0.61
			c-0.32-0.612-0.607-0.983-0.797-1.486c-0.057-0.095-0.22-0.541-0.337-0.071c-0.068,0.271,0,0.812-0.008,0.745
			c0,0,0.076,0.665-0.026,0.854c-0.09,0.156-0.201,0-0.201,0c-0.113-0.129-0.241-0.235-0.335-0.279
			c-0.09-0.046-0.172-0.125-0.213-0.171c0,0-0.125-0.132-0.095,0.061c0.039,0.195,0.547,1.008,0.089,1.853
			c0,0-0.08,0.222-0.192,0.023c-0.116-0.191-0.28-0.454-0.673-0.636c0,0-0.26-0.144-0.127,0.161c0.162,0.382,0.343,0.36,0.323,1.339
			c-0.003,0.181-0.119,0.643-0.229,0.529c-0.125-0.129-0.35-0.396-0.486-0.422c-0.133-0.023-0.129,0.08-0.068,0.148
			c0.064,0.062,0.333,0.539,0.297,1.421c-0.033,0.89,0.135,1.789,1.276,2.141v0.067h-0.621v0.314h3.873v-0.314h-0.587v-0.067
			c0,0,2.08-1.058,1.463-2.965C59.312,50.233,59.283,50.159,59.232,50.274z"/>
		<path fill="#A42423" d="M56.083,45.905c0.097,0.201,0.207,0.389,0.33,0.596c0.107,0.182,0.224,0.377,0.345,0.609
			c0.062,0.114,0.094,0.221,0.127,0.334c0.025,0.085,0.05,0.169,0.086,0.254c0.073,0.176,0.182,0.266,0.322,0.266
			c0.146,0,0.27-0.109,0.31-0.271c0.03-0.107,0.043-0.213,0.044-0.314c0.273,0.54,0.347,1.41,0.336,1.69
			c-0.005,0.122,0.033,0.23,0.105,0.306l0.116,0.097h0.108c0.079,0,0.194-0.029,0.301-0.168c0.073-0.095,0.129-0.252,0.166-0.426
			c0.083,0.283,0.078,0.554,0.078,0.571c0.003,0.056-0.026,0.289-0.044,0.445c-0.054,0.434-0.061,0.526-0.029,0.618
			c0.057,0.154,0.185,0.21,0.284,0.21c0.03,0,0.059-0.006,0.086-0.013c0.169,1.425-1.353,2.224-1.423,2.26l-0.141,0.072v0.157v0.067
			v0.056h-2.148v-0.056v-0.067v-0.19l-0.183-0.057c-0.817-0.251-1.134-0.798-1.095-1.883c0.014-0.345-0.017-0.641-0.066-0.883H54.2
			c0.42,0,0.452-0.793,0.452-0.8c0.008-0.394-0.017-0.644-0.062-0.831c0.019,0.03,0.037,0.061,0.055,0.089
			c0.1,0.176,0.228,0.214,0.318,0.214c0.178,0,0.293-0.143,0.326-0.241c0.275-0.507,0.247-1.006,0.156-1.387
			c0.054,0.055,0.148,0.129,0.279,0.129c0.061,0,0.213-0.02,0.318-0.205c0.127-0.235,0.083-0.774,0.057-1.002l0,0
			C56.093,46.084,56.086,45.996,56.083,45.905 M55.979,45.219c-0.044,0-0.088,0.056-0.127,0.212
			c-0.064,0.254-0.008,0.744-0.007,0.751l0,0l0,0c0-0.001-0.001-0.003-0.001-0.006c0,0.003,0.076,0.665-0.026,0.854
			c-0.03,0.053-0.062,0.069-0.092,0.069c-0.06,0-0.109-0.069-0.109-0.069c-0.113-0.129-0.241-0.235-0.335-0.279
			c-0.09-0.046-0.172-0.125-0.213-0.171c0,0-0.041-0.044-0.071-0.044c-0.021,0-0.036,0.023-0.023,0.104
			c0.039,0.195,0.547,1.008,0.089,1.853c0,0-0.038,0.105-0.099,0.105c-0.027,0-0.06-0.021-0.094-0.082
			c-0.116-0.191-0.28-0.454-0.673-0.636c0,0-0.062-0.033-0.109-0.033c-0.05,0-0.086,0.037-0.018,0.194
			c0.162,0.382,0.343,0.36,0.323,1.339c-0.003,0.161-0.097,0.547-0.193,0.547c-0.012,0-0.023-0.006-0.035-0.018
			c-0.125-0.129-0.35-0.396-0.486-0.422c-0.013-0.002-0.025-0.004-0.036-0.004c-0.096,0-0.087,0.091-0.032,0.152
			c0.064,0.062,0.333,0.539,0.297,1.421c-0.033,0.89,0.135,1.789,1.276,2.141v0.067h-0.621v0.314h3.873v-0.314h-0.587v-0.067
			c0,0,2.08-1.058,1.463-2.965c0,0-0.009-0.023-0.025-0.023c-0.013,0-0.031,0.014-0.054,0.064c-0.029,0.062-0.108,0.188-0.164,0.188
			c-0.017,0-0.031-0.012-0.041-0.04c-0.026-0.075,0.097-0.824,0.089-0.987c0,0,0.023-0.807-0.437-1.221c0,0-0.051-0.048-0.09-0.048
			c-0.031,0-0.053,0.03-0.033,0.139c0.045,0.237-0.044,0.705-0.148,0.84c-0.036,0.048-0.068,0.066-0.096,0.066
			c-0.047,0-0.075-0.062-0.072-0.135c0.007-0.109-0.038-2.006-0.878-2.352c-0.028-0.011-0.053-0.017-0.073-0.017
			c-0.072,0-0.085,0.076,0.014,0.24c0.04,0.067,0.137,0.373,0.052,0.672c0,0-0.021,0.084-0.062,0.084
			c-0.022,0-0.051-0.026-0.085-0.106c-0.079-0.192-0.101-0.383-0.223-0.61c-0.32-0.612-0.607-0.983-0.797-1.486
			C56.151,45.438,56.065,45.219,55.979,45.219L55.979,45.219z M55.844,46.176L55.844,46.176L55.844,46.176L55.844,46.176z"/>
	</g>
</g>
<g>
	<g>
		<g>
			<path fill="#9D9D9C" d="M23.506,60.907c0,1.56-1.275,2.835-2.835,2.835H4.593c-1.56,0-2.835-1.275-2.835-2.835V26.855
				c0-1.56,1.275-2.835,2.835-2.835h16.078c1.56,0,2.835,1.275,2.835,2.835V60.907z"/>
		</g>
		<path fill="#6F6F6F" d="M20.578,64H4.687C2.93,64,1.5,62.57,1.5,60.813V26.949c0-1.758,1.43-3.187,3.187-3.187h15.892
			c1.757,0,3.187,1.429,3.187,3.187v33.864C23.765,62.57,22.335,64,20.578,64z M4.687,24.278c-1.473,0-2.67,1.198-2.67,2.671v33.864
			c0,1.473,1.197,2.67,2.67,2.67h15.892c1.473,0,2.67-1.197,2.67-2.67V26.949c0-1.473-1.197-2.671-2.67-2.671H4.687z"/>
	</g>
	<g>
		<rect x="2.562" y="26.225" fill="#FFFFFF" width="20.142" height="32.364"/>
		<path fill="#6A6A6A" d="M22.703,58.848H2.562l-0.259-0.259V26.225l0.259-0.258h20.142l0.258,0.258v32.364L22.703,58.848z
			 M2.819,58.331h19.626V26.482H2.819V58.331z"/>
	</g>
	<circle fill="#6F6F6F" cx="12.813" cy="60.966" r="1.465"/>
	<g>
		<linearGradient id="SVGID_6_" gradientUnits="userSpaceOnUse" x1="8.1504" y1="42.4062" x2="17.1143" y2="42.4062">
			<stop  offset="0.3103" style="stop-color:#E30613"/>
			<stop  offset="1" style="stop-color:#BE1622"/>
		</linearGradient>
		<path fill="url(#SVGID_6_)" d="M16.818,43.746c-0.059,0.125-0.246,0.412-0.314,0.226c-0.041-0.113,0.146-1.26,0.137-1.512
			c0,0,0.036-1.231-0.668-1.866c0,0-0.256-0.234-0.189,0.14c0.068,0.362-0.066,1.077-0.226,1.284
			c-0.155,0.202-0.265,0.069-0.259-0.104c0.013-0.167-0.059-3.07-1.344-3.599c-0.199-0.083-0.284,0.021-0.09,0.343
			c0.06,0.102,0.207,0.569,0.078,1.028c0,0-0.078,0.311-0.224-0.035c-0.121-0.295-0.155-0.586-0.339-0.936
			c-0.492-0.938-0.933-1.505-1.221-2.273c-0.087-0.146-0.337-0.83-0.517-0.109c-0.104,0.415,0,1.241-0.012,1.141
			c0,0,0.116,1.017-0.041,1.308c-0.137,0.24-0.309,0-0.309,0c-0.173-0.199-0.369-0.359-0.51-0.429
			c-0.14-0.069-0.267-0.191-0.325-0.26c0,0-0.193-0.204-0.147,0.092c0.057,0.298,0.835,1.543,0.138,2.835
			c0,0-0.125,0.34-0.297,0.037c-0.178-0.292-0.43-0.696-1.029-0.975c0,0-0.397-0.219-0.195,0.249
			c0.248,0.581,0.524,0.55,0.494,2.048c-0.004,0.275-0.184,0.983-0.349,0.811c-0.189-0.198-0.537-0.606-0.745-0.646
			c-0.203-0.038-0.195,0.123-0.104,0.226c0.099,0.097,0.509,0.826,0.454,2.175c-0.049,1.362,0.208,2.74,1.957,3.279v0.101H9.671
			v0.481h5.927v-0.481h-0.896v-0.101c0,0,3.182-1.619,2.237-4.54C16.939,43.683,16.896,43.569,16.818,43.746z"/>
		<path fill="#A42423" d="M11.88,36.462c0.002,0.002,0.003,0.004,0.004,0.006c0.017,0.036,0.033,0.069,0.035,0.069
			c0,0,0-0.001-0.001-0.005c0.187,0.497,0.427,0.901,0.705,1.37c0.165,0.278,0.343,0.579,0.528,0.933
			c0.1,0.189,0.15,0.359,0.204,0.539c0.037,0.126,0.074,0.25,0.126,0.376c0.033,0.08,0.135,0.322,0.368,0.322
			c0.161,0,0.294-0.124,0.342-0.316c0.099-0.352,0.062-0.723-0.007-0.977c0.759,0.768,0.872,2.823,0.856,3.125
			c-0.005,0.146,0.04,0.28,0.124,0.367c0.065,0.068,0.153,0.106,0.247,0.106c0.129,0,0.246-0.068,0.35-0.202
			c0.151-0.198,0.271-0.669,0.294-1.074c0.343,0.572,0.327,1.345,0.327,1.368c0.004,0.097-0.037,0.429-0.07,0.696
			c-0.081,0.666-0.088,0.791-0.051,0.895c0.062,0.171,0.198,0.231,0.307,0.231c0.089,0,0.168-0.039,0.235-0.095
			c0.445,2.4-2.104,3.737-2.219,3.795l-0.142,0.072v0.158v0.101v0.224h-3.562v-0.224v-0.101v-0.19l-0.183-0.057
			c-1.64-0.506-1.817-1.812-1.774-3.022c0.031-0.789-0.086-1.377-0.22-1.769c0.025,0.026,0.049,0.051,0.066,0.071l0.104,0.11
			c0.065,0.069,0.151,0.107,0.239,0.107c0.489,0,0.555-1.08,0.555-1.091c0.023-1.206-0.148-1.499-0.35-1.838
			c-0.015-0.024-0.03-0.051-0.046-0.078c0.348,0.229,0.516,0.507,0.643,0.716c0.12,0.212,0.266,0.257,0.368,0.257
			c0.201,0,0.337-0.172,0.38-0.298c0.528-0.979,0.295-1.918,0.08-2.507c0.095,0.064,0.218,0.17,0.328,0.296
			c0.025,0.035,0.165,0.215,0.378,0.215c0.085,0,0.248-0.031,0.368-0.242c0.137-0.252,0.125-0.801,0.098-1.169h0.005l-0.029-0.258
			c-0.001-0.009-0.002-0.017-0.003-0.025v-0.005C11.862,37.22,11.831,36.745,11.88,36.462 M11.838,36.008
			c-0.067,0-0.135,0.084-0.194,0.324c-0.094,0.372-0.02,1.075-0.012,1.144c0.001,0.004,0.001,0.005,0.001,0.005s0-0.001-0.001-0.005
			c0-0.001,0-0.002,0-0.003c0,0.002,0.116,1.017-0.041,1.308c-0.045,0.079-0.095,0.106-0.141,0.106
			c-0.091,0-0.168-0.106-0.168-0.106c-0.173-0.199-0.369-0.359-0.51-0.429c-0.14-0.069-0.267-0.191-0.325-0.26
			c0,0-0.065-0.068-0.111-0.068c-0.033,0-0.055,0.036-0.036,0.16c0.057,0.298,0.835,1.543,0.138,2.835c0,0-0.06,0.162-0.153,0.162
			c-0.043,0-0.091-0.032-0.144-0.125c-0.178-0.292-0.43-0.696-1.029-0.975c0,0-0.093-0.051-0.166-0.051
			c-0.078,0-0.133,0.058-0.029,0.3c0.248,0.581,0.524,0.55,0.494,2.048c-0.004,0.246-0.147,0.838-0.296,0.838
			c-0.018,0-0.035-0.01-0.053-0.027c-0.189-0.198-0.537-0.606-0.745-0.646c-0.02-0.005-0.039-0.007-0.055-0.007
			c-0.146,0-0.132,0.14-0.05,0.232c0.099,0.097,0.509,0.826,0.454,2.175c-0.049,1.362,0.208,2.74,1.957,3.279v0.101H9.671v0.481
			h5.927v-0.481h-0.896v-0.101c0,0,3.182-1.619,2.237-4.54c0,0-0.014-0.035-0.039-0.035c-0.02,0-0.048,0.021-0.082,0.099
			c-0.045,0.096-0.165,0.287-0.25,0.287c-0.026,0-0.049-0.018-0.064-0.062c-0.041-0.113,0.146-1.26,0.137-1.512
			c0,0,0.036-1.231-0.668-1.866c0,0-0.079-0.072-0.138-0.072c-0.048,0-0.081,0.046-0.052,0.212c0.068,0.362-0.066,1.077-0.226,1.284
			c-0.056,0.073-0.105,0.103-0.146,0.103c-0.073,0-0.117-0.095-0.113-0.207c0.013-0.167-0.059-3.07-1.344-3.599
			c-0.043-0.019-0.081-0.027-0.111-0.027c-0.112,0-0.13,0.118,0.021,0.37c0.06,0.102,0.207,0.569,0.078,1.028
			c0,0-0.032,0.129-0.094,0.129c-0.034,0-0.078-0.04-0.13-0.164c-0.121-0.295-0.155-0.586-0.339-0.936
			c-0.492-0.938-0.933-1.505-1.221-2.273C12.103,36.344,11.972,36.008,11.838,36.008L11.838,36.008z M11.632,37.473L11.632,37.473
			L11.632,37.473z"/>
	</g>
</g>
</svg>
