<?xml version="1.0" encoding="utf-8"?>
<!-- Generator: Adobe Illustrator 16.0.4, SVG Export Plug-In . SVG Version: 6.00 Build 0)  -->
<!DOCTYPE svg PUBLIC "-//W3C//DTD SVG 1.1//EN" "http://www.w3.org/Graphics/SVG/1.1/DTD/svg11.dtd">
<svg version="1.1" id="Ebene_1" xmlns="http://www.w3.org/2000/svg" xmlns:xlink="http://www.w3.org/1999/xlink" x="0px" y="0px"
	 width="64px" height="64px" viewBox="0 0 64 64" enable-background="new 0 0 64 64" xml:space="preserve">
<g>
	<g>
		<g>
			<linearGradient id="SVGID_1_" gradientUnits="userSpaceOnUse" x1="0.208" y1="45.4678" x2="63.791" y2="45.4678">
				<stop  offset="0" style="stop-color:#FFFFFF"/>
				<stop  offset="1" style="stop-color:#DCDDDE"/>
			</linearGradient>
			<path fill="url(#SVGID_1_)" d="M49.099,34.85c-1.128,0.025-2.206,0.212-3.249,0.479c-2.377-4.938-7.43-8.31-13.235-8.181
				c-5.758,0.126-10.61,3.665-12.795,8.633c-1.718-0.679-3.597-1.039-5.56-0.996C6.324,34.961,0.035,41.577,0.212,49.56
				C0.39,57.543,6.962,63.873,14.9,63.697c5.758-0.128,29.028,0.191,34.838,0.062c7.938-0.176,14.226-6.789,14.049-14.772
				S57.035,34.675,49.099,34.85"/>
			<path fill="#6F6F6F" d="M45.31,64c-3.54,0-8.374-0.032-13.049-0.062c-4.656-0.03-9.471-0.062-12.983-0.062
				c-2.009,0-3.439,0.01-4.372,0.031c-0.11,0.002-0.218,0.003-0.327,0.003c-7.861,0-14.399-6.436-14.575-14.345
				c-0.086-3.917,1.348-7.633,4.039-10.464c2.692-2.831,6.319-4.438,10.213-4.524c1.882-0.047,3.707,0.276,5.455,0.938
				c2.323-5.095,7.364-8.454,12.899-8.575c0.109-0.003,0.219-0.004,0.327-0.004c5.475,0,10.569,3.192,13.026,8.149
				c1.119-0.277,2.145-0.422,3.131-0.444c0.109-0.002,0.217-0.003,0.326-0.003c7.862,0,14.401,6.435,14.576,14.345
				c0.18,8.085-6.215,14.808-14.253,14.986C48.793,63.99,47.344,64,45.31,64z M19.277,63.457c3.514,0,8.329,0.032,12.986,0.063
				c4.674,0.029,9.507,0.062,13.046,0.062c2.031,0,3.479-0.01,4.424-0.031c7.808-0.173,14.02-6.705,13.845-14.559
				c-0.17-7.685-6.521-13.937-14.158-13.937c-0.105,0-0.211,0.001-0.316,0.003c-1.003,0.022-2.051,0.177-3.201,0.473l-0.167,0.042
				l-0.074-0.153c-2.404-4.997-7.526-8.188-13.042-8.062c-5.439,0.119-10.389,3.459-12.608,8.508L19.93,36.05l-0.188-0.074
				c-1.753-0.692-3.616-1.024-5.478-0.981c-3.782,0.083-7.305,1.644-9.92,4.395c-2.614,2.75-4.009,6.361-3.924,10.166
				c0.171,7.685,6.521,13.937,14.157,13.937c0.106,0,0.211-0.001,0.317-0.003C15.832,63.468,17.266,63.457,19.277,63.457z"/>
		</g>
	</g>
</g>
</svg>
