<?xml version="1.0" encoding="utf-8"?>
<!-- Generator: Adobe Illustrator 16.0.4, SVG Export Plug-In . SVG Version: 6.00 Build 0)  -->
<!DOCTYPE svg PUBLIC "-//W3C//DTD SVG 1.1//EN" "http://www.w3.org/Graphics/SVG/1.1/DTD/svg11.dtd">
<svg version="1.1" id="Ebene_1" xmlns="http://www.w3.org/2000/svg" xmlns:xlink="http://www.w3.org/1999/xlink" x="0px" y="0px"
	 width="64px" height="64px" viewBox="0 0 64 64" enable-background="new 0 0 64 64" xml:space="preserve">
<g>
	<g id="Apps_1_">
		<g>
			<linearGradient id="SVGID_1_" gradientUnits="userSpaceOnUse" x1="34.7725" y1="63.6807" x2="29.2291" y2="0.3202">
				<stop  offset="0" style="stop-color:#FFFFFF"/>
				<stop  offset="1" style="stop-color:#DCDDDE"/>
			</linearGradient>
			<path fill-rule="evenodd" clip-rule="evenodd" fill="url(#SVGID_1_)" d="M62.353,49.347c0,7.155-5.854,13.009-13.009,13.009
				H14.656c-7.155,0-13.009-5.854-13.009-13.009V14.653c0-7.155,5.854-13.009,13.009-13.009h34.688
				c7.155,0,13.009,5.854,13.009,13.009V49.347z"/>
			<g>
				<path fill="#7A7B7D" d="M49.344,63.503H14.656C6.851,63.503,0.5,57.152,0.5,49.347V14.653c0-7.806,6.351-14.156,14.156-14.156
					h34.688c7.806,0,14.156,6.351,14.156,14.156v34.693C63.5,57.152,57.149,63.503,49.344,63.503z M14.656,2.792
					c-6.541,0-11.861,5.32-11.861,11.861v34.693c0,6.541,5.32,11.861,11.861,11.861h34.688c6.541,0,11.861-5.32,11.861-11.861
					V14.653c0-6.541-5.32-11.861-11.861-11.861H14.656z"/>
			</g>
			<g>
				<path fill="#FFFFFF" d="M49.344,62.738H14.656c-7.385,0-13.391-6.007-13.391-13.392V14.653c0-7.385,6.006-13.392,13.391-13.392
					h34.688c7.385,0,13.392,6.007,13.392,13.392v34.693C62.735,56.731,56.729,62.738,49.344,62.738z M14.656,2.026
					c-6.963,0-12.627,5.664-12.627,12.627v34.693c0,6.963,5.664,12.627,12.627,12.627h34.688c6.963,0,12.627-5.664,12.627-12.627
					V14.653c0-6.963-5.664-12.627-12.627-12.627H14.656z"/>
			</g>
		</g>
		<g>
			<g>
				<path fill="#7A7B7D" d="M49.344,63.503H14.656C6.851,63.503,0.5,57.152,0.5,49.347V14.653c0-7.806,6.351-14.156,14.156-14.156
					h34.688c7.806,0,14.156,6.351,14.156,14.156v34.693C63.5,57.152,57.149,63.503,49.344,63.503z M14.656,2.792
					c-6.541,0-11.861,5.32-11.861,11.861v34.693c0,6.541,5.32,11.861,11.861,11.861h34.688c6.541,0,11.861-5.32,11.861-11.861
					V14.653c0-6.541-5.32-11.861-11.861-11.861H14.656z"/>
			</g>
			<g>
				<path fill="#FFFFFF" d="M49.344,62.738H14.656c-7.385,0-13.391-6.007-13.391-13.392V14.653c0-7.385,6.006-13.392,13.391-13.392
					h34.688c7.385,0,13.392,6.007,13.392,13.392v34.693C62.735,56.731,56.729,62.738,49.344,62.738z M14.656,2.026
					c-6.963,0-12.627,5.664-12.627,12.627v34.693c0,6.963,5.664,12.627,12.627,12.627h34.688c6.963,0,12.627-5.664,12.627-12.627
					V14.653c0-6.963-5.664-12.627-12.627-12.627H14.656z"/>
			</g>
		</g>
		<g>
			<defs>
				<rect id="SVGID_58_" x="2.219" y="2.219" width="59.564" height="60.137"/>
			</defs>
			<clipPath id="SVGID_2_">
				<use xlink:href="#SVGID_58_"  overflow="visible"/>
			</clipPath>
		</g>
	</g>
	<g>
		<defs>
			<path id="SVGID_60_" d="M61.334,48.766c0,6.913-5.657,12.57-12.571,12.57H15.237c-6.914,0-12.571-5.657-12.571-12.57V15.234
				c0-6.913,5.657-12.57,12.571-12.57h33.525c6.914,0,12.571,5.657,12.571,12.57V48.766z"/>
		</defs>
		<clipPath id="SVGID_3_">
			<use xlink:href="#SVGID_60_"  overflow="visible"/>
		</clipPath>
		<g clip-path="url(#SVGID_3_)">
			<g>
				<linearGradient id="SVGID_4_" gradientUnits="userSpaceOnUse" x1="-0.4844" y1="-3.2354" x2="5.6095" y2="13.5075">
					<stop  offset="0" style="stop-color:#E3342D"/>
					<stop  offset="1" style="stop-color:#BC0A26"/>
				</linearGradient>
				<rect x="-4.389" y="-1.814" fill="url(#SVGID_4_)" width="13.901" height="13.9"/>
			</g>
			<g>
				<linearGradient id="SVGID_5_" gradientUnits="userSpaceOnUse" x1="-0.4844" y1="13.5791" x2="5.6095" y2="30.322">
					<stop  offset="0" style="stop-color:#E3342D"/>
					<stop  offset="1" style="stop-color:#BC0A26"/>
				</linearGradient>
				<rect x="-4.389" y="15" fill="url(#SVGID_5_)" width="13.901" height="13.901"/>
			</g>
			<g>
				<linearGradient id="SVGID_6_" gradientUnits="userSpaceOnUse" x1="-0.4844" y1="30.3945" x2="5.6102" y2="47.1392">
					<stop  offset="0" style="stop-color:#E3342D"/>
					<stop  offset="1" style="stop-color:#BC0A26"/>
				</linearGradient>
				<rect x="-4.389" y="31.815" fill="url(#SVGID_6_)" width="13.901" height="13.902"/>
			</g>
			<g>
				<linearGradient id="SVGID_7_" gradientUnits="userSpaceOnUse" x1="-0.4844" y1="47.2109" x2="5.6095" y2="63.9538">
					<stop  offset="0" style="stop-color:#E3342D"/>
					<stop  offset="1" style="stop-color:#BC0A26"/>
				</linearGradient>
				<rect x="-4.389" y="48.632" fill="url(#SVGID_7_)" width="13.901" height="13.901"/>
			</g>
			<g>
				<linearGradient id="SVGID_8_" gradientUnits="userSpaceOnUse" x1="18.125" y1="3.4902" x2="24.2186" y2="20.2322">
					<stop  offset="0" style="stop-color:#E3342D"/>
					<stop  offset="1" style="stop-color:#BC0A26"/>
				</linearGradient>
				<rect x="14.222" y="4.911" fill="url(#SVGID_8_)" width="13.899" height="13.901"/>
			</g>
			<g>
				<linearGradient id="SVGID_9_" gradientUnits="userSpaceOnUse" x1="18.125" y1="20.3066" x2="24.2186" y2="37.0486">
					<stop  offset="0" style="stop-color:#E3342D"/>
					<stop  offset="1" style="stop-color:#BC0A26"/>
				</linearGradient>
				<rect x="14.222" y="21.727" fill="url(#SVGID_9_)" width="13.899" height="13.9"/>
			</g>
			<g>
				<linearGradient id="SVGID_10_" gradientUnits="userSpaceOnUse" x1="18.124" y1="37.1211" x2="24.2183" y2="53.8649">
					<stop  offset="0" style="stop-color:#E3342D"/>
					<stop  offset="1" style="stop-color:#BC0A26"/>
				</linearGradient>
				<rect x="14.222" y="38.541" fill="url(#SVGID_10_)" width="13.899" height="13.903"/>
			</g>
			<g>
				<linearGradient id="SVGID_11_" gradientUnits="userSpaceOnUse" x1="18.125" y1="53.9375" x2="24.2182" y2="70.6785">
					<stop  offset="0" style="stop-color:#E3342D"/>
					<stop  offset="1" style="stop-color:#BC0A26"/>
				</linearGradient>
				<rect x="14.222" y="55.357" fill="url(#SVGID_11_)" width="13.899" height="13.9"/>
			</g>
			<g>
				<linearGradient id="SVGID_12_" gradientUnits="userSpaceOnUse" x1="36.7334" y1="-4.375" x2="42.8273" y2="12.3679">
					<stop  offset="0" style="stop-color:#E3342D"/>
					<stop  offset="1" style="stop-color:#BC0A26"/>
				</linearGradient>
				<rect x="32.83" y="-2.954" fill="url(#SVGID_12_)" width="13.901" height="13.9"/>
			</g>
			<g>
				<linearGradient id="SVGID_13_" gradientUnits="userSpaceOnUse" x1="36.7344" y1="12.4404" x2="42.8283" y2="29.1833">
					<stop  offset="0" style="stop-color:#E3342D"/>
					<stop  offset="1" style="stop-color:#BC0A26"/>
				</linearGradient>
				<rect x="32.83" y="13.861" fill="url(#SVGID_13_)" width="13.901" height="13.9"/>
			</g>
			<g>
				<linearGradient id="SVGID_14_" gradientUnits="userSpaceOnUse" x1="36.7334" y1="29.2559" x2="42.8276" y2="45.9996">
					<stop  offset="0" style="stop-color:#E3342D"/>
					<stop  offset="1" style="stop-color:#BC0A26"/>
				</linearGradient>
				<rect x="32.83" y="30.677" fill="url(#SVGID_14_)" width="13.901" height="13.902"/>
			</g>
			<g>
				<linearGradient id="SVGID_15_" gradientUnits="userSpaceOnUse" x1="36.7344" y1="46.0732" x2="42.8279" y2="62.8152">
					<stop  offset="0" style="stop-color:#E3342D"/>
					<stop  offset="1" style="stop-color:#BC0A26"/>
				</linearGradient>
				<rect x="32.83" y="47.493" fill="url(#SVGID_15_)" width="13.901" height="13.9"/>
			</g>
			<g>
				<linearGradient id="SVGID_16_" gradientUnits="userSpaceOnUse" x1="55.3438" y1="0.127" x2="61.4373" y2="16.8689">
					<stop  offset="0" style="stop-color:#E3342D"/>
					<stop  offset="1" style="stop-color:#BC0A26"/>
				</linearGradient>
				<rect x="51.439" y="1.548" fill="url(#SVGID_16_)" width="13.9" height="13.9"/>
			</g>
			<g>
				<linearGradient id="SVGID_17_" gradientUnits="userSpaceOnUse" x1="55.3428" y1="16.9434" x2="61.4367" y2="33.6862">
					<stop  offset="0" style="stop-color:#E3342D"/>
					<stop  offset="1" style="stop-color:#BC0A26"/>
				</linearGradient>
				<rect x="51.439" y="18.363" fill="url(#SVGID_17_)" width="13.9" height="13.901"/>
			</g>
			<g>
				<linearGradient id="SVGID_18_" gradientUnits="userSpaceOnUse" x1="55.3428" y1="33.7578" x2="61.4367" y2="50.5007">
					<stop  offset="0" style="stop-color:#E3342D"/>
					<stop  offset="1" style="stop-color:#BC0A26"/>
				</linearGradient>
				<rect x="51.439" y="35.179" fill="url(#SVGID_18_)" width="13.9" height="13.901"/>
			</g>
			<g>
				<linearGradient id="SVGID_19_" gradientUnits="userSpaceOnUse" x1="55.3438" y1="50.5742" x2="61.4373" y2="67.3162">
					<stop  offset="0" style="stop-color:#E3342D"/>
					<stop  offset="1" style="stop-color:#BC0A26"/>
				</linearGradient>
				<rect x="51.439" y="51.995" fill="url(#SVGID_19_)" width="13.9" height="13.9"/>
			</g>
		</g>
	</g>
</g>
</svg>
