<?xml version="1.0" encoding="utf-8"?>
<!-- Generator: Adobe Illustrator 16.0.4, SVG Export Plug-In . SVG Version: 6.00 Build 0)  -->
<!DOCTYPE svg PUBLIC "-//W3C//DTD SVG 1.1//EN" "http://www.w3.org/Graphics/SVG/1.1/DTD/svg11.dtd">
<svg version="1.1" id="Ebene_1" xmlns="http://www.w3.org/2000/svg" xmlns:xlink="http://www.w3.org/1999/xlink" x="0px" y="0px"
	 width="64px" height="64px" viewBox="0 0 64 64" enable-background="new 0 0 64 64" xml:space="preserve">
<g>
	<path fill="#C6C6C6" d="M63.615,61.764H7.076c0,0,1.99-4.789,1.99-40.717c11.524,0,37.481,0,52.557,0
		C61.623,57.475,63.615,61.764,63.615,61.764z"/>
	<path fill="#A5A4A4" d="M64,62.009H6.708l0.141-0.34c0.02-0.048,1.973-5.327,1.973-40.622v-0.246h53.048v0.246
		c0,35.958,1.949,40.57,1.969,40.612L64,62.009z M7.409,61.518h55.867c-0.434-1.537-1.891-9.033-1.898-40.226H9.312
		C9.305,52.284,7.828,59.965,7.409,61.518z"/>
</g>
<g>
	<path fill="#C6C6C6" d="M62.95,63.09H7.74c0,0,1.326-6.115,1.326-42.043c11.524,0,37.481,0,52.557,0
		C61.623,57.475,62.95,63.09,62.95,63.09z"/>
	<path fill="#A5A4A4" d="M63.262,63.335H7.437l0.064-0.298c0.014-0.062,1.32-6.568,1.32-41.99v-0.246h53.048v0.246
		c0,35.983,1.307,41.93,1.32,41.985L63.262,63.335z M8.034,62.844h54.62c-0.259-1.538-1.271-9.61-1.276-41.552H9.312
		C9.307,52.958,8.284,61.279,8.034,62.844z"/>
</g>
<g>
	<polygon fill="#C6C6C6" points="62.287,63.755 8.403,63.755 9.731,23.701 60.96,23.701 	"/>
	<path fill="#A5A4A4" d="M62.541,64H8.148l0.009-0.253l1.337-40.292h51.703l0.008,0.238L62.541,64z M8.657,63.509h53.375
		l-1.312-39.562H9.97L8.657,63.509z"/>
</g>
<g>
	<g>
		<polygon fill="#C6C6C6" points="61.623,63.09 9.066,63.09 9.731,23.037 60.96,23.037 		"/>
		<path fill="#A5A4A4" d="M61.873,63.335H8.817l0.004-0.249L9.49,22.792h51.711L61.873,63.335z M9.316,62.844h52.058l-0.656-39.561
			H9.974L9.316,62.844z"/>
	</g>
	<g>
		<polygon fill="#C6C6C6" points="61.623,62.427 9.731,62.427 9.731,23.037 60.96,23.037 		"/>
		<path fill="#A5A4A4" d="M61.873,62.673H9.486V22.792h51.715l0.004,0.241L61.873,62.673z M9.977,62.182h51.397l-0.656-38.898H9.977
			V62.182z"/>
	</g>
	<g>
		<polygon fill="#C6C6C6" points="60.96,61.764 9.066,61.764 9.731,21.711 60.96,21.711 		"/>
		<path fill="#A5A4A4" d="M61.205,62.009H8.817l0.004-0.249L9.49,21.466h51.715V62.009z M9.316,61.518h51.397V21.957H9.974
			L9.316,61.518z"/>
	</g>
	<g>
		<linearGradient id="SVGID_1_" gradientUnits="userSpaceOnUse" x1="35.3447" y1="21.0469" x2="35.3447" y2="61.0977">
			<stop  offset="0.4877" style="stop-color:#FFFFFF"/>
			<stop  offset="1" style="stop-color:#EEEEEE"/>
		</linearGradient>
		<rect x="9.066" y="21.047" fill="url(#SVGID_1_)" width="52.557" height="40.051"/>
		<path fill="#A5A4A4" d="M61.991,61.467H8.698V20.678h53.293V61.467z M9.436,60.729h51.819V21.415H9.436V60.729z"/>
	</g>
	<g>
		<polygon fill="#A42423" points="61.693,22.676 9.028,22.676 8.46,21.489 62.231,21.489 		"/>
		<path fill="#801D18" d="M61.693,22.922H9.028c-0.096,0-0.182-0.055-0.223-0.14l-0.568-1.188c-0.036-0.075-0.03-0.165,0.014-0.236
			c0.045-0.072,0.124-0.115,0.209-0.115h53.771c0.084,0,0.161,0.042,0.206,0.112s0.052,0.159,0.018,0.235l-0.539,1.188
			C61.878,22.865,61.789,22.922,61.693,22.922z M9.182,22.431h52.353l0.316-0.696H8.849L9.182,22.431z"/>
	</g>
	<g>
		<linearGradient id="SVGID_2_" gradientUnits="userSpaceOnUse" x1="8.46" y1="13.1914" x2="62.2314" y2="13.1914">
			<stop  offset="0" style="stop-color:#E30613"/>
			<stop  offset="1" style="stop-color:#BE1622"/>
		</linearGradient>
		<rect x="8.46" y="4.893" fill="url(#SVGID_2_)" width="53.771" height="16.597"/>
		<path fill="#801D18" d="M62.231,21.734H8.46c-0.136,0-0.246-0.11-0.246-0.245V4.893c0-0.135,0.11-0.245,0.246-0.245h53.771
			c0.136,0,0.245,0.11,0.245,0.245v16.597C62.477,21.624,62.367,21.734,62.231,21.734z M8.705,21.243h53.28V5.139H8.705V21.243z"/>
	</g>
	<g>
		<path fill="#801D18" d="M54.392,5.844c0,3.186-1.091,4.439-1.617,4.439c-0.529,0-0.955-1.254-0.955-4.439
			c0-0.324,0.003-0.643,0.012-0.953c0.817,0,1.73-0.004,2.548-0.004C54.388,5.198,54.392,5.518,54.392,5.844z"/>
		<path fill="#801D18" d="M52.774,10.529c-0.808,0-1.2-1.532-1.2-4.686c0-0.326,0.003-0.647,0.012-0.96l0.007-0.238l3.024-0.004
			l0.007,0.238c0.009,0.313,0.013,0.636,0.013,0.964C54.637,9.04,53.526,10.529,52.774,10.529z M52.071,5.137
			c-0.004,0.23-0.006,0.468-0.006,0.707c0,3.44,0.512,4.193,0.709,4.193c0.291,0,1.371-1.048,1.371-4.193
			c0-0.241-0.002-0.479-0.007-0.711L52.071,5.137z"/>
	</g>
	<g>
		<rect x="50.353" y="10.838" fill="#3C3C3B" width="2.988" height="1.549"/>
		<path fill="#1D1D1B" d="M53.586,12.633h-3.479v-2.041h3.479V12.633z M50.599,12.142h2.496v-1.059h-2.496V12.142z"/>
	</g>
	<g>
		<linearGradient id="SVGID_3_" gradientUnits="userSpaceOnUse" x1="51.8301" y1="11.5312" x2="51.8301" y2="0.2451">
			<stop  offset="0" style="stop-color:#6F6F6F"/>
			<stop  offset="0.3793" style="stop-color:#CCCCCB"/>
			<stop  offset="1" style="stop-color:#3C3C3B"/>
		</linearGradient>
		<rect x="50.835" y="0.245" fill="url(#SVGID_3_)" width="1.991" height="11.286"/>
		<path fill="#6F6F6F" d="M53.072,11.777H50.59V0h2.482V11.777z M51.081,11.285h1.5V0.491h-1.5V11.285z"/>
	</g>
	<g>
		<path fill="#801D18" d="M21.862,5.844c0,3.186-1.092,4.439-1.618,4.439c-0.527,0-0.955-1.254-0.955-4.439
			c0-0.324,0.005-0.643,0.013-0.953c0.818,0,1.73-0.004,2.547-0.004C21.857,5.198,21.862,5.518,21.862,5.844z"/>
		<path fill="#801D18" d="M20.244,10.529c-0.808,0-1.2-1.532-1.2-4.686c0-0.326,0.005-0.646,0.013-0.959l0.006-0.239l3.025-0.004
			l0.007,0.238c0.008,0.313,0.013,0.636,0.013,0.964C22.107,9.04,20.996,10.529,20.244,10.529z M19.542,5.137
			c-0.004,0.23-0.007,0.468-0.007,0.707c0,3.44,0.512,4.193,0.709,4.193c0.291,0,1.372-1.048,1.372-4.193
			c0-0.241-0.003-0.479-0.008-0.711L19.542,5.137z"/>
	</g>
	<g>
		<rect x="17.769" y="10.838" fill="#3C3C3B" width="2.986" height="1.549"/>
		<path fill="#1D1D1B" d="M21.001,12.633h-3.479v-2.041h3.479V12.633z M18.014,12.142h2.496v-1.059h-2.496V12.142z"/>
	</g>
	<g>
		<linearGradient id="SVGID_4_" gradientUnits="userSpaceOnUse" x1="19.3027" y1="11.5312" x2="19.3027" y2="0.2451">
			<stop  offset="0" style="stop-color:#6F6F6F"/>
			<stop  offset="0.3793" style="stop-color:#CCCCCB"/>
			<stop  offset="1" style="stop-color:#3C3C3B"/>
		</linearGradient>
		<rect x="18.307" y="0.245" fill="url(#SVGID_4_)" width="1.991" height="11.286"/>
		<path fill="#6F6F6F" d="M20.544,11.777h-2.483V0h2.483V11.777z M18.552,11.285h1.501V0.491h-1.501V11.285z"/>
	</g>
</g>
<rect x="20.004" y="32.081" fill="#9D9D9C" width="0.491" height="25.264"/>
<rect x="27.537" y="32.081" fill="#9D9D9C" width="0.492" height="25.264"/>
<rect x="35.073" y="32.081" fill="#9D9D9C" width="0.491" height="25.264"/>
<rect x="42.608" y="32.081" fill="#9D9D9C" width="0.491" height="25.264"/>
<rect x="50.143" y="32.081" fill="#9D9D9C" width="0.491" height="25.264"/>
<rect x="13.252" y="35.951" fill="#9D9D9C" width="44.007" height="0.491"/>
<rect x="13.252" y="40.21" fill="#9D9D9C" width="44.007" height="0.491"/>
<rect x="13.252" y="44.468" fill="#9D9D9C" width="44.007" height="0.491"/>
<rect x="13.252" y="48.725" fill="#9D9D9C" width="44.007" height="0.492"/>
<rect x="13.252" y="52.983" fill="#9D9D9C" width="44.007" height="0.491"/>
<path fill="#9D9D9C" d="M57.298,57.592H13.133V31.835h44.165V57.592z M13.624,57.1h43.184V32.326H13.624V57.1z"/>
<g>
	<path fill="#6F6F6F" d="M13.429,29.322c-0.115,0-0.212-0.013-0.297-0.037v-0.418c0.087,0.022,0.164,0.032,0.236,0.032
		c0.11,0,0.189-0.034,0.237-0.104c0.049-0.069,0.071-0.176,0.071-0.321V26.25h0.503v2.221c0,0.277-0.062,0.489-0.189,0.633
		C13.863,29.249,13.677,29.322,13.429,29.322z"/>
	<path fill="#6F6F6F" d="M16.229,28.623l-0.172-0.564h-0.865l-0.171,0.564h-0.543l0.838-2.383h0.615l0.842,2.383H16.229z
		 M15.938,27.636c-0.159-0.51-0.249-0.8-0.27-0.868c-0.02-0.066-0.034-0.118-0.044-0.158c-0.033,0.138-0.137,0.481-0.305,1.026
		H15.938z"/>
	<path fill="#6F6F6F" d="M19.177,28.623h-0.641l-1.032-1.795h-0.015c0.021,0.317,0.031,0.544,0.031,0.68v1.115h-0.449V26.25h0.635
		l1.029,1.778h0.013c-0.017-0.31-0.025-0.526-0.025-0.654V26.25h0.454V28.623z"/>
	<path fill="#6F6F6F" d="M21.705,26.25v1.535c0,0.177-0.04,0.329-0.117,0.461c-0.079,0.133-0.192,0.233-0.341,0.305
		c-0.148,0.07-0.323,0.104-0.526,0.104c-0.305,0-0.542-0.077-0.71-0.233c-0.169-0.156-0.254-0.371-0.254-0.643V26.25h0.503v1.453
		c0,0.183,0.035,0.318,0.109,0.401c0.074,0.086,0.196,0.129,0.365,0.129c0.165,0,0.284-0.043,0.359-0.13
		c0.072-0.084,0.109-0.22,0.109-0.403v-1.45H21.705z"/>
	<path fill="#6F6F6F" d="M23.739,28.623l-0.173-0.564h-0.864l-0.173,0.564h-0.541l0.837-2.383h0.615l0.841,2.383H23.739z
		 M23.447,27.636c-0.16-0.51-0.249-0.8-0.27-0.868c-0.021-0.066-0.034-0.118-0.042-0.158c-0.037,0.138-0.139,0.481-0.308,1.026
		H23.447z"/>
	<path fill="#6F6F6F" d="M25.084,27.713v0.91H24.58V26.25h0.692c0.322,0,0.561,0.059,0.714,0.176
		c0.156,0.118,0.233,0.296,0.233,0.536c0,0.14-0.039,0.263-0.115,0.372c-0.076,0.108-0.187,0.194-0.327,0.257
		c0.358,0.531,0.59,0.878,0.698,1.032h-0.56l-0.565-0.91H25.084z M25.084,27.304h0.162c0.158,0,0.276-0.025,0.351-0.08
		c0.076-0.054,0.115-0.135,0.115-0.25c0-0.112-0.039-0.192-0.117-0.24c-0.077-0.047-0.197-0.07-0.359-0.07h-0.151V27.304z"/>
	<path fill="#6F6F6F" d="M29.131,28.623h-1.658v-0.349l0.595-0.603c0.177-0.18,0.292-0.306,0.347-0.376s0.093-0.135,0.116-0.193
		c0.023-0.06,0.035-0.121,0.035-0.186c0-0.095-0.026-0.166-0.077-0.212c-0.053-0.047-0.124-0.068-0.21-0.068
		c-0.093,0-0.183,0.02-0.268,0.062c-0.088,0.042-0.178,0.102-0.272,0.181l-0.271-0.323c0.116-0.1,0.212-0.17,0.289-0.212
		c0.078-0.041,0.16-0.072,0.252-0.094c0.09-0.023,0.192-0.034,0.305-0.034c0.149,0,0.28,0.027,0.395,0.081
		c0.112,0.054,0.2,0.131,0.264,0.229c0.062,0.097,0.094,0.207,0.094,0.333c0,0.11-0.021,0.213-0.058,0.308
		c-0.037,0.097-0.099,0.194-0.178,0.296c-0.081,0.101-0.223,0.243-0.427,0.43l-0.307,0.287v0.023h1.035V28.623z"/>
	<path fill="#6F6F6F" d="M31.016,27.437c0,0.414-0.068,0.721-0.203,0.921c-0.137,0.198-0.346,0.298-0.628,0.298
		c-0.272,0-0.479-0.103-0.62-0.309c-0.139-0.205-0.208-0.508-0.208-0.91c0-0.418,0.068-0.728,0.202-0.925
		c0.137-0.2,0.346-0.299,0.626-0.299c0.273,0,0.48,0.104,0.621,0.312C30.945,26.732,31.016,27.036,31.016,27.437z M29.855,27.437
		c0,0.291,0.025,0.5,0.075,0.626s0.135,0.189,0.254,0.189c0.117,0,0.201-0.064,0.253-0.192c0.052-0.127,0.078-0.335,0.078-0.623
		c0-0.291-0.027-0.5-0.079-0.627c-0.053-0.128-0.136-0.19-0.252-0.19c-0.117,0-0.202,0.062-0.254,0.19
		C29.881,26.937,29.855,27.146,29.855,27.437z"/>
	<path fill="#6F6F6F" d="M32.927,28.623h-1.659v-0.349l0.595-0.603c0.177-0.18,0.293-0.306,0.347-0.376s0.093-0.135,0.116-0.193
		c0.023-0.06,0.036-0.121,0.036-0.186c0-0.095-0.026-0.166-0.079-0.212c-0.053-0.047-0.122-0.068-0.21-0.068
		c-0.093,0-0.181,0.02-0.269,0.062c-0.085,0.042-0.176,0.102-0.271,0.181l-0.271-0.323c0.116-0.1,0.213-0.17,0.29-0.212
		c0.077-0.041,0.162-0.072,0.252-0.094c0.091-0.023,0.192-0.034,0.306-0.034c0.147,0,0.279,0.027,0.393,0.081
		c0.114,0.054,0.202,0.131,0.265,0.229c0.062,0.097,0.094,0.207,0.094,0.333c0,0.11-0.018,0.213-0.058,0.308
		c-0.038,0.097-0.098,0.194-0.178,0.296c-0.082,0.101-0.224,0.243-0.426,0.43l-0.306,0.287v0.023h1.034V28.623z"/>
	<path fill="#6F6F6F" d="M34.405,28.623h-0.502V27.25l0.005-0.225l0.008-0.247c-0.083,0.083-0.141,0.138-0.174,0.163L33.47,27.16
		l-0.243-0.302l0.767-0.608h0.412V28.623z"/>
</g>
<g>
	
		<rect x="26.94" y="33.667" transform="matrix(0.9054 0.4245 -0.4245 0.9054 17.4496 -9.9987)" fill="#E30613" width="8.444" height="0.983"/>
	
		<rect x="30.671" y="29.937" transform="matrix(0.4228 0.9062 -0.9062 0.4228 48.941 -8.5245)" fill="#E30613" width="0.984" height="8.444"/>
</g>
<g>
	
		<rect x="19.627" y="46.632" transform="matrix(0.9055 0.4244 -0.4244 0.9055 22.2537 -5.6675)" fill="#E30613" width="8.445" height="0.983"/>
	
		<rect x="23.358" y="42.901" transform="matrix(0.4228 0.9062 -0.9062 0.4228 56.4686 5.5852)" fill="#E30613" width="0.984" height="8.444"/>
</g>
<g>
	
		<rect x="12.315" y="46.632" transform="matrix(0.9055 0.4244 -0.4244 0.9055 21.5624 -2.564)" fill="#E30613" width="8.445" height="0.983"/>
	
		<rect x="16.045" y="42.901" transform="matrix(0.4228 0.9062 -0.9062 0.4228 52.248 12.2119)" fill="#E30613" width="0.984" height="8.444"/>
</g>
<g>
	
		<rect x="42.565" y="41.978" transform="matrix(0.9054 0.4245 -0.4245 0.9054 22.4558 -15.8461)" fill="#E30613" width="8.444" height="0.983"/>
	
		<rect x="46.296" y="38.247" transform="matrix(0.4232 0.906 -0.906 0.4232 65.465 -17.8952)" fill="#E30613" width="0.983" height="8.444"/>
</g>
</svg>
