<?xml version="1.0" encoding="utf-8"?>
<!-- Generator: Adobe Illustrator 16.0.4, SVG Export Plug-In . SVG Version: 6.00 Build 0)  -->
<!DOCTYPE svg PUBLIC "-//W3C//DTD SVG 1.1//EN" "http://www.w3.org/Graphics/SVG/1.1/DTD/svg11.dtd">
<svg version="1.1" id="Ebene_1" xmlns="http://www.w3.org/2000/svg" xmlns:xlink="http://www.w3.org/1999/xlink" x="0px" y="0px"
	 width="64px" height="64px" viewBox="0 0 64 64" enable-background="new 0 0 64 64" xml:space="preserve">
<g>
	<g>
		<g>
			<linearGradient id="SVGID_1_" gradientUnits="userSpaceOnUse" x1="0" y1="27.4736" x2="9.1816" y2="27.4736">
				<stop  offset="0" style="stop-color:#CBCCCE"/>
				<stop  offset="1" style="stop-color:#A4A5A7"/>
			</linearGradient>
			<path fill="url(#SVGID_1_)" d="M5.714,23.305l3.468-1.877l-0.017-0.064c-1.497,0.039-2.947,0.233-4.279,0.7L2.78,23.102
				c-0.289,0.194-0.564,0.416-0.831,0.646c-3.989,4.442-0.621,9.836-0.621,9.836c-0.525-4.059,1.506-6.223,1.506-6.223l2.88,1.547
				V23.305z"/>
			<g>
				<linearGradient id="SVGID_2_" gradientUnits="userSpaceOnUse" x1="5.7139" y1="20.3574" x2="58.8564" y2="20.3574">
					<stop  offset="0" style="stop-color:#FFFFFF"/>
					<stop  offset="1" style="stop-color:#DCDDDE"/>
				</linearGradient>
				<polygon fill="url(#SVGID_2_)" points="9.645,23.305 58.856,23.305 46.289,17.41 23.39,17.41 9.182,21.428 5.714,23.305 				"/>
				<path fill="#9D9D9C" d="M58.856,23.682H5.714l-0.182-0.71l3.548-1.902l14.31-4.034h22.99l12.647,5.931L58.856,23.682z
					 M7.201,22.928h49.966l-10.953-5.141H23.439L9.326,21.78L7.201,22.928z"/>
			</g>
			<g>
				<linearGradient id="SVGID_3_" gradientUnits="userSpaceOnUse" x1="32.2852" y1="23.4375" x2="32.2852" y2="32.9893">
					<stop  offset="0" style="stop-color:#FFFFFF"/>
					<stop  offset="1" style="stop-color:#DCDDDE"/>
				</linearGradient>
				<polygon fill="url(#SVGID_3_)" points="5.714,23.438 5.714,28.908 5.714,32.989 58.856,32.989 58.856,23.438 9.674,23.438 				
					"/>
				<path fill="#9D9D9C" d="M59.233,33.365H5.338V23.061h53.896V33.365z M6.091,32.612h52.389v-8.799H6.091V32.612z"/>
			</g>
		</g>
		<polygon fill="#E4031B" points="37.422,23.57 27.868,23.57 28.396,21.796 36.903,21.796 		"/>
		<rect x="27.868" y="23.403" fill="#E4031B" width="9.554" height="9.623"/>
		<g>
			<linearGradient id="SVGID_4_" gradientUnits="userSpaceOnUse" x1="32.1562" y1="63.623" x2="32.1562" y2="32.9893">
				<stop  offset="0" style="stop-color:#FFFFFF"/>
				<stop  offset="1" style="stop-color:#DCDDDE"/>
			</linearGradient>
			<rect x="6.498" y="32.989" fill="url(#SVGID_4_)" width="51.317" height="30.634"/>
			<path fill="#9D9D9C" d="M58.192,64H6.122V32.612h52.07V64z M6.875,63.246h50.563V33.365H6.875V63.246z"/>
		</g>
		<rect x="27.604" y="33.026" fill="#E4031B" width="9.555" height="30.505"/>
		<path fill="none" d="M22.299,6.3c0.016,0.715,0.436,1.762,0.613,2.168c0.841,0.658,1.498,1.408,1.956,2.137
			c0.08,0.123,0.163,0.256,0.266,0.401C24.685,8.166,23.54,6.847,22.299,6.3z"/>
		<path fill="none" d="M22.456,8.132c-1.679-1.409-3.797-1.562-4.313-1.583C19.822,6.714,21.281,7.324,22.456,8.132z"/>
		<path fill="none" d="M13.505,13.796c0.053,0.069,0.104,0.141,0.158,0.217c2.258,3.104,7.69,3.011,7.69,3.011l0.747,0.418
			c-1.507-1.222-3.145-2.474-4.607-2.955C16.15,14.046,14.881,13.795,13.505,13.796z"/>
		<linearGradient id="SVGID_5_" gradientUnits="userSpaceOnUse" x1="18.0361" y1="7.2148" x2="22.9121" y2="7.2148">
			<stop  offset="0" style="stop-color:#CBCCCE"/>
			<stop  offset="1" style="stop-color:#A4A5A7"/>
		</linearGradient>
		<path fill="url(#SVGID_5_)" d="M18.036,6.535c0.041,0.003,0.068,0.012,0.106,0.014c0.517,0.021,2.635,0.174,4.313,1.583
			c0.154,0.105,0.312,0.219,0.456,0.336c-0.178-0.406-0.598-1.453-0.613-2.168C20.403,5.464,18.271,6.426,18.036,6.535z"/>
		<path fill="#A42423" d="M18.036,6.535c0.234-0.109,2.367-1.071,4.263-0.235c1.241,0.547,2.386,1.866,2.835,4.706
			c1.29,1.889,1.686,5.323,2.345,6.084h0.016c-0.338-0.575-0.965-1.877-0.965-3.605c0-2.352,1.696-4.579,1.696-7.46
			c0-2.879,0-4.712-2.22-4.712c-2.227,0-2.748,1.833-4.587,3.012c-1.822,1.167-3.253,1.564-3.396,2.209
			C18.029,6.533,18.032,6.534,18.036,6.535z"/>
		<path fill="#FFEE00" d="M10.47,14.185c0.171-0.271,0.316-0.587,0.452-0.926C10.611,13.684,10.47,14.185,10.47,14.185z"/>
		<linearGradient id="SVGID_6_" gradientUnits="userSpaceOnUse" x1="9.6006" y1="17.2598" x2="27.2178" y2="17.2598">
			<stop  offset="0" style="stop-color:#CBCCCE"/>
			<stop  offset="1" style="stop-color:#A4A5A7"/>
		</linearGradient>
		<path fill="url(#SVGID_6_)" d="M27.218,20.724c-0.993-0.388-2.024-0.88-2.784-1.437c-0.704-0.509-1.493-1.177-2.333-1.846
			l-0.747-0.418c0,0-5.433,0.094-7.69-3.011c-0.055-0.076-0.105-0.147-0.158-0.217c-0.943,0.001-1.932,0.119-3.035,0.389
			c-0.832,1.362-1.536,3.29,0.222,4.806c0.381-0.032,0.768-0.062,1.173-0.073C16.617,18.797,22.977,19.873,27.218,20.724z"/>
		<path fill="#FFEE00" d="M27.593,21.996c0.003,0,0.014,0,0.023-0.001L27.593,21.996C27.594,21.996,27.593,21.996,27.593,21.996z"/>
		<path fill="#E4031B" d="M27.381,21.995v-0.331c-0.476-0.132,1.024-0.46-0.163-0.94c-4.241-0.851-10.601-1.927-15.354-1.807
			c-0.405,0.011-0.792,0.041-1.173,0.073c-6.892,0.661-9.363,5.357-9.363,5.357c0.2-0.209,0.404-0.409,0.621-0.6
			c0.267-0.23,0.542-0.452,0.831-0.646c0.652-0.442,1.36-0.78,2.105-1.038c1.332-0.467,2.782-0.661,4.279-0.7
			c3.351-0.082,6.907,0.646,9.771,1.027c4.061,0.534,6.238-0.032,8.657-0.395c0,0,0.001,0,0.001-0.001H27.381z"/>
		<linearGradient id="SVGID_7_" gradientUnits="userSpaceOnUse" x1="10.4697" y1="14.1191" x2="27.6875" y2="14.1191">
			<stop  offset="0" style="stop-color:#E4031B"/>
			<stop  offset="1" style="stop-color:#C4072B"/>
		</linearGradient>
		<path fill="url(#SVGID_7_)" d="M17.493,14.486c1.463,0.481,3.101,1.733,4.607,2.955c0.84,0.669,1.629,1.337,2.333,1.846
			c0.76,0.557,1.791,1.049,2.784,1.437c1.188,0.48-0.312,0.809,0.163,0.94c0.149,0.048,0.235,0.066,0.235,0.066s0-3.49,0-4.491
			c0,0-0.044-0.057-0.138-0.149c-0.659-0.761-1.055-4.195-2.345-6.084c-0.103-0.146-0.186-0.278-0.266-0.401
			c-0.458-0.729-1.115-1.479-1.956-2.137c-0.144-0.117-0.302-0.23-0.456-0.336c-1.175-0.808-2.634-1.418-4.313-1.583
			c-0.038-0.002-0.065-0.011-0.106-0.014c-0.004-0.001-0.007-0.002-0.014-0.002c-0.218-0.015-0.435-0.025-0.661-0.025
			c-3.577-0.045-5.497,2.484-5.497,2.484s-0.244,2.481-0.942,4.267c-0.136,0.339-0.281,0.654-0.452,0.926
			c1.104-0.27,2.092-0.388,3.035-0.389C14.881,13.795,16.15,14.046,17.493,14.486z"/>
		<linearGradient id="SVGID_8_" gradientUnits="userSpaceOnUse" x1="45.2012" y1="7.2148" x2="50.0762" y2="7.2148">
			<stop  offset="0" style="stop-color:#CBCCCE"/>
			<stop  offset="1" style="stop-color:#A4A5A7"/>
		</linearGradient>
		<path fill="url(#SVGID_8_)" d="M50.076,6.535c-0.044,0.003-0.069,0.012-0.108,0.014c-0.514,0.021-2.629,0.174-4.312,1.583
			c-0.157,0.105-0.312,0.219-0.454,0.336c0.174-0.406,0.594-1.453,0.61-2.168C47.714,5.464,49.843,6.426,50.076,6.535z"/>
		<path fill="#A42423" d="M50.076,6.535c-0.233-0.109-2.362-1.071-4.265-0.235c-1.24,0.547-2.386,1.866-2.836,4.706
			c-1.291,1.889-4.299,5.323-4.961,6.084h-0.017c0.341-0.575,0.97-1.877,0.97-3.605c0-2.352-1.698-4.579-1.698-7.46
			c0-2.879,2.617-4.712,4.835-4.712c2.233,0,2.747,1.833,4.587,3.012c1.825,1.167,3.254,1.564,3.401,2.209
			C50.09,6.533,50.086,6.534,50.076,6.535z"/>
		<g>
			<path fill="none" d="M53.845,19.193c-0.709,0.162-1.441,0.388-2.202,0.642L53.845,19.193z"/>
			<path fill="none" d="M55.967,18.917c-0.25,0.002-0.501,0.024-0.751,0.048C55.432,18.944,55.682,18.926,55.967,18.917z"/>
			<path fill="#E4031B" d="M64,22.193c-1.965-2.297-4.531-3.04-6.548-3.226c-0.012,0.005-0.02,0.015-0.034,0.022
				c-0.381-0.032-0.763-0.062-1.173-0.073c-0.091-0.003-0.191,0-0.278,0c-0.285,0.009-0.535,0.027-0.751,0.048
				c-0.453,0.045-0.91,0.125-1.371,0.229l-2.202,0.642c-1.757,0.58-3.674,1.312-5.925,1.771c0.862,0.039,4.755,0.176,9.376,0.059
				c5.247-0.131,7.398,5.043,7.398,5.043l-0.843-4.713L64,22.193z"/>
			<linearGradient id="SVGID_9_" gradientUnits="userSpaceOnUse" x1="37.7568" y1="17.9297" x2="58.5088" y2="17.9297">
				<stop  offset="0" style="stop-color:#CBCCCE"/>
				<stop  offset="1" style="stop-color:#A4A5A7"/>
			</linearGradient>
			<path fill="url(#SVGID_9_)" d="M53.845,19.193c0.461-0.104,0.918-0.184,1.371-0.229c0.25-0.023,0.501-0.046,0.751-0.048
				c0.087,0,0.188-0.003,0.278,0c0.41,0.011,0.792,0.041,1.173,0.073c0.015-0.008,0.022-0.018,0.034-0.022
				c1.711-1.51,1.017-3.425,0.197-4.783c-1.114-0.27-2.103-0.388-3.046-0.389c-0.05,0.069-0.101,0.141-0.153,0.217
				c-2.263,3.104-7.693,3.011-7.693,3.011l-0.744,0.418c-0.842,0.669-1.632,1.337-2.335,1.846c-0.762,0.557-4.938,2.1-5.921,2.491
				c3.119,0.489,5.711,0.298,7.961-0.172c2.251-0.459,4.168-1.191,5.925-1.771C52.403,19.581,53.136,19.355,53.845,19.193z"/>
		</g>
		<path fill="#E4031B" d="M50.615,14.486c-1.46,0.481-3.093,1.733-4.603,2.955c-0.842,0.669-1.632,1.337-2.335,1.846
			c-0.762,0.557-1.791,1.049-2.778,1.437c-1.188,0.48-2.308,0.809-2.786,0.94c-0.148,0.048-0.235,0.066-0.235,0.066s0-3.49,0-4.491
			c0,0,0.045-0.057,0.137-0.149c0.662-0.761,3.67-4.195,4.961-6.084c0.11-0.146,0.186-0.278,0.266-0.401
			c0.462-0.729,1.115-1.479,1.96-2.137c0.142-0.117,0.297-0.23,0.454-0.336c1.181-0.808,2.633-1.418,4.312-1.583
			c0.039-0.002,0.064-0.011,0.108-0.014c0.01-0.001,0.014-0.002,0.017-0.002c0.212-0.015,0.436-0.025,0.655-0.025
			c3.582-0.045,5.497,2.484,5.497,2.484s0.245,2.481,0.945,4.267c0.137,0.339,0.278,0.654,0.459,0.926
			c-1.114-0.27-2.103-0.388-3.046-0.389C53.229,13.795,51.967,14.046,50.615,14.486z"/>
		<path fill="#A42423" d="M27.494,17.09h-0.016c0.094,0.093,0.138,0.149,0.138,0.149c0,1.001,0,4.491,0,4.491
			s-0.086-0.019-0.235-0.066v0.331h0.213h0.022h10.296V17.09H27.494z"/>
	</g>
</g>
</svg>
