<?xml version="1.0" encoding="utf-8"?>
<!-- Generator: Adobe Illustrator 16.0.4, SVG Export Plug-In . SVG Version: 6.00 Build 0)  -->
<!DOCTYPE svg PUBLIC "-//W3C//DTD SVG 1.1//EN" "http://www.w3.org/Graphics/SVG/1.1/DTD/svg11.dtd">
<svg version="1.1" id="Ebene_1" xmlns="http://www.w3.org/2000/svg" xmlns:xlink="http://www.w3.org/1999/xlink" x="0px" y="0px"
	 width="64px" height="64px" viewBox="0 0 64 64" enable-background="new 0 0 64 64" xml:space="preserve">
<g>
	<g>
		<g id="Datei_1_">
			<g>
				<path fill="#C6C6C6" d="M63.055,61.892H10.294c0,0,1.858-10.248,1.858-43.777c10.752,0,34.356,0,48.425,0
					C60.577,52.107,63.055,61.892,63.055,61.892z"/>
				<path fill="#A5A4A4" d="M63.055,62.142H9.995l0.053-0.295c0.019-0.103,1.854-10.628,1.854-43.732v-0.25h48.925v0.25
					c0,33.546,2.445,43.618,2.47,43.716l0.079,0.312H63.055z M10.587,61.642h52.156c-0.4-1.917-2.405-13.032-2.416-43.277H12.402
					C12.394,48.34,10.877,59.741,10.587,61.642z"/>
			</g>
			<g>
				<path fill="#C6C6C6" d="M62.435,63.132H10.914c0,0,1.238-11.488,1.238-45.018c10.752,0,34.356,0,48.425,0
					C60.577,52.107,62.435,63.132,62.435,63.132z"/>
				<path fill="#A5A4A4" d="M62.435,63.382H10.636l0.029-0.276c0.013-0.115,1.237-11.868,1.237-44.991v-0.25h48.925v0.25
					c0,33.569,1.835,44.866,1.854,44.976l0.05,0.292H62.435z M11.189,62.882h50.955c-0.28-1.956-1.809-14.006-1.817-44.518H12.402
					C12.396,48.582,11.37,60.94,11.189,62.882z"/>
			</g>
			<g>
				<polygon fill="#C6C6C6" points="61.816,63.75 11.534,63.75 12.771,20.592 60.577,20.592 				"/>
				<path fill="#A5A4A4" d="M62.072,64H11.277l0.007-0.257l1.244-43.401H60.82L62.072,64z M11.791,63.5H61.56l-1.226-42.658H13.015
					L11.791,63.5z"/>
			</g>
			<g>
				<path fill="#C6C6C6" d="M25.125,10.238l38.549-5.752c0,0-2.478,10.661-2.478,44.19c-10.753,0-34.357,0-48.425,0
					C12.771,14.68,25.125,10.238,25.125,10.238z"/>
				<path fill="#A5A4A4" d="M61.446,48.927H12.521v-0.25c0-33.784,12.008-38.49,12.519-38.674L64,4.185l-0.083,0.358
					c-0.024,0.106-2.471,11.038-2.471,44.134V48.927z M13.021,48.427h47.925c0.011-29.733,2.001-41.527,2.411-43.641l-38.195,5.699
					C25.089,10.518,13.082,15.283,13.021,48.427z"/>
			</g>
			<g>
				<linearGradient id="SVGID_1_" gradientUnits="userSpaceOnUse" x1="11.5342" y1="25.9619" x2="62.4346" y2="25.9619">
					<stop  offset="0" style="stop-color:#FFFFFF"/>
					<stop  offset="1" style="stop-color:#F5F5F6"/>
				</linearGradient>
				<path fill="url(#SVGID_1_)" d="M24.505,12.718l37.93-9.471c0,0-1.238,11.9-1.238,45.43c-10.753,0-35.595,0-49.662,0
					C11.534,14.68,24.505,12.718,24.505,12.718z"/>
				<path fill="#9D9D9C" d="M61.446,48.927H11.284v-0.25c0-33.823,12.645-36.125,13.184-36.206L62.72,2.918l-0.036,0.355
					c-0.013,0.118-1.237,12.278-1.237,45.403V48.927z M11.784,48.427h49.162c0.006-29.894,1.011-42.645,1.206-44.852L24.565,12.96
					C24.416,12.984,11.848,15.337,11.784,48.427z"/>
			</g>
			<g>
				<g>
					<polygon fill="#C6C6C6" points="11.435,16.022 27.061,0.25 61.196,0.354 60.577,43.927 12.771,43.927 					"/>
					<path fill="#A5A4A4" d="M60.823,44.176h-48.29l-0.012-0.237L11.18,15.925l0.077-0.078L26.957,0h0.104L61.45,0.105l-0.004,0.253
						L60.823,44.176z M13.01,43.677h47.321l0.611-43.073L27.164,0.5L11.689,16.12L13.01,43.677z"/>
				</g>
				<g>
					<polygon fill="#C6C6C6" points="12.271,15.195 26.983,0.948 60.577,0.975 60.577,43.927 12.771,43.927 					"/>
					<path fill="#A5A4A4" d="M60.827,44.176H12.525l-0.004-0.245l-0.503-28.84l0.078-0.075L26.882,0.698l33.945,0.026V44.176z
						 M13.018,43.677h47.31V1.225L27.085,1.198L12.522,15.3L13.018,43.677z"/>
				</g>
				<g>
					<polygon fill="#C6C6C6" points="12.771,14.808 25.977,1.594 61.196,1.594 60.577,45.166 13.392,45.166 					"/>
					<path fill="#A5A4A4" d="M60.823,45.416H13.146l-0.627-30.71L25.873,1.344H61.45l-0.004,0.254L60.823,45.416z M13.637,44.916
						h46.694l0.611-43.072H26.08L13.023,14.909L13.637,44.916z"/>
				</g>
			</g>
			<g>
				<g>
					<polygon fill="#C6C6C6" points="61.299,63.132 12.256,63.132 12.876,26.168 60.68,26.168 					"/>
					<path fill="#A5A4A4" d="M61.553,63.382H12.002l0.004-0.254l0.624-37.21h48.296l0.004,0.246L61.553,63.382z M12.51,62.882
						h48.535l-0.611-36.464H13.122L12.51,62.882z"/>
				</g>
				<g>
					<polygon fill="#C6C6C6" points="61.299,62.511 12.876,62.511 12.876,26.168 60.68,26.168 					"/>
					<path fill="#A5A4A4" d="M61.553,62.761H12.626V25.918h48.3l0.004,0.246L61.553,62.761z M13.126,62.261h47.919l-0.611-35.843
						H13.126V62.261z"/>
				</g>
				<g>
					<polygon fill="#C6C6C6" points="60.68,61.892 12.256,61.892 12.876,24.929 60.68,24.929 					"/>
					<path fill="#A5A4A4" d="M60.93,62.142H12.002l0.004-0.254l0.624-37.209h48.3V62.142z M12.51,61.642h47.92V25.179H13.122
						L12.51,61.642z"/>
				</g>
			</g>
			<g>
				<g>
					<linearGradient id="SVGID_2_" gradientUnits="userSpaceOnUse" x1="25.999" y1="2.9746" x2="48.7938" y2="65.6027">
						<stop  offset="0" style="stop-color:#FFFFFF"/>
						<stop  offset="1" style="stop-color:#F5F5F6"/>
					</linearGradient>
					<polygon fill="url(#SVGID_2_)" points="61.098,2.377 27.644,2.377 11.847,18.176 11.847,61.125 61.098,61.125 					"/>
					<path fill="#9D9D9C" d="M61.598,61.625H11.347V17.969l16.09-16.092h34.161V61.625z M12.347,60.625h48.251V2.877H27.851
						L12.347,18.383V60.625z"/>
				</g>
			</g>
		</g>
		<g>
			<polygon fill="#C6C6C6" points="27.345,2.342 12.055,18.165 26.364,19.405 			"/>
			<path fill="#A5A4A4" d="M26.364,19.655c-0.007,0-0.015,0-0.021-0.001l-14.31-1.24c-0.096-0.008-0.179-0.071-0.213-0.161
				c-0.033-0.091-0.013-0.192,0.055-0.262l15.29-15.823c0.072-0.076,0.186-0.097,0.28-0.055c0.096,0.041,0.155,0.139,0.149,0.243
				l-0.98,17.063c-0.004,0.067-0.035,0.13-0.086,0.175C26.482,19.634,26.424,19.655,26.364,19.655z M12.6,17.961l13.53,1.173
				L27.057,3L12.6,17.961z"/>
		</g>
		<g>
			<polygon fill="#C6C6C6" points="27.138,0.948 12.374,16.486 25.538,17.727 			"/>
			<path fill="#A5A4A4" d="M25.538,17.977c-0.008,0-0.016,0-0.023-0.001l-13.164-1.24c-0.096-0.009-0.177-0.071-0.211-0.161
				c-0.033-0.09-0.013-0.19,0.053-0.26L26.956,0.776c0.073-0.078,0.188-0.1,0.285-0.056c0.097,0.044,0.155,0.146,0.146,0.251
				l-1.6,16.778C25.774,17.88,25.666,17.977,25.538,17.977z M12.909,16.286l12.403,1.168L26.82,1.646L12.909,16.286z"/>
		</g>
		<g>
			<linearGradient id="SVGID_3_" gradientUnits="userSpaceOnUse" x1="17.627" y1="3.9238" x2="22.6096" y2="17.6136">
				<stop  offset="0" style="stop-color:#FFFFFF"/>
				<stop  offset="1" style="stop-color:#EDEDED"/>
			</linearGradient>
			<polygon fill="url(#SVGID_3_)" points="26.983,0.519 11.435,16.022 26.983,16.022 			"/>
			<path fill="#9D9D9C" d="M26.983,16.397H11.435c-0.151,0-0.289-0.092-0.347-0.231c-0.058-0.141-0.025-0.302,0.082-0.409
				L26.719,0.253c0.106-0.107,0.27-0.138,0.408-0.081c0.141,0.059,0.231,0.195,0.231,0.347v15.504
				C27.358,16.229,27.19,16.397,26.983,16.397z M12.342,15.647h14.267V1.422L12.342,15.647z"/>
		</g>
	</g>
	<g>
		
			<linearGradient id="SVGID_4_" gradientUnits="userSpaceOnUse" x1="628.7646" y1="-757.7842" x2="650.6309" y2="-757.7842" gradientTransform="matrix(0 1 -1 0 -727.5371 -600.4297)">
			<stop  offset="0" style="stop-color:#4BAA48"/>
			<stop  offset="1" style="stop-color:#3C8E4B"/>
		</linearGradient>
		<polygon fill-rule="evenodd" clip-rule="evenodd" fill="url(#SVGID_4_)" points="40.533,39.268 30.891,28.335 19.961,28.335 
			30.724,39.268 19.961,50.201 30.891,50.201 		"/>
		<path fill="#296E32" d="M31.116,50.701h-12.35l11.256-11.434L18.767,27.836h12.35L41.2,39.268L31.116,50.701z M21.155,49.701h9.51
			l9.201-10.434l-9.201-10.433h-9.51l10.27,10.433L21.155,49.701z"/>
	</g>
	<g>
		
			<linearGradient id="SVGID_5_" gradientUnits="userSpaceOnUse" x1="2943.2324" y1="-237.1338" x2="2921.3672" y2="-237.1338" gradientTransform="matrix(0 -1 1 0 280.8984 2958.4961)">
			<stop  offset="0" style="stop-color:#03A7E5"/>
			<stop  offset="1" style="stop-color:#014A79"/>
		</linearGradient>
		<polygon fill-rule="evenodd" clip-rule="evenodd" fill="url(#SVGID_5_)" points="33.479,26.198 43.119,37.129 54.05,37.129 
			43.287,26.198 54.05,15.264 43.119,15.264 		"/>
		<path fill="#014A79" d="M55.244,37.629H42.894L32.812,26.198l10.082-11.435h12.35L43.988,26.198L55.244,37.629z M43.345,36.629
			h9.512L42.586,26.198l10.271-10.435h-9.513l-9.199,10.435L43.345,36.629z"/>
	</g>
</g>
</svg>
