<?xml version="1.0" encoding="utf-8"?>
<!-- Generator: Adobe Illustrator 16.0.4, SVG Export Plug-In . SVG Version: 6.00 Build 0)  -->
<!DOCTYPE svg PUBLIC "-//W3C//DTD SVG 1.1//EN" "http://www.w3.org/Graphics/SVG/1.1/DTD/svg11.dtd">
<svg version="1.1" id="Ebene_1" xmlns="http://www.w3.org/2000/svg" xmlns:xlink="http://www.w3.org/1999/xlink" x="0px" y="0px"
	 width="64px" height="64px" viewBox="0 0 64 64" enable-background="new 0 0 64 64" xml:space="preserve">
<g>
	<g>
		<g>
			<polygon fill="#6F6F6F" points="31.099,9.401 31.099,15.467 11.233,15.467 11.233,9.401 0.203,9.401 0.203,60.199 42.129,60.199 
				42.129,9.401 			"/>
			<path fill="#6A6A6A" d="M42.129,60.401H0.203L0,60.199V9.401l0.203-0.203h11.03l0.203,0.203v5.863h19.459V9.401l0.203-0.203
				h11.03l0.202,0.203v50.798L42.129,60.401z M0.405,59.996h41.521V9.604H31.301v5.863l-0.202,0.203H11.233l-0.202-0.203V9.604
				H0.405V59.996z"/>
		</g>
		<g>
			<linearGradient id="SVGID_1_" gradientUnits="userSpaceOnUse" x1="12.1914" y1="10.1084" x2="31.1374" y2="62.1622">
				<stop  offset="0" style="stop-color:#FFFFFF"/>
				<stop  offset="1" style="stop-color:#F5F5F5"/>
			</linearGradient>
			<path fill="url(#SVGID_1_)" d="M30.478,10.963v5.687H11.854v-5.687H9.841l-8.329,8.888c0,0,0,30.064,0,38.719
				c18.795,0,39.309,0.067,39.309,0.067V10.963H30.478z"/>
			<path fill="#9D9D9C" d="M41.124,58.941l-0.305-0.001c-0.205,0-20.728-0.066-39.308-0.066H1.207l0.001-39.145l8.501-9.07h2.449
				v5.686h18.016v-5.686h10.95V58.941z M1.815,58.266c17.261,0.001,36.089,0.058,38.7,0.066V11.267h-9.734v5.687h-19.23v-5.687
				H9.972l-8.155,8.704L1.815,58.266z"/>
		</g>
		<g>
			<linearGradient id="SVGID_2_" gradientUnits="userSpaceOnUse" x1="4.6016" y1="12.7959" x2="7.4302" y2="20.5676">
				<stop  offset="0" style="stop-color:#FFFFFF"/>
				<stop  offset="1" style="stop-color:#EDEDED"/>
			</linearGradient>
			<polygon fill="url(#SVGID_2_)" points="9.627,10.966 1.448,19.768 9.627,19.768 			"/>
			<path fill="#9D9D9C" d="M9.627,20.072H1.448c-0.121,0-0.23-0.072-0.279-0.184c-0.048-0.11-0.025-0.239,0.057-0.327l8.18-8.802
				c0.085-0.092,0.218-0.121,0.333-0.076c0.116,0.045,0.193,0.157,0.193,0.282v8.802C9.932,19.936,9.795,20.072,9.627,20.072z
				 M2.146,19.464h7.178v-7.725L2.146,19.464z"/>
		</g>
	</g>
	<g>
		<polygon fill="#A42423" points="30.346,16.385 12.065,16.385 11.225,14.499 31,14.499 		"/>
		<path fill="#801D18" d="M30.346,16.588h-18.28c-0.079,0-0.152-0.047-0.185-0.121l-0.842-1.886
			c-0.027-0.062-0.022-0.135,0.015-0.192s0.102-0.093,0.171-0.093H31c0.065,0,0.128,0.032,0.165,0.086
			c0.038,0.053,0.048,0.122,0.026,0.184l-0.654,1.886C30.509,16.533,30.432,16.588,30.346,16.588z M12.197,16.182h18.004l0.514-1.48
			H11.537L12.197,16.182z"/>
	</g>
	<g>
		<linearGradient id="SVGID_3_" gradientUnits="userSpaceOnUse" x1="11.2246" y1="10.8066" x2="31" y2="10.8066">
			<stop  offset="0" style="stop-color:#E30613"/>
			<stop  offset="1" style="stop-color:#BE1622"/>
		</linearGradient>
		<rect x="11.225" y="7.113" fill="url(#SVGID_3_)" width="19.775" height="7.386"/>
		<path fill="#801D18" d="M31,14.701H11.225c-0.112,0-0.203-0.091-0.203-0.202V7.113c0-0.111,0.091-0.202,0.203-0.202H31
			c0.111,0,0.203,0.091,0.203,0.202v7.386C31.203,14.61,31.111,14.701,31,14.701z M11.427,14.296h19.371V7.316H11.427V14.296z"/>
	</g>
</g>
<g>
	<rect x="29.123" y="29.137" fill="#E0F3FC" width="15.052" height="19.292"/>
	<path fill="#014A79" d="M44.479,48.733h-15.66v-19.9h15.66V48.733z M29.427,48.125H43.87V29.441H29.427V48.125z"/>
</g>
<rect x="43.844" y="27.574" fill="#6F6F6F" width="2.297" height="23.276"/>
<rect x="43.286" y="29.137" fill="#9D9D9C" width="0.889" height="21.714"/>
<g>
	<linearGradient id="SVGID_4_" gradientUnits="userSpaceOnUse" x1="44.3398" y1="25.1094" x2="44.3398" y2="63.5703">
		<stop  offset="0" style="stop-color:#CCCCCB"/>
		<stop  offset="1" style="stop-color:#A5A4A4"/>
	</linearGradient>
	<path fill="url(#SVGID_4_)" d="M29.137,29.137c-5.37,5.37-5.37,14.076,0,19.445c4.455,4.456,11.209,5.21,16.447,2.269l12.72,12.72
		l5.267-5.266l-12.72-12.72c2.94-5.239,2.187-11.992-2.27-16.448C43.21,23.767,34.508,23.766,29.137,29.137z M31.972,31.973
		c3.804-3.804,9.97-3.804,13.773,0s3.804,9.97,0,13.772c-3.804,3.805-9.97,3.805-13.773,0
		C28.169,41.942,28.169,35.776,31.972,31.973z"/>
	<path fill="#6F6F6F" d="M58.304,64L45.53,51.228c-2.041,1.102-4.345,1.683-6.677,1.683c-3.752,0-7.279-1.461-9.933-4.113
		c-2.653-2.654-4.116-6.184-4.116-9.938s1.463-7.283,4.116-9.938c2.655-2.654,6.185-4.117,9.938-4.117s7.282,1.463,9.938,4.117
		c4.378,4.379,5.362,11.178,2.431,16.609L64,58.305L58.304,64z M45.636,50.474l0.163,0.162l12.505,12.505l4.837-4.836L50.473,45.638
		l0.112-0.201c2.935-5.229,2.022-11.843-2.219-16.084c-2.541-2.541-5.918-3.939-9.508-3.939c-3.591,0-6.967,1.398-9.507,3.939
		c-2.54,2.539-3.938,5.916-3.938,9.507c0,3.592,1.398,6.968,3.938,9.507c2.537,2.539,5.912,3.936,9.502,3.936
		c2.306,0,4.581-0.594,6.581-1.716L45.636,50.474z M38.858,48.902c-2.682,0-5.204-1.045-7.103-2.941
		c-3.915-3.915-3.915-10.286,0-14.202c1.898-1.898,4.421-2.943,7.103-2.943c2.683,0,5.205,1.045,7.103,2.943
		c1.896,1.896,2.94,4.418,2.94,7.101s-1.045,5.204-2.941,7.102C44.063,47.857,41.541,48.902,38.858,48.902z M38.858,29.424
		c-2.52,0-4.89,0.981-6.672,2.765c-3.678,3.679-3.678,9.664,0,13.342c1.782,1.782,4.152,2.765,6.672,2.765
		c2.521,0,4.89-0.982,6.672-2.765c1.781-1.782,2.764-4.15,2.764-6.671c0-2.52-0.982-4.89-2.764-6.671
		C43.748,30.405,41.379,29.424,38.858,29.424z"/>
</g>
</svg>
