<?xml version="1.0" encoding="utf-8"?>
<!-- Generator: Adobe Illustrator 16.0.4, SVG Export Plug-In . SVG Version: 6.00 Build 0)  -->
<!DOCTYPE svg PUBLIC "-//W3C//DTD SVG 1.1//EN" "http://www.w3.org/Graphics/SVG/1.1/DTD/svg11.dtd">
<svg version="1.1" id="Ebene_1" xmlns="http://www.w3.org/2000/svg" xmlns:xlink="http://www.w3.org/1999/xlink" x="0px" y="0px"
	 width="64px" height="64px" viewBox="0 0 64 64" enable-background="new 0 0 64 64" xml:space="preserve">
<g>
	<g>
		<g>
			<path fill="#EFEFEF" d="M38.907,36.636c-13.816-0.134-25.073,5.839-25.146,13.333c-0.072,7.498,11.067,13.686,24.884,13.819
				c13.815,0.133,25.072-5.838,25.145-13.335C63.862,42.958,52.724,36.77,38.907,36.636z M38.682,59.301
				c-8.997-0.087-16.25-4.116-16.202-9c0.047-4.881,7.376-8.769,16.373-8.682c8.995,0.087,16.248,4.116,16.202,8.997
				C55.007,55.5,47.678,59.388,38.682,59.301z"/>
			<path fill="#6F6F6F" d="M39.102,64c-0.001,0-0.001,0-0.003,0l-0.455-0.003c-6.717-0.064-13.02-1.547-17.75-4.174
				c-4.771-2.649-7.377-6.15-7.341-9.856c0.071-7.467,11.24-13.543,24.897-13.543l0.459,0.002
				C52.817,36.561,64.073,42.854,64,50.454C63.927,57.924,52.759,64,39.102,64z M38.45,36.843c-13.428,0-24.409,5.89-24.479,13.128
				c-0.034,3.546,2.496,6.915,7.125,9.486c4.67,2.593,10.903,4.058,17.55,4.121l0.453,0.003c13.429,0,24.411-5.891,24.481-13.13
				c0.071-7.37-10.999-13.474-24.676-13.605L38.45,36.843z M38.977,59.513l-0.297-0.002c-4.386-0.043-8.503-1.011-11.593-2.728
				c-3.13-1.739-4.841-4.042-4.817-6.483c0.048-4.986,7.202-8.892,16.287-8.892l0.297,0.001c9.097,0.088,16.458,4.219,16.41,9.209
				C55.216,55.605,48.062,59.513,38.977,59.513z M38.557,41.827c-8.705,0-15.822,3.802-15.868,8.476
				c-0.021,2.282,1.612,4.453,4.602,6.113c3.03,1.684,7.076,2.634,11.393,2.676l0.294,0.001c8.704,0,15.822-3.804,15.868-8.478
				c0.046-4.76-7.129-8.701-15.994-8.786L38.557,41.827z"/>
		</g>
		<g>
			<path fill="#EFEFEF" d="M42.93,50.499c-0.013,1.251-1.885,2.243-4.185,2.22c-2.3-0.021-4.152-1.05-4.142-2.3
				c0.014-1.245,1.886-2.239,4.185-2.217C41.089,48.224,42.942,49.255,42.93,50.499z"/>
			<path fill="#6F6F6F" d="M38.823,52.929h-0.081c-2.45-0.022-4.361-1.126-4.348-2.512c0.014-1.36,1.911-2.425,4.318-2.425h0.077
				c1.146,0.011,2.226,0.266,3.038,0.717c0.853,0.474,1.317,1.109,1.312,1.793C43.126,51.863,41.23,52.929,38.823,52.929z
				 M38.713,48.411c-2.139,0-3.888,0.901-3.899,2.011c-0.01,1.111,1.791,2.067,3.934,2.088h0.076c2.138,0,3.886-0.903,3.896-2.013
				c0.005-0.521-0.384-1.026-1.096-1.422c-0.752-0.418-1.76-0.653-2.837-0.664H38.713z"/>
		</g>
		<g>
			
				<linearGradient id="SVGID_1_" gradientUnits="userSpaceOnUse" x1="41.708" y1="31.498" x2="41.708" y2="31.498" gradientTransform="matrix(1 0.0097 -0.0097 1 10.8388 10.5822)">
				<stop  offset="0.3103" style="stop-color:#E30613"/>
				<stop  offset="1" style="stop-color:#BE1622"/>
			</linearGradient>
			<path fill="url(#SVGID_1_)" stroke="#801D18" stroke-width="0.75" stroke-linejoin="round" d="M52.24,42.484"/>
			<g>
				
					<linearGradient id="SVGID_2_" gradientUnits="userSpaceOnUse" x1="11.0264" y1="14.5322" x2="45.5977" y2="14.5322" gradientTransform="matrix(1 0.0097 -0.0097 1 10.8388 10.5822)">
					<stop  offset="0.3103" style="stop-color:#E30613"/>
					<stop  offset="1" style="stop-color:#BE1622"/>
				</linearGradient>
				<path fill="url(#SVGID_2_)" d="M55.077,11.026c-0.855-2.078-2.102-3.952-3.651-5.531c-1.55-1.578-3.4-2.862-5.458-3.754
					c-2.061-0.896-4.33-1.402-6.716-1.426s-4.664,0.44-6.741,1.296c-2.077,0.851-3.951,2.099-5.531,3.647
					c-1.579,1.549-2.863,3.397-3.758,5.459c-0.894,2.059-1.4,4.326-1.423,6.716c-0.023,2.386,0.438,4.666,1.292,6.741
					c0.854,2.077,13.503,24.069,15.676,26.287c2.144-2.101,15.285-23.919,16.182-25.979c0.893-2.058,1.399-4.329,1.423-6.714
					C56.395,15.379,55.932,13.102,55.077,11.026z M39.031,23.094c-3.593-0.034-6.479-2.975-6.444-6.569
					c0.035-3.592,2.978-6.48,6.571-6.445c3.592,0.035,6.477,2.979,6.441,6.571C45.564,20.244,42.624,23.129,39.031,23.094z"/>
				<path fill="#801D18" d="M38.767,50.776c-0.099,0.018-0.167-0.035-0.225-0.095c-2.283-2.331-14.975-24.522-15.741-26.388
					c-0.896-2.18-1.34-4.488-1.316-6.863c0.022-2.374,0.51-4.675,1.449-6.839c0.903-2.084,2.191-3.954,3.825-5.558
					c1.638-1.604,3.532-2.854,5.632-3.714C34.519,0.444,36.771,0,39.083,0l0.172,0.001c2.375,0.023,4.676,0.512,6.838,1.452
					c2.083,0.901,3.953,2.188,5.558,3.821c1.601,1.631,2.851,3.525,3.718,5.632c0.897,2.18,1.341,4.489,1.317,6.866
					c-0.023,2.372-0.511,4.672-1.449,6.836c-0.807,1.855-13.934,23.808-16.25,26.078C38.928,50.744,38.849,50.776,38.767,50.776z
					 M39.083,0.629c-2.23,0-4.401,0.429-6.453,1.273c-2.024,0.829-3.852,2.034-5.431,3.58c-1.576,1.548-2.817,3.351-3.688,5.36
					c-0.905,2.086-1.375,4.305-1.397,6.595s0.404,4.517,1.269,6.617c0.974,2.368,12.787,22.768,15.39,25.938
					c2.732-3.19,15.141-23.918,15.888-25.635c0.904-2.085,1.375-4.304,1.397-6.592c0.022-2.291-0.405-4.519-1.271-6.62
					c-0.836-2.031-2.042-3.857-3.585-5.43c-1.547-1.576-3.35-2.816-5.359-3.687c-2.085-0.905-4.303-1.377-6.593-1.399L39.083,0.629z
					 M39.097,23.408c-1.89-0.018-3.596-0.743-4.872-2.044s-1.969-3.021-1.952-4.843c0.037-3.726,3.097-6.757,6.82-6.757
					c0.001,0,0.067,0,0.068,0c1.82,0.019,3.527,0.745,4.803,2.046c1.275,1.302,1.969,3.021,1.95,4.844
					C45.878,20.378,42.819,23.408,39.097,23.408z M39.093,10.079v0.314c-3.381,0-6.158,2.752-6.19,6.135
					c-0.016,1.653,0.613,3.215,1.771,4.396s2.707,1.84,4.361,1.855c3.44,0,6.218-2.751,6.25-6.132
					c0.017-1.653-0.612-3.215-1.771-4.396c-1.158-1.183-2.706-1.842-4.36-1.858L39.093,10.079z"/>
			</g>
		</g>
	</g>
</g>
</svg>
