<?xml version="1.0" encoding="utf-8"?>
<!-- Generator: Adobe Illustrator 16.0.4, SVG Export Plug-In . SVG Version: 6.00 Build 0)  -->
<!DOCTYPE svg PUBLIC "-//W3C//DTD SVG 1.1//EN" "http://www.w3.org/Graphics/SVG/1.1/DTD/svg11.dtd">
<svg version="1.1" id="Ebene_1" xmlns="http://www.w3.org/2000/svg" xmlns:xlink="http://www.w3.org/1999/xlink" x="0px" y="0px"
	 width="64px" height="64px" viewBox="0 0 64 64" enable-background="new 0 0 64 64" xml:space="preserve">
<g>
	<g>
		<polygon fill="none" points="14.083,63.315 14.083,63.317 14.083,63.316 		"/>
		<path fill="#801D18" d="M14.113,62.693l46.826-0.144c0.453-0.002,0.775-0.067,0.96-0.271c0.229-0.25,0.241-0.636,0.212-0.934
			L61.105,51.04l2.004,0.045L63.088,51H14.93c-4.015,0-6.226,0.873-7.633,3.326l-0.259-0.14l-0.101,2.087
			c-0.071,1.502,0.609,2.985,1.773,4.21c1.426,1.492,3.523,2.368,5.523,2.368V63h-0.076L14.113,62.693z M12.633,62
			c-2.389-1-4.316-2.538-4.316-5c0-2.463,1.928-5,4.316-5H59.3h0.932H59.3c-2.542,0-3.671,2.219-3.671,4.792
			c0,2.57,1.605,4.576,4.605,4.697V62H12.633z"/>
		<path fill="#950E01" d="M62.129,51.938l2.005-0.088l-5.017-50.74C59.055,0.455,58.347,0,57.748,0L13.03,0.137
			c-2.817,0.01-4.452,1.776-4.601,4.973L6.007,56.198c-0.084,1.757,0.61,3.502,1.955,4.912c1.596,1.673,3.883,2.673,6.121,2.673
			l46.86-0.223c0.727-0.003,1.28-0.21,1.649-0.617c0.358-0.397,0.514-0.974,0.448-1.668L62.129,51.938z M14.234,63.315v-0.464
			c-2,0-4.098-0.892-5.523-2.384c-1.164-1.225-1.807-2.725-1.735-4.227l0.081-2.119l-0.186-0.051L8.963,5.285
			C9.1,2.157,10.293,1,13.095,1h44.688c0.517,0,1.129,0.396,1.179,0.914L63.549,51h-0.461l0.021,0.09l-2.004,0.024l1.006,10.283
			c0.029,0.298,0.017,0.687-0.212,0.937c-0.185,0.204-0.507,0.301-0.96,0.303l-46.826,0.06L14.158,63h0.076V63.315z"/>
		<line fill="none" x1="59.234" y1="52" x2="60.234" y2="52"/>
		<path fill="#801D18" d="M60.234,61.489c-3-0.121-4.605-2.127-4.605-4.697c0-2.573,1.129-4.792,3.671-4.792H12.633
			c-2.389,0-4.316,2.537-4.316,5c0,2.462,1.928,4,4.316,5h47.602V61.489z"/>
		<linearGradient id="SVGID_1_" gradientUnits="userSpaceOnUse" x1="8.3164" y1="57" x2="60.2344" y2="57">
			<stop  offset="0.5933" style="stop-color:#FFFFFF"/>
			<stop  offset="1" style="stop-color:#CDCDCD"/>
		</linearGradient>
		<path fill="url(#SVGID_1_)" d="M60.234,61.489c-3-0.121-4.605-2.127-4.605-4.697c0-2.573,1.129-4.792,3.671-4.792H12.633
			c-2.389,0-4.316,2.537-4.316,5c0,2.462,1.928,4,4.316,5h47.602V61.489z"/>
		<path fill="#801D18" d="M14.93,50h48.107l-0.081-0.725L58.205,1.18C58.071,1.1,57.915,1,57.782,1H13.095
			c-1.261,0-2.14,0.379-2.723,0.994c-0.174,0.193-0.32,0.48-0.45,0.729c-0.293,0.6-0.453,1.414-0.498,2.437l-2.06,47.923
			C8.871,51.019,11.192,50,14.93,50z"/>
		<linearGradient id="SVGID_2_" gradientUnits="userSpaceOnUse" x1="7.0947" y1="27.041" x2="63.293" y2="27.041">
			<stop  offset="0" style="stop-color:#E4031B"/>
			<stop  offset="1" style="stop-color:#C4072B"/>
		</linearGradient>
		<path fill="url(#SVGID_2_)" d="M14.93,50h48.107l-0.081-0.725L58.205,1.18C58.071,1.1,57.915,1,57.782,1H13.095
			c-1.261,0-2.14,0.379-2.723,0.994c-0.174,0.193-0.32,0.48-0.45,0.729c-0.293,0.6-0.453,1.414-0.498,2.437l-2.06,47.923
			C8.871,51.019,11.192,50,14.93,50z"/>
		<path fill="#950E01" d="M58.497,1.712c-0.013-0.132-0.137-0.258-0.292-0.349l4.751,48.051L58.497,1.712z"/>
		<linearGradient id="SVGID_3_" gradientUnits="userSpaceOnUse" x1="7.0947" y1="25.3887" x2="63.293" y2="25.3887">
			<stop  offset="0" style="stop-color:#E4031B"/>
			<stop  offset="1" style="stop-color:#C4072B"/>
		</linearGradient>
		<path fill="url(#SVGID_3_)" d="M58.497,1.712c-0.013-0.132-0.137-0.258-0.292-0.349l4.751,48.051L58.497,1.712z"/>
		<path fill="#950E01" d="M9.922,2.781c0.13-0.249,0.276-0.479,0.45-0.673C10.193,2.296,10.048,2.524,9.922,2.781z"/>
		<linearGradient id="SVGID_4_" gradientUnits="userSpaceOnUse" x1="7.0947" y1="2.4453" x2="63.293" y2="2.4453">
			<stop  offset="0" style="stop-color:#E4031B"/>
			<stop  offset="1" style="stop-color:#C4072B"/>
		</linearGradient>
		<path fill="url(#SVGID_4_)" d="M9.922,2.781c0.13-0.249,0.276-0.479,0.45-0.673C10.193,2.296,10.048,2.524,9.922,2.781z"/>
		<path fill="#A1195B" d="M14.93,51h48.158h0.461L58.961,1.914C58.911,1.396,58.299,1,57.782,1H13.095c-2.802,0-4,1.157-4.137,4.285
			L6.861,54.131l0.177,0.021l0.259,0.189C8.704,51.888,10.915,51,14.93,51z M9.424,5.188c0.045-1.022,0.205-1.808,0.498-2.407
			c0.126-0.257,0.271-0.6,0.45-0.787C10.955,1.379,11.834,1,13.095,1h44.688c0.133,0,0.289,0.17,0.423,0.248
			c0.155,0.092,0.279,0.274,0.292,0.406l4.459,47.593L63.037,50H14.93c-3.737,0-6.059,1.033-7.565,3.098L9.424,5.188z"/>
	</g>
	<linearGradient id="SVGID_5_" gradientUnits="userSpaceOnUse" x1="32.1709" y1="14.584" x2="39.9414" y2="14.584">
		<stop  offset="0.5" style="stop-color:#FFFFFF"/>
		<stop  offset="1" style="stop-color:#EEEEEE"/>
	</linearGradient>
	<path fill="url(#SVGID_5_)" d="M35.812,15.666c-0.507,0.526-1.183,0.78-1.183,0.78c0.031-0.178,0.852-1.081,0.852-1.081
		l4.164-4.594l0.068,0.565C39.714,11.337,36.321,15.142,35.812,15.666 M34.287,16.177c0,0,0.191-0.696,0.666-1.251
		c0.473-0.553,3.943-4.291,3.943-4.291l0.568,0.017l-4.18,4.576C35.285,15.228,34.463,16.129,34.287,16.177 M39.815,10.445
		l-0.936-0.08l-4.451,4.862c0,0-0.536,0.664-0.601,1.107c-0.062,0.444-0.363,0.682-0.695,0.729
		c-0.335,0.047-1.253,0.521-0.871,1.283c0.379,0.759,1.06,0.381,1.266,0.206c0.205-0.175,0.35-0.54,0.365-0.936
		c0.015-0.395,0.395-0.554,0.554-0.585c0.158-0.032,0.458-0.221,0.979-0.714c0.526-0.491,4.516-4.956,4.516-4.956L39.815,10.445z"/>
	<linearGradient id="SVGID_6_" gradientUnits="userSpaceOnUse" x1="30.0332" y1="12.9043" x2="34.4229" y2="12.9043">
		<stop  offset="0.5" style="stop-color:#FFFFFF"/>
		<stop  offset="1" style="stop-color:#EEEEEE"/>
	</linearGradient>
	<path fill="url(#SVGID_6_)" d="M33.559,15.164c-0.458,0.692-0.366,0.951-0.419,1.121c-0.002,0.014-0.006,0.018-0.006,0.018
		c0.002-0.004,0.004-0.012,0.006-0.018c0.006-0.042-0.025-0.174-0.436-0.472c-0.522-0.381-1.377-0.126-1.551-1.378
		c0,0,0.188,0.19,0.363,0.205c0.174,0.017,0.443,0.16,0.46,0.316c0,0,0.188-0.474-0.223-1.028c-0.412-0.554-0.396-1.045-0.222-1.378
		c0,0,0.175,0.523,0.618,0.523c0,0-0.017-0.159-0.111-0.27c0,0,0.364,0.3,0.57,0.363c0.206,0.064,1.109,0.713,0.428,1.521
		c0,0,0.602-0.236,0.49-1.251C33.527,13.438,34.305,14.039,33.559,15.164 M34.32,13.168c-0.282-1.105-0.238-1.869-0.222-2.279
		c0,0-0.508,0.521-0.508,1.266c0,0-1.347-2.375,0.111-3.294c0,0-1.995,0.175-2.739,2.423c0,0-0.238-0.11-0.271-0.681
		c0,0-1.346,1.521,0.111,3.547c0,0-0.222,0.206-0.744-0.411c0,0-0.333,1.33,1.345,1.933c0,0-0.109,0.109-0.331,0
		c0,0,0.128,0.49,0.744,0.601c0.618,0.111,1.188,0.032,1.141,0.666c0,0,0.808,0.222,0.774-1.361c0,0-0.22,0.141-0.22,0.252
		c0,0,0.015-0.332,0.395-0.681C34.287,14.801,34.589,14.229,34.32,13.168"/>
	<path fill="#FFFFFF" d="M22.692,25.318h-0.797v-2.99h1.77v0.648h-0.973v0.57h0.896v0.649h-0.896V25.318z"/>
	<path fill="#FFFFFF" d="M25.99,25.318l-0.146-0.56h-0.974l-0.15,0.56h-0.89l0.977-3.003h1.077l0.989,3.003H25.99z M25.676,24.096
		l-0.129-0.491c-0.031-0.109-0.067-0.25-0.11-0.425c-0.043-0.173-0.071-0.296-0.085-0.372c-0.013,0.07-0.037,0.186-0.072,0.345
		c-0.037,0.159-0.116,0.474-0.241,0.943H25.676z"/>
	<path fill="#FFFFFF" d="M29.762,25.318h-0.813V24.1H28.01v1.219h-0.813v-2.99h0.813v1.107h0.938v-1.107h0.813V25.318z"/>
	<path fill="#FFFFFF" d="M31.216,24.23v1.088h-0.808v-2.99h0.98c0.812,0,1.221,0.294,1.221,0.884c0,0.346-0.17,0.612-0.509,0.805
		l0.872,1.302h-0.918l-0.634-1.088H31.216z M31.216,23.623h0.152c0.283,0,0.423-0.125,0.423-0.374c0-0.208-0.138-0.31-0.414-0.31
		h-0.161V23.623z"/>
	<path fill="#FFFFFF" d="M35.021,25.318h-1.776v-2.99h1.776v0.648h-0.969v0.471h0.897v0.648h-0.897v0.564h0.969V25.318z"/>
	<path fill="#FFFFFF" d="M38.394,25.318h-1.061l-1.094-2.106h-0.018c0.026,0.33,0.039,0.584,0.039,0.759v1.348h-0.717v-2.99H36.6
		l1.09,2.078h0.012c-0.02-0.302-0.029-0.544-0.029-0.727v-1.352h0.722V25.318z"/>
	<path fill="#FFFFFF" d="M41.604,25.318h-0.812V24.1h-0.94v1.219h-0.812v-2.99h0.812v1.107h0.94v-1.107h0.812V25.318z"/>
	<path fill="#FFFFFF" d="M44.026,25.318h-1.775v-2.99h1.775v0.648h-0.968v0.471h0.896v0.648h-0.896v0.564h0.968V25.318z"/>
	<path fill="#FFFFFF" d="M44.549,25.318v-2.99h0.813v2.99H44.549z"/>
	<path fill="#FFFFFF" d="M47.329,25.318h-0.808v-2.33H45.79v-0.66h2.267v0.66h-0.728V25.318z"/>
	<path fill="#FFFFFF" d="M31.784,34.982h-0.731v1.286h-1.774v-1.286h-2.654v-1.321l2.768-4.045h1.661v4.023h0.731V34.982z
		 M29.278,33.64v-0.774c0-0.145,0.006-0.343,0.015-0.59c0.01-0.246,0.02-0.377,0.025-0.389H29.27
		c-0.104,0.234-0.222,0.452-0.352,0.656l-0.737,1.097H29.278z"/>
	<path fill="#FFFFFF" d="M34.948,31.91c0.382,0,0.726,0.089,1.034,0.266c0.309,0.178,0.547,0.429,0.719,0.755
		c0.173,0.323,0.257,0.698,0.257,1.122c0,0.744-0.225,1.313-0.672,1.711c-0.446,0.398-1.123,0.597-2.03,0.597
		c-0.777,0-1.41-0.12-1.902-0.359v-1.474c0.265,0.12,0.562,0.221,0.894,0.299c0.333,0.079,0.618,0.119,0.858,0.119
		c0.334,0,0.59-0.069,0.771-0.212c0.177-0.141,0.266-0.35,0.266-0.626c0-0.254-0.09-0.454-0.272-0.596
		c-0.182-0.144-0.458-0.214-0.828-0.214c-0.282,0-0.585,0.053-0.913,0.159l-0.661-0.327l0.252-3.514h3.794v1.498h-2.266
		l-0.082,0.878c0.236-0.046,0.404-0.071,0.504-0.075C34.77,31.911,34.861,31.91,34.948,31.91z"/>
	<path fill="#FFFFFF" d="M41.673,36.269h-1.825v-3.521c0-0.427,0.009-0.818,0.027-1.173c-0.112,0.136-0.251,0.278-0.419,0.427
		l-0.755,0.623l-0.933-1.146l2.285-1.861h1.619V36.269z"/>
</g>
</svg>
