<?xml version="1.0" encoding="utf-8"?>
<!-- Generator: Adobe Illustrator 16.0.4, SVG Export Plug-In . SVG Version: 6.00 Build 0)  -->
<!DOCTYPE svg PUBLIC "-//W3C//DTD SVG 1.1//EN" "http://www.w3.org/Graphics/SVG/1.1/DTD/svg11.dtd">
<svg version="1.1" id="Ebene_1" xmlns="http://www.w3.org/2000/svg" xmlns:xlink="http://www.w3.org/1999/xlink" x="0px" y="0px"
	 width="64px" height="64px" viewBox="0 0 64 64" enable-background="new 0 0 64 64" xml:space="preserve">
<g>
	<linearGradient id="SVGID_1_" gradientUnits="userSpaceOnUse" x1="32" y1="14.9639" x2="32" y2="63.6123">
		<stop  offset="0" style="stop-color:#FFFFFF"/>
		<stop  offset="1" style="stop-color:#DCDDDE"/>
	</linearGradient>
	<rect x="0.388" y="14.964" fill="url(#SVGID_1_)" width="63.225" height="48.648"/>
	<path fill="#9D9D9C" d="M64,64H0V14.576h64V64z M0.776,63.224h62.447V15.353H0.776V63.224z"/>
</g>
<g>
	<g>
		<linearGradient id="SVGID_2_" gradientUnits="userSpaceOnUse" x1="6.5488" y1="27.3594" x2="57.3467" y2="27.3594">
			<stop  offset="0" style="stop-color:#FFFFFF"/>
			<stop  offset="1" style="stop-color:#EBEBEB"/>
		</linearGradient>
		<rect x="6.549" y="21.813" fill="url(#SVGID_2_)" width="50.798" height="11.091"/>
		<path fill="#9D9D9C" d="M57.638,33.195H6.258V21.522h51.38V33.195z M6.84,32.613h50.216V22.104H6.84V32.613z"/>
	</g>
	<g>
		<linearGradient id="SVGID_3_" gradientUnits="userSpaceOnUse" x1="6.5488" y1="40.3574" x2="57.3467" y2="40.3574">
			<stop  offset="0" style="stop-color:#FFFFFF"/>
			<stop  offset="1" style="stop-color:#EBEBEB"/>
		</linearGradient>
		<rect x="6.549" y="34.812" fill="url(#SVGID_3_)" width="50.798" height="11.09"/>
		<path fill="#9D9D9C" d="M57.638,46.193H6.258V34.521h51.38V46.193z M6.84,45.611h50.216V35.104H6.84V45.611z"/>
	</g>
	<g>
		<linearGradient id="SVGID_4_" gradientUnits="userSpaceOnUse" x1="6.5488" y1="54.3184" x2="57.3467" y2="54.3184">
			<stop  offset="0" style="stop-color:#50A349"/>
			<stop  offset="1" style="stop-color:#2B8D4B"/>
		</linearGradient>
		<rect x="6.549" y="50.159" fill="url(#SVGID_4_)" width="50.798" height="8.317"/>
		<path fill="#296E32" d="M57.347,58.671H6.549c-0.107,0-0.194-0.088-0.194-0.194v-8.317c0-0.106,0.087-0.194,0.194-0.194h50.798
			c0.107,0,0.194,0.088,0.194,0.194v8.317C57.541,58.583,57.454,58.671,57.347,58.671z M6.742,58.282h50.41v-7.929H6.742V58.282z"/>
	</g>
	<g>
		<linearGradient id="SVGID_5_" gradientUnits="userSpaceOnUse" x1="9.5244" y1="27.5518" x2="12.5732" y2="27.5518">
			<stop  offset="0" style="stop-color:#E10613"/>
			<stop  offset="1" style="stop-color:#BC1622"/>
		</linearGradient>
		<path fill="url(#SVGID_5_)" d="M12.573,27.503c0,1.534-0.573,2.38-1.559,2.38c-0.877,0-1.477-0.826-1.49-2.317
			c0-1.521,0.656-2.345,1.565-2.345C12.028,25.221,12.573,26.066,12.573,27.503z M10.138,27.572c0,1.173,0.359,1.839,0.911,1.839
			c0.614,0,0.91-0.729,0.91-1.881c0-1.109-0.275-1.84-0.91-1.84C10.524,25.69,10.138,26.344,10.138,27.572z"/>
		<linearGradient id="SVGID_6_" gradientUnits="userSpaceOnUse" x1="13.0625" y1="27.5518" x2="16.1104" y2="27.5518">
			<stop  offset="0" style="stop-color:#E10613"/>
			<stop  offset="1" style="stop-color:#BC1622"/>
		</linearGradient>
		<path fill="url(#SVGID_6_)" d="M16.11,27.503c0,1.534-0.573,2.38-1.559,2.38c-0.876,0-1.476-0.826-1.489-2.317
			c0-1.521,0.655-2.345,1.565-2.345C15.565,25.221,16.11,26.066,16.11,27.503z M13.676,27.572c0,1.173,0.358,1.839,0.911,1.839
			c0.613,0,0.909-0.729,0.909-1.881c0-1.109-0.275-1.84-0.909-1.84C14.062,25.69,13.676,26.344,13.676,27.572z"/>
		<linearGradient id="SVGID_7_" gradientUnits="userSpaceOnUse" x1="16.7441" y1="27.5527" x2="19.5723" y2="27.5527">
			<stop  offset="0" style="stop-color:#E10613"/>
			<stop  offset="1" style="stop-color:#BC1622"/>
		</linearGradient>
		<path fill="url(#SVGID_7_)" d="M19.572,25.297v0.402l-1.952,4.108h-0.627l1.943-3.99v-0.014h-2.192v-0.507H19.572z"/>
		<linearGradient id="SVGID_8_" gradientUnits="userSpaceOnUse" x1="20.1777" y1="27.5898" x2="22.9648" y2="27.5898">
			<stop  offset="0" style="stop-color:#E10613"/>
			<stop  offset="1" style="stop-color:#BC1622"/>
		</linearGradient>
		<path fill="url(#SVGID_8_)" d="M22.874,25.81h-1.71l-0.173,1.159c0.104-0.015,0.2-0.021,0.366-0.021
			c0.351,0,0.689,0.07,0.965,0.244c0.352,0.193,0.643,0.59,0.643,1.152c0,0.881-0.697,1.539-1.671,1.539
			c-0.488,0-0.896-0.139-1.116-0.276l0.15-0.466c0.187,0.111,0.553,0.25,0.966,0.25c0.566,0,1.063-0.374,1.056-0.978
			c0-0.585-0.393-0.992-1.282-0.992c-0.262,0-0.462,0.02-0.627,0.04l0.289-2.164h2.145V25.81z"/>
		<linearGradient id="SVGID_9_" gradientUnits="userSpaceOnUse" x1="23.5283" y1="27.5527" x2="26.8115" y2="27.5527">
			<stop  offset="0" style="stop-color:#E10613"/>
			<stop  offset="1" style="stop-color:#BC1622"/>
		</linearGradient>
		<path fill="url(#SVGID_9_)" d="M25.612,29.808v-1.235h-2.084v-0.396l2-2.88h0.655V28.1h0.628v0.473h-0.628v1.235H25.612z
			 M25.612,28.1v-1.506c0-0.235,0.007-0.473,0.02-0.707h-0.02c-0.14,0.263-0.25,0.457-0.373,0.666l-1.098,1.533V28.1H25.612z"/>
		<linearGradient id="SVGID_10_" gradientUnits="userSpaceOnUse" x1="27.6787" y1="27.5527" x2="29.1758" y2="27.5527">
			<stop  offset="0" style="stop-color:#E10613"/>
			<stop  offset="1" style="stop-color:#BC1622"/>
		</linearGradient>
		<path fill="url(#SVGID_10_)" d="M28.59,25.864h-0.014l-0.778,0.425l-0.119-0.464l0.979-0.528h0.518v4.511H28.59V25.864z"/>
		<linearGradient id="SVGID_11_" gradientUnits="userSpaceOnUse" x1="30.8105" y1="27.5137" x2="33.6719" y2="27.5137">
			<stop  offset="0" style="stop-color:#E10613"/>
			<stop  offset="1" style="stop-color:#BC1622"/>
		</linearGradient>
		<path fill="url(#SVGID_11_)" d="M30.811,29.808v-0.374l0.475-0.467c1.146-1.097,1.669-1.681,1.669-2.359
			c0-0.458-0.214-0.88-0.883-0.88c-0.406,0-0.744,0.206-0.951,0.381l-0.193-0.431c0.304-0.258,0.752-0.457,1.262-0.457
			c0.966,0,1.373,0.666,1.373,1.312c0,0.833-0.6,1.506-1.545,2.421l-0.352,0.333V29.3h2.007v0.508H30.811z"/>
	</g>
	<g>
		<path fill="#950E01" d="M11.656,38.708l-0.798,1.056v0.018l1.269-0.17v0.576l-1.269-0.162v0.026l0.806,1.014l-0.528,0.305
			l-0.513-1.183h-0.017l-0.538,1.19L9.59,41.073l0.799-1.03v-0.025l-1.243,0.17v-0.576l1.233,0.161v-0.017L9.59,38.717l0.512-0.297
			l0.521,1.185h0.017l0.513-1.192L11.656,38.708z"/>
		<path fill="#950E01" d="M15.141,38.708l-0.798,1.056v0.018l1.269-0.17v0.576l-1.269-0.162v0.026l0.807,1.014L14.62,41.37
			l-0.512-1.183h-0.018l-0.538,1.19l-0.478-0.305l0.798-1.03v-0.025l-1.244,0.17v-0.576l1.236,0.161v-0.017l-0.79-1.039l0.512-0.297
			l0.521,1.185h0.017l0.512-1.192L15.141,38.708z"/>
		<path fill="#950E01" d="M18.626,38.708l-0.799,1.056v0.018l1.27-0.17v0.576l-1.27-0.162v0.026l0.807,1.014l-0.529,0.305
			l-0.512-1.183h-0.017l-0.538,1.19l-0.479-0.305l0.799-1.03v-0.025l-1.244,0.17v-0.576l1.235,0.161v-0.017l-0.79-1.039l0.513-0.297
			l0.521,1.185h0.017l0.513-1.192L18.626,38.708z"/>
		<path fill="#950E01" d="M22.11,38.708l-0.798,1.056v0.018l1.269-0.17v0.576l-1.269-0.162v0.026l0.806,1.014L21.59,41.37
			l-0.513-1.183h-0.017l-0.538,1.19l-0.479-0.305l0.799-1.03v-0.025l-1.243,0.17v-0.576l1.233,0.161v-0.017l-0.789-1.039
			l0.513-0.297l0.521,1.185h0.018l0.512-1.192L22.11,38.708z"/>
		<path fill="#950E01" d="M25.596,38.708l-0.799,1.056v0.018l1.269-0.17v0.576l-1.269-0.162v0.026l0.807,1.014l-0.529,0.305
			l-0.512-1.183h-0.018l-0.536,1.19l-0.479-0.305l0.798-1.03v-0.025l-1.243,0.17v-0.576l1.235,0.161v-0.017l-0.79-1.039l0.513-0.297
			l0.521,1.185h0.017l0.512-1.192L25.596,38.708z"/>
		<path fill="#950E01" d="M29.08,38.708l-0.798,1.056v0.018l1.269-0.17v0.576l-1.269-0.162v0.026l0.807,1.014l-0.53,0.305
			l-0.512-1.183H28.03l-0.537,1.19l-0.479-0.305l0.798-1.03v-0.025l-1.243,0.17v-0.576l1.235,0.161v-0.017l-0.79-1.039l0.513-0.297
			l0.521,1.185h0.017l0.514-1.192L29.08,38.708z"/>
		<path fill="#950E01" d="M32.564,38.708l-0.798,1.056v0.018l1.27-0.17v0.576l-1.27-0.162v0.026l0.806,1.014l-0.528,0.305
			l-0.512-1.183h-0.017l-0.539,1.19l-0.478-0.305l0.798-1.03v-0.025l-1.243,0.17v-0.576l1.234,0.161v-0.017l-0.789-1.039
			l0.512-0.297l0.521,1.185h0.017l0.512-1.192L32.564,38.708z"/>
		<path fill="#950E01" d="M36.05,38.708l-0.799,1.056v0.018l1.27-0.17v0.576l-1.27-0.162v0.026l0.807,1.014L35.53,41.37
			l-0.513-1.183h-0.019l-0.538,1.19l-0.478-0.305l0.798-1.03v-0.025l-1.242,0.17v-0.576l1.234,0.161v-0.017l-0.79-1.039l0.513-0.297
			l0.521,1.185h0.016l0.512-1.192L36.05,38.708z"/>
	</g>
	<g>
		<linearGradient id="SVGID_12_" gradientUnits="userSpaceOnUse" x1="24.3516" y1="54.3213" x2="26.6094" y2="54.3213">
			<stop  offset="0.5" style="stop-color:#FFFFFF"/>
			<stop  offset="1" style="stop-color:#EEEEEE"/>
		</linearGradient>
		<path fill="url(#SVGID_12_)" d="M24.352,56.045v-3.447h0.931v2.694h1.327v0.753H24.352z"/>
		<linearGradient id="SVGID_13_" gradientUnits="userSpaceOnUse" x1="27.0342" y1="54.3184" x2="30.3857" y2="54.3184">
			<stop  offset="0.5" style="stop-color:#FFFFFF"/>
			<stop  offset="1" style="stop-color:#EEEEEE"/>
		</linearGradient>
		<path fill="url(#SVGID_13_)" d="M30.386,54.317c0,0.579-0.142,1.021-0.427,1.322c-0.284,0.302-0.7,0.452-1.25,0.452
			c-0.54,0-0.954-0.152-1.243-0.455c-0.288-0.304-0.432-0.744-0.432-1.324c0-0.574,0.144-1.013,0.43-1.314
			c0.286-0.303,0.703-0.454,1.251-0.454s0.964,0.149,1.247,0.45C30.244,53.294,30.386,53.735,30.386,54.317z M28.015,54.317
			c0,0.666,0.231,0.999,0.694,0.999c0.236,0,0.411-0.082,0.525-0.242c0.114-0.162,0.171-0.414,0.171-0.757
			c0-0.344-0.058-0.599-0.174-0.763c-0.115-0.165-0.288-0.247-0.517-0.247C28.248,53.308,28.015,53.645,28.015,54.317z"/>
		<linearGradient id="SVGID_14_" gradientUnits="userSpaceOnUse" x1="30.8809" y1="54.3203" x2="33.8789" y2="54.3203">
			<stop  offset="0.5" style="stop-color:#FFFFFF"/>
			<stop  offset="1" style="stop-color:#EEEEEE"/>
		</linearGradient>
		<path fill="url(#SVGID_14_)" d="M32.392,54.026h1.487v1.858c-0.403,0.139-0.848,0.207-1.331,0.207
			c-0.531,0-0.942-0.153-1.232-0.461c-0.29-0.31-0.435-0.748-0.435-1.318c0-0.556,0.158-0.989,0.476-1.299
			c0.318-0.31,0.763-0.464,1.335-0.464c0.217,0,0.421,0.02,0.613,0.061c0.193,0.041,0.36,0.093,0.504,0.156l-0.295,0.73
			c-0.248-0.123-0.521-0.185-0.818-0.185c-0.271,0-0.481,0.089-0.63,0.265c-0.148,0.178-0.223,0.43-0.223,0.759
			c0,0.322,0.066,0.568,0.201,0.736c0.135,0.169,0.328,0.254,0.581,0.254c0.139,0,0.266-0.014,0.382-0.04v-0.54h-0.615V54.026z"/>
		<linearGradient id="SVGID_15_" gradientUnits="userSpaceOnUse" x1="34.582" y1="54.3213" x2="35.5176" y2="54.3213">
			<stop  offset="0.5" style="stop-color:#FFFFFF"/>
			<stop  offset="1" style="stop-color:#EEEEEE"/>
		</linearGradient>
		<path fill="url(#SVGID_15_)" d="M34.582,56.045v-3.447h0.936v3.447H34.582z"/>
		<linearGradient id="SVGID_16_" gradientUnits="userSpaceOnUse" x1="36.2627" y1="54.3213" x2="39.5439" y2="54.3213">
			<stop  offset="0.5" style="stop-color:#FFFFFF"/>
			<stop  offset="1" style="stop-color:#EEEEEE"/>
		</linearGradient>
		<path fill="url(#SVGID_16_)" d="M39.544,56.045h-1.221l-1.26-2.428h-0.021c0.03,0.382,0.044,0.673,0.044,0.875v1.553h-0.824
			v-3.447h1.217l1.254,2.396h0.014c-0.022-0.348-0.033-0.627-0.033-0.837v-1.56h0.83V56.045z"/>
	</g>
</g>
</svg>
