<?xml version="1.0" encoding="utf-8"?>
<!-- Generator: Adobe Illustrator 16.0.4, SVG Export Plug-In . SVG Version: 6.00 Build 0)  -->
<!DOCTYPE svg PUBLIC "-//W3C//DTD SVG 1.1//EN" "http://www.w3.org/Graphics/SVG/1.1/DTD/svg11.dtd">
<svg version="1.1" id="Ebene_1" xmlns="http://www.w3.org/2000/svg" xmlns:xlink="http://www.w3.org/1999/xlink" x="0px" y="0px"
	 width="64px" height="64px" viewBox="0 0 64 64" enable-background="new 0 0 64 64" xml:space="preserve">
<g id="Datei_2_">
	<g>
		<linearGradient id="SVGID_1_" gradientUnits="userSpaceOnUse" x1="23.5518" y1="14.4141" x2="44.0613" y2="70.7635">
			<stop  offset="0" style="stop-color:#FFFFFF"/>
			<stop  offset="1" style="stop-color:#D8D9DA"/>
		</linearGradient>
		<polygon fill="url(#SVGID_1_)" points="63.638,29.018 34.594,10.396 6.697,29.018 6.697,63.638 63.638,63.638 		"/>
		<path fill="#9D9D9C" d="M64,64H6.335V28.833L34.591,9.968L64,28.828V64z M7.044,63.284h56.24V29.219L34.596,10.816L7.044,29.216
			V63.284z"/>
	</g>
	<g>
		<g>
			<linearGradient id="SVGID_2_" gradientUnits="userSpaceOnUse" x1="26.8174" y1="0.9531" x2="44.6742" y2="50.0144">
				<stop  offset="0" style="stop-color:#FFFFFF"/>
				<stop  offset="1" style="stop-color:#D8D9DA"/>
			</linearGradient>
			<polygon fill="url(#SVGID_2_)" points="53.498,0.362 28.44,0.362 16.608,12.846 16.608,46.803 53.498,46.803 			"/>
			<path fill="#9D9D9C" d="M53.86,47.164H16.256V12.715L28.287,0H53.86V47.164z M16.969,46.456h36.183V0.725h-24.55L16.969,12.999
				V46.456z"/>
		</g>
		<linearGradient id="SVGID_3_" gradientUnits="userSpaceOnUse" x1="25.7812" y1="12.6113" x2="42.7295" y2="12.6113">
			<stop  offset="0" style="stop-color:#E1001A"/>
			<stop  offset="1" style="stop-color:#BD0926"/>
		</linearGradient>
		<rect x="25.781" y="11.145" fill="url(#SVGID_3_)" width="16.948" height="2.934"/>
		<rect x="25.781" y="17.172" fill="#9D9D9C" width="22" height="2.94"/>
		<rect x="25.781" y="23.219" fill="#9D9D9C" width="23.354" height="2.938"/>
		<rect x="25.781" y="29.261" fill="#9D9D9C" width="19.663" height="2.94"/>
		<rect x="25.781" y="35.303" fill="#9D9D9C" width="22.226" height="2.932"/>
		<g>
			<linearGradient id="SVGID_4_" gradientUnits="userSpaceOnUse" x1="21.2109" y1="2.9941" x2="25.223" y2="14.0172">
				<stop  offset="0" style="stop-color:#FFFFFF"/>
				<stop  offset="1" style="stop-color:#EBEBEB"/>
			</linearGradient>
			<polygon fill="url(#SVGID_4_)" points="28.44,0.362 16.608,12.846 28.44,12.846 			"/>
			<path fill="#9D9D9C" d="M28.44,13.118H16.608c-0.109,0-0.202-0.056-0.243-0.163c-0.036-0.099-0.023-0.213,0.049-0.289
				L28.252,0.174c0.073-0.073,0.187-0.1,0.296-0.065c0.104,0.048,0.171,0.146,0.171,0.254v12.483
				C28.719,13.007,28.594,13.118,28.44,13.118z M17.228,12.586h10.945V1.035L17.228,12.586z"/>
		</g>
	</g>
	<g>
		<linearGradient id="SVGID_5_" gradientUnits="userSpaceOnUse" x1="26.2734" y1="21.8926" x2="44.0611" y2="70.7639">
			<stop  offset="0" style="stop-color:#FFFFFF"/>
			<stop  offset="1" style="stop-color:#F5F5F6"/>
		</linearGradient>
		<polygon fill="url(#SVGID_5_)" points="63.638,29.018 34.594,46.215 6.697,29.018 6.697,63.638 63.638,63.638 		"/>
		<path fill="#9D9D9C" d="M64,64H6.335V28.381l28.26,17.404L64,28.386V64z M7.044,63.284h56.24V29.648L34.592,46.627l-0.186-0.111
			L7.044,29.66V63.284z"/>
	</g>
</g>
</svg>
