<?xml version="1.0" encoding="utf-8"?>
<!-- Generator: Adobe Illustrator 16.0.4, SVG Export Plug-In . SVG Version: 6.00 Build 0)  -->
<!DOCTYPE svg PUBLIC "-//W3C//DTD SVG 1.1//EN" "http://www.w3.org/Graphics/SVG/1.1/DTD/svg11.dtd">
<svg version="1.1" id="Ebene_1" xmlns="http://www.w3.org/2000/svg" xmlns:xlink="http://www.w3.org/1999/xlink" x="0px" y="0px"
	 width="64px" height="64px" viewBox="0 0 64 64" enable-background="new 0 0 64 64" xml:space="preserve">
<g>
	<g>
		
			<linearGradient id="SVGID_1_" gradientUnits="userSpaceOnUse" x1="63.3301" y1="2022.9404" x2="0.4785" y2="2022.9404" gradientTransform="matrix(1 0 0 -1 0 2063.7852)">
			<stop  offset="0" style="stop-color:#4FA44A"/>
			<stop  offset="1" style="stop-color:#2D8D4B"/>
		</linearGradient>
		<path fill-rule="evenodd" clip-rule="evenodd" fill="url(#SVGID_1_)" d="M0.478,38.938c0,8.57,6.943,15.613,15.509,15.613h31.835
			l-7.906,8.972H51.08l12.249-12.451L51.08,38.621H39.915l8.101,9.188l-32.029-0.059c-4.865,0-8.811-3.947-8.811-8.813v-5.253
			c0-4.868,4.416-8.78,9.281-8.78h22.545L39,18.164H16.457c-8.563,0-15.979,6.949-15.979,15.521V38.938z"/>
		<path fill="#266C31" d="M51.281,64H38.855l7.906-8.97H15.986C7.171,55.03,0,47.811,0,38.938v-5.253
			c0-8.671,7.535-15.998,16.457-15.998h23.021l0.002,7.695H16.457c-4.771,0-8.802,3.802-8.802,8.303v5.253
			c0,4.595,3.737,8.336,8.331,8.336l30.968,0.057l-8.099-9.188h12.426L64,51.071L51.281,64z M40.976,63.042h9.903l11.778-11.971
			L50.879,39.099h-9.903l8.102,9.19l-33.092-0.061c-5.121,0-9.288-4.167-9.288-9.291v-5.253c0-5.02,4.469-9.26,9.76-9.26h22.067
			l-0.002-5.78H16.457c-8.402,0-15.499,6.887-15.499,15.04v5.253c0,8.345,6.741,15.136,15.028,15.136h32.895L40.976,63.042z"/>
	</g>
	<g id="Datei_9_">
		<g>
			<linearGradient id="SVGID_2_" gradientUnits="userSpaceOnUse" x1="30.5645" y1="6.1807" x2="41.6414" y2="36.6142">
				<stop  offset="0" style="stop-color:#FFFFFF"/>
				<stop  offset="1" style="stop-color:#DBDDDE"/>
			</linearGradient>
			<rect x="18.38" y="10.615" fill="url(#SVGID_2_)" width="35.444" height="21.565"/>
			<path fill="#9D9D9C" d="M53.824,32.659H18.38l-0.478-0.479V10.615l0.478-0.479h35.444l0.478,0.479v21.565L53.824,32.659z
				 M18.858,31.703h34.486V11.094H18.858V31.703z"/>
		</g>
		<g>
			<linearGradient id="SVGID_3_" gradientUnits="userSpaceOnUse" x1="30.5645" y1="6.1807" x2="41.6414" y2="36.6142">
				<stop  offset="0" style="stop-color:#FFFFFF"/>
				<stop  offset="1" style="stop-color:#F4F4F6"/>
			</linearGradient>
			<polygon fill="url(#SVGID_3_)" points="53.824,10.615 35.747,21.325 18.38,10.615 18.38,32.181 53.824,32.181 			"/>
			<path fill="#9D9D9C" d="M53.824,32.659H18.38l-0.478-0.479V10.615l0.729-0.407l17.12,10.559l17.829-10.562l0.721,0.411v21.565
				L53.824,32.659z M18.858,31.703h34.486V11.455L35.99,21.735l-0.495-0.004l-16.637-10.26V31.703z"/>
		</g>
	</g>
</g>
</svg>
