<?xml version="1.0" encoding="utf-8"?>
<!-- Generator: Adobe Illustrator 16.0.4, SVG Export Plug-In . SVG Version: 6.00 Build 0)  -->
<!DOCTYPE svg PUBLIC "-//W3C//DTD SVG 1.1//EN" "http://www.w3.org/Graphics/SVG/1.1/DTD/svg11.dtd">
<svg version="1.1" id="Ebene_1" xmlns="http://www.w3.org/2000/svg" xmlns:xlink="http://www.w3.org/1999/xlink" x="0px" y="0px"
	 width="64px" height="64px" viewBox="0 0 64 64" enable-background="new 0 0 64 64" xml:space="preserve">
<g>
	<g>
		<g>
			<linearGradient id="SVGID_1_" gradientUnits="userSpaceOnUse" x1="23.1299" y1="18.0596" x2="23.1299" y2="63.6836">
				<stop  offset="0" style="stop-color:#C0AD8D"/>
				<stop  offset="1" style="stop-color:#9B8C74"/>
			</linearGradient>
			<rect x="0.321" y="18.06" fill-rule="evenodd" clip-rule="evenodd" fill="url(#SVGID_1_)" width="45.617" height="45.624"/>
			<path fill="#776559" d="M45.938,64H0.321L0,63.684V18.06l0.321-0.317h45.617l0.321,0.317v45.624L45.938,64z M0.639,63.361h44.983
				v-44.98H0.639V63.361z"/>
		</g>
		<g>
			<polygon fill-rule="evenodd" clip-rule="evenodd" fill="#9B8C74" points="45.938,18.164 0.321,18.164 20.594,5.496 63.683,5.496 
							"/>
			<path fill="#776559" d="M45.938,18.486H0.321l-0.167-0.587L20.426,5.222l0.168-0.047h43.089l0.182,0.579l-17.74,12.673
				L45.938,18.486z M1.429,17.848H45.84L62.688,5.813H20.686L1.429,17.848z"/>
		</g>
		<g>
			<polygon fill-rule="evenodd" clip-rule="evenodd" fill="#B09F83" points="63.683,51.011 45.938,63.684 45.938,18.06 63.683,5.39 
							"/>
			<path fill="#776559" d="M46.124,63.94l-0.502-0.257V18.06l0.131-0.257L63.498,5.131L64,5.39v45.621l-0.136,0.257L46.124,63.94z
				 M46.26,18.222v44.84l17.102-12.218V6.011L46.26,18.222z"/>
		</g>
	</g>
	<g>
		<linearGradient id="SVGID_2_" gradientUnits="userSpaceOnUse" x1="8.2236" y1="40.8711" x2="35.6611" y2="40.8711">
			<stop  offset="0" style="stop-color:#E50512"/>
			<stop  offset="1" style="stop-color:#C41726"/>
		</linearGradient>
		<path fill-rule="evenodd" clip-rule="evenodd" fill="url(#SVGID_2_)" d="M35.661,35.225v-1.477c0-4.602-2.063-6.904-6.188-6.904
			H17.032c-4.103,0-6.195,2.076-6.298,6.221h-0.011v0.722v2.209h-2.5v3.379h2.5v3.07h-2.5v3.379h2.5v2.542v0.312
			c0,4.146,1.905,6.222,5.706,6.222h0.603h8.381h4.061c4.124,0,6.188-2.306,6.188-6.908v-1.475h-4.63V48.8
			c0,0.794-0.376,1.185-1.138,1.185h-4.48H16.49c-0.799,0-1.201-0.516-1.201-1.555v-2.606h8.199v-3.379h-8.199v-3.07h8.199v-3.379
			h-8.199v-2.27v-0.911c0-0.704,0.324-1.054,0.966-1.054h13.639c0.762,0,1.138,0.395,1.138,1.178v2.286H35.661z"/>
		<path fill="#950E01" d="M29.474,55.325H16.43c-4.068,0-6.132-2.234-6.132-6.647v-2.429H7.803v-4.23h2.495V39.8H7.803v-4.228h2.495
			l0.032-2.932c0.232-4.129,2.486-6.221,6.702-6.221h12.441c4.386,0,6.618,2.467,6.618,7.328v1.905h-5.482v-2.715
			c0-0.549-0.196-0.757-0.716-0.757H16.255c-0.349,0-0.537,0.103-0.537,0.633v2.758h8.191V39.8h-8.191v2.219h8.191v4.23h-8.191
			v2.181c0,1.129,0.5,1.129,0.772,1.129h13.403c0.52,0,0.716-0.204,0.716-0.759v-2.706h5.482v1.897
			C36.092,52.856,33.859,55.325,29.474,55.325z M8.654,45.402h2.495v3.275c0,3.903,1.727,5.796,5.28,5.796h13.044
			c3.877,0,5.762-2.118,5.762-6.482v-1.048h-3.774V48.8c0,1.027-0.57,1.606-1.567,1.606H16.49c-0.604,0-1.622-0.251-1.622-1.977
			v-3.027h8.195V42.87h-8.195v-3.917h8.195v-2.532h-8.195v-3.606c0-0.939,0.504-1.479,1.387-1.479h13.639
			c0.997,0,1.567,0.582,1.567,1.604v1.863h3.774v-1.054c0-4.357-1.885-6.478-5.762-6.478H17.032c-3.859,0-5.779,1.897-5.875,5.806
			l-0.008,0.71v2.635H8.654v2.532h2.495v3.917H8.654V45.402z"/>
	</g>
</g>
</svg>
