<?xml version="1.0" encoding="utf-8"?>
<!-- Generator: Adobe Illustrator 16.0.4, SVG Export Plug-In . SVG Version: 6.00 Build 0)  -->
<!DOCTYPE svg PUBLIC "-//W3C//DTD SVG 1.1//EN" "http://www.w3.org/Graphics/SVG/1.1/DTD/svg11.dtd">
<svg version="1.1" id="Ebene_1" xmlns="http://www.w3.org/2000/svg" xmlns:xlink="http://www.w3.org/1999/xlink" x="0px" y="0px"
	 width="64px" height="64px" viewBox="0 0 64 64" enable-background="new 0 0 64 64" xml:space="preserve">
<g>
	<g>
		<g>
			<linearGradient id="SVGID_1_" gradientUnits="userSpaceOnUse" x1="23.1309" y1="18.0596" x2="23.1309" y2="63.6807">
				<stop  offset="0" style="stop-color:#C0AD8D"/>
				<stop  offset="1" style="stop-color:#9B8C74"/>
			</linearGradient>
			<rect x="0.319" y="18.06" fill-rule="evenodd" clip-rule="evenodd" fill="url(#SVGID_1_)" width="45.622" height="45.621"/>
			<path fill="#776559" d="M45.941,64H0.319L0,63.681V18.06l0.319-0.318h45.622l0.318,0.318v45.621L45.941,64z M0.637,63.363h44.986
				V18.378H0.637V63.363z"/>
		</g>
		<g>
			<polygon fill-rule="evenodd" clip-rule="evenodd" fill="#9B8C74" points="45.941,18.166 0.319,18.166 20.596,5.494 63.681,5.494 
							"/>
			<path fill="#776559" d="M45.941,18.485H0.319l-0.17-0.59L20.426,5.224l0.17-0.048h43.085l0.186,0.578L46.127,18.426
				L45.941,18.485z M1.429,17.849h44.41L62.688,5.812H20.687L1.429,17.849z"/>
		</g>
		<g>
			<polygon fill-rule="evenodd" clip-rule="evenodd" fill="#B09F83" points="63.681,51.009 45.941,63.681 45.941,18.06 
				63.681,5.388 			"/>
			<path fill="#776559" d="M46.127,63.939l-0.504-0.259V18.06l0.134-0.259L63.496,5.129L64,5.388v45.621l-0.134,0.26L46.127,63.939z
				 M46.26,18.224v44.839l17.104-12.218V6.007L46.26,18.224z"/>
		</g>
	</g>
	<g>
		<path fill="#FFDB00" d="M31.771,33.594c0.244,3.82-1.033,7.46-3.374,10.257c0.426-1.034,0.663-2.163,0.663-3.349
			c0-4.865-3.944-8.811-8.809-8.811c-4.867,0-8.811,3.945-8.811,8.811c0,0.865,0.13,1.701,0.364,2.491
			c-1.89-1.912-3.351-4.252-4.212-6.882H5.265c2.067,8.361,8.094,13.939,16.788,13.939c7.65,0,17.018-8.096,17.844-16.457H31.771z
			 M20.252,34.086c3.542,0,6.415,2.873,6.415,6.416c0,3.542-2.873,6.415-6.415,6.415c-3.544,0-6.415-2.873-6.415-6.415
			C13.837,36.959,16.708,34.086,20.252,34.086z"/>
		<path fill="#776559" d="M20.252,31.691c4.864,0,8.809,3.945,8.809,8.811c0,1.186-0.237,2.314-0.663,3.349
			c2.341-2.797,3.618-6.437,3.374-10.257h8.125c-0.826,8.361-10.193,16.457-17.844,16.457c-8.694,0-14.721-5.578-16.788-13.939
			h2.329c0.861,2.63,2.322,4.97,4.212,6.882c-0.234-0.79-0.364-1.626-0.364-2.491C11.441,35.637,15.385,31.691,20.252,31.691
			 M20.252,46.917c3.542,0,6.415-2.873,6.415-6.415c0-3.543-2.873-6.416-6.415-6.416c-3.544,0-6.415,2.873-6.415,6.416
			C13.837,44.044,16.708,46.917,20.252,46.917 M20.252,30.842c-5.232,0-9.507,4.182-9.655,9.38
			c-0.943-1.347-1.689-2.826-2.196-4.374l-0.19-0.586H7.594H5.265H4.18l0.261,1.054C6.698,45.448,13.282,50.9,22.053,50.9
			c8.415,0,17.847-8.692,18.688-17.224l0.093-0.933h-0.938h-8.125h-0.905l0.058,0.903c0.136,2.13-0.227,4.229-1.038,6.157
			C29.527,34.803,25.343,30.842,20.252,30.842L20.252,30.842z M20.252,46.067c-3.069,0-5.565-2.496-5.565-5.565
			s2.496-5.567,5.565-5.567c3.068,0,5.565,2.498,5.565,5.567S23.32,46.067,20.252,46.067L20.252,46.067z"/>
	</g>
</g>
</svg>
