<?xml version="1.0" encoding="utf-8"?>
<!-- Generator: Adobe Illustrator 16.0.4, SVG Export Plug-In . SVG Version: 6.00 Build 0)  -->
<!DOCTYPE svg PUBLIC "-//W3C//DTD SVG 1.1//EN" "http://www.w3.org/Graphics/SVG/1.1/DTD/svg11.dtd">
<svg version="1.1" id="Ebene_1" xmlns="http://www.w3.org/2000/svg" xmlns:xlink="http://www.w3.org/1999/xlink" x="0px" y="0px"
	 width="64px" height="64px" viewBox="0 0 64 64" enable-background="new 0 0 64 64" xml:space="preserve">
<g>
	<g>
		<g>
			<linearGradient id="SVGID_1_" gradientUnits="userSpaceOnUse" x1="23.1289" y1="18.0596" x2="23.1289" y2="63.6816">
				<stop  offset="0" style="stop-color:#C0AD8D"/>
				<stop  offset="1" style="stop-color:#9B8C74"/>
			</linearGradient>
			<rect x="0.318" y="18.06" fill-rule="evenodd" clip-rule="evenodd" fill="url(#SVGID_1_)" width="45.621" height="45.622"/>
			<path fill="#776559" d="M45.939,64H0.318L0,63.682V18.06l0.318-0.318h45.621l0.318,0.318v45.622L45.939,64z M0.638,63.362H45.62
				V18.379H0.638V63.362z"/>
		</g>
		<g>
			<polygon fill-rule="evenodd" clip-rule="evenodd" fill="#9B8C74" points="45.939,18.166 0.318,18.166 20.595,5.494 63.682,5.494 
							"/>
			<path fill="#776559" d="M45.939,18.484H0.318l-0.169-0.588L20.426,5.224l0.169-0.048h43.087l0.185,0.577L46.124,18.425
				L45.939,18.484z M1.429,17.847h44.408L62.688,5.812H20.686L1.429,17.847z"/>
		</g>
		<g>
			<polygon fill-rule="evenodd" clip-rule="evenodd" fill="#B09F83" points="63.682,51.008 45.939,63.682 45.939,18.06 
				63.682,5.388 			"/>
			<path fill="#776559" d="M46.124,63.94l-0.504-0.259V18.06l0.134-0.258L63.497,5.128L64,5.388v45.62l-0.134,0.259L46.124,63.94z
				 M46.258,18.224v44.839l17.104-12.219V6.006L46.258,18.224z"/>
		</g>
	</g>
	<g>
		<linearGradient id="SVGID_2_" gradientUnits="userSpaceOnUse" x1="8.2266" y1="40.8711" x2="35.6621" y2="40.8711">
			<stop  offset="0" style="stop-color:#4FA44A"/>
			<stop  offset="1" style="stop-color:#2D8D4B"/>
		</linearGradient>
		<path fill-rule="evenodd" clip-rule="evenodd" fill="url(#SVGID_2_)" d="M35.662,35.225v-1.477c0-4.604-2.062-6.904-6.19-6.904
			H17.034c-4.104,0-6.2,2.078-6.3,6.219h-0.01v0.722v2.212H8.227v3.379h2.498v3.066H8.227v3.381h2.498v2.543v0.312
			c0,4.147,1.903,6.22,5.707,6.22h0.603h8.382h4.056c4.128,0,6.19-2.302,6.19-6.905v-1.477h-4.628v2.287
			c0,0.788-0.38,1.182-1.142,1.182h-4.477h-8.924c-0.801,0-1.201-0.519-1.201-1.557v-2.605h8.196v-3.381h-8.196v-3.066h8.196v-3.379
			h-8.196v-2.272v-0.908c0-0.706,0.322-1.059,0.963-1.059h13.639c0.762,0,1.142,0.395,1.142,1.182v2.286H35.662z"/>
		<path fill="#266C31" d="M29.472,55.322h-13.04c-4.069,0-6.132-2.235-6.132-6.645v-2.431H7.802v-4.23H10.3V39.8H7.802v-4.229H10.3
			l0.027-2.933c0.235-4.128,2.49-6.221,6.707-6.221h12.438c4.39,0,6.616,2.467,6.616,7.33v1.902h-5.479v-2.712
			c0-0.552-0.193-0.757-0.717-0.757H16.254c-0.348,0-0.538,0.102-0.538,0.634v2.756h8.195V39.8h-8.195v2.217h8.195v4.23h-8.195
			v2.181c0,1.132,0.506,1.132,0.776,1.132h13.4c0.523,0,0.717-0.206,0.717-0.757v-2.712h5.479v1.901
			C36.088,52.856,33.861,55.322,29.472,55.322z M8.652,45.397h2.497v3.28c0,3.9,1.728,5.794,5.282,5.794h13.04
			c3.88,0,5.766-2.119,5.766-6.479V46.94H31.46v1.862c0,1.02-0.571,1.605-1.567,1.605h-13.4c-0.606,0-1.626-0.256-1.626-1.98v-3.03
			h8.196v-2.531h-8.196v-3.915h8.196v-2.53h-8.196v-3.605c0-0.942,0.506-1.482,1.388-1.482h13.639c0.996,0,1.567,0.584,1.567,1.605
			V34.8h3.777v-1.052c0-4.359-1.886-6.479-5.766-6.479H17.034c-3.859,0-5.781,1.898-5.875,5.804l-0.01,0.712v2.637H8.652v2.53h2.497
			v3.915H8.652V45.397z"/>
	</g>
</g>
</svg>
