<?xml version="1.0" encoding="utf-8"?>
<!-- Generator: Adobe Illustrator 16.0.4, SVG Export Plug-In . SVG Version: 6.00 Build 0)  -->
<!DOCTYPE svg PUBLIC "-//W3C//DTD SVG 1.1//EN" "http://www.w3.org/Graphics/SVG/1.1/DTD/svg11.dtd">
<svg version="1.1" id="Ebene_1" xmlns="http://www.w3.org/2000/svg" xmlns:xlink="http://www.w3.org/1999/xlink" x="0px" y="0px"
	 width="64px" height="64px" viewBox="0 0 64 64" enable-background="new 0 0 64 64" xml:space="preserve">
<g>
	<g>
		<g>
			<linearGradient id="SVGID_1_" gradientUnits="userSpaceOnUse" x1="23.1299" y1="18.0596" x2="23.1299" y2="63.6807">
				<stop  offset="0" style="stop-color:#C0AD8D"/>
				<stop  offset="1" style="stop-color:#9B8C74"/>
			</linearGradient>
			<rect x="0.319" y="18.06" fill-rule="evenodd" clip-rule="evenodd" fill="url(#SVGID_1_)" width="45.621" height="45.621"/>
			<path fill="#776559" d="M45.94,64H0.319L0,63.681V18.06l0.319-0.319H45.94l0.319,0.319v45.621L45.94,64z M0.637,63.363h44.986
				V18.377H0.637V63.363z"/>
		</g>
		<g>
			<polygon fill-rule="evenodd" clip-rule="evenodd" fill="#9B8C74" points="45.94,18.165 0.319,18.165 20.595,5.492 63.681,5.492 
							"/>
			<path fill="#776559" d="M45.94,18.484H0.319l-0.17-0.59L20.426,5.222l0.169-0.047h43.086l0.186,0.576l-17.74,12.673L45.94,18.484
				z M1.43,17.847h44.409L62.688,5.812H20.686L1.43,17.847z"/>
		</g>
		<g>
			<polygon fill-rule="evenodd" clip-rule="evenodd" fill="#B09F83" points="63.681,51.008 45.94,63.681 45.94,18.06 63.681,5.386 
							"/>
			<path fill="#776559" d="M46.126,63.939l-0.503-0.259V18.06l0.133-0.26l17.74-12.673L64,5.386v45.622l-0.134,0.259L46.126,63.939z
				 M46.26,18.224v44.839l17.104-12.22V6.005L46.26,18.224z"/>
		</g>
	</g>
	<g>
		
			<linearGradient id="SVGID_2_" gradientUnits="userSpaceOnUse" x1="-1856.3833" y1="-2094.3555" x2="-1844.3234" y2="-2061.2212" gradientTransform="matrix(0 1 -1 0 -2055.8457 1891.624)">
			<stop  offset="0" style="stop-color:#E73B2F"/>
			<stop  offset="1" style="stop-color:#C41726"/>
		</linearGradient>
		<polygon fill="url(#SVGID_2_)" points="30.604,56.88 37.554,49.932 28.893,41.271 37.554,32.61 30.604,25.66 21.943,34.321 
			13.283,25.66 6.334,32.61 14.994,41.271 6.334,49.932 13.283,56.88 21.943,48.22 		"/>
		<path fill="#950E01" d="M30.604,26.861l5.748,5.749l-8.061,8.06l-0.601,0.602l0.601,0.601l8.061,8.06l-5.748,5.747l-8.06-8.06
			l-0.602-0.602l-0.601,0.602l-8.06,8.06l-5.748-5.747l8.059-8.06l0.602-0.601l-0.602-0.602l-8.059-8.06l5.748-5.749l8.06,8.061
			l0.601,0.601l0.602-0.601L30.604,26.861 M30.604,25.66l-8.661,8.661l-8.66-8.661l-6.949,6.95l8.66,8.661l-8.66,8.66l6.949,6.948
			l8.66-8.66l8.661,8.66l6.949-6.948l-8.661-8.66l8.661-8.661L30.604,25.66L30.604,25.66z"/>
	</g>
</g>
</svg>
