<?xml version="1.0" encoding="utf-8"?>
<!-- Generator: Adobe Illustrator 16.0.4, SVG Export Plug-In . SVG Version: 6.00 Build 0)  -->
<!DOCTYPE svg PUBLIC "-//W3C//DTD SVG 1.1//EN" "http://www.w3.org/Graphics/SVG/1.1/DTD/svg11.dtd">
<svg version="1.1" id="Ebene_1" xmlns="http://www.w3.org/2000/svg" xmlns:xlink="http://www.w3.org/1999/xlink" x="0px" y="0px"
	 width="64px" height="64px" viewBox="0 0 64 64" enable-background="new 0 0 64 64" xml:space="preserve">
<g>
	<g>
		<g>
			<linearGradient id="SVGID_1_" gradientUnits="userSpaceOnUse" x1="18.9004" y1="7.5439" x2="67.813" y2="56.4565">
				<stop  offset="0" style="stop-color:#FFFFFF"/>
				<stop  offset="1" style="stop-color:#DCDDDE"/>
			</linearGradient>
			<path fill="url(#SVGID_1_)" d="M63.8,58.131c0,3.118-2.551,5.669-5.669,5.669H28.583c-3.118,0-5.669-2.551-5.669-5.669V5.869
				c0-3.118,2.551-5.669,5.669-5.669h29.548c3.118,0,5.669,2.551,5.669,5.669V58.131z"/>
		</g>
		<path fill="#3C3C3B" d="M59.257,64h-31.8c-2.615,0-4.743-2.128-4.743-4.743V4.743C22.714,2.128,24.842,0,27.457,0h31.8
			C61.872,0,64,2.128,64,4.743v54.514C64,61.872,61.872,64,59.257,64z M27.457,0.4c-2.395,0-4.342,1.948-4.342,4.343v54.514
			c0,2.395,1.947,4.343,4.342,4.343h31.8c2.395,0,4.343-1.948,4.343-4.343V4.743c0-2.395-1.948-4.343-4.343-4.343H27.457z"/>
	</g>
	<g>
		<rect x="49.433" y="0.2" fill="#6A6A6A" width="9.526" height="63.551"/>
		<path fill="#3C3C3B" d="M58.959,63.951h-9.526l-0.2-0.2V0.2l0.2-0.2h9.526l0.2,0.2v63.551L58.959,63.951z M49.633,63.551h9.126
			V0.4h-9.126V63.551z"/>
	</g>
	<rect x="37.68" y="0.401" fill="#D6D6D6" width="9.527" height="63.15"/>
	<g>
		<path fill="#6F6F6F" d="M44.268,8.242v0.969c0,0.455-0.067,0.784-0.203,0.987s-0.352,0.305-0.646,0.305
			c-0.203,0-0.371-0.057-0.503-0.17s-0.218-0.278-0.257-0.496h-0.023c-0.089,0.521-0.363,0.781-0.821,0.781
			c-0.307,0-0.545-0.104-0.717-0.312c-0.173-0.207-0.259-0.496-0.259-0.869V8.242H44.268z M42.462,8.641h-1.283v0.715
			c0,0.277,0.054,0.485,0.161,0.626c0.107,0.14,0.274,0.209,0.503,0.209c0.212,0,0.369-0.071,0.469-0.214
			c0.101-0.144,0.15-0.361,0.15-0.652V8.641z M42.8,8.641v0.656c0,0.282,0.044,0.484,0.133,0.607
			c0.088,0.124,0.236,0.187,0.446,0.187c0.192,0,0.332-0.069,0.416-0.207c0.086-0.138,0.129-0.356,0.129-0.657V8.641H42.8z"/>
		<path fill="#6F6F6F" d="M42.559,14.33c-0.549,0-0.98-0.138-1.296-0.416c-0.313-0.277-0.471-0.663-0.471-1.156
			c0-0.506,0.155-0.896,0.463-1.17c0.309-0.275,0.745-0.412,1.308-0.412c0.559,0,0.992,0.138,1.299,0.412
			c0.308,0.276,0.461,0.667,0.461,1.174c0,0.492-0.156,0.877-0.469,1.154C43.54,14.192,43.108,14.33,42.559,14.33z M42.559,11.598
			c-0.465,0-0.816,0.1-1.057,0.298c-0.24,0.197-0.361,0.484-0.361,0.862c0,0.379,0.121,0.666,0.36,0.86
			c0.238,0.193,0.592,0.29,1.058,0.29c0.461,0,0.811-0.096,1.049-0.289s0.358-0.479,0.358-0.857c0-0.38-0.12-0.669-0.36-0.866
			C43.365,11.697,43.016,11.598,42.559,11.598z"/>
		<path fill="#6F6F6F" d="M42.265,15.495h-1.426v-0.399h3.429v0.94c0,0.421-0.079,0.73-0.24,0.933
			c-0.161,0.2-0.404,0.301-0.729,0.301c-0.453,0-0.76-0.229-0.918-0.688l-1.542,0.931V17.04l1.426-0.83V15.495z M42.607,15.495
			v0.546c0,0.281,0.057,0.488,0.168,0.619s0.279,0.197,0.504,0.197c0.226,0,0.39-0.066,0.489-0.201
			c0.101-0.134,0.15-0.348,0.15-0.644v-0.518H42.607z"/>
		<path fill="#6F6F6F" d="M40.839,18.064h3.429v0.399h-3.429V18.064z"/>
		<path fill="#6F6F6F" d="M41.751,21.339c-0.302,0-0.536-0.109-0.705-0.328s-0.254-0.516-0.254-0.892
			c0-0.406,0.053-0.719,0.157-0.938h0.385c-0.06,0.142-0.106,0.295-0.142,0.46c-0.034,0.166-0.052,0.33-0.052,0.493
			c0,0.266,0.051,0.466,0.152,0.601c0.101,0.135,0.241,0.202,0.421,0.202c0.119,0,0.216-0.024,0.292-0.072s0.146-0.128,0.21-0.239
			c0.064-0.112,0.137-0.282,0.218-0.511c0.114-0.318,0.25-0.546,0.406-0.684c0.155-0.136,0.36-0.205,0.612-0.205
			c0.264,0,0.475,0.1,0.631,0.298s0.234,0.461,0.234,0.788c0,0.342-0.062,0.654-0.188,0.941l-0.347-0.125
			c0.118-0.282,0.178-0.558,0.178-0.825c0-0.212-0.045-0.376-0.136-0.495c-0.091-0.118-0.217-0.178-0.378-0.178
			c-0.119,0-0.216,0.021-0.292,0.065s-0.146,0.117-0.209,0.222c-0.063,0.104-0.133,0.263-0.21,0.478
			c-0.128,0.358-0.266,0.606-0.412,0.742C42.177,21.271,41.986,21.339,41.751,21.339z"/>
		<path fill="#6F6F6F" d="M40.839,24.344v-0.398h3.075v-1.086h0.354v2.57h-0.354v-1.086H40.839z"/>
		<path fill="#6F6F6F" d="M40.839,27.857v-1.911h3.429v1.911h-0.354v-1.513H42.81v1.422h-0.353v-1.422h-1.262v1.513H40.839z"/>
		<path fill="#6F6F6F" d="M41.751,30.553c-0.302,0-0.536-0.109-0.705-0.329c-0.169-0.218-0.254-0.516-0.254-0.891
			c0-0.407,0.053-0.72,0.157-0.938h0.385c-0.06,0.141-0.106,0.294-0.142,0.459c-0.034,0.166-0.052,0.331-0.052,0.493
			c0,0.267,0.051,0.467,0.152,0.602c0.101,0.134,0.241,0.201,0.421,0.201c0.119,0,0.216-0.024,0.292-0.071
			c0.076-0.048,0.146-0.128,0.21-0.24c0.064-0.111,0.137-0.281,0.218-0.51c0.114-0.319,0.25-0.546,0.406-0.684
			c0.155-0.137,0.36-0.205,0.612-0.205c0.264,0,0.475,0.099,0.631,0.298c0.156,0.198,0.234,0.461,0.234,0.788
			c0,0.341-0.062,0.654-0.188,0.94l-0.347-0.124c0.118-0.283,0.178-0.559,0.178-0.826c0-0.211-0.045-0.375-0.136-0.494
			s-0.217-0.179-0.378-0.179c-0.119,0-0.216,0.022-0.292,0.065c-0.076,0.044-0.146,0.118-0.209,0.222
			c-0.063,0.104-0.133,0.263-0.21,0.478c-0.128,0.359-0.266,0.606-0.412,0.742C42.177,30.484,41.986,30.553,41.751,30.553z"/>
		<path fill="#6F6F6F" d="M40.839,33.73v-0.469l1.663-1.25l-0.318-0.359h-1.345v-0.398h3.429v0.398h-1.7l1.7,1.556v0.471
			L42.779,32.3L40.839,33.73z"/>
		<path fill="#6F6F6F" d="M42.559,37.179c-0.549,0-0.98-0.139-1.296-0.417c-0.313-0.276-0.471-0.663-0.471-1.157
			c0-0.505,0.155-0.895,0.463-1.17c0.309-0.273,0.745-0.411,1.308-0.411c0.559,0,0.992,0.138,1.299,0.413
			c0.308,0.275,0.461,0.667,0.461,1.173c0,0.492-0.156,0.877-0.469,1.154C43.54,37.041,43.108,37.179,42.559,37.179z M42.559,34.445
			c-0.465,0-0.816,0.099-1.057,0.298c-0.24,0.197-0.361,0.485-0.361,0.861c0,0.38,0.121,0.667,0.36,0.861
			c0.238,0.193,0.592,0.29,1.058,0.29c0.461,0,0.811-0.097,1.049-0.29c0.238-0.192,0.358-0.479,0.358-0.856
			c0-0.38-0.12-0.669-0.36-0.866C43.365,34.544,43.016,34.445,42.559,34.445z"/>
		<path fill="#6F6F6F" d="M40.839,40.936v-0.394l2.296-0.692c0.102-0.032,0.23-0.068,0.385-0.109
			c0.155-0.041,0.248-0.062,0.279-0.064c-0.206-0.034-0.433-0.089-0.678-0.164l-2.282-0.67v-0.395l3.429-0.912v0.423l-2.117,0.541
			c-0.297,0.075-0.566,0.13-0.808,0.164c0.286,0.043,0.566,0.105,0.841,0.188l2.084,0.614v0.422l-2.104,0.645
			c-0.242,0.075-0.516,0.14-0.821,0.19c0.223,0.03,0.493,0.087,0.812,0.169l2.112,0.539v0.423L40.839,40.936z"/>
	</g>
	<g>
		<g>
			<rect x="27.355" y="52.496" fill="#BE1622" width="6.814" height="6.814"/>
		</g>
		<path fill="#FFFFFF" d="M30.146,57.366c-0.045-0.021-0.148-0.089-0.081-0.113c0.041-0.015,0.455,0.054,0.545,0.05
			c0,0,0.445,0.013,0.675-0.241c0,0,0.085-0.093-0.051-0.068c-0.131,0.025-0.389-0.024-0.464-0.081
			c-0.073-0.058-0.025-0.097,0.037-0.094c0.061,0.004,1.11-0.021,1.301-0.484c0.028-0.073-0.009-0.103-0.125-0.033
			c-0.036,0.021-0.206,0.075-0.371,0.028c0,0-0.111-0.028,0.013-0.081c0.107-0.044,0.211-0.056,0.338-0.122
			c0.337-0.178,0.543-0.337,0.82-0.441c0.053-0.03,0.299-0.121,0.039-0.186c-0.148-0.038-0.447,0-0.412-0.004
			c0,0-0.366,0.042-0.471-0.016c-0.087-0.049,0-0.11,0-0.11c0.07-0.062,0.129-0.134,0.155-0.185c0.024-0.05,0.068-0.096,0.092-0.118
			c0,0,0.074-0.069-0.032-0.052c-0.106,0.02-0.558,0.301-1.023,0.049c0,0-0.122-0.045-0.013-0.107
			c0.106-0.063,0.252-0.154,0.351-0.37c0,0,0.079-0.145-0.089-0.071c-0.209,0.091-0.198,0.189-0.738,0.179
			c-0.1-0.001-0.356-0.066-0.294-0.127c0.072-0.067,0.22-0.193,0.233-0.268s-0.045-0.071-0.081-0.038
			c-0.036,0.035-0.298,0.184-0.786,0.164c-0.49-0.019-0.987,0.074-1.183,0.706h-0.035v-0.345h-0.174v2.14h0.174v-0.323h0.035
			c0,0,0.585,1.148,1.64,0.807C30.17,57.409,30.211,57.395,30.146,57.366z"/>
	</g>
</g>
</svg>
