<?xml version="1.0" encoding="utf-8"?>
<!-- Generator: Adobe Illustrator 16.0.4, SVG Export Plug-In . SVG Version: 6.00 Build 0)  -->
<!DOCTYPE svg PUBLIC "-//W3C//DTD SVG 1.1//EN" "http://www.w3.org/Graphics/SVG/1.1/DTD/svg11.dtd">
<svg version="1.1" id="Ebene_1" xmlns="http://www.w3.org/2000/svg" xmlns:xlink="http://www.w3.org/1999/xlink" x="0px" y="0px"
	 width="64px" height="64px" viewBox="0 0 64 64" enable-background="new 0 0 64 64" xml:space="preserve">
<g>
	<g>
		<linearGradient id="SVGID_1_" gradientUnits="userSpaceOnUse" x1="39.4941" y1="24.8486" x2="39.4941" y2="17.7002">
			<stop  offset="0" style="stop-color:#909094"/>
			<stop  offset="1" style="stop-color:#3C3C3B"/>
		</linearGradient>
		<path fill="url(#SVGID_1_)" d="M54.671,24.849l-1.83-7.148H26.156l-1.84,7.148H54.671z"/>
		<path fill="#20201D" d="M54.671,25.189H24.316l-0.329-0.421l1.84-7.155l0.329-0.254h26.685l0.322,0.255L55,24.77L54.671,25.189z
			 M24.752,24.515h29.483l-1.658-6.48H26.413L24.752,24.515z"/>
	</g>
	<path fill="#20201D" d="M5.051,27.673v-2.747c0-1.565,0.565-2.832,2.13-2.832h1.412c1.563,0,2.126,1.267,2.126,2.832v2.747"/>
	<g>
		<linearGradient id="SVGID_2_" gradientUnits="userSpaceOnUse" x1="15.54" y1="44.2539" x2="0.3408" y2="44.2539">
			<stop  offset="0" style="stop-color:#89898C"/>
			<stop  offset="1" style="stop-color:#3C3C3B"/>
		</linearGradient>
		<path fill="url(#SVGID_2_)" d="M15.54,24.849H0.341v38.811H15.54V24.849z"/>
		<path fill="#20201D" d="M15.54,64H0.341L0,63.659V24.849l0.341-0.334H15.54l0.341,0.334v38.811L15.54,64z M0.675,63.325h14.531
			V25.189H0.675V63.325z"/>
	</g>
	<g>
		<linearGradient id="SVGID_3_" gradientUnits="userSpaceOnUse" x1="63.6592" y1="44.2539" x2="15.54" y2="44.2539">
			<stop  offset="0" style="stop-color:#AAA9A9"/>
			<stop  offset="1" style="stop-color:#3C3C3B"/>
		</linearGradient>
		<rect x="15.54" y="24.849" fill="url(#SVGID_3_)" width="48.119" height="38.811"/>
		<path fill="#20201D" d="M63.659,64H15.54l-0.334-0.341V24.849l0.334-0.334h48.119L64,24.849v38.811L63.659,64z M15.881,63.325
			h47.444V25.189H15.881V63.325z"/>
	</g>
	<g>
		<linearGradient id="SVGID_4_" gradientUnits="userSpaceOnUse" x1="26.4863" y1="44.4053" x2="52.5039" y2="44.4053">
			<stop  offset="0" style="stop-color:#FFFFFF"/>
			<stop  offset="1" style="stop-color:#DBDDDE"/>
		</linearGradient>
		<path fill="url(#SVGID_4_)" d="M52.504,44.406c0,7.188-5.826,13.004-13.008,13.004c-7.185,0-13.01-5.816-13.01-13.004
			c0-7.187,5.825-13.005,13.01-13.005C46.678,31.401,52.504,37.22,52.504,44.406z"/>
		<path fill="#20201D" d="M39.496,31.401c7.182,0,13.008,5.818,13.008,13.005c0,7.188-5.826,13.004-13.008,13.004
			c-7.185,0-13.01-5.816-13.01-13.004C26.486,37.22,32.312,31.401,39.496,31.401 M39.496,29.594
			c-8.165,0-14.812,6.645-14.812,14.812c0,8.166,6.646,14.812,14.812,14.812c8.164,0,14.81-6.646,14.81-14.812
			C54.306,36.238,47.66,29.594,39.496,29.594L39.496,29.594z"/>
	</g>
	<g>
		<path fill="#FFFFFF" d="M33.787,22.715h-0.905v-3.418h2.02v0.739h-1.114v0.654h1.025v0.739h-1.025V22.715z"/>
		<path fill="#FFFFFF" d="M36.683,22.76c-0.44,0-0.779-0.116-1.026-0.354c-0.246-0.234-0.367-0.563-0.367-1
			c0-0.443,0.117-0.79,0.342-1.027c0.223-0.238,0.546-0.357,0.963-0.357c0.401,0,0.708,0.103,0.929,0.312
			c0.214,0.203,0.321,0.508,0.321,0.894v0.409h-1.627c0.002,0.145,0.06,0.266,0.159,0.345c0.1,0.087,0.24,0.127,0.415,0.127
			c0.164,0,0.307-0.015,0.442-0.044c0.136-0.033,0.284-0.084,0.438-0.158v0.659c-0.141,0.074-0.289,0.123-0.444,0.153
			C37.079,22.744,36.897,22.76,36.683,22.76z M36.63,20.643c-0.105,0-0.198,0.031-0.271,0.099c-0.074,0.068-0.114,0.173-0.128,0.32
			h0.788c-0.003-0.128-0.043-0.228-0.112-0.306C36.842,20.678,36.746,20.643,36.63,20.643z"/>
		<path fill="#FFFFFF" d="M40.246,22.715l-0.113-0.331H40.08c-0.078,0.121-0.183,0.211-0.319,0.275
			c-0.138,0.064-0.295,0.101-0.479,0.101c-0.294,0-0.518-0.087-0.684-0.254c-0.159-0.167-0.242-0.411-0.242-0.719v-1.72h0.917v1.446
			c0,0.171,0.021,0.302,0.071,0.393c0.051,0.086,0.127,0.128,0.244,0.128c0.154,0,0.265-0.062,0.332-0.186
			c0.067-0.123,0.104-0.328,0.104-0.627v-1.154h0.91v2.647H40.246z"/>
		<path fill="#FFFFFF" d="M42.844,22.76c-0.438,0-0.784-0.116-1.027-0.354c-0.243-0.234-0.364-0.563-0.364-1
			c0-0.443,0.111-0.79,0.335-1.027c0.229-0.238,0.553-0.357,0.97-0.357c0.399,0,0.708,0.103,0.922,0.312
			c0.221,0.203,0.327,0.508,0.327,0.894v0.409h-1.633c0.007,0.145,0.06,0.266,0.159,0.345c0.106,0.087,0.247,0.127,0.422,0.127
			c0.157,0,0.307-0.015,0.442-0.044c0.135-0.033,0.277-0.084,0.438-0.158v0.659c-0.146,0.074-0.296,0.123-0.444,0.153
			C43.235,22.744,43.054,22.76,42.844,22.76z M42.786,20.643c-0.105,0-0.192,0.031-0.265,0.099c-0.074,0.068-0.115,0.173-0.128,0.32
			h0.781c-0.003-0.128-0.036-0.228-0.106-0.306S42.906,20.643,42.786,20.643z"/>
		<path fill="#FFFFFF" d="M46.118,20.021c0.081,0,0.157,0.008,0.226,0.015l0.055,0.01l-0.084,0.86
			c-0.076-0.014-0.177-0.024-0.31-0.024c-0.201,0-0.348,0.044-0.435,0.138c-0.093,0.088-0.137,0.22-0.137,0.389v1.307h-0.91v-2.647
			h0.679l0.142,0.421h0.045c0.078-0.142,0.183-0.254,0.319-0.336C45.844,20.063,45.978,20.021,46.118,20.021z"/>
	</g>
	<linearGradient id="SVGID_5_" gradientUnits="userSpaceOnUse" x1="60.2197" y1="29.0312" x2="62.959" y2="29.0312">
		<stop  offset="0" style="stop-color:#E73B2F"/>
		<stop  offset="1" style="stop-color:#C41726"/>
	</linearGradient>
	<rect x="60.22" y="28.031" fill="url(#SVGID_5_)" width="2.739" height="2"/>
</g>
</svg>
