<?xml version="1.0" encoding="utf-8"?>
<!-- Generator: Adobe Illustrator 16.0.4, SVG Export Plug-In . SVG Version: 6.00 Build 0)  -->
<!DOCTYPE svg PUBLIC "-//W3C//DTD SVG 1.1//EN" "http://www.w3.org/Graphics/SVG/1.1/DTD/svg11.dtd">
<svg version="1.1" id="Ebene_1" xmlns="http://www.w3.org/2000/svg" xmlns:xlink="http://www.w3.org/1999/xlink" x="0px" y="0px"
	 width="64px" height="64px" viewBox="0 0 64 64" enable-background="new 0 0 64 64" xml:space="preserve">
<g>
	<g>
		<g>
			<g>
				<g>
					<linearGradient id="SVGID_1_" gradientUnits="userSpaceOnUse" x1="25.9619" y1="11.4287" x2="40.3084" y2="25.7752">
						<stop  offset="0.3103" style="stop-color:#E30613"/>
						<stop  offset="1" style="stop-color:#BE1622"/>
					</linearGradient>
					<path fill="url(#SVGID_1_)" d="M33.291,24.699c5.761,0,10.776-1.891,12.305-4.388c-1.879-3.039-3.695-5.975-5.337-8.626
						c-1.373,1.282-3.948,2.134-6.968,2.134c-3.261,0-5.999-0.988-7.271-2.45c-1.609,2.608-3.399,5.508-5.263,8.523
						C21.956,22.595,27.209,24.699,33.291,24.699z"/>
					<path fill="#801D18" d="M26.093,12.02c1.498,1.369,4.188,2.204,7.198,2.204c2.797,0,5.317-0.714,6.872-1.927
						c1.536,2.481,3.217,5.198,4.954,8.009c-1.638,2.324-6.536,3.99-11.826,3.99c-5.641,0-10.757-1.869-12.074-4.379l0.599-0.97
						C23.318,16.515,24.764,14.174,26.093,12.02 M26.02,11.369c-1.609,2.608-3.399,5.508-5.263,8.523
						c1.199,2.702,6.452,4.807,12.534,4.807c5.761,0,10.776-1.891,12.305-4.388c-1.879-3.039-3.695-5.975-5.337-8.626
						c-1.373,1.282-3.948,2.134-6.968,2.134C30.03,13.819,27.292,12.831,26.02,11.369L26.02,11.369z"/>
				</g>
				<g>
					
						<linearGradient id="SVGID_2_" gradientUnits="userSpaceOnUse" x1="22.6934" y1="-1089.5933" x2="43.6892" y2="-1110.5891" gradientTransform="matrix(1 0 0 -1 -0.0552 -1071.1406)">
						<stop  offset="0.3103" style="stop-color:#E30613"/>
						<stop  offset="1" style="stop-color:#BE1622"/>
					</linearGradient>
					<path fill="url(#SVGID_2_)" d="M33.291,37.565c8.79,0,16.441-2.942,18.754-6.829c-1.895-3.063-3.857-6.235-5.772-9.33
						c-2.016,2.682-7,4.539-12.981,4.539c-6.251,0-11.419-2.028-13.238-4.907c-1.891,3.06-3.84,6.213-5.742,9.285
						C16.313,34.41,24.19,37.565,33.291,37.565z"/>
					<path fill="#801D18" d="M20.075,21.769c2.199,2.8,7.279,4.58,13.216,4.58c5.618,0,10.599-1.653,12.934-4.251l0.395,0.637
						c1.65,2.665,3.325,5.371,4.95,8.001c-2.436,3.736-10.049,6.427-18.278,6.427c-8.513,0-16.396-2.918-18.517-6.82
						C16.531,27.504,18.325,24.601,20.075,21.769 M20.053,21.038c-1.891,3.06-3.84,6.213-5.742,9.285
						c2.003,4.087,9.88,7.242,18.98,7.242c8.79,0,16.441-2.942,18.754-6.829c-1.895-3.063-3.857-6.235-5.772-9.33
						c-2.016,2.682-7,4.539-12.981,4.539C27.04,25.945,21.872,23.917,20.053,21.038L20.053,21.038z"/>
				</g>
				<g>
					<linearGradient id="SVGID_3_" gradientUnits="userSpaceOnUse" x1="28.8525" y1="4.1807" x2="37.469" y2="12.7971">
						<stop  offset="0.3103" style="stop-color:#E30613"/>
						<stop  offset="1" style="stop-color:#BE1622"/>
					</linearGradient>
					<path fill="url(#SVGID_3_)" d="M33.291,12.573c2.997,0,5.321-0.88,6.327-1.927C35.768,4.422,33.033,0,33.033,0
						s-2.615,4.241-6.354,10.303C27.467,11.49,29.962,12.573,33.291,12.573z"/>
					<path fill="#801D18" d="M33.034,0.768l6.066,9.81c-0.925,0.776-2.898,1.592-5.81,1.592c-3.005,0-5.28-0.921-6.123-1.89
						L33.034,0.768 M33.033,0c0,0-2.615,4.241-6.354,10.303c0.787,1.188,3.282,2.271,6.611,2.271c2.997,0,5.321-0.88,6.327-1.927
						C35.768,4.422,33.033,0,33.033,0L33.033,0z"/>
				</g>
				<g>
					
						<linearGradient id="SVGID_4_" gradientUnits="userSpaceOnUse" x1="19.335" y1="-1096.9438" x2="47.0437" y2="-1124.6526" gradientTransform="matrix(1 0 0 -1 -0.0552 -1071.1406)">
						<stop  offset="0.3103" style="stop-color:#E30613"/>
						<stop  offset="1" style="stop-color:#BE1622"/>
					</linearGradient>
					<path fill="url(#SVGID_4_)" d="M33.291,51.324c12.753,0,23.322-4.561,25.017-10.463c-1.138-1.839-2.955-4.78-5.566-8.997
						c-2.805,4.093-10.349,6.952-19.45,6.952c-9.378,0-17.107-3.038-19.698-7.326c-1.924,3.108-3.781,6.106-5.456,8.81
						C9.296,46.47,20.131,51.324,33.291,51.324z"/>
					<path fill="#801D18" d="M13.604,32.239c3.016,4.198,10.792,6.98,19.687,6.98c8.704,0,16.219-2.588,19.421-6.636l3.746,6.054
						l1.411,2.281c-1.82,5.714-12.322,10.002-24.578,10.002c-12.648,0-23.447-4.619-24.727-10.544l1.057-1.705L13.604,32.239
						 M13.593,31.49c-1.924,3.108-3.781,6.106-5.456,8.81c1.159,6.17,11.994,11.024,25.154,11.024
						c12.753,0,23.322-4.561,25.017-10.463c-1.138-1.839-2.955-4.78-5.566-8.997c-2.805,4.093-10.349,6.952-19.45,6.952
						C23.913,38.816,16.184,35.778,13.593,31.49L13.593,31.49z"/>
				</g>
				<g>
					
						<linearGradient id="SVGID_5_" gradientUnits="userSpaceOnUse" x1="15.9951" y1="-1104.1465" x2="50.1002" y2="-1138.2516" gradientTransform="matrix(1 0 0 -1 -0.0552 -1071.1406)">
						<stop  offset="0.3103" style="stop-color:#E30613"/>
						<stop  offset="1" style="stop-color:#BE1622"/>
					</linearGradient>
					<path fill="url(#SVGID_5_)" d="M63.363,49.036c-0.896-1.447-2.398-3.878-4.272-6.908c-2.571,6.041-12.982,10.44-25.8,10.44
						c-13.161,0-23.779-4.634-25.99-10.923c-1.862,3-3.456,5.564-4.601,7.391C-1.59,55.886,16.279,64,33.033,64
						C49.785,64,67.616,55.913,63.363,49.036z"/>
					<path fill="#801D18" d="M7.225,42.532c2.852,6.185,13.365,10.44,26.066,10.44c12.266,0,22.703-4.079,25.845-10.004
						c1.693,2.738,3.051,4.934,3.885,6.28c0.765,1.236,0.765,2.558,0,3.93c-3.093,5.55-17.105,10.418-29.987,10.418
						c-12.908,0-26.932-4.878-30.011-10.438c-0.756-1.365-0.749-2.68,0.02-3.907C4.1,47.562,5.543,45.243,7.225,42.532
						 M7.301,41.646c-1.862,3-3.456,5.564-4.601,7.391C-1.59,55.886,16.279,64,33.033,64c16.752,0,34.583-8.087,30.33-14.964
						c-0.896-1.447-2.398-3.878-4.272-6.908c-2.571,6.041-12.982,10.44-25.8,10.44C20.13,52.568,9.512,47.935,7.301,41.646
						L7.301,41.646z"/>
				</g>
			</g>
		</g>
	</g>
</g>
</svg>
