<?xml version="1.0" encoding="utf-8"?>
<!-- Generator: Adobe Illustrator 16.0.4, SVG Export Plug-In . SVG Version: 6.00 Build 0)  -->
<!DOCTYPE svg PUBLIC "-//W3C//DTD SVG 1.1//EN" "http://www.w3.org/Graphics/SVG/1.1/DTD/svg11.dtd">
<svg version="1.1" id="Ebene_1" xmlns="http://www.w3.org/2000/svg" xmlns:xlink="http://www.w3.org/1999/xlink" x="0px" y="0px"
	 width="64px" height="64px" viewBox="0 0 64 64" enable-background="new 0 0 64 64" xml:space="preserve">
<g>
	<g>
		<path id="path3093_2_" fill="#585756" d="M0.056,0.055V21.35H21.35V0.055H0.056L0.056,0.055z M24.396,0.055v6.087h3.042V3.097
			h3.039V0.055H24.396L24.396,0.055z M30.478,3.097v3.045h3.047V3.097H30.478L30.478,3.097z M33.524,6.142v3.04h6.081V0.055h-3.04
			v6.087H33.524L33.524,6.142z M33.524,9.182h-9.128v3.041h6.081v3.047h-3.039v3.039h3.039v3.041h3.047v-3.041h3.041v3.041h-3.041
			v3.047h-3.047v3.041h6.088v3.04h3.04V15.27h-3.04v-3.047h-3.041V9.182L33.524,9.182z M36.565,30.478h-3.041v3.045h-3.047v6.083
			h3.047v6.088h-6.086V42.65h3.039v-3.045h-3.039v-6.083h-3.042v-3.045h3.042v3.045h3.039v-6.085h-6.081v-3.041H15.27v3.041h-3.045
			v3.04H9.183v-3.04h3.042v-3.041H6.143v3.041H3.096v9.127h3.047v-3.042h9.127v-3.045h3.04v-3.04h3.04v3.04h-3.04v3.045h3.04v3.042
			h-3.04v3.041h6.087v9.127h3.042v3.045h9.127v3.041h-9.127v-3.041h-3.042v6.083h3.042v3.046h-3.042v3.039h6.081v-3.039h3.047v3.039
			h12.168v-3.039h3.041v3.039h9.128v-3.039h-6.084V57.86h-3.044v-3.042h-3.041v3.042h-6.087v3.046h-3.04V57.86h3.04v-9.128h3.045
			v-3.039h-6.085V42.65h3.04v-9.128h-3.04V30.478L36.565,30.478z M45.692,54.818v-3.041H42.65v3.041H45.692L45.692,54.818z
			 M51.777,57.86h6.084v-3.042h-6.084V57.86L51.777,57.86z M57.861,54.818h3.045V42.65h-9.129v-3.045h-3.044v3.045h-3.041v6.082
			h3.041v-3.039h3.044v6.084h6.084V54.818L57.861,54.818z M48.733,39.605v-3.041H42.65v3.041H48.733L48.733,39.605z M51.777,39.605
			h3.042v-9.128h3.042v3.045h3.045v3.042h3.04v-6.087h-3.04v-3.04h3.04v-3.041h-6.085v3.041h-3.042v-3.041h-3.042v3.041h-3.044v3.04
			h3.044V39.605L51.777,39.605z M48.733,30.478h-3.041v3.045h3.041V30.478L48.733,30.478z M60.906,36.564h-3.045v3.041h3.045V36.564
			L60.906,36.564z M18.31,36.564v-3.042h-3.04v3.042H18.31L18.31,36.564z M15.27,36.564H6.143v3.041h9.127V36.564L15.27,36.564z
			 M3.096,36.564h-3.04v3.041h3.04V36.564L3.096,36.564z M3.096,27.438v-3.041h-3.04v3.041H3.096L3.096,27.438z M24.396,24.396
			h3.042v-6.088h-3.042V24.396L24.396,24.396z M42.65,0.055V21.35h21.296V0.055H42.65L42.65,0.055z M3.096,3.097H18.31v15.212H3.096
			V3.097L3.096,3.097z M45.692,3.097h15.214v15.212H45.692V3.097L45.692,3.097z M6.143,6.142v9.128h9.127V6.142H6.143L6.143,6.142z
			 M48.733,6.142v9.128h9.128V6.142H48.733L48.733,6.142z M42.65,24.396v3.041h3.042v-3.041H42.65L42.65,24.396z M0.056,42.65
			v21.295H21.35V42.65H0.056L0.056,42.65z M3.096,45.693H18.31v15.213H3.096V45.693L3.096,45.693z M6.143,48.732v9.128h9.127v-9.128
			H6.143L6.143,48.732z M60.906,57.86v3.046h3.04V57.86H60.906L60.906,57.86z"/>
		<path fill="#20201D" d="M57.915,64h-9.236v-3.04h-2.933V64H33.468v-3.04h-2.936V64h-6.189v-3.153h3.04v-2.933h-3.04v-6.195h3.04
			v-2.932h-3.04v-9.128h-6.087v-3.04h-2.932v3.04H6.089v-3.04H3.155v3.04H0v-3.148h3.041v-9.019H0v-3.149h3.155v3.04h2.934v-3.04
			h6.192v3.04h2.935v-3.04h9.127v-6.087h3.04v-3.041h3.042v-2.934h-6.082V9.127h9.125V6.195h-3.043V3.156h-2.933v3.039h-3.149V0
			h6.189v3.042h3.045v3.046h2.934V0h3.148v9.236h-6.082v2.932h3.042v3.047h3.04v15.316h-3.04v2.937h3.04v9.237h-3.04v2.934h6.086
			v3.148h-3.046v9.02h5.979v-2.934h-3.046v-3.154h3.153v3.045h3.042v3.043h2.932v-3.043h6.088v-2.932H51.72v-6.085h-2.932v3.04
			h-3.149v-6.194h3.04v-2.934h-6.086v-3.148h6.195v3.04h2.932v-9.02h-2.932v3.045h-3.149v-3.152h3.04v-3.041h3.041v-3.04h3.155v3.04
			h2.933v-3.04H64v3.149h-3.039v2.932H64v6.195h-3.039v3.04h-3.153v-3.148h3.039v-2.935h-3.039v-3.045h-2.933v9.128h-3.042v2.934
			h9.128v12.28h-3.046v3.041h-6.082v2.933h6.082V64L57.915,64z M48.788,63.892h9.02V60.96H51.72v-3.046h-3.041v-3.041h-2.933v3.041
			h-6.087v3.046h-3.148v-3.153h3.041v-9.128h3.041v-2.932h-6.082v-3.154h3.041v-9.017h-3.041v-3.045h-2.934v3.045h-3.045v5.975
			h3.045v6.196h-6.194v-3.154h3.042v-2.934h-3.042v-6.083h-3.04v-3.152h3.149v3.044h2.933v-5.976h-6.082v-3.041h-9.019v3.041h-3.043
			v3.039H9.128v-3.148h3.041v-2.932H6.196v3.041H3.155v9.019h2.934v-3.043h9.127v-3.044h3.04v-3.041h3.15v3.148h-3.042v2.937h3.042
			v3.151h-3.042v2.932h6.086v9.128h3.042v3.04h9.127v3.154h-9.236v-3.041H24.45v5.975h3.042v3.153H24.45v2.932h5.975v-3.045h3.152
			v3.045h12.062v-3.045h3.149V63.892L48.788,63.892z M36.619,60.847h2.933v-2.933h-2.933V60.847L36.619,60.847z M51.833,57.807
			h5.975v-2.934h-5.975V57.807L51.833,57.807z M57.915,54.764h2.932V42.705H51.72v-3.046h-2.932v3.046h-3.042v5.974h2.933v-3.04
			h3.154v6.08h6.082V54.764L57.915,54.764z M42.705,54.764h2.934v-2.932h-2.934V54.764L42.705,54.764z M27.492,54.764h9.019v-2.932
			h-9.019V54.764L27.492,54.764z M27.492,45.639h5.976v-5.979h-2.936v3.046h-3.04V45.639L27.492,45.639z M57.915,39.551h2.932
			v-2.932h-2.932V39.551L57.915,39.551z M51.833,39.551h2.933v-9.127h3.149v3.044h3.046v3.043h2.932v-5.979h-3.046v-3.148h3.046
			v-2.932h-5.978v3.041h-3.149v-3.041h-2.933v3.041h-3.045v2.932h3.045V39.551L51.833,39.551z M42.705,39.551h5.974v-2.932h-5.974
			V39.551L42.705,39.551z M27.492,39.551h2.933v-5.975h-2.933V39.551L27.492,39.551z M6.196,39.551h9.02v-2.932h-9.02V39.551
			L6.196,39.551z M0.108,39.551h2.933v-2.932H0.108V39.551L0.108,39.551z M18.364,36.511h2.932v-2.935h-2.932V36.511L18.364,36.511z
			 M15.324,36.511h2.932v-2.935h-2.932V36.511L15.324,36.511z M6.196,36.511h9.02v-2.935h-9.02V36.511L6.196,36.511z M45.746,33.468
			h2.933v-2.937h-2.933V33.468L45.746,33.468z M30.532,33.468h2.936v-3.044h3.043v-2.932h-5.979V33.468L30.532,33.468z
			 M24.45,33.468h2.933v-2.937H24.45V33.468L24.45,33.468z M15.324,33.468h2.932v-2.937h-2.932V33.468L15.324,33.468z
			 M36.619,30.424h2.933v-15.1h-3.041v-3.043h-3.043V9.236H24.45v2.932h6.082v3.156h-3.04v2.932h3.04v3.039h2.936v-3.039h3.151v3.15
			h-3.042v3.045h-3.045v2.932h6.087V30.424L36.619,30.424z M18.364,30.424h2.932v-2.932h-2.932V30.424L18.364,30.424z M9.236,30.424
			h2.933v-2.932H9.236V30.424L9.236,30.424z M24.45,27.383h5.975v-3.04h3.043v-2.937h-3.043v-3.043h-2.933v6.088H24.45V27.383
			L24.45,27.383z M0.108,27.383h2.933v-2.932H0.108V27.383L0.108,27.383z M24.45,24.343h2.933v-5.979H24.45V24.343L24.45,24.343z
			 M33.577,21.295h2.934v-2.932h-2.934V21.295L33.577,21.295z M33.577,9.127h5.975v-9.02h-2.933v6.088h-3.042V9.127L33.577,9.127z
			 M30.532,6.088h2.936V3.156h-2.936V6.088L30.532,6.088z M24.45,6.088h2.933V3.042h3.042V0.107H24.45V6.088L24.45,6.088z
			 M21.406,64H0V42.593h21.406V64L21.406,64z M0.108,63.892h21.188V42.705H0.108V63.892L0.108,63.892z M64,60.96h-3.153v-3.153H64
			V60.96L64,60.96z M60.961,60.847h2.932v-2.933h-2.932V60.847L60.961,60.847z M18.364,60.96H3.041V45.639h15.323V60.96
			L18.364,60.96z M3.155,60.847h15.101v-15.1H3.155V60.847L3.155,60.847z M15.324,57.914H6.089v-9.235h9.235V57.914L15.324,57.914z
			 M6.196,57.807h9.02v-9.02h-9.02V57.807L6.196,57.807z M45.746,27.492h-3.153v-3.149h3.153V27.492L45.746,27.492z M42.705,27.383
			h2.934v-2.932h-2.934V27.383L42.705,27.383z M64,21.406H42.593V0H64V21.406L64,21.406z M42.705,21.295h21.188V0.107H42.705V21.295
			L42.705,21.295z M21.406,21.406H0V0h21.406V21.406L21.406,21.406z M0.108,21.295h21.188V0.107H0.108V21.295L0.108,21.295z
			 M60.961,18.363H45.639V3.042h15.322V18.363L60.961,18.363z M45.746,18.256h15.101v-15.1H45.746V18.256L45.746,18.256z
			 M18.364,18.363H3.041V3.042h15.323V18.363L18.364,18.363z M3.155,18.256h15.101v-15.1H3.155V18.256L3.155,18.256z M57.915,15.324
			h-9.236V6.088h9.236V15.324L57.915,15.324z M48.788,15.215h9.02v-9.02h-9.02V15.215L48.788,15.215z M15.324,15.324H6.089V6.088
			h9.235V15.324L15.324,15.324z M6.196,15.215h9.02v-9.02h-9.02V15.215L6.196,15.215z"/>
	</g>
</g>
</svg>
