<?xml version="1.0" encoding="utf-8"?>
<!-- Generator: Adobe Illustrator 16.0.4, SVG Export Plug-In . SVG Version: 6.00 Build 0)  -->
<!DOCTYPE svg PUBLIC "-//W3C//DTD SVG 1.1//EN" "http://www.w3.org/Graphics/SVG/1.1/DTD/svg11.dtd">
<svg version="1.1" id="Ebene_1" xmlns="http://www.w3.org/2000/svg" xmlns:xlink="http://www.w3.org/1999/xlink" x="0px" y="0px"
	 width="64px" height="64px" viewBox="0 0 64 64" enable-background="new 0 0 64 64" xml:space="preserve">
<g>
	<linearGradient id="SVGID_1_" gradientUnits="userSpaceOnUse" x1="1.2764" y1="19.79" x2="62.9756" y2="19.79">
		<stop  offset="0" style="stop-color:#9D9D9C"/>
		<stop  offset="1" style="stop-color:#585756"/>
	</linearGradient>
	<polygon fill="url(#SVGID_1_)" stroke="#6F6F6F" stroke-width="0.5" points="62.976,32.973 1.276,34.349 11.031,5.231 
		53.676,5.231 	"/>
	<g>
		<linearGradient id="SVGID_2_" gradientUnits="userSpaceOnUse" x1="31.7139" y1="23.9688" x2="31.7139" y2="31.2959">
			<stop  offset="0.2118" style="stop-color:#FFFFFF"/>
			<stop  offset="1" style="stop-color:#C6C6C6"/>
		</linearGradient>
		<polygon fill="url(#SVGID_2_)" stroke="#A4A3A3" stroke-width="0.75" points="54.456,23.969 53.383,31.296 10.044,31.296 
			8.972,23.969 		"/>
		<linearGradient id="SVGID_3_" gradientUnits="userSpaceOnUse" x1="32" y1="3.7871" x2="32" y2="64">
			<stop  offset="0" style="stop-color:#03A7E5"/>
			<stop  offset="1" style="stop-color:#014A79"/>
		</linearGradient>
		<path fill="url(#SVGID_3_)" stroke="#014A79" stroke-miterlimit="10" d="M53.792,3.787H10.209L0,31.156L3.611,64h57.795L64,31.156
			L53.792,3.787z M12.005,6.469h39.991l9.16,24.827H2.844L12.005,6.469z"/>
		<linearGradient id="SVGID_4_" gradientUnits="userSpaceOnUse" x1="31.7129" y1="6.709" x2="31.7129" y2="16.9277">
			<stop  offset="0" style="stop-color:#FFFFFF"/>
			<stop  offset="0.67" style="stop-color:#C6C6C6"/>
		</linearGradient>
		<polygon fill="url(#SVGID_4_)" stroke="#A4A3A3" stroke-width="0.75" points="52.91,6.709 51.843,16.928 11.593,16.928 
			10.517,6.709 		"/>
		<linearGradient id="SVGID_5_" gradientUnits="userSpaceOnUse" x1="31.7129" y1="11.9766" x2="31.7129" y2="18.2881">
			<stop  offset="0.1232" style="stop-color:#FFFFFF"/>
			<stop  offset="1" style="stop-color:#C6C6C6"/>
		</linearGradient>
		<polygon fill="url(#SVGID_5_)" stroke="#A4A3A3" stroke-width="0.75" points="53.598,11.977 53.005,18.288 10.341,18.288 
			9.829,11.977 		"/>
		<linearGradient id="SVGID_6_" gradientUnits="userSpaceOnUse" x1="31.7139" y1="17.8359" x2="31.7139" y2="23.9688">
			<stop  offset="0.1527" style="stop-color:#FFFFFF"/>
			<stop  offset="1" style="stop-color:#C6C6C6"/>
		</linearGradient>
		<polygon fill="url(#SVGID_6_)" stroke="#A4A3A3" stroke-width="0.75" points="54.372,17.836 53.64,23.969 9.832,23.969 
			9.056,17.836 		"/>
	</g>
	<g>
		<g>
			<path fill="#FFFFFF" d="M23.606,49.289l13.051-13.054l4.931,3.322l3.306,4.917L31.84,57.531l-9.984,1.752L23.606,49.289z
				 M26.411,56.215l3.156-0.494l-1.224-3.013l-3.002-1.211l-0.411,3.241L26.411,56.215z"/>
		</g>
		<g>
			<path fill="#014A79" d="M36.704,36.719l4.613,3.109l3.093,4.6L31.658,57.183l-9.341,1.639l1.638-9.351L36.704,36.719
				 M26.281,56.614l3.812-0.596l-1.461-3.599l-3.601-1.452l-0.496,3.906L26.281,56.614 M36.61,35.751l-0.437,0.438L23.425,48.94
				l-0.168,0.168l-0.04,0.232l-1.639,9.352l-0.184,1.053l1.053-0.186l9.341-1.639l0.233-0.04l0.167-0.168L44.94,44.958l0.437-0.437
				l-0.345-0.513l-3.093-4.6l-0.081-0.121l-0.122-0.082l-4.613-3.109L36.61,35.751L36.61,35.751z M25.325,54.603l0.327-2.575
				l2.404,0.97l0.985,2.427l-2.501,0.391L25.325,54.603L25.325,54.603z"/>
		</g>
	</g>
</g>
</svg>
