<?xml version="1.0" encoding="utf-8"?>
<!-- Generator: Adobe Illustrator 16.0.4, SVG Export Plug-In . SVG Version: 6.00 Build 0)  -->
<!DOCTYPE svg PUBLIC "-//W3C//DTD SVG 1.1//EN" "http://www.w3.org/Graphics/SVG/1.1/DTD/svg11.dtd">
<svg version="1.1" id="Ebene_1" xmlns="http://www.w3.org/2000/svg" xmlns:xlink="http://www.w3.org/1999/xlink" x="0px" y="0px"
	 width="64px" height="64px" viewBox="0 0 64 64" enable-background="new 0 0 64 64" xml:space="preserve">
<g>
	<defs>
		<path id="SVGID_230_" d="M37.001,40.701c0,1.515,0.807,2.839,2.008,3.576l-0.698,10.8h5.792l-0.698-10.8
			c1.202-0.737,2.008-2.062,2.008-3.576c0-2.32-1.884-4.206-4.206-4.206C38.886,36.495,37.001,38.381,37.001,40.701 M18.779,62.105
			V28.017c3.611-0.238,17.557-1.146,22.657-1.146c4.956,0.002,18.628,0.905,22.197,1.146v34.085
			c-3.572,0.318-17.523,1.532-22.428,1.532C36.107,63.634,22.326,62.423,18.779,62.105"/>
	</defs>
	<defs>
		<path id="SVGID_231_" d="M41.206,64c-5.005,0-18.455-1.172-22.459-1.53c-0.188-0.017-0.334-0.175-0.334-0.364V28.017
			c0-0.192,0.15-0.354,0.343-0.365c5.218-0.346,17.874-1.147,22.681-1.147c4.915,0.002,18.252,0.878,22.222,1.147
			C63.85,27.664,64,27.824,64,28.017v34.085c0,0.189-0.146,0.348-0.334,0.364C60.797,62.723,46.231,64,41.206,64z M19.146,61.771
			c4.36,0.389,17.216,1.497,22.06,1.497c4.823,0,18.548-1.19,22.062-1.501V28.359c-4.337-0.292-17.072-1.12-21.831-1.122
			c-4.684,0-16.888,0.768-22.29,1.123V61.771z M44.103,55.443h-5.792c-0.102,0-0.198-0.042-0.268-0.115
			c-0.069-0.074-0.104-0.174-0.099-0.275l0.685-10.584c-1.253-0.854-1.994-2.245-1.994-3.768c0-2.521,2.05-4.572,4.571-4.572
			s4.573,2.051,4.573,4.572c0,1.522-0.742,2.914-1.995,3.768l0.685,10.584c0.007,0.102-0.029,0.201-0.099,0.275
			C44.301,55.401,44.204,55.443,44.103,55.443z M38.702,54.71h5.01l-0.673-10.409c-0.009-0.136,0.059-0.265,0.174-0.335
			c1.147-0.705,1.833-1.925,1.833-3.265c0-2.118-1.723-3.839-3.84-3.839s-3.838,1.721-3.838,3.839c0,1.34,0.685,2.56,1.832,3.265
			c0.115,0.07,0.183,0.199,0.174,0.335L38.702,54.71z"/>
	</defs>
	<linearGradient id="SVGID_1_" gradientUnits="userSpaceOnUse" x1="18.7793" y1="45.252" x2="63.6338" y2="45.252">
		<stop  offset="0.3103" style="stop-color:#E30613"/>
		<stop  offset="1" style="stop-color:#BE1622"/>
	</linearGradient>
	<use xlink:href="#SVGID_230_"  overflow="visible" fill="url(#SVGID_1_)"/>
	<use xlink:href="#SVGID_231_"  overflow="visible" fill="#801D18"/>
	<clipPath id="SVGID_2_">
		<use xlink:href="#SVGID_230_"  overflow="visible"/>
	</clipPath>
	<clipPath id="SVGID_3_" clip-path="url(#SVGID_2_)">
		<use xlink:href="#SVGID_231_"  overflow="visible"/>
	</clipPath>
</g>
<g>
	<linearGradient id="SVGID_4_" gradientUnits="userSpaceOnUse" x1="21.8467" y1="14.5107" x2="57.4521" y2="14.5107">
		<stop  offset="0" style="stop-color:#FFFFFF"/>
		<stop  offset="1" style="stop-color:#DCDDDE"/>
	</linearGradient>
	<path fill="url(#SVGID_4_)" d="M21.847,17.019c0-9.733,7.986-17.652,17.803-17.652s17.803,7.919,17.803,17.652v12.629
		c-1.142-0.072-2.396-0.149-3.698-0.227V17.019c0-7.694-6.328-13.951-14.104-13.951c-7.775,0-14.104,6.257-14.104,13.951v12.41
		c-1.307,0.075-2.558,0.154-3.698,0.227V17.019z"/>
	<path fill="#6F6F6F" d="M21.48,30.045V17.019C21.48,7.083,29.631-1,39.649-1s18.169,8.083,18.169,18.019v13.02l-0.389-0.025
		c-1.142-0.071-2.395-0.149-3.696-0.227l-0.346-0.02V17.019c0-7.491-6.164-13.585-13.738-13.585
		c-7.576,0-13.738,6.094-13.738,13.585v12.756l-0.346,0.02c-1.192,0.069-2.339,0.142-3.396,0.209L21.48,30.045z M39.649-0.268
		c-9.614,0-17.437,7.755-17.437,17.286v12.246c0.933-0.059,1.93-0.121,2.966-0.182V17.019c0-7.895,6.491-14.317,14.471-14.317
		s14.472,6.423,14.472,14.317v12.057c1.033,0.062,2.033,0.123,2.964,0.182V17.019C57.085,7.487,49.263-0.268,39.649-0.268z"/>
</g>
<g>
	<defs>
		<path id="SVGID_240_" d="M34.666,40.701c0,1.515,0.806,2.839,2.007,3.576l-0.698,10.8h5.792l-0.697-10.8
			c1.2-0.737,2.008-2.062,2.008-3.576c0-2.32-1.885-4.206-4.207-4.206C36.549,36.495,34.666,38.381,34.666,40.701 M16.444,62.105
			V28.017C20.054,27.778,34,26.87,39.101,26.87c4.956,0.002,18.628,0.905,22.197,1.146v34.085
			c-3.572,0.318-17.523,1.532-22.428,1.532C33.771,63.634,19.99,62.423,16.444,62.105"/>
	</defs>
	<defs>
		<path id="SVGID_241_" d="M38.87,64c-5.005,0-18.455-1.172-22.458-1.53c-0.189-0.017-0.335-0.175-0.335-0.364V28.017
			c0-0.192,0.15-0.354,0.344-0.365c5.217-0.346,17.873-1.147,22.68-1.147c4.915,0.002,18.252,0.878,22.222,1.147
			c0.192,0.013,0.342,0.173,0.342,0.365v34.085c0,0.189-0.145,0.348-0.334,0.364C58.462,62.723,43.896,64,38.87,64z M16.811,61.771
			c4.36,0.389,17.216,1.497,22.06,1.497c4.823,0,18.549-1.19,22.061-1.501V28.359c-4.336-0.292-17.07-1.12-21.83-1.122
			c-4.684,0-16.889,0.768-22.29,1.123V61.771z M41.767,55.443h-5.792c-0.101,0-0.198-0.042-0.267-0.115
			c-0.07-0.074-0.105-0.174-0.099-0.275l0.683-10.584c-1.252-0.854-1.992-2.245-1.992-3.768c0-2.521,2.051-4.572,4.57-4.572
			c2.521,0,4.573,2.051,4.573,4.572c0,1.522-0.741,2.914-1.994,3.768l0.683,10.584c0.007,0.102-0.028,0.201-0.098,0.275
			C41.966,55.401,41.868,55.443,41.767,55.443z M36.366,54.71h5.009l-0.671-10.409c-0.009-0.136,0.058-0.265,0.173-0.335
			c1.147-0.705,1.833-1.925,1.833-3.265c0-2.118-1.723-3.839-3.84-3.839c-2.116,0-3.838,1.721-3.838,3.839
			c0,1.34,0.686,2.56,1.832,3.265c0.116,0.07,0.183,0.199,0.174,0.335L36.366,54.71z"/>
	</defs>
	<linearGradient id="SVGID_5_" gradientUnits="userSpaceOnUse" x1="16.4443" y1="45.252" x2="61.2979" y2="45.252">
		<stop  offset="0.3103" style="stop-color:#E30613"/>
		<stop  offset="1" style="stop-color:#BE1622"/>
	</linearGradient>
	<use xlink:href="#SVGID_240_"  overflow="visible" fill="url(#SVGID_5_)"/>
	<use xlink:href="#SVGID_241_"  overflow="visible" fill="#801D18"/>
	<clipPath id="SVGID_6_">
		<use xlink:href="#SVGID_240_"  overflow="visible"/>
	</clipPath>
	<clipPath id="SVGID_7_" clip-path="url(#SVGID_6_)">
		<use xlink:href="#SVGID_241_"  overflow="visible"/>
	</clipPath>
</g>
<g>
	<path fill="#89898C" d="M34.666,40.701c0,1.515,0.806,2.839,2.007,3.576l-0.698,10.8h5.792l-0.697-10.8
		c1.2-0.737,2.008-2.062,2.008-3.576c0-2.32-1.885-4.206-4.207-4.206C36.549,36.495,34.666,38.381,34.666,40.701"/>
	<path fill="#950E01" d="M41.767,55.443h-5.792l-0.365-0.391l0.683-10.584c-1.252-0.854-1.992-2.245-1.992-3.768
		c0-2.521,2.051-4.572,4.57-4.572c2.521,0,4.573,2.051,4.573,4.572c0,1.522-0.741,2.914-1.994,3.768l0.683,10.584L41.767,55.443z
		 M36.366,54.71h5.009l-0.671-10.409l0.173-0.335c1.147-0.705,1.833-1.925,1.833-3.265c0-2.118-1.723-3.839-3.84-3.839
		c-2.116,0-3.838,1.721-3.838,3.839c0,1.34,0.686,2.56,1.832,3.265l0.174,0.335L36.366,54.71z"/>
</g>
<path fill="#6A6A6A" d="M36.224,40.701c0-2.055,1.477-3.762,3.426-4.128c-0.253-0.047-0.512-0.078-0.779-0.078
	c-2.321,0-4.204,1.886-4.204,4.206c0,1.515,0.806,2.839,2.007,3.576l-0.698,10.8h1.557l0.699-10.8
	C37.028,43.54,36.224,42.216,36.224,40.701z"/>
<path fill="#950E01" d="M41.767,55.443h-5.792l-0.365-0.391l0.683-10.584c-1.252-0.854-1.992-2.245-1.992-3.768
	c0-2.521,2.051-4.572,4.57-4.572c2.521,0,4.573,2.051,4.573,4.572c0,1.522-0.741,2.914-1.994,3.768l0.683,10.584L41.767,55.443z
	 M36.366,54.71h5.009l-0.671-10.409l0.173-0.335c1.147-0.705,1.833-1.925,1.833-3.265c0-2.118-1.723-3.839-3.84-3.839
	c-2.116,0-3.838,1.721-3.838,3.839c0,1.34,0.686,2.56,1.832,3.265l0.174,0.335L36.366,54.71z"/>
</svg>
