<?xml version="1.0" encoding="utf-8"?>
<!-- Generator: Adobe Illustrator 16.0.4, SVG Export Plug-In . SVG Version: 6.00 Build 0)  -->
<!DOCTYPE svg PUBLIC "-//W3C//DTD SVG 1.1//EN" "http://www.w3.org/Graphics/SVG/1.1/DTD/svg11.dtd">
<svg version="1.1" id="Ebene_1" xmlns="http://www.w3.org/2000/svg" xmlns:xlink="http://www.w3.org/1999/xlink" x="0px" y="0px"
	 width="64px" height="64px" viewBox="0 0 64 64" enable-background="new 0 0 64 64" xml:space="preserve">
<g>
	<g>
		<g>
			<linearGradient id="SVGID_1_" gradientUnits="userSpaceOnUse" x1="23.0957" y1="18.0059" x2="23.0957" y2="63.8018">
				<stop  offset="0" style="stop-color:#FFFFFF"/>
				<stop  offset="1" style="stop-color:#DCDDDE"/>
			</linearGradient>
			<rect x="0.198" y="18.006" fill-rule="evenodd" clip-rule="evenodd" fill="url(#SVGID_1_)" width="45.795" height="45.796"/>
			<path fill="#6F6F6F" d="M45.993,64H0.198L0,63.802V18.006l0.198-0.198h45.795l0.198,0.198v45.796L45.993,64z M0.396,63.604
				h45.398V18.204H0.396V63.604z"/>
		</g>
		<g>
			<polygon fill-rule="evenodd" clip-rule="evenodd" fill="#E9E9E9" points="45.993,18.112 0.198,18.112 20.552,5.392 63.802,5.392 
							"/>
			<path fill="#6F6F6F" d="M45.993,18.311H0.198l-0.105-0.366L20.446,5.224l0.105-0.03h43.25l0.115,0.359L46.108,18.273
				L45.993,18.311z M0.89,17.914h45.04L63.183,5.59H20.608L0.89,17.914z"/>
		</g>
		<g>
			<polygon fill-rule="evenodd" clip-rule="evenodd" fill="#D6D6D6" points="63.802,51.079 45.993,63.802 45.993,18.006 
				63.802,5.286 			"/>
			<path fill="#6F6F6F" d="M46.108,63.963l-0.313-0.161V18.006l0.083-0.161l17.809-12.72L64,5.286v45.793l-0.083,0.161
				L46.108,63.963z M46.191,18.107v45.31l17.412-12.439V5.671L46.191,18.107z"/>
		</g>
	</g>
	<g>
		<path fill="#FFD600" d="M31.771,33.599c0.244,3.835-1.037,7.489-3.387,10.295c0.427-1.038,0.665-2.171,0.665-3.361
			c0-4.883-3.96-8.843-8.842-8.843c-4.886,0-8.844,3.96-8.844,8.843c0,0.869,0.129,1.707,0.364,2.502
			c-1.896-1.92-3.363-4.27-4.227-6.909H5.163c2.075,8.395,8.124,13.993,16.851,13.993c7.68,0,17.083-8.126,17.912-16.52H31.771z
			 M20.207,34.092c3.555,0,6.438,2.884,6.438,6.44c0,3.559-2.884,6.44-6.438,6.44c-3.557,0-6.441-2.882-6.441-6.44
			C13.766,36.976,16.65,34.092,20.207,34.092z"/>
		<path fill="#6F6F6F" d="M20.207,31.689c4.882,0,8.842,3.96,8.842,8.843c0,1.19-0.238,2.323-0.665,3.361
			c2.35-2.806,3.631-6.46,3.387-10.295h8.155c-0.829,8.394-10.232,16.52-17.912,16.52c-8.727,0-14.775-5.599-16.851-13.993h2.338
			c0.863,2.64,2.331,4.989,4.227,6.909c-0.235-0.795-0.364-1.633-0.364-2.502C11.363,35.649,15.321,31.689,20.207,31.689
			 M20.207,46.973c3.555,0,6.438-2.882,6.438-6.44c0-3.557-2.884-6.44-6.438-6.44c-3.557,0-6.441,2.884-6.441,6.44
			C13.766,44.091,16.65,46.973,20.207,46.973 M20.207,31.293c-5.096,0-9.24,4.145-9.24,9.239c0,0.386,0.024,0.772,0.073,1.156
			c-1.405-1.684-2.488-3.626-3.161-5.687l-0.09-0.273H7.501H5.163H4.656l0.122,0.491c2.213,8.951,8.655,14.295,17.235,14.295
			c8.242,0,17.481-8.518,18.307-16.877l0.043-0.436h-0.438h-8.155h-0.423l0.027,0.423c0.186,2.915-0.526,5.774-2.026,8.243
			c0.064-0.44,0.097-0.887,0.097-1.336C29.445,35.438,25.301,31.293,20.207,31.293L20.207,31.293z M20.207,46.576
			c-3.333,0-6.045-2.712-6.045-6.044c0-3.333,2.712-6.044,6.045-6.044c3.331,0,6.042,2.711,6.042,6.044
			C26.249,43.864,23.538,46.576,20.207,46.576L20.207,46.576z"/>
	</g>
</g>
</svg>
