<?xml version="1.0" encoding="utf-8"?>
<!-- Generator: Adobe Illustrator 16.0.4, SVG Export Plug-In . SVG Version: 6.00 Build 0)  -->
<!DOCTYPE svg PUBLIC "-//W3C//DTD SVG 1.1//EN" "http://www.w3.org/Graphics/SVG/1.1/DTD/svg11.dtd">
<svg version="1.1" id="Ebene_1" xmlns="http://www.w3.org/2000/svg" xmlns:xlink="http://www.w3.org/1999/xlink" x="0px" y="0px"
	 width="64px" height="64px" viewBox="0 0 64 64" enable-background="new 0 0 64 64" xml:space="preserve">
<g>
	<linearGradient id="SVGID_1_" gradientUnits="userSpaceOnUse" x1="0.3838" y1="41.1211" x2="63.6162" y2="41.1211">
		<stop  offset="0" style="stop-color:#FFFFFF"/>
		<stop  offset="1" style="stop-color:#EBEBEB"/>
	</linearGradient>
	<rect x="0.384" y="28.065" fill="url(#SVGID_1_)" width="63.232" height="26.112"/>
	<path fill="#9D9D9C" d="M64,54.562H0V27.681h64V54.562z M0.769,53.793h62.463V28.449H0.769V53.793z"/>
</g>
<g>
	<linearGradient id="SVGID_2_" gradientUnits="userSpaceOnUse" x1="44.8945" y1="40.957" x2="44.8945" y2="40.957">
		<stop  offset="0" style="stop-color:#E10613"/>
		<stop  offset="1" style="stop-color:#BC1622"/>
	</linearGradient>
	<line fill="url(#SVGID_2_)" x1="44.895" y1="19.473" x2="44.895" y2="62.441"/>
	<rect x="43.357" y="19.473" fill="#BC1622" width="3.073" height="42.969"/>
</g>
<g>
	<linearGradient id="SVGID_3_" gradientUnits="userSpaceOnUse" x1="37.5283" y1="62.4629" x2="52.2549" y2="62.4629">
		<stop  offset="0" style="stop-color:#E10613"/>
		<stop  offset="1" style="stop-color:#BC1622"/>
	</linearGradient>
	<line fill="url(#SVGID_3_)" x1="37.528" y1="62.463" x2="52.255" y2="62.463"/>
	<rect x="37.528" y="60.927" fill="#BC1622" width="14.727" height="3.073"/>
</g>
<g>
	<linearGradient id="SVGID_4_" gradientUnits="userSpaceOnUse" x1="37.5283" y1="19.4727" x2="52.2549" y2="19.4727">
		<stop  offset="0" style="stop-color:#E10613"/>
		<stop  offset="1" style="stop-color:#BC1622"/>
	</linearGradient>
	<line fill="url(#SVGID_4_)" x1="37.528" y1="19.473" x2="52.255" y2="19.473"/>
	<rect x="37.528" y="17.937" fill="#BC1622" width="14.727" height="3.073"/>
</g>
<rect x="5.108" y="46.498" fill="#BC1622" width="3.812" height="3.809"/>
<rect x="12.212" y="46.498" fill="#BC1622" width="3.812" height="3.809"/>
<rect x="19.141" y="46.498" fill="#BC1622" width="3.813" height="3.809"/>
</svg>
