<?xml version="1.0" encoding="utf-8"?>
<!-- Generator: Adobe Illustrator 16.0.4, SVG Export Plug-In . SVG Version: 6.00 Build 0)  -->
<!DOCTYPE svg PUBLIC "-//W3C//DTD SVG 1.1//EN" "http://www.w3.org/Graphics/SVG/1.1/DTD/svg11.dtd">
<svg version="1.1" id="Ebene_1" xmlns="http://www.w3.org/2000/svg" xmlns:xlink="http://www.w3.org/1999/xlink" x="0px" y="0px"
	 width="64px" height="64px" viewBox="0 0 64 64" enable-background="new 0 0 64 64" xml:space="preserve">
<linearGradient id="SVGID_1_" gradientUnits="userSpaceOnUse" x1="-869.1206" y1="15.041" x2="-809.4883" y2="15.041" gradientTransform="matrix(0.7071 -0.7071 0.7071 0.7071 614.9755 -572.4401)">
	<stop  offset="0" style="stop-color:#E73B2F"/>
	<stop  offset="1" style="stop-color:#C41726"/>
</linearGradient>
<path fill="url(#SVGID_1_)" d="M47.231,4.594l-4.007-4.007c-0.879-0.879-2.303-0.879-3.182,0L33.02,7.612
	c0.094,0.295,0.027,0.632-0.208,0.868c-0.235,0.234-0.572,0.302-0.869,0.205L1.059,39.57c-0.879,0.879-0.877,2.304,0,3.183
	l4.007,4.007c3.31-1.207,7.161-0.484,9.814,2.169c2.654,2.653,3.376,6.507,2.169,9.814l4.007,4.007c0.879,0.878,2.304,0.878,3.183,0
	l30.814-30.814c-0.336-0.336-0.336-0.879,0-1.215c0.336-0.335,0.879-0.335,1.215,0l6.954-6.954c0.878-0.88,0.878-2.304,0-3.183
	l-4.007-4.007c-3.309,1.207-7.161,0.485-9.814-2.169C46.748,11.755,46.025,7.902,47.231,4.594z M19.052,41.187l-1.277,1.277
	l3.874,3.874l-0.997,0.996l-3.875-3.873l-1.277,1.278l-0.83-0.831l3.553-3.552L19.052,41.187z M25.02,42.967l-0.998,0.997
	l-4.705-4.704l0.998-0.998L25.02,42.967z M27.781,38.674c0.329-0.33,0.647-0.812,0.952-1.448l0.837,0.838
	c-0.226,0.546-0.576,1.058-1.052,1.534c-0.685,0.685-1.417,1-2.193,0.947c-0.778-0.053-1.556-0.468-2.332-1.243
	c-0.489-0.49-0.827-1.007-1.019-1.553c-0.189-0.546-0.216-1.084-0.078-1.614c0.137-0.53,0.43-1.02,0.878-1.468
	c0.456-0.456,1.027-0.806,1.708-1.046l0.49,1.133c-0.26,0.093-0.51,0.196-0.75,0.312s-0.446,0.26-0.618,0.432
	c-0.376,0.375-0.525,0.807-0.448,1.294c0.076,0.488,0.366,0.984,0.87,1.489C26.075,39.329,26.994,39.461,27.781,38.674z
	 M33.718,34.268l-3.214-0.75l-0.119,0.725l1.68,1.681l-0.998,0.997l-4.705-4.705l0.998-0.997l2.153,2.153l-0.161-0.946l-0.325-2.874
	l1.106-1.107l0.441,3.724l4.277,0.969L33.718,34.268z M34.709,25.502l-1.711,1.712l1.033,1.034l1.592-1.594l0.817,0.817
	l-1.593,1.594l1.214,1.213l1.71-1.712l0.826,0.823l-2.711,2.71l-4.705-4.705l2.711-2.709L34.709,25.502z M39.273,20.965
	l-1.279,1.277l3.875,3.875l-0.998,0.997l-3.873-3.874l-1.277,1.277l-0.83-0.83l3.551-3.553L39.273,20.965z M54.703,30.371
	c-0.334,0.336-0.879,0.336-1.214,0c-0.336-0.334-0.336-0.879,0-1.214c0.335-0.335,0.88-0.336,1.214,0
	C55.038,29.492,55.038,30.037,54.703,30.371z M53.141,28.808c-0.336,0.336-0.879,0.336-1.216,0c-0.335-0.335-0.335-0.88,0-1.213
	c0.337-0.337,0.88-0.337,1.216,0C53.475,27.928,53.475,28.473,53.141,28.808z M51.576,27.243c-0.336,0.336-0.879,0.336-1.215,0.001
	c-0.336-0.336-0.336-0.88,0-1.214c0.336-0.336,0.879-0.336,1.215,0C51.911,26.364,51.911,26.908,51.576,27.243z M50.012,25.682
	c-0.334,0.334-0.879,0.334-1.214,0c-0.336-0.336-0.336-0.879,0-1.215c0.335-0.337,0.88-0.337,1.214,0
	C50.348,24.803,50.348,25.346,50.012,25.682z M48.448,24.117c-0.335,0.335-0.88,0.335-1.214,0c-0.336-0.336-0.336-0.879,0-1.215
	c0.334-0.335,0.879-0.335,1.214,0C48.784,23.238,48.784,23.781,48.448,24.117z M46.885,22.554c-0.334,0.335-0.879,0.335-1.214,0
	c-0.336-0.337-0.336-0.88,0-1.216c0.335-0.335,0.88-0.335,1.214,0C47.221,21.674,47.221,22.217,46.885,22.554z M45.321,20.989
	c-0.335,0.336-0.88,0.336-1.214,0c-0.336-0.336-0.336-0.88,0-1.216c0.334-0.334,0.879-0.334,1.214,0
	C45.656,20.109,45.657,20.653,45.321,20.989z M43.757,19.425c-0.335,0.337-0.88,0.337-1.214,0c-0.335-0.335-0.336-0.879,0-1.213
	c0.334-0.336,0.879-0.336,1.214,0C44.093,18.546,44.093,19.09,43.757,19.425z M42.193,17.862c-0.336,0.335-0.879,0.335-1.215,0
	c-0.334-0.335-0.334-0.88,0-1.214c0.336-0.336,0.879-0.336,1.215,0C42.529,16.981,42.529,17.527,42.193,17.862z M40.63,16.298
	c-0.335,0.336-0.88,0.336-1.214,0c-0.335-0.335-0.336-0.879,0-1.214c0.334-0.336,0.879-0.336,1.214,0
	C40.966,15.419,40.966,15.963,40.63,16.298z M39.066,14.735c-0.336,0.336-0.88,0.336-1.215,0s-0.335-0.88,0-1.216
	s0.879-0.336,1.215,0S39.402,14.399,39.066,14.735z M37.502,13.171c-0.335,0.336-0.879,0.336-1.215,0
	c-0.334-0.336-0.334-0.879,0-1.216c0.336-0.334,0.88-0.334,1.215,0C37.838,12.292,37.838,12.835,37.502,13.171z M35.939,11.607
	c-0.336,0.336-0.88,0.336-1.215,0c-0.336-0.337-0.336-0.88,0-1.216c0.335-0.335,0.879-0.335,1.215,0
	C36.275,10.728,36.275,11.271,35.939,11.607z M34.375,10.043c-0.335,0.336-0.88,0.336-1.215,0c-0.334-0.336-0.334-0.878,0-1.215
	c0.335-0.334,0.88-0.334,1.215,0C34.711,9.163,34.711,9.708,34.375,10.043z"/>
</svg>
