<?xml version="1.0" encoding="utf-8"?>
<!-- Generator: Adobe Illustrator 16.0.0, SVG Export Plug-In . SVG Version: 6.00 Build 0)  -->
<!DOCTYPE svg PUBLIC "-//W3C//DTD SVG 1.1//EN" "http://www.w3.org/Graphics/SVG/1.1/DTD/svg11.dtd">
<svg version="1.1" id="Ebene_1" xmlns="http://www.w3.org/2000/svg" xmlns:xlink="http://www.w3.org/1999/xlink" x="0px" y="0px"
	 width="64px" height="64px" viewBox="0 0 64 64" enable-background="new 0 0 64 64" xml:space="preserve">
<g>
	<ellipse fill="#3C3C3B" cx="31.488" cy="60.736" rx="7.8" ry="2.014"/>
	<path fill="#1D1D1B" d="M31.488,63c-3.903,0-8.052-0.794-8.052-2.265c0-1.472,4.148-2.264,8.052-2.264
		c3.902,0,8.052,0.792,8.052,2.264C39.54,62.207,35.391,63,31.488,63z M31.488,58.974c-4.677,0-7.548,1.026-7.548,1.762
		s2.871,1.762,7.548,1.762s7.549-1.026,7.549-1.762S36.165,58.974,31.488,58.974z"/>
</g>
<g>
	<linearGradient id="SVGID_1_" gradientUnits="userSpaceOnUse" x1="26.4854" y1="49.9995" x2="36.7598" y2="49.9995">
		<stop  offset="0" style="stop-color:#9D9D9C"/>
		<stop  offset="1" style="stop-color:#6F6F6F"/>
	</linearGradient>
	<path fill="url(#SVGID_1_)" d="M34.676,42.543c0,0-0.142,4.533,0.229,8.049c0.372,3.515,1.855,9.619,1.855,9.619
		s-2.448,1.209-5.097,1.209s-5.178-1.209-5.178-1.209s2.986-12.409,2.014-19.882l1.564-1.751L34.676,42.543z"/>
	<path fill="#6F6F6F" d="M31.663,61.671c-2.675,0-5.181-1.184-5.286-1.232l-0.178-0.084l0.04-0.194
		c0.029-0.145,2.966-12.453,2.009-19.797l-0.014-0.114l1.805-2.023l4.892,4.205l-0.003,0.12c-0.002,0.055-0.137,4.556,0.228,8.013
		c0.365,3.462,1.836,9.525,1.851,9.597l0.04,0.19l-0.175,0.086C36.769,60.488,34.34,61.671,31.663,61.671z M26.772,60.064
		c0.614,0.266,2.727,1.104,4.891,1.104c2.158,0,4.21-0.835,4.81-1.102c-0.241-1.173-1.483-6.288-1.818-9.449
		c-0.338-3.204-0.251-7.133-0.233-7.96l-4.334-3.728l-1.324,1.482C29.625,47.391,27.124,58.308,26.772,60.064z"/>
</g>
<g>
	<circle fill="#801D18" cx="20.711" cy="30.443" r="12.959"/>
	<path fill="#66160E" d="M20.711,43.655c-7.284,0-13.21-5.928-13.21-13.211s5.926-13.209,13.21-13.209s13.21,5.926,13.21,13.209
		S27.995,43.655,20.711,43.655z M20.711,17.737c-7.007,0-12.707,5.7-12.707,12.707c0,7.007,5.7,12.708,12.707,12.708
		s12.706-5.7,12.706-12.708C33.417,23.437,27.718,17.737,20.711,17.737z"/>
</g>
<g>
	<g>
		<circle fill="#801D18" cx="30.272" cy="15.851" r="14.637"/>
		<path fill="#66160E" d="M30.272,30.737c-8.209,0-14.888-6.678-14.888-14.887c0-8.209,6.679-14.888,14.888-14.888
			S45.16,7.641,45.16,15.851C45.16,24.059,38.481,30.737,30.272,30.737z M30.272,1.466c-7.932,0-14.384,6.453-14.384,14.384
			c0,7.931,6.452,14.384,14.384,14.384s14.384-6.453,14.384-14.384C44.656,7.919,38.204,1.466,30.272,1.466z"/>
	</g>
	<g>
		<linearGradient id="SVGID_2_" gradientUnits="userSpaceOnUse" x1="16.125" y1="14.5083" x2="43.4434" y2="14.5083">
			<stop  offset="0" style="stop-color:#E30613"/>
			<stop  offset="1" style="stop-color:#BE1622"/>
		</linearGradient>
		<ellipse fill="url(#SVGID_2_)" cx="29.784" cy="14.509" rx="13.659" ry="13.294"/>
		<path fill="#A42423" d="M29.784,28.054c-7.671,0-13.911-6.076-13.911-13.545c0-7.469,6.24-13.546,13.911-13.546
			c7.672,0,13.911,6.077,13.911,13.546C43.695,21.978,37.456,28.054,29.784,28.054z M29.784,1.466
			c-7.394,0-13.407,5.851-13.407,13.042c0,7.191,6.014,13.042,13.407,13.042S43.192,21.7,43.192,14.509
			C43.192,7.317,37.178,1.466,29.784,1.466z"/>
	</g>
</g>
<g>
	<linearGradient id="SVGID_3_" gradientUnits="userSpaceOnUse" x1="8.1836" y1="29.2554" x2="32.373" y2="29.2554">
		<stop  offset="0" style="stop-color:#E30613"/>
		<stop  offset="1" style="stop-color:#BE1622"/>
	</linearGradient>
	<ellipse fill="url(#SVGID_3_)" cx="20.278" cy="29.256" rx="12.095" ry="11.771"/>
	<path fill="#A42423" d="M20.279,41.278c-6.809,0-12.347-5.393-12.347-12.022s5.538-12.022,12.347-12.022
		c6.808,0,12.345,5.393,12.345,12.022S27.087,41.278,20.279,41.278z M20.279,17.737c-6.53,0-11.843,5.167-11.843,11.519
		c0,6.351,5.312,11.519,11.843,11.519c6.529,0,11.842-5.168,11.842-11.519C32.121,22.904,26.809,17.737,20.279,17.737z"/>
</g>
<g>
	<circle fill="#801D18" cx="41.511" cy="27.592" r="16.649"/>
	<path fill="#66160E" d="M41.512,44.492c-9.318,0-16.9-7.581-16.9-16.899c0-9.319,7.582-16.9,16.9-16.9s16.899,7.582,16.899,16.9
		C58.411,36.911,50.83,44.492,41.512,44.492z M41.512,11.195c-9.041,0-16.397,7.355-16.397,16.397s7.356,16.396,16.397,16.396
		s16.396-7.354,16.396-16.396S50.553,11.195,41.512,11.195z"/>
</g>
<g>
	<linearGradient id="SVGID_4_" gradientUnits="userSpaceOnUse" x1="25.418" y1="26.0649" x2="56.4951" y2="26.0649">
		<stop  offset="0" style="stop-color:#E30613"/>
		<stop  offset="1" style="stop-color:#BE1622"/>
	</linearGradient>
	<ellipse fill="url(#SVGID_4_)" cx="40.957" cy="26.066" rx="15.539" ry="15.123"/>
	<path fill="#A42423" d="M40.957,41.439c-8.707,0-15.791-6.896-15.791-15.373c0-8.477,7.084-15.375,15.791-15.375
		c8.706,0,15.79,6.897,15.79,15.375C56.747,34.543,49.663,41.439,40.957,41.439z M40.957,11.195c-8.43,0-15.288,6.671-15.288,14.871
		c0,8.199,6.858,14.869,15.288,14.869c8.429,0,15.286-6.669,15.286-14.869C56.243,17.867,49.386,11.195,40.957,11.195z"/>
</g>
</svg>
