<?xml version="1.0" encoding="utf-8"?>
<!-- Generator: Adobe Illustrator 16.0.4, SVG Export Plug-In . SVG Version: 6.00 Build 0)  -->
<!DOCTYPE svg PUBLIC "-//W3C//DTD SVG 1.1//EN" "http://www.w3.org/Graphics/SVG/1.1/DTD/svg11.dtd">
<svg version="1.1" id="Ebene_1" xmlns="http://www.w3.org/2000/svg" xmlns:xlink="http://www.w3.org/1999/xlink" x="0px" y="0px"
	 width="64px" height="64px" viewBox="0 0 64 64" enable-background="new 0 0 64 64" xml:space="preserve">
<g>
	<g>
		<g>
			<linearGradient id="SVGID_1_" gradientUnits="userSpaceOnUse" x1="43.3887" y1="36.2656" x2="43.3887" y2="8.2461">
				<stop  offset="0" style="stop-color:#AAA9A9"/>
				<stop  offset="1" style="stop-color:#3C3C3B"/>
			</linearGradient>
			<path fill="url(#SVGID_1_)" d="M53.293,32.162c-5.469,5.473-14.338,5.471-19.812,0c-5.469-5.474-5.47-14.343,0-19.815
				c5.475-5.469,14.344-5.468,19.812,0.002C58.767,17.82,58.768,26.688,53.293,32.162z"/>
			<path fill="#20201D" d="M43.389,8.245c3.583,0,7.17,1.367,9.904,4.104c5.474,5.472,5.475,14.34,0,19.813
				c-2.733,2.737-6.321,4.105-9.901,4.105c-3.59,0-7.175-1.369-9.911-4.105c-5.469-5.474-5.47-14.343,0-19.815
				C36.217,9.611,39.8,8.245,43.389,8.245 M43.389,7.586c-3.92,0-7.603,1.525-10.371,4.296c-5.721,5.718-5.721,15.023,0,20.745
				c2.77,2.771,6.453,4.294,10.374,4.294c3.914,0,7.597-1.523,10.369-4.294c5.712-5.721,5.712-15.025,0-20.744
				C50.987,9.112,47.304,7.586,43.389,7.586L43.389,7.586z"/>
		</g>
	</g>
	<g>
		<g>
			<linearGradient id="SVGID_2_" gradientUnits="userSpaceOnUse" x1="14.6592" y1="36.2656" x2="14.6592" y2="8.2461">
				<stop  offset="0" style="stop-color:#AAA9A9"/>
				<stop  offset="1" style="stop-color:#3C3C3B"/>
			</linearGradient>
			<path fill="url(#SVGID_2_)" d="M24.566,32.162c-5.471,5.473-14.342,5.471-19.812,0c-5.472-5.474-5.473-14.343-0.001-19.815
				c5.472-5.469,14.343-5.468,19.813,0.002C30.036,17.82,30.037,26.688,24.566,32.162z"/>
			<path fill="#20201D" d="M14.658,8.245c3.586,0,7.173,1.367,9.908,4.104c5.47,5.472,5.471,14.34,0,19.813
				c-2.734,2.737-6.32,4.105-9.905,4.105c-3.586,0-7.172-1.369-9.907-4.105c-5.472-5.474-5.473-14.343-0.001-19.815
				C7.488,9.611,11.074,8.245,14.658,8.245 M14.658,7.586c-3.917,0-7.6,1.525-10.369,4.296c-5.719,5.718-5.719,15.023,0,20.745
				c2.771,2.771,6.454,4.294,10.372,4.294s7.601-1.523,10.369-4.294c5.719-5.721,5.719-15.025,0-20.744
				C22.261,9.112,18.577,7.586,14.658,7.586L14.658,7.586z"/>
		</g>
	</g>
	<g>
		<path fill="#FFFFFF" d="M46.01,24.874c-1.449,1.451-3.796,1.451-5.24,0c-1.449-1.444-1.449-3.793-0.001-5.239
			c1.445-1.447,3.792-1.447,5.241,0C47.458,21.081,47.458,23.43,46.01,24.874z"/>
		<path fill="#20201D" d="M43.39,26.29c-1.08,0-2.094-0.42-2.855-1.186c-0.76-0.759-1.184-1.771-1.185-2.847
			c0-1.081,0.423-2.094,1.185-2.856c0.761-0.761,1.775-1.182,2.855-1.182c1.075,0,2.087,0.421,2.851,1.182
			c0.763,0.763,1.181,1.775,1.18,2.856c0,1.075-0.418,2.088-1.181,2.848C45.477,25.87,44.466,26.29,43.39,26.29z M43.39,18.878
			c-0.906,0-1.751,0.352-2.391,0.989c-0.64,0.639-0.988,1.485-0.988,2.391c0.001,0.9,0.35,1.748,0.988,2.384
			c0.641,0.639,1.484,0.992,2.391,0.992c0.897,0,1.749-0.354,2.387-0.991c0.635-0.637,0.99-1.484,0.99-2.386
			c0.001-0.904-0.355-1.751-0.99-2.39C45.14,19.229,44.287,18.878,43.39,18.878z"/>
	</g>
	<g>
		<linearGradient id="SVGID_3_" gradientUnits="userSpaceOnUse" x1="49.083" y1="47.7305" x2="9.5527" y2="47.7305">
			<stop  offset="0" style="stop-color:#AAA9A9"/>
			<stop  offset="1" style="stop-color:#3C3C3B"/>
		</linearGradient>
		<rect x="9.553" y="31.791" fill="url(#SVGID_3_)" width="39.53" height="31.878"/>
		<path fill="#20201D" d="M49.083,64H9.553l-0.328-0.331V31.791l0.328-0.327h39.53l0.324,0.327v31.878L49.083,64z M9.881,63.344
			h38.871V32.121H9.881V63.344z"/>
	</g>
	<g>
		<linearGradient id="SVGID_4_" gradientUnits="userSpaceOnUse" x1="63.6689" y1="47.7305" x2="49.083" y2="47.7305">
			<stop  offset="0" style="stop-color:#AAA9A9"/>
			<stop  offset="1" style="stop-color:#3C3C3B"/>
		</linearGradient>
		<polygon fill="url(#SVGID_4_)" points="63.669,57.552 53.009,53.063 49.083,53.063 49.083,42.4 52.448,42.4 63.669,37.909 		"/>
		<path fill="#20201D" d="M63.541,57.853l-10.6-4.458h-3.858l-0.331-0.331V42.4l0.331-0.327h3.302l11.162-4.471L64,37.909v19.643
			L63.541,57.853z M49.407,52.732l3.729,0.029l10.207,4.296V38.396l-10.896,4.331h-3.041V52.732z"/>
	</g>
	<g>
		<linearGradient id="SVGID_5_" gradientUnits="userSpaceOnUse" x1="32.7461" y1="27.0225" x2="26.0088" y2="27.0225">
			<stop  offset="0" style="stop-color:#AAA9A9"/>
			<stop  offset="1" style="stop-color:#3C3C3B"/>
		</linearGradient>
		<rect x="26.009" y="22.307" fill="url(#SVGID_5_)" width="6.737" height="9.432"/>
		<path fill="#20201D" d="M32.746,32.068h-6.737l-0.33-0.33v-9.432l0.33-0.329h6.737l0.331,0.329v9.432L32.746,32.068z
			 M26.336,31.41h6.08v-8.774h-6.08V31.41z"/>
	</g>
	<g>
		<linearGradient id="SVGID_6_" gradientUnits="userSpaceOnUse" x1="44.8428" y1="47.7314" x2="28.668" y2="47.7314">
			<stop  offset="0" style="stop-color:#AAA9A9"/>
			<stop  offset="1" style="stop-color:#3C3C3B"/>
		</linearGradient>
		<rect x="28.668" y="39.646" fill="url(#SVGID_6_)" width="16.175" height="16.172"/>
		<path fill="#20201D" d="M44.843,56.148H28.668l-0.328-0.331V39.646l0.328-0.328h16.175l0.326,0.328v16.172L44.843,56.148z
			 M28.998,55.486h15.519V39.973H28.998V55.486z"/>
	</g>
	<g>
		<linearGradient id="SVGID_7_" gradientUnits="userSpaceOnUse" x1="20.3545" y1="25.8965" x2="11.4473" y2="25.8965">
			<stop  offset="0" style="stop-color:#AAA9A9"/>
			<stop  offset="1" style="stop-color:#3C3C3B"/>
		</linearGradient>
		<polyline fill="url(#SVGID_7_)" points="17.338,31.276 11.447,24.092 17.926,20.516 20.354,30.022 		"/>
		<polygon fill="#20201D" points="17.084,31.483 11.193,24.3 11.288,23.805 17.768,20.228 18.244,20.435 20.674,29.941 
			20.037,30.102 17.712,21.009 11.952,24.189 17.593,31.069 		"/>
	</g>
	<g>
		<path fill="#FFFFFF" d="M17.281,24.874c-1.448,1.451-3.795,1.451-5.241,0c-1.447-1.444-1.447-3.793-0.001-5.239
			c1.447-1.447,3.794-1.447,5.242,0C18.728,21.081,18.728,23.43,17.281,24.874z"/>
		<path fill="#20201D" d="M14.661,26.29c-1.079,0-2.093-0.42-2.854-1.186c-0.763-0.759-1.18-1.771-1.18-2.849
			c-0.001-1.08,0.417-2.093,1.179-2.854c0.762-0.761,1.775-1.182,2.854-1.182c1.077,0,2.094,0.421,2.854,1.182
			c0.76,0.762,1.181,1.774,1.181,2.854c0,1.077-0.421,2.09-1.182,2.85C16.754,25.87,15.737,26.29,14.661,26.29z M14.66,18.878
			c-0.902,0-1.751,0.352-2.389,0.989s-0.988,1.484-0.988,2.389c0,0.901,0.351,1.749,0.988,2.386c0.639,0.639,1.486,0.992,2.39,0.992
			c0.902,0,1.75-0.354,2.387-0.991c0.64-0.638,0.989-1.485,0.989-2.387c0-0.904-0.35-1.751-0.989-2.389
			C16.412,19.229,15.563,18.878,14.66,18.878z"/>
	</g>
	<g>
		<path fill="#FFFFFF" d="M19.839,31.276c-0.689,0.687-1.81,0.687-2.501,0c-0.69-0.691-0.69-1.813-0.001-2.504
			c0.692-0.688,1.812-0.688,2.502,0C20.529,29.463,20.529,30.585,19.839,31.276z"/>
		<path fill="#20201D" d="M18.589,32.12c-0.56,0-1.085-0.218-1.483-0.609c-0.817-0.819-0.818-2.152,0-2.971
			c0.794-0.791,2.177-0.789,2.967,0c0.817,0.817,0.817,2.15,0,2.97C19.675,31.902,19.149,32.12,18.589,32.12z M18.588,28.585
			c-0.383,0-0.746,0.147-1.017,0.422c-0.562,0.561-0.562,1.474,0,2.035c0.543,0.543,1.493,0.543,2.035,0
			c0.561-0.562,0.561-1.475-0.001-2.036C19.336,28.732,18.975,28.585,18.588,28.585z"/>
	</g>
	<linearGradient id="SVGID_8_" gradientUnits="userSpaceOnUse" x1="45.7441" y1="36.2617" x2="48.4414" y2="36.2617">
		<stop  offset="0" style="stop-color:#E73B2F"/>
		<stop  offset="1" style="stop-color:#C41726"/>
	</linearGradient>
	<rect x="45.744" y="35.274" fill="url(#SVGID_8_)" width="2.697" height="1.975"/>
	<g>
		<path fill="#FFFFFF" d="M32.625,44.538h-0.641v-2.407h1.423v0.522h-0.782v0.459h0.721v0.522h-0.721V44.538z"/>
		<path fill="#FFFFFF" d="M34.665,44.571c-0.311,0-0.552-0.083-0.724-0.248s-0.258-0.4-0.258-0.705c0-0.315,0.079-0.557,0.238-0.726
			c0.159-0.168,0.387-0.253,0.682-0.253c0.281,0,0.498,0.073,0.651,0.22s0.229,0.357,0.229,0.634v0.286h-1.15
			c0.004,0.104,0.042,0.186,0.114,0.245s0.17,0.089,0.294,0.089c0.113,0,0.217-0.011,0.312-0.032
			c0.096-0.021,0.198-0.058,0.309-0.109v0.463c-0.101,0.052-0.205,0.087-0.312,0.106C34.942,44.562,34.813,44.571,34.665,44.571z
			 M34.627,43.078c-0.076,0-0.14,0.023-0.19,0.071s-0.081,0.123-0.09,0.225H34.9c-0.003-0.09-0.028-0.162-0.077-0.216
			S34.709,43.078,34.627,43.078z"/>
		<path fill="#FFFFFF" d="M37.177,44.538l-0.081-0.232h-0.037c-0.054,0.086-0.129,0.151-0.226,0.197
			c-0.096,0.045-0.208,0.068-0.338,0.068c-0.205,0-0.365-0.06-0.479-0.179c-0.114-0.119-0.172-0.287-0.172-0.505v-1.215h0.644v1.02
			c0,0.121,0.018,0.214,0.052,0.276c0.035,0.062,0.092,0.094,0.171,0.094c0.11,0,0.189-0.044,0.237-0.131
			c0.047-0.088,0.07-0.234,0.07-0.442v-0.816h0.644v1.865H37.177z"/>
		<path fill="#FFFFFF" d="M39.008,44.571c-0.311,0-0.552-0.083-0.724-0.248s-0.258-0.4-0.258-0.705c0-0.315,0.079-0.557,0.238-0.726
			c0.159-0.168,0.387-0.253,0.682-0.253c0.281,0,0.498,0.073,0.651,0.22s0.229,0.357,0.229,0.634v0.286h-1.15
			c0.004,0.104,0.042,0.186,0.114,0.245s0.17,0.089,0.294,0.089c0.113,0,0.217-0.011,0.312-0.032
			c0.096-0.021,0.198-0.058,0.309-0.109v0.463c-0.101,0.052-0.205,0.087-0.312,0.106C39.285,44.562,39.156,44.571,39.008,44.571z
			 M38.97,43.078c-0.076,0-0.14,0.023-0.19,0.071s-0.081,0.123-0.09,0.225h0.554c-0.003-0.09-0.028-0.162-0.077-0.216
			S39.052,43.078,38.97,43.078z"/>
		<path fill="#FFFFFF" d="M41.317,42.64c0.056,0,0.108,0.005,0.159,0.014l0.036,0.007l-0.058,0.607
			c-0.053-0.014-0.125-0.021-0.219-0.021c-0.141,0-0.242,0.032-0.307,0.097c-0.063,0.064-0.095,0.156-0.095,0.277v0.917h-0.644
			v-1.865h0.479l0.101,0.298h0.031c0.054-0.099,0.129-0.179,0.225-0.239S41.22,42.64,41.317,42.64z"/>
	</g>
</g>
</svg>
