<?xml version="1.0" encoding="utf-8"?>
<!-- Generator: Adobe Illustrator 16.0.4, SVG Export Plug-In . SVG Version: 6.00 Build 0)  -->
<!DOCTYPE svg PUBLIC "-//W3C//DTD SVG 1.1//EN" "http://www.w3.org/Graphics/SVG/1.1/DTD/svg11.dtd">
<svg version="1.1" id="Ebene_1" xmlns="http://www.w3.org/2000/svg" xmlns:xlink="http://www.w3.org/1999/xlink" x="0px" y="0px"
	 width="64px" height="64px" viewBox="0 0 64 64" enable-background="new 0 0 64 64" xml:space="preserve">
<g>
	<g>
		<linearGradient id="SVGID_1_" gradientUnits="userSpaceOnUse" x1="0.3804" y1="40.6582" x2="63.6201" y2="40.6582">
			<stop  offset="0" style="stop-color:#FFFFFF"/>
			<stop  offset="1" style="stop-color:#E6E6E6"/>
		</linearGradient>
		<rect x="0.38" y="17.697" fill="url(#SVGID_1_)" width="63.24" height="45.923"/>
		<path fill="#989897" d="M64,64H0V17.317h64V64z M0.761,63.239h62.479V18.078H0.761V63.239z"/>
	</g>
	<linearGradient id="SVGID_2_" gradientUnits="userSpaceOnUse" x1="2.4585" y1="43.0781" x2="61.7969" y2="43.0781">
		<stop  offset="0" style="stop-color:#E0342D"/>
		<stop  offset="1" style="stop-color:#B91A26"/>
	</linearGradient>
	<rect x="2.458" y="24.36" fill="url(#SVGID_2_)" width="59.338" height="37.436"/>
	<g>
		<linearGradient id="SVGID_3_" gradientUnits="userSpaceOnUse" x1="15.9033" y1="43.4531" x2="46.7764" y2="43.4531">
			<stop  offset="0" style="stop-color:#E0342D"/>
			<stop  offset="1" style="stop-color:#B91A26"/>
		</linearGradient>
		<path fill="url(#SVGID_3_)" d="M31.34,58.89c8.512,0,15.437-6.925,15.437-15.438c0-8.512-6.925-15.436-15.437-15.436
			s-15.437,6.924-15.437,15.436C15.903,51.965,22.828,58.89,31.34,58.89"/>
		<path fill="#FFFFFF" d="M36.876,46.142c3.218-1.008,6.103-2.771,8.44-5.08c-0.025-0.146-0.049-0.292-0.077-0.438
			c-2.345,2.374-5.267,4.182-8.537,5.192c-0.433-0.822-0.818-1.676-1.155-2.558c-0.255-0.665-0.481-1.347-0.681-2.039
			c0.285-0.32,0.576-0.632,0.878-0.937c2.052-2.076,4.47-3.796,7.146-5.053c-0.071-0.1-0.143-0.202-0.217-0.3
			c-2.725,1.288-5.179,3.048-7.261,5.173c-0.223,0.227-0.444,0.46-0.66,0.697c-0.072-0.271-0.141-0.543-0.202-0.818
			c-0.117-0.511-0.221-1.03-0.306-1.555c-0.037-0.228-0.069-0.455-0.103-0.685c0.208-0.103,0.413-0.21,0.615-0.321
			c2.206-1.215,4.108-2.909,5.564-4.942c-0.095-0.076-0.191-0.149-0.285-0.225c-1.419,1.988-3.275,3.646-5.431,4.837
			c-0.17,0.093-0.339,0.183-0.51,0.272c-0.026-0.208-0.049-0.416-0.068-0.623c-0.074-0.787-0.113-1.585-0.113-2.393
			c0-1.513,0.136-2.992,0.39-4.426c0.239-0.06,0.479-0.114,0.724-0.164c-0.262-0.07-0.526-0.137-0.797-0.191
			c-0.072-0.016-0.148-0.027-0.223-0.041c-0.007,0.034-0.015,0.069-0.021,0.104c-4.182,1.111-7.725,3.794-9.942,7.371
			c-0.187-1.277-0.286-2.587-0.286-3.922c0-0.553,0.02-1.102,0.05-1.645c-0.124,0.081-0.252,0.16-0.377,0.242
			c-0.022,0.465-0.037,0.932-0.037,1.402c0,1.505,0.123,2.981,0.359,4.411c-0.023,0.041-0.047,0.081-0.068,0.123
			c-0.208,0.367-0.4,0.745-0.581,1.13c-0.201-0.046-0.4-0.093-0.598-0.144c-1.352-0.355-2.635-0.876-3.825-1.541
			c-0.056,0.108-0.111,0.215-0.163,0.325c1.242,0.691,2.577,1.229,3.987,1.59c0.148,0.037,0.298,0.074,0.448,0.107
			c-0.068,0.152-0.132,0.306-0.194,0.46c-0.643,1.597-1.042,3.312-1.156,5.105c-1.571-0.77-3.033-1.733-4.346-2.861
			c-0.018,0.145-0.031,0.29-0.043,0.438c1.325,1.11,2.792,2.061,4.37,2.817c-0.009,0.219-0.015,0.438-0.015,0.656
			c0,4.059,1.471,7.779,3.91,10.668c0.251,0.116,0.508,0.223,0.769,0.324c-2.677-2.898-4.314-6.759-4.314-10.992
			c0-0.164,0.003-0.327,0.007-0.489c1.642,0.75,3.398,1.294,5.233,1.601c0.68,1.12,1.439,2.178,2.272,3.16
			c-0.744,2.316-1.155,4.775-1.184,7.327c0.121,0.026,0.24,0.053,0.362,0.075c0.018-2.461,0.401-4.838,1.098-7.08
			c1.178,1.345,2.489,2.543,3.914,3.57c0.236,0.169,0.476,0.336,0.719,0.496c-0.051,0.234-0.095,0.473-0.134,0.711
			c-0.104,0.67-0.158,1.355-0.158,2.055c0,0.083,0.004,0.163,0.006,0.245c0.121-0.022,0.24-0.049,0.359-0.075
			c0-0.058-0.003-0.114-0.003-0.17c0-0.694,0.056-1.373,0.163-2.038c0.025-0.171,0.057-0.345,0.091-0.514
			c0.137,0.085,0.273,0.169,0.41,0.252c0.819,0.5,1.672,0.946,2.553,1.333c0.14-0.07,0.281-0.141,0.418-0.216
			c-0.96-0.405-1.89-0.881-2.782-1.426c-0.173-0.104-0.344-0.213-0.513-0.321c0.057-0.238,0.116-0.474,0.188-0.706
			c0.517-1.764,1.402-3.369,2.566-4.736c0.103-0.118,0.205-0.239,0.312-0.356c0.093,0.139,0.188,0.272,0.285,0.407
			c1.102,1.536,2.375,2.916,3.786,4.107c0.082-0.091,0.159-0.182,0.237-0.274c-1.375-1.16-2.618-2.504-3.695-3.997
			c-0.122-0.168-0.241-0.337-0.358-0.509c0.191-0.197,0.388-0.391,0.592-0.575c1.859-1.691,4.211-2.855,6.813-3.252
			c0.007-0.121,0.01-0.245,0.015-0.368c-2.693,0.397-5.131,1.591-7.056,3.334c-0.196,0.179-0.385,0.364-0.569,0.552
			c-0.141-0.212-0.277-0.428-0.411-0.646C37.265,46.836,37.067,46.491,36.876,46.142 M27.646,46.881
			c0.647,0.093,1.307,0.156,1.974,0.188c0.316,0.017,0.633,0.022,0.952,0.025c-0.114,0.242-0.226,0.487-0.329,0.735
			c-0.242,0.568-0.465,1.147-0.664,1.734C28.88,48.722,28.232,47.824,27.646,46.881 M24.031,38.921
			c-0.188-0.031-0.374-0.063-0.56-0.1c0.12-0.257,0.248-0.511,0.383-0.761C23.908,38.349,23.968,38.636,24.031,38.921
			 M24.116,39.303c0.041,0.173,0.083,0.346,0.128,0.518c0.604,2.352,1.518,4.563,2.687,6.578c-1.743-0.318-3.412-0.854-4.973-1.583
			c0.095-1.763,0.474-3.451,1.092-5.022c0.084-0.213,0.174-0.425,0.266-0.633C23.58,39.215,23.848,39.26,24.116,39.303
			 M33.552,34.349c0,0.814,0.04,1.62,0.112,2.412c0.025,0.259,0.056,0.516,0.087,0.772c-0.232,0.11-0.469,0.218-0.706,0.317
			c-1.959,0.825-4.113,1.281-6.372,1.281c-0.627,0-1.242-0.034-1.849-0.103c-0.138-0.016-0.274-0.033-0.409-0.051
			c-0.094-0.414-0.177-0.835-0.251-1.256c-0.011-0.055-0.021-0.108-0.03-0.163c2.124-3.636,5.624-6.383,9.786-7.535
			C33.68,31.428,33.552,32.872,33.552,34.349 M34.464,41.123c-0.419,0.479-0.821,0.975-1.205,1.483
			c-0.736,0.981-1.403,2.019-1.992,3.104c-0.181,0.333-0.357,0.675-0.524,1.02c-0.04,0-0.078,0.002-0.117,0.002
			c-0.349,0-0.695-0.01-1.043-0.026c-0.738-0.037-1.466-0.113-2.182-0.228c-1.255-2.103-2.224-4.427-2.846-6.909
			c0.052-0.06,0.098-0.123,0.136-0.189c0.649,0.077,1.312,0.117,1.982,0.117c2.318,0,4.53-0.473,6.54-1.324
			c0.197-0.084,0.393-0.169,0.585-0.262c0.028,0.195,0.059,0.394,0.091,0.59c0.086,0.526,0.19,1.047,0.308,1.562
			C34.278,40.418,34.367,40.773,34.464,41.123 M36.347,45.922c-1.414,0.41-2.891,0.671-4.413,0.766
			c-0.26,0.018-0.521,0.029-0.784,0.037c0.136-0.273,0.275-0.543,0.419-0.809c0.567-1.05,1.209-2.056,1.919-3.007
			c0.35-0.469,0.715-0.926,1.097-1.37c0.186,0.63,0.393,1.246,0.624,1.852C35.542,44.261,35.924,45.106,36.347,45.922
			 M37.192,47.413c0.141,0.228,0.285,0.451,0.434,0.676c-0.135,0.145-0.268,0.293-0.395,0.444c-1.183,1.39-2.085,3.024-2.616,4.812
			c-0.062,0.21-0.119,0.421-0.173,0.637c-0.2-0.135-0.397-0.272-0.594-0.414c-1.46-1.054-2.8-2.29-3.996-3.678
			c0.22-0.664,0.464-1.315,0.738-1.953c0.122-0.285,0.25-0.566,0.384-0.847c0.311-0.005,0.621-0.018,0.928-0.037
			c1.594-0.095,3.141-0.371,4.62-0.805C36.734,46.644,36.959,47.032,37.192,47.413"/>
	</g>
	<linearGradient id="SVGID_4_" gradientUnits="userSpaceOnUse" x1="2.4585" y1="21.1768" x2="48.8086" y2="21.1768">
		<stop  offset="0" style="stop-color:#E0342D"/>
		<stop  offset="1" style="stop-color:#B91A26"/>
	</linearGradient>
	<rect x="2.458" y="20.031" fill="url(#SVGID_4_)" width="46.35" height="2.291"/>
	<linearGradient id="SVGID_5_" gradientUnits="userSpaceOnUse" x1="51.1006" y1="21.1768" x2="61.7969" y2="21.1768">
		<stop  offset="0" style="stop-color:#E0342D"/>
		<stop  offset="1" style="stop-color:#B91A26"/>
	</linearGradient>
	<rect x="51.101" y="20.031" fill="url(#SVGID_5_)" width="10.696" height="2.291"/>
	<g>
		<path fill="#FFFFFF" d="M31.34,58.346c8.211,0,14.893-6.682,14.893-14.893c0-8.213-6.682-14.893-14.893-14.893
			c-8.213,0-14.893,6.68-14.893,14.893C16.447,51.664,23.127,58.346,31.34,58.346 M17.215,42.224
			c0.012-0.147,0.025-0.293,0.043-0.438c0.183-1.557,0.616-3.038,1.261-4.401c0.052-0.11,0.107-0.217,0.162-0.325
			c1.101-2.177,2.742-4.028,4.754-5.382c0.123-0.082,0.251-0.163,0.375-0.242c2.184-1.369,4.763-2.165,7.53-2.165
			c0.912,0,1.805,0.091,2.669,0.256c0.074,0.014,0.15,0.025,0.223,0.041c0.271,0.055,0.535,0.121,0.797,0.191
			c1.846,0.496,3.541,1.355,5.009,2.496c0.094,0.075,0.191,0.148,0.285,0.224c0.878,0.721,1.668,1.545,2.352,2.452
			c0.074,0.098,0.146,0.2,0.217,0.3c1.132,1.588,1.947,3.414,2.349,5.394c0.028,0.144,0.052,0.291,0.077,0.438
			c0.132,0.777,0.205,1.574,0.205,2.392c0,0.161-0.008,0.322-0.014,0.48c-0.003,0.123-0.008,0.245-0.014,0.368
			c-0.189,3.171-1.418,6.061-3.353,8.333c-0.078,0.091-0.154,0.184-0.237,0.274c-1.092,1.218-2.391,2.249-3.842,3.033
			c-0.14,0.073-0.279,0.144-0.42,0.214c-1.009,0.502-2.084,0.885-3.212,1.137c-0.12,0.026-0.24,0.053-0.36,0.075
			c-0.884,0.173-1.798,0.266-2.73,0.266c-0.93,0-1.836-0.093-2.714-0.263c-0.122-0.022-0.242-0.049-0.362-0.075
			c-0.692-0.153-1.365-0.356-2.016-0.606c-0.262-0.102-0.518-0.208-0.769-0.324c-4.909-2.23-8.323-7.171-8.323-12.912
			C17.157,43.038,17.179,42.629,17.215,42.224"/>
		<path fill="#FFFFFF" d="M23.646,40.156c0.716,0,1.297-0.583,1.297-1.302c0-0.718-0.581-1.3-1.297-1.3
			c-0.718,0-1.298,0.582-1.298,1.3C22.348,39.573,22.929,40.156,23.646,40.156"/>
		<path fill="#FFFFFF" d="M33.849,38.433c0.499,0,0.903-0.405,0.903-0.904c0-0.5-0.404-0.904-0.903-0.904
			c-0.498,0-0.901,0.404-0.901,0.904C32.947,38.027,33.351,38.433,33.849,38.433"/>
		<path fill="#FFFFFF" d="M37.819,48.841c0.499,0,0.903-0.404,0.903-0.904c0-0.498-0.404-0.904-0.903-0.904
			c-0.498,0-0.903,0.406-0.903,0.904C36.916,48.437,37.321,48.841,37.819,48.841"/>
		<path fill="#FFFFFF" d="M34.39,55.087c0.499,0,0.902-0.406,0.902-0.904c0-0.5-0.403-0.904-0.902-0.904
			c-0.498,0-0.902,0.404-0.902,0.904C33.487,54.681,33.892,55.087,34.39,55.087"/>
		<path fill="#FFFFFF" d="M31.021,47.953c0.748,0,1.357-0.6,1.357-1.341c0-0.742-0.609-1.342-1.357-1.342
			c-0.749,0-1.354,0.6-1.354,1.342C29.666,47.354,30.271,47.953,31.021,47.953"/>
		<path fill="#FFFFFF" d="M34.752,43.63c1.037,0,1.879-0.833,1.879-1.859c0-1.027-0.842-1.857-1.879-1.857s-1.879,0.83-1.879,1.857
			C32.873,42.797,33.715,43.63,34.752,43.63"/>
	</g>
</g>
</svg>
