<?xml version="1.0" encoding="utf-8"?>
<!-- Generator: Adobe Illustrator 16.0.4, SVG Export Plug-In . SVG Version: 6.00 Build 0)  -->
<!DOCTYPE svg PUBLIC "-//W3C//DTD SVG 1.1//EN" "http://www.w3.org/Graphics/SVG/1.1/DTD/svg11.dtd">
<svg version="1.1" id="Ebene_1" xmlns="http://www.w3.org/2000/svg" xmlns:xlink="http://www.w3.org/1999/xlink" x="0px" y="0px"
	 width="64px" height="64px" viewBox="0 0 64 64" enable-background="new 0 0 64 64" xml:space="preserve">
<g>
	<linearGradient id="path3_2_" gradientUnits="userSpaceOnUse" x1="32" y1="0.2588" x2="32" y2="63.7412">
		<stop  offset="0" style="stop-color:#9D9D9C"/>
		<stop  offset="1" style="stop-color:#6F6F6F"/>
	</linearGradient>
	<path id="path3_1_" fill="url(#path3_2_)" d="M31.999,0.259c-17.505,0-31.74,14.234-31.74,31.742
		c0,17.505,14.235,31.74,31.74,31.74s31.742-14.235,31.742-31.74C63.741,14.493,49.504,0.259,31.999,0.259z M30.672,17.036
		c-3.384-0.133-6.687-0.714-9.82-1.781c2.381-4.325,5.735-8.095,9.82-11.122V17.036z M30.672,19.694v10.978h-14.02
		c0.174-4.575,1.233-8.972,3.062-13.007C23.208,18.881,26.889,19.562,30.672,19.694z M30.672,33.327v10.979
		c-3.786,0.136-7.475,0.814-10.971,2.042c-1.827-4.04-2.883-8.438-3.055-13.017h14.025V33.327z M30.672,46.963v12.94
		c-4.097-3.029-7.456-6.812-9.838-11.15C23.978,47.68,27.284,47.097,30.672,46.963z M33.328,46.955
		c3.437,0.121,6.785,0.715,9.979,1.798c-2.411,4.379-5.819,8.191-9.979,11.237V46.955z M33.328,44.299V33.327h14.163
		c-0.171,4.58-1.224,8.972-3.054,13.007C40.896,45.101,37.166,44.423,33.328,44.299z M33.328,30.672v-10.97
		c3.838-0.126,7.567-0.804,11.109-2.047c1.83,4.038,2.883,8.435,3.054,13.017H33.328z M33.328,17.044V4.01
		c4.155,3.049,7.563,6.857,9.972,11.236C40.113,16.331,36.762,16.923,33.328,17.044z M36.896,3.363
		c5.759,0.979,10.931,3.651,15.004,7.49c-1.945,1.351-3.982,2.517-6.113,3.437C43.569,10.159,40.571,6.443,36.896,3.363z
		 M18.368,14.297c-2.171-0.938-4.238-2.12-6.205-3.498c4.111-3.854,9.331-6.519,15.131-7.464
		C23.608,6.42,20.592,10.146,18.368,14.297z M17.228,16.703c-1.938,4.343-3.059,9.055-3.233,13.969H2.984
		C3.296,23.8,5.997,17.548,10.28,12.728C12.476,14.308,14.793,15.647,17.228,16.703z M13.991,33.327
		c0.17,4.911,1.285,9.638,3.219,13.971c-2.425,1.06-4.734,2.396-6.93,3.973c-4.287-4.826-6.984-11.073-7.296-17.943H13.991z
		 M18.356,49.715c2.221,4.142,5.213,7.857,8.896,10.95c-5.78-0.962-10.988-3.618-15.09-7.457
		C14.126,51.825,16.189,50.648,18.356,49.715z M45.787,49.702c2.138,0.92,4.175,2.082,6.124,3.441
		c-4.08,3.84-9.256,6.516-15.006,7.494C40.571,57.549,43.569,53.845,45.787,49.702z M46.925,47.29
		c1.942-4.341,3.059-9.052,3.224-13.966h10.864c-0.311,6.843-2.982,13.062-7.234,17.878C51.614,49.66,49.326,48.335,46.925,47.29z
		 M50.148,30.672c-0.17-4.914-1.285-9.626-3.227-13.969c2.401-1.042,4.692-2.365,6.856-3.909c4.252,4.821,6.924,11.037,7.242,17.878
		H50.148z"/>
	<path fill="#6F6F6F" d="M31.999,64C14.355,64,0,49.645,0,32.001C0,14.356,14.355,0,31.999,0C49.644,0,64,14.356,64,32.001
		C64,49.645,49.644,64,31.999,64z M31.999,0.517c-17.359,0-31.481,14.124-31.481,31.484c0,17.359,14.122,31.481,31.481,31.481
		c17.36,0,31.484-14.122,31.484-31.481C63.483,14.641,49.359,0.517,31.999,0.517z M28.144,61.074l-0.934-0.153
		c-5.713-0.949-10.979-3.551-15.225-7.523l-0.233-0.217l0.261-0.183c2.016-1.421,4.116-2.605,6.24-3.519l0.219-0.096l0.111,0.211
		c2.24,4.172,5.215,7.831,8.837,10.871L28.144,61.074z M12.573,53.238c3.897,3.564,8.639,5.97,13.788,7
		c-3.288-2.903-6.015-6.325-8.12-10.189C16.315,50.895,14.412,51.966,12.573,53.238z M36.011,61.053l0.728-0.612
		c3.637-3.064,6.604-6.718,8.819-10.86l0.112-0.209l0.218,0.094c2.084,0.896,4.16,2.062,6.171,3.468l0.261,0.183l-0.233,0.217
		c-4.226,3.979-9.46,6.595-15.138,7.561L36.011,61.053z M45.9,50.036c-2.082,3.833-4.803,7.25-8.101,10.171
		c5.11-1.045,9.823-3.464,13.699-7.033C49.669,51.919,47.789,50.864,45.9,50.036z M33.07,60.501V46.688l0.267,0.009
		c3.49,0.123,6.871,0.733,10.052,1.812l0.294,0.1l-0.149,0.27c-2.421,4.4-5.803,8.209-10.051,11.321L33.07,60.501z M33.587,47.226
		v12.251c3.909-2.946,7.048-6.499,9.341-10.577C39.963,47.926,36.824,47.362,33.587,47.226z M30.93,60.419l-0.413-0.306
		c-4.182-3.095-7.516-6.873-9.908-11.235l-0.149-0.27l0.292-0.1c3.108-1.062,6.441-1.67,9.911-1.805l0.268-0.01V60.419z
		 M21.211,48.899c2.268,4.038,5.359,7.562,9.202,10.486V47.234C27.2,47.381,24.108,47.941,21.211,48.899z M10.243,51.618
		l-0.156-0.176C5.642,46.44,3.026,40.011,2.726,33.339l-0.014-0.27h11.529l0.009,0.249c0.167,4.826,1.242,9.494,3.197,13.874
		l0.106,0.238l-0.239,0.105c-2.351,1.025-4.666,2.353-6.882,3.945L10.243,51.618z M3.256,33.586
		c0.352,6.379,2.852,12.519,7.064,17.339c2.113-1.5,4.314-2.763,6.549-3.759c-1.882-4.296-2.934-8.861-3.127-13.58H3.256z
		 M53.818,51.549l-0.189-0.136c-2.206-1.573-4.497-2.879-6.808-3.887l-0.24-0.104l0.106-0.239c1.962-4.383,3.04-9.05,3.202-13.868
		l0.008-0.249h11.388l-0.014,0.27c-0.3,6.642-2.893,13.046-7.297,18.037L53.818,51.549z M47.266,47.157
		c2.196,0.977,4.371,2.219,6.473,3.7c4.176-4.81,6.653-10.925,7.003-17.274H50.397C50.208,38.295,49.155,42.858,47.266,47.157z
		 M19.562,46.67l-0.098-0.217c-1.869-4.136-2.905-8.548-3.077-13.112l-0.01-0.268h14.294v0.256l0.258-0.002v11.229l-0.249,0.009
		c-3.784,0.136-7.448,0.817-10.893,2.026L19.562,46.67z M16.917,33.59c0.195,4.324,1.179,8.505,2.923,12.434
		c3.354-1.15,6.907-1.813,10.573-1.966V33.59H16.917z M44.575,46.657l-0.222-0.078c-3.493-1.218-7.205-1.897-11.033-2.021
		l-0.25-0.008v-11.48H47.76l-0.01,0.267c-0.171,4.569-1.204,8.979-3.076,13.106L44.575,46.657z M33.587,44.05
		c3.711,0.142,7.312,0.803,10.711,1.963c1.748-3.923,2.729-8.099,2.924-12.427H33.587V44.05z M61.293,30.93H49.898l-0.009-0.249
		c-0.167-4.822-1.246-9.489-3.205-13.872l-0.106-0.239l0.24-0.104c2.319-1.007,4.611-2.314,6.811-3.882l0.189-0.137l0.156,0.177
		c4.402,4.993,6.997,11.398,7.306,18.037L61.293,30.93z M50.396,30.413H60.75c-0.358-6.347-2.838-12.462-7.012-17.273
		c-2.096,1.478-4.271,2.719-6.476,3.695C49.149,21.134,50.203,25.698,50.396,30.413z M47.76,30.93H33.07V19.451l0.25-0.008
		c3.84-0.126,7.55-0.81,11.032-2.031l0.222-0.079l0.1,0.216c1.871,4.128,2.905,8.538,3.076,13.114L47.76,30.93z M33.587,30.413
		h13.635c-0.195-4.332-1.176-8.513-2.923-12.434c-3.389,1.163-6.991,1.828-10.712,1.972V30.413z M30.93,30.93H16.384l0.01-0.268
		c0.174-4.559,1.212-8.969,3.086-13.105l0.096-0.216L19.8,17.42c3.465,1.206,7.126,1.885,10.881,2.016l0.249,0.009V30.93z
		 M16.923,30.413h13.49V19.942c-3.641-0.148-7.188-0.808-10.559-1.956C18.105,21.918,17.12,26.097,16.923,30.413z M14.244,30.93
		H2.712l0.014-0.27c0.301-6.674,2.916-13.104,7.361-18.104l0.156-0.176l0.189,0.137c2.218,1.599,4.54,2.927,6.897,3.948l0.239,0.104
		l-0.106,0.239c-1.959,4.388-3.039,9.056-3.21,13.872L14.244,30.93z M3.256,30.413h10.489c0.198-4.71,1.254-9.274,3.14-13.578
		c-2.242-0.993-4.448-2.256-6.564-3.762C6.107,17.893,3.607,24.03,3.256,30.413z M33.07,17.312V3.499l0.412,0.303
		c4.252,3.12,7.631,6.929,10.042,11.319l0.15,0.27l-0.292,0.1c-3.167,1.079-6.547,1.689-10.046,1.812L33.07,17.312z M33.587,4.524
		v12.249c3.245-0.137,6.384-0.7,9.335-1.674C40.636,11.029,37.499,7.478,33.587,4.524z M30.93,17.305l-0.268-0.01
		c-3.464-0.134-6.791-0.738-9.896-1.796l-0.29-0.1l0.147-0.27c2.39-4.34,5.718-8.111,9.893-11.205L30.93,3.62V17.305z
		 M21.229,15.108c2.891,0.953,5.977,1.511,9.184,1.656V4.651C26.577,7.574,23.49,11.089,21.229,15.108z M18.483,14.628l-0.22-0.094
		c-2.11-0.912-4.212-2.098-6.251-3.524l-0.261-0.183l0.233-0.218c4.262-3.992,9.539-6.596,15.267-7.53l0.931-0.15l-0.725,0.605
		c-3.642,3.047-6.624,6.71-8.861,10.885L18.483,14.628z M12.574,10.768c1.856,1.278,3.764,2.352,5.679,3.195
		c2.105-3.865,4.844-7.294,8.148-10.204C21.242,4.774,16.484,7.185,12.574,10.768z M45.671,14.621l-0.113-0.209
		c-2.231-4.16-5.2-7.811-8.826-10.852l-0.733-0.613l0.942,0.161c5.683,0.967,10.918,3.58,15.138,7.557l0.232,0.218l-0.262,0.182
		c-2.027,1.409-4.1,2.573-6.161,3.461L45.671,14.621z M37.796,3.795c3.285,2.899,6.009,6.314,8.104,10.161
		c1.869-0.823,3.746-1.876,5.589-3.134C47.62,7.257,42.91,4.841,37.796,3.795z"/>
</g>
</svg>
