<?xml version="1.0" encoding="utf-8"?>
<!-- Generator: Adobe Illustrator 16.0.4, SVG Export Plug-In . SVG Version: 6.00 Build 0)  -->
<!DOCTYPE svg PUBLIC "-//W3C//DTD SVG 1.1//EN" "http://www.w3.org/Graphics/SVG/1.1/DTD/svg11.dtd">
<svg version="1.1" id="Ebene_1" xmlns="http://www.w3.org/2000/svg" xmlns:xlink="http://www.w3.org/1999/xlink" x="0px" y="0px"
	 width="64px" height="64px" viewBox="0 0 64 64" enable-background="new 0 0 64 64" xml:space="preserve">
<g>
	<g>
		<linearGradient id="SVGID_1_" gradientUnits="userSpaceOnUse" x1="4.209" y1="39.8252" x2="63.6035" y2="39.8252">
			<stop  offset="0.3103" style="stop-color:#E30613"/>
			<stop  offset="1" style="stop-color:#BE1622"/>
		</linearGradient>
		<path fill="url(#SVGID_1_)" d="M63.604,44.557l-2.584-4.613l-1.683,5.976c0,0-4.547-19.425-27.903-19.299H4.213L4.209,36.772
			h27.225c17.693-2.019,21.913,7.177,24.7,10.945l-5.98-1.687l2.58,4.611l8.48,2.389L63.604,44.557z"/>
		<path fill="#801D18" d="M61.214,53.428c-0.035,0-0.071-0.006-0.107-0.015l-8.479-2.389c-0.102-0.028-0.188-0.097-0.239-0.188
			l-2.58-4.611c-0.078-0.141-0.064-0.313,0.034-0.439c0.1-0.127,0.267-0.178,0.419-0.137l4.905,1.384
			c-0.072-0.105-0.146-0.214-0.221-0.324c-2.504-3.675-6.693-9.826-18.732-9.826c-1.492,0-3.085,0.096-4.733,0.284L4.209,37.169
			c-0.105,0-0.207-0.041-0.281-0.116c-0.074-0.074-0.115-0.175-0.115-0.28L3.816,26.62c0-0.219,0.178-0.396,0.396-0.396
			l27.447-0.001c19.65,0,26.111,13.921,27.657,18.303l1.32-4.689c0.043-0.154,0.175-0.268,0.335-0.286
			c0.158-0.02,0.315,0.06,0.393,0.199l2.584,4.613c0.052,0.092,0.064,0.2,0.036,0.302l-2.39,8.475
			C61.546,53.312,61.387,53.428,61.214,53.428z M52.999,50.307l7.94,2.235l2.238-7.935l-2.036-3.635l-1.423,5.054
			c-0.048,0.171-0.204,0.289-0.382,0.289c-0.003,0-0.006,0-0.008,0c-0.181-0.004-0.337-0.13-0.378-0.306
			c-0.045-0.189-4.729-18.994-27.291-18.994l-0.225,0.001H4.609l-0.005,9.359h26.829c1.634-0.188,3.258-0.285,4.779-0.285
			c12.458,0,16.796,6.367,19.388,10.172c0.305,0.447,0.585,0.858,0.852,1.22c0.101,0.137,0.104,0.321,0.008,0.461
			c-0.098,0.14-0.274,0.2-0.434,0.156l-5.06-1.427L52.999,50.307z"/>
	</g>
	<g>
		<path fill="#E30613" d="M28.04,56.482c0,0,5.014-22.515-18.236-27.535l-3.933-0.645l-0.003,7.992h6.039
			c8.548-0.133,11.851,9.308,12.46,20.19l-4.395-4.395v5.285l6.231,6.228l6.226-6.228v-5.285L28.04,56.482z"/>
		<path fill="#801D18" d="M26.204,64c-0.101,0-0.202-0.038-0.279-0.115l-6.231-6.228c-0.076-0.074-0.117-0.176-0.117-0.281v-5.285
			c0-0.16,0.097-0.305,0.245-0.366c0.148-0.06,0.316-0.028,0.432,0.086l3.652,3.652c-1.111-15.483-7.01-18.772-11.819-18.772
			l-6.218,0.001c-0.105,0-0.206-0.041-0.28-0.117C5.514,36.5,5.472,36.4,5.472,36.295l0.003-7.992c0-0.117,0.052-0.228,0.14-0.303
			c0.089-0.074,0.209-0.104,0.321-0.089l3.932,0.646c7.107,1.533,12.314,4.83,15.496,9.8c4.136,6.459,3.656,14.048,3.267,16.976
			l3.52-3.521c0.113-0.116,0.282-0.146,0.432-0.087c0.148,0.062,0.245,0.206,0.245,0.366v5.285c0,0.105-0.041,0.205-0.115,0.28
			l-6.226,6.228C26.407,63.961,26.306,64,26.204,64z M20.369,57.212l5.835,5.831l5.829-5.831v-4.164l-3.712,3.714
			c-0.125,0.125-0.318,0.151-0.472,0.068c-0.154-0.086-0.234-0.262-0.196-0.434c0.021-0.097,2.084-9.746-2.961-17.619
			c-3.065-4.782-8.102-7.959-14.973-9.442l-3.452-0.566l-0.003,7.13l5.821-0.001c7.433,0,11.935,7.303,12.677,20.566
			c0.009,0.164-0.084,0.316-0.233,0.384c-0.152,0.064-0.326,0.033-0.442-0.081l-3.718-3.719V57.212z"/>
	</g>
	<g>
		<linearGradient id="SVGID_2_" gradientUnits="userSpaceOnUse" x1="4.5479" y1="26.9834" x2="57.373" y2="26.9834">
			<stop  offset="0" style="stop-color:#E3342D"/>
			<stop  offset="1" style="stop-color:#BC0A26"/>
		</linearGradient>
		<path fill="url(#SVGID_2_)" d="M55.362,16.957l-8.573,2.012l-2.786,4.49l4.851-1.139c-1.189,6.003-8.934,8.822-12.82,8.822H4.548
			l0.005,5.868h31.48c10.262-1.194,17.139-13.035,17.139-13.035l1.418,6.05l2.783-4.49L55.362,16.957z"/>
		<path fill="#801D18" d="M36.033,37.407H4.553c-0.219,0-0.396-0.178-0.396-0.396l-0.004-5.868c0-0.105,0.041-0.205,0.115-0.279
			c0.074-0.075,0.176-0.117,0.28-0.117h31.485c3.716,0,10.77-2.637,12.283-7.893l-4.223,0.991c-0.157,0.035-0.32-0.024-0.413-0.154
			c-0.094-0.13-0.1-0.304-0.015-0.44l2.786-4.49c0.056-0.09,0.144-0.153,0.246-0.178l8.573-2.011c0.105-0.024,0.212-0.006,0.3,0.049
			c0.09,0.055,0.153,0.144,0.178,0.246l2.01,8.578c0.024,0.104,0.007,0.211-0.049,0.3l-2.784,4.489
			c-0.083,0.137-0.241,0.206-0.4,0.183c-0.158-0.025-0.285-0.145-0.322-0.3l-1.2-5.12c-1.786,2.747-8.059,11.376-16.925,12.408
			C36.063,37.406,36.048,37.407,36.033,37.407z M4.948,36.615H36.01c9.93-1.173,16.751-12.722,16.819-12.839
			c0.08-0.14,0.239-0.219,0.401-0.192c0.16,0.023,0.29,0.144,0.327,0.301l1.199,5.118l2.193-3.536l-1.883-8.033l-8.028,1.884
			l-2.195,3.537l3.919-0.92c0.131-0.032,0.27,0.007,0.366,0.102c0.097,0.093,0.14,0.229,0.113,0.362
			c-1.264,6.38-9.358,9.141-13.209,9.141H4.944L4.948,36.615z"/>
	</g>
	<g>
		<linearGradient id="SVGID_3_" gradientUnits="userSpaceOnUse" x1="33.374" y1="19.1826" x2="0.3965" y2="19.1826">
			<stop  offset="0.3103" style="stop-color:#E30613"/>
			<stop  offset="1" style="stop-color:#BE1622"/>
		</linearGradient>
		<path fill="url(#SVGID_3_)" d="M27.143,1.354l-6.226,6.23v5.283l4.389-4.392c0.104,6.361-6.622,18.397-21.448,18.144H0.396
			l0.008,10.391h3.453c13.213,0,23.322-8.721,24.651-23.931c0.059-0.672,0.471-4.606,0.471-4.606l4.395,4.395V7.585L27.143,1.354z"
			/>
		<path fill="#801D18" d="M3.857,37.407H0.404c-0.219,0-0.396-0.178-0.396-0.396L0,26.62c0-0.105,0.041-0.205,0.115-0.279
			c0.074-0.075,0.176-0.117,0.281-0.117l3.922,0.004c7.618-0.001,12.474-3.31,15.205-6.087c3.398-3.454,5.073-7.653,5.347-10.667
			l-3.673,3.674c-0.115,0.113-0.283,0.145-0.432,0.087c-0.148-0.062-0.245-0.207-0.245-0.366V7.585c0-0.105,0.041-0.206,0.116-0.28
			l6.225-6.229c0.149-0.148,0.412-0.149,0.561-0.001l6.232,6.229c0.075,0.074,0.116,0.176,0.116,0.281v5.283
			c0,0.159-0.097,0.304-0.245,0.366c-0.149,0.058-0.318,0.026-0.432-0.086l-3.807-3.808c-0.124,1.191-0.342,3.299-0.383,3.773
			C27.614,27.872,17.782,37.407,3.857,37.407z M0.801,36.615h3.057c13.484,0,23.005-9.252,24.256-23.569
			c0.061-0.673,0.472-4.614,0.472-4.614c0.016-0.151,0.118-0.28,0.263-0.332c0.144-0.053,0.303-0.015,0.413,0.093l3.717,3.719V7.749
			l-5.835-5.834l-5.829,5.834v4.161l3.711-3.714c0.115-0.113,0.282-0.146,0.43-0.088c0.147,0.061,0.244,0.203,0.247,0.361
			c0.049,2.959-1.392,7.938-5.613,12.228c-2.837,2.885-7.877,6.322-15.77,6.323l-3.526-0.004L0.801,36.615z"/>
	</g>
</g>
</svg>
