<svg xmlns="http://www.w3.org/2000/svg" viewBox="14 8 32 44"><polygon points="24.29 8.17 14.07 19.91 24.29 19.91 24.29 8.17" fill="currentcolor" opacity="0.5"/><path d="M24.29,8.17V19.91H14.07V51.83H45.93V8.17Zm7.44,34.61c-4.47,0-7.3-2.19-8.67-6.7L23,36H21V33.35h1.56v-.11c0-.31,0-.61,0-.92s0-.76.05-1.15v-.11H21V28.41h2.09l0-.08c1.43-4.51,4.29-6.7,8.75-6.7a12.07,12.07,0,0,1,5.07,1L35.77,25a9.43,9.43,0,0,0-3.91-.76c-3.47,0-4.88,1.59-5.93,4l-.06.15h6.77v2.65h-7.4v.09c0,.44-.06.81-.06,1.17s0,.62,0,.93v.1h7.42V36H25.81l.06.15c1.12,2.62,2.4,4,5.86,4a10.64,10.64,0,0,0,4.11-.77L37,41.75A13.2,13.2,0,0,1,31.73,42.78Z" fill="currentcolor"/></svg>