<?xml version="1.0" encoding="utf-8"?>
<!-- Generator: Adobe Illustrator 23.0.3, SVG Export Plug-In . SVG Version: 6.00 Build 0)  -->
<svg version="1.1" id="Ebene_1" xmlns="http://www.w3.org/2000/svg" xmlns:xlink="http://www.w3.org/1999/xlink" x="0px" y="0px"
	 viewBox="0 0 60 60" enable-background="new 0 0 60 60" xml:space="preserve">
<g>
	<rect x="20.5" y="17.4" opacity="0.5" fill="#FFFFFF" width="19.4" height="2.9"/>
	<path fill="#FFFFFF" d="M17.3,9.2c-1.7,0-3.6,1.3-3.7,3c0,0,0,31.3,0,34.7c0,2.5,2.2,3.9,4.5,3.9c1.9,0,28.2,0,28.2,0V9.2H17.3z
		 M20.5,17.4h19.4l0,2.8H20.5L20.5,17.4z M23.3,24.5v-2.2h14v2.2H23.3z M45.3,49.7H17.6c-1.5-0.1-2.8-1.1-2.8-2.2
		c0-1.1,1.2-2.1,2.8-2.2h27.7V49.7z"/>
	<rect x="23.3" y="22.4" opacity="0.5" fill="#FFFFFF" width="14" height="2.2"/>
</g>
</svg>
