<svg xmlns="http://www.w3.org/2000/svg" viewBox="13 9 34 42">
<g>
	<rect x="20.5" y="17.4" opacity="0.5" fill="currentcolor" width="19.4" height="2.9"/>
	<path fill="currentcolor" d="M17.3,9.2c-1.7,0-3.6,1.3-3.7,3c0,0,0,31.3,0,34.7c0,2.5,2.2,3.9,4.5,3.9c1.9,0,28.2,0,28.2,0V9.2H17.3z    M20.5,17.4h19.4l0,2.8H20.5L20.5,17.4z M23.3,24.5v-2.2h14v2.2H23.3z M45.3,49.7H17.6c-1.5-0.1-2.8-1.1-2.8-2.2   c0-1.1,1.2-2.1,2.8-2.2h27.7V49.7z"/>
	<rect x="23.3" y="22.4" opacity="0.5" fill="currentcolor" width="14" height="2.2"/>
</g>
</svg>