<?xml version="1.0" encoding="utf-8"?>
<!-- Generator: Adobe Illustrator 24.1.0, SVG Export Plug-In . SVG Version: 6.00 Build 0)  -->
<svg version="1.1" id="Ebene_1" xmlns="http://www.w3.org/2000/svg" xmlns:xlink="http://www.w3.org/1999/xlink" x="0px" y="0px"
	 viewBox="0 0 60 60" enable-background="new 0 0 60 60" xml:space="preserve">
<g>
	<path fill="#FFFFFF" d="M24.7,15.8c0.6,0.1,1.3,0.3,1.9,0.4c1.1,0.3,2.2,0.6,3.4,0.6c1.2,0,2.3-0.3,3.4-0.6
		c0.7-0.2,1.4-0.4,2.2-0.5c0.8-0.6,1.1-0.7,0.6-2C35.6,12,34,10.4,34,10.4s-2.3-2.6-4-2.6c-1.7,0-4,2.6-4,2.6s-1.6,1.6-2.2,3.4
		C23.4,15.1,23.8,15.2,24.7,15.8z"/>
	<g>
		<path fill="#FFFFFF" d="M47.7,52.1l-2.2-1l-1.1-5.6l-2.1-1.4c-0.3,0.3-0.5,0.7-0.8,1c-0.2,0.2-0.4,0.4-0.6,0.6l1.6,1.1l1.2,5.8
			l3.2,1.4c0.1,0.1,0.3,0.1,0.4,0.1c0.4,0,0.8-0.2,1-0.6C48.5,53,48.2,52.4,47.7,52.1z"/>
		<path fill="#FFFFFF" d="M46.3,9.6c-0.3-0.5-1-0.6-1.5-0.3l-3.1,2.1l-1.1,5.6l-1.7,0.8c0,0,0.1,0,0.1,0.1c0.1,0,0.2,0.1,0.3,0.2
			c0.1,0.1,0.3,0.2,0.4,0.3c0.1,0.1,0.2,0.1,0.3,0.2c0.2,0.1,0.3,0.3,0.5,0.4c0.1,0.1,0.2,0.1,0.2,0.2c0.1,0.1,0.1,0.1,0.2,0.2
			l1.6-0.7l1.2-5.8l2.4-1.6C46.5,10.7,46.7,10.1,46.3,9.6z"/>
		<path fill="#FFFFFF" d="M54.1,23.9c-0.4-0.5-1.1-0.5-1.5-0.1l-3,2.5L47,23.3l-2.6,0.9c0.3,0.6,0.6,1.3,0.8,2l1.1-0.4l2.9,3.4
			l4.7-3.8C54.4,25,54.4,24.3,54.1,23.9z"/>
	</g>
	<path opacity="0.5" fill="#FFFFFF" d="M41.5,19.8c-4.4-4.9-7-1.6-11.5-1.6s-7-3.4-11.5,1.6c-2.9,3.2-4.8,7.7-4.8,12.7
		s1.8,9.4,4.8,12.7c2.4,2.6,5.4,4.4,8.9,5C28.8,48,30,30.3,30,30.3s1.3,17.8,2.6,19.9c3.4-0.6,6.5-2.4,8.9-5
		c2.9-3.2,4.8-7.7,4.8-12.7S44.4,23,41.5,19.8z M15.9,25.8c0-1.5,1-2.7,2.2-2.7s2.2,1.2,2.2,2.7c0,1.5-1,2.7-2.2,2.7
		S15.9,27.3,15.9,25.8z M19.7,43.9c-1.2,0-2.2-1.1-2.2-2.4s1-2.4,2.2-2.4c1.2,0,3,1.1,3,2.4S20.9,43.9,19.7,43.9z M24.1,35.9
		c-1.7,0-3-1.3-3-3s1.3-3,3-3s3,1.3,3,3S25.7,35.9,24.1,35.9z M30,25.4c-1.9,0-3.4-1.7-3.4-3.8s1.5-2.9,3.4-2.9s3.4,0.8,3.4,2.9
		S31.9,25.4,30,25.4z M32.9,32.9c0-1.6,1.3-3,3-3s3,1.3,3,3s-1.3,3-3,3S32.9,34.6,32.9,32.9z M40.4,43.9c-1.2,0-3-1.1-3-2.4
		s1.8-2.4,3-2.4c1.2,0,2.2,1.1,2.2,2.4S41.6,43.9,40.4,43.9z M41.8,28.6c-1.2,0-2.2-1.2-2.2-2.7c0-1.5,1-2.7,2.2-2.7
		c1.2,0,2.2,1.2,2.2,2.7C44,27.3,43.1,28.6,41.8,28.6z"/>
	<g>
		<path fill="#FFFFFF" d="M12.3,52.1l2.2-1l1.1-5.6l2.1-1.4c0.3,0.3,0.5,0.7,0.8,1c0.2,0.2,0.4,0.4,0.6,0.6l-1.6,1.1l-1.2,5.8
			l-3.2,1.4c-0.1,0.1-0.3,0.1-0.4,0.1c-0.4,0-0.8-0.2-1-0.6C11.5,53,11.8,52.4,12.3,52.1z"/>
		<path fill="#FFFFFF" d="M13.7,9.6c0.3-0.5,1-0.6,1.5-0.3l3.1,2.1l1.1,5.6l1.7,0.8c0,0-0.1,0-0.1,0.1c-0.1,0-0.2,0.1-0.3,0.2
			c-0.1,0.1-0.3,0.2-0.4,0.3c-0.1,0.1-0.2,0.1-0.3,0.2c-0.2,0.1-0.3,0.3-0.5,0.4c-0.1,0.1-0.2,0.1-0.2,0.2c-0.1,0.1-0.1,0.1-0.2,0.2
			l-1.6-0.7l-1.2-5.8L14,11.1C13.5,10.7,13.3,10.1,13.7,9.6z"/>
		<path fill="#FFFFFF" d="M5.9,23.9c0.4-0.5,1.1-0.5,1.5-0.1l3,2.5l2.5-2.9l2.6,0.9c-0.3,0.6-0.6,1.3-0.8,2l-1.1-0.4l-2.9,3.4
			l-4.7-3.8C5.6,25,5.6,24.3,5.9,23.9z"/>
	</g>
	<ellipse fill="#FFFFFF" cx="35.9" cy="32.9" rx="3" ry="3"/>
	<ellipse fill="#FFFFFF" cx="24.1" cy="32.9" rx="3" ry="3"/>
	<path fill="#FFFFFF" d="M33.4,21.6c0,2.1-1.5,3.8-3.4,3.8c-1.9,0-3.4-1.7-3.4-3.8s1.5-2.9,3.4-2.9C31.9,18.8,33.4,19.6,33.4,21.6z"
		/>
	<ellipse fill="#FFFFFF" cx="41.8" cy="25.8" rx="2.2" ry="2.7"/>
	<ellipse fill="#FFFFFF" cx="18.2" cy="25.8" rx="2.2" ry="2.7"/>
	<path fill="#FFFFFF" d="M22.7,41.5c0,1.3-1.8,2.4-3,2.4c-1.2,0-2.2-1.1-2.2-2.4c0-1.3,1-2.4,2.2-2.4C20.9,39.1,22.7,40.2,22.7,41.5
		z"/>
	<path fill="#FFFFFF" d="M42.6,41.5c0,1.3-1,2.4-2.2,2.4c-1.2,0-3-1.1-3-2.4c0-1.3,1.8-2.4,3-2.4C41.6,39.1,42.6,40.2,42.6,41.5z"/>
	<g>
		<path fill="#FFFFFF" d="M27.3,50.1c0.9,0.2,1.7,0.3,2.6,0.3c0.9,0,1.8-0.1,2.6-0.3c-1.4-2-2.6-19.9-2.6-19.9S28.8,48,27.3,50.1z"
			/>
		<path fill="#FFFFFF" d="M30,30.3c0,0,1.3,17.8,2.6,19.9c-0.9,0.2-1.7,0.3-2.6,0.3c-0.9,0-1.8-0.1-2.6-0.3C28.8,48,30,30.3,30,30.3
			"/>
	</g>
</g>
</svg>
