<svg xmlns="http://www.w3.org/2000/svg" viewBox="10 9 40 39"><polygon points="42.49 13.15 42.49 9.89 38.49 9.89 38.49 13.15 21.51 13.15 21.51 9.89 17.51 9.89 17.51 13.15 10.93 13.15 10.93 21.79 49.07 21.79 49.07 13.15 42.49 13.15" fill="currentcolor" opacity="0.5"/><path d="M10.93,21.79v26H49.07v-26ZM24.74,40.62a7.23,7.23,0,0,1-3.66-.88l.59-2.16a6.87,6.87,0,0,0,2.86.76c1.5,0,2.27-.73,2.27-1.66,0-1.21-1.22-1.76-2.49-1.76H23.13V32.85h1.12c1,0,2.2-.38,2.2-1.43,0-.74-.6-1.29-1.82-1.29a5.65,5.65,0,0,0-2.58.74l-.59-2.09a7.77,7.77,0,0,1,3.81-.93c2.65,0,4.11,1.39,4.11,3.08a3,3,0,0,1-2.26,2.87v0a3.08,3.08,0,0,1,2.68,3C29.8,39,27.88,40.62,24.74,40.62Zm13.44-.21h-2.8V30.62h0L33,31.74l-.48-2.16,3.27-1.52h2.4Z" fill="currentcolor"/></svg>