<svg xmlns="http://www.w3.org/2000/svg" viewBox="6 11 48 41">
<g>
	<g>
		<g opacity="0.75">
			<g>
				<path fill="currentcolor" d="M48.3,31.8l-14.1,8.1l-6.5-11.4l14.1-8.1L48.3,31.8z"/>
			</g>
		</g>
		<circle opacity="0.25" fill="currentcolor" cx="26.8" cy="47" r="2.4"/>
		<path fill="currentcolor" d="M32.5,46.3l21.3-12.1l-1.4-2.5L33.5,42.4L16,11.6H6.7l-0.1,2.9h7.7l11,19.4v9c-0.2,0.1-0.5,0.2-0.7,0.3    c-2.1,1.2-2.8,3.8-1.6,5.9c0.8,1.4,2.3,2.2,3.8,2.2c0.7,0,1.5-0.2,2.1-0.6c2.1-1.2,2.8-3.8,1.6-5.9c-0.5-0.9-1.4-1.6-2.3-1.9v-3.9    L32.5,46.3z M28.9,45.8c0.3,0.6,0.4,1.2,0.2,1.8c-0.2,0.6-0.6,1.1-1.1,1.5c-0.4,0.2-0.8,0.3-1.2,0.3c-0.9,0-1.7-0.5-2.1-1.2    c-0.7-1.2-0.3-2.6,0.9-3.3c0.4-0.2,0.8-0.3,1.2-0.3C27.7,44.5,28.5,45,28.9,45.8z"/>
	</g>
</g>
</svg>