<svg xmlns="http://www.w3.org/2000/svg" viewBox="9 12 46 36">
<g>
	<path fill="currentcolor" d="M49.9,26.7c-2.5,0-4,2.2-5,2.2c-1,0-2-3.1-2-5.7v-5.7h0v-5.1h-5.5c-2.1,0.3-4,1.1-4,1.9c0,1,2.2,2.5,2.2,5   c0,2.5-1.8,4.9-4.4,4.9h-0.6h-0.6c-2.7,0-4.4-2.3-4.4-4.9c0-2.5,2.2-4,2.2-5c0-0.8-1.9-1.6-4-1.9H9.3v9.1c0.3,2.1,1.1,4,1.9,4   c1,0,2.5-2.2,5-2.2S21,25,21,27.6v0.6v0.6c0,2.7-2.3,4.4-4.9,4.4s-4-2.2-5-2.2c-0.8,0-1.6,1.9-1.9,4v12.6h9.7   c2.5-0.1,5.2-1.1,5.2-2c0-1-2.2-2.5-2.2-5c0-2.5,1.8-4.9,4.4-4.9h0.6h0.6c2.7,0,4.4,2.3,4.4,4.9c0,2.5-2.2,4-2.2,5   c0,0.9,2.7,1.9,5.2,2h7.9v-1.6h0v-5.7c0-2.7,1.1-5.7,2-5.7c1,0,2.5,2.2,5,2.2c2.5,0,4.9-1.8,4.9-4.4v-0.6v-0.6   C54.7,28.5,52.4,26.7,49.9,26.7z"/>
</g>
</svg>