<svg xmlns="http://www.w3.org/2000/svg" viewBox="8 6 44 44"><path d="M51.15,17.49l-17,8.06-1.91,4.82c4.34-2.09,13.47-6.47,16.08-7.74A4.94,4.94,0,0,0,51.15,17.49Z" fill="currentcolor"/><path d="M33.05,36.83a7.15,7.15,0,0,0-4.61-1.63L29.65,32,39.87,6.45s-3.92.09-5.1,3L27,28.8l-3.86,1.73a7.18,7.18,0,0,0-14.34,0,6.52,6.52,0,0,0,1.86,5.17A7.55,7.55,0,0,0,16.78,38c2.61-.32,7.8-3.78,7.8-3.78s-3.22,5.17-3.26,8a7.24,7.24,0,0,0,2.62,5.7,7.18,7.18,0,1,0,9.11-11.1ZM19,34.19a4.53,4.53,0,0,1-7.58-3.56,4.54,4.54,0,0,1,7.88-2.84A4.54,4.54,0,0,1,19,34.19ZM32,45.25a4.53,4.53,0,1,1-3.55-7.4,4.46,4.46,0,0,1,2.92,1A4.53,4.53,0,0,1,32,45.25Z" fill="currentcolor"/></svg>