<?xml version="1.0" encoding="utf-8"?>
<!-- Generator: Adobe Illustrator 23.0.4, SVG Export Plug-In . SVG Version: 6.00 Build 0)  -->
<svg version="1.1" id="Ebene_1" xmlns="http://www.w3.org/2000/svg" xmlns:xlink="http://www.w3.org/1999/xlink" x="0px" y="0px"
	 viewBox="0 0 60 60" enable-background="new 0 0 60 60" xml:space="preserve">
<g>
	<ellipse opacity="0.5" fill="#FFFFFF" cx="30" cy="15.8" rx="17.4" ry="4.5"/>
	<g>
		<path fill="#FFFFFF" d="M30,20.4c-9.6,0-17.4-2-17.4-4.5v8.7C12.6,27,20.4,29,30,29s17.4-2,17.4-4.5v-8.7
			C47.4,18.3,39.6,20.4,30,20.4z"/>
		<path fill="#FFFFFF" d="M12.6,27.1v7.3c0,2.5,7.8,4.5,17.4,4.5s17.4-2,17.4-4.5v-7.3C44,29.7,35.5,30.5,30,30.5
			C24.5,30.5,16,29.7,12.6,27.1z"/>
		<path fill="#FFFFFF" d="M12.6,37v7.1c0,2.5,7.8,4.5,17.4,4.5s17.4-2,17.4-4.5V37C44,39.7,35.5,40.4,30,40.4
			C24.5,40.4,16,39.7,12.6,37z"/>
	</g>
</g>
</svg>
