<svg xmlns="http://www.w3.org/2000/svg" viewBox="14 8 32 44"><polygon points="24.29 8.17 14.07 19.91 24.29 19.91 24.29 8.17" fill="currentcolor" opacity="0.5"/><path d="M24.29,8.17V19.91H14.07V51.83H45.93V8.17Zm5.37,32.59c-5.58,0-9.45-3.76-10.78-8.76h1.5c.55,2,1.49,2.47,2.7,3.7a11,11,0,0,1-.23-2.24,5.65,5.65,0,0,1,5.65-5.65,5.74,5.74,0,0,1,5.66,5.75A7.22,7.22,0,0,1,33.73,36a7.28,7.28,0,0,0,2.17-6h5.22C40.59,35,34.57,40.76,29.66,40.76Z" fill="currentcolor"/><path d="M28.5,29.66a3.64,3.64,0,1,0,3.64,3.63A3.64,3.64,0,0,0,28.5,29.66Z" fill="currentcolor"/></svg>