<svg xmlns="http://www.w3.org/2000/svg" viewBox="7 9 48 41"><path d="M47.22,24.86a7.4,7.4,0,0,0-1,14.73v-2a5.4,5.4,0,1,1,2,0v2a7.4,7.4,0,0,0-1-14.73Z" fill="currentcolor" opacity="0.75"/><rect x="13.21" y="9.8" width="5" height="5" fill="currentcolor" opacity="0.75"/><rect x="24.69" y="9.8" width="5" height="5" fill="currentcolor" opacity="0.75"/><path d="M50.22,32.26a3,3,0,1,0-4,2.82V47.94H25.89a3.44,3.44,0,0,1-3.43-3.43V39.23h0A12.94,12.94,0,0,0,35.43,26.3V16.1a4.81,4.81,0,0,0-4.8-4.8h-.88v2h.88a2.81,2.81,0,0,1,2.8,2.8V26.3A11,11,0,0,1,22.5,37.23H20.43A10.94,10.94,0,0,1,9.5,26.3V16.1a2.8,2.8,0,0,1,2.8-2.8h.88v-2H12.3a4.8,4.8,0,0,0-4.8,4.8V26.3A12.94,12.94,0,0,0,20.43,39.23h0v5.28a5.44,5.44,0,0,0,5.43,5.43H48.22V35.08A3,3,0,0,0,50.22,32.26Z" fill="currentcolor"/></svg>