<svg id="Ebene_1" xmlns="http://www.w3.org/2000/svg" viewBox="0 0 64 64">
<polygon fill="#fff" points="46.1,14.9 32.2,1 27.9,5.3 27.9,5.3 18.3,14.9 22.6,19.3 32.2,9.6 41.8,19.2 "/>
<polygon fill="#fff" points="18.3,48.9 32.1,62.7 36.4,58.4 36.4,58.4 46.1,48.8 41.8,44.5 32.1,54.1 22.6,44.6 "/>
<polygon fill="#fff" points="11.5,27.1 11.5,27.1 52.8,27.1 52.8,21 11.5,21 "/>
<polygon fill="#fff" points="11.5,34.9 11.5,34.9 52.8,34.9 52.8,28.8 11.5,28.8 "/>
<polygon fill="#fff" points="11.5,42.8 11.5,42.7 52.8,42.7 52.8,36.7 11.5,36.7 "/>
</svg>
