<?xml version="1.0" encoding="utf-8"?>
<!-- Generator: Adobe Illustrator 25.0.0, SVG Export Plug-In . SVG Version: 6.00 Build 0)  -->
<svg version="1.1"
	 id="Ebene_1" inkscape:version="0.92.2 2405546, 2018-03-11" sodipodi:docname="draggable.svg" xmlns:cc="http://creativecommons.org/ns#" xmlns:dc="http://purl.org/dc/elements/1.1/" xmlns:inkscape="http://www.inkscape.org/namespaces/inkscape" xmlns:rdf="http://www.w3.org/1999/02/22-rdf-syntax-ns#" xmlns:sodipodi="http://sodipodi.sourceforge.net/DTD/sodipodi-0.dtd" xmlns:svg="http://www.w3.org/2000/svg"
	 xmlns="http://www.w3.org/2000/svg" xmlns:xlink="http://www.w3.org/1999/xlink" x="0px" y="0px" viewBox="0 0 64 64"
	 style="enable-background:new 0 0 64 64;" xml:space="preserve">
<style type="text/css">
	.st0{fill:#FFFFFF;}
</style>
<sodipodi:namedview  bordercolor="#666666" borderopacity="1" gridtolerance="10" guidetolerance="10" id="namedview11" inkscape:current-layer="Ebene_1" inkscape:cx="32" inkscape:cy="32" inkscape:pageopacity="0" inkscape:pageshadow="2" inkscape:window-height="1101" inkscape:window-maximized="1" inkscape:window-width="1912" inkscape:window-x="1920" inkscape:window-y="0" inkscape:zoom="3.6875" objecttolerance="10" pagecolor="#ffffff" showgrid="false">
	</sodipodi:namedview>
<polygon class="st0" points="45.9,14.9 32,1 27.7,5.3 27.7,5.3 18.1,14.9 22.4,19.3 32,9.6 41.6,19.2 "/>
<polygon class="st0" points="18.1,48.9 32,62.7 36.3,58.4 36.3,58.4 45.9,48.8 41.6,44.5 32,54.1 22.4,44.6 "/>
<polygon class="st0" points="16.3,27.1 16.3,27.1 47.7,27.1 47.7,21 16.3,21 "/>
<polygon class="st0" points="16.3,34.9 16.3,34.9 47.7,34.9 47.7,28.8 16.3,28.8 "/>
<polygon class="st0" points="16.3,42.8 16.3,42.7 47.7,42.7 47.7,36.7 16.3,36.7 "/>
</svg>
