<svg xmlns="http://www.w3.org/2000/svg" viewBox="10 6 40 47">
<path fill="currentcolor" d="M41.3,40.6l-3.9-3.9c0.1-0.1,0.1-0.2,0.1-0.2c1.5-2.3,2.4-5.2,2.4-8.2c0-3.5-1.3-6.7-3.3-9.3  c-0.9,1.1-1.9,2.5-2.7,3.6c1.1,1.6,1.7,3.6,1.7,5.7c0,3.2-1.5,6.1-3.7,8h0c-0.2,0.1-0.4,0.3-0.5,0.4c-0.1,0.1-0.1,0.1-0.2,0.2  c-0.2,0.1-0.3,0.2-0.5,0.3c-0.1,0.1-0.2,0.1-0.3,0.2c-0.2,0.1-0.3,0.2-0.5,0.3c-0.1,0.1-0.2,0.1-0.4,0.2c-0.2,0.1-0.3,0.1-0.5,0.2  c-0.1,0.1-0.3,0.1-0.4,0.2c-0.2,0.1-0.3,0.1-0.5,0.1c-0.2,0.1-0.3,0.1-0.5,0.1c-0.1,0-0.3,0.1-0.4,0.1c-0.2,0-0.4,0.1-0.6,0.1  c-0.1,0-0.2,0-0.4,0c-0.3,0-0.7,0.1-1,0.1c-0.5,0-0.9,0-1.3-0.1c-0.1,0-0.2,0-0.4-0.1c-0.4-0.1-0.7-0.1-1-0.2c-0.1,0-0.2,0-0.3-0.1  c-0.4-0.1-0.8-0.3-1.2-0.4c-0.1,0-0.2-0.1-0.3-0.1c-0.3-0.1-0.6-0.3-0.9-0.5c-0.1-0.1-0.2-0.1-0.3-0.2c-0.4-0.2-0.7-0.5-1-0.7  c0,0-0.1-0.1-0.1-0.1c-0.3-0.2-0.6-0.5-0.8-0.8c-0.1-0.1-0.2-0.2-0.3-0.3c-0.2-0.2-0.4-0.5-0.6-0.8c-0.1-0.1-0.1-0.1-0.2-0.2  c-0.2-0.3-0.4-0.7-0.6-1c-0.6-1.1-1-2.3-1.2-3.5c0-0.1,0-0.2,0-0.3c0-0.3-0.1-0.6-0.1-0.9l0,0c0-0.1,0-0.2,0-0.3  c0-5.8,4.7-10.5,10.5-10.5c1.1,0,2.2,0.2,3.2,0.5c0.9-1.3,1.8-2.5,2.7-3.6c-1.8-0.8-3.8-1.3-5.9-1.3c-7.8,0-14.2,6-14.8,13.6  c0,0.4-0.1,0.8-0.1,1.3c0,8.2,6.7,14.9,14.9,14.9c2.9,0,5.6-0.8,7.9-2.3c0,0,0.2-0.1,0.4-0.2l11.9,11.9l4-4L41.3,40.6z"/>
<path opacity="0.75" fill="currentcolor" d="M21,30.1h-4.3c0.2,0.8,0.5,1.6,0.9,2.3c0.2,0.3,0.3,0.5,0.5,0.8h3c3.2,0,6.3-4.5,10-9.8  c2.3-3.4,5.8-8.4,7.4-8.4h4.9l-2.6,2.7l2.2,2.2l6.5-6.5l-6.5-6.5L40.6,9l2.9,3h-5.2c-3.2,0-6.3,4.5-10,9.8  C26.1,25,22.6,30.1,21,30.1z"/>
</svg>