<svg id="Ebene_1" data-name="Ebene 1" xmlns="http://www.w3.org/2000/svg" viewBox="0 0 60 60"><defs><style>.cls-1,.cls-2,.cls-3{fill:#fff;}.cls-1{opacity:0.75;}.cls-3{opacity:0.25;}</style></defs><title>viur-icons-2018</title><path class="cls-1" d="M43.64,13.62l3.74,9.76H12.65l3.74-9.76H43.64m1.72-2.5H14.67L9,25.88H51L45.36,11.12Z"/><path class="cls-2" d="M9,25.88l2.53,23H49.2l1.78-23Zm13.23,20a.56.56,0,0,1-.71-.69l.94-3.12,2.85,2.85Zm4.21-1.31L22.8,41,32,31.68l3.64,3.64Zm10-10-3.65-3.64,2-2.05,3.65,3.65Z"/><polyline class="cls-3" points="43.64 13.62 47.38 23.38 12.65 23.38 16.39 13.62 43.64 13.62"/></svg>