<?xml version="1.0" encoding="utf-8"?>
<!-- Generator: Adobe Illustrator 23.0.2, SVG Export Plug-In . SVG Version: 6.00 Build 0)  -->
<svg version="1.1" id="Ebene_1" xmlns="http://www.w3.org/2000/svg" xmlns:xlink="http://www.w3.org/1999/xlink" x="0px" y="0px"
	 viewBox="0 0 60 60" enable-background="new 0 0 60 60" xml:space="preserve">
<path opacity="0.75" fill="#FFFFFF" d="M16.9,7.4v19l13.6,8.2l13.7-8.2v-19H16.9z M21.3,18H32v3H21.3V18z M38,25.7H21.2v-3H38V25.7z
	 M39.8,16.3H21.3v-3h18.5V16.3z"/>
<polygon fill="#FFFFFF" points="50.7,25.5 50.7,25.5 50.7,22.5 50.7,22.5 44.2,18.7 44.2,21.5 48.4,23.9 48.5,23.9 48.5,26.9 
	30.4,37.7 12.4,26.9 12.4,24 12.4,24 16.9,21.5 16.9,18.7 10.1,22.5 10.1,22.5 10.1,22.6 10.1,25.5 10.1,33.6 10.1,46.7 10.1,49.6 
	10.1,49.6 50.7,49.6 50.7,49.6 50.7,49.6 "/>
</svg>
