<svg xmlns="http://www.w3.org/2000/svg" viewBox="8 9 44 42"><rect x="2.33" y="28.5" width="55.34" height="3" transform="translate(-12.43 30) rotate(-45)" fill="currentcolor"/><path d="M42.75,22.2l-3.54,3.54A10.14,10.14,0,0,1,25.74,39.21l-1.86,1.86a19.78,19.78,0,0,0,6.12,1C41.87,42.09,51.5,30,51.5,30A41.29,41.29,0,0,0,42.75,22.2Z" fill="currentcolor"/><path d="M17.25,37.8l3.54-3.54A10.14,10.14,0,0,1,34.26,20.79l1.86-1.86a19.78,19.78,0,0,0-6.12-1C18.13,17.91,8.5,30,8.5,30A41.29,41.29,0,0,0,17.25,37.8Z" fill="currentcolor"/></svg>