<svg xmlns="http://www.w3.org/2000/svg" viewBox="13 7 33 44"><polygon points="23.96 7.33 13.74 19.07 23.96 19.07 23.96 7.33" fill="currentcolor" opacity="0.5"/><path d="M24,7.33V19.07H13.74V51H45.6V7.33Zm16.79,38H18.59V38.42h0V25H40.75Z" fill="currentcolor"/><path d="M40.75,45.31H18.59V38.42a33.68,33.68,0,0,1,9.89,1.63c4.51,1.63,12.27,0,12.27,0Z" fill="currentcolor" opacity="0.7"/><path d="M35.16,34.26a2.54,2.54,0,0,1,.78-1.82h0a2.59,2.59,0,1,0,0,5.17,2.74,2.74,0,0,0,1.9-.76A2.64,2.64,0,0,1,35.16,34.26Z" fill="currentcolor"/><path d="M18.59,25V38.42a33.68,33.68,0,0,1,9.89,1.63c4.51,1.63,12.27,0,12.27,0V25ZM35.94,37.61a2.59,2.59,0,1,1,0-5.17h0a2.54,2.54,0,0,0-.78,1.82,2.64,2.64,0,0,0,2.68,2.59A2.74,2.74,0,0,1,35.94,37.61Z" fill="currentcolor" opacity="0.2"/></svg>