<svg xmlns="http://www.w3.org/2000/svg" viewBox="13 8 34 44"><polygon points="24.12 8.17 13.6 19.91 24.12 19.91 24.12 8.17" fill="currentcolor" opacity="0.5"/><path d="M30.48,24.27H18.67v9.05H30.48Z" fill="currentcolor" opacity="0.5"/><path d="M24.12,8.17V19.91H13.6V51.83H46.4V8.17ZM18.67,24.31H30.48v9.05H18.67ZM35.48,43.42H18.59V42H35.48Zm5.93-2.52H18.59V39.48H41.41Zm0-2.52H18.59V37H41.41Zm-8.34-5.06V31.91h7.55v1.41Zm8.34-2.58H33.07V29.32h8.34Zm-8.34-2.52V26.8h6.59v1.42Zm8.34-2.61H33.07V24.19h8.34Zm0-5.74H26.48V16.58H41.41Z" fill="currentcolor"/></svg>