<svg xmlns="http://www.w3.org/2000/svg" viewBox="9 9 42 42"><path d="M30,9.5A20.5,20.5,0,1,0,50.5,30,20.52,20.52,0,0,0,30,9.5Zm-.86,10.84a22.48,22.48,0,0,1-6.34-1.15A22.44,22.44,0,0,1,29.14,12Zm0,1.71v7.09h-9a22.39,22.39,0,0,1,2-8.4A23.66,23.66,0,0,0,29.14,22.05Zm0,8.81V38a23.73,23.73,0,0,0-7.08,1.32,22.43,22.43,0,0,1-2-8.41Zm0,8.8V48a22.51,22.51,0,0,1-6.35-7.2A22.55,22.55,0,0,1,29.14,39.66Zm1.72,0a22.47,22.47,0,0,1,6.44,1.16,22.43,22.43,0,0,1-6.44,7.26Zm0-1.72V30.86H40a22.38,22.38,0,0,1-2,8.4A23.94,23.94,0,0,0,30.86,37.94Zm0-8.8V22.06A23.94,23.94,0,0,0,38,20.74a22.34,22.34,0,0,1,2,8.4Zm0-8.8V11.92a22.55,22.55,0,0,1,6.44,7.26A22.53,22.53,0,0,1,30.86,20.34Zm2.3-8.84a18.73,18.73,0,0,1,9.69,4.84,21.68,21.68,0,0,1-4,2.22A24,24,0,0,0,33.16,11.5Zm-12,7.07a22.65,22.65,0,0,1-4-2.26A18.61,18.61,0,0,1,27,11.49,23.9,23.9,0,0,0,21.2,18.57Zm-.74,1.55a24.15,24.15,0,0,0-2.09,9H11.26A18.72,18.72,0,0,1,16,17.55,24.21,24.21,0,0,0,20.46,20.12ZM18.37,30.86a24.14,24.14,0,0,0,2.08,9A24.71,24.71,0,0,0,16,42.45a18.66,18.66,0,0,1-4.71-11.59Zm2.82,10.58a23.8,23.8,0,0,0,5.74,7.07,18.81,18.81,0,0,1-9.74-4.81A21.7,21.7,0,0,1,21.19,41.44Zm17.71,0a22.43,22.43,0,0,1,4,2.23,18.81,18.81,0,0,1-9.69,4.84A24.21,24.21,0,0,0,38.9,41.43Zm.74-1.55a24.19,24.19,0,0,0,2.08-9h7A18.71,18.71,0,0,1,44.07,42.4,24.64,24.64,0,0,0,39.64,39.88Zm2.08-10.74a24.14,24.14,0,0,0-2.08-9,24.1,24.1,0,0,0,4.43-2.53,18.76,18.76,0,0,1,4.67,11.55Z" fill="currentcolor"/></svg>