<svg xmlns="http://www.w3.org/2000/svg" viewBox="10 14 40 34">
<path fill="currentcolor" d="M21.1,16.6c1.9,0,4.2,1.3,6.7,3.8l0,0l0,0l0.4,0.4l1.7,1.5l1.7-1.5l0.4-0.4l0,0l0,0c2.5-2.5,4.8-3.8,6.7-3.8  c1.5,0,3,0.7,4.5,2.3l0.2,0.2c4.1,4.1,4.3,7.5,0.5,11.3l-14,14L30,44.2l-0.1,0.1l-14-14c-3.8-3.8-3.6-7.1,0.5-11.3l0.2-0.2  C18.1,17.3,19.6,16.6,21.1,16.6 M38.9,14.1c-2.8,0-5.6,1.7-8.5,4.5L30,19l-0.4-0.4c-2.8-2.8-5.7-4.5-8.5-4.5c-2.1,0-4.2,0.9-6.3,3  l-0.2,0.2c-5.1,5.1-5.3,10-0.5,14.8L30,47.9l0,0l0,0l15.8-15.8c4.8-4.8,4.6-9.7-0.5-14.8l-0.2-0.2C43.1,15,41,14.1,38.9,14.1  L38.9,14.1z"/>
</svg>