<svg id="Ebene_1" data-name="Ebene 1" xmlns="http://www.w3.org/2000/svg" viewBox="0 0 60 60"><defs><style>.cls-1,.cls-2,.cls-3{fill:#fff;}.cls-2{opacity:0.7;}.cls-3{opacity:0.2;}</style></defs><title>viur-icons-2018</title><path class="cls-1" d="M10.55,10.06V49.27H48.79V10.06Zm34,31.82H14.8V14.63H44.54Z"/><path class="cls-2" d="M44.54,41.88H14.8V32.64a45.43,45.43,0,0,1,13.28,2.18c6.05,2.19,16.46,0,16.46,0Z"/><path class="cls-1" d="M37,27.06a3.42,3.42,0,0,1,1-2.45h0a3.47,3.47,0,1,0,0,6.94,3.61,3.61,0,0,0,2.55-1A3.53,3.53,0,0,1,37,27.06Z"/><path class="cls-3" d="M14.8,14.63v18a45.43,45.43,0,0,1,13.28,2.18c6.05,2.19,16.46,0,16.46,0V14.63ZM38.08,31.55a3.47,3.47,0,1,1,0-6.94h0a3.42,3.42,0,0,0-1,2.45,3.53,3.53,0,0,0,3.59,3.46A3.61,3.61,0,0,1,38.08,31.55Z"/></svg>