<?xml version="1.0" encoding="utf-8"?>
<!-- Generator: Adobe Illustrator 22.1.0, SVG Export Plug-In . SVG Version: 6.00 Build 0)  -->
<svg version="1.1" id="Ebene_1" xmlns="http://www.w3.org/2000/svg" xmlns:xlink="http://www.w3.org/1999/xlink" x="0px" y="0px"
	 viewBox="0 0 60 60" style="enable-background:new 0 0 60 60;" xml:space="preserve">
<style type="text/css">
	.st0{fill:#FFFFFF;}
	.st1{opacity:0.5;fill:#FFFFFF;}
	.st2{opacity:0.75;fill:#FFFFFF;}
	.st3{opacity:0.25;fill:#FFFFFF;}
	.st4{fill:none;}
	.st5{opacity:0.75;}
	.st6{opacity:0.25;}
	.st7{fill:none;stroke:#FFFFFF;stroke-width:3;stroke-linejoin:round;stroke-miterlimit:10;}
	.st8{opacity:0.5;}
	.st9{opacity:0.25;fill:none;stroke:#6A6A69;stroke-miterlimit:10;}
	.st10{fill-rule:evenodd;clip-rule:evenodd;fill:#FFFFFF;}
	.st11{opacity:0.7;fill:#FFFFFF;}
	.st12{opacity:0.2;fill:#FFFFFF;}
	.st13{fill:none;stroke:#FFFFFF;stroke-width:4;stroke-miterlimit:10;}
</style>
<g>
	<g>
		<path class="st0" d="M24.5,27.6c0,0,1.6-2.3,2.3-3.3c-3.1-4.3-6.1-7.4-9-7.4H9.4v3.8h8.4C19.2,20.7,22,24.2,24.5,27.6z"/>
		<path class="st0" d="M42,35.8l3.4,3.5h-6.2c-1.4,0-4.1-3.3-6.6-6.7c-0.1,0.1-0.2,0.2-0.2,0.3c-0.7,1-1.4,2-2.1,3
			c3.1,4.2,6,7.2,8.9,7.2h6.2L42,46.6l2.7,2.7l7.9-8.1l-8-8L42,35.8z"/>
	</g>
	<g>
		<path class="st0" d="M44.7,10.8L42,13.5l3.6,3.6h-6.4c-4,0-7.8,5.6-12.3,12c-2.9,4.1-7.2,10.4-9.1,10.4H9.4v3.8h8.4
			c4,0,7.8-5.6,12.3-12c2.9-4.1,7.2-10.4,9.1-10.4h6L42,24.2l2.7,2.7l7.9-8.1L44.7,10.8z"/>
	</g>
</g>
<g>
	<path class="st0" d="M24.5,27.6c0,0,1.6-2.3,2.3-3.3c-3.1-4.3-6.1-7.4-9-7.4H9.4v3.8h8.4C19.2,20.7,22,24.2,24.5,27.6z"/>
	<path class="st0" d="M42,35.8l3.4,3.5h-6.2c-1.4,0-4.1-3.3-6.6-6.7c-0.1,0.1-0.2,0.2-0.2,0.3c-0.7,1-1.4,2-2.1,3
		c3.1,4.2,6,7.2,8.9,7.2h6.2L42,46.6l2.7,2.7l7.9-8.1l-8-8L42,35.8z"/>
</g>
<g>
	<path class="st0" d="M44.7,10.8L42,13.5l3.6,3.6h-6.4c-4,0-7.8,5.6-12.3,12c-2.9,4.1-7.2,10.4-9.1,10.4H9.4v3.8h8.4
		c4,0,7.8-5.6,12.3-12c2.9-4.1,7.2-10.4,9.1-10.4h6L42,24.2l2.7,2.7l7.9-8.1L44.7,10.8z"/>
</g>
</svg>
