<svg xmlns="http://www.w3.org/2000/svg" viewBox="9 10 44 40"><path d="M24.48,27.61s1.58-2.28,2.3-3.3c-3.14-4.27-6.05-7.39-9-7.39H9.38v3.8h8.39C19.23,20.72,22,24.15,24.48,27.61Z" fill="currentcolor"/><path d="M42,35.82l3.44,3.46H39.18c-1.43,0-4.12-3.32-6.58-6.72l-.22.32c-.7,1-1.4,2-2.08,3,3.1,4.18,6,7.22,8.88,7.22h6.21L42,46.56l2.71,2.66,7.94-8-8-8Z" fill="currentcolor"/><path d="M44.65,10.78,42,13.45l3.62,3.64H39.18c-4,0-7.8,5.57-12.26,12-2.86,4.13-7.19,10.37-9.15,10.37H9.38v3.8h8.39c3.95,0,7.81-5.56,12.27-12,2.86-4.13,7.18-10.37,9.14-10.37h6L42,24.19l2.71,2.67,7.94-8Z" fill="currentcolor"/><path d="M24.48,27.61s1.58-2.28,2.3-3.3c-3.14-4.27-6.05-7.39-9-7.39H9.38v3.8h8.39C19.23,20.72,22,24.15,24.48,27.61Z" fill="currentcolor"/><path d="M42,35.82l3.44,3.46H39.18c-1.43,0-4.12-3.32-6.58-6.72l-.22.32c-.7,1-1.4,2-2.08,3,3.1,4.18,6,7.22,8.88,7.22h6.21L42,46.56l2.71,2.66,7.94-8-8-8Z" fill="currentcolor"/><path d="M44.65,10.78,42,13.45l3.62,3.64H39.18c-4,0-7.8,5.57-12.26,12-2.86,4.13-7.19,10.37-9.15,10.37H9.38v3.8h8.39c3.95,0,7.81-5.56,12.27-12,2.86-4.13,7.18-10.37,9.14-10.37h6L42,24.19l2.71,2.67,7.94-8Z" fill="currentcolor"/></svg>