<?xml version="1.0" encoding="utf-8"?>
<!-- Generator: Adobe Illustrator 26.0.1, SVG Export Plug-In . SVG Version: 6.00 Build 0)  -->
<svg version="1.1" id="Ebene_1" xmlns="http://www.w3.org/2000/svg" xmlns:xlink="http://www.w3.org/1999/xlink" x="0px" y="0px"
	 viewBox="0 0 60 60" enable-background="new 0 0 60 60" xml:space="preserve">
<rect x="28" y="36.8" opacity="0.5" fill="#FFFFFF" enable-background="new    " width="3.9" height="5.5"/>
<rect x="28" y="17.7" opacity="0.5" fill="#FFFFFF" enable-background="new    " width="3.9" height="5.5"/>
<rect x="28" y="27.2" opacity="0.5" fill="#FFFFFF" enable-background="new    " width="3.9" height="5.5"/>
<polygon fill="#FFFFFF" points="16.4,13.7 12.5,13.7 12.5,17.7 16.4,17.7 47.5,17.7 47.5,13.7 "/>
<polygon fill="#FFFFFF" points="16.4,23.2 12.5,23.2 12.5,27.2 16.4,27.2 47.5,27.2 47.5,23.2 "/>
<polygon fill="#FFFFFF" points="16.4,32.8 12.5,32.8 12.5,36.8 16.4,36.8 47.5,36.8 47.5,32.8 "/>
<polygon fill="#FFFFFF" points="16.6,42.3 12.5,42.3 12.5,46.3 16.6,46.3 47.5,46.3 47.5,42.3 "/>
</svg>
