<svg id="Ebene_1" data-name="Ebene 1" xmlns="http://www.w3.org/2000/svg" viewBox="0 0 60 60"><rect x="28.03" y="36.77" width="3.94" height="5.52" fill="#fff" opacity="0.5"/><rect x="28.03" y="17.71" width="3.94" height="5.52" fill="#fff" opacity="0.5"/><rect x="28.03" y="27.24" width="3.94" height="5.52" fill="#fff" opacity="0.5"/><polygon points="16.44 13.7 12.5 13.7 12.5 17.71 16.44 17.71 47.5 17.71 47.5 13.7 16.44 13.7" fill="#fff"/><polygon points="16.44 23.23 12.5 23.23 12.5 27.24 16.44 27.24 47.5 27.24 47.5 23.23 16.44 23.23" fill="#fff"/><polygon points="16.44 32.76 12.5 32.76 12.5 36.77 16.44 36.77 47.5 36.77 47.5 32.76 16.44 32.76" fill="#fff"/><polygon points="16.44 42.29 12.5 42.29 12.5 46.3 16.44 46.3 46.41 46.3 46.41 42.29 16.44 42.29" fill="#fff"/></svg>