<svg xmlns="http://www.w3.org/2000/svg" viewBox="11 13 37 34"><rect x="44.06" y="36.77" width="3.94" height="5.52" fill="currentcolor" opacity="0.5"/><rect x="44.06" y="27.24" width="3.94" height="5.52" fill="currentcolor" opacity="0.5"/><rect x="44.06" y="17.71" width="3.94" height="5.52" fill="currentcolor" opacity="0.5"/><polygon points="44.06 13.7 12 13.7 12 17.71 44.06 17.71 48 17.71 48 13.7 44.06 13.7" fill="currentcolor"/><polygon points="44.06 23.23 12 23.23 12 27.24 44.06 27.24 48 27.24 48 23.23 44.06 23.23" fill="currentcolor"/><polygon points="44.06 32.76 12 32.76 12 36.77 44.06 36.77 48 36.77 48 32.76 44.06 32.76" fill="currentcolor"/><polygon points="44.06 42.29 29.2 42.29 29.2 46.3 44.06 46.3 48 46.3 48 42.29 44.06 42.29" fill="currentcolor"/></svg>