<svg xmlns="http://www.w3.org/2000/svg" viewBox="12 13 36 34">
<rect x="28" y="36.8" opacity="0.5" fill="currentcolor" enable-background="new    " width="3.9" height="5.5"/>
<rect x="28" y="17.7" opacity="0.5" fill="currentcolor" enable-background="new    " width="3.9" height="5.5"/>
<rect x="28" y="27.2" opacity="0.5" fill="currentcolor" enable-background="new    " width="3.9" height="5.5"/>
<polygon fill="currentcolor" points="16.4,13.7 12.5,13.7 12.5,17.7 16.4,17.7 47.5,17.7 47.5,13.7 "/>
<polygon fill="currentcolor" points="16.4,23.2 12.5,23.2 12.5,27.2 16.4,27.2 47.5,27.2 47.5,23.2 "/>
<polygon fill="currentcolor" points="16.4,32.8 12.5,32.8 12.5,36.8 16.4,36.8 47.5,36.8 47.5,32.8 "/>
<polygon fill="currentcolor" points="16.6,42.3 12.5,42.3 12.5,46.3 16.6,46.3 47.5,46.3 47.5,42.3 "/>
</svg>