<svg xmlns="http://www.w3.org/2000/svg" viewBox="11 13 37 34"><rect x="12" y="36.77" width="3.94" height="5.52" fill="currentcolor" opacity="0.5"/><rect x="12" y="27.24" width="3.94" height="5.52" fill="currentcolor" opacity="0.5"/><rect x="12" y="17.71" width="3.94" height="5.52" fill="currentcolor" opacity="0.5"/><polygon points="15.94 13.7 48 13.7 48 17.71 15.94 17.71 12 17.71 12 13.7 15.94 13.7" fill="currentcolor"/><polygon points="15.94 23.23 48 23.23 48 27.24 15.94 27.24 12 27.24 12 23.23 15.94 23.23" fill="currentcolor"/><polygon points="15.94 32.76 48 32.76 48 36.77 15.94 36.77 12 36.77 12 32.76 15.94 32.76" fill="currentcolor"/><polygon points="15.94 42.29 30.8 42.29 30.8 46.3 15.94 46.3 12 46.3 12 42.29 15.94 42.29" fill="currentcolor"/></svg>