<svg xmlns="http://www.w3.org/2000/svg" viewBox="19 10 24 39"><polygon points="36.29 44.28 37.22 43.51 37.22 42.74 36.29 41.97 37.22 41.2 37.22 40.42 36.29 39.66 26.56 39.66 25.63 40.42 25.63 41.2 26.56 41.97 25.63 42.74 25.63 43.51 26.56 44.28 25.63 45.05 25.63 45.82 26.56 46.59 28.39 47.33 29.4 48.63 31.42 48.9 33.45 48.63 34.46 47.33 36.29 46.59 37.22 45.82 37.22 45.05 36.29 44.28" fill="currentcolor" opacity="0.75"/><path d="M31,10.69A11.64,11.64,0,0,0,19.9,21.92a11.51,11.51,0,0,0,3.22,8.26,11,11,0,0,1,2,3.17A15.48,15.48,0,0,1,26,37.52h10.9a14.51,14.51,0,0,1,.86-4.13,11.52,11.52,0,0,1,2-3.23A11.51,11.51,0,0,0,31,10.69Zm7.84,16.43a13.17,13.17,0,0,0-10.95-13.3h0l.62-.22a8.14,8.14,0,0,1,2-.44,9.43,9.43,0,0,1,1.84,0,9,9,0,0,1,8.07,8.94c0,.31,0,.62,0,.92A9.07,9.07,0,0,1,38.83,27.12Z" fill="currentcolor"/><path d="M40.37,22.1c0,.31,0,.62,0,.92a9,9,0,0,1-1.49,4.1,13.17,13.17,0,0,0-10.95-13.3h0l.62-.22a8.14,8.14,0,0,1,2-.44,9.43,9.43,0,0,1,1.84,0A9,9,0,0,1,40.37,22.1Z" fill="currentcolor" opacity="0.75"/></svg>