<svg xmlns="http://www.w3.org/2000/svg" viewBox="11 10 38 39"><path d="M46.18,13.82a9.62,9.62,0,0,0-13.61,0l-5.06,5.05-1.46,1.46a9.7,9.7,0,0,0,0,13.62,10.08,10.08,0,0,0,1.72,1.36l.91-.91a2.14,2.14,0,0,0,.61-1.76,6.21,6.21,0,0,1-1.07-.86,6.63,6.63,0,0,1,0-9.28l3-3L34.74,16A6.55,6.55,0,1,1,44,25.26l-3.48,3.49a14.46,14.46,0,0,1,.6,3.74l5-5.06A9.62,9.62,0,0,0,46.18,13.82Z" fill="currentcolor"/><path d="M36.74,32.42a9.45,9.45,0,0,0-4.51-7.72l-.91.9a2.14,2.14,0,0,0-.61,1.76,6.57,6.57,0,0,1,1.71,9.38,5.73,5.73,0,0,1-.64.76l-3,3L25.26,44A6.56,6.56,0,1,1,16,34.74l3.48-3.49a14.46,14.46,0,0,1-.6-3.74l-5.05,5.06A9.62,9.62,0,0,0,27.43,46.18l5.06-5L34,39.67a9.65,9.65,0,0,0,2.79-7.25Z" fill="currentcolor"/></svg>