<svg xmlns="http://www.w3.org/2000/svg" viewBox="12 9 36 42"><path d="M26.49,34.09c0-.12,0-.3,0-.52s0-.33,0-.34h0a4.54,4.54,0,0,1-.31.58l-.65,1h1Z" fill="currentcolor"/><path d="M23.21,26c0-.1-.06-.22-.09-.38s-.07-.26-.08-.32,0,.16-.06.3-.1.41-.21.83h.56Z" fill="currentcolor"/><path d="M28.34,25.36H28.2V26h.13c.25,0,.38-.11.38-.33S28.58,25.36,28.34,25.36Z" fill="currentcolor"/><path d="M47.87,48.8v-39H16.81a3.2,3.2,0,0,0-3.15,3S12.1,43,12.09,46.46c0,2.54,2.22,3.9,4.55,3.9H45.48C47.13,50.36,48.1,50.44,47.87,48.8ZM41,24.82h2v.58h-.64v2.05h-.71V25.4H41Zm-1.09,0h.71v2.63h-.71Zm-2,0h1.56v.57h-.85v.42h.78v.57h-.78v.49h.85v.58H37.91Zm-2.64,8.51-.66.55-.82-1,2-1.64h1.42v5.86h-1.6V34c0-.38,0-.72,0-1A3.22,3.22,0,0,1,35.27,33.33ZM24.16,36V34.79l2.43-3.56h1.47v3.54h.64V36h-.64v1.14H26.49V36Zm4.22-9.45H28.2v.95h-.71V24.82h.86c.72,0,1.07.26,1.07.78a.79.79,0,0,1-.44.71l.77,1.14h-.81Zm1,9a4.06,4.06,0,0,0,.79.27,3.23,3.23,0,0,0,.75.1,1.1,1.1,0,0,0,.68-.18.66.66,0,0,0,.24-.55.62.62,0,0,0-.25-.53,1.17,1.17,0,0,0-.72-.19,2.76,2.76,0,0,0-.81.14l-.58-.29.22-3.09H33v1.32H31l-.07.77a2.56,2.56,0,0,1,.44-.06h.24a1.74,1.74,0,0,1,.91.24,1.51,1.51,0,0,1,.64.66,2.07,2.07,0,0,1,.22,1,1.88,1.88,0,0,1-.59,1.5,2.62,2.62,0,0,1-1.79.53,3.85,3.85,0,0,1-1.67-.32Zm2.13-9.74v.57H30.7v.49h.85v.58H30V24.82h1.56v.57H30.7v.42Zm1.14-.21h0c0,.29,0,.52,0,.67v1.18H32V24.82h.93l1,1.83h0c0-.26,0-.48,0-.64V24.82h.63v2.63h-.93Zm4-.78h.72v2.63h-.72V26.38H35.8v1.07h-.72V24.82h.72v1h.82ZM34.94,14.3l.82.07.12.81s-3.51,3.93-4,4.36a2.43,2.43,0,0,1-.86.63.58.58,0,0,0-.49.51,1.15,1.15,0,0,1-.32.82.67.67,0,0,1-1.11-.18c-.34-.67.47-1.09.77-1.13a.71.71,0,0,0,.61-.64,2.7,2.7,0,0,1,.53-1Zm-7.76,3c.46.54.66.36.66.36a2.47,2.47,0,0,1-.1-3.12c0,.5.24.6.24.6A3,3,0,0,1,30.39,13c-1.29.81-.1,2.9-.1,2.9a1.75,1.75,0,0,1,.45-1.12,6.13,6.13,0,0,0,.19,2,1.61,1.61,0,0,1-.36,1.74.93.93,0,0,0-.35.6c0-.1.19-.23.19-.23,0,1.4-.68,1.2-.68,1.2,0-.56-.46-.49-1-.58a.82.82,0,0,1-.66-.53c.2.1.3,0,.3,0C26.89,18.44,27.18,17.27,27.18,17.27Zm-2.51,7.55h.71v1h.83v-1h.71v2.63h-.71V26.38h-.83v1.07h-.71Zm-2.11,0h1l.87,2.64H23.6L23.47,27h-.85l-.13.49H21.7Zm-2.56,0h1.56v.57H20.7v.51h.79v.57H20.7v1H20ZM46.82,49.24H16.08a3.11,3.11,0,0,1,0-6.19H46.82Z" fill="currentcolor"/></svg>