<svg xmlns="http://www.w3.org/2000/svg" viewBox="16 9 34 40"><polygon points="38.71 35.24 42.67 31.27 27.54 31.27 27.54 27.56 42.67 27.56 38.66 23.55 41.28 20.93 47.15 26.8 47.15 26.79 49.78 29.42 47.92 31.27 47.92 31.27 47.92 31.27 41.33 37.87 38.71 35.24" fill="currentcolor"/><path d="M41.28,20.92l5.87,5.88h0l2.63,2.63-1.86,1.85h0l-6.59,6.6-2.62-2.63,4-4H27.54V27.56H42.67l-4-4,2.62-2.63" fill="currentcolor"/><polygon points="41.37 40.66 41.37 44.72 20.36 44.72 20.36 13.72 41.37 13.72 41.37 18.18 45.08 21.89 45.08 10 45.07 10 45.07 10 20.36 10 16.65 10 16.65 13.72 16.65 48.44 16.66 48.44 16.66 48.44 41.37 48.44 45.08 48.44 45.08 44.72 45.08 36.95 41.37 40.66" fill="currentcolor"/></svg>