<?xml version="1.0" encoding="utf-8"?>
<!-- Generator: Adobe Illustrator 23.0.4, SVG Export Plug-In . SVG Version: 6.00 Build 0)  -->
<svg version="1.1" id="Ebene_1" xmlns="http://www.w3.org/2000/svg" xmlns:xlink="http://www.w3.org/1999/xlink" x="0px" y="0px"
	 viewBox="0 0 60 60" enable-background="new 0 0 60 60" xml:space="preserve">
<g>
	<polygon opacity="0.5" fill="#FFFFFF" points="45.5,10.2 39,10.2 39,11.7 45.5,11.7 45.5,50.3 14.5,50.3 14.5,11.7 21.3,11.7 
		21.3,10.2 14.5,10.2 13,10.2 13,11.7 13,50.3 13,51.8 14.5,51.8 45.5,51.8 47,51.8 47,50.3 47,11.7 47,10.2 	"/>
	<polygon opacity="0.5" fill="#FFFFFF" points="22.8,11.7 22.8,14.1 37.5,14.1 37.5,11.7 37.5,8.2 22.8,8.2 	"/>
	<path fill="#FFFFFF" d="M39,11.7v3.9H21.3v-3.9h-6.8v38.6h31V11.7H39z M23.9,39.3h-3.6v-3.6h3.6V39.3z M23.9,32.9h-3.6v-3.6h3.6
		V32.9z M23.9,26.6h-3.6V23h3.6V26.6z M39.7,38.5H26.6v-2.1h13.2V38.5z M39.7,32.2H26.6V30h13.2V32.2z M39.7,25.9H26.6v-2.1h13.2
		V25.9z"/>
</g>
</svg>
