<svg xmlns="http://www.w3.org/2000/svg" viewBox="9 8 44 44"><path d="M30.71,8.52A21.48,21.48,0,1,0,52.18,30,21.48,21.48,0,0,0,30.71,8.52Zm1.71,34c-5.29,0-8.64-2.59-10.26-7.93l0-.09H19.72V31.36h1.85v-.14c0-.36-.05-.71-.05-1.08s0-.9.05-1.36l0-.14H19.72V25.51h2.47l0-.09c1.69-5.34,5.07-7.93,10.35-7.93a14.34,14.34,0,0,1,6,1.22L37.2,21.53a11.11,11.11,0,0,0-4.63-.9c-4.11,0-5.77,1.88-7,4.7l-.08.18h8v3.13H24.74v.12c-.05.51-.07.95-.07,1.38s0,.74,0,1.1v.12h8.78v3.13H25.41l.08.18c1.19,2.82,2.83,4.7,6.93,4.7a12.77,12.77,0,0,0,4.86-.9l1.37,2.82A15.58,15.58,0,0,1,32.42,42.51Z" fill="currentcolor"/></svg>