<svg xmlns="http://www.w3.org/2000/svg" viewBox="9 11 42 40">
<g>
	<g>
		<path fill="currentcolor" d="M28.6,29.8c0.1,0,0.2-0.1,0.3-0.1c-0.1-0.1-0.1-0.2-0.2-0.3C28.7,29.6,28.7,29.7,28.6,29.8z"/>
		<path fill="currentcolor" d="M16,35.3c-3.3,1.1-6.1,3-6.1,5.6v7.5c0,0,4.7,2.1,11.9,2.1s10.5-1.4,11.9-2.1v-7.5c0-2.6-2.8-4.5-6.1-5.6    c-1.6,1.3-3.6,2.1-5.8,2.1S17.6,36.6,16,35.3z"/>
		<circle fill="currentcolor" cx="21.8" cy="28.2" r="6.6"/>
	</g>
	<g>
		<rect x="33.5" y="11.6" fill="currentcolor" width="3.4" height="3.4"/>
		<rect x="39.4" y="12.3" fill="currentcolor" width="10.7" height="1.9"/>
		<rect x="33.5" y="17.6" fill="currentcolor" width="3.4" height="3.4"/>
		<rect x="39.4" y="18.4" fill="currentcolor" width="10.7" height="1.9"/>
		<rect x="33.5" y="23.7" fill="currentcolor" width="3.4" height="3.4"/>
		<rect x="39.4" y="24.4" fill="currentcolor" width="10.7" height="1.9"/>
	</g>
</g>
</svg>