<svg xmlns="http://www.w3.org/2000/svg" viewBox="11 9 38 41">
<g>
	<path fill="currentcolor" d="M47.5,22.4h-2.9V10.8h2.9c0.6,0,1,0.4,1,1v9.6C48.5,22,48,22.4,47.5,22.4z"/>
	<path opacity="0.75" fill="currentcolor" d="M47.5,35.8h-2.9V24.2h2.9c0.6,0,1,0.4,1,1v9.7C48.5,35.4,48,35.8,47.5,35.8z"/>
	<path opacity="0.5" fill="currentcolor" d="M47.5,49.2h-2.9V37.6h2.9c0.6,0,1,0.4,1,1v9.6C48.5,48.8,48,49.2,47.5,49.2z"/>
	<path fill="currentcolor" d="M14.3,9.8v3.5h2.9h1.2v1.2v1.9v1.2h-1.2h-2.9v5.4h2.9h1.2v1.2v1.9v1.2h-1.2h-2.9V33h2.9h1.2v1.2v1.9v1.2   h-1.2h-2.9v5.4h2.9h1.2v1.2v1.9v1.2h-1.2h-2.9v2.9h29V9.8H14.3z M38,39.6c-0.1,0.2-0.5,0.5-0.5,0.5c-1.9,1.5-5.2,1.3-7.2-0.3   c-1.8-1.4-2.9-3.3-4-5.2c-2-3.3-2.4-6.8-2.2-10.5c0-0.8,0.1-1.5,0.2-2.3c0.3-2.1,1.7-3.4,3.8-3.8c0.4-0.1,1.4-0.1,1.6-0.1   c0,0.1,0,0,0,0c0.8,0.2,1.2,0.8,1.1,1.7c-0.1,1.1-0.2,2.2-0.4,3.2c-0.1,0.4-0.3,0.8-0.6,1.1c-0.2,0.2-1,0.6-1.2,0.7   c-0.8,0.6-1.6,1.1-1.7,2.4c-0.1,2.7,1.7,5.8,3.1,8c0.7,1.1,1.5,0.6,2.6,0.5c0.1,0,2.1-0.9,3.2,0.1c0.6,0.6,1.2,1.2,1.8,1.8   C38.5,38.4,38.5,38.5,38,39.6z"/>
	<g opacity="0.75">
		<rect x="11.4" y="14.5" fill="currentcolor" width="5.8" height="1.9"/>
		<path fill="currentcolor" d="M17.2,14.5v1.9h-5.8v-1.9H17.2"/>
	</g>
	<g opacity="0.75">
		<rect x="11.4" y="24.4" fill="currentcolor" width="5.8" height="1.9"/>
		<path fill="currentcolor" d="M17.2,24.4v1.9h-5.8v-1.9H17.2"/>
	</g>
	<g opacity="0.75">
		<rect x="11.4" y="34.2" fill="currentcolor" width="5.8" height="1.9"/>
		<path fill="currentcolor" d="M17.2,34.2v1.9h-5.8v-1.9H17.2"/>
	</g>
	<g opacity="0.75">
		<rect x="11.4" y="44.1" fill="currentcolor" width="5.8" height="1.9"/>
		<path fill="currentcolor" d="M17.2,44.1v1.9h-5.8v-1.9H17.2"/>
	</g>
</g>
</svg>