<svg xmlns="http://www.w3.org/2000/svg" viewBox="7 12 46 34"><circle cx="34" cy="30.65" r="8.44" fill="currentcolor"/><path d="M50.24,18.27H44.89L41.52,13h-15l-3.37,5.29h-4.5l-1.3-2.5H11.69l-1.3,2.5H9.76a1.89,1.89,0,0,0-1.89,1.9V23.1h7.47V41.27H7.87v1.86A1.88,1.88,0,0,0,9.76,45H50.24a1.88,1.88,0,0,0,1.89-1.89v-23A1.89,1.89,0,0,0,50.24,18.27ZM34,42.43A11.78,11.78,0,1,1,45.78,30.65,11.78,11.78,0,0,1,34,42.43Z" fill="currentcolor"/><rect x="7.87" y="23.1" width="7.47" height="18.17" fill="currentcolor" opacity="0.75"/></svg>