<svg xmlns="http://www.w3.org/2000/svg" viewBox="13 9 34 42">
<g>
	<path fill="currentcolor" d="M17.3,9.2c-1.7,0-3.6,1.3-3.7,3c0,0,0,31.3,0,34.7c0,2.5,2.2,3.9,4.5,3.9c1.9,0,28.2,0,28.2,0V9.2H17.3z    M22,28.4h1.6l0-0.1c0-0.3,0-0.6,0-0.9c0-0.4,0-0.8,0-1.1l0-0.1H22v-2.7h2.1l0-0.1c1.4-4.5,4.3-6.7,8.8-6.7c1.9,0,3.7,0.4,5.1,1   l-1.2,2.4c-0.7-0.3-2-0.8-3.9-0.8c-3.5,0-4.9,1.6-5.9,4l-0.1,0.1h6.8v2.7h-7.4l0,0.1c0,0.4-0.1,0.8-0.1,1.2c0,0.3,0,0.6,0,0.9   l0,0.1h7.4V31h-6.8l0.1,0.1c1.1,2.6,2.4,4,5.9,4c1.5,0,3.1-0.3,4.1-0.8l1.2,2.4c-1.4,0.6-3.3,1-5.3,1c-4.5,0-7.3-2.2-8.7-6.7l0-0.1   h-2V28.4z M45.3,49.7H17.6c-1.5-0.1-2.8-1.1-2.8-2.2c0-1.1,1.2-2.1,2.8-2.2h27.7V49.7z"/>
</g>
</svg>