<svg xmlns="http://www.w3.org/2000/svg" viewBox="8 11 44 38">
<g>
	<g opacity="0.75">
		<rect x="17.4" y="11.1" fill="currentcolor" width="25.1" height="9.6"/>
		<path fill="currentcolor" d="M42.6,11.1v9.6H17.4v-9.6H42.6"/>
	</g>
	<path fill="currentcolor" d="M8.5,22.8V42h6l1-6.9l0.3-1.7h1.7h25.1h1.7l0.3,1.7l1,6.9h6V22.8H8.5z M47.3,28.7c-0.8,0-1.5-0.7-1.5-1.5   s0.7-1.5,1.5-1.5s1.5,0.7,1.5,1.5S48.1,28.7,47.3,28.7z"/>
	<path opacity="0.75" fill="currentcolor" d="M42.6,35.4H17.4l-2,13.5h29.1L42.6,35.4z M20,40.9l0.4-2.4h19.2l0.4,2.5v0L20,40.9L20,40.9z M19.3,45.7   l0.4-2.5h20.6l0.4,2.5H19.3z"/>
	<g opacity="0.75">
		<polygon opacity="0.75" fill="currentcolor" points="39.6,38.4 20.4,38.4 20,40.9 20,40.9 40,40.9 40,40.9   "/>
		<polygon opacity="0.75" fill="currentcolor" points="40.3,43.2 19.7,43.2 19.3,45.7 40.7,45.7   "/>
	</g>
</g>
</svg>