<svg xmlns="http://www.w3.org/2000/svg" viewBox="9 13 43 34"><path d="M47.51,27C45.18,27,43.78,29,42.89,29S41,26.22,41,23.74V18.43h0V13.69H35.86c-2,.29-3.71,1.05-3.71,1.75,0,.9,2.07,2.3,2.07,4.63a4.27,4.27,0,0,1-4.11,4.49H29a4.27,4.27,0,0,1-4.11-4.49c0-2.33,2.07-3.73,2.07-4.63,0-.7-1.75-1.46-3.71-1.75H10v8.39c.29,2,1,3.7,1.75,3.7.9,0,2.3-2.06,4.63-2.06a4.26,4.26,0,0,1,4.48,4.1v1.1A4.26,4.26,0,0,1,16.38,33C14.05,33,12.65,31,11.75,31c-.71,0-1.46,1.75-1.75,3.7V46.31h8.93c2.34-.12,4.79-1,4.79-1.86s-2.07-2.3-2.07-4.63a4.26,4.26,0,0,1,4.11-4.48h1.09A4.26,4.26,0,0,1,31,39.82c0,2.33-2.07,3.73-2.07,4.63s2.46,1.74,4.8,1.86H41V44.83h0V39.52c0-2.48,1-5.3,1.88-5.3s2.29,2.06,4.62,2.06A4.26,4.26,0,0,0,52,32.18v-1.1A4.27,4.27,0,0,0,47.51,27Z" fill="currentcolor"/></svg>