<svg xmlns="http://www.w3.org/2000/svg" viewBox="9 9 42 42"><polygon points="33.12 15.2 34.56 15.2 34.56 9.9 33.12 9.9 33.12 15.2 33.12 15.2" fill="currentcolor"/><polygon points="40.86 19.07 46.17 19.07 46.17 13.77 40.86 13.77 40.86 19.07 40.86 19.07" fill="currentcolor"/><polygon points="31.18 50.04 46.17 50.04 46.17 48.6 42.3 48.6 42.3 46.67 40.36 46.67 40.36 44.73 38.93 44.73 38.93 46.67 36.06 46.67 36.06 48.6 32.62 48.6 32.62 46.17 34.56 46.17 34.56 40.36 36.49 40.36 36.49 38.93 32.62 38.93 32.62 36.49 34.56 36.49 34.56 32.56 38.56 32.56 38.56 31.18 32.62 31.18 32.62 29.25 31.18 29.25 31.18 31.18 29.25 31.18 29.25 34.56 31.18 34.56 31.18 38.93 26.82 38.93 26.82 36.49 28.75 36.49 28.75 35.06 26.82 35.06 26.82 31.18 24.88 31.18 24.88 28.75 27.75 28.75 27.75 27.32 24.88 27.32 24.88 25.38 20.54 25.38 20.54 26.82 23.45 26.82 23.45 29.25 22.51 29.25 22.51 30.68 23.45 30.68 23.45 33.12 21.51 33.12 21.51 34.56 25.38 34.56 25.38 40.36 27.32 40.36 27.32 42.3 33.12 42.3 33.12 44.73 26.82 44.73 26.82 42.8 25.38 42.8 25.38 46.17 27.32 46.17 27.32 48.6 25.38 48.6 25.38 50.04 28.75 50.04 28.75 48.1 31.18 48.1 31.18 50.04 31.18 50.04" fill="currentcolor"/><polygon points="48.1 44.23 48.1 41.33 50.1 41.33 50.1 38.93 48.1 38.93 48.1 36.99 42.3 36.99 42.3 35.06 40.86 35.06 40.86 36.99 38.93 36.99 38.93 40.36 40.36 40.36 40.36 38.43 42.8 38.43 42.8 42.3 46.67 42.3 46.67 44.23 48.1 44.23 48.1 44.23" fill="currentcolor"/><path d="M37,23H50V9.9H37V23Zm1.44-11.62H48.6V21.51H38.43V11.33Z" fill="currentcolor"/><polygon points="50.04 46.67 48.6 46.67 48.6 50.1 50.04 50.1 50.04 46.67 50.04 46.67" fill="currentcolor"/><polygon points="19.07 40.86 13.77 40.86 13.77 46.17 19.07 46.17 19.07 40.86 19.07 40.86" fill="currentcolor"/><polygon points="46.67 34.56 48.1 34.56 48.1 33.12 46.67 33.12 46.67 34.56 46.67 34.56" fill="currentcolor"/><path d="M23,37H9.9V50H23V37ZM21.51,48.6H11.33V38.43H21.51V48.6Z" fill="currentcolor"/><polygon points="13.77 19.07 19.07 19.07 19.07 13.77 13.77 13.77 13.77 19.07 13.77 19.07" fill="currentcolor"/><path d="M9.9,23H23V9.9H9.9V23Zm1.43-11.62H21.51V21.51H11.33V11.33Z" fill="currentcolor"/><polygon points="30.68 11.83 29.25 11.83 29.25 13.27 30.68 13.27 30.68 11.83 30.68 11.83" fill="currentcolor"/><polygon points="15.7 33.12 15.7 34.56 19.11 34.56 19.11 32.12 17.67 32.12 17.67 33.12 15.7 33.12 15.7 33.12" fill="currentcolor"/><polygon points="25.38 13.27 26.82 13.27 26.82 11.33 28.75 11.33 28.75 9.9 25.38 9.9 25.38 13.27 25.38 13.27" fill="currentcolor"/><polygon points="50.04 25.38 46.67 25.38 46.67 27.32 44.23 27.32 44.23 25.38 42.8 25.38 42.8 27.32 40.86 27.32 40.86 28.75 42.8 28.75 42.8 32.62 44.23 32.62 44.23 28.75 46.67 28.75 46.67 30.68 50.04 30.68 50.04 29.25 48.1 29.25 48.1 26.82 50.04 26.82 50.04 25.38 50.04 25.38" fill="currentcolor"/><polygon points="9.9 34.56 13.33 34.56 13.33 33.12 9.9 33.12 9.9 34.56 9.9 34.56" fill="currentcolor"/><polygon points="36.99 26.82 38.43 26.82 38.43 25.38 36.99 25.38 36.99 26.82 36.99 26.82" fill="currentcolor"/><polygon points="9.9 26.82 11.33 26.82 11.33 25.38 9.9 25.38 9.9 26.82 9.9 26.82" fill="currentcolor"/><polygon points="13.77 28.32 11.83 28.32 11.83 30.68 19.07 30.68 19.07 27.32 17.64 27.32 17.64 29.25 15.2 29.25 15.2 26.82 17.14 26.82 17.14 25.38 13.77 25.38 13.77 28.32 13.77 28.32" fill="currentcolor"/><polygon points="36.99 44.23 38.43 44.23 38.43 42.8 36.99 42.8 36.99 44.23 36.99 44.23" fill="currentcolor"/><polygon points="27.32 19.57 27.32 21.01 29.25 21.01 29.25 22.95 30.68 22.95 30.68 21.01 33.12 21.01 33.12 24.45 31.18 24.45 31.18 26.82 34.56 26.82 34.56 19.57 32.62 19.57 32.62 17.64 30.68 17.64 30.68 15.7 25.38 15.7 25.38 17.14 29.25 17.14 29.25 19.57 27.32 19.57 27.32 19.57" fill="currentcolor"/><polygon points="25.38 24.88 26.82 24.88 26.82 21.51 25.38 21.51 25.38 24.88 25.38 24.88" fill="currentcolor"/><polygon points="46.17 44.73 42.8 44.73 42.8 46.17 46.17 46.17 46.17 44.73 46.17 44.73" fill="currentcolor"/></svg>