<svg xmlns="http://www.w3.org/2000/svg" viewBox="9 9 42 42"><path d="M35.78,17.3a4.7,4.7,0,0,0-1.56.32A8.54,8.54,0,0,1,39.62,11L39,9.5c-1.87.46-7.28,3.22-7.26,9.17h0c-.13,2.9.84,6,4,6.08A3.65,3.65,0,0,0,39.58,21,3.74,3.74,0,0,0,35.78,17.3Z" fill="currentcolor"/><path d="M46.66,17.3a4.75,4.75,0,0,0-1.56.32A8.54,8.54,0,0,1,50.5,11L49.92,9.5c-1.87.46-7.28,3.22-7.26,9.17h0c-.13,2.9.84,6,4,6.08A3.65,3.65,0,0,0,50.46,21,3.74,3.74,0,0,0,46.66,17.3Z" fill="currentcolor"/><path d="M24.22,42.7a4.7,4.7,0,0,0,1.56-.32A8.54,8.54,0,0,1,20.38,49L21,50.5c1.87-.46,7.28-3.22,7.26-9.17h0c.13-2.9-.84-6-4-6.08A3.65,3.65,0,0,0,20.42,39,3.74,3.74,0,0,0,24.22,42.7Z" fill="currentcolor"/><path d="M13.34,42.7a4.75,4.75,0,0,0,1.56-.32A8.54,8.54,0,0,1,9.5,49l.58,1.46c1.87-.46,7.28-3.22,7.26-9.17h0c.13-2.9-.84-6-4-6.08A3.65,3.65,0,0,0,9.54,39,3.74,3.74,0,0,0,13.34,42.7Z" fill="currentcolor"/></svg>