<?xml version="1.0" encoding="utf-8"?>
<!-- Generator: Adobe Illustrator 23.0.4, SVG Export Plug-In . SVG Version: 6.00 Build 0)  -->
<svg version="1.1" id="Ebene_1" xmlns="http://www.w3.org/2000/svg" xmlns:xlink="http://www.w3.org/1999/xlink" x="0px" y="0px"
	 viewBox="0 0 60 60" enable-background="new 0 0 60 60" xml:space="preserve">
<g>
	<polygon opacity="0.5" fill="#FFFFFF" points="45.5,10.2 39,10.2 39,11.7 45.5,11.7 45.5,50.3 14.5,50.3 14.5,11.7 21.3,11.7 
		21.3,10.2 14.5,10.2 13,10.2 13,11.7 13,50.3 13,51.8 14.5,51.8 45.5,51.8 47,51.8 47,50.3 47,11.7 47,10.2 	"/>
	<rect x="29.1" y="36.7" fill="none" width="1.8" height="1.8"/>
	<rect x="29.1" y="29.1" fill="none" width="1.8" height="6.2"/>
	<path fill="none" d="M29.1,21.4l-11,19.1l1.1,1.9h22l1.1-1.9l-11-19.1H29.1z M21.4,39.9l8.8-15.3L39,39.9H21.4z"/>
	<path fill="#FFFFFF" d="M21.4,39.9H39l-8.8-15.3L21.4,39.9z M30.9,38.5h-1.8v-1.8h1.8V38.5z M30.9,35.4h-1.8v-6.2h1.8V35.4z"/>
	<path fill="#FFFFFF" d="M39,11.7v3.9H21.3v-3.9h-6.8v38.6h31V11.7H39z M41.2,42.4h-22l-1.1-1.9l11-19.1h2.2l11,19.1L41.2,42.4z"/>
	<polygon opacity="0.5" fill="#FFFFFF" points="22.8,11.7 22.8,14.1 37.5,14.1 37.5,11.7 37.5,8.2 22.8,8.2 	"/>
</g>
</svg>
