<?xml version="1.0" encoding="utf-8"?>
<!-- Generator: Adobe Illustrator 23.0.4, SVG Export Plug-In . SVG Version: 6.00 Build 0)  -->
<svg version="1.1" id="Ebene_1" xmlns="http://www.w3.org/2000/svg" xmlns:xlink="http://www.w3.org/1999/xlink" x="0px" y="0px"
	 viewBox="0 0 60 60" enable-background="new 0 0 60 60" xml:space="preserve">
<path fill="#FFFFFF" d="M30.4,9.8c0,0-10.7,3.6-15.9,3.6c0,0,0,15.2,0,22.5s15.9,14.7,15.9,14.7s15.9-8.3,15.9-14.7
	c0-6.4,0-22.5,0-22.5C41.1,13.3,30.4,9.8,30.4,9.8z M29.4,34.9L29.4,34.9l-0.8,0.8L27,37.3L24.6,35l0,0l-4.9-4.7l2.4-2.3l4.9,4.7
	L38.7,21l2.4,2.3L29.4,34.9z"/>
</svg>
