<svg id="Ebene_1" data-name="Ebene 1" xmlns="http://www.w3.org/2000/svg" viewBox="0 0 60 60"><path d="M40.53,13.2h-8v2.14h8a6.8,6.8,0,1,1,0,13.59H36.08l3.39-3.19-1.33-1.43L32.1,30l6,5.68,1.33-1.42-3.39-3.19h4.45a8.94,8.94,0,0,0,0-17.87Z" fill="#fff"/><rect x="18.02" y="25.71" width="8.57" height="8.57" fill="#fff" opacity="0.75"/><path d="M28.08,35.77H16.54V24.23H28.08ZM18,34.29h8.57V25.71H18Z" fill="#fff"/><path d="M28.08,51.5H16.54V40H28.08ZM18,50h8.57V41.44H18Z" fill="#fff"/><rect x="18.02" y="9.98" width="8.57" height="8.57" fill="#fff" opacity="0.25"/><path d="M28.08,20H16.54V8.5H28.08ZM18,18.56h8.57V10H18Z" fill="#fff"/></svg>