<?xml version="1.0" encoding="utf-8"?>
<!-- Generator: Adobe Illustrator 23.0.4, SVG Export Plug-In . SVG Version: 6.00 Build 0)  -->
<svg version="1.1" id="Ebene_1" xmlns="http://www.w3.org/2000/svg" xmlns:xlink="http://www.w3.org/1999/xlink" x="0px" y="0px"
	 viewBox="0 0 60 60" enable-background="new 0 0 60 60" xml:space="preserve">
<g>
	<path fill="#FFFFFF" d="M40.2,9.7H19.8c-1.1,0-2,0.9-2,2v36.7c0,1.1,0.9,1.9,1.9,1.9h20.3c1.1,0,2-0.9,2-2V11.6
		C42.1,10.6,41.2,9.7,40.2,9.7z M30,11c0.5,0,0.9,0.4,0.9,0.9c0,0.5-0.4,0.9-0.9,0.9s-0.9-0.4-0.9-0.9C29.1,11.4,29.5,11,30,11z
		 M33.2,48.2h-6.1v-1.6h6.1V48.2z M40.3,44.7H20V14.1h20.3V44.7z"/>
	<rect x="20" y="14.1" opacity="0.25" fill="#FFFFFF" width="20.3" height="30.6"/>
</g>
</svg>
