<svg xmlns="http://www.w3.org/2000/svg" viewBox="10 14 42 32">
<g>
	<g>
		<polygon fill="currentcolor" points="28.8,14.8 28.8,14.8 18.2,23.7 10.6,23.7 10.6,36.3 18.2,36.3 28.8,45.2 28.8,45.2 31.3,45.2    31.3,14.8   "/>
	</g>
	<g>
		<path fill="currentcolor" d="M38,34.8L36.3,33c0.8-0.8,1.2-1.9,1.2-3s-0.4-2.2-1.2-3l1.8-1.8c1.3,1.3,2,3,2,4.8S39.3,33.5,38,34.8z"/>
		<path fill="currentcolor" d="M42,38.8L40.3,37c3.9-3.9,3.9-10.2,0-14l1.8-1.8C46.9,26.1,46.9,33.9,42,38.8z"/>
		<path fill="currentcolor" d="M46.1,42.8L44.3,41c6.1-6.1,6.1-16,0-22.1l1.8-1.8C53.1,24.3,53.1,35.7,46.1,42.8z"/>
	</g>
</g>
</svg>