<?xml version="1.0" encoding="utf-8"?>
<!-- Generator: Adobe Illustrator 24.2.1, SVG Export Plug-In . SVG Version: 6.00 Build 0)  -->
<svg version="1.1" id="Ebene_1" xmlns="http://www.w3.org/2000/svg" xmlns:xlink="http://www.w3.org/1999/xlink" x="0px" y="0px"
	 viewBox="0 0 60 60" style="enable-background:new 0 0 60 60;" xml:space="preserve">
<g>
	<path fill="currentcolor" d="M49.6,23.1L49.6,23.1l-5.2,5.2l-5.2-5.2l-0.1-0.1l-0.1,0.1l-1.5,1.5l-0.1,0.1l0.1,0.1l5.2,5.2l-5.2,5.2
		l-0.1,0.1l0.1,0.1l1.5,1.5l0.1,0.1l0.1-0.1l5.2-5.2l5.2,5.2l0.1,0.1l0.1-0.1l1.5-1.5l0.1-0.1l-0.1-0.1L46.1,30l5.2-5.2l0.1-0.1
		l-0.1-0.1L49.6,23.1L49.6,23.1L49.6,23.1z"/>
	<polygon fill="currentcolor" points="28.9,14.8 28.9,14.8 18.3,23.7 10.7,23.7 10.7,36.3 18.3,36.3 28.9,45.2 28.9,45.2 31.4,45.2
		31.4,14.8 	"/>
</g>
</svg>
