<svg xmlns="http://www.w3.org/2000/svg" viewBox="11 11 38 38"><path d="M40.22,11.28v5.53l-1,1.57v-7.1H30.5V29.2l-1-.59V11.28h-9V33l-1,1.61V11.28H11.28V38.2L17,40.59l8.28-13.32,6.89,4.08,9.46-14.89h0a1.71,1.71,0,0,1,1.46-.82h.11a1.72,1.72,0,0,1,1.72,1.72v.11a1.74,1.74,0,0,1-.27.93h0L33.3,36.24,26.44,32,18.39,45l-7.11-3v6.72h8.23V45.05l1-1.6v5.27h9V35.08l1,.61v13h8.72V28.8l1-1.57V48.72h8.5V11.28Z" fill="currentcolor"/><g opacity="0.75"><polygon points="20.51 33.03 20.51 11.28 19.51 11.28 19.51 34.64 20.51 33.03" fill="currentcolor"/><polygon points="19.51 45.05 19.51 48.72 20.51 48.72 20.51 43.45 19.51 45.05" fill="currentcolor"/></g><g opacity="0.75"><polygon points="30.5 29.2 30.5 11.28 29.5 11.28 29.5 28.61 30.5 29.2" fill="currentcolor"/><polygon points="29.5 35.08 29.5 48.72 30.5 48.72 30.5 35.69 29.5 35.08" fill="currentcolor"/></g><g opacity="0.75"><polygon points="39.22 28.8 39.22 48.72 40.22 48.72 40.22 27.23 39.22 28.8" fill="currentcolor"/><polygon points="40.22 16.81 40.22 11.28 39.22 11.28 39.22 18.38 40.22 16.81" fill="currentcolor"/></g></svg>