<svg xmlns="http://www.w3.org/2000/svg" viewBox="9 9 42 42"><path d="M26.14,17.58,22.79,9.5l-2.19.91L24,18.5A13.17,13.17,0,0,1,26.14,17.58Z" fill="currentcolor"/><path d="M18.5,24,10.41,20.6,9.5,22.79l8.08,3.35A13.17,13.17,0,0,1,18.5,24Z" fill="currentcolor"/><path d="M36.05,18.5l3.35-8.09L37.21,9.5l-3.35,8.08A13.17,13.17,0,0,1,36.05,18.5Z" fill="currentcolor"/><path d="M42.42,26.14l8.08-3.35-.91-2.19L41.5,24A13.17,13.17,0,0,1,42.42,26.14Z" fill="currentcolor"/><path d="M41.5,36.05l8.09,3.35.91-2.19-8.08-3.35A13.17,13.17,0,0,1,41.5,36.05Z" fill="currentcolor"/><path d="M33.86,42.42l3.35,8.08,2.19-.91L36.05,41.5A13.17,13.17,0,0,1,33.86,42.42Z" fill="currentcolor"/><path d="M24,41.5,20.6,49.59l2.19.91,3.35-8.08A13.17,13.17,0,0,1,24,41.5Z" fill="currentcolor"/><path d="M17.58,33.86,9.5,37.21l.91,2.19,8.09-3.35A13.17,13.17,0,0,1,17.58,33.86Z" fill="currentcolor"/><circle cx="30" cy="30" r="8.5" fill="currentcolor"/></svg>