<svg xmlns="http://www.w3.org/2000/svg" viewBox="10 10 40 40"><path d="M24.95,29.47c-2.82,0-5.1,2.34-5.1,5.23s2.28,5.23,5.1,5.23,5.1-2.34,5.1-5.23-2.28-5.23-5.1-5.23Z" fill="currentcolor"/><path d="M39.1,17.8c-1.84-.09-3.41,1.37-3.5,3.25-.09,1.89,1.33,3.49,3.17,3.58,1.84,.09,3.41-1.37,3.5-3.25,.09-1.89-1.33-3.49-3.17-3.58Z" fill="currentcolor"/><path d="M49.2,10.78h0s-38.42,0-38.42,0V49.22h.01s0,0,0,0H49.22V10.78h-.01Zm-15.23,23.91c0,.41-.03,.81-.08,1.21,.89,.46,1.77,1.03,2.57,1.69-.13,.58-.35,1.13-.55,1.68-1.02-.02-2.01-.13-2.96-.31-.38,.75-.86,1.44-1.42,2.05,.43,.88,.76,1.78,1.03,2.77-.47,.36-.93,.73-1.45,1.02-.76-.56-1.46-1.19-2.1-1.87-.77,.4-1.61,.69-2.49,.85-.17,.9-.43,1.84-.78,2.71-.26,.02-.52,.03-.78,.03h0c-.26,0-.52,0-.78-.03-.35-.87-.61-1.81-.78-2.71-.88-.16-1.72-.45-2.49-.85-.64,.68-1.34,1.31-2.1,1.87-.52-.29-.98-.66-1.45-1.02,.27-.99,.6-1.9,1.03-2.77-.56-.61-1.04-1.3-1.42-2.05-.95,.18-1.94,.29-2.96,.31-.21-.55-.43-1.11-.56-1.68,.8-.66,1.68-1.23,2.57-1.69-.05-.4-.08-.8-.08-1.21s.03-.81,.08-1.21c-.89-.46-1.77-1.03-2.57-1.69,.13-.58,.35-1.13,.56-1.69,1.02,.02,2.01,.13,2.96,.31,.38-.75,.86-1.44,1.42-2.05-.43-.88-.76-1.78-1.03-2.77,.47-.36,.93-.73,1.45-1.02,.76,.56,1.46,1.19,2.1,1.87,.77-.4,1.61-.69,2.49-.85,.17-.9,.43-1.84,.78-2.71,.26-.02,.52-.03,.78-.03h0c.26,0,.52,0,.78,.03,.35,.87,.61,1.81,.78,2.71,.88,.16,1.72,.45,2.49,.85,.64-.68,1.34-1.31,2.1-1.87,.52,.29,.98,.66,1.45,1.02-.27,.99-.6,1.9-1.03,2.77,.56,.61,1.04,1.3,1.42,2.05,.95-.18,1.94-.29,2.96-.31,.21,.55,.42,1.11,.55,1.69-.8,.66-1.68,1.23-2.57,1.69,.05,.4,.08,.8,.08,1.21Zm10.86-13.19c-.01,.27-.05,.53-.09,.79,.57,.33,1.12,.73,1.62,1.19-.1,.37-.26,.73-.42,1.08-.66-.05-1.31-.15-1.92-.3-.27,.48-.61,.91-1,1.29,.26,.59,.44,1.19,.58,1.85-.32,.22-.63,.45-.98,.62-.48-.39-.92-.83-1.31-1.29-.52,.24-1.07,.4-1.65,.47-.14,.59-.34,1.19-.6,1.75-.17,0-.34,0-.51,0h0c-.17,0-.34-.02-.51-.04-.2-.58-.34-1.2-.42-1.8-.57-.13-1.11-.35-1.6-.63-.44,.42-.92,.81-1.43,1.15-.33-.21-.62-.46-.91-.71,.21-.64,.45-1.22,.76-1.78-.35-.42-.64-.88-.86-1.39-.63,.09-1.28,.13-1.94,.11-.12-.37-.24-.74-.31-1.12,.54-.41,1.14-.75,1.73-1.02-.02-.26-.03-.53-.01-.79,.01-.27,.04-.53,.09-.79-.57-.33-1.12-.73-1.62-1.19,.1-.37,.26-.73,.42-1.08,.66,.05,1.31,.15,1.92,.3,.27-.48,.61-.91,1-1.29-.26-.59-.44-1.19-.58-1.85,.32-.22,.63-.45,.98-.62,.48,.39,.92,.83,1.31,1.29,.52-.24,1.07-.4,1.66-.47,.14-.59,.34-1.19,.6-1.75,.17,0,.34,0,.51,0h0c.17,0,.34,.02,.51,.04,.2,.58,.34,1.2,.42,1.8,.57,.13,1.11,.35,1.6,.63,.44-.42,.92-.81,1.43-1.15,.33,.21,.62,.46,.91,.71-.21,.64-.45,1.22-.76,1.78,.35,.42,.64,.88,.86,1.39,.63-.09,1.28-.13,1.94-.11,.12,.37,.24,.74,.31,1.12-.54,.41-1.13,.75-1.73,1.02,.02,.26,.03,.53,.01,.79Z" fill="currentcolor"/></svg>