<svg xmlns="http://www.w3.org/2000/svg" viewBox="10 13 37 34"><rect x="43.06" y="36.77" width="3.94" height="5.52" fill="currentcolor" opacity="0.5"/><rect x="43.06" y="17.71" width="3.94" height="5.52" fill="currentcolor" opacity="0.5"/><rect x="43.06" y="27.24" width="3.94" height="5.52" fill="currentcolor" opacity="0.5"/><polygon points="19.05 13.7 19.05 17.71 43.06 17.71 47 17.71 47 13.7 47 13.7 19.05 13.7" fill="currentcolor"/><polygon points="43.06 23.23 11 23.23 11 27.24 43.06 27.24 47 27.24 47 23.23 43.06 23.23" fill="currentcolor"/><polygon points="43.06 32.76 14.34 32.76 14.34 36.77 43.06 36.77 47 36.77 47 32.76 43.06 32.76" fill="currentcolor"/><polygon points="43.06 42.29 28.2 42.29 28.2 46.3 43.06 46.3 47 46.3 47 42.29 43.06 42.29" fill="currentcolor"/></svg>