<svg xmlns="http://www.w3.org/2000/svg" viewBox="12 13 37 34"><rect x="13" y="36.77" width="3.94" height="5.52" fill="currentcolor" opacity="0.5"/><rect x="13" y="17.71" width="3.94" height="5.52" fill="currentcolor" opacity="0.5"/><rect x="13" y="27.24" width="3.94" height="5.52" fill="currentcolor" opacity="0.5"/><polygon points="40.95 13.7 40.95 17.71 16.94 17.71 13 17.71 13 13.7 13 13.7 40.95 13.7" fill="currentcolor"/><polygon points="16.94 23.23 49 23.23 49 27.24 16.94 27.24 13 27.24 13 23.23 16.94 23.23" fill="currentcolor"/><polygon points="16.94 32.76 45.66 32.76 45.66 36.77 16.94 36.77 13 36.77 13 32.76 16.94 32.76" fill="currentcolor"/><polygon points="16.94 42.29 31.8 42.29 31.8 46.3 16.94 46.3 13 46.3 13 42.29 16.94 42.29" fill="currentcolor"/></svg>