<svg xmlns="http://www.w3.org/2000/svg" viewBox="11 13 37 34"><rect x="27.53" y="27.24" width="3.94" height="5.52" fill="currentcolor" opacity="0.5"/><rect x="27.53" y="17.71" width="3.94" height="5.52" fill="currentcolor" opacity="0.5"/><rect x="27.53" y="36.77" width="3.94" height="5.52" fill="currentcolor" opacity="0.5"/><polygon points="31.47 13.7 27.53 13.7 15.52 13.7 15.52 17.71 27.53 17.71 31.47 17.71 43.48 17.71 43.48 13.7 31.47 13.7" fill="currentcolor"/><polygon points="31.47 23.23 27.53 23.23 11.5 23.23 11.5 27.24 27.53 27.24 31.47 27.24 47.5 27.24 47.5 23.23 31.47 23.23" fill="currentcolor"/><polygon points="31.47 32.76 27.53 32.76 13.17 32.76 13.17 36.77 27.53 36.77 31.47 36.77 45.83 36.77 45.83 32.76 31.47 32.76" fill="currentcolor"/><polygon points="31.47 42.29 27.53 42.29 20.1 42.29 20.1 46.3 27.53 46.3 31.47 46.3 38.9 46.3 38.9 42.29 31.47 42.29" fill="currentcolor"/></svg>