<svg id="Ebene_1" data-name="Ebene 1" xmlns="http://www.w3.org/2000/svg" viewBox="0 0 60 60"><defs><style>.cls-1,.cls-2,.cls-3{fill:#fff;}.cls-2{opacity:0.75;}.cls-3{opacity:0.5;}</style></defs><title>viur-icons-2018</title><path class="cls-1" d="M30,52.5A22.5,22.5,0,1,1,52.5,30,22.52,22.52,0,0,1,30,52.5Zm0-42A19.5,19.5,0,1,0,49.5,30,19.53,19.53,0,0,0,30,10.5Z"/><circle class="cls-1" cx="29.59" cy="29.82" r="2.51"/><path class="cls-2" d="M29.05,27.37l-5.3-4.81a1.5,1.5,0,0,0-2,2.22l5.36,4.87A2.51,2.51,0,0,1,29.05,27.37Z"/><path class="cls-3" d="M42.75,18.93a1.5,1.5,0,0,0-2.11-.19L30.23,27.4a2.5,2.5,0,0,1,1.87,2.35l10.46-8.7A1.51,1.51,0,0,0,42.75,18.93Z"/></svg>