<svg xmlns="http://www.w3.org/2000/svg" viewBox="19 15 23 30"><path d="M19.81,15.5h9q6.17,0,9,1.76a6.1,6.1,0,0,1,2.79,5.58,7,7,0,0,1-1.22,4.26,4.93,4.93,0,0,1-3.25,2v.2a6.36,6.36,0,0,1,4,2.3,7.43,7.43,0,0,1,1.22,4.48,7.39,7.39,0,0,1-2.86,6.19,12.43,12.43,0,0,1-7.79,2.22H19.81ZM26,27h3.57a6.49,6.49,0,0,0,3.62-.77,2.87,2.87,0,0,0,1.12-2.56,2.56,2.56,0,0,0-1.22-2.39,7.87,7.87,0,0,0-3.86-.72H26Zm0,4.88v7.56h4a5.89,5.89,0,0,0,3.74-1,3.58,3.58,0,0,0,1.21-3c0-2.4-1.71-3.61-5.15-3.61Z" fill="currentcolor"/></svg>