<svg xmlns="http://www.w3.org/2000/svg" viewBox="13 19 35 22"><polygon points="25.46 27.89 17.9 27.89 17.9 20.16 13.47 20.16 13.47 40.13 17.9 40.13 17.9 31.62 25.46 31.62 25.46 40.13 29.88 40.13 29.88 20.16 25.46 20.16 25.46 27.89" fill="currentcolor"/><path d="M38.67,36.37,41.16,34a36.82,36.82,0,0,0,3.56-3.59,10.19,10.19,0,0,0,1.5-2.48,7,7,0,0,0,.49-2.6,5.13,5.13,0,0,0-.81-2.85,5.33,5.33,0,0,0-2.25-1.93,7.71,7.71,0,0,0-3.31-.68,10.71,10.71,0,0,0-2.57.28,8.68,8.68,0,0,0-2.12.8,14.52,14.52,0,0,0-2.43,1.76l-.1.08,2.35,2.78.08.1.09-.08a11,11,0,0,1,2.23-1.48A5,5,0,0,1,40,23.6a2.44,2.44,0,0,1,1.66.55,2.14,2.14,0,0,1,.62,1.68A4,4,0,0,1,42,27.32a6.48,6.48,0,0,1-1,1.58c-.44.57-1.4,1.62-2.86,3.11l-5,5,0,0v3.08h14V36.37Z" fill="currentcolor"/></svg>