<?xml version="1.0" encoding="utf-8"?>
<!-- Generator: Adobe Illustrator 16.0.4, SVG Export Plug-In . SVG Version: 6.00 Build 0)  -->
<!DOCTYPE svg PUBLIC "-//W3C//DTD SVG 1.1//EN" "http://www.w3.org/Graphics/SVG/1.1/DTD/svg11.dtd">
<svg version="1.1" id="Ebene_1" xmlns="http://www.w3.org/2000/svg" xmlns:xlink="http://www.w3.org/1999/xlink" x="0px" y="0px"
	 width="254px" height="104px" viewBox="0 0 254 104" enable-background="new 0 0 254 104" xml:space="preserve">
<g>
	<g>
		<path fill="#F5F5F5" d="M71.298,7.337h-3.61L67.7,4.433h-0.246h-0.686H62.94h-0.656H62.01l-0.009,2.904H58.43l-0.037,1.551h12.924
			L71.298,7.337z M63.034,7.337l0.011-1.869h3.619l-0.008,1.869H63.034z"/>
		<path fill="#F5F5F5" d="M67.697,4.434l-0.01,2.904h3.609l0.02,1.551H58.393l0.037-1.551h3.571l0.009-2.904h0.272h0.657h3.826
			h0.687H67.697 M68.137,3.997h-0.439h-0.245h-0.687H62.94h-0.657H62.01h-0.435l-0.003,0.436L61.566,6.9h-3.139H58l-0.01,0.427
			l-0.037,1.551l-0.012,0.447h0.449h12.924h0.444l-0.006-0.442l-0.019-1.551L71.73,6.9h-0.434h-3.173l0.01-2.464L68.137,3.997
			L68.137,3.997z"/>
	</g>
	<g>
		<polygon fill="#F5F5F5" points="69.766,20.956 59.943,20.956 58.907,9.319 70.801,9.319 		"/>
		<path fill="#F5F5F5" d="M70.801,9.319l-1.035,11.637h-9.82L58.908,9.319H70.801 M71.277,8.882H70.8H58.907H58.43l0.043,0.476
			l1.035,11.636l0.036,0.398h0.399h9.82h0.4l0.035-0.398l1.035-11.636L71.277,8.882L71.277,8.882z"/>
	</g>
</g>
<g>
	<g>
		<g>
			<path fill="#F5F5F5" d="M13.146,8.192c-5.192,0-9.402,5.504-9.402,5.504s4.209,5.5,9.402,5.5s9.401-5.5,9.401-5.5
				S18.338,8.192,13.146,8.192z M13.109,19.196c-3.039,0-5.502-2.465-5.502-5.5c0-3.04,2.463-5.505,5.502-5.505
				c3.038,0,5.501,2.465,5.501,5.505C18.611,16.731,16.147,19.196,13.109,19.196z"/>
			<path fill="#F5F5F5" d="M13.146,19.415h-0.037c-0.086,0-0.171-0.002-0.257-0.006c-5.104-0.195-9.114-5.36-9.282-5.58
				l-0.102-0.133l0.102-0.133c0.168-0.219,4.177-5.387,9.282-5.584c0.085-0.003,0.171-0.006,0.257-0.006v0.001
				c0.005-0.001,0.013-0.003,0.018-0.001l0,0c5.259,0.002,9.419,5.362,9.594,5.59l0.101,0.133l-0.101,0.133
				C22.546,14.057,18.385,19.415,13.146,19.415z M12.87,18.972c0.085,0.004,0.17,0.005,0.256,0.005
				c2.904-0.009,5.266-2.378,5.266-5.281c0-2.906-2.362-5.278-5.266-5.287c-0.085,0-0.17,0.001-0.255,0.005H12.87
				c-2.829,0.125-5.045,2.446-5.045,5.281C7.826,16.53,10.042,18.847,12.87,18.972z M16.708,9.251
				c1.293,1.051,2.122,2.655,2.122,4.445c0,1.789-0.828,3.391-2.122,4.44c2.9-1.332,5.066-3.837,5.561-4.441
				C21.773,13.092,19.606,10.585,16.708,9.251z M4.024,13.696c0.483,0.59,2.562,2.994,5.359,4.346
				c-1.224-1.049-1.995-2.608-1.995-4.345c0-1.74,0.771-3.3,1.997-4.351C6.587,10.7,4.507,13.106,4.024,13.696z"/>
		</g>
		<g>
			<circle fill="#F5F5F5" cx="13.091" cy="13.676" r="2.125"/>
			<path fill="#F5F5F5" d="M13.091,16.021c-1.292,0-2.345-1.052-2.345-2.345c0-1.294,1.052-2.347,2.345-2.347
				c1.292,0,2.343,1.053,2.343,2.347C15.435,14.969,14.383,16.021,13.091,16.021z M13.091,11.767c-1.052,0-1.907,0.856-1.907,1.909
				c0,1.052,0.855,1.907,1.907,1.907c1.051,0,1.906-0.855,1.906-1.907C14.998,12.623,14.143,11.767,13.091,11.767z"/>
		</g>
	</g>
</g>
<g>
	<g>
		<path fill="#F5F5F5" d="M44.078,7.624l-2.945-1.98l-8.139,8.137l-1.045,5.966l5.966-1.044l8.136-8.14L44.078,7.624z
			 M34.592,19.284l-2.171-2.241l0.572-3.262l2.986,1.881l1.936,3.041L34.592,19.284z"/>
		<path fill="#F5F5F5" d="M31.949,19.966c-0.058,0-0.113-0.023-0.154-0.064c-0.05-0.051-0.073-0.123-0.06-0.193l0.469-2.683
			c0-0.007,0.001-0.014,0.002-0.021l0.572-3.26c0-0.002,0.001-0.005,0.001-0.007l0,0c0,0,0,0,0-0.001
			c0.009-0.043,0.031-0.082,0.062-0.111l8.138-8.137c0.074-0.074,0.188-0.086,0.275-0.027l2.944,1.981
			c0.022,0.016,0.044,0.036,0.06,0.06l1.975,2.938c0.058,0.086,0.045,0.202-0.026,0.276l-8.138,8.139
			c-0.006,0.007-0.014,0.014-0.021,0.021l0,0h-0.001l0,0c0,0,0,0.001-0.001,0.001l0,0c-0.002,0.001-0.002,0.001-0.002,0.001
			c0-0.001,0,0.001,0,0h-0.001c-0.001,0-0.001,0-0.001,0.001l0,0H38.04c0,0,0,0-0.001,0l0,0l0,0c0,0-0.001,0.001-0.002,0.001
			c0.001,0,0.001,0,0,0l0,0h-0.001l0,0c-0.001,0-0.001,0-0.002,0.001l0,0h-0.001l0,0l0,0l0,0c-0.025,0.015-0.052,0.026-0.08,0.03
			l-0.019,0.003l-5.948,1.042C31.974,19.965,31.961,19.966,31.949,19.966z M32.564,17.503l-0.347,1.975l1.933-0.338L32.564,17.503z
			 M32.657,16.972l2.012,2.076l2.886-0.504l-1.733-2.722l-2.669-1.681L32.657,16.972z M33.342,13.742l2.754,1.734
			c0.028,0.018,0.05,0.042,0.068,0.068l1.789,2.81l7.814-7.82L43.92,7.781l-2.76-1.856L33.342,13.742z"/>
	</g>
	<g>
		<path fill="#F5F5F5" d="M34.592,19.502c-0.058,0-0.114-0.024-0.156-0.067l-2.171-2.241c-0.049-0.05-0.07-0.121-0.059-0.19
			l0.573-3.261c0.012-0.071,0.06-0.133,0.126-0.162c0.068-0.03,0.144-0.023,0.205,0.014l2.987,1.881
			c0.028,0.018,0.05,0.042,0.068,0.068l1.934,3.041c0.039,0.062,0.045,0.138,0.016,0.205c-0.028,0.067-0.09,0.115-0.161,0.126
			l-3.323,0.581C34.618,19.501,34.605,19.502,34.592,19.502z M32.656,16.971l2.013,2.077l2.886-0.504l-1.733-2.722l-2.669-1.681
			L32.656,16.971z"/>
	</g>
</g>
<g>
	<g>
		<path fill="#B1B1B1" d="M71.298,59.736h-3.61l0.012-2.902h-0.246h-0.686H62.94h-0.656H62.01l-0.009,2.902H58.43l-0.037,1.549
			h12.924L71.298,59.736z M63.034,59.736l0.011-1.87h3.619l-0.008,1.87H63.034z"/>
		<path fill="#878787" d="M67.697,56.834l-0.01,2.902h3.609l0.02,1.549H58.393l0.037-1.549h3.571l0.009-2.902h0.272h0.657h3.826
			h0.687H67.697 M63.034,59.736h3.622l0.008-1.87h-3.619L63.034,59.736 M68.137,56.396h-0.439h-0.245h-0.687H62.94h-0.657H62.01
			h-0.435l-0.003,0.438l-0.006,2.465h-3.139H58l-0.011,0.428l-0.037,1.549l-0.012,0.447h0.449h12.924h0.444l-0.006-0.438
			l-0.019-1.552l-0.006-0.434h-0.434h-3.173l0.01-2.462L68.137,56.396L68.137,56.396z M63.48,58.303h2.744l-0.004,0.995h-2.746
			L63.48,58.303L63.48,58.303z"/>
	</g>
	<g>
		<polygon fill="#B1B1B1" points="69.766,73.354 59.943,73.354 58.907,61.717 70.801,61.717 		"/>
		<path fill="#878787" d="M70.801,61.717l-1.035,11.637h-9.82l-1.037-11.637H70.801 M71.277,61.279H70.8H58.907H58.43l0.043,0.477
			l1.035,11.637l0.036,0.398h0.399h9.82h0.4l0.035-0.398l1.035-11.637L71.277,61.279L71.277,61.279z"/>
	</g>
</g>
<g>
	<g>
		<path fill="#878787" d="M13.109,70.812c-3.155,0-5.721-2.566-5.721-5.722s2.566-5.722,5.721-5.722c3.154,0,5.72,2.564,5.72,5.722
			C18.829,68.246,16.263,70.812,13.109,70.812z M13.109,59.809c-2.913,0-5.284,2.371-5.284,5.285c0,2.913,2.371,5.281,5.284,5.281
			s5.283-2.368,5.283-5.281C18.393,62.18,16.022,59.809,13.109,59.809z"/>
	</g>
	<g>
		<g>
			<path fill="#B1B1B1" d="M13.146,59.59c-5.192,0-9.402,5.504-9.402,5.504s4.209,5.499,9.402,5.499s9.401-5.499,9.401-5.499
				S18.338,59.59,13.146,59.59z M13.109,70.593c-3.039,0-5.502-2.464-5.502-5.499c0-3.037,2.463-5.504,5.502-5.504
				c3.038,0,5.501,2.467,5.501,5.504C18.611,68.129,16.147,70.593,13.109,70.593z"/>
			<path fill="#878787" d="M13.146,70.812h-0.037c-0.086,0-0.171-0.002-0.257-0.008c-5.104-0.197-9.114-5.359-9.282-5.578
				l-0.102-0.136L3.57,64.96c0.168-0.222,4.177-5.39,9.282-5.583c0.085-0.005,0.171-0.007,0.257-0.007l0,0
				c0.005,0,0.013-0.002,0.018,0l0,0c5.259,0.001,9.419,5.36,9.594,5.59l0.101,0.132l-0.101,0.135
				C22.546,65.455,18.385,70.812,13.146,70.812z M12.87,70.369c0.085,0.003,0.17,0.006,0.256,0.006
				c2.904-0.009,5.266-2.378,5.266-5.281c0-2.904-2.362-5.275-5.266-5.285c-0.086,0-0.171,0.002-0.257,0.006
				c-2.828,0.125-5.044,2.444-5.044,5.279C7.826,67.927,10.042,70.243,12.87,70.369z M16.708,60.65
				c1.292,1.051,2.121,2.65,2.121,4.44S18,68.484,16.707,69.535c2.9-1.332,5.066-3.838,5.561-4.441
				C21.773,64.49,19.606,61.982,16.708,60.65z M4.024,65.094c0.483,0.59,2.562,2.993,5.36,4.348
				c-1.225-1.051-1.996-2.607-1.996-4.348s0.771-3.3,1.998-4.351C6.586,62.098,4.507,64.504,4.024,65.094z"/>
		</g>
		<g>
			<path fill="#B1B1B1" d="M10.965,65.074c0-1.174,0.951-2.129,2.126-2.129c1.172,0,2.125,0.955,2.125,2.129
				c0,1.176-0.953,2.126-2.125,2.126C11.916,67.2,10.965,66.25,10.965,65.074z"/>
			<path fill="#878787" d="M13.091,67.42c-1.292,0-2.345-1.053-2.345-2.346c0-1.297,1.052-2.348,2.345-2.348
				c1.292,0,2.343,1.051,2.343,2.348C15.435,66.367,14.383,67.42,13.091,67.42z M13.091,63.165c-1.052,0-1.907,0.854-1.907,1.909
				c0,1.052,0.855,1.908,1.907,1.908c1.051,0,1.906-0.856,1.906-1.908C14.998,64.021,14.143,63.165,13.091,63.165z"/>
		</g>
	</g>
</g>
<g>
	<g>
		<path fill="#B1B1B1" d="M44.078,59.021l-2.945-1.979l-8.139,8.135l-1.045,5.968l5.966-1.045l8.136-8.142L44.078,59.021z
			 M34.592,70.684l-2.171-2.242l0.572-3.264l2.986,1.883l1.936,3.041L34.592,70.684z"/>
		<path fill="#878787" d="M31.68,71.414l0.508-2.9h-0.001l0.566-3.228l-0.107-0.068l8.459-8.456l3.152,2.139l2.073,3.086
			l-8.139,8.146l0.081,0.128L31.68,71.414z M32.564,68.902l-0.347,1.975l1.933-0.339L32.564,68.902z M32.657,68.369l2.012,2.078
			l2.886-0.506l-1.733-2.726l-2.669-1.682L32.657,68.369z M33.342,65.139l2.822,1.805l1.789,2.812l7.814-7.818L43.92,59.18
			l-2.76-1.854L33.342,65.139z"/>
	</g>
</g>
<g>
	<g>
		
			<linearGradient id="SVGID_1_" gradientUnits="userSpaceOnUse" x1="160.3643" y1="-1009.1099" x2="160.3643" y2="-1034.9644" gradientTransform="matrix(1 0 0 -1 -147.2197 -904.8906)">
			<stop  offset="0.137" style="stop-color:#FFFFFF"/>
			<stop  offset="0.7991" style="stop-color:#D9D9D9"/>
		</linearGradient>
		<rect x="0.218" y="104.219" fill="url(#SVGID_1_)" width="25.854" height="25.854"/>
		<path fill="#878787" d="M26.292,130.293H0V104h26.292V130.293z M0.438,129.855h25.417v-25.42H0.438V129.855z"/>
	</g>
</g>
<g>
	<g>
		
			<linearGradient id="SVGID_2_" gradientUnits="userSpaceOnUse" x1="186.2188" y1="-1009.1118" x2="186.2188" y2="-1034.9663" gradientTransform="matrix(1 0 0 -1 -147.2197 -904.8906)">
			<stop  offset="0.137" style="stop-color:#FFFFFF"/>
			<stop  offset="0.7991" style="stop-color:#D9D9D9"/>
		</linearGradient>
		<rect x="26.072" y="104.221" fill="url(#SVGID_2_)" width="25.854" height="25.854"/>
		<path fill="#878787" d="M52.145,130.293H25.854V104h26.291V130.293z M26.292,129.855h25.417v-25.418H26.292V129.855z"/>
	</g>
</g>
<g>
	<g>
		
			<linearGradient id="SVGID_3_" gradientUnits="userSpaceOnUse" x1="212.0732" y1="-1009.1118" x2="212.0732" y2="-1034.9663" gradientTransform="matrix(1 0 0 -1 -147.2197 -904.8906)">
			<stop  offset="0.137" style="stop-color:#FFFFFF"/>
			<stop  offset="0.7991" style="stop-color:#D9D9D9"/>
		</linearGradient>
		<rect x="51.927" y="104.221" fill="url(#SVGID_3_)" width="25.854" height="25.854"/>
		<path fill="#878787" d="M78,130.293H51.708V104H78V130.293z M52.145,129.855h25.42v-25.418h-25.42V129.855z"/>
	</g>
</g>
<g>
	<g>
		<path fill="#D9D9D9" d="M71.298,112.412h-3.61l0.012-2.902h-0.246h-0.686H62.94h-0.656H62.01l-0.009,2.902H58.43l-0.037,1.553
			h12.924L71.298,112.412z M63.034,112.412l0.011-1.869h3.619l-0.008,1.869H63.034z"/>
		<path fill="#878787" d="M67.697,109.51l-0.01,2.902h3.609l0.02,1.553H58.393l0.037-1.553h3.571l0.009-2.902h0.272h0.657h3.826
			h0.687H67.697 M63.034,112.412h3.622l0.008-1.869h-3.619L63.034,112.412 M68.137,109.072h-0.439h-0.245h-0.687H62.94h-0.657H62.01
			h-0.435l-0.003,0.436l-0.006,2.469h-3.139H58l-0.011,0.426l-0.037,1.553L57.94,114.4h0.449h12.924h0.444l-0.006-0.44l-0.019-1.553
			l-0.006-0.433h-0.434h-3.173l0.01-2.466L68.137,109.072L68.137,109.072z M63.48,110.979h2.744l-0.004,0.996h-2.746L63.48,110.979
			L63.48,110.979z"/>
	</g>
	<g>
		
			<linearGradient id="SVGID_4_" gradientUnits="userSpaceOnUse" x1="212.0742" y1="-1030.9214" x2="212.0742" y2="-1019.2847" gradientTransform="matrix(1 0 0 -1 -147.2197 -904.8906)">
			<stop  offset="0.137" style="stop-color:#FFFFFF"/>
			<stop  offset="0.7991" style="stop-color:#D9D9D9"/>
		</linearGradient>
		<polygon fill="url(#SVGID_4_)" points="69.766,126.031 59.943,126.031 58.907,114.395 70.801,114.395 		"/>
		<path fill="#878787" d="M70.801,114.395l-1.035,11.639h-9.82l-1.037-11.639H70.801 M71.277,113.957H70.8H58.907H58.43l0.043,0.477
			l1.035,11.635l0.036,0.398h0.399h9.82h0.4l0.035-0.398l1.035-11.635L71.277,113.957L71.277,113.957z"/>
	</g>
</g>
<g>
	<g>
		
			<linearGradient id="SVGID_5_" gradientUnits="userSpaceOnUse" x1="160.3281" y1="-1027.5386" x2="160.3281" y2="-1016.5327" gradientTransform="matrix(1 0 0 -1 -147.2197 -904.8906)">
			<stop  offset="0.137" style="stop-color:#FFFFFF"/>
			<stop  offset="0.7991" style="stop-color:#D9D9D9"/>
		</linearGradient>
		<path fill="url(#SVGID_5_)" d="M13.109,122.648c-3.039,0-5.502-2.465-5.502-5.5c0-3.041,2.463-5.506,5.502-5.506
			c3.038,0,5.501,2.465,5.501,5.506C18.611,120.184,16.147,122.648,13.109,122.648z"/>
		<path fill="#878787" d="M13.109,122.869c-3.155,0-5.721-2.564-5.721-5.721c0-3.154,2.566-5.725,5.721-5.725
			c3.154,0,5.72,2.568,5.72,5.725C18.829,120.303,16.263,122.869,13.109,122.869z M13.109,111.863c-2.913,0-5.284,2.371-5.284,5.285
			s2.371,5.283,5.284,5.283s5.283-2.369,5.283-5.283C18.393,114.234,16.022,111.863,13.109,111.863z"/>
	</g>
	<g>
		<g>
			
				<linearGradient id="SVGID_6_" gradientUnits="userSpaceOnUse" x1="160.3652" y1="-1027.5386" x2="160.3652" y2="-1016.5327" gradientTransform="matrix(1 0 0 -1 -147.2197 -904.8906)">
				<stop  offset="0.137" style="stop-color:#FFFFFF"/>
				<stop  offset="0.7991" style="stop-color:#D9D9D9"/>
			</linearGradient>
			<path fill="url(#SVGID_6_)" d="M13.146,111.645c-5.192,0-9.402,5.504-9.402,5.504s4.209,5.5,9.402,5.5s9.401-5.5,9.401-5.5
				S18.338,111.645,13.146,111.645z M13.109,122.648c-3.039,0-5.502-2.465-5.502-5.5c0-3.041,2.463-5.506,5.502-5.506
				c3.038,0,5.501,2.465,5.501,5.506C18.611,120.184,16.147,122.648,13.109,122.648z"/>
			<path fill="#878787" d="M13.146,122.869h-0.037c-0.086,0-0.171-0.002-0.257-0.006c-5.104-0.197-9.114-5.361-9.282-5.582
				l-0.102-0.133l0.102-0.133c0.168-0.221,4.177-5.389,9.282-5.584c0.085-0.005,0.171-0.008,0.257-0.008v0.001
				c0.005,0,0.013,0,0.018-0.001l0,0c5.259,0.002,9.419,5.361,9.594,5.592l0.101,0.133l-0.101,0.133
				C22.546,117.51,18.385,122.869,13.146,122.869z M12.873,122.426c0.084,0.004,0.168,0.006,0.254,0.006
				c2.904-0.011,5.266-2.379,5.266-5.283s-2.362-5.275-5.266-5.287c-0.085,0-0.17,0.004-0.255,0.008h-0.001
				c-2.829,0.125-5.045,2.443-5.045,5.279C7.826,119.982,10.042,122.3,12.873,122.426C12.872,122.426,12.872,122.426,12.873,122.426
				z M16.708,112.703c1.293,1.052,2.122,2.654,2.122,4.445c0,1.789-0.829,3.391-2.122,4.438c2.9-1.332,5.066-3.837,5.561-4.44
				C21.773,116.545,19.606,114.037,16.708,112.703z M4.024,117.148c0.483,0.59,2.562,2.994,5.359,4.348
				c-1.224-1.051-1.995-2.607-1.995-4.348c0-1.738,0.771-3.299,1.997-4.352C6.587,114.152,4.507,116.559,4.024,117.148z"/>
		</g>
		<g>
			
				<linearGradient id="SVGID_7_" gradientUnits="userSpaceOnUse" x1="160.3105" y1="-1024.145" x2="160.3105" y2="-1019.895" gradientTransform="matrix(1 0 0 -1 -147.2197 -904.8906)">
				<stop  offset="0.137" style="stop-color:#FFFFFF"/>
				<stop  offset="0.7991" style="stop-color:#D9D9D9"/>
			</linearGradient>
			<circle fill="url(#SVGID_7_)" cx="13.091" cy="117.13" r="2.125"/>
			<path fill="#878787" d="M13.091,119.475c-1.292,0-2.345-1.053-2.345-2.346s1.052-2.348,2.345-2.348
				c1.292,0,2.343,1.053,2.343,2.348C15.435,118.423,14.383,119.475,13.091,119.475z M13.091,115.221
				c-1.052,0-1.907,0.855-1.907,1.909c0,1.052,0.855,1.907,1.907,1.907c1.051,0,1.906-0.855,1.906-1.907
				C14.998,116.076,14.143,115.221,13.091,115.221z"/>
		</g>
	</g>
</g>
<g>
	<g>
		
			<linearGradient id="SVGID_8_" gradientUnits="userSpaceOnUse" x1="186.2197" y1="-1029.0913" x2="186.2197" y2="-1014.9858" gradientTransform="matrix(1 0 0 -1 -147.2197 -904.8906)">
			<stop  offset="0.137" style="stop-color:#FFFFFF"/>
			<stop  offset="0.7991" style="stop-color:#D9D9D9"/>
		</linearGradient>
		<path fill="url(#SVGID_8_)" d="M44.078,112.076l-2.945-1.98l-8.139,8.139l-1.045,5.967l5.966-1.045l8.136-8.143L44.078,112.076z
			 M34.592,123.736l-2.171-2.24l0.572-3.264l2.986,1.883l1.936,3.039L34.592,123.736z"/>
		<path fill="#878787" d="M31.68,124.469l0.508-2.9h-0.001l0.566-3.228l-0.107-0.067l8.459-8.459l3.152,2.143l2.073,3.086
			l-8.139,8.145l0.081,0.129L31.68,124.469z M32.564,121.957l-0.347,1.975l1.933-0.339L32.564,121.957z M32.657,121.425l2.012,2.075
			l2.886-0.504l-1.733-2.723l-2.669-1.682L32.657,121.425z M33.342,118.195l2.822,1.803l1.789,2.811l7.814-7.818l-1.849-2.754
			l-2.76-1.854L33.342,118.195z"/>
	</g>
</g>
<g>
	<g>
		
			<linearGradient id="SVGID_9_" gradientUnits="userSpaceOnUse" x1="160.3643" y1="-982.8159" x2="160.3643" y2="-1008.6704" gradientTransform="matrix(1 0 0 -1 -147.2197 -904.8906)">
			<stop  offset="0" style="stop-color:#D9D9D9"/>
			<stop  offset="0.6484" style="stop-color:#A19F9F"/>
		</linearGradient>
		<rect x="0.218" y="77.925" fill="url(#SVGID_9_)" width="25.854" height="25.854"/>
		<path fill="#878787" d="M26.292,103.998H0V77.706h26.292V103.998z M0.438,103.562h25.417v-25.42H0.438V103.562z"/>
	</g>
</g>
<g>
	<g>
		
			<linearGradient id="SVGID_10_" gradientUnits="userSpaceOnUse" x1="186.2188" y1="-982.8179" x2="186.2188" y2="-1008.6724" gradientTransform="matrix(1 0 0 -1 -147.2197 -904.8906)">
			<stop  offset="0" style="stop-color:#D9D9D9"/>
			<stop  offset="0.6484" style="stop-color:#A19F9F"/>
		</linearGradient>
		<rect x="26.072" y="77.927" fill="url(#SVGID_10_)" width="25.854" height="25.854"/>
		<path fill="#878787" d="M52.145,104H25.854V77.708h26.291V104z M26.292,103.562h25.417V78.145H26.292V103.562z"/>
	</g>
</g>
<g>
	<g>
		
			<linearGradient id="SVGID_11_" gradientUnits="userSpaceOnUse" x1="212.0732" y1="-982.8179" x2="212.0732" y2="-1008.6724" gradientTransform="matrix(1 0 0 -1 -147.2197 -904.8906)">
			<stop  offset="0" style="stop-color:#D9D9D9"/>
			<stop  offset="0.6484" style="stop-color:#A19F9F"/>
		</linearGradient>
		<rect x="51.927" y="77.927" fill="url(#SVGID_11_)" width="25.854" height="25.854"/>
		<path fill="#878787" d="M78,104H51.708V77.708H78V104z M52.145,103.562h25.42V78.145h-25.42V103.562z"/>
	</g>
</g>
<g>
	<g>
		
			<linearGradient id="SVGID_12_" gradientUnits="userSpaceOnUse" x1="238.0742" y1="-982.8179" x2="238.0742" y2="-1008.6724" gradientTransform="matrix(1 0 0 -1 -147.2197 -904.8906)">
			<stop  offset="0" style="stop-color:#D9D9D9"/>
			<stop  offset="0.6484" style="stop-color:#A19F9F"/>
		</linearGradient>
		<rect x="77.927" y="77.927" fill="url(#SVGID_12_)" width="25.854" height="25.854"/>
		<path fill="#878787" d="M104,104H77.708V77.708H104V104z M78.145,103.562h25.419V78.145H78.145V103.562z"/>
	</g>
</g>
<g>
	<g>
		
			<linearGradient id="SVGID_13_" gradientUnits="userSpaceOnUse" x1="264.0742" y1="-982.8179" x2="264.0742" y2="-1008.6724" gradientTransform="matrix(1 0 0 -1 -147.2197 -904.8906)">
			<stop  offset="0" style="stop-color:#D9D9D9"/>
			<stop  offset="0.6484" style="stop-color:#A19F9F"/>
		</linearGradient>
		<rect x="103.928" y="77.927" fill="url(#SVGID_13_)" width="25.854" height="25.854"/>
		<path fill="#878787" d="M130,104h-26.292V77.708H130V104z M104.145,103.562h25.419V78.145h-25.419V103.562z"/>
	</g>
</g>
<g>
	<g>
		
			<linearGradient id="SVGID_14_" gradientUnits="userSpaceOnUse" x1="290.5742" y1="-982.8179" x2="290.5742" y2="-1008.6724" gradientTransform="matrix(1 0 0 -1 -147.2197 -904.8906)">
			<stop  offset="0" style="stop-color:#D9D9D9"/>
			<stop  offset="0.6484" style="stop-color:#A19F9F"/>
		</linearGradient>
		<rect x="130.428" y="77.927" fill="url(#SVGID_14_)" width="25.854" height="25.854"/>
		<path fill="#878787" d="M156.5,104h-26.292V77.708H156.5V104z M130.645,103.562h25.42V78.145h-25.42V103.562z"/>
	</g>
</g>
<g>
	<g>
		
			<linearGradient id="SVGID_15_" gradientUnits="userSpaceOnUse" x1="316.0742" y1="-982.8179" x2="316.0742" y2="-1008.6724" gradientTransform="matrix(1 0 0 -1 -147.2197 -904.8906)">
			<stop  offset="0" style="stop-color:#D9D9D9"/>
			<stop  offset="0.6484" style="stop-color:#A19F9F"/>
		</linearGradient>
		<rect x="155.928" y="77.927" fill="url(#SVGID_15_)" width="25.854" height="25.854"/>
		<path fill="#878787" d="M182,104h-26.292V77.708H182V104z M156.145,103.562h25.42V78.145h-25.42V103.562z"/>
	</g>
</g>
<g>
	<g>
		<path fill="#FFFFFF" d="M71.298,85.497h-3.61l0.012-2.905h-0.246h-0.686H62.94h-0.656H62.01l-0.009,2.905H58.43l-0.037,1.551
			h12.924L71.298,85.497z M63.034,85.497l0.011-1.871h3.619l-0.008,1.871H63.034z"/>
		<path fill="#878787" d="M67.697,82.592l-0.01,2.905h3.609l0.02,1.551H58.393l0.037-1.551h3.571l0.009-2.905h0.272h0.657h3.826
			h0.687H67.697 M63.034,85.497h3.622l0.008-1.871h-3.619L63.034,85.497 M68.137,82.154h-0.439h-0.245h-0.687H62.94h-0.657H62.01
			h-0.435l-0.003,0.437l-0.006,2.47h-3.139H58l-0.011,0.426l-0.037,1.553l-0.012,0.447h0.449h12.924h0.444l-0.006-0.44l-0.019-1.552
			l-0.004-0.434h-0.434h-3.173l0.01-2.465L68.137,82.154L68.137,82.154z M63.48,84.062h2.744l-0.004,0.996h-2.746L63.48,84.062
			L63.48,84.062z"/>
	</g>
	<g>
		<polygon fill="#FFFFFF" points="69.766,99.117 59.943,99.117 58.907,87.479 70.801,87.479 		"/>
		<path fill="#878787" d="M70.801,87.479L69.766,99.12h-9.82l-1.037-11.642H70.801 M71.277,87.039H70.8H58.907H58.43l0.043,0.477
			l1.035,11.642l0.036,0.397h0.399h9.82h0.4l0.035-0.397l1.035-11.642L71.277,87.039L71.277,87.039z"/>
	</g>
</g>
<g>
	<g>
		<path fill="#FFFFFF" d="M13.109,96.354c-3.039,0-5.502-2.465-5.502-5.498c0-3.041,2.463-5.508,5.502-5.508
			c3.038,0,5.501,2.467,5.501,5.508C18.611,93.889,16.147,96.354,13.109,96.354z"/>
		<path fill="#878787" d="M13.109,96.573c-3.155,0-5.721-2.566-5.721-5.718c0-3.156,2.566-5.728,5.721-5.728
			c3.154,0,5.72,2.567,5.72,5.728C18.829,94.007,16.263,96.573,13.109,96.573z M13.109,85.568c-2.913,0-5.284,2.371-5.284,5.287
			c0,2.91,2.371,5.276,5.284,5.276s5.283-2.366,5.283-5.276C18.393,87.939,16.022,85.568,13.109,85.568z"/>
	</g>
	<g>
		<g>
			<path fill="#FFFFFF" d="M13.146,85.35c-5.192,0-9.402,5.506-9.402,5.506s4.209,5.5,9.402,5.5s9.401-5.5,9.401-5.5
				S18.338,85.35,13.146,85.35z M13.109,96.354c-3.039,0-5.502-2.465-5.502-5.498c0-3.041,2.463-5.508,5.502-5.508
				c3.038,0,5.501,2.467,5.501,5.508C18.611,93.889,16.147,96.354,13.109,96.354z"/>
			<path fill="#878787" d="M13.146,96.573h-0.037c-0.086,0-0.171-0.003-0.257-0.009c-5.104-0.194-9.114-5.357-9.282-5.578
				l-0.102-0.131l0.102-0.135c0.168-0.221,4.177-5.39,9.282-5.585c0.085-0.005,0.171-0.007,0.257-0.007l0,0
				c0.005,0,0.013-0.003,0.018,0l0,0c5.259,0.001,9.419,5.364,9.594,5.592l0.101,0.135l-0.101,0.131
				C22.546,91.215,18.385,96.573,13.146,96.573z M12.87,96.13c0.085,0.003,0.17,0.005,0.256,0.005
				c2.904-0.008,5.266-2.378,5.266-5.279c0-2.903-2.362-5.275-5.266-5.287c-0.086,0-0.171,0.002-0.257,0.008
				c-2.829,0.127-5.044,2.443-5.044,5.279C7.826,93.688,10.042,96.005,12.87,96.13z M16.708,86.411
				c1.292,1.051,2.121,2.651,2.121,4.444c0,1.789-0.829,3.39-2.123,4.438c2.9-1.331,5.066-3.838,5.561-4.438
				C21.773,90.251,19.606,87.743,16.708,86.411z M4.024,90.855c0.483,0.588,2.562,2.992,5.36,4.346
				c-1.225-1.051-1.996-2.608-1.996-4.346c0-1.741,0.771-3.301,1.996-4.354C6.587,87.857,4.507,90.266,4.024,90.855z"/>
		</g>
		<g>
			<circle fill="#C6C6C5" cx="13.091" cy="90.833" r="2.125"/>
			<path fill="#878787" d="M13.091,93.18c-1.292,0-2.345-1.052-2.345-2.347c0-1.293,1.052-2.347,2.345-2.347
				c1.292,0,2.343,1.054,2.343,2.347C15.435,92.128,14.383,93.18,13.091,93.18z M13.091,88.925c-1.052,0-1.907,0.854-1.907,1.908
				s0.855,1.909,1.907,1.909c1.051,0,1.906-0.855,1.906-1.909S14.143,88.925,13.091,88.925z"/>
		</g>
	</g>
</g>
<g>
	<g>
		<path fill="#FFFFFF" d="M44.078,85.782l-2.945-1.981l-8.139,8.139l-1.045,5.969l5.966-1.047l8.136-8.141L44.078,85.782z
			 M34.592,97.441l-2.171-2.24l0.572-3.262l2.986,1.879l1.936,3.043L34.592,97.441z"/>
		<path fill="#878787" d="M31.68,98.174l0.508-2.9l-0.001-0.002l0.566-3.226l-0.107-0.067l8.459-8.459l3.153,2.144l2.073,3.087
			l-8.139,8.146l0.081,0.129L31.68,98.174z M32.564,95.662l-0.347,1.974l1.932-0.338L32.564,95.662z M32.657,95.129l2.012,2.079
			l2.886-0.505l-1.733-2.725l-2.669-1.684L32.657,95.129z M33.342,91.9l2.822,1.802l1.789,2.812l7.814-7.82l-1.849-2.754
			l-2.76-1.854L33.342,91.9z"/>
	</g>
</g>
<g>
	<polygon fill="#FFFFFF" points="34.656,97.421 32.509,95.145 33.074,91.831 36.029,93.741 37.943,96.829 	"/>
	<path fill="#878787" d="M34.591,97.63l-2.286-2.421l0.631-3.697l3.252,2.125l2.067,3.336L34.591,97.63z M32.712,95.079l2.011,2.13
		l2.907-0.521l-1.739-2.804l-2.678-1.731L32.712,95.079z"/>
</g>
<g>
	<g>
		
			<linearGradient id="SVGID_16_" gradientUnits="userSpaceOnUse" x1="-199.6157" y1="-1166.0381" x2="-195.2041" y2="-1153.9176" gradientTransform="matrix(0.7071 0.7071 -0.7071 0.7071 -589.7775 972.9554)">
			<stop  offset="0" style="stop-color:#FFFFFF"/>
			<stop  offset="1" style="stop-color:#E8E7E7"/>
		</linearGradient>
		<polygon fill="url(#SVGID_16_)" points="97.132,14.943 97.132,11.347 92.652,11.347 92.652,6.868 89.057,6.868 89.057,11.347 
			84.577,11.347 84.577,14.943 89.057,14.943 89.057,19.424 92.652,19.424 92.652,14.943 		"/>
		<path fill="#F5F5F5" d="M92.863,19.637h-4.019v-4.481h-4.481v-4.021h4.481V6.655h4.019v4.479h4.479v4.021h-4.479V19.637z
			 M89.27,19.212h3.169V14.73h4.479v-3.17h-4.479V7.08H89.27v4.479h-4.481v3.17h4.481V19.212z"/>
	</g>
</g>
<g>
	<g>
		<path fill="#F5F5F5" d="M71.298,33.44h-3.61l0.012-2.904h-0.246h-0.686H62.94h-0.656H62.01l-0.009,2.904H58.43l-0.037,1.551
			h12.924L71.298,33.44z M63.034,33.44l0.011-1.869h3.619l-0.008,1.869H63.034z"/>
		<path fill="#F5F5F5" d="M67.697,30.538l-0.01,2.904h3.609l0.02,1.551H58.393l0.037-1.551h3.571l0.009-2.904h0.272h0.657h3.826
			h0.687H67.697 M68.137,30.101h-0.439h-0.245h-0.687H62.94h-0.657H62.01h-0.435l-0.003,0.436l-0.006,2.467h-3.139H58l-0.01,0.427
			l-0.037,1.551l-0.012,0.447h0.449h12.924h0.444l-0.006-0.442l-0.019-1.551l-0.003-0.432h-0.434h-3.173l0.01-2.464L68.137,30.101
			L68.137,30.101z"/>
	</g>
	<g>
		<polygon fill="#F5F5F5" points="69.766,47.06 59.943,47.06 58.907,35.422 70.801,35.422 		"/>
		<path fill="#F5F5F5" d="M70.801,35.422L69.766,47.06h-9.82l-1.038-11.637H70.801 M71.277,34.985H70.8H58.907H58.43l0.043,0.476
			l1.035,11.636l0.036,0.398h0.399h9.82h0.4l0.035-0.398l1.035-11.636L71.277,34.985L71.277,34.985z"/>
	</g>
</g>
<g>
	<g>
		<g>
			<path fill="#F5F5F5" d="M13.146,34.295c-5.192,0-9.402,5.504-9.402,5.504s4.209,5.5,9.402,5.5s9.401-5.5,9.401-5.5
				S18.338,34.295,13.146,34.295z M13.109,45.299c-3.039,0-5.502-2.465-5.502-5.5c0-3.04,2.463-5.505,5.502-5.505
				c3.038,0,5.501,2.465,5.501,5.505C18.611,42.834,16.147,45.299,13.109,45.299z"/>
			<path fill="#F5F5F5" d="M13.146,45.519h-0.037c-0.086,0-0.171-0.002-0.257-0.006c-5.104-0.195-9.114-5.36-9.282-5.58
				l-0.102-0.133l0.102-0.133c0.168-0.219,4.177-5.387,9.282-5.584c0.085-0.003,0.171-0.006,0.257-0.006v0.001
				c0.005-0.001,0.013-0.003,0.018-0.001l0,0c5.259,0.002,9.419,5.362,9.594,5.59l0.101,0.133l-0.101,0.133
				C22.546,40.161,18.385,45.519,13.146,45.519z M12.87,45.076c0.085,0.004,0.17,0.005,0.256,0.005
				c2.904-0.009,5.266-2.378,5.266-5.281c0-2.906-2.362-5.278-5.266-5.287c-0.085,0-0.17,0.001-0.255,0.005H12.87
				c-2.829,0.125-5.045,2.446-5.045,5.281C7.826,42.634,10.042,44.951,12.87,45.076z M16.708,35.354
				c1.293,1.051,2.122,2.655,2.122,4.445c0,1.789-0.828,3.391-2.122,4.44c2.9-1.332,5.066-3.837,5.561-4.441
				C21.773,39.195,19.606,36.688,16.708,35.354z M4.024,39.799c0.483,0.59,2.562,2.994,5.359,4.346
				c-1.224-1.049-1.995-2.608-1.995-4.345c0-1.74,0.771-3.3,1.997-4.351C6.587,36.804,4.507,39.209,4.024,39.799z"/>
		</g>
		<g>
			<circle fill="#F5F5F5" cx="13.091" cy="39.779" r="2.125"/>
			<path fill="#F5F5F5" d="M13.091,42.125c-1.292,0-2.345-1.052-2.345-2.345c0-1.294,1.052-2.347,2.345-2.347
				c1.292,0,2.343,1.053,2.343,2.347C15.435,41.072,14.383,42.125,13.091,42.125z M13.091,37.871c-1.052,0-1.907,0.856-1.907,1.909
				c0,1.052,0.855,1.907,1.907,1.907c1.051,0,1.906-0.855,1.906-1.907C14.998,38.727,14.143,37.871,13.091,37.871z"/>
		</g>
	</g>
</g>
<g>
	<g>
		<path fill="#F5F5F5" d="M44.078,33.728l-2.945-1.98l-8.139,8.137l-1.045,5.966l5.966-1.044l8.136-8.14L44.078,33.728z
			 M34.592,45.388l-2.171-2.241l0.572-3.262l2.986,1.881l1.936,3.041L34.592,45.388z"/>
		<path fill="#F5F5F5" d="M31.949,46.069c-0.058,0-0.113-0.023-0.154-0.064c-0.05-0.051-0.073-0.123-0.06-0.193l0.469-2.683
			c0-0.007,0.001-0.014,0.002-0.021l0.572-3.26c0-0.002,0.001-0.005,0.001-0.007l0,0c0,0,0,0,0-0.001
			c0.009-0.043,0.031-0.082,0.062-0.111l8.138-8.137c0.074-0.074,0.188-0.086,0.275-0.027l2.944,1.981
			c0.022,0.016,0.044,0.036,0.06,0.06l1.975,2.938c0.058,0.086,0.045,0.202-0.026,0.276l-8.138,8.139
			c-0.006,0.007-0.014,0.014-0.021,0.021l0,0h-0.001l0,0c0,0,0,0.001-0.001,0.001l0,0c-0.002,0.001-0.002,0.001-0.002,0.001
			c0-0.001,0,0.001,0,0h-0.001c-0.001,0-0.001,0-0.001,0.001l0,0H38.04c0,0,0,0-0.001,0l0,0l0,0c0,0-0.001,0.001-0.002,0.001
			c0.001,0,0.001,0,0,0l0,0h-0.001l0,0c-0.001,0-0.001,0-0.002,0.001l0,0h-0.001l0,0l0,0l0,0c-0.025,0.015-0.052,0.026-0.08,0.03
			l-0.019,0.003l-5.948,1.042C31.974,46.068,31.961,46.069,31.949,46.069z M32.564,43.606l-0.347,1.975l1.933-0.338L32.564,43.606z
			 M32.657,43.076l2.012,2.076l2.886-0.504l-1.733-2.722l-2.669-1.681L32.657,43.076z M33.342,39.846l2.754,1.734
			c0.028,0.018,0.05,0.042,0.068,0.068l1.789,2.81l7.814-7.82l-1.847-2.753l-2.76-1.856L33.342,39.846z"/>
	</g>
	<g>
		<path fill="#F5F5F5" d="M34.592,45.605c-0.058,0-0.114-0.024-0.156-0.067l-2.171-2.241c-0.049-0.05-0.07-0.121-0.059-0.19
			l0.573-3.261c0.012-0.071,0.06-0.133,0.126-0.162c0.068-0.03,0.144-0.023,0.205,0.014l2.987,1.881
			c0.028,0.018,0.05,0.042,0.068,0.068l1.934,3.041c0.039,0.062,0.045,0.138,0.016,0.205c-0.028,0.067-0.09,0.115-0.161,0.126
			l-3.323,0.581C34.618,45.604,34.605,45.605,34.592,45.605z M32.656,43.075l2.013,2.077l2.886-0.504l-1.733-2.722l-2.669-1.681
			L32.656,43.075z"/>
	</g>
</g>
<g>
	<g>
		
			<linearGradient id="SVGID_17_" gradientUnits="userSpaceOnUse" x1="-181.1567" y1="-1147.5796" x2="-176.7451" y2="-1135.4591" gradientTransform="matrix(0.7071 0.7071 -0.7071 0.7071 -589.7775 972.9554)">
			<stop  offset="0" style="stop-color:#FFFFFF"/>
			<stop  offset="1" style="stop-color:#E8E7E7"/>
		</linearGradient>
		<polygon fill="url(#SVGID_17_)" points="97.132,41.046 97.132,37.451 92.652,37.451 92.652,32.972 89.057,32.972 89.057,37.451 
			84.577,37.451 84.577,41.046 89.057,41.046 89.057,45.527 92.652,45.527 92.652,41.046 		"/>
		<path fill="#F5F5F5" d="M92.863,45.741h-4.019V41.26h-4.481v-4.021h4.481v-4.479h4.019v4.479h4.479v4.021h-4.479V45.741z
			 M89.27,45.315h3.169v-4.482h4.479v-3.17h-4.479v-4.48H89.27v4.479h-4.481v3.17h4.481V45.315z"/>
	</g>
</g>
<g>
	<g>
		<polygon fill="#B1B1B1" points="97.132,67.193 97.132,63.598 92.652,63.598 92.652,59.117 89.057,59.117 89.057,63.598 
			84.577,63.598 84.577,67.193 89.057,67.193 89.057,71.674 92.652,71.674 92.652,67.193 		"/>
		<path fill="#878787" d="M92.863,71.887h-4.019v-4.479h-4.481v-4.021h4.481v-4.479h4.019v4.479h4.479v4.021h-4.479V71.887z
			 M89.27,71.462h3.169V66.98h4.479v-3.17h-4.479v-4.48H89.27v4.479h-4.481v3.172h4.481V71.462z"/>
	</g>
</g>
<g>
	
		<linearGradient id="SVGID_18_" gradientUnits="userSpaceOnUse" x1="266.4512" y1="476.0488" x2="261.8424" y2="490.5708" gradientTransform="matrix(1 0 0 1 -147.3599 -467.9453)">
		<stop  offset="0" style="stop-color:#FFFFFF"/>
		<stop  offset="1" style="stop-color:#E8E8E8"/>
	</linearGradient>
	<polygon fill="url(#SVGID_18_)" points="122.553,4.207 120.221,19.443 116.502,19.443 113.107,12.061 115.809,9.681 117.93,15.115 
		117.979,15.42 118.029,15.242 119.854,7.301 	"/>
	<path fill="#F5F5F5" d="M120.393,19.644h-4.019l-3.511-7.635l3.025-2.667l2.072,5.308l1.741-7.479l3.151-3.613L120.393,19.644z
		 M116.63,19.243h3.419l2.202-14.386l-2.214,2.537l-1.865,8.081l-0.39-0.022l-0.052-0.305l-2.006-5.128l-2.373,2.093L116.63,19.243z
		"/>
</g>
<g>
	<g>
		
			<linearGradient id="SVGID_19_" gradientUnits="userSpaceOnUse" x1="284.2383" y1="480.1621" x2="297.9277" y2="480.1621" gradientTransform="matrix(1 0 0 1 -147.3599 -467.9453)">
			<stop  offset="0" style="stop-color:#FFFFFF"/>
			<stop  offset="1" style="stop-color:#E8E8E8"/>
		</linearGradient>
		<path fill="url(#SVGID_19_)" d="M148.241,6.291h-9.037l-2.326,5.675l1.17,6.177h11.351l1.17-6.177L148.241,6.291z M139.577,6.848
			h8.291l2.11,5.147h-12.514L139.577,6.848z"/>
	</g>
	<g>
		
			<linearGradient id="SVGID_20_" gradientUnits="userSpaceOnUse" x1="286.998" y1="476.334" x2="294.9316" y2="476.334" gradientTransform="matrix(1 0 0 1 -147.3599 -467.9453)">
			<stop  offset="0" style="stop-color:#FFFFFF"/>
			<stop  offset="1" style="stop-color:#E8E8E8"/>
		</linearGradient>
		<polygon fill="url(#SVGID_20_)" points="147.572,7.858 147.352,8.919 143.605,8.919 139.859,8.919 139.639,7.858 		"/>
	</g>
	<g>
		
			<linearGradient id="SVGID_21_" gradientUnits="userSpaceOnUse" x1="286.5527" y1="478.2119" x2="295.377" y2="478.2119" gradientTransform="matrix(1 0 0 1 -147.3599 -467.9453)">
			<stop  offset="0" style="stop-color:#FFFFFF"/>
			<stop  offset="1" style="stop-color:#E8E8E8"/>
		</linearGradient>
		<polygon fill="url(#SVGID_21_)" points="148.018,9.736 147.795,10.797 143.605,10.797 139.416,10.797 139.193,9.736 		"/>
	</g>
</g>
<g>
	<polygon fill="#B1B1B1" points="122.553,56.54 120.221,71.775 116.502,71.775 113.107,64.395 115.809,62.014 117.93,67.448 
		117.979,67.753 118.029,67.575 119.854,59.634 	"/>
	<path fill="#878787" d="M120.393,71.977h-4.019l-3.511-7.635l3.025-2.668l2.072,5.309l1.741-7.479l3.151-3.611L120.393,71.977z
		 M116.63,71.576h3.419l2.202-14.387l-2.214,2.537l-1.865,8.082l-0.39-0.023l-0.052-0.305l-2.006-5.129l-2.373,2.094L116.63,71.576z
		"/>
</g>
<g>
	<g>
		<path fill="#B1B1B1" d="M148.241,58.624h-9.037l-2.326,5.675l1.17,6.178h11.351l1.17-6.178L148.241,58.624z M139.577,59.182h8.291
			l2.11,5.146h-12.514L139.577,59.182z"/>
	</g>
	<g>
		<polygon fill="#B1B1B1" points="147.572,60.191 147.352,61.252 143.605,61.252 139.859,61.252 139.639,60.191 		"/>
	</g>
	<g>
		<polygon fill="#B1B1B1" points="148.018,62.068 147.795,63.13 143.605,63.13 139.416,63.13 139.193,62.068 		"/>
	</g>
</g>
<g>
	
		<linearGradient id="SVGID_22_" gradientUnits="userSpaceOnUse" x1="309.3652" y1="480.6387" x2="323.0625" y2="480.6387" gradientTransform="matrix(1 0 0 1 -147.3599 -467.9453)">
		<stop  offset="0" style="stop-color:#FFFFFF"/>
		<stop  offset="1" style="stop-color:#E8E8E8"/>
	</linearGradient>
	<path fill="url(#SVGID_22_)" d="M168.854,19.543c-3.775,0-6.849-3.07-6.849-6.845c0-3.778,3.071-6.854,6.849-6.854
		c3.776,0,6.85,3.074,6.85,6.854C175.702,16.472,172.631,19.543,168.854,19.543z M168.854,7.41c-2.912,0-5.283,2.372-5.283,5.287
		c0,2.912,2.371,5.281,5.283,5.281c2.914,0,5.283-2.369,5.283-5.281C174.139,9.782,171.768,7.41,168.854,7.41z"/>
</g>
<g>
	<path fill="#B1B1B1" d="M168.854,70.877c-3.775,0-6.849-3.07-6.849-6.846c0-3.777,3.071-6.852,6.849-6.852
		c3.776,0,6.85,3.072,6.85,6.852C175.702,67.807,172.631,70.877,168.854,70.877z M168.854,58.744c-2.912,0-5.283,2.372-5.283,5.287
		c0,2.912,2.371,5.281,5.283,5.281c2.914,0,5.283-2.369,5.283-5.281C174.139,61.116,171.768,58.744,168.854,58.744z"/>
</g>
<linearGradient id="SVGID_23_" gradientUnits="userSpaceOnUse" x1="363.2734" y1="-230.7974" x2="395.8359" y2="-230.7974" gradientTransform="matrix(1 0 0 -1 -147.5 -166)">
	<stop  offset="0.4232" style="stop-color:#F3F3F3"/>
	<stop  offset="0.5426" style="stop-color:#CECECD"/>
	<stop  offset="0.662" style="stop-color:#B0B0AF"/>
	<stop  offset="0.7792" style="stop-color:#9B9B9A"/>
	<stop  offset="0.8932" style="stop-color:#8E8E8D"/>
	<stop  offset="1" style="stop-color:#8A8A89"/>
</linearGradient>
<path fill="url(#SVGID_23_)" stroke="#5C5C5B" stroke-width="0.5" stroke-linejoin="bevel" d="M215.773,55.823
	c0,0,7.778,1.122,32.562,1.122c0,0,0,13.971,0,15.703c-22.663,0-32.562,1.123-32.562,1.123V55.823z"/>
<polygon fill="#A2A2A2" stroke="#5C5C5B" stroke-width="0.5" stroke-linejoin="bevel" points="215.773,55.823 212.188,57.943 
	212.188,71.65 215.773,73.771 "/>
<g>
	<g>
		<path fill="#A71174" d="M243.032,70.402l-1.065-2.965h-3.555l-1.044,2.965h-2.647l4.275-11.473h2.419l4.274,11.473H243.032z
			 M241.243,65.184l-0.83-2.408c-0.052-0.137-0.117-0.332-0.198-0.588c-0.072,0.23-0.152,0.47-0.238,0.713l-0.791,2.283H241.243z"/>
		<path fill="#DA96C2" d="M241.154,59.307l3.996,10.721h-1.854l-1.065-2.965h-4.084l-1.043,2.965h-1.842l3.995-10.721H241.154
			 M238.659,65.559h3.108l-1-2.904c-0.072-0.196-0.175-0.502-0.302-0.922c-0.131-0.42-0.219-0.726-0.269-0.92
			c-0.131,0.599-0.324,1.254-0.575,1.963L238.659,65.559 M241.675,58.557h-0.521h-1.897h-0.521l-0.184,0.487l-3.996,10.722
			l-0.377,1.012h1.08h1.842h0.531l0.176-0.5l0.868-2.465h3.025l0.887,2.47l0.179,0.495h0.527h1.854h1.08l-0.377-1.012l-3.996-10.722
			L241.675,58.557L241.675,58.557z M239.713,64.809l0.503-1.453l0.501,1.453H239.713L239.713,64.809z"/>
	</g>
</g>
<g>
	<path fill="#A2A2A2" d="M222.05,70.307l-1.909-9.769h-0.031c0.035,0.774,0.054,1.694,0.054,2.758v7.011h-0.604v-11.02h0.987
		l1.78,9.09h0.031l1.797-9.09h0.979v11.02h-0.654v-7.101c0-0.812,0.018-1.698,0.054-2.651h-0.03l-1.926,9.752H222.05z"/>
</g>
<linearGradient id="SVGID_24_" gradientUnits="userSpaceOnUse" x1="379.877" y1="-179.0068" x2="412.4424" y2="-179.0068" gradientTransform="matrix(-1 0 0 -1 624.6445 -166)">
	<stop  offset="0.4232" style="stop-color:#F3F3F3"/>
	<stop  offset="0.4738" style="stop-color:#E6E6E6"/>
	<stop  offset="0.6106" style="stop-color:#C8C8C8"/>
	<stop  offset="0.7457" style="stop-color:#B3B3B3"/>
	<stop  offset="0.8769" style="stop-color:#A6A6A6"/>
	<stop  offset="1" style="stop-color:#A2A2A2"/>
</linearGradient>
<path fill="url(#SVGID_24_)" stroke="#5C5C5B" stroke-width="0.5" stroke-linejoin="bevel" d="M244.768,4.033
	c0,0-7.781,1.124-32.565,1.124c0,0,0,13.97,0,15.703c22.665,0,32.565,1.121,32.565,1.121V4.033z"/>
<polygon fill="#A2A2A2" stroke="#5C5C5B" stroke-width="0.5" stroke-linejoin="bevel" points="244.768,4.033 248.352,6.154 
	248.352,19.861 244.768,21.98 "/>
<g>
	<g>
		<path fill="#A71174" d="M224.773,18.831v-5.655c0-0.38,0.008-0.843,0.021-1.389l-2.536,7.044h-2.071l-2.408-6.935
			c0.014,0.47,0.02,0.927,0.02,1.366v5.568h-2.336V7.404h3.104l2.727,7.807l2.807-7.807h3.105v11.427H224.773z"/>
		<path fill="#DA96C2" d="M226.828,7.779v10.677h-1.68v-5.28c0-0.53,0.014-1.221,0.041-2.073c0.026-0.854,0.049-1.369,0.066-1.549
			H225.2l-3.205,8.902h-1.542l-3.096-8.917h-0.06c0.082,1.325,0.124,2.564,0.124,3.723v5.193h-1.586V7.779h2.462l2.966,8.494h0.043
			l3.055-8.494H226.828 M227.578,7.029h-0.75h-2.467h-0.527l-0.18,0.496l-2.358,6.563l-2.289-6.556l-0.176-0.503h-0.532h-2.462
			h-0.75v0.75v10.677v0.75h0.75h1.586h0.75v-0.75v-4.283l1.571,4.529l0.176,0.504h0.533h1.542h0.526l0.18-0.496l1.697-4.718v4.464
			v0.75h0.75h1.68h0.75v-0.75V7.779V7.029L227.578,7.029z"/>
	</g>
</g>
<g>
	<path fill="#A2A2A2" d="M240.256,18.478l-0.918-3.397h-2.951l-0.91,3.397h-0.865l2.914-10.723h0.724l2.897,10.723H240.256z
		 M239.072,13.963l-0.856-3.308c-0.11-0.417-0.228-0.932-0.344-1.542c-0.074,0.468-0.179,0.982-0.317,1.542l-0.867,3.308H239.072z"
		/>
</g>
<g>
	
		<linearGradient id="SVGID_25_" gradientUnits="userSpaceOnUse" x1="339.5352" y1="-171.002" x2="345.1651" y2="-186.4702" gradientTransform="matrix(1 0 0 -1 -147.5 -166)">
		<stop  offset="0" style="stop-color:#FFFFFF"/>
		<stop  offset="1" style="stop-color:#E8E8E8"/>
	</linearGradient>
	<polygon fill="url(#SVGID_25_)" points="194.852,16.515 191.199,20.166 187.422,16.389 191.073,12.737 187.422,9.086 
		191.195,5.307 194.852,8.96 198.502,5.307 202.279,9.084 198.628,12.737 202.279,16.389 198.502,20.166 	"/>
	
		<linearGradient id="SVGID_26_" gradientUnits="userSpaceOnUse" x1="335.7695" y1="-178.7354" x2="348.9336" y2="-178.7354" gradientTransform="matrix(1 0 0 -1 -147.5 -166)">
		<stop  offset="0" style="stop-color:#FFFFFF"/>
		<stop  offset="1" style="stop-color:#E8E8E8"/>
	</linearGradient>
	<path fill="url(#SVGID_26_)" d="M198.502,6.153l2.932,2.931l-3.651,3.653l3.651,3.652l-2.932,2.93l-3.65-3.651l-3.651,3.651
		l-2.931-2.93l3.65-3.652l-3.65-3.652l2.926-2.933l3.656,3.653L198.502,6.153"/>
</g>
<g>
	<polygon fill="#878787" points="194.852,68.682 191.199,72.332 187.422,68.557 191.073,64.904 187.422,61.253 191.195,57.475 
		194.852,61.127 198.502,57.475 202.279,61.251 198.628,64.904 202.279,68.557 198.502,72.332 	"/>
	<path fill="#B1B1B1" d="M198.502,58.32l2.932,2.931l-3.651,3.653l3.651,3.652l-2.932,2.93l-3.65-3.651l-3.651,3.651l-2.931-2.93
		l3.65-3.652l-3.65-3.652l2.926-2.932l3.656,3.652L198.502,58.32"/>
</g>
<line fill="none" stroke="#FF0000" stroke-miterlimit="10" x1="0.218" y1="26.258" x2="25.98" y2="52.021"/>
<line fill="none" stroke="#FF0000" stroke-miterlimit="10" x1="25.884" y1="26.258" x2="51.646" y2="52.021"/>
<line fill="none" stroke="#FF0000" stroke-miterlimit="10" x1="51.551" y1="26.258" x2="77.313" y2="52.021"/>
<line fill="none" stroke="#FF0000" stroke-miterlimit="10" x1="77.217" y1="26.258" x2="102.979" y2="52.021"/>
</svg>
