<svg id="Ebene_1" data-name="Ebene 1" xmlns="http://www.w3.org/2000/svg" viewBox="0 0 60 60"><defs><style>.cls-1{fill:none;}.cls-2{fill:#fff;}</style></defs><title>viur-icons-2018</title><path class="cls-1" d="M29.17,29.65l.32-.12c-.06-.08-.11-.17-.16-.25C29.28,29.4,29.23,29.53,29.17,29.65Z"/><path class="cls-2" d="M16.54,35.14c-3.29,1.08-6.07,3-6.07,5.62v7.55a32.18,32.18,0,0,0,11.88,2.08c7.14,0,10.54-1.43,11.87-2.08V40.76c0-2.58-2.77-4.54-6.07-5.62a9.17,9.17,0,0,1-11.61,0Z"/><circle class="cls-2" cx="22.35" cy="27.99" r="6.59"/><path class="cls-2" d="M37.93,22.16H32.22V10.06h18v12.1h-5.8l-6.52,4.35Z"/></svg>