<svg xmlns="http://www.w3.org/2000/svg" viewBox="6 13 48 34"><path d="M30.87,26.7l.35-.13-.17-.29C31,26.42,30.94,26.56,30.87,26.7Z" fill="currentcolor"/><path d="M24.31,32.12a10.23,10.23,0,0,1-2.73.38,10.35,10.35,0,0,1-7.36-3.09c-4,1.4-7.46,3.94-7.46,7.61v6.41s2,2.71,16.83,2.93V35.27A7.15,7.15,0,0,1,24.31,32.12Z" fill="currentcolor"/><circle cx="21.58" cy="22.14" r="7.41" fill="currentcolor"/><path d="M33.36,28.94c-3.7,1.22-6.83,3.42-6.83,6.33V46.09H39.89c7.67,0,11.86-1.61,13.35-2.34V35.27c0-2.91-3.12-5.11-6.83-6.33a10.3,10.3,0,0,1-13,0Z" fill="currentcolor"/><circle cx="39.89" cy="20.91" r="7.41" fill="currentcolor"/></svg>