<svg xmlns="http://www.w3.org/2000/svg" viewBox="10 10 41 41"><path d="M29.17,29.65l.32-.12c-.06-.08-.11-.17-.16-.25C29.28,29.4,29.23,29.53,29.17,29.65Z" fill="currentcolor"/><path d="M16.54,35.14c-3.29,1.08-6.07,3-6.07,5.62v7.55a32.18,32.18,0,0,0,11.88,2.08c7.14,0,10.54-1.43,11.87-2.08V40.76c0-2.58-2.77-4.54-6.07-5.62a9.17,9.17,0,0,1-11.61,0Z" fill="currentcolor"/><circle cx="22.35" cy="27.99" r="6.59" fill="currentcolor"/><path d="M37.93,22.16H32.22V10.06h18v12.1h-5.8l-6.52,4.35Z" fill="currentcolor"/></svg>