<svg id="Ebene_1" data-name="Ebene 1" xmlns="http://www.w3.org/2000/svg" viewBox="0 0 60 60"><defs><style>.cls-1,.cls-3{fill:#fff;}.cls-1{opacity:0.5;}.cls-2{fill:none;}</style></defs><title>viur-icons-2018</title><polygon class="cls-1" points="42.49 15.1 42.49 11.85 38.49 11.85 38.49 15.1 21.51 15.1 21.51 11.85 17.51 11.85 17.51 15.1 10.93 15.1 10.93 18.74 49.07 18.74 49.07 15.1 42.49 15.1"/><path class="cls-2" d="M25.61,27.91l.15-.06s-.05-.08-.07-.13S25.64,27.85,25.61,27.91Z"/><path class="cls-3" d="M19.44,31.59c-1.61.53-3,1.48-3,2.75V37a16.84,16.84,0,0,0,5.8,1,13.66,13.66,0,0,0,5.81-1V34.34c0-1.27-1.36-2.22-3-2.75a4.48,4.48,0,0,1-5.67,0Z"/><circle class="cls-3" cx="22.27" cy="27.1" r="3.22"/><path class="cls-3" d="M10.93,18.65V44H49.07V18.65Zm22.44,9h7.37v3.58H33.37ZM30,40.59H14.16v-19H30Zm14.81-3.88H33.27V33.12H44.81Zm1.28-11H33.37V22.09H46.09Z"/></svg>