<?xml version="1.0" encoding="utf-8"?>
<!-- Generator: Adobe Illustrator 16.0.4, SVG Export Plug-In . SVG Version: 6.00 Build 0)  -->
<!DOCTYPE svg PUBLIC "-//W3C//DTD SVG 1.1//EN" "http://www.w3.org/Graphics/SVG/1.1/DTD/svg11.dtd">
<svg version="1.1" id="Ebene_1" xmlns="http://www.w3.org/2000/svg" xmlns:xlink="http://www.w3.org/1999/xlink" x="0px" y="0px"
	 width="72px" height="24px" viewBox="0 0 72 24" enable-background="new 0 0 72 24" xml:space="preserve">
<g>
	
		<linearGradient id="SVGID_1_" gradientUnits="userSpaceOnUse" x1="640" y1="-1493.3745" x2="640" y2="-1477.625" gradientTransform="matrix(1 0 0 -1 -603 -1472.5)">
		<stop  offset="0" style="stop-color:#469B41"/>
		<stop  offset="1" style="stop-color:#288342"/>
	</linearGradient>
	<polygon fill="url(#SVGID_1_)" points="44.875,15.254 44.875,10.746 39.254,10.746 39.254,5.125 34.746,5.125 34.746,10.746 
		29.125,10.746 29.125,15.254 34.746,15.254 34.746,20.875 39.254,20.875 39.254,15.254 	"/>
	<path fill="#22732B" d="M39.379,21h-4.758v-5.621H29v-4.758h5.621V5h4.758v5.621H45v4.758h-5.621V21z M34.871,20.75h4.258v-5.621
		h5.619v-4.258h-5.619V5.25h-4.258v5.621H29.25v4.258h5.621V20.75L34.871,20.75z"/>
</g>
<g>
	<path fill="#888888" d="M67.115,6.891l-2.969-1.997L55.941,13.1l-1.055,6.017l6.016-1.056l8.203-8.207L67.115,6.891z
		 M57.441,17.695l-1.123-1.122l0.318-2.517l2.311,0.938l0.939,2.312L57.441,17.695z"/>
	<path fill="#666666" d="M54.75,19.25l1.088-6.205l0.023-0.025l8.271-8.27l3.074,2.079l2.043,3.038l-8.295,8.296L54.75,19.25z
		 M56.043,13.152l-1.018,5.824l5.822-1.246l7.889-7.893L67.035,6.97L64.16,5.037L56.043,13.152z M57.402,17.812l-1.199-1.199
		l0.342-2.715l2.49,1.011l1.01,2.487L57.402,17.812z M56.438,16.533l1.043,0.816l2.022-0.355l-0.642-1.914l-2.133-0.866
		L56.438,16.533z"/>
</g>
<g>
	<g>
		<g>
			<polygon fill="#3C3C3B" points="15.947,5.115 15.947,6.915 10.054,6.915 10.054,5.115 6.781,5.115 6.781,19.951 19.219,19.951 
				19.219,5.115 			"/>
			<path fill="#1D1D1B" d="M19.268,20H6.732V5.066h3.369v1.8h5.797v-1.8h3.369L19.268,20L19.268,20z M6.83,19.902h12.34V5.164
				h-3.176v1.799h-5.99V5.164H6.83V19.902z"/>
		</g>
		<g>
			
				<linearGradient id="SVGID_2_" gradientUnits="userSpaceOnUse" x1="470.583" y1="-568.5195" x2="476.4174" y2="-584.5494" gradientTransform="matrix(1 0 0 -1 -460.5 -564)">
				<stop  offset="0" style="stop-color:#FFFFFF"/>
				<stop  offset="1" style="stop-color:#ECECEC"/>
			</linearGradient>
			<polygon fill="url(#SVGID_2_)" points="15.762,5.579 15.762,7.266 10.236,7.266 10.236,5.579 7.17,5.579 7.17,19.488 
				18.83,19.488 18.83,5.579 			"/>
			<path fill="#9D9D9C" d="M18.902,19.561H7.099V5.506h3.213v1.687h5.378V5.506h3.213L18.902,19.561L18.902,19.561z M7.242,19.415
				h11.516V5.651h-2.924v1.687h-5.67V5.651H7.242V19.415z"/>
		</g>
		<rect x="8.601" y="8.977" fill="#BD1622" width="0.514" height="0.513"/>
		<rect x="8.601" y="10.786" fill="#BD1622" width="0.514" height="0.513"/>
		<rect x="8.601" y="12.594" fill="#BD1622" width="0.514" height="0.514"/>
		<rect x="8.601" y="14.404" fill="#BD1622" width="0.514" height="0.512"/>
		<rect x="8.601" y="16.212" fill="#BD1622" width="0.514" height="0.515"/>
	</g>
	<g>
		<g>
			
				<linearGradient id="SVGID_3_" gradientUnits="userSpaceOnUse" x1="470.3887" y1="-567.5957" x2="476.6115" y2="-584.6928" gradientTransform="matrix(1 0 0 -1 -460.5 -564)">
				<stop  offset="0" style="stop-color:#9D9D9C"/>
				<stop  offset="1" style="stop-color:#3C3C3B"/>
			</linearGradient>
			<polygon fill="url(#SVGID_3_)" points="15.947,4.727 15.947,6.526 10.054,6.526 10.054,4.727 6.781,4.727 6.781,19.562 
				19.219,19.562 19.219,4.727 			"/>
			<path fill="#6F6F6F" d="M19.268,19.611H6.732V4.678h3.369v1.799h5.797V4.678h3.369L19.268,19.611L19.268,19.611z M6.83,19.516
				h12.34V4.775h-3.176v1.799h-5.99V4.775H6.83V19.516z"/>
		</g>
		<g>
			
				<linearGradient id="SVGID_4_" gradientUnits="userSpaceOnUse" x1="470.9131" y1="-568.9106" x2="476.4582" y2="-584.1458" gradientTransform="matrix(1 0 0 -1 -460.5 -564)">
				<stop  offset="0" style="stop-color:#FFFFFF"/>
				<stop  offset="1" style="stop-color:#F5F5F5"/>
			</linearGradient>
			<path fill="url(#SVGID_4_)" d="M15.762,5.19v1.687h-5.524V5.19H9.642L7.17,7.826c0,0,0,8.453,0,11.02
				c5.574,0,11.66,0.254,11.66,0.254V5.19H15.762z"/>
			<path fill="#9D9D9C" d="M18.902,19.176l-0.074-0.004c-0.06-0.002-6.147-0.252-11.658-0.252H7.099V7.798l2.51-2.681h0.703v1.687
				h5.378V5.117h3.213L18.902,19.176L18.902,19.176z M7.242,18.773c5.16,0.002,10.799,0.222,11.516,0.25V5.263h-2.924V6.95h-5.67
				V5.263H9.672l-2.43,2.592V18.773z"/>
		</g>
		<rect x="8.601" y="8.588" fill="#BD1622" width="0.514" height="0.513"/>
		<rect x="8.601" y="10.397" fill="#BD1622" width="0.514" height="0.513"/>
		<rect x="8.601" y="12.206" fill="#BD1622" width="0.514" height="0.515"/>
		<rect x="8.601" y="14.016" fill="#BD1622" width="0.514" height="0.514"/>
		<rect x="8.601" y="15.824" fill="#BD1622" width="0.514" height="0.513"/>
		<g>
			
				<linearGradient id="SVGID_5_" gradientUnits="userSpaceOnUse" x1="468.5859" y1="-569.7334" x2="469.4249" y2="-572.0386" gradientTransform="matrix(1 0 0 -1 -460.5 -564)">
				<stop  offset="0" style="stop-color:#FFFFFF"/>
				<stop  offset="1" style="stop-color:#EBEBEB"/>
			</linearGradient>
			<polygon fill="url(#SVGID_5_)" points="9.576,5.191 7.15,7.802 9.576,7.802 			"/>
			<path fill="#9D9D9C" d="M9.576,7.875H7.15c-0.029,0-0.055-0.017-0.066-0.043C7.072,7.805,7.078,7.774,7.099,7.753l2.426-2.611
				c0.021-0.022,0.053-0.029,0.08-0.018c0.026,0.011,0.047,0.038,0.047,0.068v2.611C9.65,7.842,9.617,7.875,9.576,7.875z
				 M7.318,7.729h2.186V5.376L7.318,7.729z"/>
		</g>
	</g>
	<g>
		<polygon fill="#6F6F6E" points="17.105,8.723 17.105,9.193 16.412,9.193 16.412,8.899 16.355,8.846 16.355,9.25 17.162,9.25 
			17.162,8.661 		"/>
		<polygon fill="#6F6F6E" points="16.412,8.481 17.068,8.481 17.135,8.425 16.355,8.425 16.355,8.654 16.412,8.618 		"/>
		<polygon fill="#BD1622" points="16.518,8.616 16.326,8.74 16.697,9.092 17.535,8.163 16.711,8.854 		"/>
	</g>
	<g>
		<polygon fill="#6F6F6E" points="17.105,10.533 17.105,11.004 16.412,11.004 16.412,10.71 16.355,10.656 16.355,11.06 
			17.162,11.06 17.162,10.471 		"/>
		<polygon fill="#6F6F6E" points="16.412,10.292 17.068,10.292 17.135,10.235 16.355,10.235 16.355,10.464 16.412,10.428 		"/>
		<polygon fill="#BD1622" points="16.518,10.426 16.326,10.55 16.697,10.903 17.535,9.974 16.711,10.665 		"/>
	</g>
	<g>
		<polygon fill="#6F6F6E" points="17.105,12.295 17.105,12.766 16.412,12.766 16.412,12.472 16.355,12.418 16.355,12.822 
			17.162,12.822 17.162,12.232 		"/>
		<polygon fill="#6F6F6E" points="16.412,12.053 17.068,12.053 17.135,11.998 16.355,11.998 16.355,12.227 16.412,12.189 		"/>
		<polygon fill="#BD1622" points="16.518,12.188 16.326,12.312 16.697,12.665 17.535,11.735 16.711,12.427 		"/>
	</g>
	<g>
		<path fill="#6F6F6E" d="M17.152,14.68h-0.805v-0.798h0.805V14.68z M16.42,14.605h0.66v-0.651h-0.66V14.605z"/>
	</g>
	<g>
		<path fill="#6F6F6E" d="M17.152,16.498h-0.805V15.7h0.805V16.498z M16.42,16.425h0.66v-0.651h-0.66V16.425z"/>
	</g>
	<g>
		<polygon fill="#A42423" points="15.723,6.798 10.301,6.798 10.051,6.239 15.918,6.239 		"/>
		<path fill="#801D18" d="M15.723,6.847h-5.422c-0.02,0-0.036-0.012-0.045-0.029l-0.25-0.56C10,6.244,10,6.227,10.01,6.213
			c0.011-0.014,0.025-0.022,0.041-0.022h5.867c0.016,0,0.029,0.007,0.039,0.021c0.01,0.013,0.012,0.029,0.006,0.044L15.77,6.815
			C15.762,6.834,15.744,6.847,15.723,6.847z M10.332,6.75h5.357l0.16-0.462h-5.726L10.332,6.75z"/>
	</g>
	<g>
		
			<linearGradient id="SVGID_6_" gradientUnits="userSpaceOnUse" x1="470.5508" y1="-569.1436" x2="476.418" y2="-569.1436" gradientTransform="matrix(1 0 0 -1 -460.5 -564)">
			<stop  offset="0" style="stop-color:#E30613"/>
			<stop  offset="1" style="stop-color:#BE1622"/>
		</linearGradient>
		<rect x="10.051" y="4.048" fill="url(#SVGID_6_)" width="5.867" height="2.191"/>
		<path fill="#801D18" d="M15.918,6.288h-5.867c-0.026,0-0.049-0.021-0.049-0.048V4.048C10.002,4.022,10.023,4,10.051,4h5.867
			c0.025,0,0.047,0.022,0.047,0.048v2.191C15.965,6.266,15.943,6.288,15.918,6.288z M10.101,6.191h5.77V4.097h-5.77V6.191z"/>
	</g>
	<g>
		<path fill="#3C3C3B" d="M9.838,10.478c-0.034,0-0.062,0.014-0.08,0.042c-0.02,0.028-0.028,0.067-0.028,0.117
			c0,0.104,0.039,0.155,0.117,0.155c0.022,0,0.047-0.003,0.067-0.01c0.023-0.007,0.045-0.015,0.068-0.024v0.123
			c-0.045,0.02-0.096,0.03-0.152,0.03c-0.08,0-0.143-0.023-0.186-0.07c-0.043-0.047-0.064-0.115-0.064-0.203
			c0-0.056,0.01-0.104,0.031-0.146c0.02-0.042,0.051-0.074,0.09-0.097s0.086-0.034,0.139-0.034c0.058,0,0.113,0.013,0.166,0.038
			l-0.045,0.114c-0.02-0.009-0.039-0.017-0.059-0.023C9.881,10.481,9.859,10.478,9.838,10.478z"/>
		<path fill="#3C3C3B" d="M10.545,10.903H10.4v-0.219h-0.168v0.219h-0.146v-0.536h0.146v0.198H10.4v-0.198h0.145V10.903z"/>
		<path fill="#3C3C3B" d="M10.979,10.903H10.66v-0.536h0.318v0.116h-0.172v0.084h0.159v0.117h-0.159v0.101h0.172L10.979,10.903
			L10.979,10.903z"/>
		<path fill="#3C3C3B" d="M11.312,10.478c-0.035,0-0.062,0.014-0.082,0.042c-0.019,0.028-0.027,0.067-0.027,0.117
			c0,0.104,0.039,0.155,0.117,0.155c0.022,0,0.047-0.003,0.068-0.01c0.022-0.007,0.045-0.015,0.067-0.024v0.123
			c-0.045,0.02-0.096,0.03-0.151,0.03c-0.08,0-0.144-0.023-0.187-0.07c-0.043-0.047-0.063-0.115-0.063-0.203
			c0-0.056,0.01-0.104,0.03-0.146s0.052-0.074,0.09-0.097c0.039-0.023,0.087-0.034,0.14-0.034c0.057,0,0.112,0.013,0.166,0.038
			l-0.045,0.114c-0.021-0.009-0.039-0.017-0.062-0.023C11.355,10.481,11.334,10.478,11.312,10.478z"/>
		<path fill="#3C3C3B" d="M12.019,10.903h-0.162l-0.105-0.205l-0.043,0.026v0.179h-0.146v-0.536h0.146V10.6
			c0.006-0.015,0.021-0.037,0.043-0.069l0.113-0.164h0.158l-0.168,0.24L12.019,10.903z"/>
		<path fill="#3C3C3B" d="M12.508,10.903h-0.145v-0.418h-0.131v-0.118h0.406v0.118h-0.132L12.508,10.903L12.508,10.903z"/>
		<path fill="#3C3C3B" d="M13.174,10.903h-0.145v-0.219h-0.168v0.219h-0.146v-0.536h0.146v0.198h0.168v-0.198h0.145V10.903z"/>
		<path fill="#3C3C3B" d="M13.609,10.903h-0.318v-0.536h0.318v0.116h-0.174v0.084h0.16v0.117h-0.16v0.101h0.174V10.903z"/>
		<path fill="#3C3C3B" d="M14.041,10.903h-0.143v-0.536h0.315v0.116H14.04v0.102h0.16v0.116h-0.16L14.041,10.903L14.041,10.903z"/>
		<path fill="#3C3C3B" d="M14.303,10.903v-0.536h0.146v0.536H14.303z"/>
		<path fill="#3C3C3B" d="M14.709,10.708v0.195h-0.145v-0.536h0.176c0.145,0,0.219,0.053,0.219,0.159
			c0,0.062-0.031,0.11-0.092,0.144l0.156,0.233h-0.164l-0.113-0.195H14.709z M14.709,10.599h0.027c0.051,0,0.076-0.022,0.076-0.067
			c0-0.037-0.025-0.055-0.074-0.055h-0.029V10.599z"/>
		<path fill="#3C3C3B" d="M15.422,10.74c0,0.033-0.008,0.062-0.025,0.088c-0.016,0.026-0.041,0.046-0.071,0.061
			c-0.031,0.014-0.07,0.021-0.111,0.021c-0.037,0-0.065-0.002-0.09-0.007c-0.024-0.005-0.051-0.014-0.076-0.026v-0.129
			c0.027,0.014,0.058,0.025,0.086,0.033c0.029,0.008,0.058,0.012,0.082,0.012c0.021,0,0.037-0.004,0.05-0.011
			c0.008-0.007,0.014-0.017,0.014-0.029c0-0.007-0.002-0.014-0.006-0.019c-0.004-0.006-0.01-0.011-0.021-0.017
			c-0.01-0.006-0.032-0.017-0.069-0.035c-0.035-0.016-0.062-0.031-0.08-0.046c-0.017-0.015-0.029-0.032-0.039-0.051
			c-0.008-0.02-0.013-0.042-0.013-0.069c0-0.049,0.019-0.087,0.056-0.115c0.035-0.027,0.084-0.042,0.146-0.042
			c0.058,0,0.113,0.013,0.17,0.039L15.38,10.51c-0.051-0.022-0.094-0.034-0.131-0.034c-0.019,0-0.031,0.003-0.041,0.01
			c-0.008,0.007-0.013,0.015-0.013,0.024c0,0.011,0.005,0.021,0.017,0.028c0.011,0.008,0.041,0.023,0.088,0.046
			c0.048,0.021,0.078,0.042,0.099,0.067C15.414,10.674,15.422,10.704,15.422,10.74z"/>
		<path fill="#3C3C3B" d="M15.742,10.903h-0.145v-0.418h-0.132v-0.118h0.406v0.118H15.74L15.742,10.903L15.742,10.903z"/>
	</g>
	<g>
		<path fill="#3C3C3B" d="M10.056,12.212v0.323c0,0.068-0.021,0.124-0.062,0.162c-0.039,0.039-0.096,0.059-0.172,0.059
			c-0.072,0-0.129-0.02-0.168-0.057c-0.039-0.037-0.059-0.092-0.059-0.162v-0.325h0.146v0.313c0,0.039,0.006,0.064,0.021,0.082
			c0.016,0.018,0.036,0.025,0.063,0.025c0.029,0,0.051-0.009,0.064-0.023c0.014-0.02,0.02-0.045,0.02-0.084v-0.313H10.056
			L10.056,12.212z"/>
		<path fill="#3C3C3B" d="M10.519,12.585c0,0.033-0.009,0.063-0.025,0.089c-0.017,0.026-0.041,0.045-0.072,0.061
			c-0.032,0.016-0.069,0.021-0.112,0.021c-0.035,0-0.064-0.004-0.091-0.008c-0.022-0.006-0.049-0.016-0.073-0.027v-0.129
			c0.026,0.016,0.057,0.025,0.086,0.033c0.028,0.008,0.057,0.012,0.082,0.012c0.021,0,0.037-0.004,0.047-0.011
			c0.01-0.007,0.016-0.017,0.016-0.028c0-0.008-0.002-0.014-0.006-0.02s-0.01-0.012-0.02-0.018
			c-0.011-0.004-0.033-0.018-0.072-0.033c-0.035-0.018-0.062-0.031-0.078-0.047c-0.018-0.015-0.029-0.031-0.039-0.051
			c-0.008-0.02-0.012-0.042-0.012-0.068c0-0.05,0.018-0.088,0.053-0.115c0.037-0.027,0.086-0.042,0.148-0.042
			c0.057,0,0.112,0.013,0.17,0.038l-0.043,0.112c-0.052-0.022-0.095-0.034-0.131-0.034c-0.021,0-0.033,0.003-0.041,0.01
			c-0.011,0.006-0.015,0.014-0.015,0.024s0.006,0.021,0.019,0.028c0.01,0.008,0.039,0.023,0.088,0.045
			c0.047,0.021,0.078,0.043,0.096,0.067C10.51,12.52,10.519,12.549,10.519,12.585z"/>
		<path fill="#3C3C3B" d="M10.918,12.748h-0.317v-0.536h0.317v0.116h-0.172v0.084h0.16v0.117h-0.16v0.101h0.172V12.748z"/>
		<path fill="#3C3C3B" d="M11.508,12.212h0.162l-0.176,0.536h-0.17l-0.174-0.536h0.162l0.071,0.271
			c0.017,0.06,0.023,0.103,0.025,0.126c0.002-0.02,0.006-0.039,0.01-0.064c0.006-0.025,0.011-0.046,0.015-0.061L11.508,12.212z"/>
		<path fill="#3C3C3B" d="M11.717,12.229c0-0.021,0.007-0.038,0.019-0.048c0.012-0.012,0.031-0.016,0.059-0.016
			c0.028,0,0.045,0.005,0.06,0.016c0.012,0.011,0.018,0.027,0.018,0.048c0,0.042-0.024,0.062-0.076,0.062
			C11.744,12.291,11.717,12.271,11.717,12.229z M11.863,12.748H11.72v-0.416h0.143V12.748z"/>
		<path fill="#3C3C3B" d="M12.429,12.212v0.323c0,0.068-0.021,0.124-0.06,0.162c-0.039,0.039-0.098,0.059-0.172,0.059
			c-0.074,0-0.129-0.02-0.17-0.057c-0.037-0.037-0.057-0.092-0.057-0.162v-0.325h0.145v0.313c0,0.039,0.008,0.064,0.021,0.082
			c0.013,0.018,0.034,0.025,0.062,0.025c0.029,0,0.051-0.009,0.064-0.023c0.014-0.02,0.02-0.045,0.02-0.084v-0.313H12.429
			L12.429,12.212z"/>
		<path fill="#3C3C3B" d="M12.687,12.553v0.195h-0.146v-0.536h0.176c0.146,0,0.22,0.054,0.22,0.158c0,0.062-0.031,0.11-0.093,0.144
			L13,12.748h-0.164l-0.112-0.195H12.687z M12.687,12.443h0.026c0.052,0,0.076-0.021,0.076-0.066c0-0.037-0.024-0.056-0.074-0.056
			h-0.028V12.443z"/>
	</g>
	<g>
		<path fill="#3C3C3B" d="M9.916,14.561H9.599v-0.535h0.317v0.115H9.744v0.084h0.16v0.117h-0.16v0.102h0.172V14.561z"/>
		<path fill="#3C3C3B" d="M10.494,14.561h-0.168l-0.104-0.168l-0.104,0.168H9.954l0.178-0.272l-0.168-0.263h0.162l0.097,0.164
			l0.094-0.164h0.164l-0.17,0.271L10.494,14.561z"/>
		<path fill="#3C3C3B" d="M10.871,14.561h-0.317v-0.535h0.317v0.115h-0.172v0.084h0.16v0.117h-0.16v0.102h0.172V14.561z"/>
		<path fill="#3C3C3B" d="M11.205,14.135c-0.035,0-0.062,0.016-0.08,0.043c-0.02,0.028-0.028,0.067-0.028,0.116
			c0,0.104,0.038,0.155,0.116,0.155c0.023,0,0.047-0.004,0.068-0.01c0.023-0.008,0.045-0.018,0.068-0.023v0.121
			c-0.045,0.021-0.097,0.029-0.152,0.029c-0.08,0-0.143-0.022-0.186-0.069c-0.044-0.047-0.064-0.114-0.064-0.204
			c0-0.055,0.01-0.104,0.031-0.146c0.021-0.041,0.051-0.073,0.09-0.097c0.039-0.022,0.086-0.034,0.139-0.034
			c0.058,0,0.113,0.014,0.166,0.039l-0.045,0.112c-0.02-0.01-0.039-0.019-0.059-0.022C11.248,14.139,11.228,14.135,11.205,14.135z"
			/>
		<path fill="#3C3C3B" d="M11.793,14.365v0.195h-0.145v-0.537h0.176c0.145,0,0.219,0.054,0.219,0.158
			c0,0.062-0.03,0.109-0.092,0.146l0.156,0.233h-0.164l-0.113-0.195H11.793z M11.793,14.256h0.027c0.051,0,0.076-0.021,0.076-0.066
			c0-0.037-0.025-0.057-0.074-0.057h-0.029V14.256z"/>
		<path fill="#3C3C3B" d="M12.476,14.561h-0.318v-0.535h0.318v0.115h-0.175v0.084h0.162v0.117h-0.162v0.102h0.175V14.561
			L12.476,14.561z"/>
		<path fill="#3C3C3B" d="M13.07,14.291c0,0.122-0.039,0.204-0.117,0.246l0.133,0.15h-0.182l-0.094-0.119h-0.002l0,0v-0.002
			c-0.084,0-0.148-0.022-0.193-0.069c-0.043-0.048-0.066-0.116-0.066-0.206c0-0.089,0.021-0.158,0.066-0.205
			c0.045-0.047,0.109-0.07,0.195-0.07c0.084,0,0.149,0.023,0.192,0.07S13.07,14.201,13.07,14.291z M12.701,14.291
			c0,0.104,0.035,0.156,0.107,0.156c0.037,0,0.063-0.014,0.082-0.038c0.018-0.025,0.026-0.063,0.026-0.118
			c0-0.053-0.01-0.093-0.026-0.118c-0.019-0.026-0.045-0.038-0.08-0.038C12.738,14.135,12.701,14.188,12.701,14.291z"/>
		<path fill="#3C3C3B" d="M13.623,14.025v0.32c0,0.069-0.02,0.125-0.059,0.162c-0.041,0.039-0.099,0.059-0.174,0.059
			c-0.072,0-0.129-0.02-0.168-0.057c-0.039-0.035-0.06-0.092-0.06-0.16v-0.326h0.146v0.312c0,0.038,0.008,0.064,0.021,0.083
			c0.017,0.019,0.035,0.024,0.062,0.024c0.03,0,0.053-0.01,0.063-0.023c0.015-0.02,0.021-0.046,0.021-0.084v-0.312L13.623,14.025
			L13.623,14.025z"/>
		<path fill="#3C3C3B" d="M14.053,14.561h-0.316v-0.535h0.316v0.115h-0.172v0.084h0.16v0.117h-0.16v0.102h0.172V14.561z"/>
		<path fill="#3C3C3B" d="M14.498,14.396c0,0.033-0.008,0.062-0.025,0.09c-0.017,0.024-0.041,0.046-0.072,0.061
			c-0.032,0.014-0.069,0.021-0.112,0.021c-0.035,0-0.063-0.004-0.09-0.008c-0.023-0.006-0.05-0.016-0.074-0.025v-0.131
			c0.026,0.015,0.056,0.025,0.086,0.033c0.028,0.008,0.058,0.012,0.082,0.012c0.021,0,0.037-0.004,0.047-0.01
			c0.011-0.008,0.017-0.02,0.017-0.029c0-0.008-0.002-0.014-0.006-0.02c-0.007-0.007-0.013-0.013-0.021-0.018
			c-0.011-0.006-0.033-0.02-0.07-0.035c-0.036-0.016-0.062-0.029-0.079-0.047c-0.019-0.016-0.029-0.031-0.039-0.05
			c-0.009-0.021-0.013-0.043-0.013-0.069c0-0.049,0.019-0.088,0.054-0.113c0.036-0.027,0.086-0.041,0.147-0.041
			c0.057,0,0.112,0.012,0.17,0.037l-0.045,0.11c-0.05-0.021-0.093-0.034-0.129-0.034c-0.021,0-0.033,0.003-0.041,0.012
			c-0.009,0.006-0.015,0.015-0.015,0.022c0,0.011,0.006,0.021,0.019,0.026c0.01,0.01,0.039,0.023,0.088,0.047
			c0.045,0.021,0.078,0.043,0.097,0.066C14.488,14.332,14.498,14.361,14.498,14.396z"/>
		<path fill="#3C3C3B" d="M14.816,14.561H14.67v-0.418h-0.13v-0.117h0.405v0.117h-0.131v0.418H14.816z"/>
	</g>
	<g>
		<path fill="#3C3C3B" d="M9.742,16.341H9.601v-0.536h0.315v0.116H9.742v0.103h0.16v0.115h-0.16V16.341L9.742,16.341z"/>
		<path fill="#3C3C3B" d="M10.322,16.341h-0.318v-0.536h0.318v0.116h-0.174v0.085h0.16v0.115h-0.16v0.102h0.174V16.341z"/>
		<path fill="#3C3C3B" d="M10.734,16.341h-0.318v-0.536h0.318v0.116H10.56v0.085h0.16v0.115h-0.16v0.102h0.174V16.341z"/>
		<path fill="#3C3C3B" d="M10.828,16.341v-0.536h0.146v0.418h0.207v0.118H10.828z"/>
		<path fill="#3C3C3B" d="M11.695,16.341H11.55v-0.418h-0.13v-0.118h0.406v0.118h-0.131V16.341L11.695,16.341z"/>
		<path fill="#3C3C3B" d="M12.363,16.341h-0.146v-0.218h-0.168v0.218h-0.146v-0.536h0.146v0.199h0.168v-0.199h0.146V16.341z"/>
		<path fill="#3C3C3B" d="M12.797,16.341H12.48v-0.536h0.317v0.116h-0.174v0.085h0.162v0.115h-0.162v0.102h0.174V16.341z"/>
		<path fill="#3C3C3B" d="M13.32,16.341l-0.111-0.386h-0.002c0.004,0.064,0.008,0.117,0.008,0.152v0.231h-0.129v-0.534h0.193
			l0.111,0.381h0.002l0.108-0.381h0.194v0.534h-0.133v-0.233c0-0.014,0-0.025,0-0.041s0.002-0.051,0.004-0.109h-0.002l-0.108,0.386
			H13.32z"/>
		<path fill="#3C3C3B" d="M14.141,16.341l-0.024-0.101H13.94l-0.024,0.101h-0.16l0.175-0.538h0.194l0.176,0.538H14.141z
			 M14.084,16.121l-0.023-0.088c-0.004-0.02-0.012-0.045-0.02-0.076c-0.006-0.031-0.012-0.053-0.014-0.066
			c-0.004,0.012-0.008,0.033-0.014,0.062c-0.009,0.027-0.021,0.085-0.043,0.169L14.084,16.121L14.084,16.121z"/>
		<path fill="#3C3C3B" d="M14.572,16.027h0.232v0.287c-0.064,0.021-0.134,0.033-0.207,0.033c-0.084,0-0.148-0.023-0.193-0.072
			c-0.045-0.047-0.066-0.115-0.066-0.205c0-0.086,0.023-0.152,0.072-0.201c0.051-0.049,0.119-0.072,0.209-0.072
			c0.033,0,0.064,0.004,0.096,0.01c0.029,0.006,0.055,0.014,0.078,0.023l-0.047,0.113c-0.037-0.02-0.08-0.027-0.127-0.027
			c-0.043,0-0.074,0.014-0.098,0.041s-0.035,0.066-0.035,0.118c0,0.05,0.012,0.089,0.031,0.114c0.021,0.024,0.051,0.039,0.09,0.039
			c0.021,0,0.041-0.002,0.061-0.006v-0.084h-0.096V16.027L14.572,16.027z"/>
		<path fill="#3C3C3B" d="M14.912,16.341v-0.536h0.146v0.536H14.912z"/>
		<path fill="#3C3C3B" d="M15.412,15.915c-0.033,0-0.061,0.015-0.08,0.042c-0.02,0.029-0.029,0.068-0.029,0.117
			c0,0.104,0.039,0.154,0.119,0.154c0.023,0,0.047-0.002,0.068-0.012c0.021-0.006,0.045-0.014,0.066-0.021v0.123
			c-0.045,0.02-0.097,0.029-0.15,0.029c-0.082,0-0.146-0.023-0.188-0.07s-0.063-0.115-0.063-0.203c0-0.057,0.012-0.104,0.031-0.146
			c0.021-0.042,0.053-0.074,0.09-0.098c0.041-0.021,0.086-0.033,0.139-0.033c0.059,0,0.113,0.014,0.166,0.037l-0.043,0.114
			c-0.021-0.009-0.041-0.017-0.061-0.023C15.456,15.919,15.436,15.915,15.412,15.915z"/>
	</g>
	<g>
		<path fill="#3C3C3B" d="M9.832,9.115L9.724,8.729H9.719c0.007,0.066,0.009,0.117,0.009,0.153v0.233H9.599V8.578h0.192l0.113,0.381
			h0.002l0.109-0.381h0.192v0.537h-0.133V8.88c0-0.013,0-0.026,0-0.041c0.002-0.015,0.004-0.051,0.006-0.109h-0.004L9.971,9.116
			L9.832,9.115L9.832,9.115z"/>
		<path fill="#3C3C3B" d="M10.654,9.115l-0.025-0.1h-0.176l-0.024,0.1h-0.16l0.176-0.539h0.193l0.176,0.539H10.654z M10.599,8.896
			l-0.023-0.088c-0.004-0.02-0.012-0.045-0.018-0.076c-0.009-0.031-0.015-0.053-0.017-0.066c-0.004,0.012-0.008,0.033-0.014,0.062
			c-0.006,0.029-0.021,0.085-0.043,0.169L10.599,8.896L10.599,8.896z"/>
		<path fill="#3C3C3B" d="M11.33,9.115h-0.164L11.062,8.91l-0.043,0.025v0.179h-0.146V8.577h0.146V8.81
			c0.006-0.015,0.021-0.037,0.043-0.069l0.112-0.165h0.158l-0.17,0.241L11.33,9.115z"/>
		<path fill="#3C3C3B" d="M11.705,9.115h-0.317V8.578h0.317v0.117h-0.172v0.084h0.16v0.116h-0.16v0.102h0.172V9.115z"/>
		<path fill="#3C3C3B" d="M12.324,9.115l-0.025-0.1h-0.176l-0.024,0.1h-0.16l0.176-0.539h0.191l0.178,0.539H12.324z M12.269,8.896
			l-0.023-0.088c-0.006-0.02-0.012-0.045-0.02-0.076c-0.009-0.031-0.013-0.053-0.015-0.066c-0.004,0.012-0.008,0.033-0.014,0.062
			c-0.008,0.029-0.021,0.085-0.043,0.169L12.269,8.896L12.269,8.896z"/>
		<path fill="#3C3C3B" d="M12.736,9.115V8.578h0.145v0.419h0.207v0.117L12.736,9.115L12.736,9.115z"/>
		<path fill="#3C3C3B" d="M13.174,9.115V8.578h0.146v0.537H13.174z"/>
		<path fill="#3C3C3B" d="M13.787,8.952c0,0.033-0.01,0.063-0.025,0.089c-0.018,0.025-0.041,0.045-0.074,0.06
			c-0.03,0.014-0.067,0.021-0.11,0.021c-0.035,0-0.066-0.002-0.09-0.008c-0.025-0.005-0.051-0.014-0.076-0.026V8.959
			c0.027,0.015,0.057,0.026,0.086,0.033C13.526,9,13.558,9.004,13.58,9.004c0.021,0,0.037-0.004,0.049-0.011
			c0.011-0.007,0.015-0.017,0.015-0.029c0-0.007-0.002-0.014-0.007-0.019c-0.004-0.006-0.01-0.011-0.02-0.017
			c-0.009-0.006-0.031-0.018-0.07-0.035c-0.035-0.015-0.062-0.031-0.078-0.046c-0.018-0.015-0.03-0.032-0.038-0.052
			c-0.011-0.02-0.015-0.042-0.015-0.068c0-0.049,0.019-0.088,0.056-0.116c0.034-0.027,0.086-0.042,0.147-0.042
			c0.055,0,0.11,0.013,0.17,0.039L13.743,8.72c-0.052-0.022-0.095-0.034-0.13-0.034c-0.02,0-0.032,0.003-0.043,0.01
			c-0.008,0.006-0.012,0.015-0.012,0.024c0,0.011,0.006,0.02,0.017,0.028c0.012,0.008,0.041,0.024,0.088,0.046
			c0.047,0.021,0.08,0.043,0.098,0.067C13.777,8.886,13.787,8.916,13.787,8.952z"/>
		<path fill="#3C3C3B" d="M14.105,9.115H13.96V8.697h-0.13V8.578h0.406v0.119h-0.131V9.115z"/>
	</g>
</g>
</svg>
