<?xml version="1.0" encoding="utf-8"?>
<!-- Generator: Adobe Illustrator 16.0.4, SVG Export Plug-In . SVG Version: 6.00 Build 0)  -->
<!DOCTYPE svg PUBLIC "-//W3C//DTD SVG 1.1//EN" "http://www.w3.org/Graphics/SVG/1.1/DTD/svg11.dtd">
<svg version="1.1" id="Ebene_1" xmlns="http://www.w3.org/2000/svg" xmlns:xlink="http://www.w3.org/1999/xlink" x="0px" y="0px"
	 width="128px" height="128px" viewBox="0 0 128 128" enable-background="new 0 0 128 128" xml:space="preserve">
<g>
	<g>
		<polygon fill="#6F6F6E" points="135.868,23.5 135.868,26.091 132.057,26.091 132.057,24.472 131.745,24.18 131.745,26.398 
			136.175,26.398 136.175,23.16 		"/>
		<polygon fill="#6F6F6E" points="132.057,22.173 135.661,22.173 136.027,21.864 131.745,21.864 131.745,23.122 132.057,22.924 		
			"/>
		<g>
			
				<linearGradient id="SVGID_1_" gradientUnits="userSpaceOnUse" x1="995.5771" y1="1625.9238" x2="1002.2285" y2="1625.9238" gradientTransform="matrix(1 0 0 1 -864 -1603)">
				<stop  offset="0" style="stop-color:#009EE2"/>
				<stop  offset="1" style="stop-color:#00416E"/>
			</linearGradient>
			<polygon fill="url(#SVGID_1_)" points="132.639,22.861 131.577,23.541 133.622,25.48 138.229,20.366 133.693,24.171 			"/>
			<path fill="#00416E" d="M133.63,25.706l-2.31-2.189l1.351-0.864l1.045,1.294l4.412-3.701l0.22,0.228L133.63,25.706z
				 M131.833,23.566l1.776,1.688l2.982-3.312l-2.927,2.453l-1.063-1.324L131.833,23.566z"/>
		</g>
	</g>
	<g>
		<path fill="#6F6F6E" d="M136.13,20.516h-4.437v-4.385h4.437V20.516z M132.096,20.116h3.635V16.53h-3.635V20.116z"/>
	</g>
	<g>
		<path fill="#6F6F6E" d="M136.13,32.131h-4.437v-4.385h4.437V32.131z M132.096,31.732h3.635v-3.586h-3.635V31.732z"/>
	</g>
	<g>
		<path fill="#3C3C3B" d="M140.471,25.466h-0.563v-2.125h1.256v0.461h-0.688v0.405h0.637v0.461h-0.639L140.471,25.466
			L140.471,25.466z"/>
		<path fill="#3C3C3B" d="M142.445,25.466h-0.573v-1.655h-0.521v-0.47h1.608v0.47h-0.521L142.445,25.466L142.445,25.466z"/>
		<path fill="#3C3C3B" d="M145.562,25.466h-0.68l-0.201-0.926c-0.014-0.038-0.024-0.116-0.049-0.231
			c-0.021-0.115-0.033-0.211-0.045-0.289c-0.008,0.063-0.021,0.142-0.039,0.235c-0.016,0.093-0.031,0.18-0.051,0.258
			c-0.021,0.078-0.088,0.396-0.211,0.953h-0.684l-0.521-2.125h0.555l0.23,1.065c0.053,0.235,0.088,0.423,0.104,0.562
			c0.012-0.099,0.033-0.233,0.064-0.402c0.029-0.17,0.062-0.31,0.09-0.422l0.188-0.804h0.531l0.184,0.804
			c0.029,0.129,0.062,0.277,0.097,0.446c0.03,0.169,0.056,0.295,0.062,0.378c0.017-0.106,0.047-0.294,0.104-0.56l0.235-1.068h0.554
			L145.562,25.466z"/>
	</g>
	<g>
		<path fill="#3C3C3B" d="M142.2,19.571h-0.681l-0.203-0.926c-0.01-0.039-0.022-0.116-0.045-0.231
			c-0.021-0.115-0.037-0.211-0.047-0.289c-0.009,0.063-0.021,0.142-0.037,0.235c-0.019,0.093-0.035,0.179-0.051,0.258
			c-0.021,0.078-0.089,0.396-0.214,0.953h-0.678l-0.524-2.124h0.553l0.229,1.062c0.059,0.235,0.094,0.423,0.105,0.562
			c0.018-0.097,0.037-0.232,0.07-0.401c0.029-0.17,0.062-0.31,0.09-0.422l0.188-0.803h0.533l0.182,0.803
			c0.031,0.13,0.062,0.278,0.097,0.446c0.028,0.169,0.053,0.295,0.062,0.378c0.015-0.107,0.047-0.294,0.104-0.561l0.231-1.066h0.556
			L142.2,19.571z"/>
		<path fill="#3C3C3B" d="M143.936,19.571h-0.574v-1.655h-0.521v-0.469h1.609v0.469h-0.519L143.936,19.571L143.936,19.571z"/>
		<path fill="#3C3C3B" d="M145.32,19.571h-0.563v-2.124h1.257v0.46h-0.688v0.405h0.637v0.461h-0.637L145.32,19.571L145.32,19.571z"
			/>
	</g>
	<g>
		<path fill="#3C3C3B" d="M140.214,31.15v-2.125h0.576v1.66h0.813v0.465H140.214z"/>
		<path fill="#3C3C3B" d="M143.936,30.084c0,0.357-0.088,0.629-0.267,0.814c-0.174,0.188-0.435,0.279-0.771,0.279
			c-0.334,0-0.588-0.094-0.77-0.279c-0.18-0.188-0.27-0.459-0.27-0.816c0-0.354,0.09-0.624,0.268-0.811
			c0.18-0.188,0.438-0.279,0.771-0.279c0.34,0,0.598,0.092,0.771,0.277C143.848,29.454,143.936,29.727,143.936,30.084z
			 M142.475,30.084c0,0.411,0.146,0.615,0.428,0.615c0.146,0,0.257-0.049,0.324-0.148c0.069-0.1,0.104-0.255,0.104-0.467
			s-0.035-0.368-0.104-0.471s-0.181-0.15-0.319-0.15C142.616,29.463,142.475,29.67,142.475,30.084z"/>
		<path fill="#3C3C3B" d="M144.316,31.15v-2.125h0.574v1.66h0.815v0.465H144.316z"/>
	</g>
</g>
<g>
	
		<linearGradient id="SVGID_2_" gradientUnits="userSpaceOnUse" x1="-403.2832" y1="2880.8301" x2="-418.9336" y2="2880.8301" gradientTransform="matrix(0 1 1 0 -2872.8301 419.1084)">
		<stop  offset="0" style="stop-color:#E20613"/>
		<stop  offset="1" style="stop-color:#B41622"/>
	</linearGradient>
	<polygon fill="url(#SVGID_2_)" points="12.341,15.825 15.825,12.342 11.483,8 15.825,3.659 12.341,0.175 8,4.517 3.658,0.175 
		0.175,3.659 4.516,8 0.175,12.342 3.658,15.825 8,11.483 	"/>
	<path fill="#AA000D" d="M12.341,16L8,11.659L3.658,16L0,12.342L4.341,8L0,3.659L3.658,0L8,4.342L12.341,0L16,3.659L11.659,8
		L16,12.342L12.341,16z M8,11.308l4.341,4.341l3.308-3.308L11.308,8l4.341-4.341L12.341,0.35L8,4.692L3.658,0.351L0.351,3.659
		L4.692,8l-4.341,4.342l3.308,3.308L8,11.308z"/>
</g>
<g>
	
		<linearGradient id="SVGID_3_" gradientUnits="userSpaceOnUse" x1="887.999" y1="1618.875" x2="887.999" y2="1603.125" gradientTransform="matrix(1 0 0 1 -864 -1603)">
		<stop  offset="0" style="stop-color:#469B41"/>
		<stop  offset="1" style="stop-color:#288342"/>
	</linearGradient>
	<polygon fill="url(#SVGID_3_)" points="31.875,10.254 31.875,5.746 26.254,5.746 26.254,0.125 21.746,0.125 21.746,5.746 
		16.125,5.746 16.125,10.254 21.746,10.254 21.746,15.875 26.254,15.875 26.254,10.254 	"/>
	<path fill="#22732B" d="M26.379,16h-4.758v-5.621H16V5.621h5.621V0h4.758v5.621H32v4.758h-5.621V16z M21.871,15.75h4.258v-5.621
		h5.62V5.871h-5.62V0.25h-4.258v5.621H16.25v4.257h5.621V15.75L21.871,15.75z"/>
</g>
<g>
	
		<linearGradient id="SVGID_4_" gradientUnits="userSpaceOnUse" x1="866.3926" y1="1627.1367" x2="875.9912" y2="1627.1367" gradientTransform="matrix(1 0 0 1 -864 -1603)">
		<stop  offset="0" style="stop-color:#469B41"/>
		<stop  offset="1" style="stop-color:#288342"/>
	</linearGradient>
	<polygon fill="url(#SVGID_4_)" points="11.991,16.394 9.621,31.879 5.841,31.879 2.392,24.375 5.135,21.957 7.413,27.786 
		9.248,19.538 	"/>
	<path fill="#22732B" d="M9.725,32H5.764l-3.52-7.656l2.941-2.592l2.196,5.62l1.756-7.89L12.173,16L9.725,32z M5.918,31.758h3.599
		l2.291-14.971l-2.449,2.807L7.444,28.2l-2.359-6.038l-2.547,2.245L5.918,31.758z"/>
</g>
<g>
	<g id="Datei">
		<g>
			<path fill="#C6C6C6" d="M110.382,31.471H97.195c0,0,0.465-2.562,0.465-10.941c2.688,0,8.586,0,12.102,0
				C109.762,29.026,110.382,31.471,110.382,31.471z"/>
			<path fill="#9C9B9B" d="M110.382,31.536H97.118l0.014-0.076c0.005-0.025,0.464-2.657,0.464-10.93v-0.064h12.231v0.064
				c0,8.384,0.61,10.901,0.616,10.926l0.021,0.081L110.382,31.536L110.382,31.536z M97.271,31.407H110.3
				c-0.102-0.486-0.601-3.267-0.604-10.813H97.725C97.723,28.071,97.344,30.925,97.271,31.407z"/>
		</g>
		<g>
			<path fill="#C6C6C6" d="M110.227,31.781H97.35c0,0,0.312-2.872,0.312-11.251c2.688,0,8.586,0,12.104,0
				C109.762,29.026,110.227,31.781,110.227,31.781z"/>
			<path fill="#9C9B9B" d="M110.227,31.845H97.277l0.008-0.071c0.004-0.028,0.311-2.966,0.311-11.245v-0.064h12.23v0.064
				c0,8.391,0.46,11.213,0.464,11.241l0.013,0.075H110.227z M97.421,31.716h12.731c-0.071-0.496-0.453-3.509-0.455-11.123H97.725
				C97.723,28.133,97.467,31.225,97.421,31.716z"/>
		</g>
		<g>
			<polygon fill="#C6C6C6" points="110.072,31.936 97.505,31.936 97.814,21.149 109.762,21.149 			"/>
			<path fill="#9C9B9B" d="M110.139,32H97.439l0.312-10.916h12.072L110.139,32z M97.57,31.871h12.436l-0.307-10.657H97.877
				L97.57,31.871z"/>
		</g>
		<g>
			<path fill="#C6C6C6" d="M100.902,18.562l9.635-1.438c0,0-0.62,2.665-0.62,11.045c-2.688,0-8.587,0-12.103,0
				C97.814,19.672,100.902,18.562,100.902,18.562z"/>
			<path fill="#9C9B9B" d="M109.98,28.232H97.75v-0.064c0-8.445,3.002-9.621,3.13-9.667l9.741-1.455l-0.021,0.092
				c-0.006,0.026-0.617,2.759-0.617,11.03v0.064H109.98z M97.879,28.104h11.975c0.002-7.416,0.498-10.368,0.604-10.903l-9.543,1.425
				C100.893,18.633,97.895,19.823,97.879,28.104z"/>
		</g>
		<g>
			
				<linearGradient id="SVGID_5_" gradientUnits="userSpaceOnUse" x1="961.502" y1="1625.4912" x2="974.2266" y2="1625.4912" gradientTransform="matrix(1 0 0 1 -864 -1603)">
				<stop  offset="0" style="stop-color:#FFFFFF"/>
				<stop  offset="1" style="stop-color:#F5F5F6"/>
			</linearGradient>
			<path fill="url(#SVGID_5_)" d="M100.746,19.181l9.48-2.367c0,0-0.312,2.974-0.312,11.354c-2.688,0-8.896,0-12.412,0
				C97.505,19.672,100.746,19.181,100.746,19.181z"/>
			<path fill="#9D9D9C" d="M109.98,28.232H97.439v-0.064c0-8.455,3.162-9.031,3.297-9.051l9.562-2.389l-0.01,0.091
				c-0.003,0.03-0.312,3.069-0.312,11.348v0.065H109.98z M97.568,28.104h12.283c0.002-7.457,0.252-10.646,0.303-11.206l-9.393,2.345
				C100.725,19.249,97.586,19.837,97.568,28.104z"/>
		</g>
		<g>
			<g>
				<polygon fill="#C6C6C6" points="97.48,20.006 101.387,16.064 109.918,16.09 109.762,26.981 97.814,26.981 				"/>
				<path fill="#9C9B9B" d="M109.826,27.045H97.753l-0.339-7.064l0.02-0.021l3.926-3.96h0.027l8.596,0.026v0.065L109.826,27.045z
					 M97.876,26.917h11.823l0.152-10.762l-8.439-0.025l-3.866,3.903L97.876,26.917z"/>
			</g>
			<g>
				<polygon fill="#C6C6C6" points="97.689,19.8 101.366,16.238 109.762,16.246 109.762,26.981 97.814,26.981 				"/>
				<path fill="#9C9B9B" d="M109.826,27.045H97.751l-0.127-7.272l0.021-0.019l3.695-3.58l8.486,0.007V27.045L109.826,27.045z
					 M97.878,26.917h11.819V16.31l-8.305-0.007l-3.644,3.524L97.878,26.917z"/>
			</g>
			<g>
				<polygon fill="#C6C6C6" points="97.814,19.703 101.115,16.4 109.918,16.4 109.762,27.291 97.969,27.291 				"/>
				<path fill="#9C9B9B" d="M109.826,27.355h-11.92l-0.156-7.678l3.338-3.341h8.895v0.065L109.826,27.355z M98.033,27.226h11.666
					l0.152-10.761h-8.711l-3.267,3.265L98.033,27.226z"/>
			</g>
		</g>
		<g>
			<g>
				<polygon fill="#C6C6C6" points="109.941,31.781 97.686,31.781 97.84,22.542 109.788,22.542 				"/>
				<path fill="#9C9B9B" d="M110.009,31.845h-12.39l0.158-9.367h12.074v0.063L110.009,31.845z M97.751,31.716h12.127l-0.153-9.11
					H97.902L97.751,31.716z"/>
			</g>
			<g>
				<polygon fill="#C6C6C6" points="109.941,31.626 97.84,31.626 97.84,22.542 109.788,22.542 				"/>
				<path fill="#9C9B9B" d="M110.009,31.69H97.775v-9.212h12.076v0.063L110.009,31.69z M97.904,31.562h11.974l-0.153-8.955h-11.82
					V31.562L97.904,31.562z"/>
			</g>
			<g>
				<polygon fill="#C6C6C6" points="109.788,31.471 97.686,31.471 97.84,22.233 109.788,22.233 				"/>
				<path fill="#9C9B9B" d="M109.854,31.536H97.619l0.158-9.368h12.074v9.368H109.854z M97.751,31.407h11.974v-9.11H97.902
					L97.751,31.407z"/>
			</g>
		</g>
		<g>
			<g>
				
					<linearGradient id="SVGID_6_" gradientUnits="userSpaceOnUse" x1="965.1211" y1="1619.7461" x2="970.8186" y2="1635.3997" gradientTransform="matrix(1 0 0 1 -864 -1603)">
					<stop  offset="0" style="stop-color:#FFFFFF"/>
					<stop  offset="1" style="stop-color:#F5F5F6"/>
				</linearGradient>
				<polygon fill="url(#SVGID_6_)" points="109.893,16.596 101.531,16.596 97.584,20.545 97.584,31.28 109.893,31.28 				"/>
				<path fill="#9D9D9C" d="M110.021,31.409H97.454V20.491l4.024-4.024h8.543V31.409z M97.712,31.151h12.052V16.725h-8.179
					l-3.873,3.873V31.151z"/>
			</g>
		</g>
		<g enable-background="new    ">
			<path fill="#3C3C3B" d="M99.944,20.074h0.267l-0.289,0.882h-0.281l-0.287-0.882h0.268l0.12,0.447
				c0.025,0.099,0.039,0.168,0.042,0.207c0.002-0.028,0.008-0.063,0.016-0.105c0.009-0.042,0.017-0.075,0.023-0.1L99.944,20.074z"/>
			<path fill="#3C3C3B" d="M100.83,20.956h-0.523v-0.882h0.523v0.191h-0.285v0.139h0.264v0.191h-0.264v0.166h0.285V20.956z"/>
			<path fill="#3C3C3B" d="M101.223,20.635v0.321h-0.238v-0.882h0.289c0.24,0,0.359,0.087,0.359,0.261
				c0,0.102-0.05,0.181-0.149,0.236l0.257,0.385h-0.27l-0.188-0.321H101.223z M101.223,20.456h0.045c0.083,0,0.125-0.037,0.125-0.11
				c0-0.061-0.041-0.092-0.123-0.092h-0.047V20.456z"/>
			<path fill="#3C3C3B" d="M102.396,20.688c0,0.055-0.014,0.103-0.041,0.146c-0.027,0.042-0.068,0.075-0.12,0.099
				s-0.113,0.035-0.185,0.035c-0.059,0-0.107-0.004-0.146-0.012c-0.041-0.009-0.082-0.022-0.125-0.043V20.7
				c0.045,0.023,0.093,0.042,0.143,0.055c0.049,0.013,0.094,0.02,0.135,0.02c0.035,0,0.061-0.006,0.078-0.019
				c0.016-0.012,0.023-0.028,0.023-0.047c0-0.013-0.002-0.022-0.01-0.032c-0.006-0.009-0.017-0.018-0.031-0.027
				c-0.016-0.009-0.055-0.028-0.117-0.057c-0.059-0.026-0.102-0.052-0.13-0.076s-0.05-0.053-0.063-0.084
				c-0.014-0.032-0.021-0.069-0.021-0.113c0-0.081,0.029-0.145,0.089-0.189c0.06-0.046,0.141-0.068,0.243-0.068
				c0.092,0,0.186,0.021,0.279,0.063l-0.072,0.184c-0.082-0.038-0.154-0.057-0.213-0.057c-0.031,0-0.055,0.006-0.068,0.017
				s-0.021,0.024-0.021,0.04c0,0.018,0.01,0.033,0.027,0.047s0.066,0.038,0.146,0.074c0.076,0.034,0.129,0.071,0.159,0.11
				C102.383,20.579,102.396,20.629,102.396,20.688z"/>
			<path fill="#3C3C3B" d="M102.923,20.956h-0.238v-0.688h-0.216v-0.194h0.669v0.194h-0.215V20.956z"/>
			<path fill="#3C3C3B" d="M103.805,20.956l-0.043-0.165h-0.287l-0.045,0.165h-0.262l0.288-0.886h0.318l0.291,0.886H103.805z
				 M103.712,20.596l-0.038-0.146c-0.009-0.032-0.02-0.073-0.032-0.125c-0.013-0.051-0.021-0.087-0.024-0.109
				c-0.004,0.021-0.012,0.055-0.021,0.102c-0.012,0.047-0.035,0.14-0.071,0.278H103.712z"/>
			<path fill="#3C3C3B" d="M105,20.956h-0.312l-0.322-0.621h-0.005c0.008,0.098,0.012,0.172,0.012,0.224v0.397h-0.212v-0.882h0.312
				l0.32,0.612h0.004c-0.006-0.089-0.009-0.16-0.009-0.214v-0.398H105V20.956z"/>
			<path fill="#3C3C3B" d="M105.939,20.496c0,0.147-0.04,0.261-0.121,0.341c-0.081,0.079-0.195,0.119-0.342,0.119h-0.285v-0.882
				h0.305c0.142,0,0.251,0.036,0.328,0.108S105.939,20.359,105.939,20.496z M105.692,20.505c0-0.081-0.017-0.141-0.048-0.18
				c-0.032-0.039-0.08-0.059-0.146-0.059h-0.068v0.494h0.053c0.072,0,0.125-0.021,0.159-0.063S105.692,20.591,105.692,20.505z"/>
			<path fill="#3C3C3B" d="M106.621,20.956h-0.523v-0.882h0.523v0.191h-0.285v0.139h0.264v0.191h-0.264v0.166h0.285V20.956z"/>
			<path fill="#3C3C3B" d="M107.615,20.956h-0.312l-0.322-0.621h-0.005c0.008,0.098,0.012,0.172,0.012,0.224v0.397h-0.212v-0.882
				h0.312l0.32,0.612h0.004c-0.006-0.089-0.009-0.16-0.009-0.214v-0.398h0.212V20.956z"/>
			<path fill="#3C3C3B" d="M108.33,20.956h-0.523v-0.882h0.523v0.191h-0.285v0.139h0.264v0.191h-0.264v0.166h0.285V20.956z"/>
		</g>
		<g enable-background="new    ">
			<path fill="#3C3C3B" d="M99.449,21.933h0.307c0.121,0,0.209,0.018,0.268,0.053c0.059,0.036,0.088,0.092,0.088,0.167
				c0,0.049-0.014,0.092-0.039,0.126c-0.025,0.035-0.059,0.058-0.1,0.068v0.006c0.055,0.015,0.094,0.038,0.119,0.072
				c0.023,0.033,0.037,0.077,0.037,0.132c0,0.08-0.031,0.143-0.091,0.188s-0.142,0.069-0.246,0.069h-0.343V21.933z M99.688,22.271
				h0.071c0.034,0,0.062-0.007,0.079-0.021c0.02-0.015,0.028-0.035,0.028-0.063c0-0.049-0.037-0.074-0.112-0.074h-0.066V22.271z
				 M99.688,22.445v0.186h0.084c0.074,0,0.111-0.032,0.111-0.095c0-0.029-0.01-0.052-0.03-0.067
				c-0.02-0.016-0.048-0.023-0.087-0.023H99.688z"/>
			<path fill="#3C3C3B" d="M101.107,22.372c0,0.148-0.037,0.262-0.109,0.339c-0.073,0.077-0.18,0.115-0.32,0.115
				c-0.139,0-0.244-0.038-0.318-0.116c-0.074-0.077-0.11-0.19-0.11-0.339c0-0.146,0.036-0.259,0.11-0.337
				c0.072-0.077,0.18-0.115,0.319-0.115c0.141,0,0.247,0.038,0.319,0.115C101.07,22.11,101.107,22.224,101.107,22.372z
				 M100.5,22.372c0,0.171,0.059,0.256,0.178,0.256c0.061,0,0.105-0.021,0.135-0.062c0.029-0.041,0.043-0.105,0.043-0.193
				s-0.015-0.153-0.044-0.195c-0.03-0.042-0.073-0.062-0.133-0.062C100.56,22.114,100.5,22.2,100.5,22.372z"/>
			<path fill="#3C3C3B" d="M101.655,22.814h-0.238v-0.688h-0.216v-0.194h0.669v0.194h-0.215V22.814z"/>
			<path fill="#3C3C3B" d="M102.572,22.547c0,0.055-0.014,0.103-0.041,0.146c-0.027,0.042-0.068,0.075-0.12,0.099
				s-0.113,0.035-0.185,0.035c-0.059,0-0.107-0.004-0.146-0.012c-0.041-0.009-0.082-0.022-0.125-0.043v-0.213
				c0.045,0.023,0.093,0.042,0.143,0.055c0.049,0.013,0.094,0.02,0.135,0.02c0.035,0,0.061-0.006,0.078-0.019
				c0.016-0.012,0.023-0.028,0.023-0.047c0-0.013-0.002-0.022-0.01-0.032c-0.006-0.009-0.017-0.018-0.031-0.027
				c-0.016-0.009-0.055-0.028-0.117-0.057c-0.059-0.026-0.102-0.052-0.13-0.076s-0.05-0.053-0.063-0.084
				c-0.014-0.032-0.021-0.069-0.021-0.113c0-0.081,0.029-0.145,0.089-0.189c0.06-0.046,0.141-0.068,0.243-0.068
				c0.092,0,0.186,0.021,0.279,0.063l-0.072,0.184c-0.082-0.038-0.154-0.057-0.213-0.057c-0.031,0-0.055,0.006-0.068,0.017
				s-0.021,0.024-0.021,0.04c0,0.018,0.01,0.033,0.027,0.047s0.066,0.038,0.146,0.074c0.076,0.034,0.129,0.071,0.159,0.11
				C102.559,22.438,102.572,22.487,102.572,22.547z"/>
			<path fill="#3C3C3B" d="M103.102,22.115c-0.057,0-0.101,0.023-0.133,0.069c-0.031,0.047-0.047,0.11-0.047,0.192
				c0,0.17,0.064,0.255,0.193,0.255c0.039,0,0.076-0.006,0.113-0.017s0.073-0.023,0.11-0.039v0.201
				c-0.073,0.033-0.157,0.049-0.249,0.049c-0.134,0-0.236-0.038-0.307-0.115c-0.071-0.077-0.106-0.189-0.106-0.335
				c0-0.092,0.017-0.172,0.052-0.241c0.034-0.068,0.084-0.122,0.148-0.159s0.141-0.056,0.228-0.056c0.095,0,0.187,0.021,0.272,0.062
				l-0.072,0.188c-0.033-0.016-0.065-0.028-0.098-0.039C103.174,22.12,103.139,22.115,103.102,22.115z"/>
			<path fill="#3C3C3B" d="M104.267,22.814h-0.239v-0.359h-0.277v0.359h-0.239v-0.882h0.239v0.327h0.277v-0.327h0.239V22.814z"/>
			<path fill="#3C3C3B" d="M104.999,22.814l-0.044-0.165h-0.286l-0.045,0.165h-0.262l0.288-0.886h0.318l0.291,0.886H104.999z
				 M104.906,22.454l-0.039-0.146c-0.008-0.032-0.02-0.073-0.031-0.125c-0.014-0.051-0.021-0.087-0.025-0.109
				c-0.004,0.021-0.011,0.055-0.021,0.102s-0.034,0.14-0.07,0.278H104.906z"/>
			<path fill="#3C3C3B" d="M105.59,22.814h-0.235v-0.882h0.521v0.191h-0.286v0.168h0.264v0.191h-0.264V22.814z"/>
			<path fill="#3C3C3B" d="M106.41,22.814h-0.238v-0.688h-0.216v-0.194h0.669v0.194h-0.215V22.814z"/>
			<path fill="#3C3C3B" d="M107.274,22.814h-0.524v-0.882h0.524v0.191h-0.286v0.139h0.265v0.191h-0.265v0.166h0.286V22.814z"/>
			<path fill="#3C3C3B" d="M108.269,22.814h-0.312l-0.322-0.621h-0.005c0.008,0.098,0.012,0.172,0.012,0.224v0.397h-0.212v-0.882
				h0.312l0.32,0.612h0.004c-0.006-0.089-0.008-0.16-0.008-0.214v-0.398h0.212V22.814z"/>
		</g>
		<g enable-background="new    ">
			<path fill="#3C3C3B" d="M100.202,24.724h-0.269l-0.175-0.337l-0.07,0.042v0.295h-0.239v-0.882h0.239v0.383
				c0.012-0.023,0.036-0.062,0.073-0.112l0.186-0.271h0.26l-0.277,0.395L100.202,24.724z"/>
			<path fill="#3C3C3B" d="M101.123,24.281c0,0.148-0.037,0.262-0.109,0.339s-0.18,0.115-0.32,0.115
				c-0.138,0-0.244-0.038-0.318-0.116c-0.073-0.077-0.109-0.19-0.109-0.339c0-0.146,0.036-0.259,0.109-0.337
				c0.073-0.077,0.18-0.115,0.32-0.115s0.246,0.038,0.318,0.115C101.086,24.02,101.123,24.133,101.123,24.281z M100.445,23.667
				c0-0.03,0.01-0.054,0.027-0.07c0.02-0.017,0.044-0.024,0.075-0.024c0.032,0,0.058,0.008,0.075,0.025
				c0.02,0.017,0.029,0.04,0.029,0.069c0,0.028-0.01,0.052-0.029,0.068c-0.018,0.018-0.043,0.026-0.075,0.026
				c-0.031,0-0.056-0.009-0.075-0.025C100.455,23.72,100.445,23.697,100.445,23.667z M100.516,24.281
				c0,0.171,0.06,0.256,0.178,0.256c0.061,0,0.105-0.021,0.135-0.062c0.029-0.041,0.044-0.105,0.044-0.193s-0.015-0.153-0.044-0.195
				c-0.03-0.042-0.074-0.062-0.133-0.062C100.576,24.023,100.516,24.109,100.516,24.281z M100.734,23.667
				c0-0.03,0.01-0.054,0.027-0.07c0.02-0.017,0.044-0.024,0.076-0.024s0.058,0.008,0.076,0.025c0.02,0.018,0.028,0.041,0.028,0.069
				s-0.009,0.052-0.028,0.068c-0.019,0.018-0.044,0.026-0.076,0.026s-0.059-0.009-0.076-0.025S100.734,23.696,100.734,23.667z"/>
			<path fill="#3C3C3B" d="M102.122,24.724h-0.312l-0.322-0.621h-0.005c0.008,0.098,0.012,0.172,0.012,0.224v0.397h-0.212v-0.882
				h0.312l0.32,0.612h0.004c-0.006-0.089-0.008-0.16-0.008-0.214v-0.398h0.212V24.724z"/>
			<path fill="#3C3C3B" d="M103.152,24.724h-0.312l-0.322-0.621h-0.006c0.008,0.098,0.012,0.172,0.012,0.224v0.397h-0.211v-0.882
				h0.312l0.321,0.612h0.004c-0.006-0.089-0.01-0.16-0.01-0.214v-0.398h0.213V24.724z"/>
			<path fill="#3C3C3B" d="M103.867,24.724h-0.523v-0.882h0.523v0.191h-0.285v0.139h0.264v0.191h-0.264v0.166h0.285V24.724z"/>
			<path fill="#3C3C3B" d="M104.861,24.724h-0.312l-0.322-0.621h-0.006c0.008,0.098,0.012,0.172,0.012,0.224v0.397h-0.211v-0.882
				h0.311l0.321,0.612h0.004c-0.006-0.089-0.009-0.16-0.009-0.214v-0.398h0.213V24.724z"/>
			<path fill="#3C3C3B" d="M106.325,24.724h-0.282l-0.084-0.385c-0.004-0.016-0.01-0.048-0.02-0.096
				c-0.008-0.048-0.014-0.088-0.019-0.12c-0.003,0.026-0.009,0.059-0.016,0.098s-0.015,0.074-0.021,0.107
				c-0.007,0.032-0.036,0.164-0.087,0.396h-0.282l-0.219-0.882h0.229l0.097,0.442c0.021,0.098,0.036,0.175,0.044,0.233
				c0.006-0.041,0.016-0.097,0.028-0.167c0.014-0.07,0.026-0.129,0.038-0.176l0.078-0.333h0.221l0.075,0.333
				c0.013,0.054,0.026,0.115,0.039,0.186s0.022,0.122,0.026,0.157c0.006-0.045,0.02-0.122,0.043-0.232l0.098-0.443h0.23
				L106.325,24.724z"/>
			<path fill="#3C3C3B" d="M107.181,24.724h-0.524v-0.882h0.524v0.191h-0.286v0.139h0.265v0.191h-0.265v0.166h0.286V24.724z"/>
			<path fill="#3C3C3B" d="M107.334,24.724v-0.882h0.238v0.689h0.34v0.192H107.334z"/>
		</g>
		<g enable-background="new    ">
			<path fill="#3C3C3B" d="M99.838,26.633H99.6v-0.688h-0.215v-0.194h0.668v0.194h-0.215V26.633z"/>
			<path fill="#3C3C3B" d="M100.703,26.633h-0.524v-0.882h0.524v0.191h-0.286v0.139h0.265v0.191h-0.265v0.166h0.286V26.633z"/>
			<path fill="#3C3C3B" d="M101.697,26.633h-0.312l-0.322-0.621h-0.006c0.008,0.098,0.012,0.172,0.012,0.224v0.397h-0.211v-0.882
				h0.311l0.321,0.612h0.004c-0.006-0.089-0.009-0.16-0.009-0.214v-0.398h0.213V26.633z"/>
			<path fill="#3C3C3B" d="M102.704,25.751h0.267l-0.289,0.882H102.4l-0.287-0.882h0.268l0.12,0.447
				c0.025,0.099,0.039,0.168,0.042,0.207c0.002-0.028,0.008-0.063,0.016-0.105c0.009-0.042,0.017-0.075,0.023-0.1L102.704,25.751z"
				/>
			<path fill="#3C3C3B" d="M103.59,26.633h-0.524v-0.882h0.524v0.191h-0.286v0.139h0.265v0.191h-0.265v0.166h0.286V26.633z"/>
			<path fill="#3C3C3B" d="M103.982,26.312v0.321h-0.238v-0.882h0.289c0.239,0,0.359,0.087,0.359,0.261
				c0,0.102-0.051,0.181-0.15,0.236l0.258,0.385h-0.271l-0.187-0.321H103.982z M103.982,26.133h0.045
				c0.082,0,0.124-0.037,0.124-0.11c0-0.061-0.04-0.092-0.122-0.092h-0.047V26.133z"/>
			<path fill="#3C3C3B" d="M105.121,26.633l-0.043-0.165h-0.287l-0.045,0.165h-0.262l0.288-0.886h0.318l0.291,0.886H105.121z
				 M104.697,25.576c0-0.03,0.01-0.054,0.027-0.07c0.02-0.017,0.044-0.024,0.075-0.024c0.032,0,0.058,0.008,0.075,0.025
				c0.02,0.017,0.029,0.04,0.029,0.069c0,0.028-0.01,0.052-0.029,0.068c-0.018,0.018-0.043,0.026-0.075,0.026
				c-0.031,0-0.056-0.009-0.075-0.025C104.707,25.629,104.697,25.606,104.697,25.576z M105.028,26.272l-0.038-0.146
				c-0.009-0.032-0.02-0.073-0.032-0.125c-0.013-0.051-0.021-0.087-0.024-0.109c-0.004,0.021-0.012,0.055-0.021,0.102
				c-0.012,0.047-0.035,0.14-0.071,0.278H105.028z M104.986,25.576c0-0.03,0.01-0.054,0.027-0.07
				c0.02-0.017,0.044-0.024,0.076-0.024s0.058,0.008,0.076,0.025c0.02,0.018,0.028,0.041,0.028,0.069s-0.009,0.052-0.028,0.068
				c-0.019,0.018-0.044,0.026-0.076,0.026s-0.059-0.009-0.076-0.025S104.986,25.605,104.986,25.576z"/>
			<path fill="#3C3C3B" d="M106.316,26.633h-0.312l-0.322-0.621h-0.005c0.008,0.098,0.012,0.172,0.012,0.224v0.397h-0.212v-0.882
				h0.312l0.32,0.612h0.004c-0.006-0.089-0.009-0.16-0.009-0.214v-0.398h0.212V26.633z"/>
			<path fill="#3C3C3B" d="M107.256,26.173c0,0.147-0.04,0.261-0.121,0.341c-0.081,0.079-0.195,0.119-0.342,0.119h-0.285v-0.882
				h0.305c0.142,0,0.251,0.036,0.328,0.108S107.256,26.036,107.256,26.173z M107.009,26.182c0-0.081-0.017-0.141-0.048-0.18
				c-0.032-0.039-0.08-0.059-0.146-0.059h-0.068v0.494h0.053c0.072,0,0.125-0.021,0.159-0.063S107.009,26.268,107.009,26.182z"/>
			<path fill="#3C3C3B" d="M107.938,26.633h-0.523v-0.882h0.523v0.191h-0.285v0.139h0.264v0.191h-0.264v0.166h0.285V26.633z"/>
		</g>
		<g enable-background="new    ">
			<path fill="#3C3C3B" d="M99.688,28.272v0.321h-0.238v-0.882h0.289c0.239,0,0.359,0.087,0.359,0.261
				c0,0.102-0.051,0.181-0.15,0.236l0.258,0.385h-0.271l-0.187-0.321H99.688z M99.688,28.094h0.045c0.082,0,0.124-0.037,0.124-0.11
				c0-0.061-0.04-0.092-0.122-0.092h-0.047V28.094z"/>
			<path fill="#3C3C3B" d="M101.125,28.594h-0.312l-0.322-0.621h-0.006c0.008,0.098,0.012,0.172,0.012,0.224v0.397h-0.211v-0.882
				h0.312l0.321,0.612h0.004c-0.006-0.089-0.01-0.16-0.01-0.214v-0.398h0.213V28.594z"/>
			<path fill="#3C3C3B" d="M101.586,28.344v-0.166h1.144v0.166H101.586z"/>
			<path fill="#3C3C3B" d="M103.193,27.712h0.307c0.121,0,0.209,0.018,0.268,0.053c0.059,0.036,0.088,0.092,0.088,0.167
				c0,0.049-0.014,0.092-0.039,0.126c-0.025,0.035-0.059,0.058-0.1,0.068v0.006c0.055,0.015,0.094,0.038,0.119,0.072
				c0.023,0.033,0.037,0.077,0.037,0.132c0,0.08-0.031,0.143-0.091,0.188s-0.142,0.069-0.246,0.069h-0.343V27.712z M103.432,28.05
				h0.071c0.034,0,0.062-0.007,0.079-0.021c0.02-0.015,0.028-0.035,0.028-0.063c0-0.049-0.037-0.074-0.112-0.074h-0.066V28.05z
				 M103.432,28.225v0.186h0.084c0.074,0,0.111-0.032,0.111-0.095c0-0.029-0.01-0.052-0.03-0.067
				c-0.02-0.016-0.048-0.023-0.087-0.023H103.432z"/>
			<path fill="#3C3C3B" d="M103.982,28.493c0-0.036,0.011-0.065,0.033-0.085c0.021-0.021,0.053-0.03,0.095-0.03
				c0.04,0,0.071,0.01,0.092,0.03c0.021,0.02,0.032,0.049,0.032,0.085c0,0.037-0.012,0.064-0.033,0.085s-0.052,0.03-0.091,0.03
				c-0.04,0-0.071-0.01-0.094-0.029C103.994,28.559,103.982,28.53,103.982,28.493z"/>
			<path fill="#3C3C3B" d="M104.771,28.594h-0.238v-0.688h-0.215v-0.194h0.668v0.194h-0.215V28.594z"/>
			<path fill="#3C3C3B" d="M105.069,28.493c0-0.036,0.011-0.065,0.033-0.085c0.021-0.021,0.054-0.03,0.095-0.03
				s0.071,0.01,0.092,0.03c0.021,0.02,0.033,0.049,0.033,0.085c0,0.037-0.012,0.064-0.033,0.085c-0.022,0.021-0.053,0.03-0.092,0.03
				s-0.07-0.01-0.094-0.029C105.081,28.559,105.069,28.53,105.069,28.493z"/>
		</g>
	</g>
	<g>
		<polygon fill="#C6C6C6" points="101.457,16.587 97.635,20.542 101.212,20.852 		"/>
		<path fill="#9C9B9B" d="M101.212,20.916c-0.002,0-0.004,0-0.006,0l-3.577-0.31c-0.023-0.002-0.045-0.018-0.055-0.042
			c-0.008-0.023-0.002-0.049,0.015-0.067l3.821-3.955c0.02-0.02,0.047-0.026,0.072-0.014c0.021,0.01,0.039,0.036,0.039,0.062
			l-0.246,4.265c0,0.018-0.008,0.034-0.021,0.045C101.242,20.911,101.227,20.916,101.212,20.916z M97.775,20.489l3.375,0.292
			l0.229-4.024L97.775,20.489z"/>
	</g>
	<g>
		<polygon fill="#C6C6C6" points="101.404,16.238 97.715,20.123 101.005,20.432 		"/>
		<path fill="#9C9B9B" d="M101.006,20.497c-0.002,0-0.005,0-0.007,0l-3.29-0.31c-0.025-0.002-0.046-0.018-0.055-0.042
			c-0.008-0.023-0.004-0.049,0.014-0.067l3.689-3.884c0.02-0.02,0.049-0.025,0.074-0.014c0.021,0.011,0.039,0.038,0.032,0.064
			l-0.396,4.193C101.066,20.472,101.037,20.497,101.006,20.497z M97.854,20.07l3.099,0.292l0.376-3.944L97.854,20.07z"/>
	</g>
	<g>
		
			<linearGradient id="SVGID_7_" gradientUnits="userSpaceOnUse" x1="963.0273" y1="1619.9824" x2="964.2724" y2="1623.4036" gradientTransform="matrix(1 0 0 1 -864 -1603)">
			<stop  offset="0" style="stop-color:#FFFFFF"/>
			<stop  offset="1" style="stop-color:#EBEBEB"/>
		</linearGradient>
		<polygon fill="url(#SVGID_7_)" points="101.367,16.132 97.48,20.006 101.367,20.006 		"/>
		<path fill="#9D9D9C" d="M101.367,20.104H97.48c-0.039,0-0.074-0.024-0.09-0.06c-0.02-0.036-0.011-0.078,0.021-0.105l3.887-3.875
			c0.027-0.028,0.068-0.036,0.104-0.021c0.035,0.016,0.06,0.051,0.06,0.09v3.875C101.463,20.06,101.42,20.104,101.367,20.104z
			 M97.714,19.91h3.558v-3.545L97.714,19.91z"/>
	</g>
</g>
<g>
	<g>
		
			<linearGradient id="SVGID_8_" gradientUnits="userSpaceOnUse" x1="685.9541" y1="-2023.9839" x2="685.9541" y2="-2012.7339" gradientTransform="matrix(1 0 0 -1 -645 -2012.5)">
			<stop  offset="0" style="stop-color:#009EE2"/>
			<stop  offset="1" style="stop-color:#16527B"/>
		</linearGradient>
		<rect x="36.266" y="0.234" fill="url(#SVGID_8_)" width="9.375" height="11.25"/>
		<g>
			<path fill="#16527B" d="M45.641,0.234v11.25h-9.375V0.234H45.641 M45.875,0h-9.844v11.719h9.844V0L45.875,0z"/>
		</g>
	</g>
	<g>
		<polygon fill="#888888" points="32.984,15 32.984,3.047 35.094,3.047 35.094,12.656 42.828,12.656 42.828,15 		"/>
		<g>
			<path fill="#666666" d="M34.859,3.047v9.572v0.271h0.287h7.448v1.641h-9.609V3.047H34.859 M35.094,2.812H32.75V15h10.312v-2.344
				h-7.969L35.094,2.812L35.094,2.812z"/>
		</g>
	</g>
</g>
<g>
	<g>
		<path fill="#888888" d="M61.736,2.458h-3.417V0.169h-5.593v2.289H49.79l-0.02,1.123h12.001L61.736,2.458z M53.743,2.458V1.187
			h3.56v1.271H53.743L53.743,2.458z"/>
		<path fill="#666666" d="M61.885,3.79h-12.26V2.267l3.083,0.008V0h5.812v2.275h3.34L61.885,3.79z M49.884,3.537h11.49l-0.017-1.01
			h-3.089V0.253H52.96v2.274l-3.072,0.037L49.884,3.537z M57.51,2.527h-3.791V1.011h3.791V2.527z M53.971,2.275h3.286V1.264h-3.286
			V2.275z"/>
	</g>
	<g>
		<path fill="#888888" d="M49.995,4.746l1.256,10.169h8.991l1.255-10.169H49.995z"/>
		<path fill="#666666" d="M61.037,4.951l-1.222,9.605h-8.39l-1.222-9.605H61.037z M61.498,4.762H49.995L51.25,15h8.991L61.498,4.762
			L61.498,4.762z"/>
	</g>
</g>
<g>
	<path fill="#888888" d="M77.115,2.141l-2.969-1.997L65.941,8.35l-1.055,6.014l6.016-1.054l8.203-8.206L77.115,2.141z
		 M67.441,12.945l-1.123-1.122l0.318-2.516l2.311,0.938l0.939,2.314L67.441,12.945z"/>
	<path fill="#666666" d="M64.75,14.5l1.088-6.205l0.023-0.025L74.133,0l3.074,2.079l2.043,3.038l-8.295,8.296L64.75,14.5z
		 M66.043,8.403l-1.018,5.824l5.822-1.247l7.889-7.89l-1.701-2.869L74.16,0.287L66.043,8.403z M67.402,13.063l-1.199-1.2
		l0.342-2.714l2.49,1.01l1.01,2.487L67.402,13.063z M66.438,11.783L67.48,12.6l2.021-0.356l-0.644-1.914L66.73,9.464L66.438,11.783z
		"/>
</g>
<g>
	<g>
		<g>
			
				<linearGradient id="SVGID_9_" gradientUnits="userSpaceOnUse" x1="903.999" y1="1640.7461" x2="903.999" y2="1638.5596" gradientTransform="matrix(1 0 0 1 -864 -1603)">
				<stop  offset="0" style="stop-color:#2E2E2D"/>
				<stop  offset="0.2553" style="stop-color:#5C5C5C"/>
				<stop  offset="0.5763" style="stop-color:#8B8B8B"/>
			</linearGradient>
			<path fill="url(#SVGID_9_)" d="M36.975,36.915v-0.996c0-0.222-0.161-0.36-0.36-0.36h-3.683c-0.199,0-0.38,0.068-0.38,0.36v1.087
				l-0.461,0.74h15.818l-0.461-0.831H36.975z"/>
			<path fill="#2E2E2D" d="M47.91,37.803H32.091c-0.021,0-0.04-0.011-0.051-0.03c-0.01-0.018-0.009-0.041,0.002-0.059l0.452-0.726
				v-1.07c0-0.191,0.076-0.418,0.438-0.418h3.683c0.242,0,0.418,0.176,0.418,0.418v0.938H47.45c0.021,0,0.041,0.011,0.05,0.03
				l0.461,0.831c0.01,0.018,0.009,0.04-0.001,0.058C47.949,37.792,47.93,37.803,47.91,37.803z M32.194,37.688h15.617l-0.396-0.715
				h-10.44c-0.032,0-0.058-0.026-0.058-0.058v-0.996c0-0.178-0.124-0.303-0.303-0.303h-3.683c-0.226,0-0.322,0.09-0.322,0.303v1.087
				c0,0.011-0.003,0.021-0.009,0.031L32.194,37.688z"/>
		</g>
		<g>
			
				<linearGradient id="SVGID_10_" gradientUnits="userSpaceOnUse" x1="896.0908" y1="1645.2441" x2="911.9102" y2="1645.2441" gradientTransform="matrix(1 0 0 1 -864 -1603)">
				<stop  offset="0.5" style="stop-color:#FFFFFF"/>
				<stop  offset="1" style="stop-color:#E6E6E6"/>
			</linearGradient>
			<polygon fill="url(#SVGID_10_)" points="47.449,46.855 32.552,46.855 32.091,37.632 47.91,37.632 			"/>
			<path fill="#8B8B8B" d="M47.531,46.942H32.469L32,37.546h16L47.531,46.942z M32.634,46.77h14.732l0.453-9.051H32.182
				L32.634,46.77z"/>
		</g>
	</g>
	<g>
		
			<linearGradient id="SVGID_11_" gradientUnits="userSpaceOnUse" x1="904.001" y1="1642.1074" x2="904.001" y2="1647.9443" gradientTransform="matrix(1 0 0 1 -864 -1603)">
			<stop  offset="0" style="stop-color:#3A8C32"/>
			<stop  offset="1" style="stop-color:#227333"/>
		</linearGradient>
		<polygon fill="url(#SVGID_11_)" points="42.918,42.862 42.918,41.191 40.835,41.191 40.835,39.108 39.165,39.108 39.165,41.191 
			37.082,41.191 37.082,42.862 39.165,42.862 39.165,44.945 40.835,44.945 40.835,42.862 		"/>
		<path fill="#1C5020" d="M40.951,45.061H39.05v-2.083h-2.083v-1.9h2.083v-2.083h1.901v2.083h2.083v1.9h-2.083V45.061z M39.28,44.83
			h1.44v-2.083h2.083v-1.44H40.72v-2.083h-1.44v2.083h-2.083v1.44h2.083V44.83z"/>
	</g>
</g>
<g>
	<g>
		<g>
			
				<linearGradient id="SVGID_12_" gradientUnits="userSpaceOnUse" x1="881.2207" y1="1659" x2="894.4375" y2="1659" gradientTransform="matrix(1 0 0 1 -864 -1603)">
				<stop  offset="0" style="stop-color:#FFFFFF"/>
				<stop  offset="1" style="stop-color:#F4F4F6"/>
			</linearGradient>
			<polygon fill="url(#SVGID_12_)" points="30.438,48.117 21.46,48.117 17.22,52.356 17.22,63.883 30.438,63.883 			"/>
			<path fill="#9D9D9C" d="M30.438,64H17.22l-0.117-0.117V52.356l0.035-0.083l4.24-4.239L21.46,48h8.978l0.117,0.117v15.766
				L30.438,64z M17.337,63.767h12.984V48.233h-8.812l-4.172,4.171V63.767z"/>
		</g>
		<g>
			<polygon fill="#FFFFFF" points="21.46,48.117 17.22,52.356 21.46,52.356 			"/>
			<path fill="#9D9D9C" d="M21.46,52.444h-4.24l-0.062-0.15l4.239-4.239l0.15,0.062v4.239L21.46,52.444z M17.431,52.269h3.941
				v-3.941L17.431,52.269z"/>
		</g>
	</g>
	<g>
		<path fill="#69696D" d="M27.736,56.146v-0.42c0-1.311-0.588-1.967-1.763-1.967h-3.542c-1.168,0-1.766,0.592-1.793,1.771h-0.004
			v0.206v0.63h-0.711v0.962h0.711v0.874h-0.711v0.962h0.711v0.725v0.089c0,1.181,0.543,1.771,1.625,1.771h0.172h2.387h1.155
			c1.175,0,1.763-0.656,1.763-1.967v-0.42h-1.318v0.651c0,0.224-0.108,0.337-0.325,0.337h-1.274h-2.541
			c-0.228,0-0.342-0.148-0.342-0.443v-0.742h2.334v-0.962h-2.334v-0.874h2.334v-0.962h-2.334V55.72v-0.259
			c0-0.201,0.092-0.302,0.274-0.302h3.883c0.217,0,0.325,0.113,0.325,0.336v0.652L27.736,56.146L27.736,56.146z"/>
		<path fill="#2A2827" d="M25.973,61.806h-3.714c-1.116,0-1.683-0.616-1.683-1.83v-0.755h-0.711v-1.079h0.711v-0.758h-0.711v-1.079
			h0.711l0.005-0.834c0.047-1.176,0.67-1.772,1.85-1.772h3.542c1.208,0,1.82,0.682,1.82,2.025v0.479h-1.435v-0.71
			c0-0.192-0.082-0.278-0.267-0.278h-3.883c-0.149,0-0.216,0.075-0.216,0.243v0.847h2.334v1.079h-2.334v0.757h2.334v1.079h-2.334
			v0.684c0,0.345,0.162,0.385,0.283,0.385h3.816c0.184,0,0.267-0.086,0.267-0.278v-0.709h1.435v0.479
			C27.793,61.125,27.181,61.806,25.973,61.806z M19.982,59.104h0.711v0.872c0,1.152,0.514,1.713,1.566,1.713h3.714
			c1.146,0,1.704-0.624,1.704-1.908v-0.362h-1.201v0.593c0,0.255-0.137,0.395-0.384,0.395h-3.815c-0.182,0-0.4-0.086-0.4-0.501
			v-0.801h2.334v-0.846h-2.334v-0.99h2.334v-0.846h-2.334v-0.964c0-0.232,0.118-0.359,0.333-0.359h3.883
			c0.247,0,0.384,0.14,0.384,0.394v0.593h1.201v-0.362c0-1.284-0.558-1.908-1.704-1.908h-3.542c-1.14,0-1.707,0.56-1.734,1.714
			l-0.004,0.205v0.687h-0.711v0.846h0.711v0.99h-0.711L19.982,59.104L19.982,59.104z"/>
	</g>
</g>
<g>
	<g>
		<g>
			
				<linearGradient id="SVGID_13_" gradientUnits="userSpaceOnUse" x1="897.1172" y1="1659" x2="910.335" y2="1659" gradientTransform="matrix(1 0 0 1 -864 -1603)">
				<stop  offset="0" style="stop-color:#FFFFFF"/>
				<stop  offset="1" style="stop-color:#F4F4F6"/>
			</linearGradient>
			<polygon fill="url(#SVGID_13_)" points="46.335,48.117 37.357,48.117 33.117,52.356 33.117,63.883 46.335,63.883 			"/>
			<path fill="#9D9D9C" d="M46.335,64H33.117L33,63.883V52.356l0.035-0.083l4.24-4.239L37.357,48h8.978l0.117,0.117v15.766
				L46.335,64z M33.234,63.767h12.984V48.233h-8.812l-4.172,4.171V63.767z"/>
		</g>
		<g>
			
				<linearGradient id="SVGID_14_" gradientUnits="userSpaceOnUse" x1="897.1172" y1="1653.2363" x2="901.3574" y2="1653.2363" gradientTransform="matrix(1 0 0 1 -864 -1603)">
				<stop  offset="0" style="stop-color:#FFFFFF"/>
				<stop  offset="1" style="stop-color:#F4F4F6"/>
			</linearGradient>
			<polygon fill="url(#SVGID_14_)" points="37.357,48.117 33.117,52.356 37.357,52.356 			"/>
			<path fill="#9D9D9C" d="M37.357,52.473h-4.24l-0.082-0.2l4.24-4.239l0.199,0.083v4.239L37.357,52.473z M33.398,52.24h3.842
				v-3.841L33.398,52.24z"/>
		</g>
	</g>
	<g>
		<path fill="#69696D" d="M42.214,55.794c0.065,1.028-0.278,2.008-0.907,2.761c0.113-0.279,0.178-0.582,0.178-0.902
			c0-1.309-1.062-2.37-2.371-2.37c-1.309,0-2.37,1.061-2.37,2.37c0,0.233,0.034,0.458,0.098,0.671
			c-0.509-0.515-0.901-1.144-1.134-1.852H35.08c0.557,2.25,2.179,3.751,4.518,3.751c2.059,0,4.58-2.179,4.803-4.429H42.214
			L42.214,55.794z M39.113,55.927c0.953,0,1.727,0.772,1.727,1.726c0,0.954-0.773,1.727-1.727,1.727
			c-0.954,0-1.727-0.773-1.727-1.727C37.387,56.699,38.158,55.927,39.113,55.927z"/>
		<path fill="#2A2827" d="M39.113,55.282c1.309,0,2.371,1.062,2.371,2.37c0,0.32-0.064,0.623-0.178,0.902
			c0.629-0.752,0.973-1.733,0.907-2.76H44.4c-0.223,2.25-2.744,4.429-4.803,4.429c-2.339,0-3.961-1.501-4.518-3.751h0.627
			c0.232,0.708,0.625,1.337,1.134,1.852c-0.063-0.213-0.099-0.438-0.099-0.671C36.742,56.344,37.805,55.282,39.113,55.282
			 M39.113,59.38c0.953,0,1.727-0.773,1.727-1.727c0-0.954-0.773-1.726-1.727-1.726c-0.954,0-1.727,0.772-1.727,1.726
			C37.386,58.607,38.158,59.38,39.113,59.38 M39.113,55.166c-1.371,0-2.487,1.116-2.487,2.487c0,0.092,0.005,0.185,0.016,0.277
			c-0.364-0.444-0.646-0.954-0.823-1.495l-0.026-0.081h-0.085H35.08h-0.148l0.036,0.145c0.595,2.404,2.325,3.84,4.63,3.84
			c2.215,0,4.697-2.287,4.918-4.534l0.014-0.127H44.4h-2.187H42.09l0.008,0.124c0.047,0.762-0.133,1.511-0.517,2.161
			c0.013-0.102,0.02-0.205,0.02-0.31C41.601,56.282,40.484,55.166,39.113,55.166L39.113,55.166z M39.113,59.263
			c-0.888,0-1.61-0.723-1.61-1.61c0-0.887,0.723-1.61,1.61-1.61c0.887,0,1.609,0.723,1.609,1.61
			C40.722,58.54,40,59.263,39.113,59.263L39.113,59.263z"/>
	</g>
</g>
<g>
	
		<linearGradient id="SVGID_15_" gradientUnits="userSpaceOnUse" x1="864.1289" y1="1659" x2="879.5234" y2="1659" gradientTransform="matrix(1 0 0 1 -864 -1603)">
		<stop  offset="0" style="stop-color:#469B41"/>
		<stop  offset="1" style="stop-color:#288342"/>
	</linearGradient>
	<path fill="url(#SVGID_15_)" d="M15.524,52.833v-0.829c0-2.583-1.158-3.875-3.473-3.875h-6.98c-2.303,0-3.478,1.167-3.536,3.491
		H1.531v0.405v1.24H0.129v1.896h1.402v1.721H0.129v1.897h1.402v1.427v0.175c0,2.327,1.068,3.49,3.203,3.49h0.337h4.702h2.277
		c2.315,0,3.473-1.292,3.473-3.875v-0.829h-2.597v1.283c0,0.442-0.213,0.664-0.642,0.664H9.773H4.768
		c-0.451,0-0.674-0.291-0.674-0.874v-1.462h4.598v-1.897H4.094V55.16h4.598v-1.896H4.094V51.99v-0.51
		c0-0.396,0.179-0.594,0.539-0.594h7.653c0.428,0,0.642,0.221,0.642,0.663v1.284H15.524z"/>
	<path fill="#22612B" d="M12.051,64H4.734c-2.211,0-3.333-1.218-3.333-3.62v-1.473H0v-2.154h1.402V55.29H0v-2.154h1.402l0.009-1.646
		C1.51,49.174,2.741,48,5.071,48h6.979c2.39,0,3.602,1.347,3.602,4.004v0.958h-2.854V51.55c0-0.369-0.159-0.534-0.513-0.534H4.633
		c-0.288,0-0.41,0.14-0.41,0.465v1.655h4.598v2.154H4.223v1.463h4.598v2.154H4.223v1.333c0,0.66,0.291,0.745,0.545,0.745h7.518
		c0.354,0,0.513-0.165,0.513-0.535v-1.412h2.854v0.958C15.653,62.653,14.441,64,12.051,64z M0.258,58.65H1.66v1.731
		c0,2.262,1.006,3.361,3.075,3.361h7.317c2.25,0,3.344-1.225,3.344-3.745v-0.7h-2.338v1.153c0,0.512-0.274,0.793-0.771,0.793H4.768
		c-0.366,0-0.803-0.174-0.803-1.003v-1.59h4.598v-1.639H3.965v-1.979h4.598v-1.639H3.965V51.48c0-0.466,0.237-0.724,0.668-0.724
		h7.652c0.497,0,0.771,0.281,0.771,0.792v1.154h2.338v-0.7c0-2.52-1.094-3.745-3.344-3.745H5.07c-2.236,0-3.351,1.101-3.406,3.365
		L1.66,52.025v1.369H0.258v1.639H1.66v1.979H0.258V58.65z"/>
</g>
<g>
	<g>
		<path fill="#888888" d="M104,3.542c-4.331,0-7.842,4.521-7.842,4.521s3.511,4.521,7.842,4.521c4.332,0,7.842-4.521,7.842-4.521
			S108.332,3.542,104,3.542z M103.969,11.543c-1.949,0-3.531-1.558-3.531-3.479s1.582-3.479,3.531-3.479
			c1.951,0,3.533,1.558,3.533,3.479S105.92,11.543,103.969,11.543z"/>
		<path fill="#666666" d="M104,12.709c-4.342,0-7.904-4.523-7.941-4.569L96,8.063l0.059-0.076C96.096,7.941,99.66,3.418,104,3.418
			s7.904,4.523,7.941,4.569L112,8.063l-0.059,0.076C111.904,8.186,108.342,12.709,104,12.709z M96.318,8.063
			c0.48,0.591,3.77,4.396,7.682,4.396s6.945-4.056,7.432-4.646c-0.48-0.591-3.52-4.146-7.432-4.146
			C100.086,3.667,96.805,7.473,96.318,8.063z M103.969,11.667c-2.016,0-3.656-1.616-3.656-3.604c0-1.987,1.646-3.604,3.656-3.604
			c2.018,0,3.657,1.617,3.657,3.604C107.626,10.051,105.984,11.667,103.969,11.667z M103.969,4.709
			c-1.879,0-3.406,1.505-3.406,3.354c0,1.85,1.527,3.354,3.406,3.354c1.881,0,3.408-1.505,3.408-3.354S105.85,4.709,103.969,4.709z"
			/>
	</g>
	<g>
		<ellipse fill="#888888" cx="103.953" cy="8.048" rx="1.773" ry="1.747"/>
		<path fill="#666666" d="M103.953,9.92c-1.047,0-1.898-0.84-1.898-1.872c0-1.032,0.854-1.872,1.898-1.872s1.898,0.839,1.898,1.872
			C105.852,9.08,105,9.92,103.953,9.92z M103.891,6.425c-0.875,0-1.586,0.7-1.586,1.561c0,0.861,0.711,1.562,1.586,1.562
			s1.588-0.7,1.588-1.562C105.479,7.126,104.766,6.425,103.891,6.425z"/>
	</g>
</g>
<g>
	<g>
		<g>
			
				<linearGradient id="SVGID_16_" gradientUnits="userSpaceOnUse" x1="885.0146" y1="1619.2568" x2="891.1482" y2="1636.1079" gradientTransform="matrix(1 0 0 1 -864 -1603)">
				<stop  offset="0.5" style="stop-color:#FFFFFF"/>
				<stop  offset="1" style="stop-color:#ECECEC"/>
			</linearGradient>
			<polygon fill="url(#SVGID_16_)" points="30.459,16.096 21.458,16.096 17.207,20.347 17.207,31.904 30.459,31.904 			"/>
			<path fill="#9D9D9C" d="M30.555,32H17.111V20.307l0.028-0.028L21.418,16h9.137V32z M17.303,31.808h13.06V16.192h-8.866
				l-4.194,4.194V31.808z"/>
		</g>
		<g>
			
				<linearGradient id="SVGID_17_" gradientUnits="userSpaceOnUse" x1="882.8984" y1="1620.0293" x2="884.2646" y2="1623.7825" gradientTransform="matrix(1 0 0 1 -864 -1603)">
				<stop  offset="0" style="stop-color:#FFFFFF"/>
				<stop  offset="1" style="stop-color:#EBEBEB"/>
			</linearGradient>
			<polygon fill="url(#SVGID_17_)" points="21.458,16.096 17.207,20.347 21.458,20.347 			"/>
			<path fill="#9D9D9C" d="M21.458,20.442h-4.25c-0.039,0-0.074-0.023-0.089-0.059c-0.015-0.037-0.006-0.078,0.021-0.105l4.25-4.251
				c0.028-0.027,0.068-0.035,0.104-0.021c0.037,0.015,0.06,0.05,0.06,0.089v4.25C21.554,20.399,21.511,20.442,21.458,20.442z
				 M17.439,20.25h3.922v-3.923L17.439,20.25z"/>
		</g>
	</g>
	<g>
		
			<linearGradient id="SVGID_18_" gradientUnits="userSpaceOnUse" x1="889.6631" y1="1625.793" x2="889.6631" y2="1635.0654" gradientTransform="matrix(1 0 0 1 -864 -1603)">
			<stop  offset="0" style="stop-color:#42A03F"/>
			<stop  offset="1" style="stop-color:#348342"/>
		</linearGradient>
		<polygon fill="url(#SVGID_18_)" points="28.746,19.896 27.223,29.848 24.794,29.848 22.578,25.026 24.34,23.472 25.725,27.021 
			25.759,27.22 25.792,27.104 26.983,21.917 		"/>
		<path fill="#25632C" d="M27.333,29.976h-2.621l-2.291-4.983l1.972-1.739l1.354,3.472l1.118-4.869l2.074-2.377L27.333,29.976z
			 M24.876,29.72h2.237l1.439-9.407L27.1,21.978l-1.218,5.278L25.728,27.8l-0.126-0.745l-1.313-3.366l-1.554,1.37L24.876,29.72z"/>
	</g>
</g>
<g>
	<g>
		<g>
			
				<linearGradient id="SVGID_19_" gradientUnits="userSpaceOnUse" x1="900.9023" y1="1619.2549" x2="907.0381" y2="1636.1124" gradientTransform="matrix(1 0 0 1 -864 -1603)">
				<stop  offset="0.5" style="stop-color:#FFFFFF"/>
				<stop  offset="1" style="stop-color:#ECECEC"/>
			</linearGradient>
			<polygon fill="url(#SVGID_19_)" points="46.35,16.094 37.346,16.094 33.093,20.346 33.093,31.907 46.35,31.907 			"/>
			<path fill="#9D9D9C" d="M46.443,32H33V20.307l0.027-0.027l4.28-4.28h9.136V32z M33.187,31.813h13.07V16.187h-8.872l-4.198,4.198
				V31.813L33.187,31.813z"/>
		</g>
		<g>
			
				<linearGradient id="SVGID_20_" gradientUnits="userSpaceOnUse" x1="898.7852" y1="1620.0254" x2="900.1519" y2="1623.7805" gradientTransform="matrix(1 0 0 1 -864 -1603)">
				<stop  offset="0" style="stop-color:#FFFFFF"/>
				<stop  offset="1" style="stop-color:#EBEBEB"/>
			</linearGradient>
			<polygon fill="url(#SVGID_20_)" points="37.346,16.094 33.093,20.346 37.346,20.346 			"/>
			<path fill="#9D9D9C" d="M37.346,20.439h-4.252c-0.038,0-0.071-0.023-0.086-0.058c-0.014-0.035-0.006-0.075,0.021-0.102
				l4.252-4.252c0.027-0.027,0.067-0.034,0.102-0.021c0.035,0.015,0.058,0.049,0.058,0.087v4.252
				C37.439,20.397,37.397,20.439,37.346,20.439z M33.319,20.252h3.933v-3.934L33.319,20.252z"/>
		</g>
	</g>
	<g>
		
			<linearGradient id="SVGID_21_" gradientUnits="userSpaceOnUse" x1="836.3203" y1="-1716.6289" x2="842.049" y2="-1710.9003" gradientTransform="matrix(0.7071 0.7071 -0.7071 0.7071 -1765.147 643.3447)">
			<stop  offset="0" style="stop-color:#42A03F"/>
			<stop  offset="1" style="stop-color:#348342"/>
		</linearGradient>
		<polygon fill="url(#SVGID_21_)" points="44.095,26.089 44.095,23.769 41.203,23.769 41.203,20.878 38.884,20.878 38.884,23.769 
			35.992,23.769 35.992,26.089 38.884,26.089 38.884,28.98 41.203,28.98 41.203,26.089 		"/>
		<path fill="#25632C" d="M41.328,29.104H38.76v-2.891h-2.892v-2.569h2.892v-2.891h2.568v2.891h2.892v2.569h-2.892V29.104z
			 M39.008,28.855h2.07v-2.891h2.892v-2.071h-2.892v-2.891h-2.07v2.891h-2.892v2.071h2.892V28.855z"/>
	</g>
</g>
<g>
	<path fill="#888888" d="M118.291,1.763c-1.82,1.821-2.13,4.581-0.928,6.722l-5.197,5.198l2.15,2.153l5.199-5.198
		c2.141,1.202,4.896,0.895,6.721-0.927c2.195-2.195,2.195-5.752,0-7.947C124.043-0.431,120.484-0.432,118.291,1.763z M125.078,8.55
		c-1.555,1.554-4.074,1.554-5.629,0c-1.555-1.554-1.555-4.074,0-5.628c1.555-1.555,4.074-1.555,5.629,0
		C126.633,4.476,126.633,6.996,125.078,8.55z"/>
	<path fill="#666666" d="M114.316,16L112,13.682l5.219-5.218c-1.199-2.218-0.8-4.995,0.989-6.783C119.291,0.597,120.73,0,122.264,0
		c1.534,0,2.973,0.597,4.057,1.68c1.082,1.083,1.685,2.524,1.685,4.056c0,1.533-0.603,2.973-1.685,4.056
		c-1.079,1.083-2.521,1.679-4.055,1.679l0,0c-0.953,0-1.896-0.238-2.729-0.688L114.316,16z M112.331,13.682l1.735,1.737l5.179-4.928
		l0.327,0.043c0.818,0.459,1.75,0.703,2.693,0.703l0,0c1.469,0,2.85-0.572,3.889-1.61c1.039-1.039,1.611-2.421,1.611-3.891
		c0-1.469-0.572-2.851-1.611-3.891c-1.039-1.039-2.422-1.611-3.891-1.611c-1.475,0-2.854,0.572-3.896,1.611
		c-1.731,1.736-2.104,4.442-0.908,6.581l0.043,0.078L112.331,13.682z M122.264,9.833c-1.094,0-2.123-0.426-2.896-1.2
		c-1.599-1.598-1.599-4.196,0-5.794c0.772-0.774,1.803-1.2,2.896-1.2c1.096,0,2.123,0.426,2.898,1.2
		c1.597,1.598,1.597,4.196,0,5.794C124.387,9.407,123.357,9.833,122.264,9.833z M122.264,1.873c-1.031,0-2.002,0.402-2.729,1.131
		c-1.51,1.506-1.51,3.957,0,5.463c0.729,0.729,1.697,1.131,2.729,1.131c1.032,0,2.002-0.402,2.732-1.131
		c0.729-0.729,1.131-1.7,1.131-2.732c0-1.032-0.4-2.002-1.131-2.731S123.296,1.873,122.264,1.873z"/>
</g>
<g>
	
		<linearGradient id="SVGID_22_" gradientUnits="userSpaceOnUse" x1="693.1846" y1="-1719.4136" x2="679.0898" y2="-1719.4136" gradientTransform="matrix(1 0 0 -1 -630.5 -1695)">
		<stop  offset="0" style="stop-color:#1495DE"/>
		<stop  offset="1" style="stop-color:#073866"/>
	</linearGradient>
	<path fill="url(#SVGID_22_)" d="M54.265,20.362h1.528l-2.892-3.278h4.084l4.482,4.552l-4.482,4.552h-4.084l2.963-3.36l-1.6,0.021
		c-1.78,0-3.223,1.443-3.223,3.223c0,1.779,1.616,3.21,3.396,3.21h8.249l-0.001,2.463h-8.248c-3.134,0-5.846-2.54-5.846-5.673
		C48.591,22.938,51.131,20.362,54.265,20.362z"/>
	<path fill="#073866" d="M62.854,31.915h-8.417c-3.261,0-6.015-2.676-6.015-5.842c0-3.241,2.62-5.878,5.842-5.878h1.154
		l-2.891-3.279h4.529l4.648,4.721l-4.648,4.72h-4.529l2.959-3.354l-1.22,0.016c-1.687,0-3.057,1.371-3.057,3.055
		c0,1.649,1.478,3.042,3.227,3.042h8.418V31.915z M54.265,20.53c-3.035,0-5.505,2.486-5.505,5.542c0,2.984,2.6,5.506,5.677,5.506
		h8.08l0.001-2.126h-8.081c-1.932,0-3.564-1.548-3.564-3.379c0-1.871,1.523-3.392,3.393-3.392l1.977-0.026l-2.967,3.365h3.64
		l4.316-4.382l-4.316-4.384h-3.64l2.892,3.278h-1.903V20.53z"/>
</g>
<g>
	
		<linearGradient id="SVGID_23_" gradientUnits="userSpaceOnUse" x1="-1710.0469" y1="-1719.4136" x2="-1724.146" y2="-1719.4136" gradientTransform="matrix(-1 0 0 -1 -1646.6094 -1695)">
		<stop  offset="0" style="stop-color:#1495DE"/>
		<stop  offset="1" style="stop-color:#073866"/>
	</linearGradient>
	<path fill="url(#SVGID_23_)" d="M71.855,20.362h-1.527l2.891-3.279h-4.082l-4.482,4.553l4.482,4.551h4.082l-2.962-3.36l1.601,0.021
		c1.777,0,3.226,1.443,3.226,3.223c0,1.779-1.615,3.211-3.396,3.211h-8.25v2.463h8.25c3.133,0,5.849-2.541,5.849-5.674
		C77.531,22.938,74.988,20.362,71.855,20.362z"/>
	<path fill="#073866" d="M71.684,31.915h-8.417l-0.001-2.801h8.417c1.75,0,3.228-1.394,3.228-3.042c0-1.685-1.371-3.055-3.056-3.055
		l-1.226-0.016l2.959,3.354h-4.524l-4.647-4.72l4.647-4.721h4.524l-2.89,3.279h1.152c3.222,0,5.842,2.637,5.842,5.878
		C77.697,29.239,74.945,31.915,71.684,31.915z M63.604,31.578h8.08c3.078,0,5.678-2.521,5.678-5.506
		c0-3.056-2.469-5.541-5.504-5.541h-1.899l2.896-3.279h-3.646l-4.313,4.384l4.313,4.382h3.646l-2.972-3.365l1.979,0.026
		c1.869,0,3.393,1.521,3.393,3.393c0,1.832-1.634,3.379-3.564,3.379h-8.082L63.604,31.578z"/>
</g>
<g>
	<g>
		
			<linearGradient id="SVGID_24_" gradientUnits="userSpaceOnUse" x1="713.707" y1="-1717.6113" x2="726.3564" y2="-1717.6113" gradientTransform="matrix(1 0 0 -1 -630.5 -1695)">
			<stop  offset="0" style="stop-color:#1495DE"/>
			<stop  offset="1" style="stop-color:#073866"/>
		</linearGradient>
		<path fill="url(#SVGID_24_)" d="M83.322,20.252l2.084,0.011c1.574-1.575,4.508-1.197,6.085,0.378
			c1.573,1.576,1.791,4.65,0.216,6.226l2.255-0.201l-0.075,2.381c2.772-2.774,2.547-7.802-0.227-10.575
			c-2.773-2.774-7.682-3.184-10.453-0.41L83.322,20.252z"/>
		<path fill="#073866" d="M93.695,29.487l0.082-2.627l-2.539,0.227l0.344-0.344c1.452-1.454,1.345-4.414-0.217-5.976
			c-0.838-0.837-2.077-1.336-3.317-1.336c-1.006,0-1.899,0.339-2.517,0.957l-0.053,0.052l-2.324-0.012l-0.131-2.434l0.058-0.056
			C84.33,16.688,86.082,16,88.012,16c2.176,0,4.28,0.854,5.772,2.348c2.892,2.891,2.999,8.05,0.228,10.824L93.695,29.487z
			 M94.145,26.474l-0.062,2.108c2.312-2.708,2.104-7.338-0.543-9.984c-1.43-1.427-3.438-2.245-5.521-2.245
			c-1.811,0-3.444,0.632-4.625,1.78l0.104,1.944l1.845,0.01c0.684-0.651,1.645-1.008,2.715-1.008c1.33,0,2.666,0.538,3.566,1.439
			c1.57,1.575,1.771,4.472,0.51,6.136L94.145,26.474z"/>
	</g>
	<g>
		
			<linearGradient id="SVGID_25_" gradientUnits="userSpaceOnUse" x1="717.1738" y1="-1726.8237" x2="717.1738" y2="-1713.9521" gradientTransform="matrix(1 0 0 -1 -630.5 -1695)">
			<stop  offset="0" style="stop-color:#1495DE"/>
			<stop  offset="1" style="stop-color:#073866"/>
		</linearGradient>
		<path fill="url(#SVGID_25_)" d="M92.881,27.747l-2.083-0.011c-1.575,1.576-4.509,1.197-6.084-0.378
			c-1.575-1.576-1.791-4.651-0.217-6.226l-2.255,0.201l0.074-2.381c-2.773,2.773-2.547,7.802,0.228,10.575
			c2.774,2.774,7.681,3.184,10.455,0.41L92.881,27.747z"/>
		<path fill="#073866" d="M88.195,32L88.195,32c-2.18,0-4.283-0.856-5.776-2.349c-2.894-2.892-3-8.051-0.226-10.824l0.312-0.315
			l-0.082,2.628l2.541-0.227l-0.344,0.344c-0.705,0.704-1.076,1.791-1.021,2.979c0.055,1.172,0.504,2.265,1.232,2.997
			c0.838,0.836,2.077,1.336,3.314,1.335c1.011,0,1.9-0.34,2.521-0.958l0.055-0.052l2.32,0.012l0.129,2.435L93.12,30.06
			C91.872,31.311,90.123,32,88.195,32z M82.127,19.418c-2.312,2.707-2.104,7.338,0.543,9.984c1.428,1.427,3.439,2.245,5.525,2.245
			c1.804,0,3.441-0.631,4.621-1.78l-0.104-1.945l-1.845-0.01c-0.684,0.652-1.643,1.009-2.715,1.009
			c-1.332,0-2.664-0.538-3.564-1.439c-0.795-0.793-1.283-1.971-1.342-3.229c-0.055-1.112,0.246-2.146,0.829-2.907l-2.019,0.18
			L82.127,19.418z"/>
	</g>
</g>
<g>
	
		<linearGradient id="SVGID_26_" gradientUnits="userSpaceOnUse" x1="774.6895" y1="726.7803" x2="780.8044" y2="743.5809" gradientTransform="matrix(1 0 0 1 -721.5 -694.5)">
		<stop  offset="0.5" style="stop-color:#FFFFFF"/>
		<stop  offset="1" style="stop-color:#E9E9E9"/>
	</linearGradient>
	<path fill="url(#SVGID_26_)" d="M53.751,36.357c0,0.066-0.054,0.12-0.12,0.12h-4.119v11.284h12.974V32.239h-8.735V36.357z
		 M60.41,45.478l-4.31-4.243l-4.31,4.243v-4.602l4.31-3.8l4.31,3.8V45.478z"/>
	<path fill="#969696" d="M53.583,32l-0.035,0.035l0,0l-4.238,4.238l0,0l-0.035,0.035V48h13.452V32H53.583z M49.682,36.238l3.83-3.83
		v3.83H49.682z M62.487,47.761H49.513V36.477h4.119c0.066,0,0.12-0.053,0.12-0.12v-4.118h8.735V47.761z"/>
	
		<linearGradient id="SVGID_27_" gradientUnits="userSpaceOnUse" x1="772.627" y1="727.5322" x2="778.7413" y2="744.332" gradientTransform="matrix(1 0 0 1 -721.5 -694.5)">
		<stop  offset="0.5" style="stop-color:#FFFFFF"/>
		<stop  offset="1" style="stop-color:#E9E9E9"/>
	</linearGradient>
	<polygon fill="url(#SVGID_27_)" points="49.682,36.238 53.512,36.238 53.512,32.408 	"/>
	
		<linearGradient id="SVGID_28_" gradientUnits="userSpaceOnUse" x1="772.627" y1="727.5322" x2="773.9888" y2="731.2746" gradientTransform="matrix(1 0 0 1 -721.5 -694.5)">
		<stop  offset="0" style="stop-color:#FFFFFF"/>
		<stop  offset="1" style="stop-color:#E8E8E8"/>
	</linearGradient>
	<polygon fill="url(#SVGID_28_)" points="49.682,36.238 53.512,36.238 53.512,32.408 	"/>
	
		<linearGradient id="SVGID_29_" gradientUnits="userSpaceOnUse" x1="773.8564" y1="727.082" x2="779.9717" y2="743.8835" gradientTransform="matrix(1 0 0 1 -721.5 -694.5)">
		<stop  offset="0.5" style="stop-color:#FFFFFF"/>
		<stop  offset="1" style="stop-color:#E9E9E9"/>
	</linearGradient>
	<polygon fill="url(#SVGID_29_)" points="52.109,41.02 52.109,44.717 56.1,40.788 60.091,44.717 60.091,41.02 56.1,37.5 	"/>
	
		<linearGradient id="SVGID_30_" gradientUnits="userSpaceOnUse" x1="777.6006" y1="731.7871" x2="777.6006" y2="739.5969" gradientTransform="matrix(1 0 0 1 -721.5 -694.5)">
		<stop  offset="0" style="stop-color:#3F9D38"/>
		<stop  offset="1" style="stop-color:#317E3B"/>
	</linearGradient>
	<polygon fill="url(#SVGID_30_)" points="52.109,41.02 52.109,44.717 56.1,40.788 60.091,44.717 60.091,41.02 56.1,37.5 	"/>
	<path fill="#225E26" d="M51.791,40.875v4.602l4.31-4.243l4.31,4.243v-4.602l-4.31-3.8L51.791,40.875z M60.091,44.717L56.1,40.788
		l-3.991,3.929V41.02L56.1,37.5l3.991,3.52V44.717z"/>
</g>
<g>
	<polygon fill="#676767" points="8.415,65.245 1.886,65.245 8.537,71.999 1.886,78.755 8.415,78.755 14.373,71.999 	"/>
	<path fill="#353534" d="M8.526,65H1.301l6.892,6.999L1.301,79h7.225l6.173-7.001L8.526,65z M1.886,78.755l6.651-6.756l-6.651-6.754
		h6.529l5.958,6.754l-5.958,6.756H1.886z"/>
</g>
<g>
	<polygon fill="#676767" points="17.242,65.846 17.242,71.698 24,78.352 30.758,71.698 30.758,65.846 24,71.807 	"/>
	<path fill="#353534" d="M24,71.482l-7-6.174V71.8l7,6.892l6.963-6.854L31,71.8v-6.491L24,71.482z M30.758,71.698L24,78.352
		L17.242,71.7v-5.854L24,71.807l6.758-5.961V71.698z"/>
</g>
<g>
	<g>
		<g>
			<polygon fill="#3C3C3B" points="90.947,1.115 90.947,2.915 85.053,2.915 85.053,1.115 81.781,1.115 81.781,15.951 94.219,15.951 
				94.219,1.115 			"/>
			<path fill="#1D1D1B" d="M94.268,16H81.732V1.066h3.369v1.8h5.797v-1.8h3.369V16L94.268,16z M81.83,15.902h12.34V1.164h-3.176
				v1.799h-5.99V1.164H81.83V15.902z"/>
		</g>
		<g>
			
				<linearGradient id="SVGID_31_" gradientUnits="userSpaceOnUse" x1="806.582" y1="695.0186" x2="812.4161" y2="711.0475" gradientTransform="matrix(1 0 0 1 -721.5 -694.5)">
				<stop  offset="0" style="stop-color:#FFFFFF"/>
				<stop  offset="1" style="stop-color:#ECECEC"/>
			</linearGradient>
			<polygon fill="url(#SVGID_31_)" points="90.762,1.579 90.762,3.266 85.236,3.266 85.236,1.579 82.17,1.579 82.17,15.488 
				93.83,15.488 93.83,1.579 			"/>
			<path fill="#9D9D9C" d="M93.902,15.561H82.098V1.506h3.213v1.687h5.379V1.506h3.213V15.561L93.902,15.561z M82.242,15.415h11.516
				V1.651h-2.924v1.687h-5.67V1.651h-2.922V15.415z"/>
		</g>
		<rect x="83.6" y="4.977" fill="#BD1622" width="0.514" height="0.513"/>
		<rect x="83.6" y="6.786" fill="#BD1622" width="0.514" height="0.513"/>
		<rect x="83.6" y="8.594" fill="#BD1622" width="0.514" height="0.514"/>
		<rect x="83.6" y="10.404" fill="#BD1622" width="0.514" height="0.513"/>
		<rect x="83.6" y="12.212" fill="#BD1622" width="0.514" height="0.514"/>
	</g>
	<g>
		<g>
			
				<linearGradient id="SVGID_32_" gradientUnits="userSpaceOnUse" x1="806.3887" y1="694.0957" x2="812.6118" y2="711.1937" gradientTransform="matrix(1 0 0 1 -721.5 -694.5)">
				<stop  offset="0" style="stop-color:#9D9D9C"/>
				<stop  offset="1" style="stop-color:#3C3C3B"/>
			</linearGradient>
			<polygon fill="url(#SVGID_32_)" points="90.947,0.727 90.947,2.526 85.053,2.526 85.053,0.727 81.781,0.727 81.781,15.563 
				94.219,15.563 94.219,0.727 			"/>
			<path fill="#6F6F6F" d="M94.268,15.611H81.732V0.678h3.369v1.799h5.797V0.678h3.369V15.611L94.268,15.611z M81.83,15.515h12.34
				V0.775h-3.176v1.799h-5.99V0.775H81.83V15.515z"/>
		</g>
		<g>
			
				<linearGradient id="SVGID_33_" gradientUnits="userSpaceOnUse" x1="806.9121" y1="695.4092" x2="812.4576" y2="710.6452" gradientTransform="matrix(1 0 0 1 -721.5 -694.5)">
				<stop  offset="0" style="stop-color:#FFFFFF"/>
				<stop  offset="1" style="stop-color:#F5F5F5"/>
			</linearGradient>
			<path fill="url(#SVGID_33_)" d="M90.762,1.19v1.687h-5.525V1.19h-0.596L82.17,3.827c0,0,0,8.452,0,11.02
				c5.574,0,11.66,0.253,11.66,0.253V1.19H90.762z"/>
			<path fill="#9D9D9C" d="M93.902,15.176l-0.074-0.003c-0.061-0.002-6.148-0.253-11.658-0.253h-0.072V3.798l2.51-2.681h0.703v1.687
				h5.379V1.117h3.213V15.176L93.902,15.176z M82.242,14.774c5.16,0.001,10.799,0.221,11.516,0.25V1.263h-2.924V2.95h-5.67V1.263
				h-0.492l-2.43,2.592V14.774z"/>
		</g>
		<rect x="83.6" y="4.588" fill="#BD1622" width="0.514" height="0.513"/>
		<rect x="83.6" y="6.397" fill="#BD1622" width="0.514" height="0.513"/>
		<rect x="83.6" y="8.206" fill="#BD1622" width="0.514" height="0.514"/>
		<rect x="83.6" y="10.015" fill="#BD1622" width="0.514" height="0.513"/>
		<rect x="83.6" y="11.824" fill="#BD1622" width="0.514" height="0.513"/>
		<g>
			
				<linearGradient id="SVGID_34_" gradientUnits="userSpaceOnUse" x1="804.5859" y1="696.2354" x2="805.425" y2="698.5405" gradientTransform="matrix(1 0 0 1 -721.5 -694.5)">
				<stop  offset="0" style="stop-color:#FFFFFF"/>
				<stop  offset="1" style="stop-color:#EBEBEB"/>
			</linearGradient>
			<polygon fill="url(#SVGID_34_)" points="84.576,1.191 82.15,3.802 84.576,3.802 			"/>
			<path fill="#9D9D9C" d="M84.576,3.875H82.15c-0.029,0-0.055-0.017-0.066-0.043c-0.012-0.027-0.006-0.058,0.014-0.079l2.426-2.611
				c0.021-0.022,0.056-0.029,0.08-0.018c0.027,0.011,0.047,0.038,0.047,0.068v2.611C84.65,3.842,84.617,3.875,84.576,3.875z
				 M82.318,3.729h2.186V1.376L82.318,3.729z"/>
		</g>
	</g>
	<g>
		<polygon fill="#6F6F6E" points="92.105,4.723 92.105,5.193 91.412,5.193 91.412,4.899 91.355,4.846 91.355,5.25 92.162,5.25 
			92.162,4.661 		"/>
		<polygon fill="#6F6F6E" points="91.412,4.481 92.068,4.481 92.135,4.425 91.355,4.425 91.355,4.654 91.412,4.618 		"/>
		<polygon fill="#BD1622" points="91.518,4.616 91.326,4.74 91.697,5.092 92.535,4.163 91.711,4.854 		"/>
	</g>
	<g>
		<polygon fill="#6F6F6E" points="92.105,6.533 92.105,7.004 91.412,7.004 91.412,6.71 91.355,6.656 91.355,7.06 92.162,7.06 
			92.162,6.471 		"/>
		<polygon fill="#6F6F6E" points="91.412,6.292 92.068,6.292 92.135,6.235 91.355,6.235 91.355,6.464 91.412,6.428 		"/>
		<polygon fill="#BD1622" points="91.518,6.426 91.326,6.55 91.697,6.903 92.535,5.974 91.711,6.665 		"/>
	</g>
	<g>
		<polygon fill="#6F6F6E" points="92.105,8.295 92.105,8.766 91.412,8.766 91.412,8.472 91.355,8.418 91.355,8.822 92.162,8.822 
			92.162,8.232 		"/>
		<polygon fill="#6F6F6E" points="91.412,8.053 92.068,8.053 92.135,7.998 91.355,7.998 91.355,8.226 91.412,8.19 		"/>
		<polygon fill="#BD1622" points="91.518,8.188 91.326,8.312 91.697,8.665 92.535,7.735 91.711,8.427 		"/>
	</g>
	<g>
		<path fill="#6F6F6E" d="M92.152,10.679h-0.805V9.882h0.805V10.679z M91.42,10.606h0.66V9.954h-0.66V10.606z"/>
	</g>
	<g>
		<path fill="#6F6F6E" d="M92.152,12.498h-0.805V11.7h0.805V12.498z M91.42,12.425h0.66v-0.652h-0.66V12.425z"/>
	</g>
	<g>
		<polygon fill="#A42423" points="90.723,2.798 85.301,2.798 85.051,2.239 90.918,2.239 		"/>
		<path fill="#801D18" d="M90.723,2.847h-5.422c-0.02,0-0.037-0.012-0.045-0.029l-0.25-0.56C85,2.244,85,2.227,85.01,2.213
			c0.01-0.014,0.025-0.022,0.041-0.022h5.867c0.016,0,0.029,0.007,0.039,0.021c0.01,0.013,0.012,0.029,0.006,0.044L90.77,2.814
			C90.762,2.834,90.744,2.847,90.723,2.847z M85.332,2.75h5.357l0.16-0.462h-5.728L85.332,2.75z"/>
	</g>
	<g>
		
			<linearGradient id="SVGID_35_" gradientUnits="userSpaceOnUse" x1="806.5508" y1="695.6436" x2="812.418" y2="695.6436" gradientTransform="matrix(1 0 0 1 -721.5 -694.5)">
			<stop  offset="0" style="stop-color:#E30613"/>
			<stop  offset="1" style="stop-color:#BE1622"/>
		</linearGradient>
		<rect x="85.051" y="0.048" fill="url(#SVGID_35_)" width="5.867" height="2.191"/>
		<path fill="#801D18" d="M90.918,2.288h-5.867c-0.027,0-0.049-0.021-0.049-0.048V0.048C85.002,0.022,85.023,0,85.051,0h5.867
			c0.025,0,0.047,0.022,0.047,0.048v2.191C90.965,2.266,90.943,2.288,90.918,2.288z M85.1,2.191h5.771V0.097H85.1V2.191z"/>
	</g>
	<g>
		<path fill="#3C3C3B" d="M84.838,6.478c-0.035,0-0.062,0.014-0.08,0.042c-0.02,0.028-0.029,0.067-0.029,0.117
			c0,0.104,0.039,0.155,0.117,0.155c0.023,0,0.047-0.003,0.068-0.01c0.023-0.007,0.045-0.015,0.068-0.024V6.88
			c-0.045,0.02-0.099,0.03-0.152,0.03c-0.08,0-0.143-0.023-0.186-0.07c-0.043-0.047-0.064-0.115-0.064-0.203
			c0-0.056,0.01-0.104,0.031-0.146c0.02-0.042,0.051-0.074,0.09-0.097S84.787,6.36,84.84,6.36c0.057,0,0.113,0.013,0.166,0.038
			l-0.045,0.114c-0.02-0.009-0.039-0.017-0.059-0.023C84.881,6.481,84.859,6.478,84.838,6.478z"/>
		<path fill="#3C3C3B" d="M85.545,6.903H85.4V6.685h-0.168v0.219h-0.146V6.367h0.146v0.198H85.4V6.367h0.145V6.903z"/>
		<path fill="#3C3C3B" d="M85.979,6.903H85.66V6.367h0.318v0.116h-0.172v0.084h0.157v0.117h-0.157v0.101h0.172V6.903L85.979,6.903z"
			/>
		<path fill="#3C3C3B" d="M86.312,6.478c-0.035,0-0.062,0.014-0.082,0.042c-0.021,0.028-0.027,0.067-0.027,0.117
			c0,0.104,0.039,0.155,0.117,0.155c0.021,0,0.047-0.003,0.068-0.01c0.021-0.007,0.045-0.015,0.065-0.024V6.88
			c-0.045,0.02-0.099,0.03-0.149,0.03c-0.08,0-0.146-0.023-0.188-0.07c-0.043-0.047-0.062-0.115-0.062-0.203
			c0-0.056,0.01-0.104,0.028-0.146s0.051-0.074,0.09-0.097S86.26,6.36,86.314,6.36c0.057,0,0.11,0.013,0.166,0.038l-0.045,0.114
			c-0.021-0.009-0.039-0.017-0.062-0.023C86.355,6.481,86.334,6.478,86.312,6.478z"/>
		<path fill="#3C3C3B" d="M87.018,6.903h-0.162L86.75,6.698l-0.043,0.026v0.179h-0.146V6.367h0.146V6.6
			c0.006-0.015,0.021-0.037,0.043-0.069l0.113-0.164h0.158l-0.168,0.24L87.018,6.903z"/>
		<path fill="#3C3C3B" d="M87.508,6.903h-0.145V6.485h-0.131V6.367h0.406v0.118h-0.134L87.508,6.903L87.508,6.903z"/>
		<path fill="#3C3C3B" d="M88.174,6.903h-0.145V6.685h-0.168v0.219h-0.146V6.367h0.146v0.198h0.168V6.367h0.145V6.903z"/>
		<path fill="#3C3C3B" d="M88.609,6.903h-0.318V6.367h0.318v0.116h-0.174v0.084h0.16v0.117h-0.16v0.101h0.174V6.903z"/>
		<path fill="#3C3C3B" d="M89.041,6.903h-0.143V6.367h0.313v0.116H89.04v0.102h0.16v0.116h-0.16L89.041,6.903L89.041,6.903z"/>
		<path fill="#3C3C3B" d="M89.303,6.903V6.367h0.146v0.536H89.303z"/>
		<path fill="#3C3C3B" d="M89.709,6.708v0.195h-0.145V6.367h0.176c0.145,0,0.219,0.053,0.219,0.159c0,0.062-0.031,0.11-0.092,0.144
			l0.156,0.233h-0.164l-0.113-0.195H89.709z M89.709,6.599h0.027c0.051,0,0.076-0.022,0.076-0.067c0-0.037-0.025-0.055-0.074-0.055
			h-0.029V6.599z"/>
		<path fill="#3C3C3B" d="M90.422,6.74c0,0.033-0.008,0.062-0.025,0.088c-0.016,0.026-0.041,0.046-0.069,0.061
			c-0.031,0.014-0.07,0.021-0.111,0.021c-0.036,0-0.063-0.002-0.09-0.007c-0.022-0.005-0.051-0.014-0.076-0.026V6.748
			c0.027,0.014,0.06,0.025,0.087,0.033c0.028,0.008,0.059,0.012,0.081,0.012c0.021,0,0.037-0.004,0.052-0.011
			c0.008-0.007,0.014-0.017,0.014-0.029c0-0.007-0.002-0.014-0.006-0.019c-0.004-0.006-0.01-0.011-0.021-0.017
			c-0.01-0.006-0.031-0.017-0.068-0.035c-0.035-0.016-0.062-0.031-0.08-0.046c-0.018-0.015-0.028-0.032-0.039-0.051
			c-0.008-0.02-0.014-0.042-0.014-0.069c0-0.049,0.021-0.087,0.057-0.115c0.035-0.027,0.084-0.042,0.146-0.042
			c0.059,0,0.113,0.013,0.17,0.039L90.38,6.51c-0.051-0.022-0.094-0.034-0.131-0.034c-0.019,0-0.031,0.003-0.041,0.01
			C90.2,6.493,90.195,6.501,90.195,6.51c0,0.011,0.005,0.021,0.017,0.028c0.011,0.008,0.041,0.023,0.088,0.046
			c0.048,0.021,0.078,0.042,0.099,0.067C90.414,6.674,90.422,6.704,90.422,6.74z"/>
		<path fill="#3C3C3B" d="M90.742,6.903h-0.145V6.485h-0.134V6.367h0.406v0.118h-0.13L90.742,6.903L90.742,6.903z"/>
	</g>
	<g>
		<path fill="#3C3C3B" d="M85.055,8.212v0.323c0,0.069-0.02,0.124-0.061,0.162c-0.039,0.039-0.096,0.058-0.172,0.058
			c-0.072,0-0.129-0.019-0.168-0.056c-0.039-0.037-0.059-0.091-0.059-0.162V8.212h0.146v0.314c0,0.038,0.006,0.065,0.021,0.083
			c0.016,0.017,0.036,0.026,0.063,0.026c0.028,0,0.051-0.008,0.063-0.025c0.014-0.017,0.021-0.045,0.021-0.083V8.212H85.055
			L85.055,8.212z"/>
		<path fill="#3C3C3B" d="M85.518,8.585c0,0.033-0.008,0.063-0.022,0.089c-0.021,0.025-0.041,0.045-0.072,0.06
			c-0.03,0.015-0.067,0.022-0.11,0.022c-0.035,0-0.064-0.003-0.092-0.008c-0.021-0.005-0.05-0.014-0.072-0.026v-0.13
			c0.024,0.014,0.057,0.025,0.086,0.033c0.026,0.007,0.057,0.012,0.082,0.012c0.021,0,0.037-0.004,0.047-0.011
			s0.016-0.017,0.016-0.029c0-0.007-0.002-0.014-0.006-0.019s-0.01-0.011-0.02-0.017c-0.013-0.005-0.033-0.017-0.072-0.034
			c-0.035-0.016-0.062-0.031-0.078-0.046c-0.02-0.015-0.031-0.032-0.041-0.051c-0.008-0.019-0.012-0.042-0.012-0.069
			c0-0.049,0.018-0.088,0.053-0.115c0.037-0.027,0.086-0.042,0.148-0.042c0.057,0,0.11,0.013,0.17,0.039l-0.043,0.112
			c-0.054-0.023-0.097-0.035-0.131-0.035c-0.021,0-0.033,0.003-0.041,0.01c-0.013,0.006-0.017,0.015-0.017,0.025
			c0,0.01,0.006,0.02,0.021,0.028c0.01,0.008,0.039,0.024,0.088,0.046c0.047,0.021,0.078,0.043,0.096,0.067
			C85.51,8.519,85.518,8.549,85.518,8.585z"/>
		<path fill="#3C3C3B" d="M85.918,8.748H85.6V8.212h0.318v0.116h-0.172v0.085h0.16v0.116h-0.16V8.63h0.172V8.748z"/>
		<path fill="#3C3C3B" d="M86.508,8.212h0.162l-0.176,0.536h-0.17L86.15,8.212h0.162l0.069,0.271
			c0.019,0.06,0.022,0.102,0.025,0.126c0.002-0.017,0.006-0.038,0.01-0.064c0.006-0.025,0.013-0.046,0.017-0.061L86.508,8.212z"/>
		<path fill="#3C3C3B" d="M86.717,8.229c0-0.021,0.006-0.038,0.018-0.048c0.015-0.01,0.031-0.016,0.062-0.016
			s0.045,0.005,0.062,0.016c0.012,0.011,0.018,0.027,0.018,0.048c0,0.042-0.025,0.062-0.076,0.062S86.717,8.271,86.717,8.229z
			 M86.863,8.748h-0.143V8.333h0.143V8.748z"/>
		<path fill="#3C3C3B" d="M87.428,8.212v0.323c0,0.069-0.02,0.124-0.059,0.162c-0.039,0.039-0.098,0.058-0.172,0.058
			s-0.129-0.019-0.17-0.056c-0.037-0.037-0.057-0.091-0.057-0.162V8.212h0.145v0.314c0,0.038,0.008,0.065,0.021,0.083
			c0.012,0.018,0.032,0.026,0.062,0.026c0.028,0,0.051-0.008,0.063-0.025c0.014-0.017,0.021-0.045,0.021-0.083V8.212H87.428
			L87.428,8.212z"/>
		<path fill="#3C3C3B" d="M87.686,8.553v0.195h-0.145V8.212h0.176c0.146,0,0.219,0.053,0.219,0.158c0,0.062-0.031,0.11-0.092,0.144
			L88,8.748h-0.164l-0.113-0.195H87.686z M87.686,8.444h0.027c0.051,0,0.076-0.022,0.076-0.067c0-0.037-0.025-0.055-0.074-0.055
			h-0.029V8.444z"/>
	</g>
	<g>
		<path fill="#3C3C3B" d="M84.916,10.56h-0.318v-0.536h0.318v0.116h-0.172v0.085h0.16v0.116h-0.16v0.101h0.172V10.56z"/>
		<path fill="#3C3C3B" d="M85.494,10.56h-0.168l-0.104-0.167l-0.104,0.167h-0.164l0.178-0.274l-0.168-0.262h0.162l0.097,0.166
			l0.094-0.166h0.164l-0.17,0.273L85.494,10.56z"/>
		<path fill="#3C3C3B" d="M85.871,10.56h-0.318v-0.536h0.318v0.116h-0.172v0.085h0.16v0.116h-0.16v0.101h0.172V10.56z"/>
		<path fill="#3C3C3B" d="M86.205,10.135c-0.035,0-0.062,0.015-0.08,0.042c-0.02,0.028-0.029,0.067-0.029,0.116
			c0,0.104,0.039,0.155,0.117,0.155c0.023,0,0.047-0.003,0.068-0.01c0.023-0.006,0.045-0.015,0.068-0.023v0.122
			c-0.045,0.02-0.099,0.03-0.152,0.03c-0.08,0-0.143-0.023-0.186-0.07c-0.046-0.047-0.064-0.115-0.064-0.204
			c0-0.055,0.01-0.104,0.031-0.146c0.021-0.042,0.051-0.075,0.09-0.097s0.086-0.034,0.139-0.034c0.057,0,0.113,0.012,0.166,0.038
			l-0.045,0.114c-0.02-0.009-0.039-0.017-0.059-0.023C86.248,10.139,86.227,10.135,86.205,10.135z"/>
		<path fill="#3C3C3B" d="M86.793,10.365v0.195h-0.145v-0.536h0.176c0.145,0,0.219,0.053,0.219,0.158
			c0,0.062-0.031,0.11-0.092,0.145l0.156,0.233h-0.164l-0.113-0.195H86.793z M86.793,10.256h0.027c0.051,0,0.076-0.022,0.076-0.067
			c0-0.037-0.025-0.056-0.074-0.056h-0.029V10.256z"/>
		<path fill="#3C3C3B" d="M87.475,10.56h-0.315v-0.536h0.315v0.116h-0.174v0.085h0.162v0.116h-0.162v0.101h0.174V10.56L87.475,10.56
			z"/>
		<path fill="#3C3C3B" d="M88.07,10.292c0,0.122-0.039,0.204-0.117,0.246l0.133,0.151h-0.182l-0.094-0.119h-0.002l0,0l0,0
			c-0.084,0-0.148-0.023-0.193-0.07c-0.043-0.048-0.066-0.116-0.066-0.207c0-0.088,0.021-0.157,0.066-0.204s0.109-0.07,0.195-0.07
			c0.084,0,0.147,0.023,0.19,0.07C88.047,10.133,88.07,10.202,88.07,10.292z M87.701,10.292c0,0.104,0.035,0.155,0.107,0.155
			c0.037,0,0.062-0.013,0.082-0.038c0.018-0.025,0.024-0.064,0.024-0.118s-0.011-0.093-0.024-0.119
			c-0.021-0.026-0.045-0.038-0.08-0.038C87.738,10.135,87.701,10.187,87.701,10.292z"/>
		<path fill="#3C3C3B" d="M88.623,10.025v0.322c0,0.07-0.02,0.125-0.059,0.164c-0.041,0.038-0.101,0.057-0.174,0.057
			c-0.072,0-0.129-0.019-0.168-0.056c-0.039-0.037-0.062-0.091-0.062-0.161v-0.326h0.146v0.314c0,0.038,0.008,0.065,0.021,0.083
			c0.018,0.017,0.035,0.026,0.062,0.026c0.03,0,0.053-0.009,0.063-0.025c0.014-0.017,0.021-0.045,0.021-0.083v-0.313L88.623,10.025
			L88.623,10.025z"/>
		<path fill="#3C3C3B" d="M89.053,10.56h-0.316v-0.536h0.316v0.116h-0.172v0.085h0.16v0.116h-0.16v0.101h0.172V10.56z"/>
		<path fill="#3C3C3B" d="M89.498,10.397c0,0.033-0.008,0.063-0.025,0.089c-0.017,0.026-0.041,0.046-0.072,0.06
			c-0.03,0.015-0.067,0.021-0.11,0.021c-0.035,0-0.062-0.003-0.09-0.007c-0.023-0.005-0.052-0.014-0.074-0.026v-0.13
			c0.024,0.014,0.058,0.025,0.086,0.033c0.029,0.008,0.06,0.012,0.082,0.012c0.021,0,0.037-0.003,0.047-0.011
			c0.013-0.008,0.019-0.017,0.019-0.029c0-0.006-0.002-0.013-0.006-0.019c-0.008-0.005-0.015-0.011-0.021-0.017
			c-0.012-0.005-0.033-0.017-0.07-0.035c-0.035-0.016-0.062-0.031-0.078-0.046c-0.02-0.015-0.029-0.032-0.039-0.05
			c-0.01-0.02-0.014-0.043-0.014-0.069c0-0.049,0.02-0.088,0.055-0.115c0.035-0.028,0.086-0.042,0.146-0.042
			c0.059,0,0.111,0.013,0.17,0.039l-0.045,0.111c-0.051-0.023-0.094-0.034-0.129-0.034c-0.021,0-0.033,0.003-0.041,0.01
			c-0.01,0.006-0.016,0.015-0.016,0.024c0,0.011,0.006,0.02,0.02,0.028c0.01,0.008,0.039,0.023,0.088,0.045
			c0.045,0.021,0.078,0.043,0.098,0.067C89.488,10.332,89.498,10.361,89.498,10.397z"/>
		<path fill="#3C3C3B" d="M89.816,10.56H89.67v-0.417h-0.13v-0.119h0.405v0.119h-0.131v0.417H89.816z"/>
	</g>
	<g>
		<path fill="#3C3C3B" d="M84.742,12.341H84.6v-0.536h0.316v0.116h-0.174v0.102h0.16v0.116h-0.16V12.341L84.742,12.341z"/>
		<path fill="#3C3C3B" d="M85.322,12.341h-0.318v-0.536h0.318v0.116h-0.174v0.084h0.16v0.116h-0.16v0.101h0.174V12.341z"/>
		<path fill="#3C3C3B" d="M85.734,12.341h-0.318v-0.536h0.318v0.116h-0.174v0.084h0.16v0.116h-0.16v0.101h0.174V12.341z"/>
		<path fill="#3C3C3B" d="M85.828,12.341v-0.536h0.145v0.418h0.207v0.118H85.828z"/>
		<path fill="#3C3C3B" d="M86.695,12.341H86.55v-0.418h-0.13v-0.118h0.406v0.118h-0.131V12.341z"/>
		<path fill="#3C3C3B" d="M87.363,12.341h-0.146v-0.218h-0.168v0.218h-0.146v-0.536h0.146v0.199h0.168v-0.199h0.146V12.341z"/>
		<path fill="#3C3C3B" d="M87.797,12.341h-0.318v-0.536h0.318v0.116h-0.174v0.084h0.162v0.116h-0.162v0.101h0.174V12.341z"/>
		<path fill="#3C3C3B" d="M88.32,12.341l-0.111-0.386h-0.002c0.004,0.066,0.008,0.117,0.008,0.153v0.233h-0.129v-0.536h0.193
			l0.111,0.38h0.002l0.106-0.38h0.192v0.536h-0.133v-0.235c0-0.012,0-0.025,0-0.041c0-0.015,0.002-0.051,0.004-0.11h-0.002
			l-0.106,0.386H88.32z"/>
		<path fill="#3C3C3B" d="M89.141,12.341l-0.022-0.101h-0.179l-0.022,0.101h-0.16l0.177-0.538h0.192l0.176,0.538H89.141z
			 M89.084,12.122l-0.023-0.088c-0.004-0.02-0.012-0.046-0.02-0.077c-0.006-0.031-0.012-0.053-0.014-0.066
			c-0.004,0.012-0.008,0.033-0.014,0.062c-0.011,0.028-0.021,0.085-0.043,0.169H89.084L89.084,12.122z"/>
		<path fill="#3C3C3B" d="M89.572,12.027h0.232v0.288c-0.064,0.021-0.136,0.033-0.207,0.033c-0.084,0-0.148-0.024-0.193-0.072
			c-0.045-0.048-0.066-0.117-0.066-0.205c0-0.087,0.023-0.154,0.072-0.202c0.051-0.048,0.119-0.072,0.209-0.072
			c0.033,0,0.064,0.003,0.096,0.01c0.029,0.006,0.055,0.014,0.078,0.024l-0.047,0.114c-0.037-0.019-0.08-0.029-0.127-0.029
			c-0.043,0-0.074,0.014-0.098,0.042c-0.024,0.028-0.035,0.067-0.035,0.118c0,0.05,0.012,0.088,0.031,0.114
			c0.021,0.026,0.051,0.039,0.09,0.039c0.021,0,0.041-0.002,0.061-0.006v-0.084h-0.096V12.027L89.572,12.027z"/>
		<path fill="#3C3C3B" d="M89.912,12.341v-0.536h0.146v0.536H89.912z"/>
		<path fill="#3C3C3B" d="M90.412,11.915c-0.033,0-0.061,0.015-0.08,0.042c-0.02,0.029-0.029,0.068-0.029,0.117
			c0,0.103,0.039,0.154,0.119,0.154c0.023,0,0.047-0.003,0.068-0.01c0.021-0.006,0.045-0.015,0.066-0.023v0.122
			c-0.045,0.02-0.099,0.03-0.15,0.03c-0.082,0-0.145-0.023-0.188-0.07c-0.043-0.047-0.063-0.115-0.063-0.204
			c0-0.056,0.014-0.104,0.031-0.146c0.021-0.042,0.053-0.074,0.09-0.097c0.041-0.022,0.086-0.034,0.141-0.034
			c0.061,0,0.111,0.013,0.166,0.038l-0.043,0.114c-0.021-0.009-0.041-0.017-0.062-0.023C90.457,11.918,90.436,11.915,90.412,11.915z
			"/>
	</g>
	<g>
		<path fill="#3C3C3B" d="M84.832,5.115l-0.109-0.386h-0.004c0.006,0.066,0.008,0.117,0.008,0.153v0.233h-0.129V4.578h0.193
			l0.113,0.381h0.002l0.109-0.381h0.19v0.537h-0.133V4.88c0-0.013,0-0.026,0-0.041c0.002-0.015,0.004-0.051,0.006-0.109h-0.004
			l-0.104,0.386L84.832,5.115L84.832,5.115z"/>
		<path fill="#3C3C3B" d="M85.654,5.115l-0.025-0.1h-0.176l-0.025,0.1h-0.16l0.176-0.539h0.193l0.176,0.539H85.654z M85.598,4.896
			l-0.021-0.088c-0.007-0.02-0.015-0.045-0.021-0.076c-0.008-0.031-0.014-0.053-0.016-0.066c-0.004,0.012-0.008,0.033-0.014,0.062
			s-0.021,0.085-0.043,0.169L85.598,4.896L85.598,4.896z"/>
		<path fill="#3C3C3B" d="M86.33,5.115h-0.164L86.061,4.91l-0.043,0.025v0.179h-0.146V4.578h0.146v0.233
			c0.006-0.015,0.021-0.037,0.043-0.069l0.113-0.165h0.158l-0.17,0.241L86.33,5.115z"/>
		<path fill="#3C3C3B" d="M86.705,5.115h-0.318V4.578h0.318v0.117h-0.172v0.084h0.16v0.116h-0.16v0.102h0.172V5.115z"/>
		<path fill="#3C3C3B" d="M87.324,5.115l-0.025-0.1h-0.176l-0.025,0.1h-0.16l0.176-0.539h0.191l0.178,0.539H87.324z M87.268,4.896
			l-0.021-0.088c-0.009-0.02-0.015-0.045-0.021-0.076c-0.009-0.031-0.013-0.053-0.015-0.066c-0.004,0.012-0.008,0.033-0.014,0.062
			c-0.009,0.029-0.021,0.085-0.044,0.169L87.268,4.896L87.268,4.896z"/>
		<path fill="#3C3C3B" d="M87.736,5.115V4.578h0.145v0.419h0.207v0.117L87.736,5.115L87.736,5.115z"/>
		<path fill="#3C3C3B" d="M88.174,5.115V4.578h0.145v0.537H88.174z"/>
		<path fill="#3C3C3B" d="M88.787,4.952c0,0.033-0.01,0.063-0.025,0.089c-0.018,0.025-0.041,0.045-0.074,0.06
			c-0.028,0.014-0.065,0.021-0.108,0.021c-0.035,0-0.063-0.002-0.093-0.008c-0.022-0.005-0.051-0.014-0.073-0.026V4.959
			c0.024,0.015,0.058,0.026,0.086,0.033C88.525,5,88.559,5.004,88.58,5.004S88.617,5,88.629,4.993
			c0.012-0.007,0.016-0.017,0.016-0.029c0-0.007-0.002-0.014-0.006-0.019c-0.006-0.006-0.012-0.011-0.021-0.017
			c-0.011-0.006-0.031-0.018-0.07-0.035c-0.032-0.015-0.062-0.031-0.077-0.046c-0.019-0.015-0.029-0.032-0.037-0.052
			c-0.013-0.02-0.017-0.042-0.017-0.068c0-0.049,0.021-0.088,0.058-0.116c0.032-0.027,0.086-0.042,0.146-0.042
			c0.055,0,0.108,0.013,0.17,0.039L88.743,4.72c-0.052-0.022-0.095-0.034-0.13-0.034c-0.021,0-0.032,0.003-0.043,0.01
			c-0.008,0.006-0.012,0.015-0.012,0.024c0,0.011,0.006,0.02,0.017,0.028c0.012,0.008,0.041,0.024,0.088,0.046
			c0.047,0.021,0.08,0.043,0.099,0.067C88.777,4.886,88.787,4.916,88.787,4.952z"/>
		<path fill="#3C3C3B" d="M89.105,5.115H88.96V4.697h-0.13V4.578h0.406v0.119h-0.131V5.115z"/>
	</g>
</g>
<g>
	<polygon fill="#6F6F6E" points="123.088,27.484 123.088,31.521 117.146,31.521 117.146,28.999 116.662,28.543 116.662,32 
		123.564,32 123.564,26.954 	"/>
	<polygon fill="#6F6F6E" points="117.146,25.416 122.766,25.416 123.337,24.935 116.662,24.935 116.662,26.895 117.146,26.586 	"/>
	<g>
		
			<linearGradient id="SVGID_36_" gradientUnits="userSpaceOnUse" x1="980.4004" y1="1629.584" x2="990.7676" y2="1629.584" gradientTransform="matrix(1 0 0 1 -864 -1603)">
			<stop  offset="0" style="stop-color:#009EE2"/>
			<stop  offset="1" style="stop-color:#00416E"/>
		</linearGradient>
		<polygon fill="url(#SVGID_36_)" points="118.055,26.488 116.4,27.547 119.588,30.569 126.768,22.6 119.7,28.529 		"/>
		<path fill="#00416E" d="M119.6,30.921L116,27.51l2.105-1.347l1.627,2.016l6.877-5.767l0.341,0.355L119.6,30.921z M116.8,27.586
			l2.769,2.63l4.65-5.161l-4.562,3.823l-1.66-2.063L116.8,27.586z"/>
	</g>
</g>
<g>
	<path fill="#6F6F6E" d="M123.495,22.833h-6.913V16h6.913V22.833z M117.207,22.21h5.665v-5.589h-5.665V22.21z"/>
</g>
<g>
	<rect x="32.123" y="68.871" fill="#676767" width="15.754" height="6.883"/>
	<path fill="#353534" d="M48,75.877H32v-7.129h16V75.877z M32.246,75.631h15.508v-6.637H32.246V75.631z"/>
</g>
</svg>
