<?xml version="1.0" encoding="utf-8"?>
<!-- Generator: Adobe Illustrator 16.0.4, SVG Export Plug-In . SVG Version: 6.00 Build 0)  -->
<!DOCTYPE svg PUBLIC "-//W3C//DTD SVG 1.1//EN" "http://www.w3.org/Graphics/SVG/1.1/DTD/svg11.dtd">
<svg version="1.1" id="Ebene_1" xmlns="http://www.w3.org/2000/svg" xmlns:xlink="http://www.w3.org/1999/xlink" x="0px" y="0px"
	 width="120px" height="24px" viewBox="0 0 120 24" enable-background="new 0 0 120 24" xml:space="preserve">
<g>
	
		<linearGradient id="SVGID_1_" gradientUnits="userSpaceOnUse" x1="901.0557" y1="-1799.0151" x2="901.0557" y2="-1783.2656" gradientTransform="matrix(1 0 0 -1 -864.0547 -1778.1406)">
		<stop  offset="0" style="stop-color:#469B41"/>
		<stop  offset="1" style="stop-color:#288342"/>
	</linearGradient>
	<polygon fill="url(#SVGID_1_)" points="44.875,15.254 44.875,10.746 39.254,10.746 39.254,5.125 34.746,5.125 34.746,10.746 
		29.125,10.746 29.125,15.254 34.746,15.254 34.746,20.875 39.254,20.875 39.254,15.254 	"/>
	<path fill="#22732B" d="M39.379,21h-4.758v-5.621H29v-4.758h5.621V5h4.758v5.621H45v4.758h-5.621V21z M34.871,20.75h4.258v-5.621
		h5.619v-4.258h-5.619V5.25h-4.258v5.621H29.25v4.258h5.621V20.75L34.871,20.75z"/>
</g>
<g>
	<path fill="#888888" d="M67.115,6.891l-2.969-1.997L55.941,13.1l-1.055,6.019l6.016-1.058l8.203-8.207L67.115,6.891z
		 M57.441,17.695l-1.123-1.123l0.318-2.516l2.311,0.938l0.939,2.312L57.441,17.695z"/>
	<path fill="#666666" d="M54.75,19.25l1.088-6.205l0.023-0.025l8.271-8.27l3.074,2.079l2.043,3.038l-8.295,8.296L54.75,19.25z
		 M56.043,13.152l-1.018,5.824l5.822-1.246l7.889-7.895L67.035,6.97L64.16,5.037L56.043,13.152z M57.402,17.812l-1.199-1.199
		l0.342-2.715l2.49,1.011l1.01,2.487L57.402,17.812z M56.438,16.533l1.043,0.816l2.022-0.355l-0.642-1.914l-2.133-0.866
		L56.438,16.533z"/>
</g>
<g>
	<g>
		<g>
			<polygon fill="#3C3C3B" points="15.947,5.115 15.947,6.915 10.054,6.915 10.054,5.115 6.781,5.115 6.781,19.951 19.219,19.951 
				19.219,5.115 			"/>
			<path fill="#1D1D1B" d="M19.268,20H6.732V5.066h3.369v1.8h5.797v-1.8h3.369L19.268,20L19.268,20z M6.83,19.902h12.34V5.164
				h-3.176v1.799h-5.99V5.164H6.83V19.902z"/>
		</g>
		<g>
			
				<linearGradient id="SVGID_2_" gradientUnits="userSpaceOnUse" x1="731.6387" y1="-874.1592" x2="737.4731" y2="-890.189" gradientTransform="matrix(1 0 0 -1 -721.5547 -869.6406)">
				<stop  offset="0" style="stop-color:#FFFFFF"/>
				<stop  offset="1" style="stop-color:#ECECEC"/>
			</linearGradient>
			<polygon fill="url(#SVGID_2_)" points="15.762,5.579 15.762,7.266 10.236,7.266 10.236,5.579 7.17,5.579 7.17,19.488 
				18.83,19.488 18.83,5.579 			"/>
			<path fill="#9D9D9C" d="M18.902,19.561H7.099V5.506h3.213v1.687h5.378V5.506h3.213L18.902,19.561L18.902,19.561z M7.242,19.415
				h11.516V5.651h-2.924v1.687h-5.67V5.651H7.242V19.415z"/>
		</g>
		<rect x="8.601" y="8.977" fill="#BD1622" width="0.514" height="0.513"/>
		<rect x="8.601" y="10.786" fill="#BD1622" width="0.514" height="0.513"/>
		<rect x="8.601" y="12.594" fill="#BD1622" width="0.514" height="0.514"/>
		<rect x="8.601" y="14.404" fill="#BD1622" width="0.514" height="0.512"/>
		<rect x="8.601" y="16.212" fill="#BD1622" width="0.514" height="0.515"/>
	</g>
	<g>
		<g>
			
				<linearGradient id="SVGID_3_" gradientUnits="userSpaceOnUse" x1="731.4443" y1="-873.2358" x2="737.6671" y2="-890.3329" gradientTransform="matrix(1 0 0 -1 -721.5547 -869.6406)">
				<stop  offset="0" style="stop-color:#9D9D9C"/>
				<stop  offset="1" style="stop-color:#3C3C3B"/>
			</linearGradient>
			<polygon fill="url(#SVGID_3_)" points="15.947,4.727 15.947,6.526 10.054,6.526 10.054,4.727 6.781,4.727 6.781,19.562 
				19.219,19.562 19.219,4.727 			"/>
			<path fill="#6F6F6F" d="M19.268,19.611H6.732V4.678h3.369v1.799h5.797V4.678h3.369L19.268,19.611L19.268,19.611z M6.83,19.516
				h12.34V4.775h-3.176v1.799h-5.99V4.775H6.83V19.516z"/>
		</g>
		<g>
			
				<linearGradient id="SVGID_4_" gradientUnits="userSpaceOnUse" x1="731.9688" y1="-874.5488" x2="737.5142" y2="-889.7849" gradientTransform="matrix(1 0 0 -1 -721.5547 -869.6406)">
				<stop  offset="0" style="stop-color:#FFFFFF"/>
				<stop  offset="1" style="stop-color:#F5F5F5"/>
			</linearGradient>
			<path fill="url(#SVGID_4_)" d="M15.762,5.19v1.687h-5.524V5.19H9.642L7.17,7.826c0,0,0,8.453,0,11.02
				c5.574,0,11.66,0.254,11.66,0.254V5.19H15.762z"/>
			<path fill="#9D9D9C" d="M18.902,19.176l-0.074-0.004c-0.06-0.002-6.147-0.252-11.658-0.252H7.099V7.798l2.51-2.681h0.703v1.687
				h5.378V5.117h3.213L18.902,19.176L18.902,19.176z M7.242,18.773c5.16,0.002,10.799,0.222,11.516,0.25V5.263h-2.924V6.95h-5.67
				V5.263H9.672l-2.43,2.592V18.773z"/>
		</g>
		<rect x="8.601" y="8.588" fill="#BD1622" width="0.514" height="0.513"/>
		<rect x="8.601" y="10.397" fill="#BD1622" width="0.514" height="0.513"/>
		<rect x="8.601" y="12.206" fill="#BD1622" width="0.514" height="0.515"/>
		<rect x="8.601" y="14.016" fill="#BD1622" width="0.514" height="0.514"/>
		<rect x="8.601" y="15.824" fill="#BD1622" width="0.514" height="0.513"/>
		<g>
			
				<linearGradient id="SVGID_5_" gradientUnits="userSpaceOnUse" x1="729.6406" y1="-875.375" x2="730.4796" y2="-877.6802" gradientTransform="matrix(1 0 0 -1 -721.5547 -869.6406)">
				<stop  offset="0" style="stop-color:#FFFFFF"/>
				<stop  offset="1" style="stop-color:#EBEBEB"/>
			</linearGradient>
			<polygon fill="url(#SVGID_5_)" points="9.576,5.191 7.15,7.802 9.576,7.802 			"/>
			<path fill="#9D9D9C" d="M9.576,7.875H7.15c-0.029,0-0.055-0.017-0.066-0.043C7.072,7.805,7.078,7.774,7.099,7.753l2.426-2.611
				c0.021-0.022,0.053-0.029,0.08-0.018c0.026,0.011,0.047,0.038,0.047,0.068v2.611C9.65,7.842,9.617,7.875,9.576,7.875z
				 M7.318,7.729h2.186V5.376L7.318,7.729z"/>
		</g>
	</g>
	<g>
		<polygon fill="#6F6F6E" points="17.105,8.723 17.105,9.193 16.412,9.193 16.412,8.899 16.355,8.846 16.355,9.25 17.162,9.25 
			17.162,8.661 		"/>
		<polygon fill="#6F6F6E" points="16.412,8.481 17.068,8.481 17.135,8.425 16.355,8.425 16.355,8.654 16.412,8.618 		"/>
		<polygon fill="#BD1622" points="16.518,8.616 16.326,8.74 16.697,9.092 17.535,8.163 16.711,8.854 		"/>
	</g>
	<g>
		<polygon fill="#6F6F6E" points="17.105,10.533 17.105,11.004 16.412,11.004 16.412,10.71 16.355,10.656 16.355,11.06 
			17.162,11.06 17.162,10.471 		"/>
		<polygon fill="#6F6F6E" points="16.412,10.292 17.068,10.292 17.135,10.235 16.355,10.235 16.355,10.464 16.412,10.428 		"/>
		<polygon fill="#BD1622" points="16.518,10.426 16.326,10.55 16.697,10.903 17.535,9.974 16.711,10.665 		"/>
	</g>
	<g>
		<polygon fill="#6F6F6E" points="17.105,12.295 17.105,12.766 16.412,12.766 16.412,12.472 16.355,12.418 16.355,12.822 
			17.162,12.822 17.162,12.232 		"/>
		<polygon fill="#6F6F6E" points="16.412,12.053 17.068,12.053 17.135,11.998 16.355,11.998 16.355,12.227 16.412,12.189 		"/>
		<polygon fill="#BD1622" points="16.518,12.188 16.326,12.312 16.697,12.665 17.535,11.735 16.711,12.427 		"/>
	</g>
	<g>
		<path fill="#6F6F6E" d="M17.152,14.68h-0.805v-0.798h0.805V14.68z M16.42,14.605h0.66v-0.651h-0.66V14.605z"/>
	</g>
	<g>
		<path fill="#6F6F6E" d="M17.152,16.498h-0.805V15.7h0.805V16.498z M16.42,16.425h0.66v-0.651h-0.66V16.425z"/>
	</g>
	<g>
		<polygon fill="#A42423" points="15.723,6.798 10.301,6.798 10.051,6.239 15.918,6.239 		"/>
		<path fill="#801D18" d="M15.723,6.847h-5.422c-0.02,0-0.036-0.012-0.045-0.029l-0.25-0.56C10,6.244,10,6.227,10.01,6.213
			c0.011-0.014,0.025-0.022,0.041-0.022h5.867c0.016,0,0.029,0.007,0.039,0.021c0.01,0.013,0.012,0.029,0.006,0.044L15.77,6.815
			C15.762,6.834,15.744,6.847,15.723,6.847z M10.332,6.75h5.357l0.16-0.462h-5.726L10.332,6.75z"/>
	</g>
	<g>
		
			<linearGradient id="SVGID_6_" gradientUnits="userSpaceOnUse" x1="731.6055" y1="-874.7842" x2="737.4727" y2="-874.7842" gradientTransform="matrix(1 0 0 -1 -721.5547 -869.6406)">
			<stop  offset="0" style="stop-color:#E30613"/>
			<stop  offset="1" style="stop-color:#BE1622"/>
		</linearGradient>
		<rect x="10.051" y="4.048" fill="url(#SVGID_6_)" width="5.867" height="2.191"/>
		<path fill="#801D18" d="M15.918,6.288h-5.867c-0.026,0-0.049-0.021-0.049-0.048V4.048C10.002,4.022,10.023,4,10.051,4h5.867
			c0.025,0,0.047,0.022,0.047,0.048v2.191C15.965,6.266,15.943,6.288,15.918,6.288z M10.101,6.191h5.77V4.097h-5.77V6.191z"/>
	</g>
	<g>
		<path fill="#3C3C3B" d="M9.838,10.478c-0.034,0-0.062,0.014-0.08,0.042c-0.02,0.028-0.028,0.067-0.028,0.117
			c0,0.104,0.039,0.155,0.117,0.155c0.022,0,0.047-0.003,0.067-0.01c0.023-0.007,0.045-0.015,0.068-0.024v0.123
			c-0.045,0.02-0.096,0.03-0.152,0.03c-0.08,0-0.143-0.023-0.186-0.07c-0.043-0.047-0.064-0.115-0.064-0.203
			c0-0.056,0.01-0.104,0.031-0.146c0.02-0.042,0.051-0.074,0.09-0.097s0.086-0.034,0.139-0.034c0.058,0,0.113,0.013,0.166,0.038
			l-0.045,0.114c-0.02-0.009-0.039-0.017-0.059-0.023C9.881,10.481,9.859,10.478,9.838,10.478z"/>
		<path fill="#3C3C3B" d="M10.545,10.903H10.4v-0.219h-0.168v0.219h-0.146v-0.536h0.146v0.198H10.4v-0.198h0.145V10.903z"/>
		<path fill="#3C3C3B" d="M10.979,10.903H10.66v-0.536h0.318v0.116h-0.172v0.084h0.159v0.117h-0.159v0.101h0.172L10.979,10.903
			L10.979,10.903z"/>
		<path fill="#3C3C3B" d="M11.312,10.478c-0.035,0-0.062,0.014-0.082,0.042c-0.019,0.028-0.027,0.067-0.027,0.117
			c0,0.104,0.039,0.155,0.117,0.155c0.022,0,0.047-0.003,0.068-0.01c0.022-0.007,0.045-0.015,0.067-0.024v0.123
			c-0.045,0.02-0.096,0.03-0.151,0.03c-0.08,0-0.144-0.023-0.187-0.07c-0.043-0.047-0.063-0.115-0.063-0.203
			c0-0.056,0.01-0.104,0.03-0.146s0.052-0.074,0.09-0.097c0.039-0.023,0.087-0.034,0.14-0.034c0.057,0,0.112,0.013,0.166,0.038
			l-0.045,0.114c-0.021-0.009-0.039-0.017-0.062-0.023C11.355,10.481,11.334,10.478,11.312,10.478z"/>
		<path fill="#3C3C3B" d="M12.019,10.903h-0.162l-0.105-0.205l-0.043,0.026v0.179h-0.146v-0.536h0.146V10.6
			c0.006-0.015,0.021-0.037,0.043-0.069l0.113-0.164h0.158l-0.168,0.24L12.019,10.903z"/>
		<path fill="#3C3C3B" d="M12.508,10.903h-0.145v-0.418h-0.131v-0.118h0.406v0.118h-0.132L12.508,10.903L12.508,10.903z"/>
		<path fill="#3C3C3B" d="M13.174,10.903h-0.145v-0.219h-0.168v0.219h-0.146v-0.536h0.146v0.198h0.168v-0.198h0.145V10.903z"/>
		<path fill="#3C3C3B" d="M13.609,10.903h-0.318v-0.536h0.318v0.116h-0.174v0.084h0.16v0.117h-0.16v0.101h0.174V10.903z"/>
		<path fill="#3C3C3B" d="M14.041,10.903h-0.143v-0.536h0.315v0.116H14.04v0.102h0.16v0.116h-0.16L14.041,10.903L14.041,10.903z"/>
		<path fill="#3C3C3B" d="M14.303,10.903v-0.536h0.146v0.536H14.303z"/>
		<path fill="#3C3C3B" d="M14.709,10.708v0.195h-0.145v-0.536h0.176c0.145,0,0.219,0.053,0.219,0.159
			c0,0.062-0.031,0.11-0.092,0.144l0.156,0.233h-0.164l-0.113-0.195H14.709z M14.709,10.599h0.027c0.051,0,0.076-0.022,0.076-0.067
			c0-0.037-0.025-0.055-0.074-0.055h-0.029V10.599z"/>
		<path fill="#3C3C3B" d="M15.422,10.74c0,0.033-0.008,0.062-0.025,0.088c-0.016,0.026-0.041,0.046-0.071,0.061
			c-0.031,0.014-0.07,0.021-0.111,0.021c-0.037,0-0.065-0.002-0.09-0.007c-0.024-0.005-0.051-0.014-0.076-0.026v-0.129
			c0.027,0.014,0.058,0.025,0.086,0.033c0.029,0.008,0.058,0.012,0.082,0.012c0.021,0,0.037-0.004,0.05-0.011
			c0.008-0.007,0.014-0.017,0.014-0.029c0-0.007-0.002-0.014-0.006-0.019c-0.004-0.006-0.01-0.011-0.021-0.017
			c-0.01-0.006-0.032-0.017-0.069-0.035c-0.035-0.016-0.062-0.031-0.08-0.046c-0.017-0.015-0.029-0.032-0.039-0.051
			c-0.008-0.02-0.013-0.042-0.013-0.069c0-0.049,0.019-0.087,0.056-0.115c0.035-0.027,0.084-0.042,0.146-0.042
			c0.058,0,0.113,0.013,0.17,0.039L15.38,10.51c-0.051-0.022-0.094-0.034-0.131-0.034c-0.019,0-0.031,0.003-0.041,0.01
			c-0.008,0.007-0.013,0.015-0.013,0.024c0,0.011,0.005,0.021,0.017,0.028c0.011,0.008,0.041,0.023,0.088,0.046
			c0.048,0.021,0.078,0.042,0.099,0.067C15.414,10.674,15.422,10.704,15.422,10.74z"/>
		<path fill="#3C3C3B" d="M15.742,10.903h-0.145v-0.418h-0.132v-0.118h0.406v0.118H15.74L15.742,10.903L15.742,10.903z"/>
	</g>
	<g>
		<path fill="#3C3C3B" d="M10.056,12.212v0.323c0,0.068-0.021,0.124-0.062,0.162c-0.039,0.039-0.096,0.059-0.172,0.059
			c-0.072,0-0.129-0.02-0.168-0.057c-0.039-0.037-0.059-0.092-0.059-0.162v-0.325h0.146v0.313c0,0.039,0.006,0.062,0.021,0.082
			c0.016,0.018,0.036,0.023,0.063,0.023c0.029,0,0.051-0.009,0.064-0.021c0.014-0.021,0.02-0.045,0.02-0.084v-0.313H10.056
			L10.056,12.212z"/>
		<path fill="#3C3C3B" d="M10.519,12.585c0,0.033-0.009,0.063-0.025,0.089c-0.017,0.026-0.041,0.045-0.072,0.061
			c-0.032,0.018-0.069,0.021-0.112,0.021c-0.035,0-0.064-0.004-0.091-0.008c-0.022-0.006-0.049-0.016-0.073-0.027v-0.129
			c0.026,0.016,0.057,0.025,0.086,0.033c0.028,0.008,0.057,0.012,0.082,0.012c0.021,0,0.037-0.004,0.047-0.011
			c0.01-0.007,0.016-0.017,0.016-0.028c0-0.008-0.002-0.014-0.006-0.02s-0.01-0.012-0.02-0.018c-0.011-0.004-0.033-0.02-0.072-0.033
			c-0.035-0.02-0.062-0.031-0.078-0.047c-0.018-0.015-0.029-0.031-0.039-0.051c-0.008-0.02-0.012-0.042-0.012-0.068
			c0-0.05,0.018-0.088,0.053-0.115c0.037-0.027,0.086-0.042,0.148-0.042c0.057,0,0.112,0.013,0.17,0.038l-0.043,0.112
			c-0.052-0.022-0.095-0.034-0.131-0.034c-0.021,0-0.033,0.003-0.041,0.01c-0.011,0.006-0.015,0.014-0.015,0.024
			s0.006,0.021,0.019,0.028c0.01,0.008,0.039,0.023,0.088,0.045c0.047,0.021,0.078,0.043,0.096,0.067
			C10.51,12.52,10.519,12.549,10.519,12.585z"/>
		<path fill="#3C3C3B" d="M10.918,12.748h-0.317v-0.536h0.317v0.116h-0.172v0.084h0.16v0.117h-0.16v0.101h0.172V12.748z"/>
		<path fill="#3C3C3B" d="M11.508,12.212h0.162l-0.176,0.536h-0.17l-0.174-0.536h0.162l0.071,0.271
			c0.017,0.06,0.023,0.103,0.025,0.126c0.002-0.021,0.006-0.039,0.01-0.064c0.006-0.025,0.011-0.046,0.015-0.061L11.508,12.212z"/>
		<path fill="#3C3C3B" d="M11.717,12.229c0-0.021,0.007-0.038,0.019-0.048c0.012-0.012,0.031-0.016,0.059-0.016
			c0.028,0,0.045,0.005,0.06,0.016c0.012,0.011,0.018,0.027,0.018,0.048c0,0.042-0.024,0.062-0.076,0.062
			C11.744,12.291,11.717,12.271,11.717,12.229z M11.863,12.748H11.72v-0.416h0.143V12.748z"/>
		<path fill="#3C3C3B" d="M12.429,12.212v0.323c0,0.068-0.021,0.124-0.06,0.162c-0.039,0.039-0.098,0.059-0.172,0.059
			c-0.074,0-0.129-0.02-0.17-0.057c-0.037-0.037-0.057-0.092-0.057-0.162v-0.325h0.145v0.313c0,0.039,0.008,0.062,0.021,0.082
			c0.013,0.018,0.034,0.023,0.062,0.023c0.029,0,0.051-0.009,0.064-0.021c0.014-0.021,0.02-0.045,0.02-0.084v-0.313H12.429
			L12.429,12.212z"/>
		<path fill="#3C3C3B" d="M12.687,12.553v0.195h-0.146v-0.536h0.176c0.146,0,0.22,0.054,0.22,0.158c0,0.062-0.031,0.11-0.093,0.144
			L13,12.748h-0.164l-0.112-0.195H12.687z M12.687,12.443h0.026c0.052,0,0.076-0.021,0.076-0.066c0-0.037-0.024-0.056-0.074-0.056
			h-0.028V12.443z"/>
	</g>
	<g>
		<path fill="#3C3C3B" d="M9.916,14.561H9.599v-0.535h0.317v0.115H9.744v0.084h0.16v0.117h-0.16v0.102h0.172V14.561z"/>
		<path fill="#3C3C3B" d="M10.494,14.561h-0.168l-0.104-0.168l-0.104,0.168H9.954l0.178-0.271l-0.168-0.265h0.162l0.097,0.164
			l0.094-0.164h0.164l-0.17,0.271L10.494,14.561z"/>
		<path fill="#3C3C3B" d="M10.871,14.561h-0.317v-0.535h0.317v0.115h-0.172v0.084h0.16v0.117h-0.16v0.102h0.172V14.561z"/>
		<path fill="#3C3C3B" d="M11.205,14.135c-0.035,0-0.062,0.016-0.08,0.043c-0.02,0.028-0.028,0.067-0.028,0.116
			c0,0.104,0.038,0.155,0.116,0.155c0.023,0,0.047-0.004,0.068-0.01c0.023-0.008,0.045-0.02,0.068-0.023v0.121
			c-0.045,0.021-0.097,0.029-0.152,0.029c-0.08,0-0.143-0.022-0.186-0.069c-0.044-0.047-0.064-0.114-0.064-0.204
			c0-0.055,0.01-0.104,0.031-0.146c0.021-0.041,0.051-0.071,0.09-0.097c0.039-0.022,0.086-0.034,0.139-0.034
			c0.058,0,0.113,0.014,0.166,0.039l-0.045,0.112c-0.02-0.011-0.039-0.019-0.059-0.022C11.248,14.139,11.228,14.135,11.205,14.135z"
			/>
		<path fill="#3C3C3B" d="M11.793,14.365v0.195h-0.145v-0.537h0.176c0.145,0,0.219,0.054,0.219,0.158
			c0,0.062-0.03,0.107-0.092,0.146l0.156,0.233h-0.164l-0.113-0.195H11.793z M11.793,14.256h0.027c0.051,0,0.076-0.021,0.076-0.066
			c0-0.037-0.025-0.057-0.074-0.057h-0.029V14.256z"/>
		<path fill="#3C3C3B" d="M12.476,14.561h-0.318v-0.535h0.318v0.115h-0.175v0.084h0.162v0.117h-0.162v0.102h0.175V14.561
			L12.476,14.561z"/>
		<path fill="#3C3C3B" d="M13.07,14.291c0,0.122-0.039,0.204-0.117,0.246l0.133,0.15h-0.182l-0.094-0.119h-0.002l0,0v-0.002
			c-0.084,0-0.148-0.022-0.193-0.069c-0.043-0.048-0.066-0.116-0.066-0.206c0-0.089,0.021-0.158,0.066-0.205
			c0.045-0.047,0.109-0.07,0.195-0.07c0.084,0,0.149,0.023,0.192,0.07S13.07,14.201,13.07,14.291z M12.701,14.291
			c0,0.104,0.035,0.156,0.107,0.156c0.037,0,0.063-0.014,0.082-0.038c0.018-0.025,0.026-0.063,0.026-0.118
			c0-0.053-0.01-0.094-0.026-0.118c-0.019-0.026-0.045-0.038-0.08-0.038C12.738,14.135,12.701,14.188,12.701,14.291z"/>
		<path fill="#3C3C3B" d="M13.623,14.025v0.32c0,0.067-0.02,0.125-0.059,0.16c-0.041,0.039-0.099,0.061-0.174,0.061
			c-0.072,0-0.129-0.021-0.168-0.059c-0.039-0.033-0.06-0.092-0.06-0.158v-0.326h0.146v0.312c0,0.038,0.008,0.063,0.021,0.083
			c0.017,0.02,0.035,0.023,0.062,0.023c0.03,0,0.053-0.01,0.063-0.022c0.015-0.021,0.021-0.046,0.021-0.084v-0.312L13.623,14.025
			L13.623,14.025z"/>
		<path fill="#3C3C3B" d="M14.053,14.561h-0.316v-0.535h0.316v0.115h-0.172v0.084h0.16v0.117h-0.16v0.102h0.172V14.561z"/>
		<path fill="#3C3C3B" d="M14.498,14.396c0,0.033-0.008,0.062-0.025,0.09c-0.017,0.022-0.041,0.045-0.072,0.061
			c-0.032,0.014-0.069,0.021-0.112,0.021c-0.035,0-0.063-0.004-0.09-0.008c-0.023-0.006-0.05-0.018-0.074-0.025v-0.131
			c0.026,0.015,0.056,0.025,0.086,0.033c0.028,0.008,0.058,0.012,0.082,0.012c0.021,0,0.037-0.004,0.047-0.01
			c0.011-0.008,0.017-0.021,0.017-0.029s-0.002-0.014-0.006-0.02c-0.007-0.009-0.013-0.015-0.021-0.02
			c-0.011-0.006-0.033-0.021-0.07-0.035c-0.036-0.018-0.062-0.027-0.079-0.047c-0.019-0.018-0.029-0.031-0.039-0.051
			c-0.009-0.02-0.013-0.043-0.013-0.068c0-0.049,0.019-0.088,0.054-0.111c0.036-0.027,0.086-0.041,0.147-0.041
			c0.057,0,0.112,0.012,0.17,0.037l-0.045,0.108c-0.05-0.021-0.093-0.034-0.129-0.034c-0.021,0-0.033,0.003-0.041,0.014
			c-0.009,0.006-0.015,0.014-0.015,0.021c0,0.011,0.006,0.021,0.019,0.024c0.01,0.012,0.039,0.023,0.088,0.047
			c0.045,0.021,0.078,0.043,0.097,0.066C14.488,14.332,14.498,14.361,14.498,14.396z"/>
		<path fill="#3C3C3B" d="M14.816,14.561H14.67v-0.418h-0.13v-0.117h0.405v0.117h-0.131v0.418H14.816z"/>
	</g>
	<g>
		<path fill="#3C3C3B" d="M9.742,16.341H9.601v-0.536h0.315v0.116H9.742v0.103h0.16v0.115h-0.16V16.341L9.742,16.341z"/>
		<path fill="#3C3C3B" d="M10.322,16.341h-0.318v-0.536h0.318v0.116h-0.174v0.085h0.16v0.115h-0.16v0.102h0.174V16.341z"/>
		<path fill="#3C3C3B" d="M10.734,16.341h-0.318v-0.536h0.318v0.116H10.56v0.085h0.16v0.115h-0.16v0.102h0.174V16.341z"/>
		<path fill="#3C3C3B" d="M10.828,16.341v-0.536h0.146v0.418h0.207v0.118H10.828z"/>
		<path fill="#3C3C3B" d="M11.695,16.341H11.55v-0.418h-0.13v-0.118h0.406v0.118h-0.131V16.341L11.695,16.341z"/>
		<path fill="#3C3C3B" d="M12.363,16.341h-0.146v-0.218h-0.168v0.218h-0.146v-0.536h0.146v0.199h0.168v-0.199h0.146V16.341z"/>
		<path fill="#3C3C3B" d="M12.797,16.341H12.48v-0.536h0.317v0.116h-0.174v0.085h0.162v0.115h-0.162v0.102h0.174V16.341z"/>
		<path fill="#3C3C3B" d="M13.32,16.341l-0.111-0.386h-0.002c0.004,0.064,0.008,0.117,0.008,0.152v0.229h-0.129v-0.532h0.193
			l0.111,0.381h0.002l0.108-0.381h0.194v0.532h-0.133v-0.231c0-0.016,0-0.025,0-0.041c0-0.018,0.002-0.051,0.004-0.109h-0.002
			l-0.108,0.386H13.32z"/>
		<path fill="#3C3C3B" d="M14.141,16.341l-0.024-0.101H13.94l-0.024,0.101h-0.16l0.175-0.538h0.194l0.176,0.538H14.141z
			 M14.084,16.121l-0.023-0.088c-0.004-0.02-0.012-0.045-0.02-0.076c-0.006-0.031-0.012-0.053-0.014-0.066
			c-0.004,0.012-0.008,0.033-0.014,0.062c-0.009,0.027-0.021,0.085-0.043,0.169L14.084,16.121L14.084,16.121z"/>
		<path fill="#3C3C3B" d="M14.572,16.027h0.232v0.287c-0.064,0.021-0.134,0.033-0.207,0.033c-0.084,0-0.148-0.023-0.193-0.072
			c-0.045-0.047-0.066-0.115-0.066-0.205c0-0.086,0.023-0.152,0.072-0.201c0.051-0.049,0.119-0.072,0.209-0.072
			c0.033,0,0.064,0.004,0.096,0.01c0.029,0.006,0.055,0.014,0.078,0.023l-0.047,0.113c-0.037-0.021-0.08-0.027-0.127-0.027
			c-0.043,0-0.074,0.014-0.098,0.041s-0.035,0.066-0.035,0.118c0,0.05,0.012,0.089,0.031,0.114c0.021,0.022,0.051,0.039,0.09,0.039
			c0.021,0,0.041-0.002,0.061-0.006v-0.084h-0.096V16.027L14.572,16.027z"/>
		<path fill="#3C3C3B" d="M14.912,16.341v-0.536h0.146v0.536H14.912z"/>
		<path fill="#3C3C3B" d="M15.412,15.915c-0.033,0-0.061,0.015-0.08,0.042c-0.02,0.029-0.029,0.068-0.029,0.117
			c0,0.104,0.039,0.154,0.119,0.154c0.023,0,0.047-0.002,0.068-0.014c0.021-0.006,0.045-0.014,0.066-0.021v0.123
			c-0.045,0.021-0.097,0.029-0.15,0.029c-0.082,0-0.146-0.023-0.188-0.07s-0.063-0.114-0.063-0.203c0-0.057,0.012-0.104,0.031-0.145
			c0.021-0.043,0.053-0.074,0.09-0.099c0.041-0.021,0.086-0.033,0.139-0.033c0.059,0,0.113,0.015,0.166,0.037l-0.043,0.114
			c-0.021-0.01-0.041-0.018-0.061-0.023C15.456,15.919,15.436,15.915,15.412,15.915z"/>
	</g>
	<g>
		<path fill="#3C3C3B" d="M9.832,9.115L9.724,8.729H9.719c0.007,0.066,0.009,0.117,0.009,0.153v0.233H9.599V8.578h0.192l0.113,0.381
			h0.002l0.109-0.381h0.192v0.537h-0.133V8.88c0-0.013,0-0.026,0-0.041c0.002-0.015,0.004-0.051,0.006-0.109h-0.004L9.971,9.116
			L9.832,9.115L9.832,9.115z"/>
		<path fill="#3C3C3B" d="M10.654,9.115l-0.025-0.1h-0.176l-0.024,0.1h-0.16l0.176-0.539h0.193l0.176,0.539H10.654z M10.599,8.896
			l-0.023-0.088c-0.004-0.02-0.012-0.045-0.018-0.076c-0.009-0.031-0.015-0.053-0.017-0.066c-0.004,0.012-0.008,0.033-0.014,0.062
			c-0.006,0.029-0.021,0.085-0.043,0.169L10.599,8.896L10.599,8.896z"/>
		<path fill="#3C3C3B" d="M11.33,9.115h-0.164L11.062,8.91l-0.043,0.025v0.179h-0.146V8.577h0.146V8.81
			c0.006-0.015,0.021-0.037,0.043-0.069l0.112-0.165h0.158l-0.17,0.241L11.33,9.115z"/>
		<path fill="#3C3C3B" d="M11.705,9.115h-0.317V8.578h0.317v0.117h-0.172v0.084h0.16v0.116h-0.16v0.102h0.172V9.115z"/>
		<path fill="#3C3C3B" d="M12.324,9.115l-0.025-0.1h-0.176l-0.024,0.1h-0.16l0.176-0.539h0.191l0.178,0.539H12.324z M12.269,8.896
			l-0.023-0.088c-0.006-0.02-0.012-0.045-0.02-0.076c-0.009-0.031-0.013-0.053-0.015-0.066c-0.004,0.012-0.008,0.033-0.014,0.062
			c-0.008,0.029-0.021,0.085-0.043,0.169L12.269,8.896L12.269,8.896z"/>
		<path fill="#3C3C3B" d="M12.736,9.115V8.578h0.145v0.419h0.207v0.117L12.736,9.115L12.736,9.115z"/>
		<path fill="#3C3C3B" d="M13.174,9.115V8.578h0.146v0.537H13.174z"/>
		<path fill="#3C3C3B" d="M13.787,8.952c0,0.033-0.01,0.063-0.025,0.089c-0.018,0.025-0.041,0.045-0.074,0.06
			c-0.03,0.014-0.067,0.021-0.11,0.021c-0.035,0-0.066-0.002-0.09-0.008c-0.025-0.005-0.051-0.014-0.076-0.026V8.959
			c0.027,0.015,0.057,0.026,0.086,0.033C13.526,9,13.558,9.004,13.58,9.004c0.021,0,0.037-0.004,0.049-0.011
			c0.011-0.007,0.015-0.017,0.015-0.029c0-0.007-0.002-0.014-0.007-0.019c-0.004-0.006-0.01-0.011-0.02-0.017
			c-0.009-0.006-0.031-0.018-0.07-0.035c-0.035-0.015-0.062-0.031-0.078-0.046c-0.018-0.015-0.03-0.032-0.038-0.052
			c-0.011-0.02-0.015-0.042-0.015-0.068c0-0.049,0.019-0.088,0.056-0.116c0.034-0.027,0.086-0.042,0.147-0.042
			c0.055,0,0.11,0.013,0.17,0.039L13.743,8.72c-0.052-0.022-0.095-0.034-0.13-0.034c-0.02,0-0.032,0.003-0.043,0.01
			c-0.008,0.006-0.012,0.015-0.012,0.024c0,0.011,0.006,0.02,0.017,0.028c0.012,0.008,0.041,0.024,0.088,0.046
			c0.047,0.021,0.08,0.043,0.098,0.067C13.777,8.886,13.787,8.916,13.787,8.952z"/>
		<path fill="#3C3C3B" d="M14.105,9.115H13.96V8.697h-0.13V8.578h0.406v0.119h-0.131V9.115z"/>
	</g>
</g>
<g>
	<g id="Datei">
		<g>
			<path fill="#C6C6C6" d="M90.512,19.471H77.326c0,0,0.465-2.562,0.465-10.941c2.688,0,8.586,0,12.102,0
				C89.893,17.025,90.512,19.471,90.512,19.471z"/>
			<path fill="#9C9B9B" d="M90.512,19.536H77.248l0.014-0.076c0.006-0.024,0.465-2.657,0.465-10.931V8.466h12.23v0.063
				c0,8.385,0.611,10.903,0.617,10.927l0.02,0.081L90.512,19.536L90.512,19.536z M77.402,19.406H90.43
				c-0.102-0.485-0.6-3.266-0.604-10.812H77.855C77.854,16.07,77.475,18.925,77.402,19.406z"/>
		</g>
		<g>
			<path fill="#C6C6C6" d="M90.357,19.781H77.48c0,0,0.312-2.872,0.312-11.252c2.688,0,8.586,0,12.104,0
				C89.893,17.025,90.357,19.781,90.357,19.781z"/>
			<path fill="#9C9B9B" d="M90.357,19.846H77.408l0.008-0.072c0.004-0.026,0.311-2.965,0.311-11.244V8.465h12.23v0.064
				c0,8.391,0.459,11.213,0.463,11.241l0.014,0.076H90.357L90.357,19.846z M77.551,19.716h12.732
				c-0.072-0.495-0.453-3.509-0.455-11.123H77.855C77.854,16.133,77.598,19.225,77.551,19.716z"/>
		</g>
		<g>
			<polygon fill="#C6C6C6" points="90.203,19.936 77.635,19.936 77.945,9.148 89.893,9.148 			"/>
			<path fill="#9C9B9B" d="M90.27,20H77.57l0.311-10.916h12.072L90.27,20z M77.701,19.871h12.436L89.83,9.214H78.008L77.701,19.871z
				"/>
		</g>
		<g>
			<path fill="#C6C6C6" d="M81.033,6.562l9.635-1.438c0,0-0.621,2.665-0.621,11.045c-2.688,0-8.586,0-12.102,0
				C77.945,7.672,81.033,6.562,81.033,6.562z"/>
			<path fill="#9C9B9B" d="M90.111,16.232h-12.23v-0.064c0-8.445,3.002-9.621,3.129-9.667l9.742-1.455L90.73,5.139
				c-0.006,0.025-0.617,2.758-0.617,11.029v0.064H90.111z M78.01,16.104h11.975c0.002-7.416,0.498-10.367,0.604-10.901l-9.543,1.425
				C81.023,6.633,78.025,7.823,78.01,16.104z"/>
		</g>
		<g>
			
				<linearGradient id="SVGID_7_" gradientUnits="userSpaceOnUse" x1="1202.6875" y1="-1790.1328" x2="1215.4121" y2="-1790.1328" gradientTransform="matrix(1 0 0 -1 -1125.0547 -1779.6406)">
				<stop  offset="0" style="stop-color:#FFFFFF"/>
				<stop  offset="1" style="stop-color:#F5F5F6"/>
			</linearGradient>
			<path fill="url(#SVGID_7_)" d="M80.877,7.182l9.48-2.367c0,0-0.312,2.974-0.312,11.354c-2.688,0-8.896,0-12.412,0
				C77.635,7.672,80.877,7.182,80.877,7.182z"/>
			<path fill="#9D9D9C" d="M90.111,16.232H77.57v-0.064c0-8.455,3.162-9.031,3.297-9.051l9.561-2.389l-0.01,0.09
				c-0.002,0.031-0.311,3.07-0.311,11.349v0.065H90.111z M77.699,16.104h12.283c0.002-7.457,0.252-10.646,0.303-11.205l-9.393,2.345
				C80.855,7.249,77.717,7.837,77.699,16.104z"/>
		</g>
		<g>
			<g>
				<polygon fill="#C6C6C6" points="77.611,8.006 81.518,4.064 90.049,4.09 89.893,14.98 77.945,14.98 				"/>
				<path fill="#9C9B9B" d="M89.957,15.045H77.883L77.545,7.98l0.02-0.021L81.49,4h0.027l8.596,0.025V4.09L89.957,15.045z
					 M78.006,14.917H89.83l0.152-10.763L81.543,4.13l-3.867,3.903L78.006,14.917z"/>
			</g>
			<g>
				<polygon fill="#C6C6C6" points="77.82,7.8 81.496,4.238 89.893,4.246 89.893,14.98 77.945,14.98 				"/>
				<path fill="#9C9B9B" d="M89.957,15.045H77.881l-0.127-7.271l0.021-0.02l3.695-3.58l8.485,0.008L89.957,15.045L89.957,15.045z
					 M78.008,14.917h11.82V4.311l-8.305-0.008l-3.646,3.524L78.008,14.917z"/>
			</g>
			<g>
				<polygon fill="#C6C6C6" points="77.945,7.703 81.246,4.4 90.049,4.4 89.893,15.291 78.1,15.291 				"/>
				<path fill="#9C9B9B" d="M89.957,15.355h-11.92l-0.156-7.679l3.338-3.341h8.895V4.4L89.957,15.355z M78.164,15.227H89.83
					l0.152-10.762h-8.711l-3.271,3.266L78.164,15.227z"/>
			</g>
		</g>
		<g>
			<g>
				<polygon fill="#C6C6C6" points="90.072,19.781 77.816,19.781 77.971,10.542 89.918,10.542 				"/>
				<path fill="#9C9B9B" d="M90.139,19.846H77.75l0.158-9.367h12.074v0.062L90.139,19.846z M77.881,19.716h12.127l-0.152-9.11
					H78.033L77.881,19.716z"/>
			</g>
			<g>
				<polygon fill="#C6C6C6" points="90.072,19.626 77.971,19.626 77.971,10.542 89.918,10.542 				"/>
				<path fill="#9C9B9B" d="M90.139,19.689H77.906v-9.211h12.076v0.062L90.139,19.689z M78.035,19.562h11.973l-0.152-8.956H78.036
					L78.035,19.562L78.035,19.562z"/>
			</g>
			<g>
				<polygon fill="#C6C6C6" points="89.918,19.471 77.816,19.471 77.971,10.232 89.918,10.232 				"/>
				<path fill="#9C9B9B" d="M89.984,19.536H77.75l0.158-9.368h12.074v9.368H89.984z M77.881,19.406h11.975v-9.109H78.033
					L77.881,19.406z"/>
			</g>
		</g>
		<g>
			<g>
				
					<linearGradient id="SVGID_8_" gradientUnits="userSpaceOnUse" x1="1206.3066" y1="-1784.3857" x2="1212.0038" y2="-1800.0383" gradientTransform="matrix(1 0 0 -1 -1125.0547 -1779.6406)">
					<stop  offset="0" style="stop-color:#FFFFFF"/>
					<stop  offset="1" style="stop-color:#F5F5F6"/>
				</linearGradient>
				<polygon fill="url(#SVGID_8_)" points="90.023,4.596 81.662,4.596 77.715,8.545 77.715,19.279 90.023,19.279 				"/>
				<path fill="#9D9D9C" d="M90.152,19.409H77.584V8.491l4.025-4.024h8.543V19.409z M77.842,19.15h12.053V4.725h-8.18l-3.873,3.873
					V19.15z"/>
			</g>
		</g>
		<g enable-background="new    ">
			<path fill="#3C3C3B" d="M80.074,8.074h0.268l-0.289,0.882h-0.281l-0.287-0.882h0.271l0.119,0.447
				c0.024,0.099,0.039,0.168,0.043,0.207c0.002-0.028,0.008-0.063,0.017-0.105c0.01-0.042,0.018-0.075,0.022-0.1L80.074,8.074z"/>
			<path fill="#3C3C3B" d="M80.961,8.956h-0.523V8.074h0.523v0.191h-0.285v0.139h0.264v0.191h-0.264V8.76h0.285V8.956z"/>
			<path fill="#3C3C3B" d="M81.354,8.635v0.321h-0.237V8.074h0.288c0.24,0,0.359,0.087,0.359,0.261c0,0.103-0.051,0.181-0.147,0.235
				l0.258,0.386h-0.271l-0.188-0.321H81.354z M81.354,8.456h0.045c0.084,0,0.125-0.037,0.125-0.11c0-0.061-0.041-0.092-0.123-0.092
				h-0.047V8.456z"/>
			<path fill="#3C3C3B" d="M82.527,8.688c0,0.056-0.016,0.104-0.041,0.146c-0.027,0.042-0.068,0.075-0.121,0.1
				c-0.051,0.023-0.113,0.034-0.186,0.034c-0.06,0-0.105-0.004-0.146-0.012c-0.041-0.009-0.082-0.022-0.125-0.043V8.7
				c0.045,0.022,0.094,0.042,0.143,0.055c0.051,0.013,0.096,0.021,0.137,0.021c0.033,0,0.062-0.006,0.076-0.02
				c0.019-0.012,0.023-0.027,0.023-0.047c0-0.014-0.002-0.021-0.01-0.032c-0.006-0.009-0.019-0.018-0.031-0.026
				c-0.016-0.01-0.055-0.028-0.117-0.058C82.07,8.566,82.027,8.541,82,8.518c-0.029-0.024-0.051-0.054-0.062-0.084
				c-0.016-0.034-0.021-0.07-0.021-0.114c0-0.081,0.027-0.146,0.088-0.189c0.062-0.046,0.143-0.068,0.244-0.068
				c0.092,0,0.188,0.021,0.277,0.063l-0.07,0.185c-0.082-0.039-0.154-0.058-0.215-0.058c-0.029,0-0.055,0.006-0.066,0.017
				c-0.012,0.012-0.021,0.024-0.021,0.041c0,0.018,0.011,0.032,0.025,0.047c0.018,0.014,0.066,0.037,0.146,0.074
				c0.076,0.033,0.131,0.07,0.16,0.109C82.514,8.579,82.527,8.629,82.527,8.688z"/>
			<path fill="#3C3C3B" d="M83.053,8.956h-0.236V8.268H82.6V8.074h0.67v0.193h-0.217V8.956L83.053,8.956z"/>
			<path fill="#3C3C3B" d="M83.936,8.956l-0.043-0.165h-0.287l-0.045,0.165h-0.262l0.287-0.886h0.318l0.291,0.886H83.936z
				 M83.842,8.596L83.805,8.45c-0.01-0.032-0.02-0.073-0.031-0.125c-0.014-0.052-0.021-0.087-0.022-0.109
				c-0.006,0.021-0.015,0.056-0.021,0.103c-0.015,0.047-0.035,0.14-0.072,0.277H83.842z"/>
			<path fill="#3C3C3B" d="M85.131,8.956h-0.312l-0.319-0.621h-0.006c0.008,0.099,0.012,0.172,0.012,0.224v0.397h-0.211V8.074h0.312
				l0.318,0.611h0.004c-0.006-0.088-0.008-0.16-0.008-0.213V8.074h0.211V8.956z"/>
			<path fill="#3C3C3B" d="M86.07,8.496c0,0.146-0.041,0.261-0.121,0.341c-0.082,0.079-0.195,0.119-0.342,0.119h-0.285V8.074h0.305
				c0.143,0,0.25,0.035,0.328,0.107C86.031,8.254,86.07,8.359,86.07,8.496z M85.822,8.505c0-0.081-0.018-0.141-0.047-0.18
				c-0.033-0.039-0.08-0.06-0.146-0.06h-0.068V8.76h0.053c0.072,0,0.125-0.021,0.16-0.062C85.807,8.654,85.822,8.591,85.822,8.505z"
				/>
			<path fill="#3C3C3B" d="M86.752,8.956h-0.523V8.074h0.523v0.191h-0.285v0.139h0.264v0.191h-0.264V8.76h0.285V8.956z"/>
			<path fill="#3C3C3B" d="M87.746,8.956h-0.312l-0.322-0.621h-0.004c0.009,0.099,0.013,0.172,0.013,0.224v0.397h-0.213V8.074h0.312
				l0.32,0.611h0.004c-0.006-0.088-0.01-0.16-0.01-0.213V8.074h0.213V8.956z"/>
			<path fill="#3C3C3B" d="M88.461,8.956h-0.523V8.074h0.523v0.191h-0.285v0.139h0.264v0.191h-0.264V8.76h0.285V8.956z"/>
		</g>
		<g enable-background="new    ">
			<path fill="#3C3C3B" d="M79.58,9.934h0.307c0.121,0,0.209,0.018,0.268,0.053c0.062,0.035,0.089,0.092,0.089,0.166
				c0,0.05-0.015,0.093-0.039,0.127c-0.022,0.035-0.06,0.058-0.101,0.068v0.006c0.056,0.015,0.094,0.037,0.119,0.071
				c0.023,0.033,0.037,0.077,0.037,0.132c0,0.08-0.031,0.144-0.092,0.188c-0.059,0.045-0.141,0.069-0.246,0.069H79.58V9.934
				L79.58,9.934z M79.818,10.271h0.07c0.034,0,0.062-0.008,0.079-0.021c0.021-0.016,0.027-0.035,0.027-0.062
				c0-0.049-0.037-0.074-0.111-0.074h-0.065V10.271z M79.818,10.445v0.186h0.084c0.074,0,0.111-0.031,0.111-0.095
				c0-0.029-0.011-0.052-0.029-0.067c-0.021-0.016-0.049-0.023-0.088-0.023L79.818,10.445L79.818,10.445z"/>
			<path fill="#3C3C3B" d="M81.238,10.372c0,0.147-0.037,0.262-0.109,0.339c-0.074,0.077-0.18,0.115-0.32,0.115
				c-0.139,0-0.244-0.038-0.317-0.116c-0.072-0.077-0.109-0.19-0.109-0.339c0-0.146,0.037-0.26,0.109-0.337
				c0.071-0.077,0.182-0.115,0.319-0.115c0.142,0,0.246,0.038,0.318,0.115C81.201,10.109,81.238,10.225,81.238,10.372z
				 M80.631,10.372c0,0.171,0.059,0.256,0.178,0.256c0.062,0,0.105-0.021,0.135-0.062c0.031-0.041,0.043-0.105,0.043-0.193
				s-0.016-0.152-0.043-0.195c-0.028-0.042-0.073-0.062-0.133-0.062C80.691,10.114,80.631,10.2,80.631,10.372z"/>
			<path fill="#3C3C3B" d="M81.785,10.814h-0.238v-0.688h-0.215V9.932H82v0.194h-0.215V10.814z"/>
			<path fill="#3C3C3B" d="M82.703,10.547c0,0.055-0.014,0.104-0.041,0.146c-0.027,0.041-0.068,0.074-0.121,0.099
				c-0.051,0.024-0.113,0.035-0.184,0.035c-0.062,0-0.107-0.004-0.146-0.013c-0.041-0.008-0.082-0.021-0.125-0.043v-0.213
				c0.045,0.023,0.092,0.043,0.143,0.056c0.049,0.013,0.094,0.02,0.135,0.02c0.035,0,0.062-0.006,0.078-0.019
				c0.019-0.012,0.023-0.028,0.023-0.047c0-0.014-0.002-0.022-0.01-0.032c-0.006-0.009-0.018-0.019-0.031-0.027
				c-0.016-0.009-0.055-0.028-0.117-0.057c-0.059-0.026-0.102-0.052-0.131-0.076c-0.027-0.024-0.049-0.053-0.062-0.084
				c-0.014-0.032-0.021-0.069-0.021-0.112c0-0.082,0.029-0.146,0.091-0.189c0.061-0.047,0.141-0.068,0.241-0.068
				c0.095,0,0.188,0.021,0.279,0.062l-0.072,0.185c-0.082-0.038-0.151-0.058-0.213-0.058c-0.03,0-0.056,0.007-0.065,0.018
				c-0.015,0.012-0.021,0.023-0.021,0.04c0,0.019,0.01,0.033,0.027,0.047c0.018,0.015,0.063,0.038,0.146,0.074
				c0.074,0.034,0.129,0.071,0.158,0.11C82.689,10.438,82.703,10.486,82.703,10.547z"/>
			<path fill="#3C3C3B" d="M83.232,10.115c-0.058,0-0.103,0.023-0.133,0.068c-0.031,0.047-0.047,0.11-0.047,0.192
				c0,0.17,0.063,0.255,0.192,0.255c0.039,0,0.075-0.006,0.112-0.017c0.037-0.011,0.07-0.023,0.107-0.039v0.2
				c-0.07,0.033-0.154,0.05-0.248,0.05c-0.135,0-0.234-0.038-0.307-0.115c-0.073-0.077-0.107-0.188-0.107-0.335
				c0-0.092,0.02-0.172,0.055-0.241c0.031-0.067,0.084-0.122,0.146-0.159s0.143-0.056,0.229-0.056c0.097,0,0.188,0.021,0.271,0.062
				l-0.07,0.188c-0.033-0.017-0.065-0.028-0.1-0.039C83.305,10.12,83.27,10.115,83.232,10.115z"/>
			<path fill="#3C3C3B" d="M84.398,10.814h-0.24v-0.359h-0.275v0.359h-0.238V9.932h0.238v0.327h0.275V9.932h0.24V10.814z"/>
			<path fill="#3C3C3B" d="M85.129,10.814l-0.043-0.166h-0.287l-0.045,0.166h-0.262l0.289-0.887h0.316l0.291,0.887H85.129z
				 M85.037,10.454l-0.039-0.146c-0.008-0.033-0.02-0.074-0.031-0.125c-0.014-0.052-0.021-0.088-0.025-0.109
				c-0.004,0.021-0.012,0.055-0.021,0.103c-0.009,0.047-0.032,0.141-0.067,0.278H85.037z"/>
			<path fill="#3C3C3B" d="M85.721,10.814h-0.234V9.932h0.521v0.191h-0.287v0.168h0.266v0.191h-0.266V10.814L85.721,10.814z"/>
			<path fill="#3C3C3B" d="M86.541,10.814h-0.238v-0.688h-0.217V9.932h0.67v0.194h-0.215V10.814z"/>
			<path fill="#3C3C3B" d="M87.404,10.814h-0.523V9.932h0.523v0.191h-0.285v0.139h0.264v0.191h-0.264v0.166h0.285V10.814z"/>
			<path fill="#3C3C3B" d="M88.4,10.814h-0.312l-0.32-0.621h-0.006c0.01,0.098,0.014,0.172,0.014,0.224v0.397h-0.213V9.932h0.312
				l0.319,0.612h0.005c-0.007-0.089-0.009-0.16-0.009-0.214V9.932H88.4V10.814L88.4,10.814z"/>
		</g>
		<g enable-background="new    ">
			<path fill="#3C3C3B" d="M80.332,12.725h-0.268l-0.178-0.337l-0.068,0.043v0.294H79.58v-0.883h0.238v0.383
				c0.012-0.022,0.037-0.062,0.074-0.111l0.186-0.271h0.26l-0.277,0.395L80.332,12.725z"/>
			<path fill="#3C3C3B" d="M81.254,12.281c0,0.148-0.037,0.262-0.109,0.339s-0.18,0.114-0.319,0.114
				c-0.138,0-0.242-0.037-0.316-0.115c-0.071-0.077-0.106-0.189-0.106-0.34c0-0.146,0.035-0.258,0.106-0.336
				c0.072-0.077,0.183-0.115,0.318-0.115c0.141,0,0.245,0.038,0.317,0.115C81.217,12.02,81.254,12.133,81.254,12.281z
				 M80.576,11.667c0-0.03,0.01-0.054,0.027-0.069c0.02-0.018,0.043-0.024,0.071-0.024c0.033,0,0.062,0.008,0.076,0.024
				c0.021,0.018,0.026,0.041,0.026,0.069s-0.01,0.052-0.026,0.067c-0.021,0.019-0.043,0.026-0.076,0.026
				c-0.028,0-0.055-0.009-0.071-0.024C80.586,11.721,80.576,11.697,80.576,11.667z M80.646,12.281c0,0.171,0.061,0.256,0.178,0.256
				c0.062,0,0.105-0.021,0.137-0.062c0.027-0.041,0.043-0.104,0.043-0.192c0-0.089-0.016-0.153-0.043-0.195
				c-0.031-0.042-0.074-0.062-0.135-0.062C80.707,12.023,80.646,12.109,80.646,12.281z M80.865,11.667
				c0-0.03,0.01-0.054,0.027-0.069c0.02-0.018,0.043-0.024,0.073-0.024c0.031,0,0.06,0.008,0.076,0.024
				c0.021,0.019,0.026,0.041,0.026,0.069s-0.01,0.052-0.026,0.067c-0.021,0.019-0.045,0.026-0.076,0.026
				c-0.03,0-0.062-0.009-0.073-0.024C80.875,11.721,80.865,11.695,80.865,11.667z"/>
			<path fill="#3C3C3B" d="M82.252,12.725h-0.311l-0.322-0.621h-0.006c0.008,0.098,0.012,0.172,0.012,0.224v0.396h-0.211v-0.883
				h0.312l0.317,0.612h0.004c-0.006-0.089-0.008-0.16-0.008-0.214v-0.398h0.211L82.252,12.725L82.252,12.725z"/>
			<path fill="#3C3C3B" d="M83.283,12.725h-0.312l-0.322-0.621h-0.006c0.008,0.098,0.012,0.172,0.012,0.224v0.396h-0.211v-0.883
				h0.312l0.32,0.612h0.004c-0.006-0.089-0.01-0.16-0.01-0.214v-0.398h0.213V12.725L83.283,12.725z"/>
			<path fill="#3C3C3B" d="M83.998,12.725h-0.523v-0.883h0.523v0.191h-0.285v0.139h0.264v0.191h-0.264v0.167h0.285V12.725z"/>
			<path fill="#3C3C3B" d="M84.992,12.725H84.68l-0.322-0.621h-0.006c0.008,0.098,0.012,0.172,0.012,0.224v0.396h-0.211v-0.883
				h0.312l0.32,0.612h0.004c-0.006-0.089-0.01-0.16-0.01-0.214v-0.398h0.213V12.725L84.992,12.725z"/>
			<path fill="#3C3C3B" d="M86.455,12.725h-0.281l-0.084-0.386c-0.004-0.016-0.01-0.048-0.02-0.096
				c-0.008-0.048-0.016-0.089-0.021-0.12c-0.002,0.025-0.008,0.059-0.016,0.098s-0.016,0.074-0.021,0.107
				c-0.006,0.031-0.033,0.164-0.086,0.396h-0.281l-0.221-0.884h0.23l0.098,0.442c0.021,0.098,0.035,0.175,0.043,0.232
				c0.006-0.041,0.018-0.098,0.029-0.167c0.014-0.07,0.023-0.129,0.037-0.176l0.078-0.333h0.221l0.076,0.333
				c0.012,0.055,0.022,0.115,0.039,0.186c0.012,0.072,0.02,0.123,0.022,0.158c0.007-0.044,0.021-0.123,0.043-0.231l0.101-0.443
				h0.229L86.455,12.725z"/>
			<path fill="#3C3C3B" d="M87.312,12.725h-0.523v-0.883h0.523v0.191h-0.287v0.139h0.266v0.191h-0.266v0.167h0.287V12.725z"/>
			<path fill="#3C3C3B" d="M87.465,12.725v-0.883h0.238v0.689h0.34v0.191L87.465,12.725L87.465,12.725z"/>
		</g>
		<g enable-background="new    ">
			<path fill="#3C3C3B" d="M79.969,14.633H79.73v-0.688h-0.215v-0.194h0.668v0.194h-0.216L79.969,14.633L79.969,14.633z"/>
			<path fill="#3C3C3B" d="M80.834,14.633h-0.523v-0.882h0.523v0.19h-0.287v0.14h0.266v0.19h-0.266v0.166h0.287V14.633z"/>
			<path fill="#3C3C3B" d="M81.828,14.633h-0.312l-0.322-0.621h-0.006c0.008,0.098,0.013,0.172,0.013,0.225v0.396h-0.212v-0.882
				h0.312l0.32,0.612h0.004c-0.006-0.09-0.01-0.16-0.01-0.215v-0.397h0.215L81.828,14.633L81.828,14.633z"/>
			<path fill="#3C3C3B" d="M82.834,13.751h0.268l-0.289,0.882h-0.28l-0.287-0.882h0.269l0.118,0.446
				c0.025,0.1,0.039,0.169,0.043,0.207c0.002-0.027,0.009-0.062,0.017-0.104c0.01-0.042,0.018-0.075,0.022-0.1L82.834,13.751z"/>
			<path fill="#3C3C3B" d="M83.721,14.633h-0.523v-0.882h0.523v0.19h-0.285v0.14H83.7v0.19h-0.265v0.166h0.285V14.633z"/>
			<path fill="#3C3C3B" d="M84.113,14.312v0.319h-0.238V13.75h0.289c0.238,0,0.359,0.087,0.359,0.262
				c0,0.102-0.053,0.182-0.15,0.235l0.258,0.385h-0.271l-0.188-0.319H84.113z M84.113,14.133h0.045c0.082,0,0.123-0.037,0.123-0.109
				c0-0.062-0.039-0.092-0.121-0.092h-0.047V14.133z"/>
			<path fill="#3C3C3B" d="M85.252,14.633l-0.043-0.164h-0.287l-0.045,0.164h-0.262l0.287-0.886h0.315l0.291,0.886H85.252z
				 M84.828,13.576c0-0.03,0.01-0.055,0.027-0.07c0.02-0.018,0.043-0.023,0.072-0.023c0.032,0,0.061,0.009,0.075,0.024
				c0.021,0.017,0.026,0.04,0.026,0.069c0,0.027-0.01,0.052-0.026,0.068c-0.021,0.018-0.043,0.024-0.075,0.024
				c-0.029,0-0.056-0.009-0.072-0.024C84.838,13.629,84.828,13.605,84.828,13.576z M85.158,14.271l-0.037-0.146
				c-0.01-0.031-0.02-0.072-0.033-0.125c-0.012-0.051-0.02-0.087-0.023-0.107c-0.004,0.021-0.012,0.055-0.021,0.102
				c-0.012,0.047-0.035,0.14-0.069,0.277H85.158z M85.117,13.576c0-0.03,0.01-0.055,0.027-0.07c0.02-0.018,0.043-0.023,0.073-0.023
				c0.031,0,0.06,0.009,0.076,0.024c0.021,0.019,0.026,0.041,0.026,0.069c0,0.027-0.01,0.052-0.026,0.068
				c-0.021,0.018-0.045,0.024-0.076,0.024c-0.03,0-0.061-0.009-0.073-0.024C85.127,13.629,85.117,13.605,85.117,13.576z"/>
			<path fill="#3C3C3B" d="M86.447,14.633h-0.312l-0.322-0.621h-0.004c0.008,0.098,0.012,0.172,0.012,0.225v0.396h-0.213v-0.882
				h0.312l0.32,0.612h0.004c-0.006-0.09-0.01-0.16-0.01-0.215v-0.397h0.213V14.633z"/>
			<path fill="#3C3C3B" d="M87.387,14.173c0,0.147-0.041,0.261-0.121,0.341s-0.195,0.119-0.342,0.119h-0.285v-0.882h0.305
				c0.144,0,0.252,0.036,0.328,0.108S87.387,14.036,87.387,14.173z M87.139,14.182c0-0.08-0.016-0.141-0.047-0.18
				s-0.08-0.059-0.146-0.059H86.88v0.494h0.054c0.071,0,0.125-0.021,0.157-0.063C87.125,14.332,87.139,14.268,87.139,14.182z"/>
			<path fill="#3C3C3B" d="M88.068,14.633h-0.521v-0.882h0.521v0.19h-0.285v0.14h0.266v0.19h-0.266v0.166h0.285V14.633z"/>
		</g>
		<g enable-background="new    ">
			<path fill="#3C3C3B" d="M79.818,16.271v0.32H79.58V15.71h0.289c0.24,0,0.359,0.087,0.359,0.263c0,0.102-0.054,0.18-0.15,0.234
				l0.258,0.385h-0.27l-0.189-0.32H79.818z M79.818,16.094h0.045c0.082,0,0.125-0.037,0.125-0.109c0-0.062-0.041-0.092-0.123-0.092
				h-0.047V16.094z"/>
			<path fill="#3C3C3B" d="M81.256,16.594h-0.312l-0.319-0.621h-0.008c0.01,0.098,0.014,0.172,0.014,0.225v0.396h-0.211v-0.882
				h0.312l0.32,0.612h0.004c-0.006-0.09-0.01-0.16-0.01-0.215v-0.397h0.213L81.256,16.594L81.256,16.594z"/>
			<path fill="#3C3C3B" d="M81.717,16.344v-0.166h1.145v0.166H81.717z"/>
			<path fill="#3C3C3B" d="M83.324,15.712h0.307c0.121,0,0.209,0.019,0.268,0.054c0.062,0.035,0.088,0.092,0.088,0.166
				c0,0.049-0.014,0.092-0.039,0.127c-0.022,0.035-0.059,0.059-0.1,0.067v0.006c0.055,0.015,0.094,0.038,0.119,0.072
				c0.023,0.032,0.037,0.077,0.037,0.132c0,0.08-0.031,0.143-0.092,0.188c-0.059,0.045-0.141,0.07-0.246,0.07h-0.342V15.712z
				 M83.562,16.05h0.069c0.035,0,0.062-0.007,0.08-0.021c0.021-0.016,0.026-0.035,0.026-0.063c0-0.049-0.036-0.073-0.11-0.073
				h-0.065V16.05z M83.562,16.225v0.188h0.084c0.074,0,0.11-0.032,0.11-0.096c0-0.028-0.01-0.053-0.028-0.066
				c-0.021-0.018-0.049-0.021-0.088-0.021L83.562,16.225L83.562,16.225z"/>
			<path fill="#3C3C3B" d="M84.113,16.493c0-0.036,0.01-0.065,0.033-0.085c0.02-0.021,0.053-0.03,0.094-0.03s0.072,0.011,0.092,0.03
				c0.021,0.02,0.033,0.049,0.033,0.085s-0.012,0.063-0.033,0.085s-0.053,0.029-0.092,0.029s-0.07-0.01-0.094-0.028
				C84.125,16.559,84.113,16.529,84.113,16.493z"/>
			<path fill="#3C3C3B" d="M84.902,16.594h-0.238v-0.688h-0.215v-0.194h0.668v0.194h-0.215V16.594L84.902,16.594z"/>
			<path fill="#3C3C3B" d="M85.199,16.493c0-0.036,0.012-0.065,0.033-0.085c0.02-0.021,0.055-0.03,0.096-0.03s0.07,0.011,0.092,0.03
				s0.033,0.049,0.033,0.085s-0.012,0.063-0.033,0.085s-0.053,0.029-0.092,0.029s-0.07-0.01-0.094-0.028
				C85.211,16.559,85.199,16.529,85.199,16.493z"/>
		</g>
	</g>
	<g>
		<polygon fill="#C6C6C6" points="81.588,4.587 77.766,8.542 81.342,8.852 		"/>
		<path fill="#9C9B9B" d="M81.342,8.916c-0.002,0-0.004,0-0.006,0L77.76,8.605c-0.023-0.002-0.045-0.018-0.055-0.041
			c-0.008-0.023-0.002-0.049,0.014-0.067l3.822-3.955c0.02-0.021,0.047-0.026,0.072-0.015c0.02,0.011,0.039,0.037,0.039,0.062
			l-0.246,4.266c0,0.018-0.008,0.033-0.021,0.045C81.373,8.911,81.357,8.916,81.342,8.916z M77.906,8.489l3.375,0.292l0.229-4.024
			L77.906,8.489z"/>
	</g>
	<g>
		<polygon fill="#C6C6C6" points="81.535,4.238 77.846,8.123 81.135,8.432 		"/>
		<path fill="#9C9B9B" d="M81.137,8.497c-0.002,0-0.006,0-0.008,0l-3.289-0.31c-0.025-0.002-0.047-0.019-0.055-0.043
			c-0.008-0.022-0.004-0.049,0.014-0.066l3.689-3.885c0.02-0.02,0.049-0.024,0.074-0.014c0.02,0.012,0.039,0.038,0.028,0.064
			l-0.396,4.193C81.197,8.473,81.168,8.497,81.137,8.497z M77.984,8.07l3.1,0.291l0.377-3.943L77.984,8.07z"/>
	</g>
	<g>
		
			<linearGradient id="SVGID_9_" gradientUnits="userSpaceOnUse" x1="1204.2148" y1="-1784.624" x2="1205.4598" y2="-1788.0452" gradientTransform="matrix(1 0 0 -1 -1125.0547 -1779.6406)">
			<stop  offset="0" style="stop-color:#FFFFFF"/>
			<stop  offset="1" style="stop-color:#EBEBEB"/>
		</linearGradient>
		<polygon fill="url(#SVGID_9_)" points="81.498,4.132 77.611,8.006 81.498,8.006 		"/>
		<path fill="#9D9D9C" d="M81.498,8.104h-3.887c-0.039,0-0.074-0.023-0.09-0.06c-0.021-0.036-0.015-0.078,0.02-0.104l3.887-3.875
			c0.027-0.028,0.068-0.037,0.105-0.021c0.035,0.016,0.059,0.051,0.059,0.09v3.875C81.594,8.061,81.551,8.104,81.498,8.104z
			 M77.844,7.91h3.559V4.365L77.844,7.91z"/>
	</g>
</g>
<g>
	<g>
		<path fill="#FDD609" d="M105.791,16.174c-3.742,0-6.554-2.332-7.521-6.238l-0.039-0.163h1.289l0.03,0.091
			c0.312,0.954,0.823,1.85,1.488,2.616c-0.035-0.212-0.053-0.427-0.053-0.642c0-2.213,1.8-4.012,4.011-4.012
			c2.212,0,4.012,1.799,4.012,4.012c0,0.265-0.025,0.526-0.078,0.783c0.738-1.13,1.093-2.459,1.007-3.816l-0.01-0.141h3.865
			l-0.015,0.145C113.417,12.457,109.388,16.174,105.791,16.174z M104.997,9.146c-1.484,0-2.691,1.208-2.691,2.692
			s1.207,2.691,2.691,2.691s2.692-1.207,2.692-2.691S106.481,9.146,104.997,9.146z"/>
	</g>
	<g>
		<path fill="#666666" d="M104.997,7.959c2.143,0,3.879,1.736,3.879,3.879c0,0.521-0.104,1.02-0.291,1.474
			c1.029-1.23,1.592-2.833,1.484-4.516h3.577c-0.364,3.682-4.487,7.246-7.855,7.246c-3.828,0-6.481-2.457-7.391-6.137h1.024
			c0.379,1.156,1.023,2.188,1.854,3.028c-0.103-0.348-0.159-0.715-0.159-1.096C101.119,9.695,102.855,7.959,104.997,7.959
			 M104.997,14.662c1.561,0,2.824-1.265,2.824-2.824s-1.264-2.825-2.824-2.825c-1.559,0-2.823,1.266-2.823,2.825
			S103.438,14.662,104.997,14.662 M104.997,7.693c-2.284,0-4.143,1.859-4.143,4.145c0,0.071,0.001,0.142,0.006,0.213
			c-0.52-0.673-0.922-1.43-1.184-2.229L99.616,9.64h-0.191H98.4h-0.339l0.081,0.329c0.981,3.969,3.841,6.338,7.648,6.338
			c3.655,0,7.753-3.776,8.119-7.484l0.028-0.291h-0.292h-3.577h-0.282l0.019,0.281c0.07,1.116-0.163,2.214-0.668,3.191
			c0.002-0.055,0.004-0.11,0.004-0.166C109.142,9.553,107.282,7.693,104.997,7.693L104.997,7.693z M104.997,14.397
			c-1.411,0-2.559-1.149-2.559-2.56c0-1.412,1.147-2.561,2.559-2.561c1.412,0,2.56,1.148,2.56,2.561
			C107.557,13.248,106.409,14.397,104.997,14.397L104.997,14.397z"/>
	</g>
</g>
</svg>
