<?xml version="1.0" encoding="utf-8"?>
<!-- Generator: Adobe Illustrator 16.0.4, SVG Export Plug-In . SVG Version: 6.00 Build 0)  -->
<!DOCTYPE svg PUBLIC "-//W3C//DTD SVG 1.1//EN" "http://www.w3.org/Graphics/SVG/1.1/DTD/svg11.dtd">
<svg version="1.1" id="Ebene_1" xmlns="http://www.w3.org/2000/svg" xmlns:xlink="http://www.w3.org/1999/xlink" x="0px" y="0px"
	 width="168px" height="48px" viewBox="0 0 168 48" enable-background="new 0 0 168 48" xml:space="preserve">
<g>
	<g>
		
			<linearGradient id="SVGID_1_" gradientUnits="userSpaceOnUse" x1="577" y1="89.4893" x2="577" y2="103.1367" gradientTransform="matrix(1 0 0 1 -541 -80.707)">
			<stop  offset="0" style="stop-color:#DE0011"/>
			<stop  offset="1" style="stop-color:#B6001D"/>
		</linearGradient>
		<polygon fill="url(#SVGID_1_)" points="46.673,22.43 25.327,22.43 24.07,8.783 47.928,8.783 		"/>
		<path fill="#9C181D" d="M46.673,22.5H25.327c-0.037,0-0.067-0.032-0.07-0.064L24,8.789c-0.001-0.021,0.004-0.035,0.019-0.053
			c0.013-0.015,0.033-0.023,0.052-0.023h23.858c0.021,0,0.039,0.009,0.052,0.023c0.014,0.018,0.021,0.032,0.018,0.053l-1.255,13.649
			C46.742,22.471,46.71,22.5,46.673,22.5z M25.393,22.356h21.215L47.85,8.854h-23.7L25.393,22.356z"/>
	</g>
	<g>
		
			<linearGradient id="SVGID_2_" gradientUnits="userSpaceOnUse" x1="579" y1="-322.7832" x2="579" y2="-319.8569" gradientTransform="matrix(1 0 0 -1 -543 -314)">
			<stop  offset="0" style="stop-color:#5D0F0B"/>
			<stop  offset="0.2414" style="stop-color:#761313"/>
			<stop  offset="0.5665" style="stop-color:#9C181D"/>
		</linearGradient>
		<path fill="url(#SVGID_2_)" d="M32.01,7.983V6.422c0-0.346-0.253-0.565-0.565-0.565h-5.773c-0.312,0-0.596,0.105-0.596,0.565
			v1.699L24.07,8.783h23.858l-1.255-0.8H32.01L32.01,7.983z"/>
		<path fill="#5D0F0B" d="M47.928,8.854H24.07c-0.031,0-0.06-0.021-0.067-0.05c-0.007-0.028,0.003-0.062,0.03-0.079l0.972-0.642
			V6.422c0-0.419,0.225-0.639,0.668-0.639h5.773c0.369,0,0.636,0.27,0.636,0.639V7.91h14.592c0.013,0,0.026,0.006,0.039,0.012
			l1.256,0.8c0.027,0.018,0.039,0.05,0.03,0.082C47.988,8.833,47.961,8.854,47.928,8.854z M24.311,8.713h23.375l-1.032-0.659H32.01
			c-0.039,0-0.072-0.031-0.072-0.07V6.422c0-0.29-0.202-0.495-0.494-0.495h-5.773c-0.363,0-0.524,0.155-0.524,0.495v1.699
			c0,0.026-0.013,0.047-0.032,0.059L24.311,8.713z"/>
	</g>
</g>
<g>
	<g>
		<g>
			<g>
				
					<linearGradient id="SVGID_3_" gradientUnits="userSpaceOnUse" x1="665.1768" y1="-325.9473" x2="684.8232" y2="-325.9473" gradientTransform="matrix(1 0 0 -1 -543 -314)">
					<stop  offset="0" style="stop-color:#FFFFFF"/>
					<stop  offset="1" style="stop-color:#F2F2F4"/>
				</linearGradient>
				<polygon fill="url(#SVGID_3_)" points="141.823,0.23 128.479,0.23 122.177,6.532 122.177,23.665 141.823,23.665 				"/>
				<path fill="#969696" d="M141.823,23.839h-19.646l-0.173-0.174V6.532l0.051-0.123l6.301-6.301l0.123-0.05h13.346l0.173,0.173
					v23.434L141.823,23.839z M122.35,23.492h19.301V0.403h-13.099l-6.202,6.199V23.492L122.35,23.492z"/>
			</g>
			<g>
				<polygon fill="#FFFFFF" points="128.479,0.23 122.177,6.532 128.479,6.532 				"/>
				<path fill="#969696" d="M128.479,6.661h-6.302l-0.091-0.22l6.299-6.3l0.223,0.093v6.304L128.479,6.661z M122.49,6.4h5.859V0.544
					L122.49,6.4z"/>
			</g>
		</g>
	</g>
	<g>
		<path fill="#353534" d="M130.102,20.944h-4.232v-0.781l2.729-3.913h-2.654v-0.996h4.086v0.781l-2.721,3.913h2.795v0.996H130.102z"
			/>
		<path fill="#353534" d="M131.01,20.944v-5.691h1.207v5.691H131.01z"/>
		<path fill="#353534" d="M137.578,17.029c0,0.612-0.189,1.081-0.574,1.408c-0.381,0.324-0.926,0.485-1.632,0.485h-0.519v2.026
			h-1.207v-5.691h1.818c0.688,0,1.217,0.149,1.573,0.445C137.398,15.998,137.578,16.44,137.578,17.029z M134.854,17.931h0.398
			c0.372,0,0.646-0.073,0.832-0.22c0.186-0.145,0.281-0.36,0.281-0.639c0-0.284-0.082-0.492-0.234-0.627
			c-0.152-0.135-0.398-0.205-0.724-0.205h-0.552v1.69L134.854,17.931L134.854,17.931z"/>
	</g>
	<rect x="136.346" y="0.331" fill="#353534" width="0.979" height="0.983"/>
	<rect x="137.326" y="1.314" fill="#353534" width="0.984" height="0.981"/>
	<rect x="136.346" y="2.295" fill="#353534" width="0.979" height="0.983"/>
	<rect x="137.326" y="3.278" fill="#353534" width="0.984" height="0.983"/>
	<rect x="136.346" y="4.261" fill="#353534" width="0.979" height="0.981"/>
	<rect x="137.326" y="5.243" fill="#353534" width="0.984" height="0.981"/>
	<rect x="136.346" y="6.227" fill="#353534" width="0.979" height="0.981"/>
	<rect x="137.326" y="7.208" fill="#353534" width="0.984" height="0.981"/>
	<g>
		<path fill="#353534" d="M138.305,11.846c0,0.542-0.441,0.98-0.984,0.979l0,0c-0.538,0-0.979-0.439-0.975-0.981l0.002-2.675
			c0.004-0.539,0.442-0.976,0.984-0.976l0,0c0.539,0.003,0.979,0.441,0.977,0.981L138.305,11.846z"/>
		
			<linearGradient id="SVGID_4_" gradientUnits="userSpaceOnUse" x1="679.7812" y1="-325.5762" x2="680.8682" y2="-325.5762" gradientTransform="matrix(1 0 0 -1 -543 -314)">
			<stop  offset="0.5" style="stop-color:#FFFFFF"/>
			<stop  offset="1" style="stop-color:#E9E9E9"/>
		</linearGradient>
		<path fill="url(#SVGID_4_)" d="M137.868,11.793c-0.003,0.302-0.246,0.543-0.545,0.542l0,0c-0.3,0-0.542-0.243-0.542-0.542v-0.437
			c0-0.299,0.246-0.539,0.545-0.539l0,0c0.299,0.001,0.542,0.245,0.542,0.542V11.793z"/>
	</g>
</g>
<g>
	<g>
		<g>
			<g>
				
					<linearGradient id="SVGID_5_" gradientUnits="userSpaceOnUse" x1="641.1768" y1="-325.8906" x2="660.8232" y2="-325.8906" gradientTransform="matrix(1 0 0 -1 -543 -314)">
					<stop  offset="0" style="stop-color:#FFFFFF"/>
					<stop  offset="1" style="stop-color:#F2F2F4"/>
				</linearGradient>
				<polygon fill="url(#SVGID_5_)" points="117.823,0.172 104.477,0.172 98.177,6.473 98.177,23.609 117.823,23.609 				"/>
				<path fill="#969696" d="M117.823,23.782H98.177l-0.175-0.173V6.473l0.053-0.12l6.303-6.302L104.48,0h13.343l0.175,0.174v23.438
					L117.823,23.782z M98.348,23.436h19.301V0.347h-13.098l-6.203,6.2V23.436z"/>
			</g>
		</g>
	</g>
	<g>
		<path fill="#B6001D" d="M104.812,16.917c0,0.615-0.191,1.084-0.574,1.408c-0.383,0.325-0.93,0.486-1.633,0.486h-0.521v2.024
			h-1.205v-5.691h1.818c0.688,0,1.215,0.146,1.571,0.445C104.633,15.886,104.812,16.329,104.812,16.917z M102.09,17.823h0.396
			c0.371,0,0.647-0.073,0.832-0.22c0.185-0.146,0.277-0.36,0.277-0.642c0-0.282-0.076-0.492-0.232-0.627
			c-0.154-0.135-0.396-0.202-0.725-0.202h-0.55L102.09,17.823L102.09,17.823z"/>
		<path fill="#B6001D" d="M110.609,17.934c0,0.938-0.269,1.655-0.803,2.153c-0.531,0.498-1.304,0.747-2.31,0.747h-1.611v-5.689
			h1.787c0.929,0,1.647,0.246,2.164,0.735C110.352,16.37,110.609,17.055,110.609,17.934z M109.355,17.966
			c0-1.222-0.541-1.834-1.621-1.834h-0.642v3.706h0.517C108.775,19.838,109.355,19.214,109.355,17.966z"/>
		<path fill="#B6001D" d="M112.977,20.834h-1.188v-5.689h3.264v0.987h-2.073V17.6h1.93v0.984h-1.93v2.25H112.977z"/>
	</g>
	<g>
		<path fill="#353534" d="M100.812,5.146c0,0.146-0.041,0.258-0.121,0.334c-0.078,0.082-0.189,0.117-0.334,0.117h-0.281V4.733h0.301
			c0.139,0,0.248,0.035,0.32,0.105C100.773,4.909,100.812,5.011,100.812,5.146z M100.566,5.155c0-0.079-0.017-0.138-0.045-0.176
			c-0.031-0.035-0.08-0.059-0.144-0.059h-0.067v0.486h0.053c0.07,0,0.123-0.021,0.156-0.062
			C100.551,5.304,100.566,5.24,100.566,5.155z"/>
		<path fill="#353534" d="M100.967,5.597V4.733h0.234v0.864H100.967z"/>
		<path fill="#353534" d="M101.902,5.597h-0.516V4.733h0.516V4.92h-0.28v0.135h0.258v0.188h-0.258v0.164h0.28V5.597z"/>
		<path fill="#353534" d="M102.754,4.912c-0.055,0-0.1,0.026-0.13,0.07s-0.047,0.105-0.047,0.188c0,0.167,0.063,0.249,0.188,0.249
			c0.039,0,0.075-0.006,0.11-0.015c0.035-0.012,0.072-0.023,0.11-0.038v0.199c-0.071,0.032-0.153,0.044-0.246,0.044
			c-0.131,0-0.231-0.035-0.301-0.108c-0.069-0.079-0.104-0.188-0.104-0.331c0-0.091,0.019-0.167,0.051-0.237
			c0.035-0.067,0.085-0.117,0.146-0.155c0.064-0.032,0.139-0.05,0.225-0.05c0.092,0,0.184,0.021,0.268,0.056l-0.07,0.185
			c-0.03-0.015-0.064-0.026-0.096-0.035C102.826,4.917,102.793,4.912,102.754,4.912z"/>
		<path fill="#353534" d="M103.967,5.164c0,0.149-0.035,0.258-0.105,0.337c-0.071,0.073-0.178,0.108-0.313,0.108
			s-0.239-0.035-0.312-0.114c-0.072-0.076-0.109-0.182-0.109-0.331c0-0.144,0.037-0.255,0.107-0.331
			c0.072-0.076,0.178-0.114,0.313-0.114c0.138,0,0.242,0.038,0.313,0.114C103.932,4.909,103.967,5.017,103.967,5.164z
			 M103.371,5.164c0,0.167,0.059,0.252,0.174,0.252c0.059,0,0.104-0.021,0.133-0.062c0.029-0.038,0.041-0.1,0.041-0.19
			c0-0.085-0.012-0.149-0.043-0.19c-0.027-0.041-0.072-0.062-0.129-0.062C103.43,4.912,103.371,4.997,103.371,5.164z"/>
		<path fill="#353534" d="M104.934,5.164c0,0.149-0.035,0.258-0.105,0.337c-0.07,0.073-0.176,0.108-0.312,0.108
			c-0.136,0-0.238-0.035-0.312-0.114c-0.071-0.076-0.107-0.182-0.107-0.331c0-0.144,0.035-0.255,0.107-0.331
			c0.074-0.076,0.178-0.114,0.314-0.114c0.135,0,0.241,0.038,0.312,0.114C104.898,4.909,104.934,5.017,104.934,5.164z M104.34,5.164
			c0,0.167,0.059,0.252,0.172,0.252c0.062,0,0.104-0.021,0.133-0.062c0.029-0.038,0.043-0.1,0.043-0.19
			c0-0.085-0.016-0.149-0.043-0.19c-0.03-0.041-0.074-0.062-0.133-0.062C104.395,4.912,104.34,4.997,104.34,5.164z"/>
		<path fill="#353534" d="M105.09,5.597V4.733h0.235V5.41h0.333v0.188L105.09,5.597L105.09,5.597z"/>
		<path fill="#353534" d="M106.361,5.336c0,0.053-0.012,0.1-0.041,0.141c-0.027,0.044-0.064,0.076-0.117,0.1
			c-0.051,0.021-0.111,0.032-0.18,0.032c-0.06,0-0.107-0.003-0.146-0.012c-0.037-0.009-0.078-0.023-0.121-0.041V5.348
			c0.044,0.021,0.092,0.038,0.139,0.05c0.049,0.015,0.095,0.021,0.133,0.021c0.035,0,0.062-0.003,0.076-0.021
			c0.019-0.012,0.024-0.026,0.024-0.041c0-0.016-0.003-0.026-0.009-0.032c-0.006-0.006-0.016-0.018-0.031-0.026
			c-0.014-0.009-0.053-0.032-0.117-0.056c-0.055-0.029-0.098-0.053-0.125-0.076c-0.027-0.026-0.049-0.05-0.062-0.085
			c-0.015-0.032-0.021-0.067-0.021-0.108c0-0.082,0.03-0.144,0.086-0.188c0.059-0.044,0.14-0.067,0.239-0.067
			c0.091,0,0.183,0.023,0.274,0.062l-0.071,0.18c-0.082-0.034-0.151-0.051-0.211-0.051c-0.031,0-0.054,0.003-0.065,0.015
			c-0.015,0.013-0.021,0.025-0.021,0.037c0,0.019,0.009,0.031,0.027,0.047c0.019,0.015,0.064,0.037,0.144,0.073
			c0.073,0.034,0.127,0.07,0.155,0.108C106.346,5.228,106.361,5.278,106.361,5.336z"/>
		<path fill="#353534" d="M106.878,5.597h-0.233V4.923h-0.211v-0.19h0.656v0.19h-0.212V5.597z"/>
		<path fill="#353534" d="M107.727,5.597h-0.514V4.733h0.514V4.92h-0.279v0.135h0.259v0.188h-0.259v0.164h0.279V5.597z"/>
		<path fill="#353534" d="M108.93,5.146c0,0.146-0.041,0.258-0.121,0.334c-0.08,0.082-0.189,0.117-0.336,0.117h-0.281V4.733h0.302
			c0.138,0,0.246,0.035,0.319,0.105C108.891,4.909,108.93,5.011,108.93,5.146z M108.688,5.155c0-0.079-0.018-0.138-0.049-0.176
			c-0.031-0.035-0.078-0.059-0.143-0.059h-0.066v0.486h0.053c0.07,0,0.123-0.021,0.154-0.062
			C108.67,5.304,108.688,5.24,108.688,5.155z"/>
		<path fill="#353534" d="M109.615,5.597l-0.042-0.158h-0.282l-0.043,0.158h-0.258l0.283-0.867h0.311l0.285,0.867H109.615z
			 M109.525,5.243l-0.039-0.141c-0.008-0.032-0.021-0.076-0.031-0.123c-0.014-0.05-0.021-0.088-0.025-0.108
			c-0.003,0.021-0.01,0.053-0.021,0.097c-0.011,0.047-0.033,0.141-0.068,0.275H109.525z"/>
		<path fill="#353534" d="M110.346,5.597h-0.232V4.923H109.9v-0.19h0.656v0.19h-0.211V5.597L110.346,5.597z"/>
		<path fill="#353534" d="M111.195,5.597h-0.516V4.733h0.516V4.92h-0.281v0.135h0.259v0.188h-0.259v0.164h0.281V5.597z"/>
		<path fill="#353534" d="M111.348,5.597V4.733h0.234v0.864H111.348z"/>
		<path fill="#353534" d="M112.818,5.146c0,0.146-0.039,0.258-0.119,0.334c-0.079,0.082-0.191,0.117-0.336,0.117h-0.281V4.733h0.301
			c0.139,0,0.248,0.035,0.324,0.105C112.779,4.909,112.818,5.011,112.818,5.146z M112.576,5.155c0-0.079-0.016-0.138-0.045-0.176
			c-0.033-0.035-0.081-0.059-0.145-0.059h-0.066v0.486h0.053c0.07,0,0.123-0.021,0.154-0.062
			C112.562,5.304,112.576,5.24,112.576,5.155z"/>
		<path fill="#353534" d="M113.49,5.597h-0.514V4.733h0.514V4.92h-0.279v0.135h0.258v0.188h-0.258v0.164h0.279V5.597z"/>
		<path fill="#353534" d="M113.875,5.284v0.313h-0.234V4.733h0.285c0.234,0,0.352,0.088,0.352,0.255c0,0.1-0.051,0.179-0.146,0.234
			l0.25,0.375h-0.266l-0.185-0.313H113.875z M113.875,5.108h0.045c0.082,0,0.123-0.035,0.123-0.105c0-0.059-0.04-0.094-0.121-0.094
			h-0.047V5.108z"/>
		<path fill="#353534" d="M101.012,7.053h-0.277l-0.084-0.375c-0.002-0.018-0.01-0.05-0.018-0.097s-0.014-0.085-0.019-0.117
			c-0.003,0.026-0.007,0.059-0.017,0.097c-0.007,0.038-0.013,0.073-0.021,0.105c-0.007,0.031-0.035,0.158-0.086,0.387h-0.277
			L100,6.189h0.227l0.094,0.434c0.021,0.094,0.035,0.173,0.044,0.229c0.005-0.041,0.014-0.094,0.028-0.164
			c0.012-0.067,0.023-0.126,0.037-0.173l0.074-0.325h0.217l0.074,0.325c0.014,0.053,0.025,0.114,0.041,0.185
			c0.012,0.067,0.02,0.12,0.023,0.152c0.006-0.044,0.02-0.12,0.043-0.226l0.096-0.434h0.225L101.012,7.053z"/>
		<path fill="#353534" d="M101.85,7.053h-0.514V6.189h0.514v0.188h-0.279v0.135h0.259V6.7h-0.259v0.164h0.279V7.053z"/>
		<path fill="#353534" d="M102.002,7.053V6.189h0.234v0.677h0.334v0.188L102.002,7.053L102.002,7.053z"/>
		<path fill="#353534" d="M103.092,7.053h-0.234V6.379h-0.211v-0.19h0.656v0.19h-0.211V7.053L103.092,7.053z"/>
		<path fill="#353534" d="M103.74,7.053V6.189h0.236v0.864H103.74z"/>
		<path fill="#353534" d="M104.729,6.792c0,0.053-0.014,0.1-0.041,0.141c-0.028,0.041-0.065,0.079-0.117,0.1
			c-0.053,0.021-0.11,0.032-0.182,0.032c-0.059,0-0.104-0.003-0.145-0.012c-0.04-0.009-0.08-0.023-0.121-0.041V6.801
			c0.043,0.023,0.09,0.041,0.137,0.056c0.049,0.012,0.094,0.018,0.135,0.018c0.033,0,0.06-0.006,0.074-0.018
			c0.018-0.015,0.025-0.029,0.025-0.047c0-0.012-0.002-0.021-0.01-0.032c-0.008-0.009-0.017-0.018-0.032-0.026
			c-0.013-0.012-0.052-0.032-0.116-0.056c-0.055-0.029-0.098-0.053-0.125-0.079c-0.027-0.023-0.051-0.05-0.062-0.082
			c-0.014-0.031-0.021-0.067-0.021-0.111c0-0.079,0.031-0.144,0.086-0.188c0.06-0.041,0.14-0.064,0.239-0.064
			c0.089,0,0.182,0.023,0.275,0.062l-0.071,0.179c-0.081-0.032-0.151-0.056-0.21-0.056c-0.03,0-0.053,0.006-0.065,0.021
			c-0.014,0.009-0.021,0.023-0.021,0.035c0,0.018,0.01,0.032,0.027,0.047c0.018,0.012,0.064,0.038,0.143,0.073
			c0.076,0.032,0.127,0.07,0.156,0.108C104.718,6.679,104.729,6.734,104.729,6.792z"/>
		<path fill="#353534" d="M105.244,7.053h-0.234V6.379h-0.211v-0.19h0.656v0.19h-0.211V7.053z"/>
		<path fill="#353534" d="M105.895,6.189h0.301c0.119,0,0.207,0.018,0.263,0.053c0.058,0.031,0.088,0.088,0.088,0.158
			c0,0.05-0.012,0.094-0.037,0.126c-0.026,0.032-0.059,0.056-0.098,0.064v0.009c0.053,0.015,0.093,0.035,0.114,0.073
			c0.025,0.031,0.037,0.076,0.037,0.129c0,0.079-0.03,0.141-0.09,0.185c-0.059,0.044-0.139,0.067-0.24,0.067h-0.338V6.189
			L105.895,6.189z M106.128,6.52h0.07c0.034,0,0.06-0.006,0.077-0.021c0.017-0.015,0.029-0.035,0.029-0.062
			c0-0.05-0.037-0.073-0.111-0.073h-0.065V6.52z M106.128,6.693v0.182h0.083c0.07,0,0.109-0.032,0.109-0.094
			c0-0.029-0.012-0.05-0.029-0.067c-0.021-0.015-0.049-0.021-0.086-0.021H106.128z"/>
		<path fill="#353534" d="M107.225,7.053h-0.512V6.189h0.512v0.188h-0.279v0.135h0.261V6.7h-0.261v0.164h0.279V7.053z"/>
		<path fill="#353534" d="M107.943,6.792c0,0.053-0.014,0.1-0.041,0.141c-0.028,0.041-0.064,0.079-0.117,0.1
			s-0.113,0.032-0.182,0.032c-0.06,0-0.105-0.003-0.146-0.012c-0.041-0.009-0.08-0.023-0.121-0.041V6.801
			c0.043,0.023,0.09,0.041,0.139,0.056c0.049,0.012,0.092,0.018,0.131,0.018c0.035,0,0.062-0.006,0.078-0.018
			c0.017-0.015,0.025-0.029,0.025-0.047c0-0.012-0.004-0.021-0.012-0.032c-0.006-0.009-0.018-0.018-0.033-0.026
			c-0.014-0.012-0.051-0.032-0.113-0.056c-0.058-0.029-0.1-0.053-0.127-0.079c-0.029-0.023-0.049-0.05-0.062-0.082
			c-0.014-0.031-0.02-0.067-0.02-0.111c0-0.079,0.028-0.144,0.088-0.188c0.059-0.041,0.137-0.064,0.238-0.064
			c0.09,0,0.182,0.023,0.275,0.062l-0.07,0.179c-0.082-0.032-0.152-0.056-0.211-0.056c-0.031,0-0.053,0.006-0.064,0.021
			c-0.016,0.009-0.021,0.023-0.021,0.035c0,0.018,0.011,0.032,0.027,0.047c0.019,0.012,0.064,0.038,0.143,0.073
			c0.072,0.032,0.126,0.07,0.156,0.108C107.932,6.678,107.943,6.734,107.943,6.792z"/>
		<path fill="#353534" d="M108.461,7.053h-0.236V6.379h-0.209v-0.19h0.656v0.19h-0.211V7.053z"/>
		<path fill="#353534" d="M108.795,7.053V6.189h0.234v0.864H108.795z"/>
		<path fill="#353534" d="M109.596,7.053l-0.18-0.624h-0.002c0.006,0.105,0.012,0.19,0.012,0.249v0.375h-0.209V6.189h0.311
			l0.183,0.612h0.004l0.177-0.612h0.312v0.864h-0.213V6.675c0-0.023,0-0.044,0-0.067c0-0.026,0.002-0.085,0.007-0.176h-0.005
			l-0.176,0.621H109.596L109.596,7.053z"/>
		<path fill="#353534" d="M110.768,7.053l-0.176-0.624h-0.006c0.008,0.105,0.012,0.19,0.012,0.249v0.375h-0.207V6.189h0.312
			l0.18,0.612h0.004l0.178-0.612h0.312v0.864h-0.217V6.675c0-0.023,0-0.044,0.002-0.067c0-0.026,0.004-0.085,0.006-0.176h-0.002
			l-0.175,0.621H110.768L110.768,7.053z"/>
		<path fill="#353534" d="M111.945,7.053h-0.234V6.379H111.5v-0.19h0.656v0.19h-0.211V7.053z"/>
		<path fill="#353534" d="M113.418,7.053h-0.305l-0.316-0.609h-0.006c0.01,0.097,0.012,0.17,0.012,0.22v0.39h-0.207V6.189h0.307
			l0.314,0.601h0.002c-0.006-0.091-0.008-0.158-0.008-0.214v-0.39h0.207V7.053z"/>
		<path fill="#353534" d="M113.605,7.053V6.189h0.233v0.864H113.605z"/>
		<path fill="#353534" d="M114.414,6.368c-0.055,0-0.1,0.023-0.131,0.067c-0.031,0.047-0.047,0.108-0.047,0.19
			c0,0.167,0.063,0.249,0.19,0.249c0.037,0,0.074-0.006,0.109-0.015c0.037-0.012,0.073-0.029,0.11-0.041v0.199
			c-0.071,0.032-0.153,0.047-0.246,0.047c-0.131,0-0.229-0.038-0.301-0.111c-0.07-0.076-0.104-0.188-0.104-0.331
			c0-0.088,0.019-0.167,0.051-0.234c0.033-0.07,0.082-0.12,0.146-0.158c0.062-0.032,0.139-0.053,0.223-0.053
			c0.094,0,0.186,0.021,0.27,0.059l-0.07,0.185c-0.03-0.015-0.063-0.026-0.096-0.035C114.486,6.377,114.451,6.368,114.414,6.368z"/>
		<path fill="#353534" d="M115.559,7.053h-0.235V6.702h-0.271v0.352h-0.235V6.189h0.235v0.319h0.271V6.189h0.235V7.053z"/>
		<path fill="#353534" d="M116.127,7.053h-0.232V6.379h-0.215v-0.19h0.656v0.19h-0.209V7.053z"/>
		<path fill="#353534" d="M100.812,8.058c0,0.144-0.041,0.255-0.121,0.334c-0.078,0.079-0.189,0.117-0.334,0.117h-0.281V7.642h0.301
			c0.139,0,0.248,0.038,0.32,0.108C100.773,7.821,100.812,7.923,100.812,8.058z M100.566,8.067c0-0.079-0.017-0.138-0.045-0.176
			c-0.031-0.038-0.08-0.059-0.144-0.059h-0.067v0.486h0.053c0.07,0,0.123-0.021,0.156-0.062
			C100.551,8.213,100.566,8.152,100.566,8.067z"/>
		<path fill="#353534" d="M101.48,8.509h-0.517V7.642h0.517v0.19h-0.281v0.135h0.26v0.188h-0.26v0.164h0.281V8.509z"/>
		<path fill="#353534" d="M101.631,8.509V7.642h0.236v0.867H101.631z"/>
		<path fill="#353534" d="M102.877,8.509h-0.307L102.256,7.9h-0.006c0.008,0.097,0.011,0.17,0.011,0.22v0.39h-0.206V7.642h0.307
			l0.312,0.604h0.004c-0.006-0.091-0.008-0.158-0.008-0.211V7.639h0.207V8.509z"/>
		<path fill="#353534" d="M104.01,7.917c0,0.1-0.027,0.173-0.085,0.226c-0.058,0.053-0.14,0.079-0.243,0.079h-0.065v0.287h-0.235
			V7.642h0.301c0.108,0,0.191,0.026,0.245,0.073C103.982,7.762,104.01,7.83,104.01,7.917z M103.615,8.032h0.041
			c0.035,0,0.064-0.009,0.086-0.029c0.02-0.021,0.031-0.047,0.031-0.082c0-0.059-0.031-0.091-0.097-0.091h-0.062V8.032z"/>
		<path fill="#353534" d="M104.883,8.058c0,0.144-0.039,0.255-0.119,0.334c-0.082,0.079-0.19,0.117-0.336,0.117h-0.281V7.642h0.301
			c0.14,0,0.246,0.038,0.32,0.108C104.844,7.821,104.883,7.923,104.883,8.058z M104.641,8.067c0-0.079-0.018-0.138-0.047-0.176
			c-0.031-0.038-0.08-0.059-0.145-0.059h-0.067v0.486h0.054c0.069,0,0.123-0.021,0.156-0.062
			C104.623,8.213,104.641,8.152,104.641,8.067z"/>
		<path fill="#353534" d="M105.268,8.509h-0.229V7.642h0.512v0.19h-0.28v0.164h0.258v0.188h-0.258v0.325H105.268z"/>
		<path fill="#353534" d="M105.624,8.278V8.09h0.335v0.188H105.624z"/>
		<path fill="#353534" d="M106.812,8.058c0,0.144-0.039,0.255-0.119,0.334s-0.191,0.117-0.336,0.117h-0.281V7.642h0.301
			c0.139,0,0.246,0.038,0.322,0.108C106.773,7.821,106.812,7.923,106.812,8.058z M106.568,8.067c0-0.079-0.017-0.138-0.047-0.176
			s-0.078-0.059-0.144-0.059h-0.067v0.486h0.053c0.072,0,0.125-0.021,0.156-0.062C106.553,8.213,106.568,8.152,106.568,8.067z"/>
		<path fill="#353534" d="M107.779,8.076c0,0.146-0.035,0.255-0.107,0.331c-0.072,0.076-0.176,0.114-0.314,0.114
			c-0.135,0-0.238-0.038-0.311-0.114c-0.074-0.076-0.109-0.188-0.109-0.331c0-0.146,0.035-0.255,0.109-0.331
			c0.071-0.076,0.176-0.114,0.314-0.114c0.137,0,0.242,0.038,0.312,0.111C107.742,7.818,107.779,7.929,107.779,8.076z
			 M107.184,8.076c0,0.167,0.059,0.252,0.174,0.252c0.06,0,0.103-0.021,0.132-0.062c0.028-0.041,0.04-0.105,0.04-0.19
			c0-0.088-0.014-0.149-0.041-0.193c-0.03-0.041-0.071-0.062-0.131-0.062C107.241,7.821,107.184,7.906,107.184,8.076z"/>
		<path fill="#353534" d="M108.674,8.509h-0.266l-0.17-0.331l-0.07,0.038v0.29h-0.234V7.639h0.234v0.378
			c0.014-0.026,0.039-0.062,0.074-0.111l0.183-0.267h0.255l-0.272,0.39L108.674,8.509z"/>
		<path fill="#353534" d="M109.503,7.642v0.521c0,0.114-0.03,0.202-0.095,0.264c-0.064,0.064-0.157,0.094-0.279,0.094
			c-0.117,0-0.207-0.029-0.271-0.091c-0.063-0.059-0.096-0.149-0.096-0.261v-0.53h0.236v0.51c0,0.062,0.012,0.105,0.035,0.132
			c0.021,0.032,0.055,0.044,0.1,0.044c0.049,0,0.084-0.015,0.104-0.038c0.021-0.032,0.031-0.076,0.031-0.138v-0.51L109.503,7.642
			L109.503,7.642z"/>
		<path fill="#353534" d="M110.062,8.509l-0.179-0.624h-0.006c0.011,0.105,0.017,0.19,0.017,0.249v0.375h-0.209V7.642h0.312
			l0.18,0.615h0.005l0.178-0.615h0.311v0.867h-0.213V8.131c0-0.021,0-0.044,0-0.067s0.002-0.082,0.008-0.176h-0.006l-0.172,0.621
			H110.062L110.062,8.509z"/>
		<path fill="#353534" d="M111.373,8.509h-0.514V7.642h0.514v0.19h-0.281v0.135h0.262v0.188h-0.262v0.164h0.281V8.509z"/>
		<path fill="#353534" d="M112.35,8.509h-0.309L111.725,7.9h-0.006c0.01,0.097,0.012,0.17,0.012,0.22v0.39h-0.207V7.642h0.308
			l0.313,0.604h0.002c-0.002-0.091-0.008-0.158-0.008-0.211V7.639h0.207L112.35,8.509L112.35,8.509z"/>
		<path fill="#353534" d="M112.918,8.509h-0.234V7.835h-0.211V7.642h0.656v0.193h-0.211V8.509z"/>
		<path fill="#353534" d="M113.453,8.333l0.01,0.012c-0.039,0.155-0.074,0.261-0.104,0.334h-0.166
			c0.012-0.053,0.022-0.114,0.035-0.185c0.01-0.067,0.019-0.12,0.022-0.158L113.453,8.333L113.453,8.333z"/>
		<path fill="#353534" d="M114.43,7.642h0.262l-0.282,0.867h-0.276l-0.281-0.867h0.264l0.117,0.439
			c0.024,0.1,0.037,0.167,0.041,0.205c0.002-0.029,0.008-0.062,0.018-0.1c0.006-0.044,0.014-0.079,0.02-0.1L114.43,7.642z"/>
		<path fill="#353534" d="M115.299,8.509h-0.516V7.642h0.516v0.19h-0.281v0.135h0.262v0.188h-0.262v0.164h0.281V8.509z"/>
		<path fill="#353534" d="M115.686,8.196v0.313h-0.234V7.642h0.283c0.236,0,0.354,0.088,0.354,0.258c0,0.1-0.051,0.179-0.146,0.231
			l0.252,0.378h-0.266l-0.185-0.313H115.686z M115.686,8.017h0.041c0.084,0,0.123-0.035,0.123-0.105
			c0-0.062-0.039-0.091-0.119-0.091h-0.045V8.017z"/>
		<path fill="#353534" d="M116.201,8.278V8.09h0.334v0.188H116.201z"/>
		<path fill="#353534" d="M100.693,9.965h-0.676V9.822l0.375-0.533h-0.365v-0.19h0.656v0.146l-0.375,0.532h0.385V9.965z"/>
		<path fill="#353534" d="M101.33,9.965h-0.514V9.098h0.514v0.188h-0.279v0.138h0.258v0.188h-0.258v0.164h0.279V9.965z"/>
		<path fill="#353534" d="M101.482,9.965V9.098h0.233v0.867H101.482z"/>
		<path fill="#353534" d="M102.648,9.965h-0.236V9.614h-0.273v0.352h-0.234V9.098h0.234V9.42h0.273V9.098h0.236V9.965z"/>
		<path fill="#353534" d="M103.57,9.098V9.62c0,0.114-0.031,0.205-0.096,0.267c-0.065,0.062-0.156,0.094-0.277,0.094
			c-0.119,0-0.209-0.031-0.273-0.092c-0.062-0.062-0.094-0.148-0.094-0.261v-0.53h0.234v0.51c0,0.062,0.011,0.104,0.035,0.132
			c0.021,0.031,0.057,0.04,0.1,0.04c0.049,0,0.082-0.012,0.104-0.04c0.021-0.028,0.03-0.07,0.03-0.135V9.098H103.57L103.57,9.098z"
			/>
		<path fill="#353534" d="M104.576,9.965h-0.305l-0.316-0.609h-0.007c0.007,0.097,0.013,0.17,0.013,0.22v0.39h-0.207V9.098h0.307
			l0.314,0.604h0.002c-0.006-0.088-0.007-0.158-0.007-0.211V9.098h0.208L104.576,9.965L104.576,9.965z"/>
		<path fill="#353534" d="M105.111,9.458h0.375v0.466c-0.104,0.035-0.213,0.053-0.336,0.053c-0.131,0-0.236-0.035-0.312-0.117
			c-0.069-0.076-0.106-0.188-0.106-0.331c0-0.138,0.037-0.249,0.119-0.325c0.08-0.079,0.19-0.117,0.334-0.117
			c0.055,0,0.104,0.006,0.155,0.015c0.048,0.012,0.089,0.026,0.125,0.041l-0.075,0.182c-0.062-0.029-0.131-0.044-0.203-0.044
			c-0.068,0-0.121,0.021-0.16,0.064c-0.036,0.047-0.055,0.108-0.055,0.19s0.018,0.144,0.053,0.188
			c0.031,0.041,0.082,0.062,0.146,0.062c0.035,0,0.065-0.003,0.097-0.009V9.64h-0.156V9.458L105.111,9.458z"/>
		<path fill="#353534" d="M105.619,9.866c0-0.035,0.011-0.064,0.033-0.085c0.021-0.021,0.053-0.029,0.094-0.029
			c0.037,0,0.068,0.009,0.09,0.029c0.021,0.02,0.031,0.047,0.031,0.085c0,0.034-0.01,0.064-0.031,0.085
			c-0.023,0.021-0.053,0.029-0.09,0.029c-0.039,0-0.07-0.009-0.094-0.029C105.63,9.93,105.619,9.904,105.619,9.866z"/>
	</g>
	<g>
		<polygon fill="#FFFFFF" points="104.477,0.172 98.177,6.473 104.477,6.473 		"/>
		<path fill="#969696" d="M104.477,6.605h-6.3l-0.093-0.22l6.301-6.302l0.221,0.091v6.304L104.477,6.605z M98.49,6.344h5.857V0.487
			L98.49,6.344z"/>
	</g>
</g>
<g>
	<g>
		<g>
			<g>
				
					<linearGradient id="SVGID_6_" gradientUnits="userSpaceOnUse" x1="689.1768" y1="-325.8906" x2="708.8232" y2="-325.8906" gradientTransform="matrix(1 0 0 -1 -543 -314)">
					<stop  offset="0" style="stop-color:#FFFFFF"/>
					<stop  offset="1" style="stop-color:#F2F2F4"/>
				</linearGradient>
				<polygon fill="url(#SVGID_6_)" points="165.823,0.172 152.479,0.172 146.177,6.473 146.177,23.609 165.823,23.609 				"/>
				<path fill="#969696" d="M165.823,23.782h-19.646l-0.173-0.173V6.473l0.051-0.123l6.301-6.301L152.479,0h13.346l0.173,0.172
					v23.437L165.823,23.782z M146.35,23.436h19.301V0.347h-13.099l-6.202,6.2V23.436L146.35,23.436z"/>
			</g>
		</g>
	</g>
	<g>
		
			<linearGradient id="SVGID_7_" gradientUnits="userSpaceOnUse" x1="514.2227" y1="-245.834" x2="514.2227" y2="-240.145" gradientTransform="matrix(1 0 0 -1 -364 -225)">
			<stop  offset="0" style="stop-color:#1495DE"/>
			<stop  offset="1" style="stop-color:#073866"/>
		</linearGradient>
		<path fill="url(#SVGID_7_)" d="M152.581,17.934c0,0.938-0.267,1.655-0.8,2.153c-0.53,0.498-1.305,0.747-2.309,0.747h-1.611v-5.689
			h1.783c0.93,0,1.655,0.243,2.166,0.735C152.323,16.37,152.581,17.055,152.581,17.934z M151.327,17.966
			c0-1.222-0.539-1.834-1.617-1.834h-0.646v3.706h0.52C150.747,19.838,151.327,19.214,151.327,17.966z"/>
		
			<linearGradient id="SVGID_8_" gradientUnits="userSpaceOnUse" x1="520.2168" y1="-245.9141" x2="520.2168" y2="-240.0542" gradientTransform="matrix(1 0 0 -1 -364 -225)">
			<stop  offset="0" style="stop-color:#1495DE"/>
			<stop  offset="1" style="stop-color:#073866"/>
		</linearGradient>
		<path fill="url(#SVGID_8_)" d="M158.927,17.981c0,0.943-0.233,1.667-0.702,2.171c-0.47,0.507-1.138,0.762-2.008,0.762
			c-0.873,0-1.541-0.255-2.01-0.762c-0.469-0.504-0.703-1.23-0.703-2.18c0-0.946,0.234-1.67,0.706-2.168
			c0.47-0.501,1.14-0.75,2.013-0.75c0.877,0,1.541,0.252,2.008,0.759C158.695,16.314,158.927,17.038,158.927,17.981z
			 M154.771,17.981c0,0.636,0.121,1.116,0.363,1.436c0.24,0.322,0.602,0.483,1.081,0.483c0.968,0,1.444-0.639,1.444-1.919
			c0-1.279-0.475-1.919-1.436-1.919c-0.479,0-0.842,0.158-1.088,0.48C154.896,16.865,154.771,17.345,154.771,17.981z"/>
		
			<linearGradient id="SVGID_9_" gradientUnits="userSpaceOnUse" x1="526.0205" y1="-245.9141" x2="526.0205" y2="-240.0659" gradientTransform="matrix(1 0 0 -1 -364 -225)">
			<stop  offset="0" style="stop-color:#1495DE"/>
			<stop  offset="1" style="stop-color:#073866"/>
		</linearGradient>
		<path fill="url(#SVGID_9_)" d="M162.521,16.065c-0.455,0-0.807,0.173-1.056,0.513c-0.249,0.343-0.372,0.817-0.372,1.427
			c0,1.269,0.475,1.904,1.428,1.904c0.403,0,0.885-0.1,1.453-0.299v1.011c-0.467,0.196-0.988,0.293-1.564,0.293
			c-0.829,0-1.462-0.252-1.901-0.753c-0.437-0.504-0.655-1.222-0.655-2.165c0-0.589,0.104-1.104,0.321-1.55
			c0.218-0.446,0.524-0.788,0.929-1.028c0.404-0.237,0.877-0.352,1.418-0.352c0.552,0,1.107,0.132,1.664,0.401l-0.39,0.979
			c-0.217-0.1-0.428-0.188-0.646-0.267C162.939,16.103,162.729,16.065,162.521,16.065z"/>
	</g>
	<g>
		<path fill="#353534" d="M148.811,5.146c0,0.146-0.037,0.255-0.117,0.334c-0.082,0.082-0.192,0.117-0.336,0.117h-0.281V4.733h0.299
			c0.141,0,0.246,0.035,0.322,0.105C148.773,4.908,148.811,5.011,148.811,5.146z M148.57,5.155c0-0.079-0.019-0.138-0.051-0.176
			c-0.028-0.035-0.078-0.059-0.141-0.059h-0.07v0.486h0.053c0.07,0,0.123-0.021,0.156-0.062C148.553,5.301,148.57,5.24,148.57,5.155
			z"/>
		<path fill="#353534" d="M148.966,5.597V4.733h0.234v0.864H148.966z"/>
		<path fill="#353534" d="M149.902,5.597h-0.516V4.733h0.516V4.92h-0.28v0.135h0.261v0.188h-0.261v0.164h0.28V5.597z"/>
		<path fill="#353534" d="M150.369,4.733h0.302c0.117,0,0.205,0.021,0.265,0.053c0.056,0.032,0.084,0.091,0.084,0.161
			c0,0.05-0.012,0.091-0.037,0.126c-0.023,0.032-0.053,0.056-0.094,0.064v0.006c0.053,0.015,0.094,0.038,0.116,0.073
			c0.026,0.032,0.032,0.076,0.032,0.129c0,0.076-0.029,0.141-0.088,0.185c-0.059,0.044-0.141,0.067-0.243,0.067h-0.337V4.733
			L150.369,4.733z M150.604,5.064h0.07c0.032,0,0.059-0.006,0.079-0.021c0.019-0.018,0.026-0.035,0.026-0.062
			c0-0.05-0.032-0.076-0.105-0.076h-0.07V5.064L150.604,5.064z M150.604,5.234v0.185h0.082c0.073,0,0.108-0.032,0.108-0.094
			c0-0.029-0.009-0.05-0.032-0.067c-0.018-0.015-0.044-0.023-0.082-0.023L150.604,5.234L150.604,5.234z"/>
		<path fill="#353534" d="M151.702,5.597h-0.517V4.733h0.517V4.92h-0.281v0.135h0.261v0.188h-0.261v0.164h0.281V5.597z"/>
		<path fill="#353534" d="M152.42,5.333c0,0.056-0.016,0.103-0.041,0.144c-0.029,0.044-0.066,0.076-0.117,0.097
			c-0.053,0.023-0.113,0.035-0.182,0.035c-0.059,0-0.105-0.003-0.146-0.012c-0.037-0.012-0.078-0.026-0.119-0.041V5.342
			c0.043,0.026,0.09,0.041,0.138,0.056c0.05,0.015,0.094,0.021,0.135,0.021c0.032,0,0.06-0.006,0.076-0.021
			c0.019-0.012,0.026-0.026,0.026-0.044c0-0.015-0.004-0.023-0.013-0.032c-0.009-0.009-0.018-0.021-0.032-0.029
			c-0.015-0.012-0.053-0.029-0.117-0.059c-0.055-0.023-0.094-0.047-0.125-0.073c-0.029-0.023-0.051-0.053-0.062-0.082
			c-0.015-0.032-0.021-0.07-0.021-0.111c0-0.079,0.029-0.141,0.086-0.188c0.059-0.044,0.141-0.067,0.24-0.067
			c0.094,0,0.182,0.021,0.274,0.064l-0.073,0.179c-0.078-0.035-0.148-0.056-0.207-0.056c-0.033,0-0.054,0.006-0.068,0.018
			c-0.014,0.009-0.021,0.026-0.021,0.038c0,0.018,0.009,0.032,0.026,0.047c0.018,0.012,0.064,0.038,0.145,0.073
			c0.072,0.032,0.125,0.07,0.157,0.108C152.408,5.222,152.42,5.275,152.42,5.333z"/>
		<path fill="#353534" d="M152.936,5.597h-0.233V4.923h-0.211v-0.19h0.655v0.19h-0.211V5.597L152.936,5.597z"/>
		<path fill="#353534" d="M153.782,5.597h-0.513V4.733h0.516V4.92h-0.281v0.135h0.258v0.188h-0.258v0.164h0.281v0.19H153.782
			L153.782,5.597z"/>
		<path fill="#353534" d="M154.762,5.597h-0.309l-0.316-0.609h-0.006c0.01,0.097,0.012,0.17,0.012,0.22v0.39h-0.207V4.733h0.308
			l0.313,0.601h0.002c-0.002-0.088-0.006-0.158-0.006-0.211v-0.39h0.209V5.597L154.762,5.597z"/>
		<path fill="#353534" d="M155.997,5.146c0,0.146-0.041,0.255-0.117,0.334c-0.082,0.082-0.192,0.117-0.337,0.117h-0.281V4.733h0.299
			c0.142,0,0.246,0.035,0.322,0.105C155.959,4.908,155.997,5.011,155.997,5.146z M155.754,5.155c0-0.079-0.016-0.138-0.047-0.176
			c-0.029-0.035-0.079-0.059-0.145-0.059h-0.066v0.486h0.053c0.07,0,0.123-0.021,0.155-0.062
			C155.738,5.301,155.754,5.24,155.754,5.155z"/>
		<path fill="#353534" d="M156.964,5.164c0,0.149-0.032,0.258-0.108,0.331c-0.069,0.079-0.172,0.114-0.312,0.114
			c-0.135,0-0.236-0.035-0.312-0.114c-0.073-0.076-0.105-0.188-0.105-0.331c0-0.146,0.032-0.255,0.105-0.331
			c0.076-0.076,0.179-0.114,0.312-0.114c0.141,0,0.243,0.038,0.312,0.114C156.93,4.906,156.964,5.017,156.964,5.164z M156.366,5.164
			c0,0.167,0.059,0.252,0.176,0.252c0.06,0,0.103-0.021,0.132-0.062c0.029-0.038,0.041-0.1,0.041-0.19
			c0-0.085-0.015-0.149-0.041-0.19c-0.029-0.041-0.072-0.062-0.132-0.062C156.425,4.912,156.366,4.994,156.366,5.164z"/>
		<path fill="#353534" d="M157.857,5.597h-0.265l-0.17-0.331l-0.069,0.041v0.29h-0.234V4.733h0.234v0.375
			c0.012-0.026,0.035-0.062,0.072-0.111l0.182-0.264h0.256l-0.272,0.387L157.857,5.597z"/>
		<path fill="#353534" d="M158.689,4.733v0.524c0,0.108-0.032,0.199-0.098,0.261c-0.064,0.064-0.154,0.094-0.277,0.094
			c-0.117,0-0.209-0.031-0.272-0.092c-0.063-0.059-0.094-0.148-0.094-0.261V4.733h0.233V5.24c0,0.062,0.012,0.104,0.035,0.136
			c0.023,0.026,0.057,0.04,0.098,0.04c0.049,0,0.084-0.016,0.104-0.04c0.021-0.032,0.032-0.075,0.032-0.136V4.733H158.689
			L158.689,4.733z"/>
		<path fill="#353534" d="M159.249,5.597l-0.179-0.624h-0.006c0.009,0.108,0.015,0.19,0.015,0.249v0.375h-0.208V4.733h0.311
			l0.183,0.612h0.006l0.176-0.612h0.312v0.864h-0.217V5.219c0-0.021,0-0.044,0-0.067c0.002-0.023,0.006-0.082,0.012-0.176h-0.006
			l-0.174,0.621H159.249z"/>
		<path fill="#353534" d="M160.559,5.597h-0.516V4.733h0.516V4.92h-0.281v0.135h0.259v0.188h-0.259v0.164h0.281V5.597z"/>
		<path fill="#353534" d="M161.534,5.597h-0.308l-0.316-0.609h-0.006c0.009,0.097,0.012,0.17,0.012,0.22v0.39h-0.208V4.733h0.308
			l0.313,0.601h0.006c-0.006-0.088-0.009-0.158-0.009-0.211v-0.39h0.208V5.597L161.534,5.597z"/>
		<path fill="#353534" d="M162.104,5.597h-0.234V4.923h-0.211v-0.19h0.656v0.19h-0.211V5.597L162.104,5.597z"/>
		<path fill="#353534" d="M162.952,5.597h-0.517V4.733h0.517V4.92h-0.281v0.135h0.261v0.188h-0.261v0.164h0.281V5.597z"/>
		<path fill="#353534" d="M148.591,7.053h-0.516V6.189h0.516v0.188h-0.28v0.135h0.26V6.7h-0.26v0.164h0.28V7.053z"/>
		<path fill="#353534" d="M149.566,7.053h-0.309l-0.312-0.609h-0.006c0.006,0.094,0.009,0.167,0.009,0.22v0.39h-0.205V6.189h0.305
			l0.313,0.601h0.006c-0.006-0.091-0.01-0.158-0.01-0.214v-0.39h0.209V7.053L149.566,7.053z"/>
		<path fill="#353534" d="M150.135,7.053h-0.23V6.379h-0.215v-0.19h0.656v0.19h-0.211V7.053z"/>
		<path fill="#353534" d="M151.037,6.79c0,0.056-0.016,0.103-0.041,0.144c-0.025,0.044-0.066,0.076-0.117,0.097
			c-0.053,0.023-0.111,0.035-0.182,0.035c-0.059,0-0.105-0.003-0.146-0.012c-0.037-0.009-0.078-0.026-0.119-0.041V6.801
			c0.043,0.023,0.09,0.038,0.137,0.056c0.051,0.012,0.095,0.018,0.136,0.018c0.034,0,0.06-0.006,0.075-0.018
			c0.016-0.015,0.027-0.029,0.027-0.047c0-0.012-0.004-0.021-0.013-0.032c-0.006-0.006-0.019-0.015-0.028-0.026
			c-0.016-0.009-0.054-0.026-0.115-0.056c-0.059-0.023-0.096-0.05-0.129-0.073c-0.028-0.023-0.047-0.053-0.062-0.085
			c-0.015-0.032-0.021-0.07-0.021-0.108c0-0.079,0.028-0.144,0.088-0.188c0.059-0.044,0.138-0.067,0.236-0.067
			c0.092,0,0.182,0.021,0.275,0.062l-0.073,0.182c-0.079-0.038-0.149-0.056-0.208-0.056c-0.031,0-0.053,0.006-0.066,0.015
			c-0.016,0.012-0.023,0.026-0.023,0.041c0,0.018,0.012,0.031,0.029,0.044c0.018,0.015,0.064,0.038,0.144,0.076
			c0.073,0.031,0.126,0.07,0.155,0.105S151.037,6.731,151.037,6.79z"/>
		<path fill="#353534" d="M151.553,7.053h-0.234V6.379h-0.211v-0.19h0.656v0.19h-0.211V7.053L151.553,7.053z"/>
		<path fill="#353534" d="M152.402,7.053h-0.517V6.189h0.517v0.188h-0.281v0.135h0.261V6.7h-0.261v0.164h0.281V7.053z"/>
		<path fill="#353534" d="M153.296,7.053h-0.233V6.702h-0.272v0.352h-0.237V6.189h0.237v0.319h0.272V6.189h0.233V7.053z"/>
		<path fill="#353534" d="M153.996,7.053h-0.516V6.189h0.516v0.188h-0.281v0.135h0.262V6.7h-0.262v0.164h0.281V7.053z"/>
		<path fill="#353534" d="M154.973,7.053h-0.309l-0.312-0.609h-0.006c0.006,0.094,0.008,0.167,0.008,0.22v0.39h-0.205V6.189h0.303
			l0.318,0.601h0.004c-0.01-0.091-0.012-0.158-0.012-0.214v-0.39h0.211V7.053L154.973,7.053z"/>
		<path fill="#353534" d="M155.852,7.053l-0.177-0.624h-0.006c0.009,0.105,0.015,0.19,0.015,0.249v0.375h-0.207V6.189h0.311
			l0.182,0.612h0.004l0.178-0.612h0.312v0.864h-0.217V6.675c0-0.023,0-0.044,0.003-0.067c0-0.026,0-0.085,0.006-0.176h-0.006
			l-0.173,0.621H155.852L155.852,7.053z"/>
		<path fill="#353534" d="M156.646,7.053V6.189h0.234v0.864H156.646z"/>
		<path fill="#353534" d="M157.453,7.053h-0.234V6.379h-0.211v-0.19h0.656v0.19h-0.211V7.053L157.453,7.053z"/>
		<path fill="#353534" d="M158.479,7.053l-0.176-0.624h-0.006c0.01,0.105,0.012,0.19,0.012,0.249v0.375h-0.207V6.189h0.312
			l0.179,0.612h0.007l0.176-0.612h0.312v0.864h-0.217V6.675c0-0.023,0-0.044,0-0.067c0-0.026,0.003-0.085,0.009-0.176h-0.006
			l-0.173,0.621H158.479z"/>
		<path fill="#353534" d="M159.275,7.053V6.189h0.233v0.864H159.275z"/>
		<path fill="#353534" d="M160.084,6.368c-0.059,0-0.098,0.021-0.132,0.067c-0.032,0.047-0.048,0.108-0.048,0.188
			c0,0.167,0.064,0.252,0.191,0.252c0.037,0,0.078-0.006,0.11-0.018c0.035-0.009,0.073-0.026,0.108-0.038v0.199
			c-0.073,0.032-0.155,0.047-0.246,0.047c-0.129,0-0.231-0.038-0.299-0.114c-0.07-0.076-0.105-0.185-0.105-0.328
			c0-0.088,0.021-0.167,0.05-0.237c0.035-0.067,0.085-0.12,0.149-0.155c0.063-0.038,0.138-0.056,0.22-0.056
			c0.094,0,0.185,0.021,0.271,0.062l-0.07,0.185c-0.029-0.018-0.064-0.029-0.094-0.038C160.157,6.371,160.119,6.368,160.084,6.368z"
			/>
		<path fill="#353534" d="M160.721,6.737v0.316h-0.234V6.189h0.283c0.234,0,0.353,0.085,0.353,0.255c0,0.1-0.05,0.179-0.149,0.231
			l0.252,0.378h-0.267l-0.183-0.316H160.721z M160.721,6.561h0.041c0.084,0,0.122-0.035,0.122-0.105c0-0.062-0.038-0.091-0.12-0.091
			h-0.043V6.561z"/>
		<path fill="#353534" d="M162.113,6.62c0,0.146-0.034,0.255-0.104,0.331c-0.069,0.076-0.176,0.114-0.313,0.114
			c-0.135,0-0.239-0.038-0.312-0.114c-0.07-0.076-0.107-0.188-0.107-0.334c0-0.144,0.035-0.252,0.107-0.328
			c0.073-0.079,0.176-0.114,0.312-0.114c0.138,0,0.244,0.035,0.313,0.111C162.082,6.362,162.113,6.473,162.113,6.62z M161.52,6.62
			c0,0.167,0.06,0.252,0.176,0.252c0.06,0,0.104-0.021,0.133-0.062s0.041-0.105,0.041-0.19c0-0.091-0.016-0.152-0.041-0.193
			c-0.032-0.041-0.073-0.062-0.133-0.062C161.578,6.365,161.52,6.45,161.52,6.62z"/>
		<path fill="#353534" d="M162.205,6.822V6.637h0.334v0.185H162.205z"/>
		<path fill="#353534" d="M148.645,8.246c0,0.053-0.016,0.103-0.041,0.144c-0.026,0.041-0.067,0.073-0.121,0.097
			c-0.047,0.023-0.107,0.032-0.176,0.032c-0.059,0-0.104-0.003-0.148-0.012c-0.035-0.009-0.079-0.026-0.12-0.044V8.254
			c0.044,0.023,0.094,0.038,0.142,0.056c0.047,0.012,0.094,0.018,0.135,0.018c0.028,0,0.059-0.006,0.072-0.018
			c0.021-0.015,0.026-0.029,0.026-0.047c0-0.012,0-0.023-0.009-0.032c-0.006-0.009-0.018-0.019-0.032-0.028
			c-0.019-0.009-0.054-0.028-0.117-0.056c-0.056-0.028-0.097-0.048-0.126-0.073c-0.031-0.025-0.05-0.053-0.062-0.086
			c-0.015-0.031-0.022-0.067-0.022-0.107c0-0.083,0.032-0.145,0.088-0.188c0.06-0.044,0.142-0.067,0.24-0.067
			c0.091,0,0.183,0.021,0.274,0.062l-0.072,0.18c-0.079-0.037-0.149-0.054-0.208-0.054c-0.032,0-0.054,0.006-0.067,0.015
			c-0.018,0.012-0.023,0.028-0.023,0.04c0,0.019,0.01,0.031,0.029,0.047c0.019,0.012,0.064,0.037,0.145,0.073
			c0.076,0.031,0.126,0.067,0.154,0.108C148.629,8.14,148.645,8.187,148.645,8.246z"/>
		<path fill="#353534" d="M149.587,8.076c0,0.146-0.032,0.255-0.108,0.331c-0.069,0.076-0.172,0.114-0.312,0.114
			c-0.135,0-0.236-0.038-0.312-0.114c-0.07-0.076-0.105-0.188-0.105-0.334c0-0.144,0.035-0.252,0.105-0.328
			c0.076-0.076,0.179-0.114,0.315-0.114c0.142,0,0.24,0.038,0.313,0.111C149.552,7.818,149.587,7.929,149.587,8.076z M148.992,8.076
			c0,0.167,0.056,0.249,0.173,0.249c0.06,0,0.103-0.018,0.132-0.059s0.044-0.105,0.044-0.19c0-0.088-0.018-0.152-0.044-0.193
			c-0.029-0.041-0.072-0.062-0.132-0.062C149.048,7.821,148.992,7.906,148.992,8.076z"/>
		<path fill="#353534" d="M149.975,8.509h-0.231V7.642h0.513V7.83h-0.281v0.167h0.258v0.188h-0.258V8.509L149.975,8.509z"/>
		<path fill="#353534" d="M150.779,8.509h-0.234V7.835h-0.211V7.642h0.659v0.193h-0.214V8.509z"/>
		<path fill="#353534" d="M152.363,8.509h-0.277l-0.085-0.378c-0.003-0.015-0.009-0.047-0.019-0.094
			c-0.012-0.047-0.018-0.085-0.022-0.117c-0.003,0.029-0.006,0.059-0.015,0.094c-0.006,0.038-0.016,0.073-0.021,0.105
			c-0.009,0.031-0.035,0.158-0.088,0.39h-0.277l-0.218-0.867h0.226l0.095,0.437c0.021,0.094,0.034,0.17,0.044,0.229
			c0.006-0.041,0.016-0.097,0.025-0.164c0.016-0.07,0.026-0.126,0.039-0.173l0.076-0.328h0.217l0.072,0.328
			c0.016,0.053,0.026,0.114,0.041,0.182c0.012,0.07,0.021,0.12,0.026,0.155c0.003-0.041,0.019-0.117,0.041-0.226l0.097-0.437h0.223
			L152.363,8.509z"/>
		<path fill="#353534" d="M153.501,8.076c0,0.146-0.038,0.255-0.108,0.331c-0.069,0.076-0.176,0.114-0.312,0.114
			s-0.24-0.038-0.312-0.114c-0.074-0.076-0.108-0.188-0.108-0.334c0-0.144,0.034-0.252,0.108-0.328
			c0.069-0.076,0.176-0.114,0.312-0.114s0.243,0.038,0.312,0.111C153.463,7.818,153.501,7.929,153.501,8.076z M152.902,8.076
			c0,0.167,0.06,0.249,0.177,0.249c0.06,0,0.103-0.018,0.132-0.059c0.032-0.041,0.041-0.105,0.041-0.19
			c0-0.088-0.012-0.152-0.041-0.193s-0.072-0.062-0.132-0.062C152.962,7.821,152.902,7.906,152.902,8.076z"/>
		<path fill="#353534" d="M153.891,8.193v0.316h-0.233V7.642h0.284c0.233,0,0.352,0.085,0.352,0.258c0,0.1-0.047,0.179-0.146,0.231
			l0.252,0.378h-0.267l-0.185-0.316H153.891L153.891,8.193z M153.891,8.017h0.045c0.082,0,0.123-0.035,0.123-0.108
			c0-0.059-0.041-0.088-0.121-0.088h-0.047V8.017L153.891,8.017z"/>
		<path fill="#353534" d="M155.212,8.058c0,0.144-0.038,0.255-0.12,0.334c-0.078,0.079-0.189,0.117-0.334,0.117h-0.281V7.642h0.299
			c0.142,0,0.246,0.038,0.322,0.108S155.212,7.923,155.212,8.058z M154.969,8.067c0-0.079-0.018-0.141-0.047-0.176
			c-0.031-0.041-0.079-0.059-0.145-0.059h-0.066v0.486h0.051c0.072,0,0.122-0.021,0.154-0.064
			C154.951,8.213,154.969,8.152,154.969,8.067z"/>
		<path fill="#353534" d="M155.323,8.41c0-0.032,0.012-0.064,0.032-0.082c0.022-0.021,0.053-0.029,0.094-0.029
			s0.07,0.009,0.091,0.029c0.022,0.018,0.032,0.047,0.032,0.082c0,0.038-0.012,0.064-0.032,0.085
			c-0.022,0.023-0.05,0.032-0.091,0.032s-0.07-0.009-0.094-0.032C155.335,8.474,155.323,8.448,155.323,8.41z"/>
		<path fill="#353534" d="M156.971,8.509h-0.279l-0.084-0.378c-0.006-0.015-0.012-0.047-0.021-0.094
			c-0.009-0.047-0.016-0.085-0.018-0.117c-0.004,0.029-0.01,0.059-0.016,0.094c-0.012,0.038-0.018,0.073-0.023,0.105
			c-0.008,0.031-0.034,0.158-0.088,0.39h-0.28l-0.214-0.867h0.226l0.095,0.437c0.021,0.094,0.034,0.17,0.041,0.229
			c0.006-0.041,0.018-0.097,0.028-0.164c0.015-0.07,0.029-0.126,0.035-0.173l0.079-0.328h0.217l0.076,0.328
			c0.012,0.053,0.023,0.114,0.035,0.182c0.015,0.07,0.022,0.12,0.029,0.155c0.006-0.041,0.018-0.117,0.037-0.226l0.098-0.437h0.223
			L156.971,8.509z"/>
		<path fill="#353534" d="M158.104,8.076c0,0.146-0.035,0.255-0.107,0.331c-0.07,0.076-0.176,0.114-0.312,0.114
			c-0.136,0-0.24-0.038-0.312-0.114c-0.073-0.076-0.108-0.188-0.108-0.334c0-0.144,0.035-0.252,0.105-0.328
			c0.072-0.076,0.179-0.114,0.316-0.114c0.137,0,0.239,0.038,0.312,0.111C158.068,7.818,158.104,7.929,158.104,8.076z
			 M157.509,8.076c0,0.167,0.056,0.249,0.173,0.249c0.06,0,0.104-0.018,0.133-0.059c0.028-0.041,0.041-0.105,0.041-0.19
			c0-0.088-0.013-0.152-0.041-0.193c-0.029-0.041-0.073-0.062-0.129-0.062C157.566,7.821,157.509,7.906,157.509,8.076z"/>
		<path fill="#353534" d="M158.637,8.509l-0.176-0.624h-0.006c0.009,0.105,0.012,0.188,0.012,0.249v0.375h-0.208V7.642h0.313
			l0.179,0.615h0.006l0.177-0.615h0.312v0.867h-0.217V8.128c0-0.018,0-0.041,0.003-0.064c0-0.023,0.003-0.082,0.006-0.179h-0.003
			l-0.174,0.624H158.637z"/>
		<path fill="#353534" d="M159.434,8.509V7.642h0.234v0.867H159.434z"/>
		<path fill="#353534" d="M160.236,8.509h-0.234V7.835h-0.211V7.642h0.656v0.193h-0.211V8.509L160.236,8.509z"/>
		<path fill="#353534" d="M161.622,8.058c0,0.144-0.041,0.255-0.12,0.334s-0.189,0.117-0.337,0.117h-0.281V7.642h0.3
			c0.141,0,0.248,0.038,0.321,0.108C161.584,7.821,161.622,7.923,161.622,8.058z M161.379,8.067c0-0.079-0.016-0.141-0.047-0.176
			c-0.029-0.041-0.079-0.059-0.145-0.059h-0.066v0.486h0.053c0.07,0,0.123-0.021,0.155-0.064
			C161.361,8.213,161.379,8.152,161.379,8.067z"/>
		<path fill="#353534" d="M162.29,8.509h-0.513V7.642h0.513V7.83h-0.281v0.138h0.261v0.188h-0.261V8.32h0.281V8.509z"/>
		<path fill="#353534" d="M163.266,8.509h-0.305L162.645,7.9h-0.006c0.01,0.094,0.012,0.167,0.012,0.22v0.39h-0.207V7.642h0.308
			l0.313,0.604h0.002c-0.002-0.091-0.008-0.158-0.008-0.211V7.639h0.207V8.509L163.266,8.509z"/>
		<path fill="#353534" d="M164.279,8.509h-0.309L163.654,7.9h-0.006c0.01,0.094,0.013,0.167,0.013,0.22v0.39h-0.208V7.642h0.309
			l0.312,0.604h0.006c-0.006-0.091-0.01-0.158-0.01-0.211V7.639h0.209V8.509L164.279,8.509z"/>
		<path fill="#353534" d="M148.605,9.965l-0.041-0.164h-0.281l-0.045,0.164h-0.258l0.281-0.87h0.312l0.286,0.87H148.605z
			 M148.518,9.611l-0.037-0.146c-0.01-0.029-0.021-0.07-0.029-0.117c-0.012-0.053-0.021-0.091-0.026-0.108
			c-0.006,0.018-0.012,0.053-0.021,0.097c-0.012,0.044-0.032,0.141-0.07,0.275L148.518,9.611L148.518,9.611z"/>
		<path fill="#353534" d="M149.691,9.098V9.62c0,0.114-0.031,0.205-0.096,0.267c-0.062,0.062-0.156,0.094-0.275,0.094
			c-0.12,0-0.209-0.032-0.272-0.092c-0.063-0.062-0.097-0.148-0.097-0.261v-0.53h0.236v0.51c0,0.062,0.013,0.104,0.033,0.132
			c0.022,0.031,0.059,0.04,0.1,0.04c0.047,0,0.084-0.012,0.103-0.04c0.022-0.028,0.032-0.07,0.032-0.135V9.098H149.691
			L149.691,9.098z"/>
		<path fill="#353534" d="M150.262,9.277c-0.057,0-0.101,0.023-0.133,0.07c-0.029,0.044-0.047,0.108-0.047,0.188
			c0,0.167,0.064,0.252,0.189,0.252c0.039,0,0.076-0.006,0.111-0.018s0.073-0.023,0.111-0.038v0.196
			c-0.073,0.032-0.158,0.05-0.246,0.05c-0.132,0-0.23-0.035-0.303-0.114c-0.069-0.076-0.104-0.185-0.104-0.328
			c0-0.091,0.021-0.17,0.054-0.237c0.031-0.067,0.082-0.12,0.144-0.155c0.063-0.038,0.142-0.056,0.226-0.056
			c0.094,0,0.182,0.021,0.268,0.062l-0.07,0.185c-0.029-0.015-0.064-0.029-0.094-0.038C150.331,9.283,150.296,9.277,150.262,9.277z"
			/>
		<path fill="#353534" d="M151.402,9.965h-0.233V9.611h-0.272v0.352h-0.233V9.098h0.233V9.42h0.272V9.098h0.233V9.965z"/>
		<path fill="#353534" d="M152.473,9.702c0,0.053-0.015,0.103-0.041,0.144c-0.025,0.042-0.063,0.073-0.117,0.097
			c-0.053,0.024-0.11,0.035-0.182,0.035c-0.059,0-0.105-0.006-0.145-0.015c-0.04-0.009-0.081-0.023-0.122-0.041V9.71
			c0.044,0.026,0.091,0.041,0.141,0.053c0.048,0.015,0.091,0.023,0.132,0.023c0.035,0,0.062-0.009,0.076-0.021
			c0.018-0.012,0.026-0.032,0.026-0.044c0-0.015-0.003-0.026-0.013-0.032c-0.006-0.009-0.018-0.018-0.028-0.026
			c-0.015-0.012-0.054-0.029-0.114-0.056c-0.059-0.029-0.097-0.05-0.129-0.073c-0.025-0.029-0.047-0.053-0.062-0.088
			c-0.015-0.032-0.021-0.067-0.021-0.108c0-0.082,0.028-0.144,0.088-0.188c0.06-0.041,0.138-0.067,0.237-0.067
			c0.091,0,0.182,0.023,0.275,0.062L152.4,9.327c-0.078-0.035-0.148-0.056-0.207-0.056c-0.032,0-0.053,0.006-0.067,0.018
			c-0.012,0.012-0.022,0.026-0.022,0.038c0,0.021,0.012,0.032,0.028,0.041c0.019,0.018,0.063,0.038,0.144,0.079
			c0.074,0.032,0.127,0.067,0.158,0.103C152.458,9.596,152.473,9.643,152.473,9.702z"/>
		<path fill="#353534" d="M153.416,9.532c0,0.144-0.035,0.255-0.105,0.331c-0.069,0.079-0.176,0.114-0.312,0.114
			s-0.24-0.035-0.312-0.114c-0.074-0.076-0.108-0.188-0.108-0.334c0-0.144,0.034-0.255,0.108-0.328
			c0.069-0.079,0.176-0.114,0.312-0.114s0.243,0.035,0.312,0.111C153.381,9.274,153.416,9.385,153.416,9.532z M152.82,9.532
			c0,0.167,0.06,0.249,0.177,0.249c0.06,0,0.103-0.021,0.132-0.059c0.025-0.041,0.041-0.105,0.041-0.19
			c0-0.088-0.016-0.152-0.041-0.193c-0.031-0.041-0.072-0.062-0.132-0.062C152.88,9.277,152.82,9.362,152.82,9.532z"/>
		<path fill="#353534" d="M154.396,9.965h-0.305l-0.316-0.609h-0.006c0.006,0.094,0.013,0.167,0.013,0.22v0.39h-0.208V9.098h0.305
			l0.316,0.604h0.003c-0.007-0.088-0.009-0.158-0.009-0.211V9.098h0.207V9.965z"/>
		<path fill="#353534" d="M155.152,9.702c0,0.053-0.014,0.103-0.037,0.144c-0.032,0.041-0.07,0.073-0.12,0.097
			c-0.05,0.022-0.111,0.035-0.179,0.035c-0.06,0-0.105-0.006-0.149-0.015c-0.035-0.009-0.079-0.023-0.123-0.041V9.71
			c0.047,0.026,0.095,0.041,0.144,0.053c0.045,0.015,0.095,0.023,0.133,0.023c0.031,0,0.062-0.009,0.078-0.021
			c0.016-0.012,0.023-0.032,0.023-0.044c0-0.015-0.003-0.026-0.009-0.032c-0.006-0.009-0.021-0.018-0.032-0.026
			c-0.015-0.012-0.053-0.029-0.113-0.056c-0.057-0.029-0.101-0.05-0.127-0.073c-0.031-0.029-0.05-0.053-0.063-0.088
			c-0.013-0.032-0.021-0.067-0.021-0.108c0-0.082,0.028-0.144,0.088-0.188c0.059-0.041,0.138-0.067,0.236-0.067
			c0.092,0,0.182,0.023,0.275,0.062l-0.07,0.182c-0.082-0.035-0.152-0.056-0.211-0.056c-0.032,0-0.053,0.006-0.064,0.018
			c-0.018,0.012-0.022,0.026-0.022,0.038c0,0.021,0.009,0.032,0.026,0.041c0.018,0.018,0.066,0.038,0.144,0.079
			c0.076,0.032,0.126,0.067,0.158,0.103C155.139,9.596,155.152,9.643,155.152,9.702z"/>
		<path fill="#353534" d="M155.666,9.965h-0.23V9.289h-0.215v-0.19h0.656v0.19h-0.211V9.965L155.666,9.965z"/>
		<path fill="#353534" d="M156.182,9.658h-0.192l-0.032-0.56h0.258L156.182,9.658z M155.959,9.866c0-0.035,0.012-0.064,0.032-0.085
			c0.022-0.021,0.053-0.031,0.094-0.031c0.038,0,0.069,0.012,0.091,0.031c0.021,0.021,0.032,0.047,0.032,0.085
			c0,0.034-0.015,0.064-0.032,0.085c-0.023,0.018-0.053,0.029-0.091,0.029c-0.041,0-0.073-0.012-0.094-0.029
			C155.971,9.93,155.959,9.901,155.959,9.866z"/>
	</g>
	<g>
		<polygon fill="#FFFFFF" points="152.479,0.172 146.177,6.473 152.479,6.473 		"/>
		<path fill="#969696" d="M152.479,6.605h-6.302l-0.094-0.22l6.306-6.303l0.217,0.093v6.304L152.479,6.605z M146.49,6.344h5.859
			V0.485L146.49,6.344z"/>
	</g>
</g>
<g>
	
		<linearGradient id="SVGID_10_" gradientUnits="userSpaceOnUse" x1="543.2783" y1="-326.7383" x2="566.7218" y2="-326.7383" gradientTransform="matrix(1 0 0 -1 -543 -314)">
		<stop  offset="0" style="stop-color:#D80011"/>
		<stop  offset="1" style="stop-color:#AD001A"/>
	</linearGradient>
	<polygon fill="url(#SVGID_10_)" points="0.557,12.126 0.557,23.443 4.775,23.443 4.775,17.347 10.714,17.347 10.714,23.443 
		23.443,23.443 23.443,12.126 12,2.033 	"/>
	<path fill="#AD001A" d="M12,1.292L0,11.875V24h5.332v-6.094h4.825V24H24V11.875L12,1.292z M23.443,23.443H10.714V17.35H4.775v6.094
		H0.558V12.126L12,2.033l11.443,10.093V23.443z"/>
</g>
<g>
	<g>
		
			<linearGradient id="SVGID_11_" gradientUnits="userSpaceOnUse" x1="598.7832" y1="-314.4175" x2="607.9572" y2="-339.6227" gradientTransform="matrix(1 0 0 -1 -543 -314)">
			<stop  offset="0" style="stop-color:#FFFFFF"/>
			<stop  offset="1" style="stop-color:#E8E7E7"/>
		</linearGradient>
		<path fill="url(#SVGID_11_)" d="M56.625,6.536c0,0.097-0.081,0.179-0.179,0.179h-6.177V23.64H69.73V0.359H56.628L56.625,6.536
			L56.625,6.536z"/>
		<path fill="#969696" d="M56.372,0l-0.053,0.053l0,0L49.961,6.41l0,0l-0.05,0.053V24h20.176V0H56.372z M50.521,6.357l5.745-5.747
			v5.747H50.521z M69.729,23.641h-19.46V6.715h6.177c0.098,0,0.179-0.079,0.179-0.179V0.36h13.104V23.641L69.729,23.641z"/>
		
			<linearGradient id="SVGID_12_" gradientUnits="userSpaceOnUse" x1="595.6875" y1="-315.5444" x2="604.8619" y2="-340.7514" gradientTransform="matrix(1 0 0 -1 -543 -314)">
			<stop  offset="0" style="stop-color:#FFFFFF"/>
			<stop  offset="1" style="stop-color:#E8E7E7"/>
		</linearGradient>
		<polygon fill="url(#SVGID_12_)" points="50.521,6.357 56.266,6.357 56.266,0.612 		"/>
		
			<linearGradient id="SVGID_13_" gradientUnits="userSpaceOnUse" x1="595.6865" y1="-315.5435" x2="597.7314" y2="-321.162" gradientTransform="matrix(1 0 0 -1 -543 -314)">
			<stop  offset="0" style="stop-color:#FFFFFF"/>
			<stop  offset="1" style="stop-color:#E8E7E7"/>
		</linearGradient>
		<polygon fill="url(#SVGID_13_)" points="50.521,6.357 56.266,6.357 56.266,0.612 		"/>
	</g>
	
		<linearGradient id="SVGID_14_" gradientUnits="userSpaceOnUse" x1="596.7988" y1="-323.208" x2="609.8301" y2="-323.208" gradientTransform="matrix(1 0 0 -1 -543 -314)">
		<stop  offset="0" style="stop-color:#D80011"/>
		<stop  offset="1" style="stop-color:#AD001A"/>
	</linearGradient>
	<rect x="53.799" y="8.382" fill="url(#SVGID_14_)" width="13.031" height="1.652"/>
	
		<linearGradient id="SVGID_15_" gradientUnits="userSpaceOnUse" x1="596.7988" y1="-326.603" x2="608.0645" y2="-326.603" gradientTransform="matrix(1 0 0 -1 -543 -314)">
		<stop  offset="0" style="stop-color:#D80011"/>
		<stop  offset="1" style="stop-color:#AD001A"/>
	</linearGradient>
	<rect x="53.799" y="11.777" fill="url(#SVGID_15_)" width="11.266" height="1.652"/>
	
		<linearGradient id="SVGID_16_" gradientUnits="userSpaceOnUse" x1="596.7988" y1="-329.8701" x2="609.8301" y2="-329.8701" gradientTransform="matrix(1 0 0 -1 -543 -314)">
		<stop  offset="0" style="stop-color:#D80011"/>
		<stop  offset="1" style="stop-color:#AD001A"/>
	</linearGradient>
	<rect x="53.799" y="15.044" fill="url(#SVGID_16_)" width="13.031" height="1.652"/>
	
		<linearGradient id="SVGID_17_" gradientUnits="userSpaceOnUse" x1="596.7988" y1="-333.2646" x2="609.0029" y2="-333.2646" gradientTransform="matrix(1 0 0 -1 -543 -314)">
		<stop  offset="0" style="stop-color:#D80011"/>
		<stop  offset="1" style="stop-color:#AD001A"/>
	</linearGradient>
	<rect x="53.799" y="18.439" fill="url(#SVGID_17_)" width="12.204" height="1.652"/>
</g>
<g>
	<g>
		
			<linearGradient id="SVGID_18_" gradientUnits="userSpaceOnUse" x1="622.7842" y1="-314.416" x2="631.9582" y2="-339.6213" gradientTransform="matrix(1 0 0 -1 -543 -314)">
			<stop  offset="0" style="stop-color:#FFFFFF"/>
			<stop  offset="1" style="stop-color:#E8E7E7"/>
		</linearGradient>
		<path fill="url(#SVGID_18_)" d="M80.625,6.536c0,0.097-0.08,0.179-0.179,0.179H74.27V23.64h19.46V0.359H80.628L80.625,6.536
			L80.625,6.536z"/>
		<g>
			<path fill="#353534" d="M76.33,4.938c-0.055,0-0.099,0.023-0.13,0.068c-0.03,0.046-0.046,0.108-0.046,0.188
				c0,0.167,0.062,0.251,0.189,0.251c0.038,0,0.075-0.007,0.11-0.017c0.036-0.012,0.073-0.024,0.109-0.039v0.197
				c-0.073,0.032-0.155,0.048-0.245,0.048c-0.13,0-0.23-0.037-0.301-0.113c-0.068-0.075-0.104-0.186-0.104-0.328
				c0-0.089,0.017-0.168,0.051-0.235c0.033-0.068,0.082-0.12,0.145-0.157c0.064-0.036,0.138-0.054,0.225-0.054
				c0.092,0,0.182,0.02,0.268,0.061L76.53,4.991c-0.032-0.015-0.064-0.028-0.099-0.038C76.401,4.942,76.367,4.938,76.33,4.938z"/>
			<path fill="#353534" d="M77.526,5.189c0,0.145-0.035,0.256-0.105,0.331c-0.072,0.076-0.178,0.113-0.315,0.113
				c-0.135,0-0.238-0.037-0.311-0.113c-0.071-0.076-0.108-0.187-0.108-0.332s0.037-0.254,0.108-0.33
				c0.07-0.076,0.175-0.114,0.312-0.114c0.137,0,0.241,0.038,0.313,0.113C77.491,4.934,77.526,5.043,77.526,5.189z M76.933,5.189
				c0,0.167,0.059,0.25,0.173,0.25c0.061,0,0.104-0.019,0.132-0.06c0.029-0.04,0.044-0.104,0.044-0.189
				c0-0.086-0.015-0.15-0.044-0.191c-0.027-0.041-0.073-0.062-0.13-0.062C76.991,4.936,76.933,5.021,76.933,5.189z"/>
			<path fill="#353534" d="M78.235,5.36c0,0.054-0.014,0.101-0.041,0.143c-0.026,0.042-0.066,0.074-0.117,0.097
				c-0.052,0.024-0.111,0.034-0.181,0.034c-0.059,0-0.108-0.003-0.146-0.012C77.711,5.614,77.673,5.6,77.629,5.58V5.372
				c0.045,0.023,0.091,0.042,0.141,0.054c0.047,0.013,0.091,0.019,0.132,0.019c0.033,0,0.06-0.006,0.076-0.018
				c0.016-0.012,0.024-0.028,0.024-0.047c0-0.012-0.004-0.022-0.012-0.032c-0.007-0.009-0.016-0.018-0.029-0.026
				c-0.016-0.009-0.054-0.027-0.117-0.056c-0.057-0.025-0.097-0.05-0.126-0.075c-0.027-0.023-0.047-0.051-0.062-0.083
				c-0.012-0.03-0.02-0.067-0.02-0.109c0-0.08,0.028-0.142,0.085-0.187c0.059-0.044,0.138-0.066,0.24-0.066
				c0.09,0,0.181,0.021,0.274,0.062l-0.072,0.18c-0.082-0.037-0.15-0.056-0.211-0.056c-0.03,0-0.051,0.006-0.065,0.016
				c-0.014,0.012-0.02,0.024-0.02,0.04c0,0.018,0.008,0.033,0.025,0.046c0.019,0.012,0.065,0.037,0.144,0.073
				c0.074,0.033,0.126,0.068,0.155,0.107C78.219,5.253,78.235,5.302,78.235,5.36z"/>
			<path fill="#353534" d="M78.655,5.622V4.759h0.236v0.863H78.655z"/>
			<path fill="#353534" d="M79.253,4.759L79.229,5.07h-0.163l-0.021-0.312L79.253,4.759L79.253,4.759z"/>
			<path fill="#353534" d="M79.78,5.622L79.604,5H79.6c0.007,0.105,0.01,0.188,0.01,0.248v0.374h-0.205V4.759h0.31l0.18,0.613H79.9
				l0.176-0.613h0.312v0.863h-0.216V5.243c0-0.018,0.002-0.041,0.002-0.064c0-0.024,0.003-0.083,0.007-0.177h-0.004l-0.176,0.62
				H79.78z"/>
			<path fill="#353534" d="M81.244,5.622h-0.233V4.95h-0.212V4.759h0.654V4.95h-0.209V5.622z"/>
			<path fill="#353534" d="M82.344,5.622h-0.271l-0.17-0.27l-0.167,0.27h-0.263l0.287-0.441l-0.27-0.422h0.258l0.158,0.267
				l0.15-0.267h0.266l-0.272,0.44L82.344,5.622z"/>
			<path fill="#353534" d="M82.807,5.622h-0.231V4.95h-0.212V4.759h0.654V4.95h-0.211V5.622z"/>
			<path fill="#353534" d="M83.085,5.524c0-0.036,0.014-0.064,0.032-0.083c0.023-0.02,0.055-0.029,0.094-0.029
				c0.04,0,0.069,0.01,0.091,0.029c0.021,0.02,0.031,0.048,0.031,0.083c0,0.035-0.011,0.064-0.032,0.084
				c-0.021,0.019-0.052,0.03-0.09,0.03s-0.068-0.011-0.092-0.03C83.099,5.588,83.085,5.56,83.085,5.524z"/>
			<path fill="#353534" d="M83.767,5.622V4.759h0.234v0.863H83.767z"/>
			<path fill="#353534" d="M84.362,4.759L84.339,5.07h-0.162l-0.023-0.312L84.362,4.759L84.362,4.759z"/>
			<path fill="#353534" d="M84.892,5.622L84.714,5H84.71c0.007,0.105,0.012,0.188,0.012,0.248v0.374h-0.207V4.759h0.31l0.182,0.613
				h0.006l0.174-0.613H85.5v0.863h-0.215V5.243c0-0.018,0-0.041,0.003-0.064c0-0.024,0.001-0.083,0.006-0.177h-0.005l-0.176,0.62
				H84.892z"/>
			<path fill="#353534" d="M86.706,5.172c0,0.144-0.038,0.255-0.12,0.333c-0.077,0.077-0.191,0.116-0.334,0.116h-0.281V4.759h0.302
				c0.14,0,0.246,0.036,0.321,0.106C86.67,4.936,86.706,5.038,86.706,5.172z M86.465,5.181c0-0.079-0.017-0.138-0.047-0.177
				c-0.032-0.038-0.079-0.057-0.143-0.057h-0.068v0.484h0.051c0.07,0,0.125-0.021,0.157-0.062
				C86.447,5.328,86.465,5.266,86.465,5.181z"/>
			<path fill="#353534" d="M87.156,5.078l0.149-0.319h0.253l-0.285,0.526v0.337h-0.234v-0.33l-0.286-0.533h0.255L87.156,5.078z"/>
			<path fill="#353534" d="M88.463,5.622h-0.31L87.84,5.014h-0.006c0.009,0.095,0.012,0.169,0.012,0.22v0.389h-0.208V4.759h0.307
				l0.313,0.601h0.003c-0.005-0.088-0.008-0.158-0.008-0.21V4.759h0.21V5.622z"/>
			<path fill="#353534" d="M89.164,5.622l-0.042-0.161h-0.28l-0.044,0.161h-0.256l0.282-0.867h0.31l0.287,0.867H89.164z
				 M89.073,5.269l-0.036-0.142c-0.009-0.031-0.018-0.072-0.032-0.122c-0.012-0.05-0.021-0.086-0.025-0.108
				c-0.003,0.021-0.01,0.053-0.019,0.099c-0.011,0.047-0.035,0.138-0.07,0.273H89.073z"/>
			<path fill="#353534" d="M89.878,5.622L89.699,5h-0.006c0.01,0.105,0.015,0.188,0.015,0.248v0.374h-0.21V4.759h0.312l0.18,0.613
				h0.006l0.176-0.613h0.312v0.863H90.27V5.243c0-0.018,0-0.041,0.001-0.064c0-0.024,0.003-0.083,0.006-0.177h-0.004l-0.175,0.62
				H89.878z"/>
			<path fill="#353534" d="M90.657,5.622V4.759h0.235v0.863H90.657z"/>
			<path fill="#353534" d="M91.446,5.622h-0.232V4.95h-0.213V4.759h0.656V4.95h-0.211V5.622z"/>
			<path fill="#353534" d="M92.28,5.622h-0.513V4.759h0.513v0.188H92v0.136h0.261V5.27H92v0.163h0.28V5.622z"/>
			<path fill="#353534" d="M92.598,5.317h-0.194l-0.031-0.559h0.257L92.598,5.317z M92.375,5.524c0-0.035,0.012-0.063,0.031-0.083
				c0.023-0.021,0.054-0.03,0.095-0.03c0.038,0,0.069,0.01,0.091,0.03c0.02,0.02,0.031,0.048,0.031,0.083
				c0,0.036-0.012,0.064-0.031,0.084c-0.023,0.019-0.054,0.03-0.091,0.03c-0.039,0-0.07-0.011-0.094-0.03
				C92.387,5.588,92.375,5.56,92.375,5.524z"/>
			<path fill="#353534" d="M76.327,7.074h-0.233V6.401h-0.211V6.212h0.654v0.189h-0.21V7.074z"/>
			<path fill="#353534" d="M77.39,7.074h-0.27l-0.168-0.27l-0.167,0.27h-0.264l0.285-0.441l-0.27-0.421h0.26l0.156,0.267
				l0.149-0.267h0.267l-0.272,0.439L77.39,7.074z"/>
			<path fill="#353534" d="M77.817,7.074h-0.232V6.401h-0.21V6.212h0.653v0.189h-0.211V7.074z"/>
			<path fill="#353534" d="M78.062,6.977c0-0.036,0.009-0.063,0.032-0.084c0.019-0.02,0.05-0.029,0.091-0.029
				c0.039,0,0.07,0.01,0.091,0.029c0.021,0.021,0.03,0.048,0.03,0.084s-0.01,0.063-0.03,0.083c-0.022,0.021-0.052,0.029-0.091,0.029
				c-0.038,0-0.069-0.009-0.091-0.028C78.071,7.041,78.062,7.013,78.062,6.977z"/>
			<path fill="#353534" d="M79.197,7.074l-0.042-0.161h-0.278l-0.046,0.161h-0.256l0.281-0.867h0.312l0.286,0.867H79.197z
				 M79.108,6.722l-0.04-0.142c-0.007-0.032-0.018-0.072-0.029-0.123c-0.013-0.049-0.021-0.086-0.024-0.107
				c-0.003,0.021-0.012,0.053-0.022,0.1c-0.009,0.046-0.033,0.137-0.068,0.272H79.108z"/>
			<path fill="#353534" d="M80.319,7.074h-0.306l-0.315-0.608h-0.004c0.006,0.096,0.01,0.17,0.01,0.221v0.388h-0.206V6.212h0.305
				l0.313,0.599h0.004c-0.006-0.086-0.009-0.156-0.009-0.209v-0.39h0.208V7.074z"/>
			<path fill="#353534" d="M81.189,6.624c0,0.145-0.038,0.256-0.117,0.334c-0.08,0.078-0.19,0.116-0.337,0.116h-0.279V6.212h0.3
				c0.14,0,0.248,0.034,0.322,0.105C81.153,6.388,81.189,6.491,81.189,6.624z M80.948,6.633c0-0.079-0.017-0.139-0.047-0.176
				C80.869,6.418,80.823,6.4,80.758,6.4H80.69v0.484h0.054c0.069,0,0.122-0.021,0.154-0.062C80.932,6.78,80.948,6.718,80.948,6.633z
				"/>
			<path fill="#353534" d="M81.562,7.074V6.212h0.233v0.862H81.562z"/>
			<path fill="#353534" d="M82.121,6.212l-0.024,0.311h-0.161L81.91,6.212H82.121z"/>
			<path fill="#353534" d="M82.237,7.074V6.212h0.232v0.674h0.334v0.188H82.237z"/>
			<path fill="#353534" d="M82.891,7.074V6.212h0.232v0.674h0.336v0.188H82.891z"/>
			<path fill="#353534" d="M84.745,7.074H84.47l-0.084-0.376c-0.004-0.017-0.009-0.046-0.019-0.093
				c-0.009-0.047-0.015-0.087-0.018-0.118c-0.003,0.025-0.009,0.057-0.017,0.095c-0.007,0.038-0.013,0.073-0.021,0.105
				c-0.006,0.032-0.035,0.161-0.086,0.387H83.95l-0.216-0.862h0.226l0.094,0.432c0.023,0.096,0.037,0.173,0.044,0.229
				c0.005-0.039,0.015-0.094,0.028-0.163c0.013-0.068,0.026-0.126,0.036-0.171l0.078-0.326h0.215l0.073,0.326
				c0.015,0.053,0.025,0.114,0.04,0.182c0.012,0.068,0.021,0.12,0.024,0.153c0.006-0.043,0.02-0.118,0.044-0.227l0.096-0.434h0.224
				L84.745,7.074z"/>
			<path fill="#353534" d="M85.019,7.074V6.212h0.236v0.862H85.019z"/>
			<path fill="#353534" d="M86.216,7.074h-0.308l-0.315-0.608h-0.006c0.008,0.096,0.012,0.17,0.012,0.221v0.388h-0.206V6.212h0.303
				l0.315,0.599h0.004c-0.006-0.086-0.007-0.156-0.007-0.209v-0.39h0.208V7.074z"/>
			<path fill="#353534" d="M86.996,7.074h-0.231V6.401h-0.212V6.212h0.654v0.189h-0.211V7.074z"/>
			<path fill="#353534" d="M88.021,7.074h-0.234V6.722h-0.271v0.352h-0.234V6.212h0.234v0.319h0.271V6.212h0.234V7.074z"/>
			<path fill="#353534" d="M88.674,7.074h-0.515V6.212h0.515v0.186h-0.281v0.137h0.258v0.188h-0.258v0.163h0.281V7.074z"/>
			<path fill="#353534" d="M89.269,7.074h-0.23V6.212h0.512v0.186H89.27v0.165h0.258v0.188H89.27L89.269,7.074L89.269,7.074z"/>
			<path fill="#353534" d="M89.642,7.074V6.212h0.236v0.862H89.642z"/>
			<path fill="#353534" d="M90.361,6.569h0.372v0.466c-0.102,0.033-0.213,0.052-0.334,0.052c-0.134,0-0.234-0.038-0.31-0.116
				c-0.071-0.077-0.109-0.187-0.109-0.33c0-0.14,0.041-0.247,0.12-0.326c0.08-0.078,0.191-0.117,0.335-0.117
				c0.055,0,0.105,0.005,0.154,0.016c0.048,0.01,0.089,0.022,0.124,0.039L90.64,6.435c-0.062-0.03-0.129-0.044-0.203-0.044
				c-0.069,0-0.122,0.021-0.16,0.065c-0.035,0.044-0.056,0.108-0.056,0.19s0.02,0.143,0.052,0.185
				c0.033,0.042,0.08,0.063,0.145,0.063c0.037,0,0.067-0.003,0.097-0.01V6.75h-0.153L90.361,6.569L90.361,6.569z"/>
			<path fill="#353534" d="M91.602,7.074h-0.237V6.722h-0.271v0.352H90.86V6.212h0.233v0.319h0.271V6.212h0.237L91.602,7.074
				L91.602,7.074z"/>
			<path fill="#353534" d="M92.117,7.074h-0.231V6.401h-0.211V6.212h0.655v0.189h-0.213V7.074z"/>
			<path fill="#353534" d="M92.583,6.771h-0.194L92.36,6.212h0.255L92.583,6.771z M92.36,6.977c0-0.036,0.011-0.063,0.032-0.084
				c0.021-0.02,0.052-0.029,0.094-0.029c0.04,0,0.069,0.01,0.091,0.029c0.021,0.021,0.031,0.048,0.031,0.084
				S92.597,7.04,92.576,7.06c-0.022,0.021-0.052,0.029-0.09,0.029c-0.041,0-0.071-0.009-0.094-0.029
				C92.371,7.04,92.36,7.013,92.36,6.977z"/>
			<path fill="#353534" d="M76.327,8.527h-0.233V7.854h-0.211V7.663h0.654v0.192h-0.21V8.527z"/>
			<path fill="#353534" d="M77.463,8.527h-0.27l-0.168-0.27l-0.166,0.27h-0.265l0.287-0.442L76.61,7.663h0.261l0.155,0.268
				l0.151-0.268h0.267l-0.275,0.441L77.463,8.527z"/>
			<path fill="#353534" d="M77.966,8.527h-0.231V7.854h-0.213V7.663h0.655v0.192h-0.211V8.527z"/>
			<path fill="#353534" d="M78.28,8.43c0-0.037,0.014-0.064,0.032-0.084c0.023-0.02,0.055-0.029,0.096-0.029
				c0.038,0,0.068,0.009,0.091,0.029c0.021,0.02,0.03,0.047,0.03,0.084c0,0.035-0.01,0.062-0.033,0.083
				c-0.021,0.021-0.052,0.03-0.088,0.03c-0.04,0-0.07-0.009-0.094-0.03C78.294,8.492,78.28,8.466,78.28,8.43z"/>
			<path fill="#353534" d="M79.036,8.527V7.663h0.236v0.865L79.036,8.527L79.036,8.527z"/>
			<path fill="#353534" d="M79.672,7.663l-0.024,0.313h-0.163L79.46,7.663H79.672z"/>
			<path fill="#353534" d="M80.237,8.527L80.06,7.905h-0.005c0.008,0.106,0.014,0.188,0.014,0.247v0.375h-0.208V7.663h0.311
				l0.182,0.615h0.004l0.176-0.615h0.312v0.865H80.63V8.149c0-0.02,0-0.042,0.002-0.066c0-0.023,0.003-0.083,0.007-0.177h-0.006
				L80.46,8.527H80.237z"/>
			<path fill="#353534" d="M81.925,8.527l-0.044-0.162h-0.279l-0.043,0.162h-0.256l0.279-0.868h0.312l0.285,0.868H81.925z
				 M81.834,8.175l-0.038-0.143c-0.007-0.031-0.019-0.071-0.032-0.122c-0.013-0.05-0.021-0.086-0.023-0.107
				c-0.004,0.02-0.01,0.053-0.021,0.1c-0.012,0.045-0.034,0.136-0.069,0.272H81.834z"/>
			<path fill="#353534" d="M83.264,7.938c0,0.097-0.029,0.172-0.086,0.223c-0.058,0.053-0.138,0.08-0.242,0.08H82.87v0.286h-0.236
				V7.663h0.302c0.108,0,0.19,0.024,0.245,0.073C83.236,7.783,83.264,7.85,83.264,7.938z M82.87,8.051h0.041
				c0.036,0,0.064-0.01,0.083-0.03c0.021-0.02,0.031-0.047,0.031-0.081c0-0.059-0.031-0.088-0.096-0.088h-0.06L82.87,8.051
				L82.87,8.051z"/>
			<path fill="#353534" d="M84.232,8.095c0,0.146-0.034,0.255-0.105,0.332c-0.072,0.075-0.176,0.113-0.315,0.113
				c-0.135,0-0.238-0.038-0.309-0.115c-0.073-0.076-0.11-0.186-0.11-0.332c0-0.144,0.037-0.253,0.107-0.329
				c0.071-0.076,0.177-0.114,0.314-0.114s0.242,0.038,0.312,0.113C84.198,7.838,84.232,7.948,84.232,8.095z M83.639,8.095
				c0,0.167,0.058,0.25,0.173,0.25c0.061,0,0.105-0.021,0.132-0.062c0.029-0.041,0.044-0.103,0.044-0.189
				c0-0.086-0.015-0.15-0.044-0.192c-0.027-0.041-0.071-0.062-0.129-0.062C83.696,7.841,83.639,7.926,83.639,8.095z"/>
			<path fill="#353534" d="M85.347,8.527h-0.275l-0.083-0.376c-0.005-0.017-0.009-0.047-0.018-0.093
				c-0.009-0.047-0.017-0.087-0.02-0.119c-0.004,0.025-0.009,0.058-0.015,0.096c-0.007,0.038-0.015,0.073-0.021,0.105
				C84.909,8.172,84.88,8.3,84.83,8.527h-0.277l-0.214-0.865h0.225l0.094,0.434c0.023,0.096,0.036,0.172,0.045,0.229
				c0.006-0.04,0.014-0.094,0.026-0.164c0.015-0.068,0.026-0.126,0.04-0.171l0.073-0.328h0.218l0.073,0.328
				c0.014,0.053,0.025,0.113,0.038,0.182c0.012,0.068,0.022,0.12,0.026,0.153c0.005-0.044,0.018-0.119,0.043-0.228l0.095-0.435
				h0.226L85.347,8.527z"/>
			<path fill="#353534" d="M86.21,8.527h-0.515V7.663h0.515v0.188h-0.28v0.136h0.26v0.188h-0.26v0.163h0.28V8.527z"/>
			<path fill="#353534" d="M86.617,8.213v0.314h-0.233V7.663h0.284c0.234,0,0.354,0.086,0.354,0.256c0,0.1-0.05,0.177-0.148,0.232
				l0.252,0.376H86.86l-0.184-0.314H86.617z M86.617,8.038h0.045c0.082,0,0.12-0.036,0.12-0.108c0-0.06-0.038-0.089-0.118-0.089
				h-0.047V8.038z"/>
			<path fill="#353534" d="M87.159,8.295V8.111h0.334v0.184H87.159z"/>
			<path fill="#353534" d="M87.637,8.527V7.663h0.234V8.34h0.334v0.188L87.637,8.527L87.637,8.527z"/>
			<path fill="#353534" d="M89.173,8.095c0,0.146-0.036,0.255-0.105,0.332c-0.071,0.075-0.176,0.113-0.313,0.113
				c-0.136,0-0.24-0.038-0.313-0.115c-0.071-0.076-0.106-0.186-0.106-0.332c0-0.144,0.035-0.253,0.106-0.329
				c0.072-0.076,0.178-0.114,0.315-0.114c0.136,0,0.24,0.038,0.312,0.113C89.14,7.838,89.173,7.948,89.173,8.095z M88.578,8.095
				c0,0.167,0.059,0.25,0.176,0.25c0.059,0,0.103-0.021,0.132-0.062c0.028-0.041,0.043-0.103,0.043-0.189
				c0-0.086-0.015-0.15-0.043-0.192c-0.029-0.041-0.074-0.062-0.13-0.062C88.637,7.841,88.578,7.926,88.578,8.095z"/>
			<path fill="#353534" d="M89.884,8.527l-0.043-0.162h-0.279l-0.043,0.162h-0.258l0.281-0.868h0.312l0.285,0.868H89.884z
				 M89.793,8.175l-0.038-0.143c-0.008-0.031-0.018-0.071-0.031-0.122c-0.01-0.05-0.019-0.086-0.024-0.107
				c-0.005,0.02-0.011,0.053-0.021,0.1c-0.011,0.045-0.032,0.136-0.069,0.272H89.793z"/>
			<path fill="#353534" d="M90.991,8.077c0,0.145-0.04,0.255-0.12,0.333c-0.079,0.079-0.19,0.117-0.334,0.117h-0.278V7.663h0.299
				c0.138,0,0.244,0.037,0.319,0.107C90.954,7.841,90.991,7.943,90.991,8.077z M90.749,8.085c0-0.079-0.018-0.138-0.048-0.176
				c-0.031-0.038-0.078-0.057-0.143-0.057h-0.067v0.485h0.052c0.07,0,0.123-0.021,0.156-0.062
				C90.731,8.233,90.749,8.17,90.749,8.085z"/>
			<path fill="#353534" d="M91.35,8.223h-0.194l-0.031-0.56h0.257L91.35,8.223z M91.126,8.43c0-0.036,0.012-0.064,0.033-0.084
				s0.053-0.03,0.093-0.03c0.039,0,0.07,0.01,0.092,0.03c0.021,0.02,0.031,0.048,0.031,0.084c0,0.035-0.012,0.062-0.032,0.083
				c-0.022,0.021-0.053,0.03-0.091,0.03c-0.04,0-0.069-0.009-0.091-0.03C91.138,8.492,91.126,8.465,91.126,8.43z"/>
			<path fill="#353534" d="M76.327,9.98h-0.233V9.307h-0.211V9.116h0.654v0.191h-0.21V9.98z"/>
			<path fill="#353534" d="M77.463,9.98h-0.27l-0.168-0.27l-0.166,0.27h-0.265l0.287-0.442L76.61,9.116h0.261l0.155,0.268
				l0.151-0.268h0.267l-0.275,0.441L77.463,9.98z"/>
			<path fill="#353534" d="M77.966,9.98h-0.231V9.307h-0.213V9.116h0.655v0.191h-0.211V9.98z"/>
			<path fill="#353534" d="M78.28,9.882c0-0.036,0.014-0.064,0.032-0.083c0.023-0.02,0.055-0.03,0.096-0.03
				c0.038,0,0.068,0.01,0.091,0.03c0.021,0.019,0.03,0.047,0.03,0.083c0,0.035-0.01,0.063-0.033,0.083
				c-0.021,0.019-0.052,0.03-0.088,0.03c-0.04,0-0.07-0.011-0.094-0.03C78.294,9.945,78.28,9.917,78.28,9.882z"/>
			<path fill="#353534" d="M79.971,9.98h-0.275L79.61,9.604c-0.003-0.016-0.009-0.047-0.019-0.095
				c-0.008-0.047-0.014-0.085-0.017-0.117c-0.003,0.026-0.009,0.058-0.016,0.096c-0.009,0.038-0.015,0.073-0.021,0.104
				C79.529,9.623,79.5,9.754,79.45,9.98h-0.275L78.96,9.116h0.226l0.095,0.434c0.021,0.096,0.035,0.171,0.043,0.229
				c0.004-0.042,0.015-0.095,0.027-0.164c0.012-0.068,0.026-0.126,0.037-0.172l0.077-0.327h0.216l0.073,0.327
				c0.013,0.052,0.026,0.113,0.039,0.181c0.012,0.07,0.021,0.121,0.025,0.155c0.007-0.044,0.021-0.121,0.042-0.228l0.096-0.435
				h0.224L79.971,9.98z"/>
			<path fill="#353534" d="M80.85,9.98l-0.042-0.162h-0.281L80.482,9.98h-0.257l0.281-0.867h0.313l0.286,0.867H80.85z M80.758,9.627
				l-0.037-0.142c-0.009-0.032-0.019-0.073-0.03-0.123c-0.014-0.05-0.021-0.086-0.026-0.106c-0.003,0.019-0.009,0.053-0.02,0.099
				c-0.012,0.046-0.033,0.136-0.071,0.272H80.758z"/>
			<path fill="#353534" d="M81.604,9.98H81.37V9.307h-0.211V9.116h0.653v0.191h-0.208V9.98z"/>
			<path fill="#353534" d="M82.347,9.295c-0.056,0-0.1,0.023-0.13,0.068c-0.031,0.045-0.049,0.108-0.049,0.188
				c0,0.166,0.064,0.25,0.192,0.25c0.036,0,0.074-0.006,0.109-0.016c0.038-0.011,0.073-0.023,0.108-0.038v0.197
				c-0.07,0.032-0.153,0.047-0.244,0.047c-0.132,0-0.23-0.038-0.301-0.114c-0.07-0.075-0.104-0.185-0.104-0.327
				c0-0.09,0.016-0.168,0.051-0.236c0.032-0.068,0.082-0.12,0.146-0.156c0.062-0.036,0.136-0.054,0.224-0.054
				c0.093,0,0.182,0.02,0.267,0.06l-0.071,0.184c-0.031-0.014-0.063-0.027-0.096-0.037C82.419,9.301,82.384,9.295,82.347,9.295z"/>
			<path fill="#353534" d="M83.512,9.98h-0.234V9.628h-0.27V9.98h-0.236V9.116h0.236v0.321h0.27V9.116h0.234V9.98z"/>
			<path fill="#353534" d="M84.438,9.98l-0.177-0.623h-0.005c0.008,0.106,0.011,0.189,0.011,0.248V9.98h-0.205V9.116h0.311
				l0.18,0.615h0.005l0.177-0.615h0.311V9.98h-0.212V9.601c0-0.019,0-0.041,0-0.064s0.003-0.083,0.007-0.177h-0.004L84.66,9.98
				H84.438z"/>
			<path fill="#353534" d="M85.769,9.98h-0.513V9.116h0.513v0.188H85.49V9.44h0.261v0.188H85.49V9.79h0.279V9.98z"/>
			<path fill="#353534" d="M86.797,9.98h-0.514V9.116h0.514v0.188h-0.279V9.44h0.259v0.188h-0.259V9.79h0.279V9.98z"/>
			<path fill="#353534" d="M87.749,9.98h-0.268l-0.17-0.27l-0.167,0.27H86.88l0.287-0.442l-0.27-0.422h0.259l0.154,0.268l0.15-0.268
				h0.267l-0.272,0.441L87.749,9.98z"/>
			<path fill="#353534" d="M88.499,9.391c0,0.096-0.029,0.17-0.086,0.223c-0.056,0.053-0.138,0.079-0.242,0.079h-0.065V9.98h-0.231
				V9.116h0.297c0.11,0,0.192,0.024,0.246,0.073C88.472,9.236,88.499,9.303,88.499,9.391z M88.105,9.504h0.042
				c0.035,0,0.063-0.011,0.084-0.03s0.029-0.047,0.029-0.082c0-0.058-0.029-0.087-0.094-0.087h-0.062L88.105,9.504L88.105,9.504z"/>
			<path fill="#353534" d="M88.662,9.98V9.116h0.232v0.677h0.333V9.98H88.662z"/>
			<path fill="#353534" d="M90.198,9.547c0,0.146-0.036,0.256-0.106,0.331c-0.072,0.076-0.176,0.114-0.313,0.114
				c-0.135,0-0.239-0.038-0.313-0.114c-0.072-0.076-0.107-0.187-0.107-0.332c0-0.144,0.035-0.254,0.107-0.331
				c0.071-0.075,0.179-0.114,0.314-0.114c0.137,0,0.242,0.038,0.312,0.113C90.165,9.291,90.198,9.401,90.198,9.547z M89.604,9.547
				c0,0.167,0.058,0.25,0.175,0.25c0.06,0,0.103-0.019,0.132-0.061c0.029-0.04,0.041-0.104,0.041-0.189s-0.012-0.15-0.041-0.191
				c-0.029-0.042-0.072-0.062-0.131-0.062C89.661,9.294,89.604,9.378,89.604,9.547z"/>
			<path fill="#353534" d="M91.114,9.53c0,0.144-0.043,0.255-0.12,0.333c-0.081,0.079-0.192,0.117-0.336,0.117h-0.279V9.116h0.299
				c0.139,0,0.246,0.036,0.32,0.107C91.076,9.294,91.114,9.396,91.114,9.53z M90.869,9.538c0-0.079-0.016-0.137-0.047-0.176
				c-0.03-0.038-0.079-0.057-0.142-0.057h-0.069v0.483h0.053c0.07,0,0.123-0.02,0.157-0.061C90.854,9.686,90.869,9.623,90.869,9.538
				z"/>
			<path fill="#353534" d="M91.804,9.98H91.29V9.116h0.514v0.188h-0.279V9.44h0.259v0.188h-0.259V9.79h0.279V9.98z"/>
			<path fill="#353534" d="M92.16,9.675h-0.195l-0.03-0.559h0.256L92.16,9.675z M91.938,9.882c0-0.036,0.01-0.063,0.03-0.083
				c0.022-0.02,0.053-0.03,0.096-0.03c0.038,0,0.068,0.01,0.088,0.03c0.021,0.02,0.03,0.047,0.03,0.083
				c0,0.035-0.009,0.063-0.03,0.083c-0.021,0.019-0.052,0.03-0.088,0.03c-0.041,0-0.07-0.011-0.094-0.03
				C91.947,9.945,91.938,9.917,91.938,9.882z"/>
		</g>
		<path fill="#969696" d="M80.371,0l-0.053,0.053l0,0L73.961,6.41l0,0l-0.049,0.053V24h20.176V0H80.371z M74.521,6.357l5.744-5.747
			v5.747H74.521z M93.729,23.641H74.27V6.715h6.177c0.099,0,0.179-0.079,0.179-0.179V0.36H93.73L93.729,23.641L93.729,23.641z"/>
		
			<linearGradient id="SVGID_19_" gradientUnits="userSpaceOnUse" x1="619.6885" y1="-315.5444" x2="628.8644" y2="-340.7559" gradientTransform="matrix(1 0 0 -1 -543 -314)">
			<stop  offset="0" style="stop-color:#FFFFFF"/>
			<stop  offset="1" style="stop-color:#E8E7E7"/>
		</linearGradient>
		<polygon fill="url(#SVGID_19_)" points="74.521,6.357 80.266,6.357 80.266,0.612 		"/>
		
			<linearGradient id="SVGID_20_" gradientUnits="userSpaceOnUse" x1="619.6875" y1="-315.543" x2="621.7324" y2="-321.1615" gradientTransform="matrix(1 0 0 -1 -543 -314)">
			<stop  offset="0" style="stop-color:#FFFFFF"/>
			<stop  offset="1" style="stop-color:#E8E7E7"/>
		</linearGradient>
		<polygon fill="url(#SVGID_20_)" points="74.521,6.357 80.266,6.357 80.266,0.612 		"/>
	</g>
	<g>
		<path fill="#353534" d="M79.306,20.826h-1.204V16.15H76.56v-1.001h4.287v1.001h-1.541V20.826z"/>
		<path fill="#353534" d="M86.312,20.826h-1.374l-1.323-2.147l-1.318,2.147h-1.29l1.884-2.929l-1.764-2.749h1.328l1.224,2.043
			l1.201-2.043h1.296l-1.782,2.815L86.312,20.826z"/>
		<path fill="#353534" d="M89.219,20.826h-1.204V16.15h-1.543v-1.001h4.288v1.001h-1.541V20.826z"/>
	</g>
</g>
<g>
	<g>
		<rect x="24.124" y="24.124" fill-rule="evenodd" clip-rule="evenodd" fill="#454544" width="23.753" height="23.752"/>
		<path fill="#454544" d="M48,47.999H24V24h24V47.999z M24.248,47.752h23.505V24.247H24.248V47.752z"/>
	</g>
	<g>
		<linearGradient id="SVGID_21_" gradientUnits="userSpaceOnUse" x1="28.5693" y1="36" x2="41.606" y2="36">
			<stop  offset="0" style="stop-color:#FFFFFF"/>
			<stop  offset="1" style="stop-color:#DCDDDE"/>
		</linearGradient>
		<path fill="url(#SVGID_21_)" d="M41.606,28.544l-8.874,3.623v7.867c-0.437-0.249-0.982-0.396-1.575-0.396
			c-1.429,0-2.588,0.855-2.588,1.909c0,1.053,1.159,1.909,2.588,1.909c1.429,0,2.587-0.856,2.587-1.909c0-0.001,0-0.001,0-0.001
			c0-0.009,0.004-0.014,0.004-0.023v-6.559l6.83-2.807v5.62c-0.435-0.243-0.973-0.388-1.56-0.388c-1.428,0-2.588,0.855-2.588,1.909
			c0,1.053,1.16,1.908,2.588,1.908c1.429,0,2.587-0.855,2.587-1.908c0-0.027-0.003-0.052-0.004-0.076
			c0-0.011,0.004-0.017,0.004-0.028V28.544z"/>
		<path fill="#A7A7A6" d="M31.157,43.579c-1.495,0-2.711-0.911-2.711-2.032s1.216-2.032,2.711-2.032
			c0.521,0,1.018,0.107,1.452,0.315v-7.746l9.121-3.724l-0.005,10.877c0.004,0.023,0.005,0.042,0.005,0.062
			c0,1.12-1.216,2.031-2.711,2.031c-1.495,0-2.712-0.911-2.712-2.031c0-1.121,1.217-2.032,2.712-2.032
			c0.513,0,1.005,0.105,1.436,0.309v-5.233l-6.583,2.706l-0.005,6.52C33.869,42.668,32.652,43.579,31.157,43.579z M31.157,39.763
			c-1.359,0-2.464,0.8-2.464,1.784s1.105,1.785,2.464,1.785c1.358,0,2.464-0.801,2.464-1.785l0.004-6.666l0.077-0.03l7-2.878v6.016
			l-0.184-0.102c-0.436-0.244-0.954-0.373-1.5-0.373c-1.359,0-2.464,0.801-2.464,1.785s1.105,1.784,2.464,1.784
			c1.358,0,2.464-0.8,2.464-1.784l-0.004-0.071c0-0.023,0.003-0.034,0.005-0.045l-0.001-10.454l-8.626,3.522v7.996l-0.185-0.105
			C32.234,39.894,31.711,39.763,31.157,39.763z"/>
	</g>
</g>
<g>
	<g>
		<rect x="0.124" y="24.124" fill-rule="evenodd" clip-rule="evenodd" fill="#454544" width="23.752" height="23.753"/>
		<path fill="#454544" d="M24,48H0V24h24V48z M0.247,47.753h23.506V24.247H0.247V47.753z"/>
	</g>
	<g>
		<g>
			<linearGradient id="SVGID_22_" gradientUnits="userSpaceOnUse" x1="5.6655" y1="39.8965" x2="18.603" y2="39.8965">
				<stop  offset="0" style="stop-color:#FFFFFF"/>
				<stop  offset="1" style="stop-color:#DCDDDE"/>
			</linearGradient>
			<path fill="url(#SVGID_22_)" d="M18.603,43.586H5.666v-7.379h12.938V43.586z"/>
			<path fill="#A7A7A6" d="M18.727,43.71H5.542v-7.627h13.185V43.71z M5.79,43.463h12.689v-7.132H5.79V43.463z"/>
		</g>
	</g>
	<g>
		<g>
			<linearGradient id="SVGID_23_" gradientUnits="userSpaceOnUse" x1="5.6431" y1="35.168" x2="18.603" y2="35.168">
				<stop  offset="0" style="stop-color:#FFFFFF"/>
				<stop  offset="1" style="stop-color:#DCDDDE"/>
			</linearGradient>
			<path fill="url(#SVGID_23_)" d="M18.603,36.207H5.643V34.13h12.96V36.207z"/>
			<path fill="#A7A7A6" d="M18.727,36.331H5.52v-2.325h13.207V36.331z M5.767,36.083h12.712v-1.829H5.767V36.083z"/>
		</g>
	</g>
	<g>
		<g>
			<polygon fill="#585756" points="17.826,36.087 18.382,34.22 17.438,34.22 16.871,36.087 			"/>
			<path fill="#A7A7A6" d="M18.382,34.22l-0.557,1.867h-0.955l0.566-1.867H18.382 M18.714,33.973h-0.332h-0.945h-0.184l-0.053,0.176
				l-0.566,1.867l-0.097,0.319h0.333h0.955h0.185l0.053-0.177l0.557-1.867L18.714,33.973L18.714,33.973z"/>
		</g>
		<g>
			<polygon fill="#585756" points="15.646,36.087 16.204,34.22 15.259,34.22 14.693,36.087 			"/>
			<path fill="#A7A7A6" d="M16.204,34.22l-0.557,1.867h-0.954l0.566-1.867H16.204 M16.536,33.973h-0.332h-0.944h-0.184l-0.053,0.176
				l-0.566,1.867l-0.097,0.319h0.333h0.954h0.185l0.053-0.177l0.557-1.867L16.536,33.973L16.536,33.973z"/>
		</g>
		<g>
			<polygon fill="#585756" points="13.426,36.087 13.983,34.22 13.039,34.22 12.472,36.087 			"/>
			<path fill="#A7A7A6" d="M13.983,34.22l-0.557,1.867h-0.955l0.567-1.867H13.983 M14.315,33.973h-0.332h-0.944h-0.184l-0.053,0.176
				l-0.567,1.867l-0.097,0.319h0.333h0.955h0.185l0.053-0.177l0.557-1.867L14.315,33.973L14.315,33.973z"/>
		</g>
		<g>
			<polygon fill="#585756" points="11.164,36.087 11.721,34.22 10.776,34.22 10.21,36.087 			"/>
			<path fill="#A7A7A6" d="M11.721,34.22l-0.557,1.867H10.21l0.566-1.867H11.721 M12.053,33.973h-0.332h-0.945h-0.184l-0.053,0.176
				l-0.566,1.867l-0.097,0.319h0.334h0.954h0.185l0.053-0.177l0.557-1.867L12.053,33.973L12.053,33.973z"/>
		</g>
		<g>
			<polygon fill="#585756" points="9.069,36.087 9.626,34.22 8.681,34.22 8.114,36.087 			"/>
			<path fill="#A7A7A6" d="M9.626,34.22l-0.557,1.867H8.114l0.567-1.867H9.626 M9.958,33.973H9.626H8.681H8.498l-0.053,0.176
				l-0.566,1.867l-0.097,0.319h0.333h0.955h0.185l0.053-0.177l0.557-1.867L9.958,33.973L9.958,33.973z"/>
		</g>
		<g>
			<polygon fill="#585756" points="6.835,36.114 7.392,34.247 6.447,34.247 5.88,36.114 			"/>
			<path fill="#A7A7A6" d="M7.392,34.247l-0.557,1.867H5.88l0.567-1.867H7.392 M7.723,33.999H7.392H6.447H6.263l-0.054,0.176
				l-0.567,1.867l-0.097,0.32H5.88h0.955H7.02l0.052-0.177l0.557-1.868L7.723,33.999L7.723,33.999z"/>
		</g>
	</g>
	<g>
		<g>
			<g>
				<linearGradient id="SVGID_24_" gradientUnits="userSpaceOnUse" x1="4.896" y1="30.9224" x2="17.7842" y2="30.9224">
					<stop  offset="0" style="stop-color:#FFFFFF"/>
					<stop  offset="1" style="stop-color:#DCDDDE"/>
				</linearGradient>
				<path fill="url(#SVGID_24_)" d="M17.784,29.683L5.607,34.114l-0.711-1.952l12.178-4.432L17.784,29.683z"/>
				<path fill="#A7A7A6" d="M5.533,34.273l-0.795-2.185l0.116-0.042l12.294-4.475l0.795,2.185L17.827,29.8L5.533,34.273z
					 M5.055,32.237l0.626,1.719l11.945-4.347L17,27.889L5.055,32.237z"/>
			</g>
		</g>
		<g>
			<g>
				<polygon fill="#585756" points="7.208,33.403 6.037,31.844 5.149,32.167 6.311,33.731 				"/>
				<path fill="#A7A7A6" d="M6.037,31.844l1.171,1.56l-0.897,0.328l-1.162-1.564L6.037,31.844 M6.125,31.548l-0.172,0.062
					l-0.888,0.324l-0.312,0.114l0.198,0.266l1.161,1.564l0.11,0.147l0.173-0.063l0.897-0.328l0.313-0.113l-0.2-0.268l-1.171-1.559
					L6.125,31.548L6.125,31.548z"/>
			</g>
			<g>
				<polygon fill="#585756" points="9.255,32.659 8.084,31.099 7.197,31.421 8.358,32.984 				"/>
				<path fill="#A7A7A6" d="M8.084,31.099l1.171,1.56l-0.897,0.325l-1.162-1.563L8.084,31.099 M8.172,30.804L8,30.866l-0.887,0.323
					L6.8,31.302l0.198,0.267l1.162,1.564l0.109,0.147l0.174-0.062l0.897-0.326l0.313-0.113l-0.2-0.268L8.282,30.95L8.172,30.804
					L8.172,30.804z"/>
			</g>
			<g>
				<polygon fill="#585756" points="11.342,31.899 10.171,30.339 9.283,30.662 10.445,32.226 				"/>
				<path fill="#A7A7A6" d="M10.171,30.339l1.171,1.56l-0.897,0.327l-1.162-1.564L10.171,30.339 M10.259,30.044l-0.172,0.063
					l-0.888,0.322l-0.312,0.113l0.198,0.267l1.162,1.564l0.11,0.148l0.173-0.062l0.896-0.327l0.314-0.114l-0.201-0.267l-1.171-1.56
					L10.259,30.044L10.259,30.044z"/>
			</g>
			<g>
				<polygon fill="#585756" points="13.467,31.126 12.297,29.565 11.409,29.888 12.571,31.452 				"/>
				<path fill="#A7A7A6" d="M12.297,29.565l1.17,1.561l-0.896,0.326l-1.162-1.564L12.297,29.565 M12.385,29.27l-0.172,0.063
					l-0.888,0.322l-0.312,0.113l0.198,0.267l1.162,1.565l0.11,0.148l0.173-0.063l0.897-0.327l0.313-0.114l-0.2-0.267l-1.17-1.56
					L12.385,29.27L12.385,29.27z"/>
			</g>
			<g>
				<polygon fill="#585756" points="15.436,30.41 14.266,28.849 13.378,29.172 14.539,30.735 				"/>
				<path fill="#A7A7A6" d="M14.266,28.849l1.17,1.561l-0.897,0.326l-1.161-1.563L14.266,28.849 M14.354,28.553l-0.172,0.063
					l-0.888,0.324l-0.311,0.114l0.198,0.266l1.161,1.562l0.11,0.148l0.173-0.063l0.897-0.325l0.313-0.114l-0.2-0.267l-1.17-1.562
					L14.354,28.553L14.354,28.553z"/>
			</g>
			<g>
				<polygon fill="#585756" points="17.546,29.671 16.375,28.111 15.487,28.434 16.649,29.997 				"/>
				<path fill="#A7A7A6" d="M16.375,28.111l1.171,1.56l-0.897,0.326l-1.162-1.563L16.375,28.111 M16.463,27.816l-0.172,0.062
					l-0.888,0.323l-0.312,0.113l0.198,0.267l1.162,1.562l0.109,0.148l0.174-0.063l0.896-0.325l0.314-0.114l-0.201-0.267l-1.171-1.56
					L16.463,27.816L16.463,27.816z"/>
			</g>
		</g>
	</g>
	<g>
		<rect x="6.776" y="38.703" fill="#585756" width="2.361" height="0.874"/>
		<path fill="#A7A7A6" d="M9.261,39.701H6.653V38.58h2.608V39.701z M6.9,39.453h2.113v-0.625H6.9V39.453z"/>
	</g>
	<g>
		<rect x="9.846" y="38.703" fill="#585756" width="4.121" height="0.874"/>
		<path fill="#A7A7A6" d="M14.09,39.701H9.722V38.58h4.368V39.701z M9.969,39.453h3.874v-0.625H9.969V39.453z"/>
	</g>
	<g>
		<rect x="14.653" y="38.703" fill="#585756" width="2.864" height="0.874"/>
		<path fill="#A7A7A6" d="M17.641,39.701h-3.111V38.58h3.111V39.701z M14.777,39.453h2.616v-0.625h-2.616V39.453z"/>
	</g>
	<g>
		<rect x="6.776" y="40.448" fill="#585756" width="5.759" height="0.872"/>
		<path fill="#A7A7A6" d="M12.659,41.444H6.653v-1.12h6.005V41.444z M6.9,41.197h5.511v-0.626H6.9V41.197z"/>
	</g>
</g>
</svg>
