<?xml version="1.0" encoding="utf-8"?>
<!-- Generator: Adobe Illustrator 16.0.4, SVG Export Plug-In . SVG Version: 6.00 Build 0)  -->
<!DOCTYPE svg PUBLIC "-//W3C//DTD SVG 1.1//EN" "http://www.w3.org/Graphics/SVG/1.1/DTD/svg11.dtd">
<svg version="1.1" id="Ebene_1" xmlns="http://www.w3.org/2000/svg" xmlns:xlink="http://www.w3.org/1999/xlink" x="0px" y="0px"
	 width="160px" height="32px" viewBox="0 0 160 32" enable-background="new 0 0 160 32" xml:space="preserve">
<g>
	<rect y="36" fill="#E6E6E6" width="32" height="32"/>
	<rect x="64" y="36" fill="#E6E6E6" width="32" height="32"/>
	<rect x="128" y="36" fill="#E6E6E6" width="32" height="32"/>
</g>
<g>
	<g>
		<path fill="#66160E" d="M124.877,16.836c0-0.537-0.039-1.063-0.107-1.582c1.192-0.604,2.037-1.297,3.104-2.162
			c-0.464-0.435-0.332-0.725-0.957-1.337c-1.36,0.026-2.142-0.745-3.41-0.504c-0.513-0.98-1.153-1.88-1.905-2.678
			c0.582-1.146,0.785-1.971,1.146-3.266c-0.405-0.636-0.521-0.922-1.057-1.647c-1.017,0.735-2.603,1.512-3.459,2.396
			c-1.033-0.522-2.152-0.899-3.332-1.105c-0.228-1.181-1.047-3.542-1.047-3.542l-1.287-1.288l0.24,1.253
			c-0.349-0.002-0.697,0.007-1.047,0.035c-0.473,1.143-0.818,2.362-1.047,3.542c-1.178,0.207-2.297,0.583-3.332,1.104
			c-0.855-0.883-1.793-1.705-2.811-2.44c-0.689,0.383-1.312,0.863-1.937,1.335c0.361,1.293,0.798,2.479,1.38,3.623
			c-0.752,0.799-1.395,1.699-1.906,2.679c-1.27-0.241-4.627,0.53-5.988,0.504c0.455,0.733,0.816,1.096,1.301,1.458
			c1.064,0.865,2.23,1.438,3.423,2.041c-0.067,0.519-0.104,1.045-0.104,1.582s0.037,1.063,0.104,1.582
			c-1.19,0.604-2.915,2.259-3.979,3.123c0.597,0.731,0.76,0.894,1.287,1.289c1.361-0.026,2.688-0.168,3.959-0.408
			c0.512,0.979,1.154,1.879,1.904,2.677c-0.582,1.146-2.308,1.043-2.668,2.336c0.465,0.959,2.535,2.241,3.227,2.623
			c1.016-0.734,1.953-1.557,2.81-2.439c1.035,0.521,1.144,0.609,2.321,0.816c0.229,1.183,0.846,2.338,2.058,3.349
			c0.349,0.028,0.698,0.036,1.048,0.034l0,0c0.35,0.002,0.698-0.008,1.047-0.034c0.473-1.144,0.818-1.88,1.047-3.062
			c1.179-0.207,2.298-0.582,3.332-1.104c0.855,0.883,1.312,1.225,2.328,1.959c0.69-0.382,0.832-0.863,1.455-1.335
			c-0.36-1.293-0.553-1.659-1.135-2.805c0.75-0.797,2.11-2.037,2.624-3.016c1.271,0.24,2.113,0.383,3.478,0.408
			c0.279-0.723,0.567-1.445,0.74-2.201c-1.469-1.766-1.762-1.607-2.953-2.212C124.838,17.898,124.877,17.373,124.877,16.836z
			 M112.807,23.95c-3.928,0-7.113-3.187-7.113-7.114c0-3.929,3.187-7.114,7.113-7.114c3.93,0,7.114,3.186,7.114,7.114
			S116.734,23.95,112.807,23.95z"/>
		<path fill="#1D1D1B" d="M112.859,31.938h-0.104c-0.375,0-0.704-0.011-1.006-0.035c-0.024-0.002-0.049-0.012-0.067-0.026
			c-1.115-0.931-1.813-2.052-2.082-3.336c-1.029-0.185-1.235-0.289-2.039-0.696l-0.156-0.078c-0.861,0.885-1.791,1.688-2.762,2.392
			c-0.039,0.028-0.088,0.03-0.129,0.008c-0.027-0.015-2.713-1.509-3.275-2.679c-0.014-0.025-0.016-0.055-0.008-0.084
			c0.205-0.74,0.824-1.051,1.422-1.353c0.488-0.245,0.951-0.479,1.215-0.931c-0.717-0.771-1.328-1.633-1.823-2.561
			c-1.271,0.234-2.578,0.366-3.89,0.394c-0.025-0.003-0.053-0.009-0.074-0.022c-0.537-0.402-0.707-0.574-1.311-1.31
			c-0.021-0.024-0.029-0.058-0.025-0.089c0.003-0.031,0.02-0.061,0.043-0.081c0.287-0.232,0.624-0.524,0.98-0.835
			c0.975-0.846,2.073-1.801,2.945-2.264c-0.064-0.517-0.097-1.024-0.097-1.515c0-0.488,0.032-0.997,0.097-1.513l-0.104-0.053
			c-1.154-0.583-2.243-1.135-3.266-1.965c-0.465-0.348-0.85-0.72-1.328-1.487c-0.022-0.037-0.022-0.084-0.002-0.123
			c0.021-0.039,0.062-0.062,0.107-0.061h0.068c0.563,0,1.441-0.123,2.371-0.253c1.049-0.146,2.133-0.299,2.926-0.299
			c0.217,0,0.397,0.012,0.555,0.034c0.494-0.931,1.109-1.793,1.826-2.566c-0.541-1.079-0.973-2.216-1.352-3.569
			c-0.013-0.048,0.006-0.099,0.045-0.129l0.125-0.095c0.578-0.437,1.176-0.888,1.826-1.249c0.043-0.022,0.092-0.02,0.129,0.008
			c0.969,0.701,1.898,1.506,2.764,2.392c1.014-0.502,2.092-0.858,3.207-1.062c0.24-1.218,0.598-2.42,1.035-3.483
			c0.018-0.042,0.059-0.071,0.102-0.074c0.281-0.023,0.58-0.034,0.911-0.036l-0.212-1.109c-0.012-0.052,0.015-0.104,0.062-0.129
			c0.046-0.025,0.104-0.017,0.142,0.021l1.287,1.289c0.014,0.012,0.023,0.027,0.029,0.045c0.033,0.095,0.788,2.281,1.034,3.478
			c1.116,0.203,2.194,0.562,3.206,1.063c0.561-0.555,1.378-1.058,2.17-1.544c0.454-0.279,0.883-0.543,1.242-0.803
			c0.053-0.039,0.127-0.028,0.167,0.026c0.356,0.482,0.526,0.769,0.722,1.099c0.1,0.166,0.202,0.34,0.34,0.555
			c0.019,0.029,0.023,0.064,0.016,0.097l-0.092,0.32c-0.297,1.081-0.518,1.869-1.026,2.892c0.717,0.773,1.33,1.635,1.825,2.565
			c0.143-0.022,0.283-0.033,0.426-0.033c0.49,0,0.91,0.129,1.354,0.266c0.455,0.141,0.926,0.285,1.498,0.285h0.066
			c0.029,0.002,0.062,0.011,0.086,0.034c0.348,0.34,0.473,0.587,0.581,0.807c0.093,0.183,0.173,0.34,0.373,0.529
			c0.024,0.023,0.039,0.058,0.039,0.092c-0.003,0.034-0.019,0.067-0.046,0.089l-0.055,0.046c-1.033,0.837-1.852,1.502-2.992,2.092
			c0.062,0.516,0.096,1.024,0.096,1.513c0,0.489-0.032,0.997-0.096,1.513c0.209,0.104,0.392,0.186,0.558,0.26
			c0.731,0.324,1.172,0.521,2.356,1.945c0.024,0.028,0.033,0.065,0.025,0.104c-0.165,0.715-0.434,1.406-0.691,2.076l-0.056,0.142
			c-0.019,0.048-0.058,0.073-0.114,0.076c-1.354-0.026-2.205-0.166-3.41-0.394c-0.424,0.756-1.301,1.643-2.01,2.358
			c-0.193,0.194-0.375,0.377-0.531,0.543c0.56,1.101,0.748,1.474,1.104,2.75c0.014,0.047-0.004,0.099-0.043,0.128
			c-0.262,0.198-0.438,0.4-0.609,0.596c-0.231,0.271-0.453,0.522-0.86,0.75c-0.041,0.021-0.091,0.021-0.13-0.01
			c-1.002-0.725-1.454-1.062-2.282-1.908c-1.013,0.5-2.09,0.856-3.205,1.061c-0.2,1.001-0.494,1.705-0.864,2.589l-0.173,0.414
			c-0.019,0.041-0.056,0.069-0.101,0.073C113.562,31.926,113.234,31.938,112.859,31.938z M112.807,31.697h0.053
			c0.339,0,0.639-0.01,0.912-0.03l0.145-0.345c0.389-0.932,0.671-1.604,0.868-2.625c0.01-0.051,0.047-0.088,0.097-0.096
			c1.148-0.201,2.26-0.569,3.299-1.095c0.047-0.022,0.104-0.013,0.141,0.024c0.834,0.859,1.279,1.197,2.248,1.9
			c0.332-0.197,0.525-0.423,0.732-0.658c0.163-0.189,0.333-0.385,0.579-0.58c-0.337-1.192-0.526-1.565-1.067-2.631l-0.035-0.072
			c-0.023-0.047-0.016-0.102,0.019-0.139c0.171-0.183,0.374-0.387,0.593-0.606c0.725-0.731,1.625-1.642,2.012-2.382
			c0.024-0.047,0.078-0.071,0.129-0.062c1.214,0.229,2.056,0.374,3.373,0.405l0.023-0.062c0.249-0.644,0.508-1.308,0.67-1.985
			c-1.119-1.339-1.518-1.517-2.232-1.833c-0.188-0.083-0.397-0.178-0.646-0.303c-0.046-0.022-0.071-0.071-0.063-0.123
			c0.068-0.533,0.104-1.061,0.104-1.564c0-0.506-0.036-1.032-0.104-1.566c-0.008-0.051,0.019-0.101,0.063-0.123
			c1.142-0.579,1.957-1.236,2.978-2.065c-0.162-0.177-0.241-0.334-0.324-0.498c-0.104-0.204-0.209-0.415-0.5-0.709h-0.02
			c-0.608,0-1.099-0.15-1.57-0.296c-0.426-0.131-0.827-0.255-1.281-0.255c-0.157,0-0.311,0.015-0.469,0.045
			c-0.053,0.01-0.104-0.016-0.129-0.062c-0.506-0.966-1.141-1.857-1.887-2.651c-0.035-0.037-0.043-0.092-0.021-0.137
			c0.526-1.038,0.745-1.829,1.049-2.923l0.074-0.269c-0.125-0.197-0.222-0.36-0.313-0.517c-0.181-0.302-0.337-0.565-0.639-0.982
			c-0.346,0.242-0.742,0.486-1.159,0.742c-0.81,0.498-1.646,1.012-2.187,1.569c-0.036,0.037-0.094,0.047-0.141,0.023
			c-1.037-0.524-2.148-0.893-3.299-1.094c-0.05-0.009-0.087-0.047-0.097-0.096c-0.211-1.093-0.943-3.239-1.033-3.5L112.76,0.48
			l0.165,0.868c0.009,0.035-0.002,0.071-0.024,0.1c-0.022,0.027-0.057,0.043-0.092,0.043h-0.002h-0.068
			c-0.326,0-0.62,0.01-0.896,0.03c-0.43,1.056-0.778,2.247-1.01,3.45c-0.011,0.049-0.049,0.087-0.099,0.096
			c-1.149,0.202-2.26,0.569-3.299,1.094c-0.047,0.024-0.104,0.014-0.141-0.023c-0.855-0.883-1.773-1.684-2.73-2.383
			c-0.611,0.347-1.182,0.777-1.73,1.193l-0.061,0.046c0.377,1.335,0.808,2.456,1.349,3.522c0.022,0.045,0.017,0.1-0.021,0.137
			c-0.746,0.795-1.381,1.687-1.887,2.651c-0.025,0.047-0.076,0.073-0.129,0.062c-0.156-0.029-0.355-0.044-0.598-0.044
			c-0.775,0-1.852,0.15-2.891,0.296c-0.863,0.121-1.682,0.234-2.26,0.253c0.405,0.616,0.737,0.93,1.155,1.242
			c1.005,0.817,2.084,1.362,3.225,1.94l0.181,0.091c0.045,0.022,0.072,0.072,0.064,0.123c-0.07,0.534-0.105,1.062-0.105,1.566
			s0.035,1.032,0.105,1.565c0.008,0.053-0.02,0.102-0.064,0.123c-0.855,0.436-2.029,1.453-2.974,2.271
			c-0.319,0.277-0.625,0.542-0.893,0.764c0.518,0.631,0.685,0.795,1.157,1.15c1.314-0.027,2.625-0.165,3.896-0.406
			c0.053-0.011,0.104,0.016,0.129,0.062c0.504,0.965,1.139,1.855,1.885,2.65c0.035,0.035,0.045,0.092,0.021,0.137
			c-0.29,0.57-0.834,0.845-1.359,1.109c-0.563,0.283-1.097,0.553-1.287,1.158c0.467,0.882,2.319,2.061,3.09,2.493
			c0.961-0.701,1.879-1.501,2.73-2.382c0.036-0.037,0.094-0.049,0.141-0.024l0.233,0.118c0.817,0.415,0.988,0.502,2.056,0.689
			c0.049,0.008,0.088,0.045,0.096,0.095c0.242,1.251,0.91,2.346,1.988,3.253c0.283,0.021,0.594,0.033,0.947,0.033L112.807,31.697
			L112.807,31.697z M112.807,24.07c-3.988,0-7.232-3.245-7.232-7.234c0-3.989,3.244-7.235,7.232-7.235
			c3.989,0,7.234,3.245,7.234,7.235C120.041,20.825,116.796,24.07,112.807,24.07z M112.807,9.841c-3.854,0-6.992,3.139-6.992,6.995
			c0,3.855,3.138,6.994,6.992,6.994c3.857,0,6.994-3.139,6.994-6.994C119.801,12.98,116.663,9.841,112.807,9.841z"/>
	</g>
	<g>
		
			<linearGradient id="SVGID_1_" gradientUnits="userSpaceOnUse" x1="734.6201" y1="700.0479" x2="765.417" y2="700.0479" gradientTransform="matrix(1 0 0 1 -638.5 -684.5)">
			<stop  offset="0" style="stop-color:#E30613"/>
			<stop  offset="1" style="stop-color:#BE1622"/>
		</linearGradient>
		<path fill="url(#SVGID_1_)" d="M123.588,15.547c0-0.536-0.039-1.063-0.105-1.581c1.191-0.604,2.369-1.346,3.435-2.211
			c-0.173-0.756-0.462-1.479-0.742-2.201c-1.36,0.026-2.687,0.168-3.957,0.408c-0.512-0.979-1.153-1.879-1.903-2.677
			c0.58-1.146,1.018-2.331,1.377-3.625c-0.623-0.472-1.246-0.952-1.937-1.335c-1.017,0.735-1.953,1.559-2.81,2.442
			c-1.034-0.522-2.153-0.898-3.332-1.105c-0.229-1.181-0.574-2.399-1.047-3.542c-0.35-0.028-0.698-0.036-1.047-0.035h-0.002
			c-0.349-0.001-0.697,0.007-1.047,0.035c-0.471,1.143-0.818,2.361-1.045,3.542c-1.18,0.207-2.299,0.583-3.333,1.104
			c-0.856-0.883-1.794-1.705-2.81-2.44c-0.69,0.382-1.312,0.862-1.938,1.335c0.36,1.293,0.797,2.478,1.379,3.623
			c-0.75,0.799-1.394,1.699-1.906,2.679c-1.269-0.241-2.594-0.383-3.955-0.409c-0.281,0.723-0.569,1.445-0.743,2.201
			c1.063,0.865,2.243,1.607,3.437,2.211c-0.07,0.519-0.106,1.046-0.106,1.582c0,0.536,0.036,1.063,0.106,1.581
			c-1.192,0.604-2.371,1.348-3.437,2.211c0.175,0.756,0.462,1.479,0.743,2.201c1.361-0.025,2.687-0.168,3.955-0.408
			c0.514,0.979,1.156,1.881,1.906,2.678c-0.582,1.146-1.019,2.33-1.379,3.623c0.625,0.474,1.246,0.953,1.938,1.336
			c1.016-0.735,1.953-1.557,2.81-2.44c1.034,0.521,2.153,0.897,3.333,1.104c0.227,1.182,0.574,2.397,1.045,3.543
			c0.35,0.027,0.698,0.035,1.047,0.034h0.002c0.349,0.001,0.697-0.008,1.047-0.034c0.473-1.145,0.818-2.361,1.047-3.543
			c1.179-0.207,2.298-0.584,3.332-1.104c0.855,0.884,1.793,1.705,2.81,2.44c0.688-0.383,1.312-0.862,1.937-1.336
			c-0.359-1.293-0.797-2.478-1.377-3.623c0.748-0.797,1.393-1.697,1.903-2.678c1.271,0.24,2.597,0.383,3.957,0.408
			c0.281-0.723,0.569-1.445,0.742-2.201c-1.063-0.863-2.242-1.607-3.435-2.211C123.549,16.611,123.588,16.084,123.588,15.547z
			 M111.518,22.661c-3.928,0-7.113-3.185-7.113-7.114c0-3.929,3.187-7.114,7.113-7.114c3.931,0,7.114,3.186,7.114,7.114
			C118.632,19.477,115.447,22.661,111.518,22.661z"/>
		<path fill="#A42423" d="M111.57,31.131h-0.104c-0.376,0-0.704-0.013-1.005-0.037c-0.046-0.004-0.084-0.031-0.102-0.072
			c-0.44-1.064-0.797-2.269-1.037-3.483c-1.114-0.203-2.192-0.562-3.205-1.062c-0.864,0.885-1.792,1.688-2.764,2.392
			c-0.039,0.028-0.088,0.03-0.129,0.008c-0.656-0.362-1.258-0.817-1.838-1.258l-0.115-0.087c-0.039-0.03-0.057-0.081-0.043-0.129
			c0.371-1.332,0.813-2.502,1.351-3.569c-0.716-0.771-1.33-1.633-1.826-2.563c-1.269,0.236-2.575,0.369-3.889,0.396
			c-0.05-0.008-0.097-0.029-0.115-0.076l-0.052-0.136c-0.262-0.672-0.53-1.366-0.695-2.083c-0.011-0.045,0.006-0.091,0.042-0.119
			c1.009-0.821,2.146-1.556,3.38-2.188c-0.064-0.512-0.097-1.021-0.097-1.514c0-0.491,0.032-1,0.097-1.514
			c-1.236-0.632-2.374-1.366-3.38-2.186c-0.036-0.028-0.053-0.075-0.042-0.12c0.165-0.719,0.436-1.415,0.698-2.088l0.05-0.13
			c0.02-0.048,0.073-0.074,0.114-0.077c1.311,0.025,2.618,0.158,3.89,0.395c0.495-0.93,1.107-1.792,1.825-2.564
			c-0.535-1.068-0.979-2.237-1.351-3.57c-0.014-0.047,0.004-0.098,0.043-0.128l0.123-0.093c0.578-0.438,1.176-0.891,1.83-1.251
			c0.041-0.023,0.092-0.021,0.129,0.008c0.969,0.701,1.896,1.505,2.765,2.392c1.012-0.501,2.09-0.858,3.205-1.062
			c0.239-1.218,0.598-2.421,1.036-3.484c0.019-0.042,0.057-0.07,0.102-0.073c0.301-0.024,0.627-0.037,0.997-0.037h0.121
			c0.369,0,0.694,0.012,0.996,0.037c0.045,0.004,0.084,0.031,0.103,0.073c0.443,1.077,0.793,2.249,1.036,3.484
			c1.115,0.203,2.192,0.561,3.204,1.062c0.866-0.889,1.796-1.693,2.766-2.395c0.037-0.027,0.088-0.03,0.129-0.008
			c0.655,0.363,1.258,0.819,1.84,1.26l0.111,0.084c0.039,0.03,0.057,0.081,0.043,0.129c-0.371,1.329-0.812,2.498-1.351,3.57
			c0.718,0.772,1.331,1.635,1.826,2.564c1.271-0.237,2.579-0.369,3.889-0.395c0.041,0.002,0.097,0.029,0.115,0.076l0.05,0.13
			c0.262,0.673,0.532,1.369,0.697,2.088c0.011,0.045-0.006,0.092-0.041,0.12c-1.006,0.818-2.145,1.554-3.381,2.187
			c0.063,0.516,0.097,1.024,0.097,1.513c0,0.49-0.032,0.998-0.097,1.515c1.236,0.631,2.373,1.366,3.381,2.188
			c0.035,0.027,0.052,0.074,0.041,0.119c-0.164,0.718-0.434,1.412-0.694,2.083l-0.053,0.136c-0.019,0.047-0.062,0.068-0.115,0.076
			c-1.312-0.025-2.62-0.158-3.889-0.395c-0.494,0.928-1.107,1.789-1.825,2.562c0.544,1.081,0.973,2.218,1.35,3.568
			c0.014,0.049-0.004,0.1-0.043,0.129l-0.104,0.078c-0.585,0.443-1.188,0.9-1.85,1.268c-0.039,0.021-0.09,0.02-0.127-0.008
			c-0.969-0.7-1.897-1.504-2.766-2.393c-1.014,0.502-2.091,0.857-3.205,1.062c-0.242,1.235-0.593,2.405-1.035,3.483
			c-0.02,0.041-0.059,0.069-0.104,0.072C112.271,31.118,111.952,31.131,111.57,31.131z M111.518,30.891h0.053
			c0.345,0,0.638-0.011,0.912-0.031c0.43-1.053,0.779-2.244,1.013-3.449c0.009-0.049,0.048-0.087,0.097-0.096
			c1.149-0.2,2.26-0.568,3.299-1.094c0.047-0.022,0.104-0.015,0.141,0.024c0.855,0.883,1.775,1.683,2.73,2.381
			c0.619-0.351,1.195-0.787,1.754-1.21l0.037-0.029c-0.377-1.332-0.806-2.453-1.349-3.521c-0.022-0.047-0.017-0.1,0.021-0.137
			c0.748-0.795,1.381-1.688,1.887-2.65c0.023-0.047,0.076-0.073,0.129-0.062c1.256,0.238,2.552,0.375,3.854,0.405l0.021-0.057
			c0.249-0.64,0.506-1.302,0.667-1.978c-1.001-0.806-2.13-1.529-3.354-2.15c-0.046-0.022-0.072-0.071-0.064-0.122
			c0.07-0.533,0.104-1.06,0.104-1.566c0-0.505-0.034-1.031-0.104-1.566c-0.008-0.051,0.02-0.1,0.064-0.122
			c1.227-0.622,2.354-1.346,3.354-2.15c-0.162-0.677-0.421-1.34-0.669-1.981l-0.021-0.052c-1.3,0.03-2.595,0.166-3.854,0.405
			c-0.052,0.009-0.104-0.016-0.13-0.062c-0.504-0.966-1.139-1.857-1.885-2.651c-0.037-0.037-0.045-0.092-0.021-0.137
			c0.545-1.072,0.973-2.194,1.349-3.523l-0.046-0.035c-0.556-0.42-1.129-0.854-1.744-1.204c-0.959,0.699-1.877,1.501-2.732,2.383
			c-0.035,0.038-0.094,0.048-0.139,0.024c-1.039-0.524-2.149-0.893-3.3-1.094c-0.05-0.009-0.089-0.047-0.097-0.096
			c-0.232-1.206-0.583-2.397-1.012-3.451c-0.274-0.021-0.571-0.029-0.903-0.029h-0.122c-0.334,0-0.629,0.009-0.904,0.029
			c-0.43,1.057-0.779,2.247-1.012,3.451c-0.009,0.048-0.047,0.087-0.096,0.095c-1.15,0.202-2.262,0.57-3.299,1.094
			c-0.047,0.024-0.104,0.014-0.142-0.023c-0.854-0.882-1.774-1.684-2.731-2.383c-0.611,0.348-1.182,0.779-1.732,1.195l-0.059,0.044
			c0.377,1.333,0.807,2.454,1.35,3.522c0.023,0.046,0.016,0.101-0.02,0.137c-0.746,0.794-1.381,1.687-1.888,2.652
			c-0.024,0.047-0.077,0.072-0.129,0.062c-1.258-0.239-2.555-0.375-3.853-0.405l-0.021,0.052c-0.249,0.643-0.507,1.305-0.671,1.981
			c1.001,0.806,2.129,1.529,3.355,2.149c0.045,0.023,0.072,0.072,0.064,0.123c-0.07,0.531-0.105,1.059-0.105,1.566
			c0,0.51,0.035,1.036,0.105,1.566c0.008,0.051-0.02,0.101-0.064,0.124c-1.226,0.619-2.354,1.343-3.355,2.148
			c0.164,0.676,0.42,1.336,0.668,1.977l0.023,0.058c1.301-0.03,2.596-0.167,3.852-0.405c0.053-0.011,0.104,0.017,0.13,0.062
			c0.507,0.966,1.14,1.857,1.886,2.65c0.035,0.037,0.043,0.092,0.021,0.137c-0.543,1.07-0.974,2.189-1.349,3.521l0.05,0.037
			c0.554,0.42,1.127,0.854,1.741,1.202c0.961-0.7,1.879-1.501,2.73-2.381c0.036-0.039,0.094-0.048,0.141-0.024
			c1.039,0.524,2.15,0.894,3.299,1.094c0.051,0.01,0.089,0.047,0.098,0.097c0.232,1.202,0.581,2.394,1.014,3.448
			c0.272,0.021,0.571,0.031,0.91,0.031H111.518z M111.518,22.781c-3.988,0-7.232-3.245-7.232-7.234c0-3.989,3.244-7.235,7.232-7.235
			s7.235,3.246,7.235,7.235C118.753,19.537,115.506,22.781,111.518,22.781z M111.518,8.553c-3.855,0-6.992,3.138-6.992,6.994
			c0,3.855,3.137,6.994,6.992,6.994c3.857,0,6.996-3.139,6.996-6.994C118.514,11.691,115.375,8.553,111.518,8.553z"/>
	</g>
	<g>
		<path fill="#A42423" d="M127.879,13.087l-0.9-1.311l-0.726-2.201c0,0,0.888,1.074,1.208,1.638
			C127.719,11.665,127.879,13.087,127.879,13.087z"/>
		<path fill="#801D18" d="M127.879,13.207c-0.038,0-0.074-0.019-0.1-0.053l-0.901-1.31c-0.006-0.01-0.011-0.02-0.015-0.031
			l-0.725-2.201c-0.02-0.055,0.006-0.115,0.057-0.143c0.05-0.028,0.113-0.016,0.15,0.028c0.035,0.044,0.896,1.088,1.219,1.654
			c0.269,0.469,0.428,1.861,0.435,1.92c0.007,0.055-0.024,0.107-0.077,0.127C127.907,13.204,127.895,13.207,127.879,13.207z
			 M127.087,11.723l0.604,0.879c-0.068-0.446-0.187-1.068-0.336-1.329c-0.17-0.298-0.506-0.749-0.779-1.1L127.087,11.723z"/>
	</g>
	<g>
		<path fill="#A42423" d="M127.042,22.837l-0.808-1.289l0.742-2.2c0,0,0.653,1,0.734,1.321
			C127.793,20.99,127.042,22.837,127.042,22.837z"/>
		<path fill="#801D18" d="M127.042,22.957c-0.041,0-0.079-0.021-0.103-0.057l-0.807-1.287c-0.02-0.031-0.023-0.069-0.013-0.104
			l0.741-2.2c0.016-0.043,0.054-0.074,0.101-0.08c0.041-0.006,0.091,0.014,0.115,0.053c0.067,0.104,0.667,1.025,0.75,1.357
			c0.087,0.344-0.548,1.93-0.675,2.243c-0.018,0.042-0.057,0.071-0.102,0.074C127.049,22.957,127.046,22.957,127.042,22.957z
			 M126.367,21.533l0.65,1.037c0.328-0.83,0.617-1.709,0.578-1.872c-0.052-0.199-0.369-0.732-0.584-1.075L126.367,21.533z"/>
	</g>
	<g>
		<path fill="#A42423" d="M120.562,29.576l-0.809-0.807l1.938-1.336c0,0,0.246,0.485,0.326,0.808
			C122.098,28.562,120.562,29.576,120.562,29.576z"/>
		<path fill="#801D18" d="M120.562,29.695c-0.031,0-0.062-0.012-0.086-0.034l-0.809-0.808c-0.025-0.024-0.037-0.062-0.034-0.097
			c0.003-0.034,0.022-0.067,0.054-0.088l1.936-1.336c0.029-0.019,0.064-0.024,0.098-0.017c0.034,0.009,0.062,0.031,0.078,0.062
			c0.01,0.021,0.253,0.502,0.335,0.833c0.089,0.352-0.905,1.068-1.506,1.465C120.607,29.689,120.584,29.695,120.562,29.695z
			 M119.939,28.785l0.637,0.637c0.729-0.49,1.326-1.01,1.324-1.154c-0.053-0.207-0.182-0.494-0.258-0.656L119.939,28.785z"/>
	</g>
	<g>
		<path fill="#A42423" d="M111.783,31.886l-1.312-0.911l2.012,0.104c0,0,0.992,0.378,1.371,0.702
			C114.105,31.997,111.783,31.886,111.783,31.886z"/>
		<path fill="#801D18" d="M112.938,32.035c-0.554,0-1.154-0.028-1.16-0.028c-0.021-0.002-0.045-0.009-0.062-0.022l-1.312-0.91
			c-0.043-0.031-0.062-0.088-0.045-0.139c0.019-0.052,0.076-0.078,0.121-0.082l2.01,0.105c0.012,0.001,0.025,0.003,0.035,0.008
			c0.043,0.016,1.019,0.389,1.41,0.725c0.082,0.069,0.062,0.147,0.053,0.17C113.945,31.967,113.854,32.035,112.938,32.035z
			 M111.823,31.768c0.136,0.006,0.644,0.027,1.116,0.027c0.365,0,0.576-0.013,0.695-0.027c-0.388-0.258-1.062-0.523-1.18-0.568
			l-1.569-0.083L111.823,31.768z"/>
	</g>
</g>
<g>
	<g>
		
			<linearGradient id="SVGID_2_" gradientUnits="userSpaceOnUse" x1="720.5703" y1="662.5273" x2="737.373" y2="662.5273" gradientTransform="matrix(1 0 0 1 -638.5 -684.5)">
			<stop  offset="0" style="stop-color:#66160E"/>
			<stop  offset="0.2414" style="stop-color:#801D18"/>
			<stop  offset="0.5665" style="stop-color:#A42423"/>
		</linearGradient>
		<path fill="url(#SVGID_2_)" d="M97.55-19.564c-0.661-1.359-1.39-1.693-1.877-1.965c-0.487-0.267-0.753-0.625-1.778-1.047
			c-0.945-0.388-1.593-0.785-1.945-1.183c-0.354-0.396-0.53-0.933-0.53-1.605c0-0.236,0.113-0.505,0.341-0.798
			c0.227-0.293,0.383-0.712,0.469-1.25c0.016-0.136,0.062-0.232,0.138-0.292c0.075-0.058,0.147-0.101,0.215-0.125
			s0.14-0.122,0.216-0.29c0.075-0.168,0.122-0.413,0.139-0.733c0-0.37-0.086-0.606-0.254-0.708l0.178-1.49
			c0.018-0.234-0.014-0.5-0.088-0.795c-0.076-0.294-0.213-0.606-0.404-0.936c-0.194-0.327-0.51-0.601-0.946-0.82
			c-0.438-0.218-0.96-0.329-1.567-0.329c-0.604,0-1.127,0.111-1.564,0.329c-0.438,0.219-0.753,0.493-0.947,0.82
			c-0.191,0.33-0.328,0.642-0.402,0.936c-0.076,0.295-0.106,0.561-0.09,0.795l0.178,1.49c-0.168,0.101-0.252,0.337-0.252,0.708
			c0.015,0.321,0.062,0.564,0.138,0.733c0.076,0.168,0.147,0.266,0.216,0.29c0.066,0.025,0.139,0.067,0.214,0.125
			c0.075,0.06,0.123,0.156,0.14,0.292c0.084,0.538,0.24,0.956,0.468,1.25c0.228,0.293,0.34,0.56,0.34,0.796
			c0,0.675-0.176,1.207-0.53,1.603c-0.354,0.396-1,0.789-1.943,1.178c-1.027,0.42-2.157,0.768-2.646,1.031
			c-0.484,0.271-1.1,0.994-1.1,0.994v10.545h7.295h9.508C98.865-10.018,98.211-18.207,97.55-19.564z"/>
		<path fill="#66160E" d="M98.865-10H81.823c-0.067,0-0.123-0.057-0.123-0.123v-10.439c0-0.031,0.014-0.063,0.036-0.086
			c0.031-0.031,0.752-0.738,1.25-1.016c0.275-0.15,0.771-0.32,1.344-0.516c0.456-0.157,0.973-0.336,1.436-0.523
			c1.189-0.488,1.491-0.688,1.898-1.145c0.331-0.37,0.499-0.881,0.499-1.521c0-0.209-0.104-0.451-0.313-0.72
			c-0.238-0.307-0.404-0.747-0.492-1.306c-0.012-0.104-0.043-0.175-0.094-0.215c-0.064-0.049-0.127-0.085-0.181-0.106
			c-0.101-0.036-0.192-0.148-0.284-0.355c-0.083-0.184-0.132-0.438-0.148-0.777c0-0.378,0.08-0.63,0.246-0.771l-0.17-1.418
			c-0.02-0.251,0.012-0.533,0.092-0.84c0.076-0.301,0.217-0.625,0.416-0.967c0.205-0.348,0.541-0.639,0.998-0.869
			c0.457-0.227,1.002-0.341,1.621-0.341s1.164,0.115,1.621,0.341c0.457,0.229,0.791,0.521,0.998,0.867
			c0.199,0.342,0.34,0.667,0.418,0.969c0.077,0.307,0.108,0.588,0.092,0.834l-0.17,1.424c0.164,0.141,0.244,0.396,0.244,0.764
			c-0.017,0.345-0.065,0.599-0.148,0.784c-0.092,0.206-0.184,0.319-0.285,0.355c-0.055,0.02-0.114,0.057-0.182,0.107
			c-0.049,0.039-0.08,0.109-0.09,0.208c-0.092,0.565-0.258,1.004-0.492,1.312c-0.209,0.269-0.315,0.51-0.315,0.72
			c0,0.639,0.168,1.15,0.498,1.52c0.339,0.382,0.979,0.767,1.899,1.146c0.693,0.284,1.041,0.532,1.35,0.75
			c0.152,0.108,0.284,0.203,0.441,0.289l0.119,0.065c0.5,0.27,1.185,0.639,1.811,1.927c0.663,1.364,1.301,9.205,1.328,9.539
			c0.002,0.034-0.01,0.067-0.032,0.094C98.934-10.016,98.9-10,98.865-10z M81.947-10.247H98.73
			c-0.088-1.062-0.695-8.089-1.291-9.317c-0.592-1.215-1.236-1.562-1.707-1.816l-0.119-0.066c-0.172-0.094-0.315-0.195-0.469-0.304
			c-0.295-0.211-0.631-0.449-1.299-0.724c-0.971-0.398-1.621-0.795-1.99-1.209c-0.371-0.416-0.562-0.982-0.562-1.685
			c0-0.265,0.123-0.558,0.366-0.871c0.211-0.274,0.361-0.675,0.443-1.193c0.018-0.161,0.08-0.288,0.184-0.37
			c0.087-0.066,0.17-0.115,0.247-0.145c0.002,0,0.056-0.025,0.146-0.225c0.07-0.154,0.113-0.386,0.129-0.689
			c0-0.215-0.033-0.499-0.193-0.595c-0.041-0.025-0.064-0.072-0.059-0.121l0.178-1.49c0.016-0.214-0.014-0.468-0.086-0.75
			c-0.071-0.278-0.203-0.583-0.392-0.904c-0.181-0.305-0.481-0.565-0.896-0.771c-0.422-0.209-0.932-0.316-1.512-0.316
			s-1.088,0.106-1.511,0.316c-0.413,0.208-0.714,0.467-0.896,0.772c-0.188,0.321-0.318,0.625-0.392,0.903
			c-0.071,0.282-0.101,0.536-0.085,0.756l0.178,1.484c0.006,0.048-0.018,0.096-0.06,0.121c-0.159,0.095-0.192,0.38-0.192,0.602
			c0.015,0.296,0.058,0.528,0.127,0.682c0.09,0.2,0.146,0.225,0.146,0.225c0.078,0.03,0.16,0.078,0.247,0.143
			c0.105,0.083,0.167,0.209,0.188,0.376c0.08,0.513,0.229,0.915,0.441,1.188c0.242,0.312,0.365,0.605,0.365,0.871
			c0,0.701-0.188,1.27-0.562,1.686c-0.367,0.414-1.02,0.81-1.988,1.207c-0.47,0.193-0.989,0.371-1.449,0.528
			c-0.562,0.192-1.047,0.358-1.305,0.5c-0.406,0.226-1.004,0.789-1.158,0.938L81.947-10.247L81.947-10.247z"/>
	</g>
	<g>
		
			<linearGradient id="SVGID_3_" gradientUnits="userSpaceOnUse" x1="730.8311" y1="701.0752" x2="704.6328" y2="701.0752" gradientTransform="matrix(1 0 0 1 -638.5 -684.5)">
			<stop  offset="0" style="stop-color:#1D1D1B"/>
			<stop  offset="1" style="stop-color:#801D18"/>
		</linearGradient>
		<path fill="url(#SVGID_3_)" d="M90.984,24.153c-0.116-0.177-1.443-1.396-2.034-1.751c-0.591-0.353-1.644-1.078-3.105-1.669
			c-1.533-0.62-2.589-1.26-3.169-1.901c-0.579-0.643-0.869-1.524-0.869-2.645c0-0.391,0.188-0.829,0.559-1.305
			c0.373-0.475,0.633-1.157,0.778-2.049c0.042-0.207,0.118-0.362,0.232-0.465c0.113-0.104,0.227-0.177,0.343-0.218
			c0.111-0.042,0.227-0.197,0.34-0.465c0.113-0.27,0.191-0.672,0.232-1.213c0-0.619-0.146-1.003-0.434-1.147l0.31-2.452
			c0.043-0.396-0.005-0.83-0.14-1.305c-0.135-0.474-0.363-0.982-0.683-1.521c-0.323-0.54-0.837-0.988-1.553-1.352
			c-0.714-0.361-1.568-0.543-2.562-0.543c-0.27,0-0.525,0.018-0.775,0.043c-0.672,0.071-1.273,0.237-1.803,0.501
			c-0.724,0.363-1.247,0.812-1.568,1.352c-0.32,0.54-0.549,1.046-0.682,1.52c-0.135,0.476-0.181,0.909-0.141,1.305
			c0.059,0.649,0.161,1.397,0.307,2.239c0.012,0.072,0.023,0.141,0.037,0.214l-0.125,0.06c-0.083,0.063-0.16,0.192-0.232,0.389
			c-0.074,0.198-0.109,0.429-0.109,0.697c0.041,0.541,0.113,0.943,0.218,1.213c0.104,0.269,0.218,0.425,0.341,0.465
			c0.124,0.041,0.244,0.113,0.357,0.219c0.114,0.103,0.191,0.257,0.232,0.464c0.146,0.892,0.408,1.575,0.793,2.049
			c0.383,0.477,0.572,0.912,0.572,1.303c0,1.121-0.289,1.999-0.867,2.642c-0.581,0.641-1.111,1.272-2.665,1.893
			c-0.041,0.022-0.092,0.043-0.156,0.062c-0.454,0.188-0.818,0.347-1.086,0.481c-0.27,0.137-2.183,0.24-3.962,2.196
			C66.455,25.062,66.133,31,66.133,31h20.056h6.142C92.331,31,92.052,25.754,90.984,24.153z"/>
		<linearGradient id="SVGID_4_" gradientUnits="userSpaceOnUse" x1="65.9995" y1="16.5" x2="92.4668" y2="16.5">
			<stop  offset="0" style="stop-color:#1D1D1B"/>
			<stop  offset="1" style="stop-color:#801D18"/>
		</linearGradient>
		<path fill="url(#SVGID_4_)" d="M92.331,31H66.133c-0.037,0-0.073-0.017-0.099-0.043c-0.025-0.026-0.038-0.064-0.035-0.101
			c0.027-0.363,0.343-5.944,1.817-7.565c1.592-1.75,3.589-1.989,3.9-2.122c0.038-0.017,0.07-0.031,0.1-0.046
			c0.267-0.131,0.625-0.29,1.096-0.483c0.064-0.021,0.107-0.038,0.143-0.059c1.481-0.591,2.008-1.176,2.565-1.792l0.064-0.071
			c0.553-0.613,0.835-1.473,0.835-2.552c0-0.359-0.183-0.77-0.544-1.219c-0.401-0.496-0.67-1.186-0.821-2.111
			c-0.034-0.173-0.099-0.304-0.19-0.387c-0.1-0.091-0.203-0.156-0.309-0.19c-0.166-0.054-0.305-0.231-0.424-0.542
			c-0.111-0.287-0.184-0.696-0.227-1.251c0-0.294,0.038-0.544,0.115-0.753c0.083-0.224,0.175-0.37,0.278-0.45l0.058-0.028
			l-0.021-0.115c-0.147-0.857-0.251-1.614-0.308-2.251c-0.043-0.406,0.006-0.862,0.146-1.353c0.136-0.481,0.37-1.005,0.696-1.553
			c0.331-0.557,0.878-1.027,1.623-1.403c0.537-0.268,1.156-0.441,1.848-0.515C78.721,2.014,78.98,2,79.23,2
			c1.009,0,1.891,0.188,2.623,0.559c0.732,0.374,1.272,0.845,1.605,1.402c0.328,0.552,0.562,1.076,0.695,1.554
			c0.141,0.488,0.19,0.944,0.147,1.353l-0.3,2.368c0.282,0.194,0.425,0.604,0.425,1.217c-0.043,0.57-0.123,0.979-0.243,1.265
			c-0.13,0.308-0.267,0.483-0.419,0.539c-0.097,0.034-0.197,0.098-0.297,0.191c-0.092,0.083-0.157,0.215-0.192,0.393
			c-0.146,0.903-0.418,1.613-0.803,2.105c-0.352,0.452-0.531,0.865-0.531,1.221c0,1.079,0.283,1.938,0.834,2.552
			c0.566,0.625,1.616,1.25,3.121,1.858c1.24,0.503,2.186,1.087,2.812,1.476c0.115,0.07,0.219,0.135,0.312,0.19
			c0.591,0.354,1.943,1.563,2.076,1.763c1.076,1.613,1.358,6.522,1.37,6.857c0,0.037-0.013,0.07-0.038,0.098
			C92.401,30.985,92.367,31,92.331,31z M66.278,30.732h25.916c-0.045-1.08-0.36-5.141-1.319-6.581
			c-0.107-0.16-1.408-1.331-1.991-1.682c-0.096-0.057-0.201-0.122-0.317-0.193c-0.617-0.383-1.551-0.961-2.771-1.455
			c-1.541-0.62-2.624-1.27-3.218-1.924c-0.6-0.666-0.902-1.584-0.902-2.731c0-0.418,0.197-0.884,0.586-1.385
			c0.357-0.456,0.609-1.125,0.751-1.988c0.048-0.239,0.14-0.42,0.274-0.542c0.129-0.117,0.255-0.198,0.388-0.246
			c0.025-0.009,0.124-0.067,0.261-0.391c0.108-0.254,0.184-0.648,0.224-1.171c0-0.552-0.122-0.9-0.36-1.018
			c-0.05-0.026-0.079-0.081-0.072-0.137l0.311-2.454c0.039-0.373-0.006-0.794-0.136-1.252c-0.129-0.456-0.354-0.956-0.669-1.489
			c-0.307-0.512-0.811-0.951-1.498-1.301c-0.693-0.351-1.535-0.529-2.502-0.529c-0.24,0-0.49,0.014-0.761,0.042
			c-0.657,0.07-1.249,0.235-1.757,0.488c-0.699,0.352-1.209,0.789-1.514,1.301c-0.312,0.527-0.538,1.028-0.669,1.488
			c-0.13,0.458-0.175,0.879-0.136,1.254c0.057,0.632,0.158,1.381,0.305,2.231l0.037,0.211c0.012,0.059-0.02,0.119-0.072,0.145
			l-0.125,0.062c-0.021,0.02-0.088,0.103-0.166,0.316c-0.066,0.18-0.1,0.399-0.1,0.651c0.037,0.513,0.109,0.907,0.209,1.166
			c0.118,0.312,0.221,0.374,0.257,0.386c0.142,0.046,0.278,0.129,0.405,0.247c0.135,0.122,0.227,0.303,0.273,0.537
			c0.141,0.871,0.398,1.539,0.766,1.991c0.398,0.5,0.603,0.967,0.603,1.387c0,1.147-0.304,2.065-0.903,2.731l-0.064,0.069
			c-0.553,0.613-1.126,1.247-2.649,1.856c-0.034,0.019-0.093,0.044-0.166,0.066c-0.454,0.187-0.807,0.344-1.067,0.472
			c-0.032,0.02-0.07,0.034-0.114,0.054c-0.293,0.126-2.255,0.351-3.808,2.057C66.701,24.915,66.372,29.585,66.278,30.732z"/>
	</g>
	<g>
		
			<linearGradient id="SVGID_5_" gradientUnits="userSpaceOnUse" x1="729.8311" y1="700.0752" x2="704.6328" y2="700.0752" gradientTransform="matrix(1 0 0 1 -638.5 -684.5)">
			<stop  offset="0.3103" style="stop-color:#E30613"/>
			<stop  offset="1" style="stop-color:#BE1622"/>
		</linearGradient>
		<path fill="url(#SVGID_5_)" d="M89.984,23.153c-0.116-0.177-1.443-1.396-2.034-1.751c-0.591-0.353-1.644-1.078-3.105-1.669
			c-1.533-0.62-2.589-1.26-3.169-1.901c-0.579-0.643-0.869-1.524-0.869-2.645c0-0.391,0.188-0.829,0.559-1.305
			c0.373-0.475,0.633-1.157,0.778-2.049c0.042-0.207,0.118-0.362,0.232-0.465c0.113-0.104,0.227-0.177,0.343-0.218
			c0.111-0.042,0.227-0.197,0.34-0.465c0.113-0.27,0.191-0.672,0.232-1.213c0-0.619-0.146-1.003-0.434-1.147l0.31-2.452
			c0.043-0.396-0.005-0.83-0.14-1.305c-0.135-0.474-0.363-0.982-0.683-1.521c-0.323-0.54-0.837-0.988-1.553-1.352
			c-0.714-0.361-1.568-0.543-2.562-0.543c-0.27,0-0.525,0.018-0.775,0.043c-0.672,0.071-1.273,0.237-1.803,0.501
			c-0.724,0.363-1.247,0.812-1.568,1.352c-0.32,0.54-0.549,1.046-0.682,1.52c-0.135,0.476-0.181,0.909-0.141,1.305
			c0.059,0.649,0.161,1.397,0.307,2.239c0.012,0.072,0.023,0.141,0.037,0.214l-0.125,0.06c-0.083,0.063-0.16,0.192-0.232,0.389
			c-0.074,0.198-0.109,0.429-0.109,0.697c0.041,0.541,0.113,0.943,0.218,1.213c0.104,0.269,0.218,0.425,0.341,0.465
			c0.124,0.041,0.244,0.113,0.357,0.219c0.114,0.103,0.191,0.257,0.232,0.464c0.146,0.892,0.408,1.575,0.793,2.049
			c0.383,0.477,0.572,0.912,0.572,1.303c0,1.121-0.289,1.999-0.867,2.642c-0.581,0.641-1.111,1.272-2.665,1.893
			c-0.041,0.022-0.092,0.043-0.156,0.062c-0.454,0.188-0.818,0.347-1.086,0.481c-0.27,0.137-0.832,0.28-2.611,2.236
			C66.806,24.103,66.133,30,66.133,30h19.056h6.142C91.331,30,91.052,24.754,89.984,23.153z"/>
		<path fill="#66160E" d="M91.331,30H66.133c-0.037,0-0.073-0.017-0.099-0.043c-0.025-0.026-0.038-0.064-0.035-0.101
			c0.027-0.363,0.694-5.904,2.168-7.525c1.592-1.75,2.238-2.029,2.549-2.162c0.038-0.017,0.07-0.031,0.1-0.046
			c0.267-0.131,0.625-0.29,1.096-0.483c0.064-0.021,0.107-0.038,0.143-0.059c1.481-0.591,2.008-1.176,2.565-1.792l0.064-0.071
			c0.553-0.613,0.835-1.473,0.835-2.552c0-0.359-0.183-0.77-0.544-1.219c-0.401-0.496-0.67-1.186-0.821-2.111
			c-0.034-0.173-0.099-0.304-0.19-0.387c-0.1-0.091-0.203-0.156-0.309-0.19c-0.166-0.054-0.305-0.231-0.424-0.542
			c-0.111-0.287-0.184-0.696-0.227-1.251c0-0.294,0.038-0.544,0.115-0.753c0.083-0.224,0.175-0.37,0.278-0.45l0.058-0.028
			l-0.021-0.115c-0.147-0.857-0.251-1.614-0.308-2.251c-0.043-0.406,0.006-0.862,0.146-1.353c0.136-0.481,0.37-1.005,0.696-1.553
			c0.331-0.557,0.878-1.027,1.623-1.403c0.537-0.268,1.156-0.441,1.848-0.515C77.721,1.014,77.98,1,78.23,1
			c1.009,0,1.891,0.188,2.623,0.559c0.732,0.374,1.272,0.845,1.605,1.402c0.328,0.552,0.562,1.076,0.695,1.554
			c0.141,0.488,0.19,0.944,0.147,1.353l-0.3,2.368c0.282,0.194,0.425,0.604,0.425,1.217c-0.043,0.57-0.123,0.979-0.243,1.265
			c-0.13,0.308-0.267,0.483-0.419,0.539c-0.097,0.034-0.197,0.098-0.297,0.191c-0.092,0.083-0.157,0.215-0.192,0.393
			c-0.146,0.903-0.418,1.613-0.803,2.105c-0.352,0.452-0.531,0.865-0.531,1.221c0,1.079,0.283,1.938,0.834,2.552
			c0.566,0.625,1.616,1.25,3.121,1.858c1.24,0.503,2.186,1.087,2.812,1.476c0.115,0.07,0.219,0.135,0.312,0.19
			c0.591,0.354,1.943,1.563,2.076,1.763c1.076,1.613,1.358,6.522,1.37,6.857c0,0.037-0.013,0.07-0.038,0.098
			C91.401,29.985,91.367,30,91.331,30z M66.278,29.732h24.916c-0.045-1.08-0.36-5.141-1.319-6.581
			c-0.107-0.16-1.408-1.331-1.991-1.682c-0.096-0.057-0.201-0.122-0.317-0.193c-0.617-0.383-1.551-0.961-2.771-1.455
			c-1.541-0.62-2.624-1.27-3.218-1.924c-0.6-0.666-0.902-1.584-0.902-2.731c0-0.418,0.197-0.884,0.586-1.385
			c0.357-0.456,0.609-1.125,0.751-1.988c0.048-0.239,0.14-0.42,0.274-0.542c0.129-0.117,0.255-0.198,0.388-0.246
			c0.025-0.009,0.124-0.067,0.261-0.391c0.108-0.254,0.184-0.648,0.224-1.171c0-0.552-0.122-0.9-0.36-1.018
			c-0.05-0.026-0.079-0.081-0.072-0.137l0.311-2.454c0.039-0.373-0.006-0.794-0.136-1.252c-0.129-0.456-0.354-0.956-0.669-1.489
			c-0.307-0.512-0.811-0.951-1.498-1.301c-0.693-0.351-1.535-0.529-2.502-0.529c-0.24,0-0.49,0.014-0.761,0.042
			c-0.657,0.07-1.249,0.235-1.757,0.488c-0.699,0.352-1.209,0.789-1.514,1.301c-0.312,0.527-0.538,1.028-0.669,1.488
			c-0.13,0.458-0.175,0.879-0.136,1.254c0.057,0.632,0.158,1.381,0.305,2.231l0.037,0.211c0.012,0.059-0.02,0.119-0.072,0.145
			l-0.125,0.062c-0.021,0.02-0.088,0.103-0.166,0.316c-0.066,0.18-0.1,0.399-0.1,0.651c0.037,0.513,0.109,0.907,0.209,1.166
			c0.118,0.312,0.221,0.374,0.257,0.386c0.142,0.046,0.278,0.129,0.405,0.247c0.135,0.122,0.227,0.303,0.273,0.537
			c0.141,0.871,0.398,1.539,0.766,1.991c0.398,0.5,0.603,0.967,0.603,1.387c0,1.147-0.304,2.065-0.903,2.731l-0.064,0.069
			c-0.553,0.613-1.126,1.247-2.649,1.856c-0.034,0.019-0.093,0.044-0.166,0.066c-0.454,0.187-0.807,0.344-1.067,0.472
			c-0.032,0.02-0.07,0.034-0.114,0.054c-0.293,0.126-0.904,0.391-2.457,2.097C67.052,23.955,66.372,28.585,66.278,29.732z"/>
	</g>
</g>
<g>
	<g>
		
			<linearGradient id="SVGID_6_" gradientUnits="userSpaceOnUse" x1="676.4082" y1="693.7451" x2="696.9837" y2="718.266" gradientTransform="matrix(1 0 0 1 -638.5 -684.5)">
			<stop  offset="0" style="stop-color:#1D1D1B"/>
			<stop  offset="1" style="stop-color:#801D18"/>
		</linearGradient>
		<polygon fill="url(#SVGID_6_)" points="61.439,31.285 35.835,31.122 33,13.363 63,14.799 		"/>
		<polygon fill="none" stroke="#66160E" stroke-width="0.5" stroke-linecap="square" stroke-linejoin="round" points="
			61.439,31.285 35.835,31.122 33,13.363 63,14.799 		"/>
	</g>
	
		<linearGradient id="SVGID_7_" gradientUnits="userSpaceOnUse" x1="683.9551" y1="817.459" x2="683.9551" y2="801.0664" gradientTransform="matrix(1 0 0 -1 -636.5 830.793)">
		<stop  offset="0" style="stop-color:#E30613"/>
		<stop  offset="1" style="stop-color:#BE1622"/>
	</linearGradient>
	<polygon fill="url(#SVGID_7_)" stroke="#A42423" stroke-width="0.5" stroke-linejoin="round" points="60.276,29.727 34.633,29.727 
		33.125,13.335 61.785,13.335 	"/>
	
		<linearGradient id="SVGID_8_" gradientUnits="userSpaceOnUse" x1="685.9541" y1="697.834" x2="685.9541" y2="694.3184" gradientTransform="matrix(1 0 0 1 -638.5 -684.5)">
		<stop  offset="0" style="stop-color:#66160E"/>
		<stop  offset="0.2414" style="stop-color:#801D18"/>
		<stop  offset="0.5665" style="stop-color:#A42423"/>
	</linearGradient>
	<path fill="url(#SVGID_8_)" stroke="#66160E" stroke-width="0.5" stroke-linejoin="round" d="M42.662,12.373v-1.876
		c0-0.417-0.304-0.679-0.679-0.679h-6.936c-0.375,0-0.716,0.128-0.716,0.679v2.042l-1.207,0.795h28.661l-1.509-0.962L42.662,12.373
		L42.662,12.373z"/>
	<polygon fill="#FFFFFF" stroke="#A2195B" stroke-width="0.75" stroke-miterlimit="10" points="50.643,15.471 48.872,27.042 
		46.047,27.042 43.47,21.438 45.521,19.629 47.13,23.756 47.17,23.986 47.208,23.852 48.593,17.82 	"/>
</g>
<linearGradient id="SVGID_9_" gradientUnits="userSpaceOnUse" x1="284" y1="-378" x2="291" y2="-378" gradientTransform="matrix(1 0 0 -1 -281.5 -372)">
	<stop  offset="0" style="stop-color:#E30613"/>
	<stop  offset="1" style="stop-color:#BE1622"/>
</linearGradient>
<rect x="2.5" y="2.5" fill="url(#SVGID_9_)" stroke="#A42423" width="7" height="7"/>
<linearGradient id="SVGID_10_" gradientUnits="userSpaceOnUse" x1="294" y1="-378" x2="301" y2="-378" gradientTransform="matrix(1 0 0 -1 -281.5 -372)">
	<stop  offset="0" style="stop-color:#E30613"/>
	<stop  offset="1" style="stop-color:#BE1622"/>
</linearGradient>
<rect x="12.5" y="2.5" fill="url(#SVGID_10_)" stroke="#A42423" width="7" height="7"/>
<linearGradient id="SVGID_11_" gradientUnits="userSpaceOnUse" x1="304" y1="-378" x2="311" y2="-378" gradientTransform="matrix(1 0 0 -1 -281.5 -372)">
	<stop  offset="0" style="stop-color:#E30613"/>
	<stop  offset="1" style="stop-color:#BE1622"/>
</linearGradient>
<rect x="22.5" y="2.5" fill="url(#SVGID_11_)" stroke="#A42423" width="7" height="7"/>
<linearGradient id="SVGID_12_" gradientUnits="userSpaceOnUse" x1="284" y1="-388" x2="291" y2="-388" gradientTransform="matrix(1 0 0 -1 -281.5 -372)">
	<stop  offset="0" style="stop-color:#E30613"/>
	<stop  offset="1" style="stop-color:#BE1622"/>
</linearGradient>
<rect x="2.5" y="12.5" fill="url(#SVGID_12_)" stroke="#A42423" width="7" height="7"/>
<linearGradient id="SVGID_13_" gradientUnits="userSpaceOnUse" x1="294" y1="-388" x2="301" y2="-388" gradientTransform="matrix(1 0 0 -1 -281.5 -372)">
	<stop  offset="0" style="stop-color:#E30613"/>
	<stop  offset="1" style="stop-color:#BE1622"/>
</linearGradient>
<rect x="12.5" y="12.5" fill="url(#SVGID_13_)" stroke="#A42423" width="7" height="7"/>
<linearGradient id="SVGID_14_" gradientUnits="userSpaceOnUse" x1="304" y1="-388" x2="311" y2="-388" gradientTransform="matrix(1 0 0 -1 -281.5 -372)">
	<stop  offset="0" style="stop-color:#E30613"/>
	<stop  offset="1" style="stop-color:#BE1622"/>
</linearGradient>
<rect x="22.5" y="12.5" fill="url(#SVGID_14_)" stroke="#A42423" width="7" height="7"/>
<linearGradient id="SVGID_15_" gradientUnits="userSpaceOnUse" x1="284" y1="-398" x2="291" y2="-398" gradientTransform="matrix(1 0 0 -1 -281.5 -372)">
	<stop  offset="0" style="stop-color:#E30613"/>
	<stop  offset="1" style="stop-color:#BE1622"/>
</linearGradient>
<rect x="2.5" y="22.5" fill="url(#SVGID_15_)" stroke="#A42423" width="7" height="7"/>
<linearGradient id="SVGID_16_" gradientUnits="userSpaceOnUse" x1="294" y1="-398" x2="301" y2="-398" gradientTransform="matrix(1 0 0 -1 -281.5 -372)">
	<stop  offset="0" style="stop-color:#E30613"/>
	<stop  offset="1" style="stop-color:#BE1622"/>
</linearGradient>
<rect x="12.5" y="22.5" fill="url(#SVGID_16_)" stroke="#A42423" width="7" height="7"/>
<linearGradient id="SVGID_17_" gradientUnits="userSpaceOnUse" x1="304" y1="-398" x2="311" y2="-398" gradientTransform="matrix(1 0 0 -1 -281.5 -372)">
	<stop  offset="0" style="stop-color:#E30613"/>
	<stop  offset="1" style="stop-color:#BE1622"/>
</linearGradient>
<rect x="22.5" y="22.5" fill="url(#SVGID_17_)" stroke="#A42423" width="7" height="7"/>
<g>
	<polygon fill="#676767" points="131.887,3.117 131.887,28.262 152.902,28.262 152.902,22.544 150.665,24.816 150.21,25.277 
		149.562,25.277 142.258,25.277 138.827,25.277 141.098,22.705 147.37,15.592 141.098,8.478 138.827,5.904 142.258,5.904 
		149.562,5.904 150.21,5.904 150.665,6.367 152.902,8.64 152.902,3.117 	"/>
	<polygon fill="#353534" points="152.902,28.262 131.887,28.262 131.887,3.117 152.902,3.117 152.902,8.64 153.29,9.034 
		153.29,2.73 131.5,2.73 131.5,28.648 153.29,28.648 153.29,22.15 152.902,22.544 	"/>
	<polygon fill="#676767" points="142.688,7.647 149.693,15.592 142.688,23.536 149.479,23.536 152.902,20.061 152.902,11.124 
		149.479,7.647 	"/>
	<polygon fill="#353534" points="153.29,19.667 153.29,11.517 152.902,11.124 152.902,20.061 	"/>
	<polygon fill="#676767" points="153.29,11.517 152.902,11.124 149.479,7.647 142.688,7.647 149.693,15.592 142.688,23.536 
		149.479,23.536 152.902,20.061 153.29,19.667 157.303,15.592 	"/>
	
		<linearGradient id="SVGID_18_" gradientUnits="userSpaceOnUse" x1="423.3301" y1="-387.5913" x2="439.3457" y2="-387.5913" gradientTransform="matrix(1 0 0 -1 -281.5 -372)">
		<stop  offset="0.3103" style="stop-color:#E30613"/>
		<stop  offset="1" style="stop-color:#BE1622"/>
	</linearGradient>
	<path fill="url(#SVGID_18_)" d="M149.643,23.924h-7.812l7.35-8.332l-7.35-8.333h7.812l8.203,8.333L149.643,23.924z"/>
	
		<linearGradient id="SVGID_19_" gradientUnits="userSpaceOnUse" x1="423.3291" y1="-387.5913" x2="439.3457" y2="-387.5913" gradientTransform="matrix(1 0 0 -1 -281.5 -372)">
		<stop  offset="0" style="stop-color:#66160E"/>
		<stop  offset="0.2414" style="stop-color:#801D18"/>
		<stop  offset="0.5665" style="stop-color:#A42423"/>
	</linearGradient>
	<path fill="url(#SVGID_19_)" d="M141.829,7.259l7.349,8.333l-7.349,8.332h7.813l8.203-8.332l-8.203-8.333H141.829z M153.29,11.517
		l4.013,4.075l-4.013,4.075l-0.388,0.394l-3.424,3.477h-6.791l7.006-7.944l-7.006-7.945h6.791l3.424,3.477L153.29,11.517z"/>
</g>
</svg>
