<?xml version="1.0" encoding="utf-8"?>
<!-- Generator: Adobe Illustrator 16.0.4, SVG Export Plug-In . SVG Version: 6.00 Build 0)  -->
<!DOCTYPE svg PUBLIC "-//W3C//DTD SVG 1.1//EN" "http://www.w3.org/Graphics/SVG/1.1/DTD/svg11.dtd">
<svg version="1.1" id="Ebene_1" xmlns="http://www.w3.org/2000/svg" xmlns:xlink="http://www.w3.org/1999/xlink" x="0px" y="0px"
	 width="320px" height="64px" viewBox="0 0 320 64" enable-background="new 0 0 320 64" xml:space="preserve">
<g>
	<polygon fill="#FFFFFF" points="41.565,16.788 36.825,47.758 29.265,47.758 22.367,32.75 27.853,27.914 32.409,39.572 
		36.079,23.076 	"/>
	<path fill="#22732B" d="M37.032,48h-7.921l-7.04-15.312l5.882-5.184l4.392,11.24l3.512-15.78L41.929,16L37.032,48z M29.419,47.516
		h7.199L41.2,17.574l-4.898,5.613L32.47,40.4l-4.717-12.076l-5.094,4.49L29.419,47.516z"/>
</g>
<g>
	<path fill="#AA000D" d="M227.363,37.346L228.59,16h-9.121l1.229,21.346H227.363z M228.15,16.459l-1.34,20.346h-5.48l-1.34-20.346
		H228.15z"/>
	<path fill="#AA000D" d="M224.006,39.91c-1.457,0-2.6,0.352-3.393,1.032c-0.797,0.701-1.203,1.709-1.203,3.009
		c0,1.262,0.41,2.267,1.227,2.978c0.811,0.709,1.941,1.071,3.369,1.071c1.402,0,2.523-0.37,3.334-1.091
		c0.809-0.727,1.219-1.729,1.219-2.958c0-1.274-0.408-2.279-1.213-2.99C226.545,40.267,225.422,39.91,224.006,39.91z
		 M226.805,46.406c-0.664,0.6-1.576,0.883-2.797,0.883c-1.24,0-2.195-0.288-2.848-0.862c-0.652-0.571-0.969-1.379-0.969-2.471
		c0-1.129,0.309-1.942,0.939-2.498c0.633-0.551,1.602-0.829,2.877-0.829c1.242,0,2.162,0.278,2.812,0.844
		c0.646,0.574,0.961,1.382,0.961,2.483C227.781,45.015,227.459,45.815,226.805,46.406z"/>
	<path fill="#073866" d="M224.008,40.624c-1.27,0-2.238,0.28-2.877,0.831c-0.631,0.556-0.939,1.372-0.939,2.499
		c0,1.091,0.316,1.901,0.969,2.473c0.652,0.568,1.607,0.862,2.848,0.862c1.227,0,2.133-0.286,2.797-0.883
		c0.654-0.594,0.977-1.392,0.977-2.452c0-1.102-0.314-1.912-0.961-2.483C226.17,40.904,225.25,40.624,224.008,40.624z"/>
	
		<linearGradient id="SVGID_1_" gradientUnits="userSpaceOnUse" x1="480.5732" y1="-243.4565" x2="489.4002" y2="-243.4565" gradientTransform="matrix(1 0 0 -1 -261 -199.5)">
		<stop  offset="0" style="stop-color:#FFFFFF"/>
		<stop  offset="1" style="stop-color:#F4F4F6"/>
	</linearGradient>
	<path fill="url(#SVGID_1_)" d="M224.008,40.624c-1.27,0-2.238,0.28-2.877,0.831c-0.631,0.556-0.939,1.372-0.939,2.499
		c0,1.091,0.316,1.901,0.969,2.473c0.652,0.568,1.607,0.862,2.848,0.862c1.227,0,2.133-0.286,2.797-0.883
		c0.654-0.594,0.977-1.392,0.977-2.452c0-1.102-0.314-1.912-0.961-2.483C226.17,40.904,225.25,40.624,224.008,40.624z"/>
	<polygon fill="#073866" points="226.811,36.805 228.15,16.459 219.992,16.459 221.336,36.805 	"/>
	
		<linearGradient id="SVGID_2_" gradientUnits="userSpaceOnUse" x1="480.167" y1="-226.1318" x2="489.8657" y2="-226.1318" gradientTransform="matrix(1 0 0 -1 -261 -199.5)">
		<stop  offset="0" style="stop-color:#FFFFFF"/>
		<stop  offset="1" style="stop-color:#F4F4F6"/>
	</linearGradient>
	<polygon fill="url(#SVGID_2_)" points="226.811,36.805 228.15,16.459 219.992,16.459 221.336,36.805 	"/>
</g>
<g>
	<linearGradient id="SVGID_3_" gradientUnits="userSpaceOnUse" x1="287.8965" y1="45.3066" x2="287.8965" y2="16.4517">
		<stop  offset="0" style="stop-color:#F6A835"/>
		<stop  offset="1" style="stop-color:#FFEB09"/>
	</linearGradient>
	<polygon fill="url(#SVGID_3_)" points="287.536,29.466 281.806,45.307 297,25.501 288.107,25.501 291.775,16.451 284.776,16.451 
		278.793,29.466 	"/>
	<path fill="#F3AA2D" d="M280.328,48l6.542-18.083h-8.804L284.463,16h8.004l-3.667,9.05h9.134L280.328,48z M279.518,29.015h8.684
		l-4.918,13.602l12.781-16.665h-8.649l3.667-9.051h-5.995L279.518,29.015z"/>
</g>
<g>
	<g>
		<path fill="#FFFFFF" d="M150.442,24.504l4.168,0.021c3.148-3.149,9.016-2.394,12.17,0.756c3.146,3.152,3.582,9.301,0.432,12.451
			l4.51-0.4l-0.15,4.762c5.545-5.549,5.094-15.604-0.453-21.15c-5.547-5.548-15.363-6.368-20.907-0.82L150.442,24.504z"/>
		<path fill="#073866" d="M171.188,42.975l0.164-5.254l-5.078,0.453l0.688-0.688c2.904-2.91,2.689-8.829-0.434-11.953
			c-1.676-1.674-4.154-2.672-6.635-2.672c-2.012,0-3.799,0.678-5.033,1.914l-0.105,0.104l-4.649-0.024l-0.262-4.868l0.115-0.111
			c2.499-2.5,6.002-3.876,9.862-3.876c4.352,0,8.561,1.71,11.545,4.695c5.783,5.782,5.998,16.1,0.455,21.648L171.188,42.975z
			 M172.087,36.947l-0.131,4.217c4.623-5.416,4.209-14.677-1.086-19.969c-2.854-2.854-6.877-4.49-11.045-4.49
			c-3.617,0-6.891,1.265-9.25,3.561l0.207,3.888l3.69,0.021c1.365-1.303,3.287-2.017,5.426-2.017c2.664,0,5.332,1.076,7.137,2.878
			c3.143,3.15,3.541,8.943,1.02,12.271L172.087,36.947z"/>
	</g>
	<g>
		<path fill="#FFFFFF" d="M169.56,39.494l-4.166-0.023c-3.15,3.152-9.018,2.395-12.168-0.754c-3.151-3.152-3.583-9.303-0.434-12.453
			l-4.51,0.402l0.148-4.763c-5.547,5.546-5.094,15.604,0.455,21.149c5.549,5.549,15.362,6.369,20.911,0.82L169.56,39.494z"/>
		<path fill="#073866" d="M160.188,48L160.188,48c-4.359,0-8.567-1.713-11.553-4.697c-5.787-5.785-6-16.104-0.451-21.649l0.623-0.63
			l-0.164,5.256l5.083-0.454l-0.688,0.688c-1.411,1.408-2.153,3.582-2.042,5.957c0.109,2.344,1.008,4.531,2.471,5.996
			c1.676,1.672,4.154,2.672,6.635,2.668c2.016,0,3.801-0.68,5.039-1.914l0.105-0.105l4.645,0.023l0.258,4.871l-0.109,0.109
			C167.542,46.621,164.044,48,160.188,48z M148.051,22.836c-4.625,5.414-4.207,14.676,1.086,19.967
			c2.856,2.855,6.879,4.492,11.051,4.492c3.607,0,6.883-1.264,9.242-3.562l-0.209-3.889l-3.689-0.021
			c-1.367,1.305-3.285,2.02-5.43,2.02c-2.664,0-5.328-1.076-7.129-2.879c-1.59-1.586-2.567-3.941-2.684-6.457
			c-0.109-2.225,0.492-4.292,1.658-5.814l-4.037,0.36L148.051,22.836z"/>
	</g>
</g>
<g>
	<polygon fill="#FFFFFF" points="109.332,29.305 100.121,27.933 96.032,19.569 91.881,27.903 82.664,29.208 89.307,35.73 
		87.699,44.902 95.957,40.599 104.182,44.961 102.641,35.779 	"/>
	<path fill="#073866" d="M112,28.449l-11.051-1.647l-4.908-10.037l-4.979,10.001L80,28.333l7.973,7.827l-1.93,11.005l9.909-5.163
		l9.867,5.234l-1.848-11.019L112,28.449z M95.957,40.599l-8.258,4.304l1.608-9.172l-6.644-6.522l9.218-1.305l4.15-8.334l4.089,8.364
		l9.21,1.372l-6.691,6.475l1.541,9.182L95.957,40.599z"/>
</g>
</svg>
