<svg xmlns="http://www.w3.org/2000/svg" viewBox="8 14 44 32">
<g>
	<g>
		<path fill="currentcolor" d="M35.5,39c-3-3-7.9-3-10.9,0l-2.1-2.1c4.2-4.2,11-4.2,15.2,0L35.5,39z"/>
		<path fill="currentcolor" d="M42.2,32.2c-6.7-6.7-17.7-6.7-24.4,0l-2.1-2.1c7.9-7.9,20.8-7.9,28.7,0L42.2,32.2z"/>
		<path fill="currentcolor" d="M49,25.4c-5.1-5.1-11.8-7.9-19-7.9s-13.9,2.8-19,7.9l-2.1-2.1c5.6-5.6,13.1-8.7,21.1-8.7s15.5,3.1,21.1,8.7    L49,25.4z"/>
	</g>
	<circle fill="currentcolor" opacity="0.5" cx="29.8" cy="42.9" r="2.5"/>
</g>
</svg>