<svg xmlns="http://www.w3.org/2000/svg" viewBox="5 10 50 40"><path d="M45.76,13.88h-7.36v1.97h7.36c3.46,0,6.27,2.81,6.27,6.27s-2.81,6.27-6.27,6.27h-4.11l3.13-2.95-1.22-1.31-5.57,5.24,5.57,5.25,1.22-1.31-3.12-2.95h4.11c4.54,0,8.24-3.7,8.24-8.24s-3.7-8.24-8.24-8.24Z" fill="currentcolor"/><path d="M14.24,28.4h7.36v1.97h-7.36c-3.46,0-6.27,2.81-6.27,6.27,0,3.46,2.81,6.27,6.27,6.27h4.11s-3.13-2.95-3.13-2.95l1.22-1.31,5.57,5.24-5.57,5.25-1.22-1.31,3.12-2.95h-4.11c-4.54,0-8.24-3.7-8.24-8.24,0-4.54,3.7-8.24,8.24-8.24Z" fill="currentcolor"/><path d="M33.99,33.38h-8v-8h8v8Z" fill="currentcolor" opacity=".75"/><path d="M33.99,47.89h-8v-8h8v8Z" fill="currentcolor" opacity=".75"/><path d="M33.99,18.86h-8V10.86h8v8Z" fill="currentcolor" opacity=".75"/></svg>