<svg xmlns="http://www.w3.org/2000/svg" viewBox="14 7 32 45"><polygon points="24.29 7.56 14.07 19.3 24.29 19.3 24.29 7.56" fill="currentcolor" opacity="0.5"/><path d="M36.61,40.29A1.33,1.33,0,0,0,37.94,39V35.32a1.34,1.34,0,0,0-2.67,0V39A1.33,1.33,0,0,0,36.61,40.29Z" fill="currentcolor"/><path d="M36.61,7.56v3h3v3.05h-3v3h3v3.05h-3V22.8h3v3.05h-3v3h3V32h-3a3,3,0,0,1,3,3V43.3a3,3,0,0,1-6.09,0l0-8.31a3,3,0,0,1,3.05-3h0V28.9h-3v-3h3V22.8h-3V19.75h3V16.7h-3v-3h3V10.6h-3v-3H24.29V19.3H14.07V51.23H45.93V7.56Z" fill="currentcolor"/></svg>