<?xml version="1.0" encoding="utf-8"?>
<!-- Generator: Adobe Illustrator 24.2.1, SVG Export Plug-In . SVG Version: 6.00 Build 0)  -->
<svg version="1.1" id="Ebene_1" xmlns="http://www.w3.org/2000/svg" xmlns:xlink="http://www.w3.org/1999/xlink" x="0px" y="0px"
	 viewBox="0 0 60 60" style="enable-background:new 0 0 60 60;" xml:space="preserve">
<style type="text/css">
	.st0{fill:#FFFFFF;}
</style>
<g>
	<path class="st0" d="M34.9,9.4c-8.7,0-15.7,7-15.7,15.7c0,3.2,1,6.1,2.6,8.6c0,0,0.1,0.1,0.1,0.2L9.4,46.4l4.2,4.2l12.5-12.5
		c0.2,0.1,0.4,0.2,0.4,0.2c2.4,1.5,5.2,2.4,8.3,2.4c8.7,0,15.7-7,15.7-15.7C50.6,16.4,43.5,9.4,34.9,9.4z M34.9,36.1
		c-6.1,0-11.1-5-11.1-11.1c0-6.1,5-11.1,11.1-11.1C41,14,46,18.9,46,25C46,31.2,41,36.1,34.9,36.1z"/>
</g>
<rect x="27.9" y="23.7" class="st0" width="14" height="2.7"/>
</svg>
