<?xml version="1.0" encoding="utf-8"?>
<!-- Generator: Adobe Illustrator 16.0.4, SVG Export Plug-In . SVG Version: 6.00 Build 0)  -->
<!DOCTYPE svg PUBLIC "-//W3C//DTD SVG 1.1//EN" "http://www.w3.org/Graphics/SVG/1.1/DTD/svg11.dtd">
<svg version="1.1" id="Ebene_1" xmlns="http://www.w3.org/2000/svg" xmlns:xlink="http://www.w3.org/1999/xlink" x="0px" y="0px"
	 width="64px" height="64px" viewBox="0 0 64 64" enable-background="new 0 0 64 64" xml:space="preserve">
<g>
	<g>
		<g>
			<linearGradient id="SVGID_1_" gradientUnits="userSpaceOnUse" x1="5.7119" y1="32" x2="58.582" y2="32">
				<stop  offset="0" style="stop-color:#FFFFFF"/>
				<stop  offset="1" style="stop-color:#F4F4F6"/>
			</linearGradient>
			<polygon fill="url(#SVGID_1_)" points="58.582,0.466 22.669,0.466 5.712,17.423 5.712,63.534 58.582,63.534 			"/>
			<path fill="#A7A6A6" d="M58.582,64H5.712l-0.468-0.466v-46.11l0.138-0.329L22.339,0.137L22.669,0h35.913l0.464,0.466v63.067
				L58.582,64z M6.177,63.067h51.937V0.933H22.862L6.177,17.617V63.067z"/>
		</g>
	</g>
</g>
<g>
	<path fill="#C61925" d="M22.947,48.266c0,2.521-0.72,4.451-2.155,5.792c-1.435,1.34-3.507,2.012-6.214,2.012H10.24V40.756h4.807
		c2.5,0,4.441,0.66,5.824,1.978C22.254,44.054,22.947,45.898,22.947,48.266z M19.573,48.35c0-3.29-1.453-4.933-4.36-4.933h-1.727
		v9.972h1.395C18.01,53.388,19.573,51.708,19.573,48.35z"/>
	<path fill="#C61925" d="M40.021,48.391c0,2.534-0.629,4.483-1.887,5.844c-1.257,1.363-3.059,2.043-5.406,2.043
		c-2.345,0-4.146-0.681-5.403-2.043c-1.257-1.361-1.886-3.315-1.886-5.865c0-2.548,0.631-4.495,1.892-5.84
		c1.258-1.344,3.068-2.015,5.421-2.015c2.351,0,4.149,0.677,5.399,2.031C39.397,43.901,40.021,45.85,40.021,48.391z M28.841,48.391
		c0,1.711,0.325,3,0.978,3.866c0.646,0.865,1.619,1.298,2.909,1.298c2.593,0,3.887-1.722,3.887-5.164
		c0-3.449-1.287-5.174-3.863-5.174c-1.292,0-2.268,0.435-2.923,1.303C29.17,45.391,28.841,46.68,28.841,48.391z"/>
	<path fill="#C61925" d="M49.699,43.237c-1.225,0-2.172,0.46-2.841,1.378c-0.67,0.919-1.006,2.199-1.006,3.839
		c0,3.415,1.283,5.124,3.847,5.124c1.075,0,2.377-0.27,3.904-0.808v2.724c-1.258,0.523-2.659,0.786-4.208,0.786
		c-2.23,0-3.933-0.675-5.115-2.026c-1.18-1.352-1.768-3.292-1.768-5.819c0-1.592,0.289-2.986,0.869-4.185
		c0.58-1.198,1.411-2.115,2.498-2.754c1.084-0.638,2.357-0.958,3.819-0.958c1.485,0,2.979,0.359,4.481,1.078l-1.046,2.64
		c-0.574-0.271-1.151-0.51-1.731-0.712C50.826,43.338,50.257,43.237,49.699,43.237z"/>
</g>
<g>
	<g>
		<path fill="#454544" d="M12.8,13.853c0,0.388-0.105,0.688-0.321,0.898c-0.212,0.21-0.516,0.315-0.901,0.315h-0.754v-2.331h0.807
			c0.374,0,0.661,0.096,0.865,0.287C12.7,13.214,12.8,13.491,12.8,13.853z M12.149,13.875c0-0.213-0.046-0.372-0.127-0.475
			c-0.086-0.103-0.215-0.154-0.386-0.154h-0.183v1.305h0.137c0.191,0,0.333-0.055,0.424-0.166
			C12.102,14.272,12.149,14.104,12.149,13.875z"/>
		<path fill="#454544" d="M13.216,15.067v-2.331h0.634v2.331H13.216z"/>
		<path fill="#454544" d="M15.738,15.067h-1.385v-2.331h1.385v0.505h-0.754v0.368h0.698v0.503h-0.698v0.44h0.754V15.067z"/>
		<path fill="#454544" d="M16.994,12.736h0.813c0.316,0,0.551,0.048,0.706,0.142c0.151,0.094,0.229,0.24,0.229,0.439
			c0,0.131-0.03,0.242-0.099,0.334c-0.067,0.092-0.156,0.152-0.265,0.178v0.017c0.145,0.039,0.248,0.103,0.313,0.191
			c0.064,0.089,0.096,0.204,0.096,0.348c0,0.211-0.076,0.378-0.238,0.5c-0.156,0.122-0.375,0.182-0.649,0.182h-0.906V12.736z
			 M17.624,13.631h0.189c0.089,0,0.159-0.02,0.211-0.055c0.049-0.038,0.072-0.092,0.072-0.167c0-0.131-0.098-0.196-0.296-0.196
			h-0.177V13.631z M17.624,14.091v0.488h0.22c0.197,0,0.298-0.082,0.298-0.249c0-0.076-0.027-0.135-0.08-0.178
			c-0.052-0.042-0.129-0.062-0.228-0.062H17.624z"/>
		<path fill="#454544" d="M20.579,15.067h-1.385v-2.331h1.385v0.505h-0.754v0.368h0.698v0.503h-0.698v0.44h0.754V15.067z"/>
		<path fill="#454544" d="M22.511,14.359c0,0.145-0.04,0.273-0.11,0.384c-0.073,0.113-0.182,0.2-0.317,0.262
			c-0.138,0.062-0.303,0.093-0.488,0.093c-0.153,0-0.283-0.012-0.388-0.033c-0.108-0.021-0.217-0.06-0.329-0.113v-0.562
			c0.119,0.062,0.244,0.11,0.374,0.145s0.249,0.051,0.356,0.051c0.095,0,0.164-0.015,0.206-0.047s0.065-0.075,0.065-0.125
			c0-0.032-0.009-0.059-0.028-0.085c-0.014-0.023-0.044-0.047-0.081-0.071c-0.041-0.024-0.143-0.075-0.311-0.15
			c-0.153-0.069-0.267-0.137-0.343-0.202c-0.077-0.064-0.133-0.14-0.169-0.223c-0.038-0.083-0.054-0.183-0.054-0.297
			c0-0.215,0.075-0.383,0.233-0.502c0.154-0.12,0.37-0.181,0.645-0.181c0.241,0,0.486,0.056,0.738,0.167l-0.193,0.487
			c-0.22-0.1-0.408-0.151-0.565-0.151c-0.083,0-0.142,0.015-0.178,0.043c-0.039,0.029-0.055,0.064-0.055,0.107
			c0,0.045,0.021,0.087,0.068,0.123c0.05,0.036,0.178,0.101,0.385,0.196c0.201,0.09,0.342,0.187,0.421,0.292
			C22.469,14.072,22.511,14.203,22.511,14.359z"/>
		<path fill="#454544" d="M23.898,15.067h-0.63v-1.815h-0.569v-0.516h1.764v0.516h-0.564V15.067z"/>
		<path fill="#454544" d="M26.183,15.067h-1.386v-2.331h1.386v0.505h-0.755v0.368h0.698v0.503h-0.698v0.44h0.755V15.067z"/>
		<path fill="#454544" d="M28.809,15.067h-0.826l-0.85-1.643h-0.016c0.021,0.259,0.032,0.457,0.032,0.591v1.051h-0.562v-2.331h0.823
			l0.85,1.621h0.011c-0.016-0.236-0.024-0.425-0.024-0.566v-1.055h0.562V15.067z"/>
		<path fill="#454544" d="M32.14,13.853c0,0.388-0.109,0.688-0.321,0.898c-0.216,0.21-0.517,0.315-0.905,0.315h-0.755v-2.331h0.807
			c0.374,0,0.666,0.096,0.87,0.287C32.036,13.214,32.14,13.491,32.14,13.853z M31.484,13.875c0-0.213-0.042-0.372-0.127-0.475
			c-0.082-0.103-0.211-0.154-0.386-0.154h-0.183v1.305h0.142c0.191,0,0.332-0.055,0.419-0.166
			C31.44,14.272,31.484,14.104,31.484,13.875z"/>
		<path fill="#454544" d="M34.735,13.898c0,0.394-0.094,0.69-0.286,0.896c-0.192,0.203-0.478,0.306-0.848,0.306
			c-0.364,0-0.644-0.103-0.839-0.308c-0.195-0.206-0.295-0.504-0.295-0.896c0-0.387,0.099-0.685,0.293-0.888
			c0.194-0.206,0.476-0.307,0.845-0.307c0.37,0,0.654,0.1,0.846,0.304C34.643,13.207,34.735,13.505,34.735,13.898z M33.134,13.898
			c0,0.452,0.154,0.677,0.468,0.677c0.161,0,0.279-0.056,0.358-0.165c0.073-0.11,0.113-0.28,0.113-0.512
			c0-0.231-0.04-0.404-0.115-0.515c-0.08-0.112-0.195-0.167-0.353-0.167C33.289,13.216,33.134,13.444,33.134,13.898z"/>
		<path fill="#454544" d="M37.149,15.067h-0.712l-0.462-0.892l-0.188,0.112v0.779h-0.633v-2.331h0.633v1.013
			c0.034-0.063,0.099-0.163,0.193-0.297l0.489-0.716h0.688l-0.733,1.045L37.149,15.067z"/>
		<path fill="#454544" d="M39.382,12.736v1.404c0,0.305-0.088,0.54-0.261,0.708c-0.171,0.167-0.42,0.251-0.745,0.251
			c-0.318,0-0.562-0.083-0.732-0.244c-0.173-0.163-0.256-0.397-0.256-0.702v-1.417h0.633v1.369c0,0.163,0.029,0.284,0.091,0.357
			c0.062,0.075,0.154,0.112,0.274,0.112c0.128,0,0.221-0.037,0.277-0.112c0.058-0.072,0.088-0.195,0.088-0.361v-1.366H39.382z"/>
		<path fill="#454544" d="M40.887,15.067l-0.479-1.678h-0.012c0.021,0.284,0.031,0.507,0.031,0.666v1.012H39.87v-2.331h0.841
			l0.485,1.655h0.014l0.475-1.655h0.841v2.331h-0.579v-1.021c0-0.054,0.001-0.113,0.003-0.178c0.001-0.064,0.009-0.224,0.019-0.477
			h-0.011l-0.473,1.676H40.887z"/>
		<path fill="#454544" d="M44.409,15.067h-1.384v-2.331h1.384v0.505h-0.755v0.368h0.699v0.503h-0.699v0.44h0.755V15.067z"/>
		<path fill="#454544" d="M47.035,15.067h-0.822l-0.853-1.643h-0.016c0.021,0.259,0.031,0.457,0.031,0.591v1.051h-0.558v-2.331
			h0.824l0.845,1.621h0.011c-0.016-0.236-0.023-0.425-0.023-0.566v-1.055h0.561V15.067z"/>
		<path fill="#454544" d="M48.569,15.067h-0.63v-1.815H47.37v-0.516h1.767v0.516h-0.567V15.067z"/>
		<path fill="#454544" d="M50.852,15.067h-1.385v-2.331h1.385v0.505h-0.754v0.368h0.698v0.503h-0.698v0.44h0.754V15.067z"/>
		<path fill="#454544" d="M12.208,18.984h-1.385v-2.331h1.385v0.505h-0.754v0.367h0.696v0.505h-0.696v0.44h0.754V18.984z"/>
		<path fill="#454544" d="M14.834,18.984h-0.826l-0.853-1.643h-0.012c0.018,0.259,0.027,0.455,0.027,0.592v1.051h-0.558v-2.331
			h0.824l0.845,1.619h0.011c-0.016-0.234-0.02-0.423-0.02-0.566v-1.053h0.561V18.984z"/>
		<path fill="#454544" d="M16.364,18.984h-0.63v-1.815h-0.569v-0.516h1.767v0.516h-0.567V18.984z"/>
		<path fill="#454544" d="M18.789,18.276c0,0.146-0.036,0.272-0.109,0.385c-0.074,0.111-0.179,0.198-0.318,0.261
			c-0.139,0.062-0.299,0.094-0.484,0.094c-0.158,0-0.287-0.011-0.392-0.032c-0.104-0.023-0.213-0.062-0.329-0.115v-0.561
			c0.119,0.062,0.244,0.111,0.374,0.146c0.13,0.033,0.249,0.051,0.36,0.051c0.091,0,0.16-0.017,0.202-0.049
			c0.046-0.032,0.065-0.073,0.065-0.125c0-0.032-0.008-0.06-0.024-0.083c-0.019-0.023-0.046-0.047-0.085-0.073
			c-0.037-0.024-0.143-0.073-0.311-0.149c-0.15-0.07-0.267-0.135-0.339-0.2c-0.078-0.065-0.133-0.14-0.173-0.224
			c-0.034-0.085-0.054-0.183-0.054-0.299c0-0.215,0.079-0.38,0.233-0.502c0.158-0.12,0.37-0.179,0.645-0.179
			c0.241,0,0.486,0.055,0.738,0.167l-0.193,0.485c-0.216-0.1-0.404-0.149-0.565-0.149c-0.079,0-0.138,0.015-0.178,0.043
			c-0.036,0.028-0.055,0.064-0.055,0.105c0,0.047,0.024,0.086,0.071,0.123c0.046,0.037,0.175,0.103,0.386,0.198
			c0.201,0.09,0.338,0.188,0.417,0.292C18.751,17.988,18.789,18.119,18.789,18.276z"/>
		<path fill="#454544" d="M20.177,18.984h-0.63v-1.815h-0.569v-0.516h1.767v0.516h-0.567V18.984z"/>
		<path fill="#454544" d="M22.463,18.984h-1.384v-2.331h1.384v0.505H21.71v0.367h0.694v0.505H21.71v0.44h0.753V18.984z"/>
		<path fill="#454544" d="M24.867,18.984h-0.634v-0.95h-0.73v0.95h-0.634v-2.331h0.634v0.863h0.73v-0.863h0.634V18.984z"/>
		<path fill="#454544" d="M26.756,18.984h-1.385v-2.331h1.385v0.505h-0.755v0.367h0.698v0.505h-0.698v0.44h0.755V18.984z"/>
		<path fill="#454544" d="M29.382,18.984h-0.826l-0.85-1.643h-0.015c0.021,0.259,0.027,0.455,0.027,0.592v1.051h-0.558v-2.331h0.824
			l0.849,1.619h0.007c-0.012-0.234-0.021-0.423-0.021-0.566v-1.053h0.562V18.984z"/>
		<path fill="#454544" d="M31.748,18.984l-0.475-1.68h-0.016c0.021,0.286,0.032,0.509,0.032,0.667v1.012h-0.558v-2.331h0.84
			l0.485,1.654h0.014l0.476-1.654h0.841v2.331h-0.579v-1.023c0-0.052,0.001-0.111,0.003-0.176c0.001-0.065,0.009-0.224,0.022-0.477
			h-0.015l-0.473,1.676H31.748z"/>
		<path fill="#454544" d="M33.89,18.984v-2.331h0.634v2.331H33.89z"/>
		<path fill="#454544" d="M36.054,18.984h-0.63v-1.815h-0.569v-0.516h1.767v0.516h-0.567V18.984z"/>
		<path fill="#454544" d="M38.817,18.984l-0.479-1.68h-0.012c0.021,0.286,0.032,0.509,0.032,0.667v1.012h-0.559v-2.331h0.841
			l0.485,1.654h0.014l0.476-1.654h0.841v2.331h-0.579v-1.023c0-0.052,0.001-0.111,0.003-0.176c0.001-0.065,0.009-0.224,0.02-0.477
			h-0.012l-0.474,1.676H38.817z"/>
		<path fill="#454544" d="M40.959,18.984v-2.331h0.63v2.331H40.959z"/>
		<path fill="#454544" d="M43.134,17.137c-0.152,0-0.269,0.061-0.354,0.184c-0.081,0.122-0.127,0.291-0.127,0.507
			c0,0.448,0.175,0.673,0.513,0.673c0.105,0,0.204-0.015,0.299-0.044c0.099-0.028,0.194-0.063,0.295-0.102v0.532
			c-0.195,0.086-0.417,0.128-0.662,0.128c-0.351,0-0.621-0.102-0.809-0.307c-0.188-0.203-0.279-0.499-0.279-0.883
			c0-0.243,0.044-0.455,0.137-0.637c0.089-0.182,0.22-0.324,0.39-0.422c0.173-0.097,0.371-0.146,0.604-0.146
			c0.251,0,0.492,0.054,0.72,0.164l-0.193,0.496c-0.084-0.041-0.171-0.075-0.259-0.103C43.325,17.15,43.23,17.137,43.134,17.137z"/>
		<path fill="#454544" d="M44.842,18.137v0.848h-0.629v-2.331h0.763c0.634,0,0.951,0.23,0.951,0.688c0,0.27-0.133,0.479-0.396,0.626
			l0.682,1.016h-0.716l-0.493-0.848H44.842z M44.842,17.663h0.121c0.218,0,0.327-0.097,0.327-0.292c0-0.161-0.107-0.24-0.325-0.24
			h-0.123V17.663z"/>
		<path fill="#454544" d="M48.602,17.815c0,0.392-0.094,0.69-0.286,0.894c-0.192,0.205-0.477,0.307-0.847,0.307
			c-0.365,0-0.644-0.102-0.839-0.309c-0.195-0.204-0.292-0.504-0.292-0.895c0-0.389,0.096-0.684,0.29-0.89
			c0.194-0.204,0.475-0.307,0.845-0.307s0.653,0.102,0.845,0.306C48.509,17.125,48.602,17.422,48.602,17.815z M47,17.815
			c0,0.45,0.155,0.675,0.469,0.675c0.161,0,0.279-0.054,0.357-0.163c0.074-0.11,0.114-0.281,0.114-0.513
			c0-0.233-0.04-0.404-0.116-0.517c-0.079-0.11-0.195-0.165-0.352-0.165C47.156,17.134,47,17.36,47,17.815z"/>
		<path fill="#454544" d="M48.839,18.358v-0.499h0.902v0.499H48.839z"/>
		<path fill="#454544" d="M12.346,22.194c0,0.144-0.036,0.272-0.109,0.384c-0.075,0.112-0.179,0.2-0.318,0.261
			c-0.139,0.062-0.299,0.094-0.484,0.094c-0.158,0-0.283-0.011-0.392-0.033c-0.104-0.021-0.213-0.06-0.329-0.113v-0.561
			c0.123,0.061,0.247,0.108,0.375,0.144c0.129,0.035,0.25,0.052,0.359,0.052c0.091,0,0.16-0.017,0.203-0.049
			c0.045-0.033,0.064-0.075,0.064-0.125c0-0.032-0.005-0.06-0.024-0.083c-0.019-0.024-0.044-0.049-0.085-0.073
			c-0.038-0.024-0.143-0.075-0.311-0.149c-0.149-0.069-0.267-0.137-0.34-0.202c-0.077-0.064-0.132-0.138-0.172-0.223
			c-0.035-0.083-0.054-0.183-0.054-0.297c0-0.215,0.079-0.383,0.233-0.502c0.158-0.12,0.374-0.18,0.645-0.18
			c0.241,0,0.486,0.055,0.738,0.166l-0.193,0.487c-0.216-0.1-0.404-0.149-0.564-0.149c-0.08,0-0.139,0.013-0.179,0.042
			c-0.036,0.029-0.056,0.064-0.056,0.107c0,0.045,0.025,0.086,0.072,0.123c0.046,0.036,0.175,0.103,0.386,0.198
			c0.201,0.09,0.339,0.187,0.417,0.29C12.308,21.906,12.346,22.037,12.346,22.194z"/>
		<path fill="#454544" d="M14.887,21.733c0,0.392-0.098,0.689-0.29,0.894c-0.192,0.203-0.473,0.306-0.843,0.306
			c-0.365,0-0.647-0.103-0.843-0.308c-0.195-0.204-0.291-0.504-0.291-0.895c0-0.389,0.095-0.684,0.289-0.89
			c0.194-0.204,0.479-0.307,0.849-0.307s0.649,0.102,0.841,0.304C14.79,21.042,14.887,21.339,14.887,21.733z M13.281,21.733
			c0,0.45,0.159,0.675,0.473,0.675c0.157,0,0.275-0.054,0.354-0.165c0.077-0.108,0.114-0.28,0.114-0.511
			c0-0.233-0.037-0.405-0.116-0.516c-0.079-0.11-0.195-0.167-0.348-0.167C13.441,21.05,13.281,21.278,13.281,21.733z"/>
		<path fill="#454544" d="M15.927,22.901h-0.62v-2.33h1.378v0.505h-0.758v0.444h0.699v0.505h-0.699V22.901z"/>
		<path fill="#454544" d="M18.094,22.901h-0.63v-1.815h-0.565v-0.514h1.763v0.514h-0.567V22.901z"/>
		<path fill="#454544" d="M22.36,22.901h-0.744l-0.221-1.015c-0.012-0.043-0.03-0.126-0.054-0.253
			c-0.021-0.126-0.038-0.233-0.05-0.317c-0.009,0.069-0.02,0.155-0.04,0.258c-0.02,0.101-0.039,0.195-0.056,0.283
			c-0.021,0.085-0.099,0.434-0.233,1.044h-0.745l-0.575-2.33h0.606l0.254,1.167c0.057,0.259,0.095,0.465,0.118,0.619
			c0.015-0.109,0.036-0.256,0.074-0.441c0.034-0.186,0.069-0.34,0.099-0.462L21,20.571h0.585l0.195,0.882
			c0.037,0.141,0.069,0.304,0.106,0.489c0.034,0.185,0.059,0.324,0.07,0.415c0.011-0.12,0.052-0.323,0.113-0.615l0.259-1.171h0.606
			L22.36,22.901z"/>
		<path fill="#454544" d="M25.415,21.733c0,0.392-0.094,0.689-0.286,0.894c-0.192,0.203-0.477,0.306-0.848,0.306
			c-0.364,0-0.643-0.103-0.838-0.308c-0.195-0.204-0.293-0.504-0.293-0.895c0-0.389,0.097-0.684,0.291-0.89
			c0.194-0.204,0.475-0.307,0.844-0.307c0.371,0,0.654,0.102,0.846,0.304C25.322,21.042,25.415,21.339,25.415,21.733z
			 M23.813,21.733c0,0.45,0.154,0.675,0.468,0.675c0.162,0,0.28-0.054,0.358-0.165c0.073-0.108,0.114-0.28,0.114-0.511
			c0-0.233-0.041-0.405-0.116-0.516c-0.079-0.11-0.195-0.167-0.353-0.167C23.969,21.05,23.813,21.278,23.813,21.733z"/>
		<path fill="#454544" d="M26.466,22.053v0.848h-0.628v-2.33H26.6c0.634,0,0.951,0.229,0.951,0.689c0,0.269-0.133,0.477-0.396,0.626
			l0.682,1.015H27.12l-0.493-0.848H26.466z M26.466,21.579h0.121c0.218,0,0.327-0.095,0.327-0.29c0-0.161-0.107-0.242-0.324-0.242
			h-0.124V21.579z"/>
		<path fill="#454544" d="M30.025,21.687c0,0.39-0.108,0.689-0.32,0.899c-0.216,0.211-0.517,0.315-0.905,0.315h-0.755v-2.33h0.807
			c0.374,0,0.666,0.096,0.866,0.288C29.923,21.048,30.025,21.326,30.025,21.687z M29.371,21.708c0-0.213-0.042-0.372-0.127-0.474
			c-0.086-0.103-0.215-0.156-0.386-0.156h-0.183v1.307h0.141c0.192,0,0.333-0.057,0.42-0.167
			C29.327,22.108,29.371,21.938,29.371,21.708z"/>
		<path fill="#454544" d="M30.328,22.638c0-0.099,0.026-0.174,0.085-0.227c0.057-0.053,0.143-0.081,0.252-0.081
			c0.108,0,0.186,0.028,0.242,0.081c0.056,0.053,0.086,0.128,0.086,0.227c0,0.096-0.03,0.169-0.088,0.222
			c-0.059,0.055-0.136,0.082-0.24,0.082c-0.104,0-0.188-0.026-0.248-0.081C30.356,22.808,30.328,22.734,30.328,22.638z"/>
		<path fill="#454544" d="M34.751,22.901h-0.745l-0.225-1.015c-0.008-0.043-0.025-0.126-0.05-0.253
			c-0.021-0.126-0.038-0.233-0.05-0.317c-0.009,0.069-0.022,0.155-0.039,0.258c-0.021,0.101-0.041,0.195-0.057,0.283
			c-0.021,0.085-0.099,0.434-0.234,1.044h-0.744l-0.578-2.33h0.61l0.253,1.167c0.058,0.259,0.095,0.465,0.118,0.619
			c0.015-0.109,0.037-0.256,0.074-0.441c0.034-0.186,0.066-0.34,0.099-0.462l0.206-0.882h0.581l0.199,0.882
			c0.037,0.141,0.07,0.304,0.105,0.489c0.035,0.185,0.06,0.324,0.068,0.415c0.015-0.12,0.055-0.323,0.117-0.615l0.254-1.171h0.61
			L34.751,22.901z"/>
		<path fill="#454544" d="M37.805,21.733c0,0.392-0.094,0.689-0.286,0.894c-0.192,0.203-0.477,0.306-0.847,0.306
			c-0.365,0-0.646-0.103-0.839-0.308c-0.195-0.204-0.295-0.504-0.295-0.895c0-0.389,0.099-0.684,0.293-0.89
			c0.194-0.204,0.475-0.307,0.845-0.307s0.653,0.102,0.845,0.304C37.712,21.042,37.805,21.339,37.805,21.733z M36.203,21.733
			c0,0.45,0.155,0.675,0.469,0.675c0.161,0,0.279-0.054,0.354-0.165c0.077-0.108,0.118-0.28,0.118-0.511
			c0-0.233-0.041-0.405-0.118-0.516c-0.077-0.11-0.193-0.167-0.35-0.167C36.359,21.05,36.203,21.278,36.203,21.733z"/>
		<path fill="#454544" d="M39.241,22.901l-0.475-1.678h-0.016c0.024,0.286,0.032,0.508,0.032,0.667v1.011h-0.559v-2.33h0.841
			l0.485,1.655h0.014l0.475-1.655h0.842v2.33h-0.579V21.88c0-0.052,0.001-0.113,0.003-0.177c0.001-0.064,0.009-0.224,0.021-0.477
			h-0.014l-0.474,1.674H39.241z"/>
		<path fill="#454544" d="M41.383,22.901v-2.33h0.634v2.33H41.383z"/>
		<path fill="#454544" d="M43.547,22.901h-0.63v-1.815h-0.57v-0.514h1.768v0.514h-0.567V22.901z"/>
		<path fill="#454544" d="M47.275,21.687c0,0.39-0.108,0.689-0.32,0.899c-0.216,0.211-0.517,0.315-0.905,0.315h-0.755v-2.33h0.807
			c0.375,0,0.666,0.096,0.866,0.288C47.173,21.048,47.275,21.326,47.275,21.687z M46.621,21.708c0-0.213-0.041-0.372-0.127-0.474
			c-0.086-0.103-0.215-0.156-0.386-0.156h-0.183v1.307h0.142c0.191,0,0.332-0.057,0.419-0.167
			C46.578,22.108,46.621,21.938,46.621,21.708z"/>
		<path fill="#454544" d="M49.077,22.901h-1.385v-2.33h1.385v0.505h-0.755v0.367h0.698v0.505h-0.698v0.44h0.755V22.901z"/>
		<path fill="#454544" d="M51.703,22.901h-0.826l-0.852-1.641h-0.013c0.017,0.257,0.027,0.455,0.027,0.591v1.049h-0.558v-2.33h0.824
			l0.845,1.619h0.011c-0.012-0.236-0.021-0.424-0.021-0.566v-1.053h0.562V22.901z"/>
		<path fill="#454544" d="M54.424,22.901h-0.826l-0.85-1.641h-0.015c0.021,0.257,0.031,0.455,0.031,0.591v1.049h-0.558v-2.33h0.82
			l0.849,1.619h0.011c-0.016-0.236-0.024-0.424-0.024-0.566v-1.053h0.562V22.901z"/>
		<path fill="#454544" d="M12.253,26.819l-0.114-0.437h-0.758l-0.117,0.437h-0.692l0.762-2.34h0.837l0.771,2.34H12.253z
			 M12.008,25.865l-0.104-0.381c-0.021-0.086-0.05-0.195-0.082-0.331c-0.036-0.136-0.056-0.23-0.066-0.291
			c-0.01,0.055-0.03,0.145-0.057,0.269c-0.03,0.124-0.092,0.369-0.188,0.734H12.008z"/>
		<path fill="#454544" d="M15.174,24.487v1.403c0,0.306-0.086,0.541-0.261,0.709c-0.171,0.166-0.421,0.251-0.745,0.251
			c-0.318,0-0.562-0.082-0.732-0.244c-0.169-0.163-0.257-0.397-0.257-0.702v-1.417h0.634v1.369c0,0.163,0.029,0.284,0.091,0.358
			c0.062,0.075,0.154,0.112,0.274,0.112c0.128,0,0.223-0.037,0.281-0.111c0.058-0.074,0.084-0.195,0.084-0.362v-1.366H15.174z"/>
		<path fill="#454544" d="M16.702,24.971c-0.152,0-0.269,0.061-0.354,0.184c-0.081,0.122-0.127,0.292-0.127,0.508
			c0,0.447,0.175,0.672,0.513,0.672c0.104,0,0.204-0.013,0.299-0.042c0.099-0.028,0.194-0.063,0.295-0.104v0.532
			c-0.195,0.086-0.418,0.129-0.662,0.129c-0.351,0-0.621-0.103-0.809-0.306c-0.188-0.205-0.279-0.499-0.279-0.885
			c0-0.241,0.044-0.455,0.135-0.637c0.09-0.182,0.222-0.322,0.391-0.42c0.172-0.099,0.372-0.149,0.604-0.149
			c0.252,0,0.493,0.056,0.721,0.165l-0.193,0.495c-0.085-0.039-0.171-0.073-0.259-0.101C16.894,24.984,16.799,24.971,16.702,24.971z
			"/>
		<path fill="#454544" d="M19.776,26.819h-0.63v-0.951h-0.733v0.951h-0.634v-2.332h0.634v0.865h0.733v-0.865h0.63V26.819z"/>
		<path fill="#454544" d="M22.653,26.11c0,0.146-0.036,0.274-0.109,0.385c-0.075,0.113-0.18,0.2-0.318,0.262
			c-0.138,0.062-0.299,0.093-0.484,0.093c-0.154,0-0.284-0.012-0.393-0.033c-0.104-0.021-0.212-0.06-0.324-0.115v-0.562
			c0.119,0.062,0.243,0.111,0.374,0.146c0.127,0.035,0.249,0.051,0.355,0.051c0.092,0,0.161-0.015,0.206-0.047
			c0.043-0.032,0.065-0.075,0.065-0.125c0-0.032-0.008-0.06-0.027-0.085c-0.019-0.023-0.045-0.047-0.085-0.071
			c-0.038-0.025-0.14-0.075-0.311-0.15c-0.15-0.069-0.265-0.137-0.34-0.201c-0.077-0.065-0.132-0.141-0.172-0.224
			c-0.035-0.083-0.054-0.183-0.054-0.297c0-0.216,0.079-0.382,0.236-0.502c0.155-0.12,0.371-0.182,0.642-0.182
			c0.24,0,0.486,0.057,0.738,0.168l-0.19,0.487c-0.219-0.1-0.408-0.151-0.564-0.151c-0.083,0-0.143,0.015-0.182,0.043
			c-0.036,0.028-0.056,0.064-0.056,0.107c0,0.045,0.025,0.086,0.072,0.123c0.046,0.034,0.175,0.101,0.386,0.196
			c0.201,0.09,0.341,0.187,0.417,0.292C22.615,25.823,22.653,25.953,22.653,26.11z"/>
		<path fill="#454544" d="M25.195,25.649c0,0.394-0.098,0.69-0.29,0.896c-0.192,0.203-0.473,0.306-0.843,0.306
			c-0.365,0-0.647-0.103-0.843-0.308c-0.194-0.206-0.291-0.504-0.291-0.896c0-0.387,0.097-0.685,0.289-0.888
			c0.194-0.205,0.479-0.306,0.849-0.306s0.649,0.1,0.841,0.304C25.099,24.958,25.195,25.257,25.195,25.649z M23.59,25.649
			c0,0.452,0.159,0.677,0.473,0.677c0.157,0,0.275-0.056,0.354-0.164c0.077-0.11,0.114-0.28,0.114-0.513
			c0-0.231-0.037-0.404-0.116-0.515c-0.076-0.112-0.195-0.167-0.348-0.167C23.75,24.967,23.59,25.196,23.59,25.649z"/>
		<path fill="#454544" d="M27.836,26.819H27.01l-0.853-1.643h-0.012c0.018,0.259,0.028,0.457,0.028,0.591v1.052h-0.559v-2.332h0.824
			l0.846,1.621h0.011c-0.016-0.236-0.021-0.425-0.021-0.566v-1.055h0.561V26.819z"/>
		<path fill="#454544" d="M29.862,26.11c0,0.146-0.036,0.274-0.109,0.385c-0.074,0.113-0.179,0.2-0.318,0.262
			c-0.138,0.062-0.299,0.093-0.484,0.093c-0.157,0-0.287-0.012-0.392-0.033c-0.104-0.021-0.217-0.06-0.329-0.115v-0.562
			c0.119,0.062,0.244,0.111,0.375,0.146c0.129,0.035,0.248,0.051,0.358,0.051c0.092,0,0.161-0.015,0.203-0.047
			c0.047-0.032,0.065-0.075,0.065-0.125c0-0.032-0.009-0.06-0.023-0.085c-0.019-0.023-0.049-0.047-0.086-0.071
			c-0.037-0.025-0.143-0.075-0.31-0.15c-0.154-0.069-0.268-0.137-0.344-0.201c-0.073-0.065-0.131-0.141-0.168-0.224
			c-0.035-0.083-0.055-0.183-0.055-0.297c0-0.216,0.079-0.382,0.233-0.502c0.158-0.12,0.37-0.182,0.645-0.182
			c0.241,0,0.487,0.057,0.738,0.168l-0.193,0.487c-0.216-0.1-0.404-0.151-0.564-0.151c-0.08,0-0.142,0.015-0.179,0.043
			c-0.035,0.028-0.055,0.064-0.055,0.107c0,0.045,0.025,0.086,0.071,0.123c0.047,0.034,0.176,0.101,0.386,0.196
			c0.197,0.09,0.338,0.187,0.417,0.292C29.825,25.823,29.862,25.953,29.862,26.11z"/>
		<path fill="#454544" d="M31.251,26.819h-0.629v-1.815h-0.57v-0.516h1.768v0.516h-0.568V26.819z"/>
		<path fill="#454544" d="M32.64,25.996h-0.527l-0.082-1.508h0.688L32.64,25.996z M32.036,26.553c0-0.097,0.03-0.171,0.088-0.225
			c0.057-0.054,0.142-0.081,0.25-0.081c0.107,0,0.19,0.026,0.246,0.081c0.055,0.054,0.085,0.128,0.085,0.225
			c0,0.096-0.031,0.171-0.088,0.224c-0.059,0.053-0.141,0.082-0.243,0.082c-0.104,0-0.188-0.029-0.247-0.082
			C32.067,26.725,32.036,26.649,32.036,26.553z"/>
	</g>
</g>
<g>
	<polygon fill="#FFFFFF" points="22.669,0.466 5.712,17.423 22.669,17.423 	"/>
	<path fill="#A7A6A6" d="M22.669,17.773H5.712l-0.249-0.597L22.422,0.219l0.6,0.247v16.957L22.669,17.773z M6.555,17.075h15.767
		V1.311L6.555,17.075z"/>
</g>
</svg>
