<?xml version="1.0" encoding="utf-8"?>
<!-- Generator: Adobe Illustrator 16.0.4, SVG Export Plug-In . SVG Version: 6.00 Build 0)  -->
<!DOCTYPE svg PUBLIC "-//W3C//DTD SVG 1.1//EN" "http://www.w3.org/Graphics/SVG/1.1/DTD/svg11.dtd">
<svg version="1.1" id="Ebene_1" xmlns="http://www.w3.org/2000/svg" xmlns:xlink="http://www.w3.org/1999/xlink" x="0px" y="0px"
	 width="64px" height="64px" viewBox="0 0 64 64" enable-background="new 0 0 64 64" xml:space="preserve">
<g>
	<g>
		<g>
			<g>
				<linearGradient id="SVGID_1_" gradientUnits="userSpaceOnUse" x1="5.6191" y1="31.999" x2="58.3809" y2="31.999">
					<stop  offset="0" style="stop-color:#FFFFFF"/>
					<stop  offset="1" style="stop-color:#F4F4F6"/>
				</linearGradient>
				<polygon fill="url(#SVGID_1_)" points="58.381,0.531 22.545,0.531 5.619,17.455 5.619,63.467 58.381,63.467 				"/>
				<path fill="#A7A6A6" d="M58.381,64H5.619l-0.533-0.533V17.455l0.157-0.375L22.169,0.156L22.545,0h35.836l0.533,0.531v62.936
					L58.381,64z M6.149,62.938h51.701V1.063H22.764L6.149,17.675V62.938z"/>
			</g>
		</g>
	</g>
	<g>
		<path fill="#C61925" d="M22.037,47.438h6.063v7.924c-0.984,0.319-1.909,0.546-2.777,0.675c-0.868,0.128-1.754,0.192-2.66,0.192
			c-2.307,0-4.066-0.677-5.284-2.033c-1.215-1.356-1.824-3.303-1.824-5.838c0-2.468,0.705-4.392,2.118-5.771
			c1.409-1.38,3.367-2.07,5.869-2.07c1.568,0,3.079,0.314,4.536,0.941l-1.077,2.594c-1.115-0.558-2.274-0.838-3.482-0.838
			c-1.397,0-2.521,0.472-3.365,1.412c-0.842,0.941-1.264,2.205-1.264,3.796c0,1.657,0.34,2.926,1.021,3.8
			c0.676,0.875,1.665,1.312,2.961,1.312c0.678,0,1.362-0.072,2.06-0.21v-3.189h-2.895V47.438z"/>
		<path fill="#C61925" d="M31.737,56.02V40.738h3.24V56.02H31.737z"/>
		<path fill="#C61925" d="M42.012,56.02h-3.188V40.738h8.76v2.654h-5.571v3.939h5.184v2.647h-5.184V56.02z"/>
	</g>
	<g>
		<g>
			<polygon fill="#CECDCD" points="50.304,32.349 13.696,32.349 13.696,10.777 15.294,8.711 50.304,8.711 			"/>
			<path fill="#6B6B6B" d="M50.304,32.879H13.696l-0.53-0.53V10.777l0.107-0.326l1.6-2.065l0.421-0.206h35.01l0.53,0.531v23.637
				L50.304,32.879z M14.229,31.816h35.543V9.243H15.555l-1.326,1.716V31.816z"/>
		</g>
		<g>
			<path fill="#A7A6A6" d="M50.111,32.349H13.887V20.971c0,0,8.803,0,16.171,2.695c7.369,2.696,20.054,0,20.054,0V32.349z"/>
			<path fill="#6B6B6B" d="M50.111,32.614H13.887l-0.265-0.266V20.971l0.265-0.265c0.091,0,8.935,0.031,16.261,2.71
				c2.146,0.784,4.965,1.182,8.382,1.182c5.846,0,11.472-1.181,11.527-1.192l0.319,0.26v8.683L50.111,32.614z M14.151,32.082h35.695
				v-8.091c-1.285,0.25-6.216,1.139-11.317,1.139c-3.479,0-6.36-0.409-8.565-1.214c-6.525-2.387-14.286-2.647-15.812-2.675V32.082z"
				/>
		</g>
		<g>
			<path fill="#FFFFFF" d="M41.069,14.103c0-1.175,0.492-2.238,1.29-3.011c-0.002,0-0.006,0-0.008,0
				c-2.442,0-4.424,1.912-4.424,4.271c0,2.357,1.981,4.269,4.424,4.269c1.226,0,2.335-0.481,3.135-1.259
				C43.047,18.369,41.069,16.46,41.069,14.103z"/>
			<path fill="#6B6B6B" d="M42.352,19.897c-2.588,0-4.689-2.034-4.689-4.535s2.102-4.538,4.689-4.538l0.193,0.458
				c-0.782,0.755-1.211,1.757-1.211,2.82c0,2.205,1.863,4,4.152,4.003l0.187,0.457C44.787,19.424,43.607,19.897,42.352,19.897z
				 M41.727,11.404c-2.001,0.292-3.534,1.957-3.534,3.958c0,2.207,1.866,4.003,4.159,4.003c0.898,0,1.752-0.272,2.459-0.775
				c-2.262-0.32-4.006-2.212-4.006-4.488C40.805,13.119,41.128,12.181,41.727,11.404z"/>
		</g>
	</g>
	<g>
		<polygon fill="#FFFFFF" points="22.545,0.531 5.619,17.455 22.545,17.455 		"/>
		<path fill="#A7A6A6" d="M22.545,17.853H5.619l-0.282-0.679L22.261,0.25l0.682,0.282v16.924L22.545,17.853z M6.581,17.056h15.563
			V1.494L6.581,17.056z"/>
	</g>
</g>
</svg>
