<?xml version="1.0" encoding="utf-8"?>
<!-- Generator: Adobe Illustrator 16.0.4, SVG Export Plug-In . SVG Version: 6.00 Build 0)  -->
<!DOCTYPE svg PUBLIC "-//W3C//DTD SVG 1.1//EN" "http://www.w3.org/Graphics/SVG/1.1/DTD/svg11.dtd">
<svg version="1.1" id="Ebene_1" xmlns="http://www.w3.org/2000/svg" xmlns:xlink="http://www.w3.org/1999/xlink" x="0px" y="0px"
	 width="64px" height="64px" viewBox="0 0 64 64" enable-background="new 0 0 64 64" xml:space="preserve">
<g>
	<g>
		<rect x="0.225" y="0.225" fill-rule="evenodd" clip-rule="evenodd" fill="#454544" width="63.552" height="63.551"/>
		<path fill="#454544" d="M64,64H0V0h64V64z M0.448,63.553h63.104V0.449H0.448V63.553z"/>
	</g>
	<g>
		<g>
			<g>
				<linearGradient id="SVGID_1_" gradientUnits="userSpaceOnUse" x1="32" y1="15.4785" x2="32" y2="46.5234">
					<stop  offset="0" style="stop-color:#FFFFFF"/>
					<stop  offset="1" style="stop-color:#DCDDDE"/>
				</linearGradient>
				<rect x="12.935" y="15.479" fill="url(#SVGID_1_)" width="38.132" height="31.045"/>
				<path fill="#A7A6A6" d="M51.289,46.748H12.711V15.254h38.578V46.748z M13.158,46.299h37.684V15.703H13.158V46.299z"/>
			</g>
		</g>
		<g>
			<g>
				<linearGradient id="SVGID_2_" gradientUnits="userSpaceOnUse" x1="32.0205" y1="39.4707" x2="32.0205" y2="18.1895">
					<stop  offset="0" style="stop-color:#CDCDCC"/>
					<stop  offset="1" style="stop-color:#A5A4A3"/>
				</linearGradient>
				<polygon fill="url(#SVGID_2_)" points="48.502,39.471 15.539,39.471 15.539,18.373 16.141,18.189 48.502,18.189 				"/>
				<path fill="#A7A6A6" d="M48.502,39.693H15.539l-0.224-0.223V18.373l0.158-0.215l0.667-0.193h32.361l0.225,0.225v21.281
					L48.502,39.693z M15.764,39.246h32.514V18.414H16.174l-0.41,0.125V39.246z"/>
			</g>
			<g>
				<path fill="#595857" d="M48.502,39.471H15.539V29.227c0,0,8.012,0,14.714,2.426c6.704,2.428,18.249,0,18.249,0V39.471z"/>
				<path fill="#A7A6A6" d="M48.727,39.693H15.315V29.002h0.224c0.081,0,8.128,0.029,14.791,2.439
					c1.952,0.707,4.521,1.066,7.635,1.066c5.321,0,10.439-1.062,10.49-1.074l0.271-0.057V39.693z M15.764,39.246h32.514v-7.32
					c-1.132,0.219-5.645,1.031-10.312,1.031c-3.166,0-5.786-0.369-7.788-1.094c-5.969-2.16-13.071-2.387-14.413-2.41V39.246z"/>
			</g>
			<g>
				<path fill="#FFFFFF" d="M40.185,23.045c0-1.061,0.445-2.018,1.162-2.713c-0.002,0-0.006,0-0.006,0
					c-2.202,0-3.983,1.721-3.983,3.846c0,2.123,1.781,3.844,3.983,3.844c1.104,0,2.102-0.434,2.822-1.135
					C41.969,26.883,40.185,25.164,40.185,23.045z"/>
				<path fill="#A7A6A6" d="M41.341,28.244c-2.32,0-4.208-1.824-4.208-4.066c0-2.244,1.888-4.07,4.208-4.07l0.161,0.385
					c-0.705,0.686-1.093,1.592-1.093,2.553c0,1.992,1.685,3.615,3.754,3.617l0.156,0.387C43.524,27.82,42.468,28.244,41.341,28.244z
					 M40.821,20.578c-1.806,0.232-3.239,1.758-3.239,3.6c0,1.994,1.686,3.619,3.759,3.619c0.824,0,1.606-0.254,2.253-0.723
					c-2.049-0.273-3.633-1.979-3.633-4.029C39.961,22.143,40.263,21.285,40.821,20.578z"/>
			</g>
		</g>
	</g>
</g>
</svg>
