<?xml version="1.0" encoding="utf-8"?>
<!-- Generator: Adobe Illustrator 16.0.4, SVG Export Plug-In . SVG Version: 6.00 Build 0)  -->
<!DOCTYPE svg PUBLIC "-//W3C//DTD SVG 1.1//EN" "http://www.w3.org/Graphics/SVG/1.1/DTD/svg11.dtd">
<svg version="1.1" id="Ebene_1" xmlns="http://www.w3.org/2000/svg" xmlns:xlink="http://www.w3.org/1999/xlink" x="0px" y="0px"
	 width="64px" height="64px" viewBox="0 0 64 64" enable-background="new 0 0 64 64" xml:space="preserve">
<g>
	<g>
		<g>
			<g>
				<linearGradient id="SVGID_1_" gradientUnits="userSpaceOnUse" x1="5.6201" y1="31.999" x2="58.3799" y2="31.999">
					<stop  offset="0" style="stop-color:#FFFFFF"/>
					<stop  offset="1" style="stop-color:#F4F4F6"/>
				</linearGradient>
				<polygon fill="url(#SVGID_1_)" points="58.38,0.531 22.543,0.531 5.62,17.455 5.62,63.467 58.38,63.467 				"/>
				<path fill="#A7A6A6" d="M58.38,64H5.62l-0.531-0.533V17.455l0.156-0.375L22.168,0.156L22.543,0H58.38l0.531,0.531v62.936
					L58.38,64z M6.151,62.938h51.697V1.063H22.764L6.151,17.675V62.938z"/>
			</g>
		</g>
	</g>
	<g>
		<path fill="#C61925" d="M13.789,60.514c-0.731,0-1.37-0.076-1.913-0.228v-2.699c0.558,0.142,1.066,0.211,1.526,0.211
			c0.711,0,1.22-0.223,1.527-0.664c0.307-0.443,0.459-1.135,0.459-2.075v-14.32h3.241v14.3c0,1.783-0.408,3.143-1.223,4.077
			C16.59,60.048,15.384,60.514,13.789,60.514z"/>
		<path fill="#C61925" d="M33.033,45.504c0,1.645-0.513,2.904-1.541,3.773c-1.029,0.871-2.49,1.306-4.386,1.306h-1.389v5.437h-3.241
			V40.738h4.881c1.854,0,3.263,0.397,4.229,1.196C32.551,42.733,33.033,43.923,33.033,45.504z M25.716,47.93h1.066
			c0.997,0,1.742-0.196,2.237-0.593c0.493-0.393,0.741-0.965,0.741-1.717c0-0.76-0.207-1.32-0.622-1.684
			c-0.415-0.362-1.065-0.544-1.949-0.544h-1.474V47.93z"/>
		<path fill="#C61925" d="M41.719,47.438h6.062v7.924c-0.981,0.319-1.908,0.546-2.775,0.675c-0.868,0.128-1.755,0.192-2.66,0.192
			c-2.308,0-4.068-0.677-5.284-2.033c-1.216-1.356-1.823-3.303-1.823-5.838c0-2.468,0.704-4.392,2.115-5.771
			c1.41-1.38,3.368-2.07,5.869-2.07c1.568,0,3.081,0.314,4.537,0.941l-1.076,2.594c-1.115-0.558-2.276-0.838-3.482-0.838
			c-1.399,0-2.521,0.472-3.364,1.412c-0.844,0.941-1.266,2.205-1.266,3.796c0,1.657,0.34,2.926,1.02,3.8
			c0.68,0.875,1.667,1.312,2.964,1.312c0.675,0,1.361-0.072,2.06-0.21v-3.189h-2.896V47.438z"/>
	</g>
	<g>
		<g>
			<polygon fill="#CECDCD" points="50.305,32.349 13.695,32.349 13.695,10.777 15.293,8.711 50.305,8.711 			"/>
			<path fill="#6B6B6B" d="M50.305,32.879h-36.61l-0.531-0.53V10.777l0.112-0.326l1.598-2.065l0.419-0.205h35.012l0.531,0.531
				v23.637L50.305,32.879z M14.227,31.816h35.547V9.243H15.555l-1.328,1.716V31.816z"/>
		</g>
		<g>
			<path fill="#A7A6A6" d="M50.111,32.349H13.887V20.971c0,0,8.804,0,16.171,2.695c7.368,2.696,20.053,0,20.053,0V32.349z"/>
			<path fill="#6B6B6B" d="M50.111,32.614H13.887l-0.265-0.266V20.971l0.265-0.265c0.089,0,8.935,0.031,16.263,2.71
				c2.143,0.784,4.964,1.182,8.381,1.182c5.847,0,11.469-1.181,11.525-1.192l0.321,0.26v8.683L50.111,32.614z M14.153,32.082h35.691
				v-8.091c-1.283,0.25-6.214,1.139-11.314,1.139c-3.479,0-6.363-0.409-8.564-1.214c-6.528-2.387-14.291-2.647-15.813-2.675V32.082z
				"/>
		</g>
		<g>
			<path fill="#FFFFFF" d="M41.068,14.103c0-1.175,0.493-2.238,1.288-3.011c-0.001,0-0.004,0-0.006,0
				c-2.443,0-4.423,1.912-4.423,4.271c0,2.357,1.98,4.269,4.423,4.269c1.226,0,2.335-0.481,3.138-1.259
				C43.048,18.369,41.068,16.46,41.068,14.103z"/>
			<path fill="#6B6B6B" d="M42.351,19.897c-2.586,0-4.69-2.034-4.69-4.535s2.104-4.538,4.69-4.538l0.19,0.458
				c-0.778,0.755-1.206,1.756-1.206,2.82c0,2.205,1.862,4,4.153,4.003l0.185,0.457C44.786,19.424,43.605,19.897,42.351,19.897z
				 M41.724,11.404c-2,0.292-3.531,1.957-3.531,3.958c0,2.207,1.866,4.003,4.158,4.003c0.898,0,1.751-0.272,2.46-0.775
				c-2.265-0.32-4.007-2.212-4.007-4.488C40.804,13.118,41.126,12.181,41.724,11.404z"/>
		</g>
	</g>
	<g>
		<polygon fill="#FFFFFF" points="22.543,0.531 5.62,17.455 22.543,17.455 		"/>
		<path fill="#A7A6A6" d="M22.543,17.853H5.62l-0.282-0.679L22.262,0.25l0.68,0.282v16.924L22.543,17.853z M6.583,17.056h15.563
			V1.494L6.583,17.056z"/>
	</g>
</g>
</svg>
