<?xml version="1.0" encoding="utf-8"?>
<!-- Generator: Adobe Illustrator 16.0.4, SVG Export Plug-In . SVG Version: 6.00 Build 0)  -->
<!DOCTYPE svg PUBLIC "-//W3C//DTD SVG 1.1//EN" "http://www.w3.org/Graphics/SVG/1.1/DTD/svg11.dtd">
<svg version="1.1" id="Ebene_1" xmlns="http://www.w3.org/2000/svg" xmlns:xlink="http://www.w3.org/1999/xlink" x="0px" y="0px"
	 width="64px" height="64px" viewBox="0 0 64 64" enable-background="new 0 0 64 64" xml:space="preserve">
<g>
	<g>
		<g>
			<linearGradient id="SVGID_1_" gradientUnits="userSpaceOnUse" x1="5.3257" y1="32" x2="58.1519" y2="32">
				<stop  offset="0" style="stop-color:#FFFFFF"/>
				<stop  offset="1" style="stop-color:#F4F4F6"/>
			</linearGradient>
			<polygon fill="url(#SVGID_1_)" points="58.152,0.492 22.271,0.492 5.326,17.436 5.326,63.508 58.152,63.508 			"/>
			<path fill="#A7A6A6" d="M58.152,64H5.326l-0.492-0.492V17.436l0.144-0.348L21.923,0.144L22.271,0h35.881l0.492,0.492v63.016
				L58.152,64z M5.818,63.016H57.66V0.984H22.475L5.818,17.64V63.016z"/>
		</g>
	</g>
</g>
<g>
	<path fill="#C61925" d="M23.169,45.52c0,1.647-0.514,2.906-1.543,3.778c-1.029,0.873-2.493,1.309-4.391,1.309h-1.392v5.442h-3.245
		V40.748h4.887c1.857,0,3.268,0.399,4.234,1.199C22.687,42.745,23.169,43.937,23.169,45.52z M15.844,47.949h1.067
		c0.998,0,1.745-0.197,2.24-0.592c0.495-0.394,0.743-0.968,0.743-1.721c0-0.761-0.208-1.322-0.623-1.685
		c-0.416-0.363-1.066-0.544-1.952-0.544h-1.475V47.949z"/>
	<path fill="#C61925" d="M38.754,48.252c0,2.518-0.717,4.448-2.152,5.787c-1.433,1.34-3.503,2.009-6.211,2.009h-4.333V40.748h4.803
		c2.499,0,4.438,0.66,5.819,1.978C38.062,44.045,38.754,45.887,38.754,48.252z M35.383,48.335c0-3.286-1.45-4.929-4.354-4.929
		h-1.727v9.964h1.392C33.82,53.37,35.383,51.692,35.383,48.335z"/>
	<path fill="#C61925" d="M45.117,56.049h-3.192V40.748h8.77v2.658h-5.578v3.946h5.191V50h-5.191V56.049z"/>
</g>
<g>
	<g>
		<path fill="#454544" d="M12.41,13.867c0,0.389-0.106,0.688-0.32,0.898c-0.214,0.21-0.515,0.315-0.903,0.315h-0.753v-2.328h0.806
			c0.374,0,0.662,0.095,0.865,0.287C12.309,13.23,12.41,13.507,12.41,13.867z M11.757,13.89c0-0.214-0.042-0.373-0.126-0.475
			c-0.084-0.103-0.213-0.154-0.384-0.154h-0.183v1.304h0.14c0.191,0,0.331-0.055,0.42-0.167
			C11.713,14.287,11.757,14.118,11.757,13.89z"/>
		<path fill="#454544" d="M12.826,15.081v-2.328h0.633v2.328H12.826z"/>
		<path fill="#454544" d="M15.346,15.081h-1.383v-2.328h1.383v0.505h-0.753v0.367h0.697v0.504h-0.697v0.439h0.753V15.081z"/>
		<path fill="#454544" d="M17.637,13.235c-0.15,0-0.267,0.062-0.351,0.184c-0.083,0.123-0.126,0.292-0.126,0.507
			c0,0.448,0.171,0.673,0.511,0.673c0.103,0,0.203-0.015,0.3-0.043c0.096-0.029,0.193-0.063,0.292-0.103v0.531
			c-0.195,0.086-0.415,0.129-0.66,0.129c-0.351,0-0.621-0.102-0.808-0.306c-0.188-0.204-0.281-0.499-0.281-0.884
			c0-0.241,0.046-0.453,0.137-0.635c0.09-0.183,0.221-0.323,0.391-0.421c0.17-0.099,0.371-0.147,0.602-0.147
			c0.251,0,0.492,0.054,0.722,0.164l-0.193,0.495c-0.086-0.04-0.172-0.074-0.259-0.102C17.828,13.249,17.736,13.235,17.637,13.235z"
			/>
		<path fill="#454544" d="M20.895,13.913c0,0.392-0.095,0.69-0.287,0.894c-0.192,0.204-0.474,0.306-0.845,0.306
			c-0.365,0-0.645-0.103-0.84-0.308s-0.292-0.504-0.292-0.895c0-0.388,0.097-0.684,0.291-0.889c0.194-0.204,0.476-0.307,0.845-0.307
			c0.371,0,0.652,0.102,0.843,0.305C20.801,13.223,20.895,13.521,20.895,13.913z M19.294,13.913c0,0.45,0.156,0.675,0.469,0.675
			c0.159,0,0.277-0.055,0.355-0.164c0.076-0.109,0.114-0.28,0.114-0.512c0-0.232-0.038-0.404-0.116-0.515
			c-0.079-0.111-0.195-0.167-0.35-0.167C19.451,13.231,19.294,13.458,19.294,13.913z"/>
		<path fill="#454544" d="M23.494,13.913c0,0.392-0.095,0.69-0.287,0.894c-0.192,0.204-0.474,0.306-0.845,0.306
			c-0.365,0-0.645-0.103-0.84-0.308s-0.292-0.504-0.292-0.895c0-0.388,0.097-0.684,0.291-0.889c0.194-0.204,0.476-0.307,0.846-0.307
			c0.37,0,0.651,0.102,0.843,0.305C23.4,13.223,23.494,13.521,23.494,13.913z M21.893,13.913c0,0.45,0.156,0.675,0.469,0.675
			c0.159,0,0.277-0.055,0.355-0.164c0.076-0.109,0.115-0.28,0.115-0.512c0-0.232-0.039-0.404-0.117-0.515
			c-0.078-0.111-0.195-0.167-0.349-0.167C22.05,13.231,21.893,13.458,21.893,13.913z"/>
		<path fill="#454544" d="M23.915,15.081v-2.328h0.63v1.82h0.897v0.508H23.915z"/>
		<path fill="#454544" d="M27.337,14.374c0,0.144-0.038,0.272-0.11,0.385c-0.074,0.112-0.179,0.199-0.317,0.261
			c-0.138,0.062-0.299,0.094-0.485,0.094c-0.155,0-0.285-0.011-0.39-0.033c-0.105-0.021-0.215-0.06-0.328-0.113v-0.561
			c0.119,0.062,0.244,0.11,0.375,0.145c0.129,0.035,0.249,0.051,0.356,0.051c0.093,0,0.163-0.016,0.205-0.048
			c0.044-0.032,0.066-0.074,0.066-0.125c0-0.032-0.009-0.06-0.027-0.084c-0.018-0.023-0.045-0.047-0.083-0.072
			c-0.039-0.025-0.142-0.074-0.311-0.15c-0.152-0.069-0.266-0.136-0.341-0.201c-0.076-0.064-0.132-0.139-0.169-0.223
			c-0.036-0.084-0.054-0.183-0.054-0.298c0-0.215,0.078-0.382,0.234-0.502c0.156-0.12,0.37-0.18,0.644-0.18
			c0.241,0,0.486,0.055,0.738,0.167l-0.193,0.485c-0.218-0.1-0.406-0.149-0.564-0.149c-0.082,0-0.141,0.013-0.178,0.042
			c-0.038,0.029-0.056,0.064-0.056,0.106c0,0.046,0.024,0.087,0.071,0.123c0.047,0.036,0.176,0.103,0.385,0.198
			c0.2,0.09,0.339,0.187,0.418,0.291C27.298,14.086,27.337,14.217,27.337,14.374z"/>
		<path fill="#454544" d="M28.723,15.081h-0.629v-1.814h-0.569v-0.514h1.764v0.514h-0.566V15.081z"/>
		<path fill="#454544" d="M31.006,15.081h-1.383v-2.328h1.383v0.505h-0.753v0.367h0.697v0.504h-0.697v0.439h0.753V15.081z"/>
		<path fill="#454544" d="M34.237,13.867c0,0.389-0.107,0.688-0.321,0.898c-0.213,0.21-0.515,0.315-0.902,0.315H32.26v-2.328h0.807
			c0.374,0,0.662,0.095,0.866,0.287C34.136,13.23,34.237,13.507,34.237,13.867z M33.584,13.89c0-0.214-0.043-0.373-0.126-0.475
			c-0.084-0.103-0.213-0.154-0.385-0.154H32.89v1.304h0.141c0.191,0,0.332-0.055,0.42-0.167
			C33.54,14.287,33.584,14.118,33.584,13.89z"/>
		<path fill="#454544" d="M36.083,15.081l-0.114-0.437h-0.756l-0.117,0.437h-0.692l0.76-2.338h0.839l0.769,2.338H36.083z
			 M35.838,14.128l-0.101-0.382c-0.023-0.085-0.051-0.195-0.084-0.33c-0.034-0.135-0.056-0.231-0.066-0.29
			c-0.009,0.054-0.028,0.143-0.057,0.268c-0.028,0.124-0.09,0.369-0.188,0.734H35.838z"/>
		<path fill="#454544" d="M38.049,15.081H37.42v-1.814h-0.569v-0.514h1.765v0.514h-0.567V15.081z"/>
		<path fill="#454544" d="M40.333,15.081h-1.383v-2.328h1.383v0.505h-0.753v0.367h0.697v0.504h-0.697v0.439h0.753V15.081z"/>
		<path fill="#454544" d="M40.74,15.081v-2.328h0.632v2.328H40.74z"/>
		<path fill="#454544" d="M44.699,13.867c0,0.389-0.105,0.688-0.32,0.898c-0.214,0.21-0.515,0.315-0.903,0.315h-0.752v-2.328h0.806
			c0.374,0,0.662,0.095,0.865,0.287C44.599,13.23,44.699,13.507,44.699,13.867z M44.046,13.89c0-0.214-0.042-0.373-0.126-0.475
			c-0.084-0.103-0.213-0.154-0.384-0.154h-0.184v1.304h0.141c0.191,0,0.331-0.055,0.42-0.167
			C44.002,14.287,44.046,14.118,44.046,13.89z"/>
		<path fill="#454544" d="M46.5,15.081h-1.384v-2.328H46.5v0.505h-0.753v0.367h0.697v0.504h-0.697v0.439H46.5V15.081z"/>
		<path fill="#454544" d="M47.537,14.234v0.847h-0.63v-2.328h0.763c0.633,0,0.95,0.229,0.95,0.688c0,0.27-0.132,0.478-0.395,0.625
			l0.678,1.015h-0.713l-0.494-0.847H47.537z M47.537,13.76h0.117c0.22,0,0.33-0.097,0.33-0.291c0-0.161-0.108-0.24-0.323-0.24
			h-0.124V13.76z"/>
		<path fill="#454544" d="M12.948,18.995h-0.744l-0.222-1.015c-0.011-0.042-0.028-0.126-0.051-0.253
			c-0.023-0.126-0.039-0.232-0.05-0.317c-0.008,0.069-0.021,0.155-0.041,0.257c-0.019,0.103-0.038,0.197-0.056,0.283
			c-0.02,0.085-0.097,0.434-0.232,1.044h-0.744l-0.577-2.329h0.607l0.253,1.167c0.057,0.259,0.096,0.464,0.118,0.617
			c0.014-0.109,0.038-0.255,0.074-0.441c0.035-0.186,0.069-0.34,0.1-0.462l0.205-0.881h0.583l0.198,0.881
			c0.035,0.141,0.069,0.304,0.104,0.489c0.035,0.185,0.059,0.323,0.07,0.415c0.014-0.118,0.052-0.323,0.114-0.613l0.257-1.171h0.606
			L12.948,18.995z"/>
		<path fill="#454544" d="M15.206,18.995h-1.384v-2.329h1.384v0.505h-0.753v0.367h0.697v0.504h-0.697v0.44h0.753V18.995z"/>
		<path fill="#454544" d="M15.612,18.995v-2.329h0.63v1.821h0.896v0.508H15.612z"/>
		<path fill="#454544" d="M18.538,18.995H17.91v-1.814H17.34v-0.515h1.765v0.515h-0.567V18.995z"/>
		<path fill="#454544" d="M20.285,18.995v-2.329h0.632v2.329H20.285z"/>
		<path fill="#454544" d="M22.944,18.288c0,0.144-0.037,0.272-0.11,0.384c-0.074,0.112-0.179,0.199-0.317,0.261
			c-0.137,0.062-0.299,0.093-0.485,0.093c-0.156,0-0.285-0.011-0.391-0.033c-0.105-0.021-0.215-0.06-0.328-0.114v-0.56
			c0.119,0.061,0.244,0.109,0.374,0.144s0.249,0.052,0.356,0.052c0.093,0,0.163-0.016,0.206-0.049
			c0.043-0.032,0.065-0.074,0.065-0.125c0-0.032-0.009-0.059-0.027-0.083c-0.018-0.023-0.045-0.048-0.083-0.072
			c-0.039-0.025-0.142-0.074-0.31-0.15c-0.152-0.069-0.266-0.136-0.341-0.201c-0.077-0.064-0.132-0.139-0.17-0.223
			c-0.036-0.083-0.054-0.183-0.054-0.297c0-0.214,0.079-0.382,0.234-0.502c0.157-0.12,0.371-0.18,0.644-0.18
			c0.241,0,0.487,0.056,0.738,0.167l-0.193,0.485c-0.217-0.099-0.406-0.148-0.564-0.148c-0.083,0-0.141,0.014-0.179,0.042
			c-0.037,0.028-0.056,0.063-0.056,0.106c0,0.046,0.024,0.087,0.071,0.124c0.047,0.036,0.176,0.102,0.385,0.197
			c0.2,0.09,0.339,0.187,0.417,0.29C22.905,18,22.944,18.131,22.944,18.288z"/>
		<path fill="#454544" d="M24.331,18.995h-0.628v-1.814h-0.569v-0.515h1.765v0.515h-0.567V18.995z"/>
		<path fill="#454544" d="M26.078,16.666h0.812c0.317,0,0.552,0.047,0.705,0.141c0.154,0.094,0.23,0.24,0.23,0.438
			c0,0.131-0.033,0.242-0.101,0.334c-0.067,0.093-0.155,0.152-0.264,0.179v0.016c0.144,0.038,0.249,0.102,0.313,0.191
			c0.065,0.09,0.098,0.206,0.098,0.348c0,0.211-0.08,0.377-0.239,0.499c-0.158,0.122-0.375,0.183-0.648,0.183h-0.907V16.666z
			 M26.708,17.56h0.189c0.09,0,0.161-0.018,0.209-0.056c0.049-0.038,0.075-0.092,0.075-0.166c0-0.131-0.099-0.196-0.297-0.196
			h-0.176V17.56z M26.708,18.02v0.488h0.221c0.196,0,0.295-0.083,0.295-0.248c0-0.078-0.027-0.137-0.079-0.179
			c-0.053-0.041-0.128-0.062-0.229-0.062H26.708z"/>
		<path fill="#454544" d="M29.66,18.995h-1.383v-2.329h1.383v0.505h-0.754v0.367h0.697v0.504h-0.697v0.44h0.754V18.995z"/>
		<path fill="#454544" d="M31.589,18.288c0,0.144-0.037,0.272-0.11,0.384c-0.073,0.112-0.179,0.199-0.317,0.261
			c-0.137,0.062-0.299,0.093-0.485,0.093c-0.156,0-0.285-0.011-0.39-0.033c-0.106-0.021-0.215-0.06-0.328-0.114v-0.56
			c0.119,0.061,0.244,0.109,0.374,0.144s0.249,0.052,0.357,0.052c0.093,0,0.162-0.016,0.204-0.049
			c0.044-0.032,0.066-0.074,0.066-0.125c0-0.032-0.008-0.059-0.026-0.083c-0.018-0.023-0.046-0.048-0.084-0.072
			c-0.039-0.025-0.142-0.074-0.311-0.15c-0.152-0.069-0.265-0.136-0.341-0.201c-0.076-0.064-0.132-0.139-0.169-0.223
			c-0.037-0.083-0.055-0.183-0.055-0.297c0-0.214,0.078-0.382,0.234-0.502c0.157-0.12,0.371-0.18,0.644-0.18
			c0.241,0,0.487,0.056,0.738,0.167l-0.193,0.485c-0.217-0.099-0.405-0.148-0.564-0.148c-0.082,0-0.14,0.014-0.178,0.042
			c-0.038,0.028-0.056,0.063-0.056,0.106c0,0.046,0.024,0.087,0.071,0.124c0.047,0.036,0.176,0.102,0.385,0.197
			c0.201,0.09,0.34,0.187,0.418,0.29C31.55,18,31.589,18.131,31.589,18.288z"/>
		<path fill="#454544" d="M32.977,18.995h-0.629v-1.814h-0.569v-0.515h1.765v0.515h-0.567V18.995z"/>
		<path fill="#454544" d="M33.877,18.995v-2.329h0.632v2.329H33.877z"/>
		<path fill="#454544" d="M36.027,18.995l-0.476-1.677h-0.015c0.023,0.286,0.033,0.508,0.033,0.667v1.011h-0.558v-2.329h0.838
			l0.486,1.654h0.012l0.476-1.654h0.839v2.329h-0.578v-1.021c0-0.052,0.001-0.112,0.003-0.176c0.001-0.064,0.008-0.223,0.021-0.476
			h-0.014l-0.471,1.674H36.027z"/>
		<path fill="#454544" d="M39.181,18.995l-0.477-1.677H38.69c0.023,0.286,0.034,0.508,0.034,0.667v1.011h-0.559v-2.329h0.838
			l0.486,1.654h0.013l0.476-1.654h0.839v2.329H40.24v-1.021c0-0.052,0-0.112,0.002-0.176c0.001-0.064,0.008-0.223,0.021-0.476H40.25
			l-0.47,1.674H39.181z"/>
		<path fill="#454544" d="M42.347,18.995h-0.629v-1.814h-0.569v-0.515h1.765v0.515h-0.566V18.995z"/>
		<path fill="#454544" d="M46.312,18.995h-0.825l-0.85-1.641h-0.014c0.02,0.258,0.03,0.455,0.03,0.591v1.049h-0.558v-2.329h0.823
			l0.846,1.619h0.01c-0.015-0.236-0.022-0.423-0.022-0.566v-1.053h0.561V18.995z"/>
		<path fill="#454544" d="M46.814,18.995v-2.329h0.632v2.329H46.814z"/>
		<path fill="#454544" d="M48.988,17.149c-0.15,0-0.267,0.061-0.351,0.184c-0.083,0.123-0.126,0.292-0.126,0.507
			c0,0.448,0.172,0.673,0.512,0.673c0.103,0,0.203-0.015,0.299-0.044c0.097-0.028,0.194-0.063,0.292-0.103v0.532
			c-0.195,0.086-0.416,0.129-0.66,0.129c-0.352,0-0.621-0.102-0.808-0.306c-0.188-0.204-0.282-0.499-0.282-0.884
			c0-0.241,0.046-0.453,0.137-0.636c0.09-0.183,0.221-0.323,0.391-0.421c0.17-0.098,0.372-0.147,0.602-0.147
			c0.251,0,0.492,0.055,0.722,0.164l-0.193,0.495c-0.087-0.04-0.172-0.074-0.259-0.102C49.179,17.163,49.086,17.149,48.988,17.149z"
			/>
		<path fill="#454544" d="M52.063,18.995H51.43v-0.949h-0.731v0.949h-0.632v-2.329h0.632v0.863h0.731v-0.863h0.633V18.995z"/>
		<path fill="#454544" d="M53.593,18.995h-0.628v-1.814h-0.569v-0.515h1.765v0.515h-0.567V18.995z"/>
		<path fill="#454544" d="M12.41,21.695c0,0.388-0.106,0.688-0.32,0.898c-0.214,0.21-0.515,0.316-0.903,0.316h-0.753V20.58h0.806
			c0.374,0,0.662,0.096,0.865,0.287C12.309,21.058,12.41,21.334,12.41,21.695z M11.757,21.717c0-0.213-0.042-0.372-0.126-0.475
			c-0.084-0.103-0.213-0.154-0.384-0.154h-0.183v1.304h0.14c0.191,0,0.331-0.055,0.42-0.166
			C11.713,22.115,11.757,21.946,11.757,21.717z"/>
		<path fill="#454544" d="M14.21,22.909h-1.384V20.58h1.384v0.505h-0.753v0.367h0.697v0.505h-0.697v0.439h0.753V22.909z"/>
		<path fill="#454544" d="M14.617,22.909V20.58h0.633v2.329H14.617z"/>
		<path fill="#454544" d="M17.97,22.909h-0.825l-0.85-1.641h-0.014c0.02,0.257,0.03,0.455,0.03,0.591v1.05h-0.558V20.58h0.822
			l0.847,1.619h0.01c-0.015-0.235-0.022-0.423-0.022-0.566V20.58h0.561V22.909z"/>
		<path fill="#454544" d="M21.01,21.321c0,0.26-0.076,0.461-0.23,0.603c-0.153,0.143-0.371,0.213-0.653,0.213H19.95v0.773h-0.63
			V20.58h0.807c0.294,0,0.515,0.064,0.663,0.193C20.936,20.901,21.01,21.084,21.01,21.321z M19.95,21.624h0.115
			c0.094,0,0.168-0.027,0.224-0.08c0.057-0.053,0.084-0.126,0.084-0.219c0-0.158-0.086-0.236-0.261-0.236H19.95V21.624z"/>
		<path fill="#454544" d="M23.358,21.695c0,0.388-0.106,0.688-0.321,0.898c-0.213,0.21-0.515,0.316-0.902,0.316h-0.754V20.58h0.807
			c0.375,0,0.663,0.096,0.866,0.287C23.257,21.058,23.358,21.334,23.358,21.695z M22.706,21.717c0-0.213-0.043-0.372-0.127-0.475
			c-0.084-0.103-0.212-0.154-0.385-0.154h-0.182v1.304h0.14c0.191,0,0.331-0.055,0.42-0.166
			C22.661,22.115,22.706,21.946,22.706,21.717z"/>
		<path fill="#454544" d="M24.395,22.909h-0.62V20.58h1.376v0.505h-0.756v0.445h0.698v0.504h-0.698V22.909z"/>
		<path fill="#454544" d="M25.35,22.283v-0.497h0.9v0.497H25.35z"/>
		<path fill="#454544" d="M28.546,21.695c0,0.388-0.106,0.688-0.321,0.898c-0.213,0.21-0.515,0.316-0.902,0.316h-0.754V20.58h0.807
			c0.375,0,0.662,0.096,0.866,0.287C28.445,21.058,28.546,21.334,28.546,21.695z M27.894,21.717c0-0.213-0.043-0.372-0.127-0.475
			c-0.084-0.103-0.212-0.154-0.385-0.154h-0.183v1.304h0.141c0.191,0,0.331-0.055,0.42-0.166
			C27.849,22.115,27.894,21.946,27.894,21.717z"/>
		<path fill="#454544" d="M31.142,21.741c0,0.392-0.096,0.689-0.288,0.894c-0.192,0.204-0.474,0.306-0.844,0.306
			c-0.365,0-0.646-0.102-0.84-0.308c-0.195-0.205-0.292-0.503-0.292-0.895c0-0.387,0.097-0.684,0.291-0.888
			c0.194-0.205,0.476-0.307,0.845-0.307c0.371,0,0.651,0.101,0.843,0.304C31.047,21.051,31.142,21.349,31.142,21.741z M29.54,21.741
			c0,0.451,0.157,0.675,0.47,0.675c0.159,0,0.277-0.055,0.355-0.164c0.077-0.109,0.114-0.28,0.114-0.511
			c0-0.232-0.038-0.404-0.116-0.515c-0.078-0.111-0.195-0.167-0.35-0.167C29.698,21.06,29.54,21.287,29.54,21.741z"/>
		<path fill="#454544" d="M33.552,22.909h-0.71l-0.46-0.891l-0.187,0.111v0.779h-0.632V20.58h0.632v1.012
			c0.032-0.063,0.097-0.162,0.193-0.298l0.489-0.714h0.688l-0.733,1.043L33.552,22.909z"/>
		<path fill="#454544" d="M35.783,20.58v1.402c0,0.305-0.086,0.54-0.259,0.708c-0.172,0.167-0.422,0.25-0.745,0.25
			c-0.318,0-0.562-0.081-0.733-0.244c-0.17-0.162-0.256-0.396-0.256-0.701V20.58h0.632v1.367c0,0.165,0.031,0.284,0.093,0.358
			c0.061,0.075,0.152,0.111,0.272,0.111c0.128,0,0.222-0.037,0.279-0.111c0.059-0.073,0.087-0.194,0.087-0.362V20.58H35.783z"/>
		<path fill="#454544" d="M37.287,22.909l-0.476-1.677h-0.015c0.022,0.285,0.033,0.507,0.033,0.666v1.012h-0.558V20.58h0.838
			l0.486,1.654h0.013l0.476-1.654h0.839v2.329h-0.578v-1.021c0-0.054,0.001-0.112,0.003-0.177c0-0.064,0.007-0.224,0.021-0.476
			h-0.014l-0.471,1.674H37.287z"/>
		<path fill="#454544" d="M40.809,22.909h-1.384V20.58h1.384v0.505h-0.754v0.367h0.697v0.505h-0.697v0.439h0.754V22.909z"/>
		<path fill="#454544" d="M43.433,22.909h-0.825l-0.851-1.641h-0.014c0.021,0.257,0.03,0.455,0.03,0.591v1.05h-0.558V20.58h0.823
			l0.846,1.619h0.01c-0.014-0.235-0.022-0.423-0.022-0.566V20.58h0.561V22.909z"/>
		<path fill="#454544" d="M44.963,22.909h-0.628v-1.814h-0.569V20.58h1.765v0.515h-0.567V22.909z"/>
		<path fill="#454544" d="M46.405,22.433l0.022,0.037c-0.103,0.405-0.197,0.703-0.281,0.893h-0.444
			c0.031-0.146,0.062-0.311,0.093-0.493c0.032-0.182,0.053-0.328,0.065-0.437H46.405z"/>
		<path fill="#454544" d="M49.026,20.58h0.704l-0.763,2.329h-0.74l-0.76-2.329h0.707l0.317,1.181
			c0.066,0.262,0.102,0.444,0.108,0.547c0.007-0.074,0.022-0.167,0.044-0.278c0.022-0.111,0.042-0.2,0.059-0.263L49.026,20.58z"/>
		<path fill="#454544" d="M51.365,22.909h-1.383V20.58h1.383v0.505h-0.754v0.367h0.697v0.505h-0.697v0.439h0.754V22.909z"/>
		<path fill="#454544" d="M52.401,22.062v0.848h-0.63V20.58h0.764c0.632,0,0.949,0.23,0.949,0.688c0,0.27-0.132,0.478-0.395,0.625
			l0.678,1.015h-0.713l-0.493-0.848H52.401z M52.401,21.588h0.117c0.22,0,0.331-0.097,0.331-0.292c0-0.16-0.108-0.24-0.324-0.24
			h-0.124V21.588z"/>
		<path fill="#454544" d="M53.795,22.283v-0.497h0.9v0.497H53.795z"/>
		<path fill="#454544" d="M12.093,26.823H10.28v-0.389l1.007-1.432h-0.984v-0.508h1.765v0.387l-1.008,1.434h1.034V26.823z"/>
		<path fill="#454544" d="M13.809,26.823h-1.383v-2.329h1.383v0.504h-0.753v0.367h0.697v0.505h-0.697v0.44h0.753V26.823z"/>
		<path fill="#454544" d="M14.216,26.823v-2.329h0.632v2.329H14.216z"/>
		<path fill="#454544" d="M17.347,26.823h-0.633v-0.95h-0.731v0.95h-0.633v-2.329h0.633v0.864h0.731v-0.864h0.633V26.823z"/>
		<path fill="#454544" d="M19.831,24.494v1.401c0,0.305-0.086,0.541-0.259,0.708c-0.172,0.167-0.421,0.251-0.746,0.251
			c-0.318,0-0.561-0.081-0.732-0.245c-0.17-0.161-0.256-0.396-0.256-0.7v-1.416h0.633v1.366c0,0.165,0.031,0.284,0.093,0.359
			c0.061,0.074,0.152,0.111,0.272,0.111c0.128,0,0.222-0.037,0.279-0.11c0.058-0.074,0.086-0.194,0.086-0.362v-1.364H19.831z"/>
		<path fill="#454544" d="M22.535,26.823h-0.824l-0.85-1.641h-0.015c0.02,0.258,0.03,0.455,0.03,0.591v1.049h-0.559v-2.329h0.823
			l0.846,1.618h0.01c-0.015-0.234-0.023-0.423-0.023-0.565v-1.053h0.561V26.823z"/>
		<path fill="#454544" d="M23.974,25.459h1.004v1.255c-0.273,0.094-0.572,0.141-0.9,0.141c-0.358,0-0.636-0.104-0.832-0.312
			c-0.196-0.208-0.294-0.505-0.294-0.891c0-0.375,0.108-0.668,0.323-0.878c0.213-0.208,0.514-0.313,0.9-0.313
			c0.146,0,0.286,0.015,0.416,0.042c0.13,0.028,0.243,0.063,0.34,0.105l-0.199,0.493c-0.168-0.083-0.352-0.124-0.553-0.124
			c-0.184,0-0.326,0.06-0.427,0.179c-0.1,0.12-0.15,0.291-0.15,0.512c0,0.218,0.045,0.383,0.137,0.498
			c0.09,0.114,0.221,0.171,0.392,0.171c0.094,0,0.18-0.008,0.258-0.026v-0.365h-0.415V25.459z"/>
		<path fill="#454544" d="M25.338,26.558c0-0.098,0.029-0.172,0.087-0.227c0.057-0.053,0.142-0.079,0.252-0.079
			c0.105,0,0.185,0.026,0.242,0.079c0.056,0.054,0.085,0.129,0.085,0.227c0,0.096-0.03,0.17-0.087,0.224
			c-0.059,0.053-0.138,0.08-0.24,0.08c-0.105,0-0.188-0.027-0.249-0.08C25.37,26.73,25.338,26.655,25.338,26.558z"/>
	</g>
</g>
<g>
	<polygon fill="#FFFFFF" points="22.271,0.492 5.326,17.436 22.271,17.436 	"/>
	<path fill="#A7A6A6" d="M22.271,17.805H5.326l-0.261-0.63L22.01,0.231l0.63,0.261v16.944L22.271,17.805z M6.217,17.067h15.685
		V1.384L6.217,17.067z"/>
</g>
</svg>
