<?xml version="1.0" encoding="utf-8"?>
<!-- Generator: Adobe Illustrator 16.0.4, SVG Export Plug-In . SVG Version: 6.00 Build 0)  -->
<!DOCTYPE svg PUBLIC "-//W3C//DTD SVG 1.1//EN" "http://www.w3.org/Graphics/SVG/1.1/DTD/svg11.dtd">
<svg version="1.1" id="Ebene_1" xmlns="http://www.w3.org/2000/svg" xmlns:xlink="http://www.w3.org/1999/xlink" x="0px" y="0px"
	 width="64px" height="64px" viewBox="0 0 64 64" enable-background="new 0 0 64 64" xml:space="preserve">
<g>
	<g>
		<g>
			<g>
				<linearGradient id="SVGID_1_" gradientUnits="userSpaceOnUse" x1="5.6201" y1="31.999" x2="58.3799" y2="31.999">
					<stop  offset="0" style="stop-color:#FFFFFF"/>
					<stop  offset="1" style="stop-color:#F4F4F6"/>
				</linearGradient>
				<polygon fill="url(#SVGID_1_)" points="58.38,0.531 22.544,0.531 5.62,17.455 5.62,63.467 58.38,63.467 				"/>
				<path fill="#A7A6A6" d="M58.38,64H5.62l-0.531-0.533V17.455l0.155-0.375L22.168,0.156L22.544,0H58.38l0.531,0.531v62.936
					L58.38,64z M6.151,62.938h51.697V1.063H22.764L6.151,17.675V62.938z"/>
			</g>
		</g>
	</g>
	<g>
		<path fill="#C61925" d="M20.786,45.504c0,1.645-0.513,2.904-1.541,3.773c-1.028,0.871-2.49,1.306-4.385,1.306H13.47v5.437h-3.241
			V40.738h4.883c1.854,0,3.263,0.397,4.228,1.196C20.305,42.733,20.786,43.923,20.786,45.504z M13.47,47.93h1.065
			c0.997,0,1.743-0.196,2.238-0.593c0.494-0.393,0.74-0.965,0.74-1.717c0-0.76-0.206-1.32-0.62-1.684
			c-0.416-0.362-1.064-0.544-1.95-0.544H13.47V47.93z"/>
		<path fill="#C61925" d="M37.229,56.02h-4.117l-6.648-11.562h-0.095c0.133,2.043,0.198,3.498,0.198,4.369v7.192h-2.896V40.738
			h4.087l6.639,11.445h0.073c-0.104-1.986-0.157-3.389-0.157-4.211v-7.234h2.916V56.02z"/>
		<path fill="#C61925" d="M46.877,47.438h6.062v7.924c-0.981,0.319-1.907,0.546-2.775,0.675c-0.866,0.128-1.754,0.192-2.66,0.192
			c-2.307,0-4.067-0.677-5.284-2.033c-1.216-1.356-1.823-3.303-1.823-5.838c0-2.468,0.705-4.392,2.116-5.771
			c1.412-1.38,3.367-2.07,5.869-2.07c1.568,0,3.081,0.314,4.537,0.941l-1.077,2.594c-1.115-0.558-2.275-0.838-3.479-0.838
			c-1.401,0-2.523,0.472-3.366,1.412c-0.844,0.941-1.266,2.205-1.266,3.796c0,1.657,0.34,2.926,1.02,3.8
			c0.68,0.875,1.667,1.312,2.964,1.312c0.675,0,1.361-0.072,2.059-0.21v-3.189h-2.896V47.438z"/>
	</g>
	<g>
		<g>
			<polygon fill="#CECDCD" points="50.306,32.348 13.694,32.348 13.694,10.777 15.293,8.711 50.306,8.711 			"/>
			<path fill="#6B6B6B" d="M50.306,32.879H13.694l-0.531-0.531V10.777l0.111-0.326l1.599-2.065l0.42-0.205h35.013l0.531,0.531
				v23.637L50.306,32.879z M14.226,31.816h35.548V9.243H15.555l-1.329,1.716V31.816z"/>
		</g>
		<g>
			<path fill="#A7A6A6" d="M50.111,32.348H13.887V20.971c0,0,8.804,0,16.171,2.695c7.369,2.696,20.054,0,20.054,0V32.348z"/>
			<path fill="#6B6B6B" d="M50.111,32.614H13.887l-0.265-0.266V20.971l0.265-0.265c0.089,0,8.936,0.031,16.263,2.71
				c2.143,0.784,4.964,1.182,8.382,1.182c5.847,0,11.468-1.181,11.525-1.192l0.32,0.26v8.682L50.111,32.614z M14.153,32.083h35.691
				v-8.092c-1.282,0.25-6.214,1.139-11.313,1.139c-3.48,0-6.363-0.409-8.564-1.214c-6.53-2.388-14.291-2.647-15.813-2.675V32.083z"
				/>
		</g>
		<g>
			<path fill="#FFFFFF" d="M41.068,14.103c0-1.175,0.493-2.238,1.289-3.011c-0.002,0-0.005,0-0.006,0
				c-2.444,0-4.425,1.912-4.425,4.271c0,2.357,1.98,4.269,4.425,4.269c1.225,0,2.335-0.481,3.137-1.259
				C43.048,18.369,41.068,16.46,41.068,14.103z"/>
			<path fill="#6B6B6B" d="M42.352,19.897c-2.588,0-4.691-2.034-4.691-4.535s2.104-4.538,4.691-4.538l0.19,0.458
				c-0.779,0.755-1.207,1.756-1.207,2.82c0,2.205,1.862,4,4.153,4.003l0.185,0.457C44.786,19.424,43.606,19.897,42.352,19.897z
				 M41.724,11.404c-1.999,0.293-3.531,1.957-3.531,3.958c0,2.207,1.866,4.003,4.159,4.003c0.897,0,1.751-0.272,2.46-0.775
				c-2.263-0.32-4.008-2.212-4.008-4.488C40.804,13.118,41.126,12.181,41.724,11.404z"/>
		</g>
	</g>
	<g>
		<polygon fill="#FFFFFF" points="22.544,0.531 5.62,17.455 22.544,17.455 		"/>
		<path fill="#A7A6A6" d="M22.544,17.853H5.62l-0.282-0.679L22.262,0.25l0.681,0.282v16.924L22.544,17.853z M6.582,17.056h15.564
			V1.494L6.582,17.056z"/>
	</g>
</g>
</svg>
