<?xml version="1.0" encoding="utf-8"?>
<!-- Generator: Adobe Illustrator 16.0.4, SVG Export Plug-In . SVG Version: 6.00 Build 0)  -->
<!DOCTYPE svg PUBLIC "-//W3C//DTD SVG 1.1//EN" "http://www.w3.org/Graphics/SVG/1.1/DTD/svg11.dtd">
<svg version="1.1" id="Ebene_1" xmlns="http://www.w3.org/2000/svg" xmlns:xlink="http://www.w3.org/1999/xlink" x="0px" y="0px"
	 width="64px" height="64px" viewBox="0 0 64 64" enable-background="new 0 0 64 64" xml:space="preserve">
<g>
	<g>
		<g>
			<g>
				<linearGradient id="SVGID_1_" gradientUnits="userSpaceOnUse" x1="5.5977" y1="32" x2="58.4023" y2="32">
					<stop  offset="0" style="stop-color:#FFFFFF"/>
					<stop  offset="1" style="stop-color:#F4F4F6"/>
				</linearGradient>
				<polygon fill="url(#SVGID_1_)" points="58.402,0.505 22.537,0.505 5.598,17.442 5.598,63.495 58.402,63.495 				"/>
				<path fill="#A7A6A6" d="M58.402,64H5.598l-0.505-0.505V17.442l0.148-0.357L22.18,0.148L22.537,0h35.866l0.505,0.505v62.99
					L58.402,64z M6.103,62.99h51.795V1.01H22.746L6.103,17.651V62.99z"/>
			</g>
		</g>
	</g>
	<g>
		<path fill="#C61925" d="M17.794,56.039h-3.244V43.443h-4.152v-2.699h11.549v2.699h-4.153V56.039z"/>
		<path fill="#C61925" d="M24.301,56.039V40.744h3.243v15.295H24.301z"/>
		<path fill="#C61925" d="M34.585,56.039h-3.191V40.744h8.767v2.657h-5.576v3.943h5.189v2.647h-5.189V56.039z"/>
		<path fill="#C61925" d="M46.345,56.039h-3.191V40.744h8.767v2.657h-5.576v3.943h5.188v2.647h-5.188V56.039z"/>
	</g>
	<g>
		<g>
			<polygon fill="#CECDCD" points="50.32,32.349 13.679,32.349 13.679,10.76 15.28,8.692 50.32,8.692 			"/>
			<path fill="#6B6B6B" d="M50.32,32.854H13.679l-0.505-0.505V10.76l0.106-0.31l1.601-2.067l0.399-0.196h35.04l0.505,0.506v23.656
				L50.32,32.854z M14.184,31.843h35.631V9.197H15.527l-1.343,1.734V31.843z"/>
		</g>
		<g>
			<path fill="#A7A6A6" d="M50.125,32.349H13.873V20.963c0,0,8.81,0,16.183,2.696c7.375,2.695,20.07,0,20.07,0V32.349z"/>
			<path fill="#6B6B6B" d="M50.125,32.601H13.873l-0.252-0.252V20.963l0.252-0.253c0.088,0,8.94,0.03,16.27,2.713
				c2.147,0.784,4.971,1.183,8.394,1.183c5.85,0,11.48-1.181,11.537-1.192l0.305,0.246v8.689L50.125,32.601z M14.125,32.096h35.748
				v-8.129c-1.257,0.246-6.212,1.144-11.336,1.144c-3.482,0-6.365-0.408-8.567-1.215c-6.555-2.396-14.353-2.651-15.844-2.678V32.096
				z"/>
		</g>
		<g>
			<path fill="#FFFFFF" d="M41.077,14.089c0-1.177,0.492-2.241,1.289-3.015c-0.002,0-0.004,0-0.006,0
				c-2.446,0-4.429,1.913-4.429,4.273c0,2.359,1.982,4.273,4.429,4.273c1.227,0,2.337-0.482,3.139-1.261
				C43.056,18.357,41.077,16.447,41.077,14.089z"/>
			<path fill="#6B6B6B" d="M42.36,19.873c-2.582,0-4.681-2.029-4.681-4.525c0-2.495,2.1-4.526,4.681-4.526l0.183,0.435
				c-0.783,0.758-1.213,1.765-1.213,2.833c0,2.213,1.87,4.016,4.169,4.019l0.176,0.435C44.79,19.4,43.613,19.873,42.36,19.873z
				 M41.763,11.368c-2.024,0.282-3.58,1.959-3.58,3.979c0,2.218,1.873,4.021,4.176,4.021c0.913,0,1.78-0.28,2.498-0.799
				c-2.275-0.306-4.033-2.199-4.033-4.48C40.824,13.094,41.154,12.148,41.763,11.368z"/>
		</g>
	</g>
	<g>
		<polygon fill="#FFFFFF" points="23.025,0.505 6.086,17.442 23.025,17.442 		"/>
		<path fill="#A7A6A6" d="M23.025,17.821H6.086l-0.268-0.647L22.757,0.236l0.646,0.269v16.938L23.025,17.821z M7,17.063h15.646
			V1.419L7,17.063z"/>
	</g>
</g>
</svg>
