<?xml version="1.0" encoding="utf-8"?>
<!-- Generator: Adobe Illustrator 16.0.4, SVG Export Plug-In . SVG Version: 6.00 Build 0)  -->
<!DOCTYPE svg PUBLIC "-//W3C//DTD SVG 1.1//EN" "http://www.w3.org/Graphics/SVG/1.1/DTD/svg11.dtd">
<svg version="1.1" id="Ebene_1" xmlns="http://www.w3.org/2000/svg" xmlns:xlink="http://www.w3.org/1999/xlink" x="0px" y="0px"
	 width="64px" height="64px" viewBox="0 0 64 64" enable-background="new 0 0 64 64" xml:space="preserve">
<rect fill-rule="evenodd" clip-rule="evenodd" fill="#454544" stroke="#454544" stroke-width="0.5" stroke-miterlimit="10" width="64" height="64"/>
<g>
	<linearGradient id="SVGID_1_" gradientUnits="userSpaceOnUse" x1="14.9346" y1="42.5" x2="49.79" y2="42.5">
		<stop  offset="0" style="stop-color:#FFFFFF"/>
		<stop  offset="1" style="stop-color:#DCDDDE"/>
	</linearGradient>
	<path fill="url(#SVGID_1_)" stroke="#A7A6A6" stroke-width="0.5" d="M49.79,52.441H14.935V32.559H49.79V52.441z"/>
</g>
<g>
	<linearGradient id="SVGID_2_" gradientUnits="userSpaceOnUse" x1="14.873" y1="29.7588" x2="49.79" y2="29.7588">
		<stop  offset="0" style="stop-color:#FFFFFF"/>
		<stop  offset="1" style="stop-color:#DCDDDE"/>
	</linearGradient>
	<path fill="url(#SVGID_2_)" stroke="#A7A6A6" stroke-width="0.5" d="M49.79,32.559H14.873v-5.6H49.79V32.559z"/>
</g>
<g>
	<g>
		<polygon fill="#595857" points="44.788,32.482 46.467,26.954 49.532,26.954 47.884,32.482 		"/>
		<path fill="#A7A6A6" d="M49.197,27.204l-1.5,5.029h-2.572l1.527-5.029H49.197 M49.868,26.704h-0.671h-2.545h-0.371l-0.107,0.354
			l-1.527,5.029l-0.196,0.646h0.675h2.572h0.373l0.106-0.357l1.5-5.029L49.868,26.704L49.868,26.704z"/>
	</g>
	<g>
		<polygon fill="#595857" points="38.919,32.482 40.597,26.954 43.662,26.954 42.014,32.482 		"/>
		<path fill="#A7A6A6" d="M43.327,27.204l-1.5,5.029h-2.571l1.526-5.029H43.327 M43.998,26.704h-0.671h-2.545h-0.371l-0.107,0.355
			l-1.526,5.029l-0.195,0.645h0.674h2.571H42.2l0.106-0.357l1.5-5.029L43.998,26.704L43.998,26.704z"/>
	</g>
	<g>
		<polygon fill="#595857" points="32.935,32.482 34.613,26.954 37.679,26.954 36.03,32.482 		"/>
		<path fill="#A7A6A6" d="M37.344,27.204l-1.5,5.029h-2.572l1.527-5.029H37.344 M38.015,26.704h-0.671h-2.545h-0.371l-0.107,0.354
			l-1.527,5.029l-0.196,0.646h0.675h2.572h0.373l0.106-0.357l1.5-5.029L38.015,26.704L38.015,26.704z"/>
	</g>
	<g>
		<polygon fill="#595857" points="26.839,32.482 28.517,26.954 31.584,26.954 29.936,32.482 		"/>
		<path fill="#A7A6A6" d="M31.249,27.204l-1.5,5.029h-2.573l1.526-5.029H31.249 M31.92,26.704h-0.671h-2.547h-0.371l-0.107,0.355
			l-1.526,5.029l-0.195,0.645h0.674h2.573h0.373l0.106-0.357l1.5-5.029L31.92,26.704L31.92,26.704z"/>
	</g>
	<g>
		<polygon fill="#595857" points="21.195,32.482 22.872,26.954 25.939,26.954 24.289,32.482 		"/>
		<path fill="#A7A6A6" d="M25.604,27.204l-1.501,5.029h-2.57l1.525-5.029H25.604 M26.274,26.704h-0.671h-2.546h-0.371l-0.107,0.355
			l-1.525,5.029l-0.195,0.645h0.674h2.57h0.372l0.107-0.357l1.501-5.029L26.274,26.704L26.274,26.704z"/>
	</g>
	<g>
		<polygon fill="#595857" points="15.173,32.558 16.852,27.029 19.917,27.029 18.269,32.558 		"/>
		<path fill="#A7A6A6" d="M19.582,27.279l-1.5,5.029H15.51l1.527-5.029H19.582 M20.253,26.779h-0.671h-2.545h-0.371l-0.107,0.354
			l-1.527,5.029l-0.196,0.646h0.675h2.572h0.373l0.106-0.357l1.5-5.029L20.253,26.779L20.253,26.779z"/>
	</g>
</g>
<g>
	<g>
		<linearGradient id="SVGID_3_" gradientUnits="userSpaceOnUse" x1="12.8584" y1="18.3193" x2="47.585" y2="18.3193">
			<stop  offset="0" style="stop-color:#FFFFFF"/>
			<stop  offset="1" style="stop-color:#DCDDDE"/>
		</linearGradient>
		<path fill="url(#SVGID_3_)" stroke="#A7A6A6" stroke-width="0.5" d="M47.585,14.979L14.774,26.921l-1.916-5.261L45.672,9.718
			L47.585,14.979z"/>
	</g>
	<g>
		<g>
			<polygon fill="#595857" points="13.142,21.551 16.022,20.501 19.491,25.124 16.583,26.182 			"/>
			<path fill="#A7A6A6" d="M15.934,20.8l3.155,4.204l-2.416,0.879l-3.131-4.212L15.934,20.8 M16.111,20.203l-0.349,0.127
				l-2.392,0.871l-0.631,0.229l0.4,0.539l3.131,4.212l0.223,0.299l0.35-0.127l2.416-0.879l0.634-0.23l-0.405-0.54L16.334,20.5
				L16.111,20.203L16.111,20.203z"/>
		</g>
		<g>
			<polygon fill="#595857" points="18.657,19.543 21.539,18.494 25.007,23.116 22.099,24.175 			"/>
			<path fill="#A7A6A6" d="M21.45,18.792l3.154,4.204l-2.416,0.879l-3.131-4.213L21.45,18.792 M21.628,18.196l-0.349,0.127
				l-2.393,0.871l-0.631,0.229l0.4,0.539l3.131,4.213l0.223,0.299l0.35-0.127l2.416-0.879l0.634-0.23l-0.404-0.54l-3.154-4.204
				L21.628,18.196L21.628,18.196z"/>
		</g>
		<g>
			<polygon fill="#595857" points="24.28,17.497 27.161,16.448 30.629,21.069 27.72,22.129 			"/>
			<path fill="#A7A6A6" d="M27.072,16.746l3.154,4.204l-2.417,0.88l-3.129-4.213L27.072,16.746 M27.25,16.149l-0.349,0.127
				l-2.392,0.871l-0.631,0.229l0.4,0.539l3.129,4.213l0.223,0.299l0.35-0.127l2.417-0.88l0.634-0.23l-0.404-0.54l-3.154-4.204
				L27.25,16.149L27.25,16.149z"/>
		</g>
		<g>
			<polygon fill="#595857" points="30.008,15.412 32.889,14.363 36.357,18.985 33.449,20.044 			"/>
			<path fill="#A7A6A6" d="M32.8,14.662l3.155,4.204l-2.416,0.88l-3.131-4.213L32.8,14.662 M32.978,14.065l-0.349,0.127l-2.392,0.87
				l-0.631,0.229l0.4,0.539l3.131,4.213l0.223,0.299l0.35-0.127l2.416-0.88l0.634-0.23l-0.405-0.54l-3.155-4.204L32.978,14.065
				L32.978,14.065z"/>
		</g>
		<g>
			<polygon fill="#595857" points="35.312,13.481 38.192,12.432 41.661,17.055 38.752,18.113 			"/>
			<path fill="#A7A6A6" d="M38.104,12.73l3.155,4.205l-2.417,0.879l-3.13-4.213L38.104,12.73 M38.281,12.134l-0.349,0.127
				l-2.392,0.871l-0.631,0.229l0.4,0.539l3.13,4.213l0.222,0.299l0.351-0.127l2.417-0.879l0.634-0.23l-0.404-0.54l-3.155-4.205
				L38.281,12.134L38.281,12.134z"/>
		</g>
		<g>
			<polygon fill="#595857" points="40.997,11.493 43.877,10.443 47.346,15.065 44.437,16.124 			"/>
			<path fill="#A7A6A6" d="M43.788,10.742l3.155,4.204l-2.417,0.879l-3.129-4.212L43.788,10.742 M43.966,10.145l-0.349,0.127
				l-2.391,0.871l-0.631,0.229l0.4,0.539l3.129,4.212l0.222,0.299l0.351-0.127l2.417-0.879l0.634-0.23l-0.404-0.54l-3.156-4.204
				L43.966,10.145L43.966,10.145z"/>
		</g>
	</g>
</g>
<rect x="17.927" y="39.284" fill="#595857" stroke="#A7A6A6" stroke-width="0.5" width="6.361" height="2.354"/>
<rect x="26.197" y="39.284" fill="#595857" stroke="#A7A6A6" stroke-width="0.5" width="11.103" height="2.354"/>
<rect x="39.149" y="39.284" fill="#595857" stroke="#A7A6A6" stroke-width="0.5" width="7.717" height="2.354"/>
<rect x="17.927" y="43.983" fill="#595857" stroke="#A7A6A6" stroke-width="0.5" width="15.516" height="2.353"/>
</svg>
