<?xml version="1.0" encoding="utf-8"?>
<!-- Generator: Adobe Illustrator 16.0.4, SVG Export Plug-In . SVG Version: 6.00 Build 0)  -->
<!DOCTYPE svg PUBLIC "-//W3C//DTD SVG 1.1//EN" "http://www.w3.org/Graphics/SVG/1.1/DTD/svg11.dtd">
<svg version="1.1" id="Ebene_1" xmlns="http://www.w3.org/2000/svg" xmlns:xlink="http://www.w3.org/1999/xlink" x="0px" y="0px"
	 width="64px" height="64px" viewBox="0 0 64 64" enable-background="new 0 0 64 64" xml:space="preserve">
<g>
	<g>
		<g>
			<linearGradient id="SVGID_1_" gradientUnits="userSpaceOnUse" x1="5.5225" y1="32" x2="58.3911" y2="32">
				<stop  offset="0" style="stop-color:#FFFFFF"/>
				<stop  offset="1" style="stop-color:#F4F4F6"/>
			</linearGradient>
			<polygon fill="url(#SVGID_1_)" points="58.391,0.466 22.481,0.466 5.522,17.423 5.522,63.534 58.391,63.534 			"/>
			<path fill="#A7A6A6" d="M58.391,64H5.522l-0.466-0.466v-46.11l0.137-0.329L22.152,0.137L22.481,0h35.91l0.466,0.466v63.067
				L58.391,64z M5.989,63.067h51.937V0.933h-35.25L5.989,17.617V63.067z"/>
		</g>
		<g>
			<polygon fill="#FFFFFF" points="22.481,0.466 5.522,17.423 22.481,17.423 			"/>
			<path fill="#A7A6A6" d="M22.481,17.773H5.522l-0.247-0.598L22.234,0.219l0.598,0.247v16.957L22.481,17.773z M6.367,17.075h15.766
				V1.311L6.367,17.075z"/>
		</g>
	</g>
</g>
<g>
	<path fill="#C61925" d="M26.849,56.21H15.452v-2.104l7.342-10.528h-7.143v-2.681h10.998v2.095L19.317,53.53h7.532V56.21z"/>
	<path fill="#C61925" d="M29.29,56.21V40.897h3.247V56.21H29.29z"/>
	<path fill="#C61925" d="M46.97,45.673c0,1.65-0.516,2.909-1.545,3.781c-1.03,0.874-2.495,1.311-4.394,1.311h-1.394v5.445H36.39
		V40.897h4.892c1.857,0,3.269,0.4,4.236,1.2C46.485,42.896,46.97,44.088,46.97,45.673z M39.636,48.104h1.069
		c0.998,0,1.746-0.198,2.242-0.592c0.497-0.396,0.745-0.969,0.745-1.723c0-0.762-0.21-1.324-0.624-1.686
		c-0.416-0.364-1.067-0.546-1.955-0.546h-1.477V48.104z"/>
</g>
<rect x="43.646" y="0.74" fill="#454544" width="2.645" height="2.645"/>
<rect x="46.291" y="3.385" fill="#454544" width="2.644" height="2.643"/>
<rect x="43.646" y="6.028" fill="#454544" width="2.645" height="2.644"/>
<rect x="46.291" y="8.672" fill="#454544" width="2.644" height="2.644"/>
<rect x="43.646" y="11.316" fill="#454544" width="2.645" height="2.643"/>
<rect x="46.291" y="13.958" fill="#454544" width="2.644" height="2.645"/>
<rect x="43.646" y="16.604" fill="#454544" width="2.645" height="2.643"/>
<rect x="46.291" y="19.246" fill="#454544" width="2.644" height="2.645"/>
<g>
	<g>
		<path fill="#454544" d="M48.919,31.73c-0.002,1.457-1.185,2.634-2.643,2.632l0,0c-1.455-0.003-2.634-1.186-2.631-2.642
			l0.015-7.198c0.003-1.456,1.185-2.634,2.641-2.632l0,0c1.457,0.002,2.635,1.186,2.632,2.643L48.919,31.73z"/>
		<linearGradient id="SVGID_2_" gradientUnits="userSpaceOnUse" x1="44.8218" y1="31" x2="47.7466" y2="31">
			<stop  offset="0.5" style="stop-color:#FFFFFF"/>
			<stop  offset="1" style="stop-color:#EFEEEE"/>
		</linearGradient>
		<path fill="url(#SVGID_2_)" d="M47.746,31.587c-0.003,0.808-0.657,1.46-1.464,1.46l0,0c-0.807-0.001-1.46-0.656-1.459-1.465
			l0.001-1.168c0.002-0.808,0.658-1.46,1.466-1.46l0,0c0.807,0.002,1.459,0.657,1.457,1.466L47.746,31.587z"/>
	</g>
</g>
</svg>
