<?xml version="1.0" encoding="utf-8"?>
<!-- Generator: Adobe Illustrator 16.0.4, SVG Export Plug-In . SVG Version: 6.00 Build 0)  -->
<!DOCTYPE svg PUBLIC "-//W3C//DTD SVG 1.1//EN" "http://www.w3.org/Graphics/SVG/1.1/DTD/svg11.dtd">
<svg version="1.1" id="Ebene_1" xmlns="http://www.w3.org/2000/svg" xmlns:xlink="http://www.w3.org/1999/xlink" x="0px" y="0px"
	 width="48px" height="48px" viewBox="0 0 48 48" enable-background="new 0 0 48 48" xml:space="preserve">
<g>
	<g>
		<linearGradient id="SVGID_1_" gradientUnits="userSpaceOnUse" x1="23.8574" y1="8.9844" x2="23.8574" y2="39.0161">
			<stop  offset="0" style="stop-color:#E50512"/>
			<stop  offset="1" style="stop-color:#C41726"/>
		</linearGradient>
		<polygon fill="url(#SVGID_1_)" points="29.991,39.016 0.548,39.016 0.548,8.984 29.991,8.984 47.168,23.349 		"/>
		<path fill="#950E01" d="M30.203,39.563H0V8.437h30.19L48,23.331L30.203,39.563z M1.096,38.468h28.684l16.557-15.102L29.792,9.532
			H1.096V38.468z"/>
	</g>
	<g>
		<g>
			<path fill="#FFFFFF" d="M13.51,31.374c0-0.719,0.193-1.263,0.581-1.63c0.386-0.369,0.948-0.553,1.688-0.553
				c0.714,0,1.266,0.188,1.656,0.564c0.392,0.378,0.587,0.916,0.587,1.618c0,0.674-0.197,1.208-0.593,1.598s-0.945,0.583-1.65,0.583
				c-0.722,0-1.28-0.191-1.675-0.572C13.706,32.602,13.51,32.065,13.51,31.374z M17.364,26.984h-3.146l-0.656-12.537h4.459
				L17.364,26.984z"/>
			<path fill="#950E01" d="M15.778,33.966c-0.828,0-1.487-0.231-1.961-0.688c-0.477-0.457-0.719-1.099-0.719-1.903
				c0-0.834,0.239-1.482,0.71-1.928c0.462-0.441,1.125-0.666,1.97-0.666c0.82,0,1.474,0.229,1.941,0.681
				c0.474,0.456,0.713,1.1,0.713,1.913c0,0.786-0.241,1.423-0.715,1.89S16.593,33.966,15.778,33.966z M15.778,29.603
				c-0.627,0-1.1,0.147-1.404,0.439c-0.306,0.29-0.453,0.726-0.453,1.332c0,0.582,0.152,1.011,0.467,1.312
				c0.32,0.308,0.774,0.458,1.391,0.458c0.6,0,1.044-0.152,1.363-0.466c0.315-0.312,0.47-0.738,0.47-1.305
				c0-0.59-0.151-1.023-0.463-1.322C16.836,29.75,16.388,29.603,15.778,29.603z M17.753,27.396h-3.924l-0.7-13.359h5.326
				L17.753,27.396z M14.608,26.574h2.366l0.614-11.716h-3.594L14.608,26.574z"/>
		</g>
	</g>
</g>
</svg>
