<?xml version="1.0" encoding="utf-8"?>
<!-- Generator: Adobe Illustrator 16.0.4, SVG Export Plug-In . SVG Version: 6.00 Build 0)  -->
<!DOCTYPE svg PUBLIC "-//W3C//DTD SVG 1.1//EN" "http://www.w3.org/Graphics/SVG/1.1/DTD/svg11.dtd">
<svg version="1.1" id="Ebene_1" xmlns="http://www.w3.org/2000/svg" xmlns:xlink="http://www.w3.org/1999/xlink" x="0px" y="0px"
	 width="48px" height="48px" viewBox="0 0 48 48" enable-background="new 0 0 48 48" xml:space="preserve">
<g>
	<g>
		<linearGradient id="SVGID_1_" gradientUnits="userSpaceOnUse" x1="0.5479" y1="24" x2="47.168" y2="24">
			<stop  offset="0" style="stop-color:#03A7E5"/>
			<stop  offset="1" style="stop-color:#014A79"/>
		</linearGradient>
		<polygon fill="url(#SVGID_1_)" points="29.991,39.016 0.548,39.016 0.548,8.984 29.991,8.984 47.168,23.349 		"/>
		<path fill="#014A79" d="M30.203,39.563H0V8.437h30.19L48,23.331L30.203,39.563z M1.096,38.468h28.684l16.557-15.102L29.792,9.532
			H1.096V38.468z"/>
	</g>
	<g>
		<path fill="#FFFFFF" d="M22.258,17.655l-3.767-2.545L8.081,25.571l-1.335,7.668l7.631-1.344l10.409-10.462L22.258,17.655z
			 M9.985,31.432L8.562,30l0.404-3.208l2.933,1.197l1.193,2.948L9.985,31.432z"/>
		<path fill="#014A79" d="M18.491,15.11l3.767,2.545l2.528,3.779L14.377,31.896l-7.631,1.344l1.335-7.668L18.491,15.11
			 M9.985,31.432l3.107-0.494l-1.193-2.948l-2.933-1.197L8.562,30L9.985,31.432 M18.389,14.049l-0.479,0.482l-10.41,10.46
			l-0.184,0.185l-0.045,0.255l-1.335,7.667l-0.199,1.153l1.151-0.203l7.632-1.344l0.257-0.045l0.183-0.184l10.408-10.462
			l0.476-0.477l-0.375-0.56l-2.527-3.779l-0.089-0.134l-0.134-0.09l-3.767-2.545L18.389,14.049L18.389,14.049z M9.428,29.705
			l0.22-1.748l1.621,0.662l0.675,1.669l-1.672,0.267L9.428,29.705L9.428,29.705z"/>
	</g>
</g>
</svg>
