<?xml version="1.0" encoding="utf-8"?>
<!-- Generator: Adobe Illustrator 16.0.4, SVG Export Plug-In . SVG Version: 6.00 Build 0)  -->
<!DOCTYPE svg PUBLIC "-//W3C//DTD SVG 1.1//EN" "http://www.w3.org/Graphics/SVG/1.1/DTD/svg11.dtd">
<svg version="1.1" id="Ebene_1" xmlns="http://www.w3.org/2000/svg" xmlns:xlink="http://www.w3.org/1999/xlink" x="0px" y="0px"
	 width="48px" height="48px" viewBox="0 0 48 48" enable-background="new 0 0 48 48" xml:space="preserve">
<g>
	<g>
		<g>
			<linearGradient id="SVGID_1_" gradientUnits="userSpaceOnUse" x1="23.8574" y1="8.9834" x2="23.8574" y2="39.0151">
				<stop  offset="0" style="stop-color:#A7A7A6"/>
				<stop  offset="1" style="stop-color:#7A7B7A"/>
			</linearGradient>
			<polygon fill="url(#SVGID_1_)" points="29.992,39.015 0.549,39.015 0.549,8.983 29.992,8.983 47.167,23.349 			"/>
			<path fill="#7A7B7A" d="M30.201,39.563H0V8.437h30.189L48,23.33L30.201,39.563z M1.094,38.47h28.684l16.556-15.104L29.794,9.533
				h-28.7V38.47z"/>
		</g>
	</g>
	<g>
		<linearGradient id="SVGID_2_" gradientUnits="userSpaceOnUse" x1="16.0869" y1="34.5547" x2="16.0869" y2="14.7261">
			<stop  offset="0" style="stop-color:#F9B643"/>
			<stop  offset="1" style="stop-color:#FFEC00"/>
		</linearGradient>
		<polygon fill="url(#SVGID_2_)" points="15.838,23.67 11.9,34.555 22.343,20.947 16.229,20.947 18.75,14.726 13.938,14.726 
			9.831,23.67 		"/>
		<path fill="#F6B73A" d="M10.884,36.407l4.495-12.428H9.33l4.396-9.563h5.498l-2.521,6.219h6.276L10.884,36.407z M10.325,23.361
			h5.971l-3.379,9.347l8.781-11.451h-5.944l2.521-6.22h-4.12L10.325,23.361z"/>
	</g>
</g>
</svg>
