<?xml version="1.0" encoding="utf-8"?>
<!-- Generator: Adobe Illustrator 16.0.4, SVG Export Plug-In . SVG Version: 6.00 Build 0)  -->
<!DOCTYPE svg PUBLIC "-//W3C//DTD SVG 1.1//EN" "http://www.w3.org/Graphics/SVG/1.1/DTD/svg11.dtd">
<svg version="1.1" id="Ebene_1" xmlns="http://www.w3.org/2000/svg" xmlns:xlink="http://www.w3.org/1999/xlink" x="0px" y="0px"
	 width="48px" height="48px" viewBox="0 0 48 48" enable-background="new 0 0 48 48" xml:space="preserve">
<g>
	<g>
		<linearGradient id="SVGID_1_" gradientUnits="userSpaceOnUse" x1="0.8613" y1="24" x2="47.1387" y2="24">
			<stop  offset="0" style="stop-color:#03A7E5"/>
			<stop  offset="1" style="stop-color:#014A79"/>
		</linearGradient>
		<rect x="0.861" y="0.402" fill="url(#SVGID_1_)" width="46.277" height="47.195"/>
		<path fill="#014A79" d="M48,48.459H0V-0.459h48V48.459z M1.721,46.738h44.559V1.262H1.721V46.738z"/>
	</g>
</g>
<g>
	<polygon fill="#FFFFFF" points="24.081,32.854 14.803,37.685 16.6,27.38 9.141,20.059 19.497,18.599 24.15,9.23 28.744,18.618 
		39.095,20.161 31.585,27.431 33.317,37.744 	"/>
	<path fill="#014A79" d="M34.138,38.91l-10.077-5.346l-10.103,5.282l1.97-11.241l-8.146-8.003l11.296-1.597L24.153,7.79
		l5.013,10.257l11.29,1.684l-8.2,7.929L34.138,38.91z M24.083,32.143l8.396,4.455l-1.582-9.377l6.837-6.609l-9.411-1.403
		l-4.175-8.556l-4.23,8.52L10.5,20.495l6.789,6.659l-1.641,9.369L24.083,32.143z"/>
</g>
</svg>
