<?xml version="1.0" encoding="utf-8"?>
<!-- Generator: Adobe Illustrator 16.0.4, SVG Export Plug-In . SVG Version: 6.00 Build 0)  -->
<!DOCTYPE svg PUBLIC "-//W3C//DTD SVG 1.1//EN" "http://www.w3.org/Graphics/SVG/1.1/DTD/svg11.dtd">
<svg version="1.1" id="Ebene_1" xmlns="http://www.w3.org/2000/svg" xmlns:xlink="http://www.w3.org/1999/xlink" x="0px" y="0px"
	 width="48px" height="48px" viewBox="0 0 48 48" enable-background="new 0 0 48 48" xml:space="preserve">
<g>
	<g>
		<path fill="#7A7B7A" d="M47.631,47.631H0.369V0.369h47.262V47.631z M5.62,42.38h36.76V5.621H5.62V42.38z"/>
		<path fill="#454544" d="M48,48H0V0h48V48z M0.738,47.262h46.523V0.738H0.738V47.262z M42.749,42.749H5.251V5.251h37.498V42.749z
			 M5.989,42.011h36.021V5.99H5.989V42.011z"/>
	</g>
</g>
<g>
	<g>
		<polygon fill="#7A7B7A" points="19.969,34.292 11.178,24.245 15.191,20.733 20.229,26.49 32.534,14.184 36.306,17.955 		"/>
		<path fill="#454544" d="M19.95,34.841L10.648,24.21l4.578-4.006l5.021,5.738l12.287-12.288l4.302,4.301L19.95,34.841z
			 M11.707,24.28l8.28,9.463l15.788-15.788l-3.241-3.241L20.21,27.039l-5.054-5.777L11.707,24.28z"/>
	</g>
</g>
</svg>
