<?xml version="1.0" encoding="utf-8"?>
<!-- Generator: Adobe Illustrator 16.0.4, SVG Export Plug-In . SVG Version: 6.00 Build 0)  -->
<!DOCTYPE svg PUBLIC "-//W3C//DTD SVG 1.1//EN" "http://www.w3.org/Graphics/SVG/1.1/DTD/svg11.dtd">
<svg version="1.1" id="Ebene_1" xmlns="http://www.w3.org/2000/svg" xmlns:xlink="http://www.w3.org/1999/xlink" x="0px" y="0px"
	 width="64px" height="64px" viewBox="0 0 64 64" enable-background="new 0 0 64 64" xml:space="preserve">
<g>
	<linearGradient id="SVGID_1_" gradientUnits="userSpaceOnUse" x1="1.3857" y1="33.707" x2="62.6143" y2="33.707">
		<stop  offset="0" style="stop-color:#FAB843"/>
		<stop  offset="1" style="stop-color:#FFEE00"/>
	</linearGradient>
	<polygon fill-rule="evenodd" clip-rule="evenodd" fill="url(#SVGID_1_)" points="31.997,49.654 50.918,62.821 44.244,40.76 
		62.614,26.833 39.564,26.364 31.997,4.592 24.431,26.364 1.386,26.833 19.757,40.76 13.075,62.821 	"/>
	<path fill="#F8B93A" d="M12.219,64l6.984-23.06L0,26.383l24.088-0.489l7.909-22.76l7.909,22.76L64,26.383L44.798,40.94L51.775,64
		L31.997,50.235L12.219,64z M31.997,49.07l18.064,12.572L43.69,40.58l17.538-13.298L39.22,26.837L31.997,6.048l-7.223,20.789
		L2.771,27.282L20.311,40.58l-6.379,21.062L31.997,49.07z"/>
</g>
</svg>
