<?xml version="1.0" encoding="utf-8"?>
<!-- Generator: Adobe Illustrator 16.0.4, SVG Export Plug-In . SVG Version: 6.00 Build 0)  -->
<!DOCTYPE svg PUBLIC "-//W3C//DTD SVG 1.1//EN" "http://www.w3.org/Graphics/SVG/1.1/DTD/svg11.dtd">
<svg version="1.1" id="Ebene_1" xmlns="http://www.w3.org/2000/svg" xmlns:xlink="http://www.w3.org/1999/xlink" x="0px" y="0px"
	 width="64px" height="64px" viewBox="0 0 64 64" enable-background="new 0 0 64 64" xml:space="preserve">
<g>
	<linearGradient id="SVGID_1_" gradientUnits="userSpaceOnUse" x1="0.2988" y1="33.4385" x2="63.7012" y2="33.4385">
		<stop  offset="0" style="stop-color:#FFFFFF"/>
		<stop  offset="1" style="stop-color:#F4F4F6"/>
	</linearGradient>
	<polygon fill-rule="evenodd" clip-rule="evenodd" fill="url(#SVGID_1_)" points="31.997,49.952 51.59,63.587 44.68,40.743 
		63.701,26.321 39.832,25.836 31.997,3.29 24.162,25.836 0.299,26.321 19.321,40.743 12.403,63.587 	"/>
	<path fill="#9D9D9C" d="M12.687,63.993l-0.757-0.55l6.818-22.514L0,26.716l0.289-0.89l23.518-0.043L31.529,4h0.937l7.722,21.783
		l23.523,0.261L64,26.825L45.253,40.984l6.811,22.486l-0.756,0.536L31.997,50.562L12.687,63.993z M31.715,50h0.564l18.423,12.594
		L44.205,41l0.175-0.596l17.887-13.589l-22.444-0.469l-0.458-0.34L31.997,4.803L24.63,26.001l-0.458,0.332L1.733,26.787
		l17.888,13.561l0.175,0.538l-6.505,21.708L31.715,50z"/>
</g>
</svg>
