<?xml version="1.0" encoding="utf-8"?>
<!-- Generator: Adobe Illustrator 16.0.0, SVG Export Plug-In . SVG Version: 6.00 Build 0)  -->
<!DOCTYPE svg PUBLIC "-//W3C//DTD SVG 1.1//EN" "http://www.w3.org/Graphics/SVG/1.1/DTD/svg11.dtd">
<svg version="1.1" id="Ebene_1" xmlns="http://www.w3.org/2000/svg" xmlns:xlink="http://www.w3.org/1999/xlink" x="0px" y="0px"
	 width="64px" height="64px" viewBox="0 0 64 64" enable-background="new 0 0 64 64" xml:space="preserve">
<g>
	<path fill="#6F6F6F" d="M53.133,51.354l-0.812-1.515l-0.291-0.538l-2.439-4.554c-2.038-3.796-6.717-5.548-10.618-3.926
		c-0.331-0.558-0.948-1.604-1.778-3.012C43.742,26.657,53.358,8.855,48.032,0.926c0,0-9.308,15.826-16.272,27.657
		C24.794,16.752,15.486,0.926,15.486,0.926c-5.326,7.93,4.289,25.731,10.838,36.885c-0.83,1.406-1.448,2.454-1.779,3.012
		c-3.901-1.622-8.58,0.13-10.616,3.926l-2.44,4.554l-0.29,0.538l-0.812,1.515c-2.159,4.023-0.602,9.06,3.423,11.219
		c4.022,2.157,9.154,0.423,11.312-3.6l2.441-4.552l0.29-0.539l0.812-1.517c1.18-2.198,1.242-4.695,0.408-6.863
		c0.903-0.171,1.824-0.48,2.687-0.929c0.86,0.448,1.782,0.758,2.687,0.929c-0.836,2.168-0.771,4.665,0.407,6.863l0.812,1.517
		l0.29,0.539l2.441,4.552c2.158,4.022,7.29,5.757,11.312,3.6C53.733,60.414,55.291,55.378,53.133,51.354z M25.473,50.654
		l-1.074,2.068l0.002,0.002l-2.441,4.553c-1.227,2.285-4.176,3.374-6.461,2.147c-2.286-1.226-3.145-3.238-1.918-5.525l1.073-1.232
		h-0.002l2.44-5.387c1.226-2.287,4.177-3.791,6.463-2.565C25.839,45.94,26.698,48.369,25.473,50.654z M48.021,59.425
		c-2.286,1.227-5.235,0.138-6.462-2.147l-2.441-4.553l0.003-0.002l-1.074-2.068c-1.227-2.285-0.368-5.132,1.917-6.357
		c2.286-1.226,5.237,0.696,6.463,2.983l2.44,5.387h-0.002l1.073,1.232C51.166,56.187,50.307,58.199,48.021,59.425z"/>
	<path fill="#3C3C3B" d="M45.964,64L45.964,64c-3.299,0-6.439-1.881-8.001-4.793l-3.543-6.608c-1.108-2.063-1.326-4.488-0.622-6.733
		c-0.704-0.174-1.396-0.426-2.038-0.739c-0.644,0.313-1.336,0.565-2.039,0.739c0.703,2.246,0.485,4.671-0.621,6.733l-3.544,6.608
		C23.994,62.119,20.854,64,17.557,64c-1.393,0-2.769-0.342-3.979-0.992c-4.283-2.298-5.909-7.63-3.625-11.887l3.542-6.605
		c1.561-2.911,4.699-4.791,7.996-4.791c0.982,0,1.937,0.164,2.843,0.488c0.329-0.555,0.812-1.374,1.42-2.403
		C18.58,25.567,9.783,8.532,15.077,0.651l0.437-0.65l0.397,0.675c0,0,8.936,15.193,15.849,26.936
		C38.671,15.869,47.608,0.676,47.608,0.676l0.396-0.675l0.437,0.65c5.293,7.879-3.503,24.915-10.675,37.158
		c0.606,1.029,1.09,1.849,1.418,2.403c0.907-0.324,1.861-0.488,2.843-0.488c3.297,0,6.436,1.88,7.997,4.791l3.542,6.605
		c2.284,4.257,0.658,9.589-3.625,11.887C48.713,63.666,47.375,64,45.964,64z M31.76,44.019l0.228,0.118
		c0.786,0.409,1.668,0.715,2.551,0.882l0.581,0.11l-0.212,0.552c-0.819,2.123-0.681,4.475,0.381,6.452l3.543,6.608
		c1.394,2.596,4.192,4.273,7.132,4.273c1.247,0,2.43-0.295,3.513-0.875c3.804-2.041,5.249-6.774,3.223-10.553l-3.542-6.605
		c-1.393-2.595-4.191-4.271-7.129-4.271c-0.996,0-1.961,0.191-2.865,0.567l-0.395,0.164l-0.219-0.367
		c-0.331-0.559-0.949-1.604-1.779-3.014l-0.147-0.249l0.146-0.25C43.622,25.889,52.119,9.673,48.035,1.894
		c-1.892,3.216-9.766,16.603-15.852,26.939l-0.424,0.722l-0.425-0.722C25.248,18.496,17.375,5.109,15.483,1.894
		c-4.084,7.78,4.412,23.995,11.267,35.668l0.146,0.25l-0.147,0.249c-0.83,1.408-1.449,2.455-1.78,3.014l-0.219,0.367l-0.395-0.164
		c-0.904-0.376-1.869-0.567-2.865-0.567c-2.938,0-5.735,1.677-7.128,4.271l-3.542,6.605c-2.026,3.778-0.58,8.512,3.223,10.553
		c1.083,0.58,2.266,0.875,3.514,0.875c2.938,0,5.738-1.678,7.131-4.273l3.543-6.608c1.061-1.977,1.2-4.328,0.383-6.452l-0.212-0.552
		l0.58-0.11c0.881-0.167,1.763-0.473,2.551-0.882L31.76,44.019z M45.966,60.429c-1.989,0-3.889-1.146-4.841-2.918l-2.653-4.948
		l0.008-0.006l-0.87-1.675c-0.653-1.216-0.792-2.619-0.393-3.946c0.4-1.326,1.293-2.418,2.515-3.073
		c0.657-0.353,1.379-0.531,2.145-0.531c1.993,0,3.997,1.238,4.984,3.082l2.445,4.76l1.061,1.848
		c0.661,1.231,0.801,2.603,0.401,3.872c-0.396,1.257-1.289,2.311-2.513,2.967C47.551,60.237,46.781,60.429,45.966,60.429z
		 M39.679,52.728l2.315,4.316c0.781,1.457,2.34,2.398,3.972,2.398c0.65,0,1.265-0.152,1.823-0.451
		c0.995-0.534,1.72-1.386,2.038-2.396c0.319-1.014,0.205-2.113-0.322-3.097l-1.067-1.855l-2.45-4.772
		c-0.817-1.524-2.472-2.554-4.111-2.554c-0.602,0-1.166,0.14-1.679,0.414c-0.988,0.53-1.713,1.414-2.036,2.489
		c-0.324,1.074-0.211,2.212,0.319,3.2L39.679,52.728z M17.555,60.429c-0.816,0-1.586-0.191-2.29-0.569
		c-1.224-0.656-2.116-1.71-2.513-2.967c-0.4-1.27-0.261-2.64,0.394-3.859l1.08-1.88l2.428-4.732
		c0.967-1.803,2.942-3.008,4.919-3.008c0.79,0,1.535,0.185,2.215,0.55c1.223,0.655,2.115,1.729,2.514,3.021
		c0.4,1.298,0.261,2.684-0.395,3.903l-0.903,1.742l0.003,0.004l-2.612,4.878C21.442,59.283,19.542,60.429,17.555,60.429z
		 M21.572,44.398c-1.624,0-3.251,0.997-4.046,2.48l-2.437,4.745l-1.083,1.888c-0.521,0.971-0.635,2.07-0.315,3.084
		c0.318,1.01,1.043,1.861,2.039,2.396c0.559,0.299,1.172,0.451,1.824,0.451c1.63,0,3.188-0.941,3.97-2.398l3.511-6.617
		c0.531-0.991,0.646-2.109,0.323-3.153c-0.321-1.042-1.044-1.91-2.037-2.442C22.787,44.544,22.198,44.398,21.572,44.398z"/>
</g>
</svg>
