<?xml version="1.0" encoding="utf-8"?>
<!-- Generator: Adobe Illustrator 15.1.0, SVG Export Plug-In . SVG Version: 6.00 Build 0)  -->
<!DOCTYPE svg PUBLIC "-//W3C//DTD SVG 1.1//EN" "http://www.w3.org/Graphics/SVG/1.1/DTD/svg11.dtd">
<svg version="1.1" id="Ebene_1" xmlns="http://www.w3.org/2000/svg" xmlns:xlink="http://www.w3.org/1999/xlink" x="0px" y="0px"
	 width="64px" height="64px" viewBox="0 0 64 64" enable-background="new 0 0 64 64" xml:space="preserve">
<g>
	<path fill="#605F61" d="M54.578,9.447L41.471,0.632L5.255,36.852L0.607,63.396l26.545-4.65l36.213-36.221L54.578,9.447z
		 M11.878,57.138l-4.952-4.952l1.406-11.106l10.207,4.139l4.143,10.213L11.878,57.138z"/>
	<path fill="#575756" d="M0.003,64l4.795-27.386l0.11-0.109L41.41,0l13.576,9.174l9.01,13.412L27.39,59.202L0.003,64z M5.711,37.089
		l-4.5,25.705l25.705-4.504l35.817-35.826L54.225,9.801L41.533,1.265L5.711,37.089z M11.708,57.66l-5.299-5.297l1.516-11.979
		l10.99,4.456l4.453,10.978L11.708,57.66z M7.443,52.009l4.605,4.605l9.947-1.571l-3.832-9.449l-9.425-3.82L7.443,52.009z"/>
</g>
</svg>
