<?xml version="1.0" encoding="utf-8"?>
<!-- Generator: Adobe Illustrator 16.0.0, SVG Export Plug-In . SVG Version: 6.00 Build 0)  -->
<!DOCTYPE svg PUBLIC "-//W3C//DTD SVG 1.1//EN" "http://www.w3.org/Graphics/SVG/1.1/DTD/svg11.dtd">
<svg version="1.1" id="Ebene_1" xmlns="http://www.w3.org/2000/svg" xmlns:xlink="http://www.w3.org/1999/xlink" x="0px" y="0px"
	 width="64px" height="64px" viewBox="0 0 64 64" enable-background="new 0 0 64 64" xml:space="preserve">
<g>
	<g>
		<g>
			<linearGradient id="SVGID_1_" gradientUnits="userSpaceOnUse" x1="20.6553" y1="1.0166" x2="45.1992" y2="68.4506">
				<stop  offset="0" style="stop-color:#FFFFFF"/>
				<stop  offset="1" style="stop-color:#ECECEC"/>
			</linearGradient>
			<polygon fill="url(#SVGID_1_)" points="58.447,0.371 22.428,0.371 5.416,17.381 5.416,63.629 58.447,63.629 			"/>
			<path fill="#9D9D9C" d="M58.818,64H5.045V17.228l0.108-0.108L22.274,0h36.544V64z M5.786,63.259h52.291V0.741H22.581
				L5.786,17.535V63.259z"/>
		</g>
		<g>
			<linearGradient id="SVGID_2_" gradientUnits="userSpaceOnUse" x1="12.1836" y1="4.0996" x2="17.6506" y2="19.12">
				<stop  offset="0" style="stop-color:#FFFFFF"/>
				<stop  offset="1" style="stop-color:#ECECEC"/>
			</linearGradient>
			<polygon fill="url(#SVGID_2_)" points="22.428,0.371 5.416,17.381 22.428,17.381 			"/>
			<path fill="#9D9D9C" d="M22.428,17.752H5.416c-0.149,0-0.285-0.091-0.343-0.229c-0.057-0.14-0.025-0.299,0.08-0.404L22.165,0.108
				c0.106-0.106,0.266-0.137,0.404-0.08c0.138,0.058,0.229,0.192,0.229,0.343v17.01C22.798,17.586,22.632,17.752,22.428,17.752z
				 M6.311,17.011h15.746V1.266L6.311,17.011z"/>
		</g>
	</g>
	<g>
		<linearGradient id="SVGID_3_" gradientUnits="userSpaceOnUse" x1="37.1133" y1="22.0469" x2="37.1133" y2="55.3613">
			<stop  offset="0" style="stop-color:#009EE2"/>
			<stop  offset="1" style="stop-color:#00416E"/>
		</linearGradient>
		<polygon fill-rule="evenodd" clip-rule="evenodd" fill="url(#SVGID_3_)" points="38.097,38.707 52.786,22.047 37.844,22.047 
			21.441,38.707 37.844,55.361 52.786,55.361 		"/>
		<path fill="#00416E" d="M53.881,55.855H37.637l-16.89-17.148l16.89-17.154h16.244L38.756,38.707L53.881,55.855z M38.05,54.867
			h13.643l-14.255-16.16l14.255-16.165H38.05L22.135,38.707L38.05,54.867z"/>
	</g>
</g>
</svg>
