<?xml version="1.0" encoding="utf-8"?>
<!-- Generator: Adobe Illustrator 16.0.4, SVG Export Plug-In . SVG Version: 6.00 Build 0)  -->
<!DOCTYPE svg PUBLIC "-//W3C//DTD SVG 1.1//EN" "http://www.w3.org/Graphics/SVG/1.1/DTD/svg11.dtd">
<svg version="1.1" id="Ebene_1" xmlns="http://www.w3.org/2000/svg" xmlns:xlink="http://www.w3.org/1999/xlink" x="0px" y="0px"
	 width="64px" height="64px" viewBox="0 0 64 64" enable-background="new 0 0 64 64" xml:space="preserve">
<g>
	<g>
		<g>
			
				<linearGradient id="SVGID_1_" gradientUnits="userSpaceOnUse" x1="29.998" y1="817.5508" x2="29.998" y2="781.2461" gradientTransform="matrix(1 0 0 -1 2 835.293)">
				<stop  offset="0" style="stop-color:#E30613"/>
				<stop  offset="1" style="stop-color:#BE1622"/>
			</linearGradient>
			<polygon fill="url(#SVGID_1_)" points="60.396,54.047 3.604,54.047 0.262,17.742 63.737,17.742 			"/>
			<path fill="#A42423" d="M60.396,54.309H3.604c-0.138,0-0.249-0.104-0.264-0.239L0.001,17.766
				c-0.007-0.073,0.017-0.146,0.067-0.201c0.05-0.054,0.12-0.084,0.193-0.084h63.476c0.073,0,0.145,0.03,0.193,0.084
				c0.051,0.056,0.074,0.128,0.067,0.201l-3.34,36.304C60.645,54.204,60.532,54.309,60.396,54.309z M3.841,53.785h56.316
				l3.292-35.781H0.551L3.841,53.785z"/>
		</g>
		<g>
			<linearGradient id="SVGID_2_" gradientUnits="userSpaceOnUse" x1="32" y1="17.7422" x2="32" y2="9.9531">
				<stop  offset="0" style="stop-color:#66160E"/>
				<stop  offset="0.2414" style="stop-color:#801D18"/>
				<stop  offset="0.5665" style="stop-color:#A42423"/>
			</linearGradient>
			<path fill="url(#SVGID_2_)" d="M21.385,15.613v-4.156c0-0.923-0.675-1.504-1.504-1.504H4.52c-0.829,0-1.585,0.285-1.585,1.504
				v4.524l-2.673,1.761h63.476l-3.342-2.129H21.385z"/>
			<path fill="#66160E" d="M63.737,18.004H0.262c-0.116,0-0.217-0.075-0.251-0.187c-0.032-0.111,0.01-0.231,0.107-0.295l2.555-1.684
				v-4.382c0-0.806,0.32-1.766,1.847-1.766h15.361c1.022,0,1.766,0.742,1.766,1.766v3.895h38.749c0.051,0,0.099,0.014,0.143,0.04
				l3.34,2.129c0.1,0.062,0.144,0.183,0.111,0.295C63.956,17.928,63.854,18.004,63.737,18.004z M1.137,17.48h61.7l-2.518-1.605
				H21.385c-0.144,0-0.262-0.117-0.262-0.262v-4.156c0-0.73-0.51-1.242-1.242-1.242H4.52c-0.929,0-1.323,0.371-1.323,1.242v4.524
				c0,0.088-0.045,0.169-0.118,0.219L1.137,17.48z"/>
		</g>
	</g>
	<g>
		<polygon fill-rule="evenodd" clip-rule="evenodd" fill="#FFFFFF" points="20.486,35.537 30.71,23.94 20.309,23.94 8.891,35.537 
			20.309,47.131 30.71,47.131 		"/>
		<path fill="#AB1B66" d="M31.582,47.524H20.143L8.338,35.537l11.805-11.989h11.439L21.01,35.537L31.582,47.524z M20.474,46.738
			h9.364L19.96,35.537l9.878-11.203h-9.364L9.443,35.537L20.474,46.738z"/>
	</g>
</g>
</svg>
