<?xml version="1.0" encoding="utf-8"?>
<!-- Generator: Adobe Illustrator 16.0.4, SVG Export Plug-In . SVG Version: 6.00 Build 0)  -->
<!DOCTYPE svg PUBLIC "-//W3C//DTD SVG 1.1//EN" "http://www.w3.org/Graphics/SVG/1.1/DTD/svg11.dtd">
<svg version="1.1" id="Ebene_1" xmlns="http://www.w3.org/2000/svg" xmlns:xlink="http://www.w3.org/1999/xlink" x="0px" y="0px"
	 width="64px" height="64px" viewBox="0 0 64 64" enable-background="new 0 0 64 64" xml:space="preserve">
<g>
	<g>
		<path fill-rule="evenodd" clip-rule="evenodd" fill="#FFDB00" d="M0.478,38.938c0,8.57,6.943,15.614,15.51,15.614h31.834
			l-7.905,8.971h11.163l12.25-12.451l-12.25-12.45H39.916l8.1,9.188l-32.028-0.058c-4.864,0-8.812-3.947-8.812-8.813v-5.253
			c0-4.868,4.417-8.78,9.282-8.78h22.545l-0.005-6.739h-22.54c-8.565,0-15.98,6.948-15.98,15.52V38.938z"/>
		<path fill="#F8B93A" d="M51.281,64H38.856l7.905-8.969H15.987C7.172,55.031,0,47.812,0,38.938v-5.253
			c0-8.67,7.536-15.997,16.458-15.997h23.019l0.004,7.694H16.458c-4.772,0-8.803,3.802-8.803,8.303v5.253
			c0,4.595,3.738,8.336,8.332,8.336l30.967,0.056l-8.098-9.187h12.425L64,51.071L51.281,64z M40.977,63.042h9.901l11.779-11.971
			L50.878,39.099h-9.901l8.101,9.189l-33.091-0.06c-5.122,0-9.289-4.167-9.289-9.291v-5.253c0-5.02,4.469-9.26,9.761-9.26h22.067
			l-0.005-5.779H16.458c-8.403,0-15.5,6.886-15.5,15.039v5.253c0,8.346,6.741,15.137,15.029,15.137h32.894L40.977,63.042z"/>
	</g>
	<g id="Datei_7_">
		<g>
			<linearGradient id="SVGID_1_" gradientUnits="userSpaceOnUse" x1="30.5645" y1="6.1816" x2="41.6417" y2="36.6161">
				<stop  offset="0" style="stop-color:#FFFFFF"/>
				<stop  offset="1" style="stop-color:#DBDDDE"/>
			</linearGradient>
			<rect x="18.38" y="10.616" fill="url(#SVGID_1_)" width="35.444" height="21.565"/>
			<path fill="#9D9D9C" d="M53.824,32.66H18.38l-0.478-0.479V10.616l0.478-0.479h35.444l0.478,0.479v21.565L53.824,32.66z
				 M18.858,31.704h34.486v-20.61H18.858V31.704z"/>
		</g>
		<g>
			<linearGradient id="SVGID_2_" gradientUnits="userSpaceOnUse" x1="30.5645" y1="6.1816" x2="41.6417" y2="36.6161">
				<stop  offset="0" style="stop-color:#FFFFFF"/>
				<stop  offset="1" style="stop-color:#F4F4F6"/>
			</linearGradient>
			<polygon fill="url(#SVGID_2_)" points="53.824,10.616 35.746,21.326 18.38,10.616 18.38,32.182 53.824,32.182 			"/>
			<path fill="#9D9D9C" d="M53.824,32.66H18.38l-0.478-0.479V10.616l0.729-0.407l17.119,10.559l17.83-10.563l0.721,0.412v21.565
				L53.824,32.66z M18.858,31.704h34.486V11.456L35.989,21.737l-0.495-0.005l-16.636-10.26V31.704z"/>
		</g>
	</g>
</g>
</svg>
