<?xml version="1.0" encoding="utf-8"?>
<!-- Generator: Adobe Illustrator 16.0.0, SVG Export Plug-In . SVG Version: 6.00 Build 0)  -->
<!DOCTYPE svg PUBLIC "-//W3C//DTD SVG 1.1//EN" "http://www.w3.org/Graphics/SVG/1.1/DTD/svg11.dtd">
<svg version="1.1" id="Ebene_1" xmlns="http://www.w3.org/2000/svg" xmlns:xlink="http://www.w3.org/1999/xlink" x="0px" y="0px"
	 width="64px" height="64px" viewBox="0 0 64 64" enable-background="new 0 0 64 64" xml:space="preserve">
<g>
	<linearGradient id="SVGID_1_" gradientUnits="userSpaceOnUse" x1="63.4961" y1="32" x2="0.5039" y2="32">
		<stop  offset="0" style="stop-color:#009EE2"/>
		<stop  offset="1" style="stop-color:#00416E"/>
	</linearGradient>
	<path fill-rule="evenodd" clip-rule="evenodd" fill="url(#SVGID_1_)" d="M25.862,14.588h6.829L19.768,0.5h18.253l20.031,19.559
		L38.021,39.616H19.768L33.01,25.182l-7.147,0.09c-7.955,0-14.406,6.199-14.406,13.848s7.22,13.796,15.174,13.796h36.866
		L63.492,63.5H26.63c-14.003,0-26.126-10.916-26.126-24.381S11.855,14.588,25.862,14.588z"/>
	<path fill="#00416E" d="M63.996,64H26.63C12.195,64,0,52.605,0,39.119c0-13.802,11.602-25.031,25.862-25.031h5.688L18.628,0h19.599
		l20.544,20.059L38.227,40.116H18.629l13.227-14.42l-5.987,0.075c-7.672,0-13.909,5.987-13.909,13.348
		c0,7.207,6.719,13.296,14.671,13.296H64L63.996,64z M25.862,15.089c-13.705,0-24.855,10.779-24.855,24.03
		C1.007,52.063,12.741,63,26.63,63h36.359l0.004-9.584H26.63c-8.498,0-15.678-6.548-15.678-14.297
		c0-7.911,6.689-14.349,14.91-14.349l8.301-0.104l-13.256,14.45h16.908l19.518-19.058L37.815,1.001H20.908l12.924,14.088H25.862z"/>
</g>
</svg>
