<?xml version="1.0" encoding="utf-8"?>
<!-- Generator: Adobe Illustrator 15.1.0, SVG Export Plug-In . SVG Version: 6.00 Build 0)  -->
<!DOCTYPE svg PUBLIC "-//W3C//DTD SVG 1.1//EN" "http://www.w3.org/Graphics/SVG/1.1/DTD/svg11.dtd">
<svg version="1.1" id="Ebene_1" xmlns="http://www.w3.org/2000/svg" xmlns:xlink="http://www.w3.org/1999/xlink" x="0px" y="0px"
	 width="64px" height="64px" viewBox="0 0 64 64" enable-background="new 0 0 64 64" xml:space="preserve">
<g>
	<g>
		<linearGradient id="SVGID_1_" gradientUnits="userSpaceOnUse" x1="12.2891" y1="26.4141" x2="63.2178" y2="26.4141">
			<stop  offset="0" style="stop-color:#009EE2"/>
			<stop  offset="1" style="stop-color:#16527B"/>
		</linearGradient>
		<path fill-rule="evenodd" clip-rule="evenodd" fill="url(#SVGID_1_)" d="M12.759,16.913l8.388,0.045
			c6.342-6.342,18.153-4.818,24.494,1.523c6.343,6.343,7.212,18.722,0.871,25.065l9.079-0.811l-0.305,9.586
			C66.45,41.157,65.54,20.915,54.375,9.75C43.206-1.416,23.456-3.064,12.289,8.1L12.759,16.913z"/>
		<path fill="#16527B" d="M54.741,53.582l0.327-10.292l-9.896,0.883l0.982-0.983c5.924-5.927,5.491-17.988-0.87-24.351
			C41.88,15.434,36.831,13.4,31.783,13.4c-4.104,0-7.755,1.391-10.279,3.914l-0.149,0.149l-9.074-0.048l-0.507-9.515l0.159-0.159
			C16.926,2.75,23.92,0,31.627,0c8.713,0,17.133,3.424,23.104,9.393C66.297,20.958,66.73,41.59,55.643,52.68L54.741,53.582z
			 M56.114,42.185l-0.281,8.827c9.776-10.911,9.051-30.038-1.815-40.905C48.235,4.325,40.074,1.01,31.627,1.01
			c-7.355,0-14.03,2.587-18.822,7.289l0.433,8.112l7.703,0.041c2.708-2.621,6.549-4.062,10.842-4.062
			c5.31,0,10.625,2.144,14.214,5.734c6.394,6.393,7.1,18.25,1.751,24.804L56.114,42.185z"/>
	</g>
	<g>
		<linearGradient id="SVGID_2_" gradientUnits="userSpaceOnUse" x1="0.7827" y1="37.5879" x2="51.71" y2="37.5879">
			<stop  offset="0" style="stop-color:#16527B"/>
			<stop  offset="1" style="stop-color:#009EE2"/>
		</linearGradient>
		<path fill-rule="evenodd" clip-rule="evenodd" fill="url(#SVGID_2_)" d="M51.242,47.088l-8.389-0.044
			c-6.343,6.342-18.152,4.819-24.495-1.524c-6.341-6.342-7.211-18.722-0.87-25.064l-9.078,0.81l0.303-9.585
			C-2.45,22.845-1.539,43.085,9.627,54.252c11.166,11.166,30.917,12.814,42.083,1.649L51.242,47.088z"/>
		<path fill="#16527B" d="M32.374,64c-0.001,0-0.001,0-0.002,0c-8.713,0-17.133-3.423-23.101-9.392
			C-2.295,43.042-2.731,22.411,8.356,11.323l0.901-0.902l-0.324,10.29l9.894-0.882l-0.982,0.982
			c-5.924,5.926-5.493,17.988,0.871,24.352c3.406,3.405,8.452,5.438,13.5,5.438c0,0,0,0,0.001,0c4.105,0,7.756-1.392,10.282-3.915
			l0.147-0.148l9.075,0.048l0.506,9.515l-0.159,0.158C47.074,61.252,40.08,64,32.374,64z M8.167,12.991
			C-1.608,23.9-0.884,43.027,9.984,53.896c5.78,5.779,13.94,9.096,22.388,9.097c0,0,0.002,0,0.002,0
			c7.355,0,14.028-2.587,18.82-7.289l-0.433-8.113l-7.702-0.04c-2.708,2.621-6.549,4.062-10.843,4.062h-0.001
			c-5.31,0-10.623-2.145-14.213-5.734c-6.393-6.394-7.098-18.251-1.75-24.805l-8.363,0.745L8.167,12.991z"/>
	</g>
</g>
</svg>
