<?xml version="1.0" encoding="utf-8"?>
<!-- Generator: Adobe Illustrator 16.0.4, SVG Export Plug-In . SVG Version: 6.00 Build 0)  -->
<!DOCTYPE svg PUBLIC "-//W3C//DTD SVG 1.1//EN" "http://www.w3.org/Graphics/SVG/1.1/DTD/svg11.dtd">
<svg version="1.1" id="Ebene_1" xmlns="http://www.w3.org/2000/svg" xmlns:xlink="http://www.w3.org/1999/xlink" x="0px" y="0px"
	 width="64px" height="64px" viewBox="0 0 64 64" enable-background="new 0 0 64 64" xml:space="preserve">
<g>
	<g>
		<linearGradient id="SVGID_1_" gradientUnits="userSpaceOnUse" x1="0.5166" y1="32.1514" x2="63.4834" y2="32.1514">
			<stop  offset="0" style="stop-color:#FFFFFF"/>
			<stop  offset="1" style="stop-color:#EEEEEE"/>
		</linearGradient>
		<rect x="0.517" y="19.15" fill="url(#SVGID_1_)" width="62.967" height="26.002"/>
		<path fill="#9D9D9C" d="M64,45.673H0v-27.04h64V45.673z M1.036,44.635h61.928V19.67H1.036V44.635z"/>
	</g>
	<g>
		<linearGradient id="SVGID_2_" gradientUnits="userSpaceOnUse" x1="44.8379" y1="31.9902" x2="44.8379" y2="31.9902">
			<stop  offset="0" style="stop-color:#E50512"/>
			<stop  offset="1" style="stop-color:#C41726"/>
		</linearGradient>
		<line fill="url(#SVGID_2_)" x1="44.838" y1="10.598" x2="44.838" y2="53.383"/>
		<rect x="42.769" y="10.598" fill="#00416E" width="4.143" height="42.785"/>
	</g>
	<g>
		<linearGradient id="SVGID_3_" gradientUnits="userSpaceOnUse" x1="37.5049" y1="53.4023" x2="52.1709" y2="53.4023">
			<stop  offset="0" style="stop-color:#E50512"/>
			<stop  offset="1" style="stop-color:#C41726"/>
		</linearGradient>
		<line fill="url(#SVGID_3_)" x1="37.505" y1="53.402" x2="52.171" y2="53.402"/>
		<rect x="37.505" y="51.332" fill="#00416E" width="14.666" height="4.145"/>
	</g>
	<g>
		<linearGradient id="SVGID_4_" gradientUnits="userSpaceOnUse" x1="37.5049" y1="10.5977" x2="52.1709" y2="10.5977">
			<stop  offset="0" style="stop-color:#E50512"/>
			<stop  offset="1" style="stop-color:#C41726"/>
		</linearGradient>
		<line fill="url(#SVGID_4_)" x1="37.505" y1="10.598" x2="52.171" y2="10.598"/>
		<rect x="37.505" y="8.523" fill="#00416E" width="14.666" height="4.145"/>
	</g>
	<rect x="5.224" y="37.506" fill="#00416E" width="3.794" height="3.794"/>
	<rect x="12.296" y="37.506" fill="#00416E" width="3.794" height="3.794"/>
	<rect x="19.195" y="37.506" fill="#00416E" width="3.797" height="3.794"/>
</g>
</svg>
