<?xml version="1.0" encoding="utf-8"?>
<!-- Generator: Adobe Illustrator 16.0.4, SVG Export Plug-In . SVG Version: 6.00 Build 0)  -->
<!DOCTYPE svg PUBLIC "-//W3C//DTD SVG 1.1//EN" "http://www.w3.org/Graphics/SVG/1.1/DTD/svg11.dtd">
<svg version="1.1" id="Ebene_1" xmlns="http://www.w3.org/2000/svg" xmlns:xlink="http://www.w3.org/1999/xlink" x="0px" y="0px"
	 width="64px" height="64px" viewBox="0 0 64 64" enable-background="new 0 0 64 64" xml:space="preserve">
<g>
	<g>
		
			<linearGradient id="SVGID_1_" gradientUnits="userSpaceOnUse" x1="-163.3652" y1="350.7529" x2="-100.8359" y2="350.7529" gradientTransform="matrix(-4.371139e-08 1 -1 -4.371139e-08 382.7524 164.1025)">
			<stop  offset="0" style="stop-color:#FFFFFF"/>
			<stop  offset="1" style="stop-color:#F4F4F6"/>
		</linearGradient>
		<rect x="0.733" y="0.737" fill-rule="evenodd" clip-rule="evenodd" fill="url(#SVGID_1_)" width="62.533" height="62.529"/>
		<path fill="#6F6F6F" d="M63.267,64h-4.638v-1.466h3.902v-1.968H64v2.7L63.267,64z M52.759,64h-7.338v-1.466h7.338V64z M39.552,64
			h-7.336v-1.466h7.336V64z M26.344,64h-7.335v-1.466h7.335V64z M13.139,64H5.801v-1.466h7.338V64z M1.468,63.267H0v-7.338h1.468
			V63.267z M64,54.697h-1.469v-7.335H64V54.697z M1.468,50.06H0v-7.336h1.468V50.06z M64,41.489h-1.469v-7.336H64V41.489z
			 M1.468,36.854H0v-7.339h1.468V36.854z M64,28.284h-1.469v-7.339H64V28.284z M1.468,23.646H0v-7.339h1.468V23.646z M64,15.076
			h-1.469V7.737H64V15.076z M1.468,10.438H0V3.103h1.468V10.438z M64,1.869h-1.469v-0.4h-5.468V0h6.203L64,0.737V1.869z
			 M51.194,1.469h-7.339V0h7.339V1.469z M37.987,1.469h-7.336V0h7.336V1.469z M24.781,1.469h-7.338V0h7.338V1.469z M11.574,1.469
			H4.235V0h7.339V1.469z"/>
	</g>
	<g>
		
			<linearGradient id="SVGID_2_" gradientUnits="userSpaceOnUse" x1="-162.7725" y1="360.3955" x2="-121.2402" y2="360.3955" gradientTransform="matrix(-4.371139e-08 1 -1 -4.371139e-08 382.7524 164.1025)">
			<stop  offset="0" style="stop-color:#FFFFFF"/>
			<stop  offset="1" style="stop-color:#F4F4F6"/>
		</linearGradient>
		<polyline fill-rule="evenodd" clip-rule="evenodd" fill="url(#SVGID_2_)" points="43.123,1.33 43.123,42.862 1.592,42.862 		"/>
		<path fill="#6F6F6F" d="M40.632,43.596h-4.403v-1.469h4.403V43.596z M33.293,43.596h-4.4v-1.469h4.4V43.596z M25.958,43.596
			h-4.403v-1.469h4.403V43.596z M18.619,43.596h-4.4v-1.469h4.4V43.596z M11.281,43.596h-4.4v-1.469h4.4V43.596z M3.945,43.596
			H1.592v-1.469h2.354V43.596z M43.855,42.42h-1.465v-4.403h1.465V42.42z M43.855,35.082h-1.465v-4.404h1.465V35.082z
			 M43.855,27.744h-1.465v-4.401h1.465V27.744z M43.855,20.408h-1.465v-4.404h1.465V20.408z M43.855,13.07h-1.465V8.669h1.465V13.07
			z M43.855,5.734h-1.465V1.33h1.465V5.734z"/>
	</g>
	<g>
		<rect x="0.55" y="0.551" fill-rule="evenodd" clip-rule="evenodd" fill="#9D9D9C" width="29.164" height="29.162"/>
		<path fill="#605F61" d="M30.264,30.262H0V0h30.264V30.262z M1.099,29.163h28.063V1.102H1.099V29.163z"/>
	</g>
	
		<linearGradient id="SVGID_3_" gradientUnits="userSpaceOnUse" x1="368.748" y1="394.9756" x2="334.0093" y2="360.2369" gradientTransform="matrix(-0.7071 -0.7071 0.7071 -0.7071 14.2952 548.0562)">
		<stop  offset="0" style="stop-color:#03A7E5"/>
		<stop  offset="1" style="stop-color:#014A79"/>
	</linearGradient>
	<polygon fill-rule="evenodd" clip-rule="evenodd" fill="url(#SVGID_3_)" stroke="#014A79" stroke-miterlimit="10" points="
		14.299,8.023 49.565,43.283 50.489,28.496 57.333,35.34 57.164,56.987 35.526,57.151 28.679,50.307 43.829,49.359 8.346,13.979 	
		"/>
</g>
</svg>
