<?xml version="1.0" encoding="utf-8"?>
<!-- Generator: Adobe Illustrator 16.0.4, SVG Export Plug-In . SVG Version: 6.00 Build 0)  -->
<!DOCTYPE svg PUBLIC "-//W3C//DTD SVG 1.1//EN" "http://www.w3.org/Graphics/SVG/1.1/DTD/svg11.dtd">
<svg version="1.1" id="Ebene_1" xmlns="http://www.w3.org/2000/svg" xmlns:xlink="http://www.w3.org/1999/xlink" x="0px" y="0px"
	 width="64px" height="64px" viewBox="0 0 64 64" enable-background="new 0 0 64 64" xml:space="preserve">
<g>
	<g>
		<g>
			<g>
				<path fill="#C6C6C6" d="M47.463,10.762L29.161,29.062l18.232,18.232c4.689-4.683,7.593-11.152,7.595-18.301
					C54.99,21.877,52.115,15.434,47.463,10.762z"/>
				<path fill="#605F61" d="M47.605,47.508h-0.425L28.948,29.275V28.85L47.25,10.549h0.426c4.911,4.933,7.615,11.483,7.613,18.445
					C55.287,35.988,52.559,42.563,47.605,47.508z M29.586,29.062l17.807,17.807c4.705-4.806,7.293-11.142,7.295-17.875
					c0.002-6.702-2.562-13.013-7.226-17.806L29.586,29.062z"/>
			</g>
		</g>
		<g>
			<g>
				<path fill="#9D9D9C" d="M26.007,3.558c-4.463,0.043-11.988,1.195-18.27,7.477C-1.878,20.649-2.368,37.5,7.726,47.594
					c10.092,10.093,26.459,10.088,36.559-0.012L26.011,29.309C26.011,29.309,26.004,4.116,26.007,3.558z M28.207,3.757"/>
				<path fill="#605F61" d="M25.996,55.461c-0.002,0-0.002,0-0.003,0c-6.982,0-13.545-2.719-18.481-7.654
					C-2.509,37.785-2.503,20.849,7.523,10.821c6.491-6.489,14.364-7.524,18.48-7.564c0.001,0,0.002,0,0.003,0
					c0.079,0,0.155,0.031,0.212,0.088c0.058,0.057,0.089,0.134,0.089,0.214c-0.003,0.531,0.003,23.703,0.004,25.625l18.186,18.186
					c0.057,0.057,0.088,0.133,0.088,0.213s-0.031,0.156-0.088,0.213C39.554,52.738,32.982,55.461,25.996,55.461z M25.706,3.863
					C21.607,3.95,14.132,5.064,7.95,11.247c-9.797,9.796-9.803,26.344-0.012,36.134c4.821,4.822,11.233,7.479,18.055,7.479
					c0.001,0,0.002,0,0.002,0c6.727,0,13.058-2.582,17.862-7.279l-18.06-18.059c-0.057-0.057-0.088-0.134-0.088-0.213
					C25.71,29.07,25.704,6.789,25.706,3.863z"/>
			</g>
		</g>
		<g>
			<g>
				
					<linearGradient id="SVGID_1_" gradientUnits="userSpaceOnUse" x1="209.9287" y1="275.1836" x2="235.7617" y2="275.1836" gradientTransform="matrix(0.7071 -0.7071 0.7071 0.7071 -321.0323 -26.4125)">
					<stop  offset="0" style="stop-color:#FFFFFF"/>
					<stop  offset="1" style="stop-color:#F4F4F6"/>
				</linearGradient>
				<path fill="url(#SVGID_1_)" d="M46.704,7.905c-5.03-5.027-11.625-7.541-18.225-7.546l-0.042,25.812L46.704,7.905z"/>
				<path fill="#605F61" d="M28.65,26.385l-0.514-0.214l0.042-25.812l0.301-0.3c6.969,0.005,13.517,2.716,18.438,7.634v0.426
					L28.65,26.385z M28.779,0.661l-0.04,24.783L46.277,7.906C41.566,3.306,35.375,0.742,28.779,0.661z"/>
			</g>
		</g>
	</g>
	<g>
		
			<linearGradient id="SVGID_2_" gradientUnits="userSpaceOnUse" x1="-597.2202" y1="-1630.354" x2="-572.1152" y2="-1605.2489" gradientTransform="matrix(0.7071 0.7071 -0.7071 0.7071 -684.6802 1603.1553)">
			<stop  offset="0" style="stop-color:#42A03F"/>
			<stop  offset="1" style="stop-color:#348342"/>
		</linearGradient>
		<polygon fill="url(#SVGID_2_)" points="63.6,50.869 63.6,40.709 50.929,40.709 50.929,28.037 40.769,28.037 40.769,40.709 
			28.098,40.709 28.098,50.869 40.769,50.869 40.769,63.541 50.929,63.541 50.929,50.869 		"/>
		<path fill="#25632C" d="M51.329,63.941H40.368V51.271H27.697V40.308h12.671V27.637h10.961v12.671H64v10.963H51.329V63.941z
			 M41.198,63.033h9.301V50.44h12.593v-9.303H50.499V28.545h-9.301v12.593H28.605v9.303h12.593V63.033z"/>
	</g>
</g>
</svg>
