<?xml version="1.0" encoding="utf-8"?>
<!-- Generator: Adobe Illustrator 16.0.4, SVG Export Plug-In . SVG Version: 6.00 Build 0)  -->
<!DOCTYPE svg PUBLIC "-//W3C//DTD SVG 1.1//EN" "http://www.w3.org/Graphics/SVG/1.1/DTD/svg11.dtd">
<svg version="1.1" id="Ebene_1" xmlns="http://www.w3.org/2000/svg" xmlns:xlink="http://www.w3.org/1999/xlink" x="0px" y="0px"
	 width="64px" height="64px" viewBox="0 0 64 64" enable-background="new 0 0 64 64" xml:space="preserve">
<g>
	<g>
		<linearGradient id="SVGID_1_" gradientUnits="userSpaceOnUse" x1="0.373" y1="27.3359" x2="54.2988" y2="27.3359">
			<stop  offset="0" style="stop-color:#FFFFFF"/>
			<stop  offset="1" style="stop-color:#F4F4F6"/>
		</linearGradient>
		<rect x="0.373" y="0.373" fill-rule="evenodd" clip-rule="evenodd" fill="url(#SVGID_1_)" width="53.926" height="53.926"/>
		<path fill="#605F61" d="M54.299,54.673H0.373L0,54.299V0.373L0.373,0h53.926l0.374,0.373v53.926L54.299,54.673z M0.746,53.926
			h53.18V0.747H0.746V53.926z"/>
	</g>
	<g>
		<rect x="0.373" y="0.373" fill-rule="evenodd" clip-rule="evenodd" fill="#9D9D9C" width="53.926" height="14.83"/>
		<path fill="#605F61" d="M54.299,15.576H0.373C0.167,15.576,0,15.409,0,15.203V0.373C0,0.167,0.167,0,0.373,0h53.926
			c0.206,0,0.374,0.167,0.374,0.373v14.83C54.673,15.409,54.505,15.576,54.299,15.576z M0.746,14.829h53.18V0.747H0.746V14.829z"/>
	</g>
	<rect x="0.373" y="28.162" fill="#6F6F6F" width="53.926" height="0.497"/>
	<rect x="0.373" y="41.254" fill="#6F6F6F" width="53.926" height="0.497"/>
	<rect x="36.578" y="0.373" fill="#6F6F6F" width="0.498" height="54.114"/>
	<rect x="18.351" y="0.373" fill="#6F6F6F" width="0.498" height="54.114"/>
	<g>
		
			<linearGradient id="SVGID_2_" gradientUnits="userSpaceOnUse" x1="-530.0933" y1="-1466.7642" x2="-505.2796" y2="-1441.9506" gradientTransform="matrix(0.7071 0.7071 -0.7071 0.7071 -616.6469 1440.3881)">
			<stop  offset="0" style="stop-color:#42A03F"/>
			<stop  offset="1" style="stop-color:#348342"/>
		</linearGradient>
		<polygon fill="url(#SVGID_2_)" points="63.219,50.979 63.219,40.935 50.695,40.935 50.695,28.41 40.653,28.41 40.653,40.935 
			28.128,40.935 28.128,50.979 40.653,50.979 40.653,63.502 50.695,63.502 50.695,50.979 		"/>
		<path fill="#25632C" d="M51.191,64H40.155V51.476H27.631V40.438h12.524V27.914h11.036v12.523h12.524v11.038H51.191V64z
			 M41.15,63.006h9.047V50.481h12.524v-9.049H50.197V28.908H41.15v12.524H28.625v9.049H41.15V63.006z"/>
	</g>
</g>
</svg>
