<?xml version="1.0" encoding="utf-8"?>
<!-- Generator: Adobe Illustrator 16.0.4, SVG Export Plug-In . SVG Version: 6.00 Build 0)  -->
<!DOCTYPE svg PUBLIC "-//W3C//DTD SVG 1.1//EN" "http://www.w3.org/Graphics/SVG/1.1/DTD/svg11.dtd">
<svg version="1.1" id="Ebene_1" xmlns="http://www.w3.org/2000/svg" xmlns:xlink="http://www.w3.org/1999/xlink" x="0px" y="0px"
	 width="16px" height="16px" viewBox="0 0 16 16" enable-background="new 0 0 16 16" xml:space="preserve">
<path fill="#808080" d="M8,0C3.588,0,0,3.588,0,8c0,4.412,3.588,8,8,8c4.412,0,8-3.588,8-8C16,3.588,12.412,0,8,0z M7.665,4.229
	C6.812,4.195,5.98,4.049,5.19,3.78c0.6-1.091,1.446-2.041,2.475-2.803V4.229z M7.665,4.899v2.766H4.132
	c0.044-1.153,0.311-2.261,0.772-3.278C5.784,4.694,6.712,4.865,7.665,4.899z M7.665,8.335v2.766
	c-0.954,0.035-1.884,0.206-2.765,0.515c-0.46-1.019-0.726-2.127-0.769-3.28H7.665z M7.665,11.771v3.262
	c-1.032-0.764-1.879-1.717-2.479-2.81C5.978,11.952,6.811,11.805,7.665,11.771z M8.335,11.77c0.866,0.03,1.71,0.179,2.514,0.452
	c-0.607,1.104-1.466,2.065-2.514,2.833V11.77z M8.335,11.1V8.335h3.569c-0.043,1.153-0.309,2.261-0.769,3.278
	C10.242,11.302,9.302,11.131,8.335,11.1z M8.335,7.665V4.9c0.967-0.031,1.907-0.202,2.8-0.515c0.46,1.018,0.727,2.126,0.77,3.28
	H8.335z M8.335,4.23V0.945c1.047,0.769,1.906,1.729,2.513,2.833C10.045,4.051,9.2,4.2,8.335,4.23z M9.235,0.782
	c1.45,0.248,2.754,0.921,3.781,1.888c-0.49,0.341-1.004,0.635-1.542,0.866C10.916,2.495,10.16,1.559,9.235,0.782z M4.564,3.538
	C4.017,3.302,3.496,3.004,3,2.656c1.037-0.971,2.352-1.642,3.814-1.881C5.885,1.553,5.125,2.492,4.564,3.538z M4.277,4.145
	c-0.489,1.094-0.771,2.282-0.815,3.52H0.687c0.078-1.732,0.759-3.307,1.839-4.523C3.079,3.541,3.663,3.879,4.277,4.145z
	 M3.461,8.335c0.043,1.237,0.324,2.428,0.812,3.521c-0.612,0.267-1.194,0.604-1.747,1.002c-1.081-1.217-1.761-2.791-1.839-4.523
	H3.461z M4.561,12.465c0.56,1.044,1.314,1.981,2.242,2.759C5.346,14.982,4.034,14.312,3,13.345
	C3.495,12.997,4.015,12.7,4.561,12.465z M11.475,12.462c0.539,0.232,1.053,0.525,1.542,0.867c-1.027,0.968-2.331,1.641-3.781,1.889
	C10.16,14.44,10.916,13.506,11.475,12.462z M11.762,11.854c0.489-1.094,0.77-2.282,0.812-3.52h2.739
	c-0.079,1.724-0.753,3.292-1.824,4.506C12.943,12.451,12.367,12.117,11.762,11.854z M12.574,7.665
	c-0.043-1.238-0.324-2.426-0.813-3.521c0.605-0.262,1.182-0.595,1.728-0.985c1.072,1.215,1.746,2.783,1.825,4.506H12.574z"/>
</svg>
