<?xml version="1.0" encoding="utf-8"?>
<!-- Generator: Adobe Illustrator 16.0.0, SVG Export Plug-In . SVG Version: 6.00 Build 0)  -->
<!DOCTYPE svg PUBLIC "-//W3C//DTD SVG 1.1//EN" "http://www.w3.org/Graphics/SVG/1.1/DTD/svg11.dtd">
<svg version="1.1" id="Ebene_1" xmlns="http://www.w3.org/2000/svg" xmlns:xlink="http://www.w3.org/1999/xlink" x="0px" y="0px"
	 width="64px" height="64px" viewBox="0 0 64 64" enable-background="new 0 0 64 64" xml:space="preserve">
<g>
	
		<linearGradient id="SVGID_1_" gradientUnits="userSpaceOnUse" x1="277.3994" y1="31.999" x2="214.3838" y2="31.999" gradientTransform="matrix(-1 0 0 1 277.8906 0)">
		<stop  offset="0" style="stop-color:#009EE2"/>
		<stop  offset="1" style="stop-color:#00416E"/>
	</linearGradient>
	<path fill-rule="evenodd" clip-rule="evenodd" fill="url(#SVGID_1_)" d="M38.14,14.584h-6.832L44.236,0.492H25.976L5.939,20.056
		l20.036,19.562h18.261L30.991,25.179l7.148,0.09c7.958,0,14.411,6.201,14.411,13.852c0,7.651-7.223,13.801-15.18,13.801H0.492
		l0.004,10.587h36.875c14.01,0,26.137-10.919,26.137-24.388S52.151,14.584,38.14,14.584z"/>
	<path fill="#00416E" d="M37.371,64H0.004L0,52.429h37.371c7.961,0,14.688-6.095,14.688-13.309c0-7.366-6.245-13.358-13.92-13.358
		l-6.017-0.076l13.233,14.424h-19.58L5.234,20.056L25.775,0h19.581L32.428,14.092h5.712C52.399,14.092,64,25.318,64,39.12
		C64,52.606,51.806,64,37.371,64z M0.988,63.016h36.383c13.901,0,25.645-10.941,25.645-23.896c0-13.258-11.16-24.044-24.876-24.044
		h-7.952L43.116,0.984H26.178L6.646,20.056l19.531,19.069h16.939L29.857,24.673l8.288,0.104c8.212,0,14.897,6.435,14.897,14.343
		c0,7.748-7.176,14.293-15.672,14.293H0.984L0.988,63.016z"/>
</g>
</svg>
