<?xml version="1.0" encoding="utf-8"?>
<!-- Generator: Adobe Illustrator 16.0.4, SVG Export Plug-In . SVG Version: 6.00 Build 0)  -->
<!DOCTYPE svg PUBLIC "-//W3C//DTD SVG 1.1//EN" "http://www.w3.org/Graphics/SVG/1.1/DTD/svg11.dtd">
<svg version="1.1" id="Ebene_1" xmlns="http://www.w3.org/2000/svg" xmlns:xlink="http://www.w3.org/1999/xlink" x="0px" y="0px"
	 width="64px" height="64px" viewBox="0 0 64 64" enable-background="new 0 0 64 64" xml:space="preserve">
<g>
	<g>
		<g>
			<linearGradient id="SVGID_1_" gradientUnits="userSpaceOnUse" x1="20.7227" y1="1.0156" x2="45.2673" y2="68.4514">
				<stop  offset="0.5" style="stop-color:#FFFFFF"/>
				<stop  offset="1" style="stop-color:#EEEEEE"/>
			</linearGradient>
			<polygon fill="url(#SVGID_1_)" points="58.516,0.371 22.494,0.371 5.484,17.381 5.484,63.629 58.516,63.629 			"/>
			<path fill="#9D9D9C" d="M58.886,64H5.114V17.228l0.107-0.108L22.341,0h36.545V64z M5.855,63.259h52.289V0.741H22.647
				L5.855,17.535V63.259z"/>
		</g>
		<g>
			<linearGradient id="SVGID_2_" gradientUnits="userSpaceOnUse" x1="12.251" y1="4.0996" x2="17.718" y2="19.12">
				<stop  offset="0" style="stop-color:#FFFFFF"/>
				<stop  offset="1" style="stop-color:#EDEDED"/>
			</linearGradient>
			<polygon fill="url(#SVGID_2_)" points="22.494,0.371 5.484,17.381 22.494,17.381 			"/>
			<path fill="#9D9D9C" d="M22.494,17.752H5.484c-0.149,0-0.284-0.091-0.343-0.229c-0.057-0.14-0.024-0.299,0.08-0.404l17.01-17.011
				c0.106-0.106,0.265-0.137,0.404-0.08c0.139,0.058,0.229,0.192,0.229,0.343v17.01C22.865,17.586,22.699,17.752,22.494,17.752z
				 M6.379,17.011h15.745V1.266L6.379,17.011z"/>
		</g>
	</g>
	<g>
		<linearGradient id="SVGID_3_" gradientUnits="userSpaceOnUse" x1="32.4023" y1="21.1143" x2="32.4023" y2="52.459">
			<stop  offset="0" style="stop-color:#42A03F"/>
			<stop  offset="1" style="stop-color:#348342"/>
		</linearGradient>
		<polygon fill-rule="evenodd" clip-rule="evenodd" fill="url(#SVGID_3_)" points="32.401,21.114 15.745,35.803 15.745,52.459 
			32.401,36.058 49.06,52.459 49.06,35.803 		"/>
		<path fill="#25632C" d="M15.251,53.639V35.58l17.15-15.125L49.554,35.58v18.059L32.401,36.752L15.251,53.639z M32.401,35.364
			l16.164,15.914V36.026L32.401,21.773L16.239,36.026v15.252L32.401,35.364z"/>
	</g>
</g>
</svg>
