<?xml version="1.0" encoding="utf-8"?>
<!-- Generator: Adobe Illustrator 16.0.0, SVG Export Plug-In . SVG Version: 6.00 Build 0)  -->
<!DOCTYPE svg PUBLIC "-//W3C//DTD SVG 1.1//EN" "http://www.w3.org/Graphics/SVG/1.1/DTD/svg11.dtd">
<svg version="1.1" id="Ebene_1" xmlns="http://www.w3.org/2000/svg" xmlns:xlink="http://www.w3.org/1999/xlink" x="0px" y="0px"
	 width="16px" height="16px" viewBox="0 0 16 16" enable-background="new 0 0 16 16" xml:space="preserve">
<rect x="0.004" y="1" fill="#DC1018" width="1" height="14"/>
<rect x="0" y="1.995" transform="matrix(-1 -6.102641e-04 6.102641e-04 -1 16.0018 5.3271)" fill="#3C3C3B" width="16.003" height="1.332"/>
<rect x="0" y="12.66" transform="matrix(-1 -5.964358e-04 5.964358e-04 -1 9.8143 26.6553)" fill="#3C3C3B" width="9.823" height="1.332"/>
<rect x="0" y="4.662" transform="matrix(-1 -6.407817e-04 6.407817e-04 -1 15.9976 10.6609)" fill="#3C3C3B" width="16.002" height="1.332"/>
<rect x="0" y="7.328" transform="matrix(-1 -6.102641e-04 6.102641e-04 -1 15.9956 15.9941)" fill="#3C3C3B" width="16" height="1.333"/>
<rect x="0" y="9.995" transform="matrix(-1 -6.105025e-04 6.105025e-04 -1 15.9925 21.3271)" fill="#3C3C3B" width="15.998" height="1.332"/>
</svg>
