<?xml version="1.0" encoding="utf-8"?>
<!-- Generator: Adobe Illustrator 16.0.0, SVG Export Plug-In . SVG Version: 6.00 Build 0)  -->
<!DOCTYPE svg PUBLIC "-//W3C//DTD SVG 1.1//EN" "http://www.w3.org/Graphics/SVG/1.1/DTD/svg11.dtd">
<svg version="1.1" id="Ebene_1" xmlns="http://www.w3.org/2000/svg" xmlns:xlink="http://www.w3.org/1999/xlink" x="0px" y="0px"
	 width="16px" height="16px" viewBox="0 0 16 16" enable-background="new 0 0 16 16" xml:space="preserve">
<rect x="7.5" y="1" fill="#DC1018" width="1" height="14"/>
<g>
	
		<rect x="0.669" y="2.005" transform="matrix(-1 -6.658156e-04 6.658156e-04 -1 16.0051 5.3471)" fill="#3C3C3B" width="14.668" height="1.332"/>
	
		<rect x="0.663" y="12.673" transform="matrix(-1 -6.658156e-04 6.658156e-04 -1 15.9843 26.6831)" fill="#3C3C3B" width="14.668" height="1.332"/>
	
		<rect x="2.001" y="4.673" transform="matrix(-1 -6.510337e-04 6.510337e-04 -1 15.9995 10.6829)" fill="#3C3C3B" width="12" height="1.332"/>
	
		<rect x="0" y="7.337" transform="matrix(-1 -6.102641e-04 6.102641e-04 -1 15.9956 16.0146)" fill="#3C3C3B" width="16" height="1.336"/>
	
		<rect x="2.665" y="10.005" transform="matrix(-1 -5.492290e-04 5.492290e-04 -1 15.9907 21.3462)" fill="#3C3C3B" width="10.667" height="1.332"/>
</g>
</svg>
