<?xml version="1.0" encoding="utf-8"?>
<!-- Generator: Adobe Illustrator 16.0.0, SVG Export Plug-In . SVG Version: 6.00 Build 0)  -->
<!DOCTYPE svg PUBLIC "-//W3C//DTD SVG 1.1//EN" "http://www.w3.org/Graphics/SVG/1.1/DTD/svg11.dtd">
<svg version="1.1" id="Ebene_1" xmlns="http://www.w3.org/2000/svg" xmlns:xlink="http://www.w3.org/1999/xlink" x="0px" y="0px"
	 width="16px" height="16px" viewBox="0 0 16 16" enable-background="new 0 0 16 16" xml:space="preserve">
<rect x="15" y="1" fill="#DC1018" width="1" height="14"/>
<rect x="1.336" y="1.996" transform="matrix(-1 -5.992968e-04 5.992968e-04 -1 17.3382 5.3284)" fill="#3C3C3B" width="14.667" height="1.332"/>
<rect x="1.33" y="12.663" transform="matrix(-1 -5.992968e-04 5.992968e-04 -1 17.3182 26.6624)" fill="#3C3C3B" width="14.667" height="1.332"/>
<rect x="4.001" y="4.663" transform="matrix(-1 -6.510337e-04 6.510337e-04 -1 19.9995 10.6647)" fill="#3C3C3B" width="12" height="1.332"/>
<rect x="0" y="7.328" transform="matrix(-1 -6.102641e-04 6.102641e-04 -1 15.9956 15.9941)" fill="#3C3C3B" width="16" height="1.333"/>
<rect x="5.332" y="9.997" transform="matrix(-1 -6.410201e-04 6.410201e-04 -1 21.3232 21.332)" fill="#3C3C3B" width="10.666" height="1.332"/>
</svg>
