<?xml version="1.0" encoding="utf-8"?>
<!-- Generator: Adobe Illustrator 16.0.0, SVG Export Plug-In . SVG Version: 6.00 Build 0)  -->
<!DOCTYPE svg PUBLIC "-//W3C//DTD SVG 1.1//EN" "http://www.w3.org/Graphics/SVG/1.1/DTD/svg11.dtd">
<svg version="1.1" id="Ebene_1" xmlns="http://www.w3.org/2000/svg" xmlns:xlink="http://www.w3.org/1999/xlink" x="0px" y="0px"
	 width="16px" height="16px" viewBox="0 0 16 16" enable-background="new 0 0 16 16" xml:space="preserve">
<g>
	<g>
		<path fill="#3C3C3B" d="M7.739,12.846h-1.77V9.234H2.655v3.611H0.882V4.479h1.773v3.278h3.314V4.479h1.77V12.846z"/>
		<path fill="#3C3C3B" d="M15.118,12.846H9.268v-1.229l2.1-2.123c0.623-0.639,1.029-1.078,1.22-1.324s0.328-0.477,0.412-0.686
			c0.084-0.211,0.126-0.43,0.126-0.652c0-0.334-0.093-0.585-0.277-0.749c-0.186-0.164-0.432-0.246-0.74-0.246
			c-0.324,0-0.641,0.075-0.943,0.226c-0.307,0.146-0.625,0.357-0.958,0.643L9.244,5.559c0.413-0.354,0.754-0.602,1.025-0.744
			c0.271-0.146,0.566-0.256,0.888-0.334c0.319-0.08,0.679-0.119,1.075-0.119c0.522,0,0.985,0.104,1.387,0.287
			c0.4,0.188,0.711,0.457,0.933,0.812c0.222,0.343,0.332,0.729,0.332,1.181c0,0.393-0.067,0.744-0.202,1.086
			c-0.138,0.342-0.347,0.688-0.631,1.035c-0.283,0.354-0.785,0.859-1.503,1.521l-1.075,1.015v0.082h3.646L15.118,12.846
			L15.118,12.846z"/>
	</g>
</g>
</svg>
