<?xml version="1.0" encoding="utf-8"?>
<!-- Generator: Adobe Illustrator 16.0.0, SVG Export Plug-In . SVG Version: 6.00 Build 0)  -->
<!DOCTYPE svg PUBLIC "-//W3C//DTD SVG 1.1//EN" "http://www.w3.org/Graphics/SVG/1.1/DTD/svg11.dtd">
<svg version="1.1" id="Ebene_1" xmlns="http://www.w3.org/2000/svg" xmlns:xlink="http://www.w3.org/1999/xlink" x="0px" y="0px"
	 width="16px" height="16px" viewBox="0 0 16 16" enable-background="new 0 0 16 16" xml:space="preserve">
<g>
	<g>
		<path fill="#3C3C3B" d="M7.734,11.747H6.555V8.509H3.243v3.238H2.068V4.561h1.175V7.5h3.312V4.561h1.179V11.747z"/>
		<path fill="#3C3C3B" d="M13.721,6.214c0,0.455-0.132,0.834-0.396,1.138c-0.266,0.311-0.637,0.508-1.12,0.61v0.04
			c0.575,0.07,1.009,0.252,1.297,0.538c0.288,0.287,0.433,0.668,0.433,1.144c0,0.691-0.244,1.229-0.729,1.604
			c-0.49,0.374-1.185,0.562-2.084,0.562c-0.798,0-1.47-0.132-2.019-0.39v-1.024c0.306,0.147,0.629,0.271,0.972,0.354
			c0.339,0.081,0.669,0.122,0.981,0.122c0.559,0,0.975-0.104,1.25-0.312c0.273-0.205,0.411-0.521,0.411-0.959
			c0-0.386-0.153-0.664-0.457-0.849c-0.305-0.185-0.784-0.271-1.435-0.271H10.2V7.58h0.634c1.146,0,1.719-0.396,1.719-1.188
			c0-0.312-0.099-0.545-0.301-0.713c-0.197-0.166-0.493-0.25-0.884-0.25c-0.271,0-0.534,0.027-0.787,0.104
			c-0.25,0.074-0.552,0.229-0.894,0.445L9.121,5.167c0.658-0.479,1.425-0.728,2.296-0.728c0.728,0,1.29,0.153,1.696,0.466
			C13.52,5.236,13.721,5.665,13.721,6.214z"/>
	</g>
</g>
</svg>
