<?xml version="1.0" encoding="utf-8"?>
<!-- Generator: Adobe Illustrator 17.0.0, SVG Export Plug-In . SVG Version: 6.00 Build 0)  -->
<!DOCTYPE svg PUBLIC "-//W3C//DTD SVG 1.1//EN" "http://www.w3.org/Graphics/SVG/1.1/DTD/svg11.dtd">
<svg version="1.1" id="Calque_1" xmlns="http://www.w3.org/2000/svg" xmlns:xlink="http://www.w3.org/1999/xlink" x="0px" y="0px"
	 width="60px" height="60px" viewBox="0 0 60 60" enable-background="new 0 0 60 60" xml:space="preserve">
<path fill="#25A7E0" d="M47.207,22.54H34.741c-1.285,0-2.336,1.051-2.336,2.336V28h-3.748v-3.165c0-1.285-1.051-2.336-2.336-2.336
	H13.855c-1.285,0-2.336,1.051-2.336,2.336v10.289c0,1.285,1.051,2.336,2.336,2.336h12.466c1.285,0,2.336-1.051,2.336-2.336V32h3.748
	v3.165c0,1.285,1.051,2.336,2.336,2.336h12.466c1.285,0,2.336-1.051,2.336-2.336V24.875C49.543,23.591,48.492,22.54,47.207,22.54z
	 M24.92,33.723h-9.663v-7.486h9.663V28h-2.35c-1.375,0-2.5,0.9-2.5,2c0,1.1,1.125,2,2.5,2h2.35V33.723z M45.805,33.763h-9.663V32
	h2.428c1.375,0,2.5-0.9,2.5-2c0-1.1-1.125-2-2.5-2h-2.428v-1.723h9.663V33.763z"/>
</svg>
