<?xml version="1.0" encoding="utf-8"?>
<!-- Generator: Adobe Illustrator 16.0.0, SVG Export Plug-In . SVG Version: 6.00 Build 0)  -->
<!DOCTYPE svg PUBLIC "-//W3C//DTD SVG 1.1//EN" "http://www.w3.org/Graphics/SVG/1.1/DTD/svg11.dtd">
<svg version="1.1" id="Ebene_1" xmlns="http://www.w3.org/2000/svg" xmlns:xlink="http://www.w3.org/1999/xlink" x="0px" y="0px"
	 width="16px" height="16px" viewBox="0 0 16 16" enable-background="new 0 0 16 16" xml:space="preserve">
<rect x="4.375" y="1.904" fill="#3C3C3B" width="11.625" height="1.5"/>
<rect x="8.708" y="7.182" fill="#3C3C3B" width="7.292" height="1.5"/>
<rect x="13.188" y="12.458" fill="#3C3C3B" width="2.812" height="1.5"/>
<g>
	
		<linearGradient id="SVGID_1_" gradientUnits="userSpaceOnUse" x1="628.1035" y1="3717.3447" x2="630.582" y2="3717.3447" gradientTransform="matrix(1 0 0 1 -628.1035 -3714.7812)">
		<stop  offset="0" style="stop-color:#DC1018"/>
		<stop  offset="1" style="stop-color:#B51722"/>
	</linearGradient>
	<path fill="url(#SVGID_1_)" d="M2.479,5.063H1.423V2.168l0.01-0.479l0.018-0.517c-0.176,0.18-0.298,0.293-0.364,0.349L0.511,1.98
		L0,1.348l1.609-1.284h0.869L2.479,5.063L2.479,5.063z"/>
</g>
<g>
	
		<linearGradient id="SVGID_2_" gradientUnits="userSpaceOnUse" x1="632.0391" y1="3722.8926" x2="635.3584" y2="3722.8926" gradientTransform="matrix(1 0 0 1 -628.1035 -3714.7812)">
		<stop  offset="0" style="stop-color:#DC1018"/>
		<stop  offset="1" style="stop-color:#B51722"/>
	</linearGradient>
	<path fill="url(#SVGID_2_)" d="M7.125,10.604H3.952V9.886l1.236-1.255c0.366-0.375,0.607-0.646,0.719-0.78
		c0.111-0.146,0.191-0.278,0.242-0.405c0.049-0.119,0.075-0.248,0.075-0.381c0-0.197-0.056-0.35-0.166-0.443
		c-0.11-0.097-0.253-0.146-0.435-0.146c-0.192,0-0.378,0.048-0.559,0.133C4.886,6.695,4.697,6.822,4.502,6.984L3.936,6.313
		C4.18,6.105,4.38,5.959,4.539,5.875c0.159-0.088,0.335-0.146,0.523-0.201c0.189-0.043,0.4-0.062,0.634-0.062
		c0.308,0,0.579,0.062,0.816,0.167C6.748,5.896,6.929,6.051,7.06,6.259c0.13,0.204,0.195,0.438,0.195,0.69
		c0,0.229-0.041,0.438-0.119,0.646C7.055,7.791,6.931,7.994,6.767,8.199C6.596,8.414,6.301,8.713,5.879,9.095L5.246,9.69v0.049
		h1.877v0.871h0.002V10.604z"/>
</g>
<g>
	
		<linearGradient id="SVGID_3_" gradientUnits="userSpaceOnUse" x1="636.7295" y1="3728.1787" x2="640.0957" y2="3728.1787" gradientTransform="matrix(1 0 0 1 -628.1035 -3714.7812)">
		<stop  offset="0" style="stop-color:#DC1018"/>
		<stop  offset="1" style="stop-color:#B51722"/>
	</linearGradient>
	<path fill="url(#SVGID_3_)" d="M11.848,12.052c0,0.305-0.092,0.562-0.275,0.775c-0.184,0.211-0.44,0.354-0.774,0.438v0.02
		c0.392,0.047,0.69,0.17,0.892,0.357c0.203,0.189,0.303,0.443,0.303,0.768c0,0.469-0.169,0.832-0.508,1.094
		c-0.34,0.266-0.826,0.396-1.455,0.396c-0.529,0-0.997-0.088-1.403-0.26v-0.887c0.188,0.102,0.396,0.18,0.623,0.229
		c0.226,0.062,0.45,0.094,0.672,0.094c0.337,0,0.589-0.059,0.75-0.174c0.163-0.109,0.244-0.301,0.244-0.555
		c0-0.229-0.092-0.396-0.281-0.486c-0.186-0.098-0.481-0.146-0.892-0.146H9.375v-0.779h0.374c0.377,0,0.651-0.061,0.828-0.146
		c0.172-0.104,0.261-0.27,0.261-0.504c0-0.371-0.23-0.562-0.691-0.562c-0.16,0-0.324,0.021-0.487,0.076
		c-0.168,0.057-0.349,0.146-0.552,0.271L8.631,11.36c0.444-0.305,0.973-0.465,1.588-0.465c0.504,0,0.901,0.102,1.19,0.307
		C11.704,11.405,11.848,11.688,11.848,12.052z"/>
</g>
</svg>
