<?xml version="1.0" encoding="utf-8"?>
<!-- Generator: Adobe Illustrator 17.0.0, SVG Export Plug-In . SVG Version: 6.00 Build 0)  -->
<!DOCTYPE svg PUBLIC "-//W3C//DTD SVG 1.1//EN" "http://www.w3.org/Graphics/SVG/1.1/DTD/svg11.dtd">
<svg version="1.1" id="Calque_1" xmlns="http://www.w3.org/2000/svg" xmlns:xlink="http://www.w3.org/1999/xlink" x="0px" y="0px"
	 width="60px" height="60px" viewBox="0 0 60 60" enable-background="new 0 0 60 60" xml:space="preserve">
<path fill="#25A7E0" d="M13.21,26.931C15.124,23.832,18.048,22,21.443,22h10.515l-6.885-6.761l4.506-4.444l14.506,14.537
	l-4.506,4.522l-0.007,0.001l-10.077,10.08l-4.506-4.38L31.673,29h-10.23c-0.704,0-1.75,0.053-2.702,1.595
	c-0.835,1.352-1.314,3.131-1.314,5.207c0,3.071,1.179,6.198,3.083,6.198H48v7H20.511c-3.114,0-5.789-1.755-7.534-4.714
	c-1.322-2.242-2.049-5.313-2.049-8.421C10.927,32.568,11.738,29.315,13.21,26.931z"/>
</svg>
