<?xml version="1.0" encoding="utf-8"?>
<!-- Generator: Adobe Illustrator 17.0.0, SVG Export Plug-In . SVG Version: 6.00 Build 0)  -->
<!DOCTYPE svg PUBLIC "-//W3C//DTD SVG 1.1//EN" "http://www.w3.org/Graphics/SVG/1.1/DTD/svg11.dtd">
<svg version="1.1" id="Calque_1" xmlns="http://www.w3.org/2000/svg" xmlns:xlink="http://www.w3.org/1999/xlink" x="0px" y="0px"
	 width="60px" height="60px" viewBox="0 0 60 60" enable-background="new 0 0 60 60" xml:space="preserve">
<path fill="#25A7E0" d="M47.03,26.931C45.116,23.832,42.192,22,38.796,22H28.282l6.885-6.761l-4.506-4.444L16.155,25.333
	l4.506,4.522l0.007,0.001l10.077,10.08l4.506-4.38L28.566,29h10.23c0.704,0,1.75,0.053,2.702,1.595
	c0.835,1.352,1.314,3.131,1.314,5.207c0,3.071-1.179,6.198-3.083,6.198H12.24v7h27.489c3.114,0,5.789-1.755,7.534-4.714
	c1.322-2.242,2.049-5.313,2.049-8.421C49.313,32.568,48.502,29.315,47.03,26.931z"/>
</svg>
